<svg role="img" width="160" height="385" viewBox="0 0 160 385" fill="none" xmlns="http://www.w3.org/2000/svg">
<circle cx="80.5" cy="32.5" r="32.5" fill="#009CB8"/>
<path d="M80 225C124.183 225 160 260.817 160 305L-3.49691e-06 305C-1.56562e-06 260.817 35.8172 225 80 225Z" fill="white"/>
<path d="M80 305C124.183 305 160 340.817 160 385L-3.49691e-06 385C-1.56562e-06 340.817 35.8172 305 80 305Z" fill="#FFBB0C"/>
<path fill-rule="evenodd" clip-rule="evenodd" d="M80 225C35.8172 225 0 189.183 0 145C0 100.817 35.8172 65 80 65C124.183 65 160 100.817 160 145C160 189.183 124.183 225 80 225ZM80 188C56.2518 188 37 168.748 37 145C37 121.252 56.2518 102 80 102C103.748 102 123 121.252 123 145C123 168.748 103.748 188 80 188Z" fill="#D7A4DC"/>
</svg>
