<?xml version="1.0" encoding="utf-8"?>
<!-- Generator: Adobe Illustrator 20.0.0, SVG Export Plug-In . SVG Version: 6.00 Build 0)  -->
<svg version="1.1" id="Calque_1" xmlns="http://www.w3.org/2000/svg" xmlns:xlink="http://www.w3.org/1999/xlink" x="0px" y="0px"
	 viewBox="0 0 48 48" style="enable-background:new 0 0 48 48;" xml:space="preserve">
<style type="text/css">
	.st0{fill:#FFFFFF;}
	.st1{fill:rgb(41, 117, 209);}
	.st2{fill:none;stroke:rgb(41, 117, 209);stroke-linecap:round;stroke-linejoin:round;stroke-miterlimit:10;}
</style>
<g>
	<path class="st2" d="M12.6,21.4v14.8c0,0.6,0.5,1.1,1.1,1.1h5.5c0.6,0,1.1-0.5,1.1-1.1v-6.3c0-0.6,0.5-1.1,1.1-1.1h5.4
		c0.6,0,1.1,0.5,1.1,1.1v6.3c0,0.6,0.5,1.1,1.1,1.1h5.5c0.6,0,1.1-0.5,1.1-1.1V21.4"/>
	<path class="st2" d="M9.4,24.6l13.4-13.4c0.7-0.7,1.8-0.7,2.5,0l13.4,13.4"/>
	<line class="st2" x1="15.5" y1="18" x2="15.5" y2="12.6"/>
</g>
</svg>
