<svg xmlns="http://www.w3.org/2000/svg" width="118.321" height="36"><script/><defs><style>.cls-2{fill:#0c419a}</style></defs><g id="Logo"><path d="M56.284 25.319v-8.138h2.142v8.221c0 .47.203.61.387.61a.9.9 0 0 0 .262-.031l.256 1.613a2.7 2.7 0 0 1-1.076.183c-1.469.014-1.971-.964-1.971-2.46m-13.718-2.604c.191-.596 2.087-4.801 2.087-4.801h2.25v9.7h-2.034v-5.996l-1.693 4.362H41.89l-1.693-4.362v5.996h-2.034v-9.698h2.25s1.896 4.205 2.087 4.801zm17.654 2.852c0-1.554 1.306-2.419 4.165-2.726-.043-.647-.452-1.046-1.237-1.046-.61 0-1.211.26-1.912.667l-.761-1.436a5.8 5.8 0 0 1 3.086-.972c1.849 0 2.873 1.078 2.873 3.341v4.222H64.4v-.714s-.84.893-2.016.893c-1.337 0-2.163-.983-2.163-2.228m4.173-.128v-1.29c-1.524.203-2.122.686-2.122 1.245 0 .476.321.708.83.708s.901-.277 1.282-.669zm-15.989.128c0-1.554 1.304-2.419 4.165-2.726-.045-.647-.452-1.046-1.237-1.046-.61 0-1.221.26-1.912.667l-.761-1.436a5.8 5.8 0 0 1 3.086-.972c1.847 0 2.873 1.078 2.873 3.341v4.222h-2.034v-.714s-.84.893-2.016.893c-1.333 0-2.163-.983-2.163-2.228m4.173-.128v-1.29c-1.524.203-2.122.686-2.122 1.245 0 .476.319.708.83.708s.911-.277 1.292-.669zm19.903-8.25v3.563a2.3 2.3 0 0 0-1.772-.706c-1.522 0-2.999 1.459-2.999 3.866s1.162 3.866 2.958 3.866c.985 0 1.744-.734 1.813-.814v.625h2.142V17.187zm-1.255 8.815c-.83 0-1.32-.653-1.32-2.102 0-1.406.61-2.059 1.302-2.059a2.06 2.06 0 0 1 1.274.466v3.033c-.431.484-.8.661-1.255.661m5.039-7.995c0-.671.521-1.143 1.239-1.143s1.241.472 1.241 1.143-.521 1.143-1.241 1.143-1.239-.478-1.239-1.143m.169 2.224h2.142v7.383h-2.142zm3.471 3.695c0-2.397 1.51-3.866 3.324-3.866 2.059 0 3.194 1.528 3.194 3.544a5 5 0 0 1-.09.966H82.01c.203 1.072.911 1.562 1.876 1.562.547 0 1.017-.218 1.546-.531l.724 1.367a4.64 4.64 0 0 1-2.563.832c-2.138-.008-3.686-1.432-3.686-3.876m4.679-.814c0-.814-.46-1.396-1.316-1.396-.675 0-1.145.462-1.29 1.396zM38.171 13.11V4.972h2.142v8.225c0 .47.203.61.387.61a1 1 0 0 0 .262-.028l.256 1.613a2.75 2.75 0 0 1-1.074.181c-1.471.008-1.973-.97-1.973-2.464m11.365-.016.588 2.309h2.214l-2.984-9.705H46.9l-2.983 9.706h2.216l.586-2.309zm-2.383-1.7.936-3.68h.077l.936 3.68zm5.615 3.158.962-1.363c.655.507 1.261.777 1.866.777.637 0 .913-.25.913-.637 0-.486-.716-.706-1.461-1.005-.885-.35-1.912-.95-1.912-2.171 0-1.373 1.095-2.311 2.761-2.311a4.07 4.07 0 0 1 2.549.936l-.96 1.312c-.513-.38-1.017-.629-1.522-.629-.553 0-.826.22-.826.588 0 .472.677.653 1.424.93.916.346 1.947.873 1.947 2.224s-1.031 2.38-2.968 2.38a4.62 4.62 0 0 1-2.773-1.031m6.411 0 .964-1.363c.653.507 1.259.777 1.864.777.639 0 .913-.25.913-.637 0-.486-.716-.706-1.461-1.005-.885-.35-1.912-.95-1.912-2.171 0-1.373 1.095-2.311 2.763-2.311a4.07 4.07 0 0 1 2.547.936l-.958 1.312c-.515-.38-1.017-.629-1.522-.629-.553 0-.826.22-.826.588 0 .472.675.653 1.424.93.913.346 1.947.873 1.947 2.224s-1.034 2.38-2.97 2.38a4.63 4.63 0 0 1-2.773-1.031m15.159-6.525h2.142v1.05c.407-.814 1.4-1.105 1.904-1.093a2.1 2.1 0 0 1 .861.149l-.222 1.99a3.2 3.2 0 0 0-.913-.222 1.735 1.735 0 0 0-1.628 1.662v3.841h-2.144zm13.175 0h2.142v.926c.61-.596 1.221-1.113 2.209-1.113 1.573 0 2.238 1.133 2.238 2.978v4.586h-2.144V11.1c0-1.062-.281-1.396-.899-1.396-.537 0-.942.256-1.412.718v4.98h-2.134zm14.007 3.689c0-2.395 1.51-3.866 3.324-3.866 2.059 0 3.194 1.53 3.194 3.544a5 5 0 0 1-.09.966h-4.323c.193 1.072.911 1.562 1.876 1.562.547 0 1.017-.218 1.546-.531l.724 1.367a4.62 4.62 0 0 1-2.563.832c-2.137-.007-3.688-1.431-3.688-3.874m4.679-.814c0-.814-.46-1.396-1.316-1.396-.675 0-1.145.464-1.292 1.396zm-26.49 2.455c0-1.556 1.304-2.421 4.165-2.728-.045-.647-.452-1.046-1.237-1.046-.61 0-1.221.26-1.912.667l-.77-1.436a5.8 5.8 0 0 1 3.086-.972c1.847 0 2.873 1.078 2.873 3.341v4.222H83.88v-.712s-.84.891-2.016.891c-1.318 0-2.155-.983-2.155-2.226m4.172-.133v-1.288c-1.524.203-2.122.688-2.122 1.245 0 .476.319.708.83.708s.911-.277 1.292-.665m-40.75-8.29c-.444 0-1.048.338-1.048.964a.87.87 0 0 0 .879.883h.063c-.022.643-.61 1.017-.905 1.17l.566.789c1.869-.602 2.258-3.794.445-3.806m27.303 3.092v4.883c-.419.582-.747.814-1.286.814-.61 0-.897-.334-.897-1.396V8.026h-2.142v4.649c0 1.748.747 2.917 2.27 2.913a2.67 2.67 0 0 0 2.071-.94v.761h2.124V8.026zm28.645 5.79c-.93 0-1.628-.814-1.628-2.102s.661-2.108 1.691-2.108a1.4 1.4 0 0 1 .936.407l1.017-1.406a3.1 3.1 0 0 0-2.067-.759c-1.996 0-3.737 1.424-3.737 3.866s1.528 3.866 3.546 3.866a3.56 3.56 0 0 0 2.382-.879l-.789-1.477c-.429.35-.861.592-1.351.592M38.883 31.127h.759l1.19 3.65h-.686l-.555-1.943c-.116-.387-.224-.802-.33-1.202h-.022c-.102.407-.203.814-.323 1.202l-.562 1.943h-.661zm-.486 2.152h1.719v.509h-1.719zm2.822 1.992a.7.7 0 0 1 .395-.586v-.022a.52.52 0 0 1-.248-.458.66.66 0 0 1 .303-.511v-.022a.92.92 0 0 1-.369-.714c0-.629.511-.985 1.084-.985a1.3 1.3 0 0 1 .407.067h.981v.478h-.5a.72.72 0 0 1 .157.46c0 .61-.462.936-1.042.936a1 1 0 0 1-.37-.073.32.32 0 0 0-.134.262c0 .155.112.248.444.248h.488c.655 0 1.003.203 1.003.677 0 .539-.568.966-1.463.966-.647-.01-1.135-.246-1.135-.724m1.982-.149c0-.203-.169-.275-.484-.275h-.374a1.4 1.4 0 0 1-.372-.039.46.46 0 0 0-.203.362c0 .25.269.395.7.395s.734-.208.734-.444m-.339-2.162a.478.478 0 1 0-.95 0 .48.48 0 1 0 .95 0m1.571-1.77a.407.407 0 1 1 .407.362.366.366 0 0 1-.407-.362m.073.842h.643v2.742h-.643zm1.652 0h.527l.049.49h.018a.93.93 0 0 1 .779-.557.7.7 0 0 1 .309.057l-.112.557a1 1 0 0 0-.281-.045c-.218 0-.482.151-.647.568v1.672h-.643zm3.396 1.373c0-.891.61-1.44 1.263-1.44.743 0 1.133.537 1.133 1.302a1.7 1.7 0 0 1-.028.313h-1.739a.78.78 0 0 0 .814.763 1.17 1.17 0 0 0 .637-.203l.218.407a1.7 1.7 0 0 1-.94.297c-.763-.002-1.357-.533-1.357-1.438m1.831-.262c0-.423-.189-.68-.564-.68-.319 0-.61.24-.657.68zm1.369-1.111h.527l.049.372h.018a1.28 1.28 0 0 1 .899-.439c.588 0 .844.407.844 1.09v1.719h-.643v-1.628c0-.452-.13-.623-.427-.623-.24 0-.407.12-.625.342v1.916h-.643zm3.044 2.427.299-.407a1.2 1.2 0 0 0 .757.307c.299 0 .439-.14.439-.33 0-.23-.297-.332-.59-.444-.36-.134-.769-.342-.769-.8s.382-.814.997-.814a1.48 1.48 0 0 1 .911.33l-.295.395a1 1 0 0 0-.6-.238c-.277 0-.407.13-.407.303 0 .216.277.299.574.407.37.138.785.315.785.828 0 .47-.372.85-1.064.85a1.7 1.7 0 0 1-1.038-.389m2.686-1.054c0-.891.61-1.44 1.263-1.44.741 0 1.131.537 1.131 1.302a1.7 1.7 0 0 1-.026.313h-1.742a.78.78 0 0 0 .814.763 1.15 1.15 0 0 0 .635-.203l.22.407a1.7 1.7 0 0 1-.94.297c-.761-.002-1.355-.533-1.355-1.438m1.831-.262c0-.423-.187-.68-.562-.68-.319 0-.6.24-.657.68zm1.369-1.111h.527l.049.374h.018a1.18 1.18 0 0 1 .84-.441.74.74 0 0 1 .757.492c.262-.279.535-.492.883-.492.578 0 .846.407.846 1.09v1.719h-.643v-1.628c0-.452-.134-.623-.423-.623a.85.85 0 0 0-.574.342v1.916h-.643v-1.628c0-.452-.134-.623-.421-.623a.85.85 0 0 0-.574.342v1.92h-.643zm5.475 2.454h-.023l-.055.289h-.507V30.83h.643v1.017l-.018.456a1.25 1.25 0 0 1 .791-.342c.686 0 1.08.549 1.08 1.394 0 .94-.559 1.483-1.17 1.483a1.1 1.1 0 0 1-.743-.354m1.257-1.117c0-.547-.179-.871-.596-.871a.85.85 0 0 0-.598.307v1.278a.85.85 0 0 0 .547.228c.366 0 .647-.321.647-.944zm1.461.7V30.83h.643v3.271c0 .157.071.203.138.203a.4.4 0 0 0 .1-.012l.081.48a.9.9 0 0 1-.34.057c-.456.01-.623-.285-.623-.763m1.52-.663c0-.891.61-1.44 1.263-1.44.743 0 1.133.537 1.133 1.302a1.7 1.7 0 0 1-.028.313H72.02a.78.78 0 0 0 .814.763 1.17 1.17 0 0 0 .637-.203l.218.407a1.7 1.7 0 0 1-.94.297c-.757-.002-1.351-.533-1.351-1.438m1.831-.262c0-.423-.187-.68-.562-.68-.319 0-.61.24-.657.68zm1.752.834a.407.407 0 0 0-.429.395.39.39 0 0 0 .407.395h.049c0 .293-.203.543-.564.682l.14.354a1.19 1.19 0 0 0 .869-1.16c.008-.423-.167-.665-.472-.665m2.706-1.945h.527l.049.293h.018a1.32 1.32 0 0 1 .826-.36c.686 0 1.078.549 1.078 1.396 0 .938-.562 1.481-1.17 1.481a1.1 1.1 0 0 1-.706-.301l.018.452v.865h-.643zm1.831 1.337c0-.547-.179-.871-.596-.871a.87.87 0 0 0-.598.307v1.278a.85.85 0 0 0 .549.228c.372 0 .651-.321.651-.944zm1.483-1.337h.527l.049.49h.018a.94.94 0 0 1 .779-.557.7.7 0 0 1 .309.057l-.112.557a1 1 0 0 0-.281-.045c-.218 0-.482.151-.647.568v1.672H81zm1.931 1.373c0-.913.621-1.44 1.304-1.44s1.304.527 1.304 1.44-.621 1.436-1.304 1.436-1.304-.527-1.304-1.436m1.947 0c0-.549-.242-.916-.643-.916s-.643.366-.643.916.24.911.643.911.643-.362.643-.911m1.483.446v-1.299h-.391v-.482l.425-.031.075-.747h.533v.747h.7v.513h-.7v1.304c0 .323.126.48.389.48a.9.9 0 0 0 .287-.061l.108.472a1.7 1.7 0 0 1-.559.102c-.633-.008-.867-.409-.867-.999m1.839-.446c0-.891.61-1.44 1.263-1.44.741 0 1.131.537 1.131 1.302a1.5 1.5 0 0 1-.028.313h-1.739a.78.78 0 0 0 .814.763 1.16 1.16 0 0 0 .637-.203l.22.407a1.7 1.7 0 0 1-.94.297c-.763-.002-1.357-.533-1.357-1.438m1.831-.262c0-.423-.187-.68-.564-.68-.317 0-.6.24-.655.68zm-.907-1.882.824-.975.444.427-.946.865zm2.055 4.012a.7.7 0 0 1 .397-.586v-.022a.52.52 0 0 1-.248-.458.66.66 0 0 1 .303-.511v-.022a.92.92 0 0 1-.362-.724c0-.629.509-.985 1.082-.985a1.3 1.3 0 0 1 .407.067h.981v.478h-.5a.72.72 0 0 1 .157.46c0 .61-.462.936-1.044.936a1 1 0 0 1-.37-.073.32.32 0 0 0-.134.262c0 .155.112.248.446.248h.476c.655 0 1.003.203 1.003.677 0 .539-.568.966-1.463.966-.645 0-1.133-.236-1.133-.714m1.984-.149c0-.203-.171-.275-.484-.275h-.376a1.4 1.4 0 0 1-.37-.039.46.46 0 0 0-.203.362c0 .25.269.395.698.395s.736-.208.736-.444m-.337-2.164a.478.478 0 1 0-.95 0 .48.48 0 1 0 .95 0m1.339.446c0-.891.61-1.44 1.263-1.44.741 0 1.131.537 1.131 1.302a1.7 1.7 0 0 1-.026.313h-1.742a.78.78 0 0 0 .814.763 1.15 1.15 0 0 0 .635-.203l.22.407a1.7 1.7 0 0 1-.94.297c-.761-.002-1.355-.533-1.355-1.438m1.831-.262c0-.423-.187-.68-.562-.68-.319 0-.6.24-.657.68zm1.369-1.111h.527l.049.49h.018a.94.94 0 0 1 .779-.557.7.7 0 0 1 .309.057l-.112.557a1 1 0 0 0-.281-.045c-.218 0-.482.151-.647.568v1.672h-.643zm3.396 1.373a1.355 1.355 0 0 1 1.375-1.44 1.17 1.17 0 0 1 .802.309l-.313.417a.67.67 0 0 0-.454-.203c-.444 0-.749.366-.749.916s.301.911.728.911a.9.9 0 0 0 .566-.236l.262.423a1.35 1.35 0 0 1-.895.338c-.749.002-1.322-.525-1.322-1.434m2.926-2.574h.643v1.017l-.026.531a1.26 1.26 0 0 1 .877-.407c.588 0 .844.407.844 1.09v1.719h-.64v-1.628c0-.452-.128-.623-.425-.623-.242 0-.407.12-.627.342v1.917h-.643zm3.111 3.206c0-.588.486-.893 1.611-1.017 0-.295-.126-.541-.496-.541a1.5 1.5 0 0 0-.771.271l-.236-.429a2.14 2.14 0 0 1 1.125-.36c.686 0 1.017.423 1.017 1.186v1.628h-.527l-.049-.303h-.018a1.32 1.32 0 0 1-.85.37.77.77 0 0 1-.806-.804m1.611 0v-.61c-.743.094-.991.289-.991.566 0 .242.165.348.395.348a.87.87 0 0 0 .596-.301zm1.402-.633a1.355 1.355 0 0 1 1.375-1.44 1.17 1.17 0 0 1 .802.309l-.313.417a.68.68 0 0 0-.456-.203c-.441 0-.747.366-.747.916s.301.911.726.911a.9.9 0 0 0 .568-.236l.26.423a1.35 1.35 0 0 1-.893.338c-.749.002-1.322-.525-1.322-1.434m2.899.346v-1.719h.643v1.638c0 .45.128.61.425.61.242 0 .407-.112.61-.38v-1.878h.643v2.742h-.527l-.049-.407h-.018a1.12 1.12 0 0 1-.883.472c-.592.012-.844-.387-.844-1.078m3.273-1.719h.527l.049.372h.016a1.27 1.27 0 0 1 .899-.439c.586 0 .844.407.844 1.09v1.719h-.643v-1.628c0-.452-.13-.623-.427-.623-.24 0-.407.12-.625.342v1.916h-.643zM1.86 18.129l-.253-.226a.66.66 0 0 0 .203-.407q-.002-.238-.153-.244c-.151-.006-.144.09-.203.234l-.119.214a.49.49 0 0 1-.476.319.55.55 0 0 1-.476-.627.78.78 0 0 1 .248-.537l.232.203a.55.55 0 0 0-.151.346c0 .132.045.218.142.222s.146-.104.203-.248l.098-.203a.466.466 0 0 1 .476-.313c.281.012.513.258.494.661a.94.94 0 0 1-.267.606M.291 15.716 0 15.224l.273-.169.236.523zm.203.389.167-1.05.317.047-.102.669.344.053.077-.566.317.049-.082.562.385.057.104-.696.317.047-.161 1.074zm1.084-1.479c-.542-.139-.764-.588-.66-.995a.72.72 0 0 1 .34-.439l.187.256a.43.43 0 0 0-.203.256c-.057.224.096.454.423.537s.574-.02.635-.26a.44.44 0 0 0-.062-.35l.283-.136a.7.7 0 0 1 .106.592c-.116.407-.494.682-1.046.539m.535-1.788-.848-.321.134-.358.887.336c.309.118.454.061.521-.116s0-.321-.311-.439l-.886-.343.13-.346.85.323c.531.203.68.505.525.913s-.473.552-1.002.351m-.037-2.393.281-.541c.167-.317.407-.523.769-.336s.358.517.193.836l-.106.203.541.281-.177.34zm.958-.153c.094-.179.067-.315-.081-.393s-.248 0-.34.173l-.092.173.423.22zm.163.126-.096-.346 1.097-.041-.203.38zm-.126-1.809.203-.321 1.424.918-.203.321zm1.068-1.015-.276.371-.254-.203.795-1.046.256.203-.289.37 1.09.832-.232.303zm.671-1.369.722-.775.236.218-.462.496.248.232.393-.423.236.22-.395.423.287.264.478-.515.236.22-.741.795zm.047-.439.037-.572.317.02-.1.557zm2.793-.326.014-.342a.68.68 0 0 0 .435-.116c.128-.098.151-.203.09-.275s-.163-.051-.317 0l-.23.061a.5.5 0 0 1-.553-.155.55.55 0 0 1 .167-.769.79.79 0 0 1 .568-.157v.307a.55.55 0 0 0-.358.112c-.104.079-.136.175-.077.252s.173.043.326 0l.224-.063a.464.464 0 0 1 .547.159c.173.222.136.557-.181.804a.93.93 0 0 1-.653.181m1.054-1.626c-.287-.474-.183-.907.203-1.143s.814-.122 1.109.348.189.92-.203 1.156-.824.114-1.109-.36m.981-.592c-.175-.291-.407-.387-.61-.269s-.22.366-.043.657.407.407.61.281.218-.378.043-.669m.83-.466c-.238-.509-.039-.96.35-1.141a.71.71 0 0 1 .552-.007l-.079.307a.4.4 0 0 0-.328 0c-.203.098-.291.36-.146.667s.378.431.61.326a.44.44 0 0 0 .225-.283l.285.132a.7.7 0 0 1-.392.454c-.389.181-.838.063-1.078-.454m1.495-1.593.36-.132.584 1.593-.36.132zm1.524-.505.444-.118.946 1.499-.391.104-.433-.771c-.09-.151-.185-.334-.273-.492 0 .185.012.387 0 .564v.885l-.378.1zm.079 1.005.787-.203.075.287-.787.203zm1.516-1.39.378-.059.203 1.357.659-.1.049.317-1.04.157zm1.648-.228 1.058-.067.02.319-.675.045.022.338.576-.037.02.321-.576.031.024.389.702-.045.02.321-1.086.075zm2.771 4.964a.39.39 0 0 0-.287-.165l-.189-.018c-.132-.037-2.976.01-3.644.439-.071-.452-.226-.997-1.005-1.164-.549-.116-1.733.407-1.337 1.589a.79.79 0 0 0 .407.446c.102.053.262.028.382.338.035.092.102.081.161.063s.055-.01.126.049a.09.09 0 0 0 .102.018.1.1 0 0 0 .065.024c.028 0 .094-.02.11 0 .226.181.488-.104.588-.283l.364 1.105c-.087-.075-.983-.334-1.412.146-.374.407-.647.975-.962 1.937a.78.78 0 0 1-.551.503c-.488.179-.203.407-.079.429a3.2 3.2 0 0 0 1.141-.045c.181-.09.047-.507.248-.765l.446-.576a1.9 1.9 0 0 1-.159.867c-.146.358-.592.547-.724.718-.234.301.303.326.446.277.356-.122.61-.116.759-.203.203-.118.059-.437.126-.568.183-.362.814-1.154.885-1.28a.4.4 0 0 0 .026-.051 3.5 3.5 0 0 0 1.145.157c1.04-.124 1.272-.859 1.166-1.424a2.4 2.4 0 0 0-.527-1.017 12 12 0 0 0-.526-.794c.299-.071 1.953-.527 1.959-.513.063.134.203.165.252.203.108.059.169-.033.126-.059a.25.25 0 0 1-.102-.112 2 2 0 0 1 .36.026c.116.016.193-.242.112-.297" class="cls-2"/><path d="M34.263 15.008c-.267-1.424-1.597-2.309-2.283-2.6a5 5 0 0 0-.751-.26l-.228-.075c.049-.309.407-.334.623-.775.61-1.253-.643-2.136-1.571-1.933-.437.098-.743.254-.814.588-.037.181-.177.187-.407.427-.073.077.09.203.116.256 0 .014-.041.081-.057.157s0 .063 0 .073a.37.37 0 0 0-.045.177.48.48 0 0 0 0 .429 1.3 1.3 0 0 1 .189.472c0 .039 0 .059-.171 0-.043-.012-1.721-.507-1.908-.633s-1.872-1.945-2.055-2.299c-.1-.203-.203-.323-.258-.319-.393.024.285.732-.096.49a10 10 0 0 1-.407-.285c-.073-.059-.055-.031-.108-.116a.5.5 0 0 0-.128-.167c-.043-.031-.069-.039-.1-.031s-.051.059-.065.063a.3.3 0 0 0-.067 0c-.098.024-.024.275 0 .391a4.6 4.6 0 0 0 .354.761c.425.293.844.539.859.555.458.531.995 1.196 1.475 1.701.382.407 2.128 1.424 2.187 1.451.114.069.295.441.035 3.107-.098 1.003-.814 3.135-.474 4.238a13.2 13.2 0 0 1 .736 3.155c.057.437-.283.702-.769 1.054-.189.138-.722.468-.777.517-.09.081 0 .203.11.26a3 3 0 0 0 .45.189 1.26 1.26 0 0 0 .826-.161c.354-.203.387-.232.594-.358.24-.144.529-.191.61-.435.1-.326-.175-.791-.146-1.003.203-1.526.462-2.281.077-3.217-.077-.187.557-2.226.61-1.951.098.537.136 2.134.155 3.322 0 .519.425 2.362.559 3.023.203 1.017-1.516 1.831-1.137 2.136a1.3 1.3 0 0 0 .513.203.93.93 0 0 0 .975-.385c.366-.456.254-.33.543-.655.25-.281.071-.765.039-1.017-.065-.519-.01-.655-.014-1.587a8.8 8.8 0 0 1 .124-1.786c.271-1.786.437-2.757.521-3.516v-.043s.13.047.187-.047a1 1 0 0 0 .104-.407c.022-.1.063.028.063.028a1.5 1.5 0 0 1 .087.323 1.8 1.8 0 0 1-.142.439c-.069.203.106.232.151.248a1.95 1.95 0 0 0 .649-.515 1.2 1.2 0 0 0 .073-.466 7 7 0 0 0-.146-1.017c.163-.527.596-1.823.531-2.179m-1.221 2.059c-.057.254-.073.012-.313.954l.026-.134v-.407c0-1.168-.893-3.662-.352-3.131 0 0 .651.454.777.8.106.275.069 1.021-.138 1.919" style="fill-rule:evenodd;fill:#0c419a"/><path d="M11.277 19.854c-.203-.175-.905-1.137-1.365-1.516a6.5 6.5 0 0 1-.633-.814c-.832-1.109-1.017-1.172-1.595-1.27-.118-.079-.079-.171-.067-.175a.726.726 0 0 0 .498-.966c-.035-.144.063-.203.061-.342a1.5 1.5 0 0 0-.11-.547.41.41 0 0 0-.067-.391c-.407-.513-1.424-.537-1.947-.173-.423.293-.175.496-.307.911a.64.64 0 0 0 .173.653c.02.138.437.407.356.7s-.578.366-.566.366a.6.6 0 0 0-.151.057c-.777.444-1.53 1.088-1.628 1.798.043.572.928 1.396 1.497 1.831.083.975.702 2.466.73 2.525.083.179-.175-.134-.798-.346-.303-.102-.702-.515-.787-.031-.037.203.051.553-.14.989-.144.332.024.863.391.852.264 0 .421-.814.421-.814s1.28.637 1.89.425c.356-.124.437-1.55.085-2.822-.124-.446.23.726 1.084 1.758.189.228.022.407.146 1.255a2.4 2.4 0 0 1 .043.547c-.024.407-.417.897.48 1.127s.84.45 1.414.065c.256-.173-.789-.279-.993-.897a1 1 0 0 1-.024-.134c-.024-.488.203-1.628.13-2.01-.326-1.933-1.137-2.826-1.241-3.278 0-1.349-.098-1.772.031-1.469a7 7 0 0 0 .588.893q.047.058.106.122a1.5 1.5 0 0 0 .244.232c.564.492 1.461 1.08 1.581 1.208 0 0 .067.594.311.551s1.296-.511 1.276-.629c-.043-.22-1.082-.214-1.119-.246M5.42 19.1c-.163-.313-.61-.895-.578-.991.248-.407.515-.525.594-.498S5.42 19.1 5.42 19.1" class="cls-2"/><path d="M29.113 30.788c-.047-.024-.68-.258-1.239-1.154-.25-.407-2.13-3.884-2.386-4.563-.509-1.345-4.476-3.764-4.643-3.904-.118-.096-.104-.33-.059-.482.334-1.131.203-2.144.267-2.297.163-.385.407-.944.226-1.308l-.407-.647s2.098.759 2.584.657c.419-.09 2.531-1.54 2.645-1.603.293-.149.995.071 1.705-.702.267-.291.073-.391.024-.34a.18.18 0 0 0-.244-.065c-.169.096-.753.264-.645.185.423-.317.13-.407.13-.407-.185.153-1.027.366-1.19.5-.203.157-.319.291-.407.346a9 9 0 0 1-2.281.897c-.179.041-1.853-1.054-2.822-1.202a1.9 1.9 0 0 0-.993.039c-.346.098-.319-.407-.063-.523.134-.063.358-.104.441-.275a.53.53 0 0 0-.016-.421.14.14 0 0 0-.014-.118c-.024-.059-.02-.028-.012-.087s-.026-.077-.041-.126a.2.2 0 0 1 .014-.112c.203-.171.116-.25.09-.275-.043-.053-.356-.187-.382-.391a2.4 2.4 0 0 0-.203-.649c-.02-.061-.055-.439-.222-.592-.203-.185-.633-.407-1.558-.163-.297.081-.242.224-.987.362-.889.165-1.379 1.487-1.3 2.034.065.444.446.228.429.425-.024.307-.057.814.594 1.003.14.041.993-.096 1.316-.039 0 0 .264.022.132.287-.065.13-.92.468-1.129.557-.561.234-1.996 2.588-2.429 2.81a5 5 0 0 0-.724.425c-.59.37-1.166.814-1.483.814-.423-.026-.767.177-1.05.814-.083.187-.035.283.118.321a.36.36 0 0 0 .262.134c.126.118.269.043.376-.014.332-.181.407-.323.537-.376.323-.106 2.238-.844 2.663-1.174.647-.354 1.949-1.691 2.238-1.705.264-.024.928.562.724 1.689-.071.385-.551 1.078-.814 1.483-.529.802-.12 1.501-.224 1.67-.547.893-1.221 2.087-2.356 3.109-.441.287-1.373.352-1.866.496-1.131.332-2.336 1.143-3.196 1.628-.285.159-.557-.183-.916-.224s-.389.5-.572.991c-.057.151-.081.222-.354.826-.108.236-.391.964-.106 1.265.26.362.879-.773 1.357-1.326.254-.293.407-.389.958-.515.35-.081 3.123-.834 4.954-1.235.045 0 .094-.018.146-.033 2.378-.61 4.844-3.723 4.883-3.709l4.038 2.002c.407.22.407 1.007.893 1.902.289.541.714 1.017 2.441 2.708.222.218.039.578.14.913s.277.366.6.34.572-.073.873-.094c.385-.022.281.018.73.085.218.033.716.104 1.068-.246.625-.631-.677-.313-1.267-.623" class="cls-2"/></g></svg>