<svg xmlns="http://www.w3.org/2000/svg" xml:space="preserve" width="100.125" height="36"><script/><path d="M100.245 25.97V6.071h-3.644V25.97Zm0-23.879a1.822 1.822 0 1 0-3.646-.002 1.822 1.822 0 0 0 3.647.002m-5.802 23.878.096-.024v-3.237l-.143.024q-.324.036-.72.072c-.239.024-.455.048-.623.048-.767 0-1.415-.144-1.87-.407-.456-.264-.791-.624-.983-1.079-.192-.456-.288-1.031-.288-1.654V9.57h4.412v-3.5h-4.412V1.54h-3.644v1.726q0 1.259-.719 2.014c-.479.504-1.151.768-1.99.768h-.863v3.5h3.572v10.213c0 2.014.528 3.596 1.583 4.723s2.565 1.679 4.531 1.679c.264 0 .6-.024 1.007-.048a7 7 0 0 0 1.055-.144M70.638 12.617c-.264-.335-.408-.767-.408-1.27 0-.719.264-1.295.839-1.774.551-.48 1.319-.719 2.278-.719 1.054 0 2.037.288 2.877.863s1.486 1.366 1.918 2.374l.048.119 2.996-1.391-.048-.12c-.6-1.607-1.582-2.853-2.997-3.74-1.391-.887-2.973-1.343-4.723-1.343-1.295 0-2.494.24-3.548.744s-1.894 1.198-2.494 2.062c-.599.887-.911 1.918-.911 3.116a5.14 5.14 0 0 0 1.247 3.405q1.259 1.438 3.956 2.23l2.949.839c.384.096.791.24 1.247.456.456.191.839.479 1.151.815s.456.767.456 1.319c0 .791-.336 1.414-1.007 1.894-.672.503-1.558.743-2.589.743a5.35 5.35 0 0 1-3.165-1.007c-.959-.671-1.702-1.582-2.254-2.709l-.048-.12-2.925 1.414.048.12c.623 1.679 1.678 3.021 3.14 4.004s3.237 1.487 5.203 1.487c1.414 0 2.685-.24 3.764-.744s1.942-1.198 2.565-2.086c.624-.887.935-1.918.935-3.021q0-2.086-1.367-3.596c-.911-.983-2.181-1.726-3.788-2.182l-3.212-.959a10 10 0 0 1-1.199-.456 3.4 3.4 0 0 1-.935-.767m-7.888 8.679c.863-1.535 1.295-3.333 1.295-5.322q0-2.949-1.295-5.322l-.215-.36a6.8 6.8 0 0 0-1.63-2.157c-.863-.791-1.87-1.415-2.997-1.894a9.7 9.7 0 0 0-3.668-.696h-.288c-1.294 0-2.541.24-3.667.696a10.3 10.3 0 0 0-2.494 1.463V5.929h-3.644v30.16h3.644V24.198a10.7 10.7 0 0 0 2.493 1.463 9.8 9.8 0 0 0 3.668.695h.288c1.294 0 2.541-.24 3.668-.695a10 10 0 0 0 2.997-1.894 7.4 7.4 0 0 0 1.558-2.014c.096-.144.192-.288.287-.456m-2.541-5.347c0 1.343-.264 2.517-.816 3.548-.551 1.007-1.294 1.846-2.229 2.422-.911.575-1.918.863-3.021.887-1.103-.024-2.134-.312-3.021-.887q-1.403-.899-2.23-2.446c-.551-1.03-.815-2.205-.815-3.5 0-1.343.264-2.517.816-3.548.551-1.007 1.294-1.846 2.229-2.422.911-.575 1.918-.863 3.021-.887 1.103.024 2.134.312 3.021.887q1.403.899 2.23 2.445a7.76 7.76 0 0 1 .816 3.5m-32.318 3.572c-.551-1.03-.815-2.205-.815-3.5 0-1.343.287-2.517.816-3.548a6.05 6.05 0 0 1 2.229-2.422c.935-.599 1.99-.887 3.165-.887 1.199 0 2.278.312 3.212.935s1.63 1.438 2.062 2.445l.048.12 3.26-1.558-.048-.12c-.384-1.055-1.031-1.99-1.894-2.782-.863-.791-1.87-1.414-2.997-1.894a9.8 9.8 0 0 0-3.667-.695q-2.914 0-5.179 1.367a9.96 9.96 0 0 0-3.572 3.692c-.863 1.535-1.271 3.333-1.271 5.322q0 2.949 1.295 5.322c.863 1.558 2.062 2.829 3.572 3.741s3.261 1.366 5.179 1.366c1.294 0 2.541-.24 3.668-.695a10 10 0 0 0 2.997-1.894 7.4 7.4 0 0 0 1.894-2.757l.048-.12-3.261-1.654-.048.119c-.456 1.031-1.151 1.894-2.062 2.517-.911.624-1.99.935-3.212.935-1.151 0-2.23-.288-3.165-.887a6.6 6.6 0 0 1-2.254-2.469" style="fill:#0057a5;stroke-width:.42621273"/><path d="M20.793 7.989V5.975h-3.98v2.014a6.314 6.314 0 0 1-6.306 6.306C4.827 14.317.224 18.92.224 24.602v1.918h3.98v-1.918a6.313 6.313 0 0 1 6.306-6.305c5.682-.024 10.285-4.627 10.285-10.309" style="fill:#41c0f0;stroke-width:.42621273"/><path d="M13.409 8.204c.287 1.511-.935 3.045-2.829 3.069-1.894.048-3.308-1.438-3.116-2.997.191-1.534 1.535-2.613 2.925-2.637 1.414 0 2.733 1.031 3.021 2.565" style="fill:#ed694b;stroke-width:.42621273"/><path d="M13.409 23.644c.287 1.51-.935 3.044-2.829 3.068s-3.308-1.438-3.116-2.997c.191-1.534 1.535-2.613 2.925-2.637a3.16 3.16 0 0 1 3.021 2.565" style="fill:#3aaa35;stroke-width:.42621273"/><path d="M20.793 8.108V6.094h-3.98v2.014a6.314 6.314 0 0 1-6.306 6.306C4.826 14.414.222 19.017.222 24.699v1.918h3.98v-1.918a6.314 6.314 0 0 1 6.306-6.306c5.658 0 10.285-4.627 10.285-10.285" style="fill:#40bfef;stroke-width:.42621273"/><path d="M20.793 24.603c0-5.681-4.603-10.285-10.285-10.285a6.314 6.314 0 0 1-6.306-6.306 1.986 1.986 0 0 0-1.99-1.99 1.98 1.98 0 0 0-1.99 1.966c0 5.658 4.603 10.285 10.285 10.285a6.314 6.314 0 0 1 6.306 6.306 1.986 1.986 0 0 0 1.99 1.99 1.98 1.98 0 0 0 1.99-1.966" style="fill:url(#a);stroke-width:.42621273"/><path d="M13.409 8.3c.287 1.535-.959 3.045-2.829 3.093-1.894.048-3.308-1.438-3.116-2.997.191-1.534 1.535-2.613 2.949-2.637 1.391 0 2.685 1.031 2.997 2.541" style="fill:#ec694a;stroke-width:.42621273"/><path d="M13.409 23.764c.287 1.51-.935 3.045-2.829 3.068-1.894.048-3.308-1.438-3.116-2.996.191-1.535 1.535-2.613 2.949-2.638 1.391 0 2.685 1.031 2.997 2.565" style="fill:#39a935;stroke-width:.42621273"/></svg>