<svg role="img" id="b4b2b9fe-f942-49b6-919a-816d625fc7ce" data-name="Layer 1" xmlns="http://www.w3.org/2000/svg" width="1055.5" height="670.16558" viewBox="0 0 1055.5 670.16558"><path d="M72.25,234.08279v296h476v-296ZM446.50769,440.76272a12.03523,12.03523,0,0,1-12,12h-58a12.03519,12.03519,0,0,1-12-12v-3a12.03535,12.03535,0,0,1,12-12h58a12.03539,12.03539,0,0,1,12,12Z" transform="translate(-72.25 -114.91721)" fill="#f2f2f2"/><rect x="754.59822" y="274.17455" width="30.9126" height="29.84223" transform="translate(-124.68805 182.3171) rotate(-21.14419)" fill="#2975d1"/><path d="M784.64252,295.24183l-30.34888,11.73755-11.33113-29.298,30.34888-11.73756Zm-29.398,9.68578,27.314-10.5638-10.198-26.36822-27.314,10.5638Z" transform="translate(-72.25 -114.91721)" fill="#3f3d56"/><rect x="304.27761" y="638.22418" width="30.9126" height="29.84223" transform="translate(761.19285 23.51295) rotate(71.02706)" fill="#2975d1"/><path d="M313.03947,667.49l-10.57932-30.77178,29.70628-10.213L342.74575,657.277Zm-8.565-29.74384,9.52139,27.6946,26.73565-9.1917-9.52139-27.6946Z" transform="translate(-72.25 -114.91721)" fill="#3f3d56"/><path d="M587.75,501.583h-478v-298h478Zm-476-2h474v-294h-474Z" transform="translate(-72.25 -114.91721)" fill="#3f3d56"/><rect x="540" y="374.16558" width="476" height="296" fill="#f2f2f2"/><path d="M1127.75,756.583h-478v-298h478Zm-476-2h474v-294h-474Z" transform="translate(-72.25 -114.91721)" fill="#3f3d56"/><rect x="148.75769" y="257.84552" width="232" height="27" rx="12" fill="#3f3d56"/><rect x="148.75769" y="151.84552" width="232" height="27" rx="12" fill="#3f3d56"/><rect x="148.75769" y="204.84552" width="232" height="27" rx="12" fill="#3f3d56"/><path d="M250.29471,204.868l-1.26717-.475c-.27846-.10493-27.99251-10.72311-40.975-34.79939-12.983-24.07742-6.62584-53.06672-6.56012-53.35613l.29921-1.32021,1.2666.475c.27845.10493,27.99193,10.72312,40.975,34.79939,12.983,24.07742,6.62585,53.06672,6.56012,53.35613Zm-40.16324-36.39516c10.9762,20.35662,32.87671,30.79147,38.42564,33.17362,1.055-5.94729,4.36361-29.997-6.60279-50.33406-10.96525-20.33472-32.87441-30.78572-38.42564-33.17363C202.47309,124.08951,199.16564,148.137,210.13147,168.47282Z" transform="translate(-72.25 -114.91721)" fill="#3f3d56"/><path d="M217.97417,161.148c23.33121,14.03683,32.3168,41.91784,32.3168,41.91784s-28.84178,5.12282-52.173-8.914-32.3168-41.91784-32.3168-41.91784S194.643,147.11115,217.97417,161.148Z" transform="translate(-72.25 -114.91721)" fill="#2975d1"/><path d="M854.66386,693.07422s-40.6064,21.05517-25.567,40.60639,40.60639-22.5591,40.60639-25.567S854.66386,693.07422,854.66386,693.07422Z" transform="translate(-72.25 -114.91721)" fill="#ffb9b9"/><path d="M899.78207,638.93237s-27.07093,33.08669-34.59063,37.59851S851.656,685.55452,851.656,687.05846s-6.01577,9.02364-6.01577,9.02364l24.063,21.05517s27.07093-36.09457,30.07881-36.09457S899.78207,638.93237,899.78207,638.93237Z" transform="translate(-72.25 -114.91721)" fill="#575a89"/><polygon points="917.86 640.666 830.19 640.666 836.84 598.706 842.21 564.816 845.58 543.566 878.67 531.536 886.69 543.936 911.75 582.666 913.42 598.556 913.42 598.566 917.82 640.296 917.86 640.666" fill="#2f2e41"/><path d="M1008.07,696.08279s-.57,5.16-2.41,13.52c-.46,2.12006-1.01,4.46-1.65,6.97-.56,2.18-1.18,4.48-1.89,6.9a211.67787,211.67787,0,0,1-7.96,22.59v.01c-1.25,3-2.61,6.06-4.09,9.14-.06.12-.12.25-.18.37H879.16c4.55-18.01,8.95-34.14,12-45.05,2.51-9.01,4.11005-14.45,4.11005-14.45l19.19-16.35,21.42-18.24,23.06-2.64,14.25-1.62994,9.8-1.12006,1.61-.18,3.91-.45Z" transform="translate(-72.25 -114.91721)" fill="#2f2e41"/><circle cx="849.13801" cy="299.2637" r="34.59063" fill="#ffb9b9"/><path d="M949.65094,415.921l18.10289,38.7279-50.82472,35.20444s5.98254-41.92668-5.288-52.5441S949.65094,415.921,949.65094,415.921Z" transform="translate(-72.25 -114.91721)" fill="#ffb9b9"/><path d="M910.30965,493.05014s24.063-49.63,43.61428-49.63,70.6852,34.59063,69.18126,42.11034-1.50394,9.02364-1.50394,13.53546,10.52758,4.51182,1.50394,7.5197-10.52758,6.01577-10.52758,6.01577l7.5197,192.50438s-33.08669,12.03152-45.11822,7.5197-24.063-34.59063-24.063-34.59063,3.00788,40.60639-9.02365,39.10245-57.14973-4.51182-58.65367-10.52758,9.02364-138.36253,9.02364-138.36253Z" transform="translate(-72.25 -114.91721)" fill="#575a89"/><path d="M1026.28,755.58279h-30.4a71.43027,71.43027,0,0,1-1.72-9.51v-.02a122.61688,122.61688,0,0,1-.31994-21.86c.3-4.31.69-7.06.69-7.06l9.48-.56,16.09-.94s.64,2.36,1.51,6.15C1023.43,729.66275,1026.23,743.73276,1026.28,755.58279Z" transform="translate(-72.25 -114.91721)" fill="#ffb9b9"/><path d="M988.51456,481.01862l43.61427,111.29159s6.01576,12.03152,0,21.05517,3.00788,63.1655-3.00788,75.197-6.01576,33.08669-6.01576,33.08669L988.51456,724.657l-7.5197-132.34676L941.8924,508.08954S944.90028,473.49891,988.51456,481.01862Z" transform="translate(-72.25 -114.91721)" fill="#575a89"/><path d="M977.235,477.25876s27.07093,7.51971,36.09458,34.59064Z" transform="translate(-72.25 -114.91721)" opacity="0.1"/><path d="M944.05647,429.96205c-3.36539-.2008-6.65148.93654-9.99353,1.38024-11.95694,1.58745-24.39579-7.08907-27.03589-18.85845a14.46933,14.46933,0,0,0-1.38279-4.50547c-1.84022-3.00451-6.03125-3.57732-9.48613-2.88645s-6.72979,2.30784-10.24823,2.49245c-5.43254.285-10.648-3.05945-13.54322-7.665s-3.71495-10.27278-3.32411-15.69873l2.60432,2.73335a13.22815,13.22815,0,0,0,1.17923-7.18928,8.34254,8.34254,0,0,1,7.90209,2.022c2.2964.24439.56324-4.25943,2.26931-5.81588.71439-.65175,1.80966-.52879,2.77664-.51947,4.88531.04711,8.83729-3.68953,12.687-6.69753a53.91177,53.91177,0,0,1,22.76987-10.38623c5.5165-1.076,11.38252-1.24887,16.61414.80532,4.29644,1.687,7.89262,4.75958,11.21978,7.95887,8.19058,7.8758,15.44345,17.12958,18.8509,27.96947a47.08424,47.08424,0,0,1,.22551,27.30235c-1.373,4.63412-5.51095,20.5047-11.56877,20.87431C948.96085,443.74228,953.53091,430.52736,944.05647,429.96205Z" transform="translate(-72.25 -114.91721)" fill="#2f2e41"/><polygon points="869.349 425.675 904.77 477.625 916.097 598.296 869.349 425.675" opacity="0.1"/><rect x="694" y="596.16558" width="82" height="27" rx="12" fill="#3f3d56"/></svg>