<svg xmlns="http://www.w3.org/2000/svg" xmlns:xlink="http://www.w3.org/1999/xlink" version="1.1" id="Layer_3" x="0px" y="0px" width="100px" height="100px" viewBox="0 0 100 100" enable-background="new 0 0 100 100" xml:space="preserve">
<g>
	<path d="M82.344,12.734H17.656c-3.106,0-5.625,2.519-5.625,5.625v15.469v39.531v8.281c0,3.106,2.519,5.625,5.625,5.625h64.688   c3.106,0,5.625-2.519,5.625-5.625v-8.281V33.828V18.359C87.969,15.253,85.45,12.734,82.344,12.734z M35.938,80.234H19.062v-9.844   h16.875V80.234z M35.938,66.172H19.062v-9.844h16.875V66.172z M35.938,52.109H19.062v-9.844h16.875V52.109z M58.438,80.234H41.562   v-9.844h16.875V80.234z M58.438,66.172H41.562v-9.844h16.875V66.172z M58.438,52.109H41.562v-9.844h16.875V52.109z M80.938,80.234   H64.062v-9.844h16.875V80.234z M80.938,66.172H64.062v-9.844h16.875V66.172z M80.938,52.109H64.062v-9.844h16.875V52.109z    M80.938,33.828c0,1.553-1.261,2.812-2.812,2.812h-56.25c-1.553,0-2.812-1.26-2.812-2.812V21.172c0-1.553,1.26-2.812,2.812-2.812   h56.25c1.552,0,2.812,1.26,2.812,2.812V33.828z"/>
	<path d="M64.062,33.828h9.844V21.172h-9.844V33.828z M66.875,23.984h4.219v7.031h-4.219V23.984z"/>
</g>
</svg>