<svg xmlns="http://www.w3.org/2000/svg" xmlns:xlink="http://www.w3.org/1999/xlink" version="1.1" id="&#1057;&#1083;&#1086;&#1081;_1" x="0px" y="0px" width="100px" height="100px" viewBox="0 0 100 100" enable-background="new 0 0 100 100" xml:space="preserve">
<path d="M82.5,12.5H72.063c-1.032-2.909-3.804-5-7.063-5h-4.437C59.155,5.93,57.133,5,55.001,5h-10c-2.132,0-4.154,0.931-5.563,2.5  H35c-3.259,0-6.03,2.092-7.063,5H17.5c-1.381,0-2.5,1.119-2.5,2.5v77.5c0,1.381,1.119,2.5,2.5,2.5h65c1.381,0,2.5-1.119,2.5-2.5V15  C85,13.619,83.881,12.5,82.5,12.5z M32.5,15c0-1.378,1.121-2.5,2.5-2.5h5.694c0.89,0,1.713-0.473,2.161-1.243  C43.313,10.47,44.115,10,45.001,10h10c0.886,0,1.688,0.47,2.146,1.257c0.448,0.77,1.271,1.243,2.161,1.243H65  c1.379,0,2.5,1.122,2.5,2.5c0,1.378-1.121,2.5-2.5,2.5H35C33.621,17.5,32.5,16.378,32.5,15C32.5,15,32.5,15,32.5,15z M80,90H20V17.5  h7.938c1.033,2.908,3.805,5,7.063,5h30c3.258,0,6.029-2.092,7.063-5H80V90z"/>
<path d="M42.5,32.5c0,1.381,1.119,2.5,2.5,2.5h27.5c1.381,0,2.5-1.119,2.5-2.5S73.881,30,72.5,30H45  C43.619,30,42.5,31.119,42.5,32.5z"/>
<path d="M45,45h22.5c1.381,0,2.5-1.119,2.5-2.5S68.881,40,67.5,40H45c-1.381,0-2.5,1.119-2.5,2.5S43.619,45,45,45z"/>
<path d="M72.5,50H45c-1.381,0-2.5,1.119-2.5,2.5S43.619,55,45,55h27.5c1.381,0,2.5-1.119,2.5-2.5S73.881,50,72.5,50z"/>
<path d="M45,65h22.5c1.381,0,2.5-1.119,2.5-2.5S68.881,60,67.5,60H45c-1.381,0-2.5,1.119-2.5,2.5S43.619,65,45,65z"/>
<path d="M72.5,70H45c-1.381,0-2.5,1.119-2.5,2.5S43.619,75,45,75h27.5c1.381,0,2.5-1.119,2.5-2.5S73.881,70,72.5,70z"/>
<path d="M67.5,80H45c-1.381,0-2.5,1.119-2.5,2.5S43.619,85,45,85h22.5c1.381,0,2.5-1.119,2.5-2.5S68.881,80,67.5,80z"/>
<path d="M35.732,30.732L30,36.464l-3.232-3.232c-0.977-0.977-2.559-0.977-3.535,0c-0.977,0.976-0.977,2.559,0,3.535l5,5  C28.721,42.256,29.36,42.5,30,42.5s1.279-0.244,1.768-0.732l7.5-7.5c0.977-0.976,0.977-2.559,0-3.535  C38.291,29.756,36.709,29.756,35.732,30.732z"/>
<path d="M35.732,70.732L30,76.465l-3.232-3.232c-0.977-0.977-2.559-0.977-3.535,0s-0.977,2.559,0,3.535l5,5  C28.721,82.256,29.36,82.5,30,82.5s1.279-0.244,1.768-0.732l7.5-7.5c0.977-0.977,0.977-2.559,0-3.535S36.709,69.756,35.732,70.732z"/>
<path d="M24.232,64.268C24.721,64.756,25.36,65,26,65s1.279-0.244,1.768-0.732L31,61.035l3.232,3.232C34.721,64.756,35.36,65,36,65  s1.279-0.244,1.768-0.732c0.977-0.977,0.977-2.559,0-3.535L34.535,57.5l3.232-3.232c0.977-0.977,0.977-2.559,0-3.535  s-2.559-0.977-3.535,0L31,53.965l-3.232-3.232c-0.977-0.977-2.559-0.977-3.535,0s-0.977,2.559,0,3.535l3.232,3.232l-3.232,3.232  C23.256,61.709,23.256,63.291,24.232,64.268z"/></svg>
