<?xml version="1.0" encoding="UTF-8" standalone="no"?>
<!-- Created with Inkscape (http://www.inkscape.org/) -->

<svg
   xmlns:dc="http://purl.org/dc/elements/1.1/"
   xmlns:cc="http://creativecommons.org/ns#"
   xmlns:rdf="http://www.w3.org/1999/02/22-rdf-syntax-ns#"
   xmlns:svg="http://www.w3.org/2000/svg"
   xmlns="http://www.w3.org/2000/svg"
   xmlns:xlink="http://www.w3.org/1999/xlink"
   version="1.1"
   width="149"
   height="75.001129"
   viewBox="0 0 99.333333 75.001129"
   id="Layer_1"
   xml:space="preserve"><metadata
     id="metadata3055"><rdf:RDF><cc:Work
         rdf:about=""><dc:format>image/svg+xml</dc:format><dc:type
           rdf:resource="http://purl.org/dc/dcmitype/StillImage" /><dc:title></dc:title></cc:Work></rdf:RDF></metadata><defs
     id="defs3053"><linearGradient
       id="linearGradient3857"><stop
         id="stop3859"
         style="stop-color:#ed2939;stop-opacity:1"
         offset="0" /><stop
         id="stop3861"
         style="stop-color:#d9152f;stop-opacity:1"
         offset="1" /></linearGradient><linearGradient
       id="linearGradient3835"><stop
         id="stop3837"
         style="stop-color:#002395;stop-opacity:1"
         offset="0" /><stop
         id="stop3839"
         style="stop-color:#00208b;stop-opacity:1"
         offset="1" /></linearGradient><linearGradient
       x1="52.579407"
       y1="49.800758"
       x2="118.09041"
       y2="49.800758"
       id="linearGradient3841"
       xlink:href="#linearGradient3835"
       gradientUnits="userSpaceOnUse" /><linearGradient
       x1="-23.101063"
       y1="49.800758"
       x2="42.409939"
       y2="49.800758"
       id="linearGradient3849"
       xlink:href="#linearGradient3835"
       gradientUnits="userSpaceOnUse"
       gradientTransform="matrix(0.99219976,0,0,1.0053485,22.920869,12.432884)" /><linearGradient
       x1="-23.101063"
       y1="49.800758"
       x2="42.409939"
       y2="49.800758"
       id="linearGradient3855"
       xlink:href="#linearGradient3857"
       gradientUnits="userSpaceOnUse"
       gradientTransform="matrix(0.99219976,0,0,1.0053485,106.92087,12.432884)" /><linearGradient
       x1="-23.101063"
       y1="49.800758"
       x2="42.409939"
       y2="49.800758"
       id="linearGradient3867"
       xlink:href="#linearGradient3835"
       gradientUnits="userSpaceOnUse"
       gradientTransform="matrix(0.99219976,0,0,1.0053485,-2.079131,-12.567116)" /><linearGradient
       x1="-23.101063"
       y1="49.800758"
       x2="42.409939"
       y2="49.800758"
       id="linearGradient3869"
       xlink:href="#linearGradient3857"
       gradientUnits="userSpaceOnUse"
       gradientTransform="matrix(0.99219976,0,0,1.0053485,81.92087,-12.567116)" /></defs><path
     d="m -25,0 0,75 51.96875,0 c -2.480494,0.0342 -4.677325,-0.710726 -6.5625,-2.21875 -1.885176,-1.474843 -2.982098,-3.345879 -3.3125,-5.625 -0.330402,-2.244939 0.204673,-4.311523 1.59375,-6.1875 l 20.96875,-28.03125 0,-23 0,-0.25 -0.5,0 c -2.107569,-0.102927 -6.127017,0.09774 -5.9375,0 0.08156,-6.325043 0.05085,-8.305033 0,-9.6875 L -25,0 z M 26.96875,75 40,75 40,74.9375 26.96875,75 z"
     id="rect3057"
     style="fill:url(#linearGradient3867);fill-opacity:1;fill-rule:evenodd;stroke:none" /><path
     d="m 65.40625,0 c -0.127159,3.193035 -0.04012,6.97678 0,9.6875 -2.776037,-0.07895 -2.864115,-0.02727 -5.59375,0 l -0.34375,0 0,0.25 0,23 20.78125,27.75 c 1.38908,1.876981 1.95242,3.911311 1.6875,6.15625 -0.3304,2.244939 -1.42981,4.14823 -3.28125,5.65625 -1.88518,1.50802 -4.050756,2.25 -6.53125,2.25 L 59,74.8125 59,75 124,75 124,0 65.40625,0 z"
     id="rect3851"
     style="fill:url(#linearGradient3869);fill-opacity:1;fill-rule:evenodd;stroke:none" /></svg>