<svg xmlns="http://www.w3.org/2000/svg" xmlns:xlink="http://www.w3.org/1999/xlink" version="1.1" id="Layer_1" x="0px" y="0px" width="100px" height="100px" viewBox="0 0 0 100 100" enable-background="new 0 0 100 100" xml:space="preserve">
<path d="M84.744,8.798H15.266c-2.895,0-5.267,2.367-5.267,5.264V83.54c0,2.896,2.372,5.267,5.267,5.267h69.478  c2.891,0,5.256-2.367,5.256-5.267V14.062C90,11.166,87.635,8.798,84.744,8.798z M52.588,71.468c-0.98,0.97-2.343,1.453-4.089,1.453  c-1.789,0-3.174-0.473-4.153-1.422c-0.98-0.946-1.47-2.282-1.47-4.007c0-1.789,0.479-3.143,1.438-4.059s2.354-1.373,4.186-1.373  c1.768,0,3.134,0.469,4.104,1.405c0.97,0.938,1.453,2.279,1.453,4.025C54.057,69.173,53.566,70.499,52.588,71.468z M63.131,42.351  c-1.066,1.705-3.09,3.621-6.07,5.751c-2.045,1.513-3.34,2.664-3.883,3.45c-0.543,0.789-0.813,1.822-0.813,3.101v1.916h-8.466v-0.004  v-2.363c0-2.045,0.436-3.823,1.31-5.335c0.873-1.512,2.471-3.12,4.793-4.824c2.235-1.597,3.71-2.896,4.423-3.897  s1.07-2.119,1.07-3.354c0-1.384-0.512-2.439-1.533-3.163s-2.449-1.086-4.28-1.086c-3.195,0-6.837,1.044-10.926,3.131l-3.482-6.997  c4.749-2.662,9.787-3.993,15.111-3.993c4.386,0,7.874,1.054,10.462,3.163c2.588,2.109,3.881,4.92,3.881,8.435  C64.727,38.624,64.195,40.647,63.131,42.351z"/>
</svg>
