<svg id="a2889d33-42cc-41f0-88ec-ec050668376c" data-name="Layer 1" xmlns="http://www.w3.org/2000/svg" width="1006.79855" height="607.79019" viewBox="0 0 1006.79855 607.79019"><title>multitasking</title><path d="M953.77742,552.87134a21.61922,21.61922,0,1,0-9.55588-40.44875l3.81914,10.46548-7.85758-7.54422a21.53764,21.53764,0,0,0-6.98389,14.922,21.19979,21.19979,0,0,0,.54809,5.95365A21.61509,21.61509,0,0,0,953.77742,552.87134Z" transform="translate(-96.60073 -145.8549)" fill="#57b894"/><path d="M1016.95529,668.38491c-4.58322-8.48548.617-18.887,6.59456-26.4552s13.26293-15.44315,13.10818-25.086c-.22239-13.85853-14.93241-22.042-26.68538-29.38888a130.157,130.157,0,0,1-23.96136-19.266c-2.88553-2.94577-5.67507-6.09571-7.36281-9.85807-2.43054-5.41823-2.36293-11.58255-2.20966-17.519q.76587-29.664,2.93121-59.26982" transform="translate(-96.60073 -145.8549)" fill="none" stroke="#3f3d56" stroke-miterlimit="10"/><path d="M953.77742,549.87134a21.61922,21.61922,0,1,0-9.55588-40.44875l3.81914,10.46548-7.85758-7.54422a21.53764,21.53764,0,0,0-6.98389,14.922,21.19979,21.19979,0,0,0,.54809,5.95365A21.61509,21.61509,0,0,0,953.77742,549.87134Z" transform="translate(-96.60073 -145.8549)" fill="none" stroke="#3f3d56" stroke-miterlimit="10"/><path d="M957.02811,484.46132A21.594,21.594,0,0,1,967.819,466.75174l4.83932,9.57363-.14581-11.5891a21.61655,21.61655,0,1,1-15.4844,19.72505Z" transform="translate(-96.60073 -145.8549)" fill="#57b894"/><path d="M957.02811,480.46132A21.594,21.594,0,0,1,967.819,462.75174l4.83932,9.57363-.14581-11.5891a21.61655,21.61655,0,1,1-15.4844,19.72505Z" transform="translate(-96.60073 -145.8549)" fill="none" stroke="#3f3d56" stroke-miterlimit="10"/><path d="M1006.41226,588.7858a21.61661,21.61661,0,0,0,6.85748-42.40329l.11228,8.90576-4.89363-9.68732a.3784.3784,0,0,0-.05874-.0036,21.61777,21.61777,0,1,0-2.01739,43.18845Z" transform="translate(-96.60073 -145.8549)" fill="#57b894"/><path d="M1006.24626,584.7858a21.61662,21.61662,0,0,0,6.85748-42.40329l.11228,8.90576-4.89363-9.68732a.37848.37848,0,0,0-.05874-.0036,21.61777,21.61777,0,1,0-2.01739,43.18845Z" transform="translate(-96.60073 -145.8549)" fill="none" stroke="#3f3d56" stroke-miterlimit="10"/><path d="M995.57462,629.75009a21.60757,21.60757,0,1,0-1.04587-17.40273l13.50068,10.98572-14.85174-3.4422A21.41566,21.41566,0,0,0,995.57462,629.75009Z" transform="translate(-96.60073 -145.8549)" fill="#57b894"/><path d="M995.57462,626.75009a21.60757,21.60757,0,1,0-1.04587-17.40273l13.50068,10.98572-14.85174-3.4422A21.41566,21.41566,0,0,0,995.57462,626.75009Z" transform="translate(-96.60073 -145.8549)" fill="none" stroke="#3f3d56" stroke-miterlimit="10"/><path d="M830.6746,298.56905c2.60547,10.26017.62121,21.29428-3.789,30.91766s-11.10987,18.0112-18.20015,25.87171c-3.56743,3.955-7.4277,8.159-8.18454,13.43117-1.00907,7.02922,3.73081,13.39075,6.914,19.73864a48.49476,48.49476,0,0,1,4.97405,17.79952c.42764,5.32165-.23778,11.18655-3.96527,15.00867-3.59389,3.68513-9.11282,4.57694-14.23817,5.05335a181.98718,181.98718,0,0,1-42.372-1.024c3.93309-5.23105,2.45549-8.47645,2.08578-15.01071-.72527-12.81874-10.05412-24.42417-11.86569-37.135-1.44022-10.10529,5.24945-19.38224,11.57223-27.39557l28.9921-36.74387c4.804-6.08852,9.58877-12.35983,13.03848-19.34024,2.46523-4.98833,2.92767-14.3537,9.12945-16.01693C816.45169,270.58948,828.402,289.61982,830.6746,298.56905Z" transform="translate(-96.60073 -145.8549)" fill="#47465a"/><path d="M688.39927,328.85505s-20,59-30,63,60,76,60,76l51-25,2-48-20-1s-3-20,7-30S688.39927,328.85505,688.39927,328.85505Z" transform="translate(-96.60073 -145.8549)" fill="#fbbebe"/><path d="M688.39927,328.85505s-20,59-30,63,60,76,60,76l51-25,2-48-20-1s-3-20,7-30S688.39927,328.85505,688.39927,328.85505Z" transform="translate(-96.60073 -145.8549)" opacity="0.1"/><path d="M711.39927,428.85505s-43-29-45-53c0,0-32,21-42,20s-37,5-37,9,25,117,25,117-18,48-9,63,14,85,14,85h208s-28-49-13-84,21-182,21-182-11-8-22-6-24-6-32-7-26.13006,3.0935-26.13006,3.0935Z" transform="translate(-96.60073 -145.8549)" fill="#6c63ff"/><path d="M1103.39927,668.783v44.00031a29.43287,29.43287,0,0,1-29.06953,29.43063L148.5125,753.64378a16.90454,16.90454,0,0,1-17.11323-16.90325V688.102a16.75607,16.75607,0,0,1,16.23917-16.7481l928.8457-28.66808A26.10966,26.10966,0,0,1,1103.39927,668.783Z" transform="translate(-96.60073 -145.8549)" fill="#47465a"/><path d="M1103.39927,700.85505v11.92826a29.43287,29.43287,0,0,1-29.06953,29.43063L148.5125,753.64378a16.90454,16.90454,0,0,1-17.11323-16.90325v-1.56547Z" transform="translate(-96.60073 -145.8549)" opacity="0.1"/><polygon points="824.799 524 707.659 508.801 499.362 516.4 574.799 540 824.799 524" fill="#f2f2f2"/><polygon points="513.799 517 513.799 529 399.799 555 388.659 552.43 386.799 552 304.799 508 513.799 517" fill="#9493b6"/><polygon points="513.799 517 513.799 529 399.799 555 388.659 552.43 386.799 540 513.799 517" opacity="0.1"/><path d="M479.39927,681.85505c2-1,44-9,44-9l-76-7Z" transform="translate(-96.60073 -145.8549)" fill="#47465a"/><circle cx="645.79855" cy="169.00015" r="65" fill="#fbbebe"/><path d="M553.39927,608.85505s-58,25-72,18-56-25-69,12c-10.48372,29.83828,50.71651,31.71171,74.80112,31.319a20.12491,20.12491,0,0,0,15.19888-7.319h0l83.5-28.5S567.39927,602.85505,553.39927,608.85505Z" transform="translate(-96.60073 -145.8549)" fill="#fbbebe"/><path d="M717.39927,562.85505l7,6-65,92s-10,1-7-4Z" transform="translate(-96.60073 -145.8549)" fill="#47465a"/><polygon points="624.799 423 631.799 414 628.799 412 621.799 420 624.799 423" fill="#47465a"/><path d="M602.89927,398.35505s-34,6-33,32-7.5,55.5-15.5,69.5-2,25,0,44-10,39-4,49-65,17-65,27,45,29,37,42c-5.7555,9.3527,34.81342-6.39778,58.03064-15.97195a40.52181,40.52181,0,0,0,24.32874-28.46555c.70312-3.1875.89062-6.0625.14062-8.0625-3-8,32.5-18.5,33.5-38.5s-5-40-10-60S602.89927,398.35505,602.89927,398.35505Z" transform="translate(-96.60073 -145.8549)" fill="#6c63ff"/><path d="M107.37736,503.01573l293.23921,2.77513a10.66252,10.66252,0,0,1,9.59907,6.23487l79.02752,173.1502a10.66251,10.66251,0,0,1-10.06858,15.0833l-294.26851-10.1791a10.66252,10.66252,0,0,1-9.279-6.11607L97.62882,518.21783A10.66251,10.66251,0,0,1,107.37736,503.01573Z" transform="translate(-96.60073 -145.8549)" fill="#7a799c"/><path d="M799.39927,608.85505s-58,25-72,18-56-25-69,12c-10.48372,29.83828,50.71651,31.71171,74.80112,31.319a20.12491,20.12491,0,0,0,15.19888-7.319h0l85-9S813.39927,602.85505,799.39927,608.85505Z" transform="translate(-96.60073 -145.8549)" fill="#fbbebe"/><path d="M833.89927,419.35505s14.5-19.5,21.5-1.5,6,88,6,88,12,35,8,58,4,26,4,26,2,10-4,15-10,27-8,30-3,22-7,22-12.5-1.5-12.5-1.5-20.5-37.5-63.5-40.5c0,0,7-10,3-30S833.89927,419.35505,833.89927,419.35505Z" transform="translate(-96.60073 -145.8549)" opacity="0.1"/><path d="M831.39927,404.85505s16.5-6.5,23.5,11.5,13.5,89.5,13.5,89.5,12,35,8,58,4,26,4,26,2,10-4,15-10,27-8,30-3,22-7,22-41,6-41,6,8-45-35-48c0,0,7-10,3-30S831.39927,404.85505,831.39927,404.85505Z" transform="translate(-96.60073 -145.8549)" fill="#6c63ff"/><path d="M764.17359,223.12714A75.92951,75.92951,0,0,0,696.712,216.609c-11.77274,4.63061-22.17139,12.16993-31.897,20.26024-7.80181,6.49-15.41,13.57014-20.20323,22.51517-7.26746,13.56245-7.24628,29.70683-7.04942,45.09245.1714,13.39515.34574,26.83132,2.17125,40.10261,2.50383,18.20255,8.11312,36.224,6.825,54.55271s-12.05982,37.88387-30.0664,41.53967a241.32773,241.32773,0,0,0,50.23827-1.44707c10.4938-1.40621,21.50985-3.80941,29.18218-11.10548,5.60345-5.32865,8.77041-12.67516,11.52586-19.90016,2.76933-7.26143,5.30485-14.80735,5.20762-22.57832-.20232-16.16958-11.43019-29.733-18.75807-44.14819-2.0568-4.04609-3.86215-8.39615-3.79081-12.93445s2.44081-9.30261,6.65894-10.97847c5.20477-2.06786,11.23138,1.01676,16.64218-.42851,8.69367-2.32213,10.9501-14.39537,18.93186-18.55031,5.90575-3.07427,13.44349-.76909,18.40922,3.66606,2.22077,1.98348,4.12287,4.38082,6.69858,5.87472,3.49207,2.02539,7.73413,2.12379,11.77081,2.16842,7.53629.08333,33.259-11.72985,38.69041-16.955,5.2983,27.25281,44.698,3.53477,22.08694-36.673-7.87283-13.99972-18.31521-27.00239-32.20618-35.06555s-31.61447-10.564-46.19716-3.83207" transform="translate(-96.60073 -145.8549)" fill="#47465a"/><ellipse cx="600.29855" cy="184.50015" rx="9" ry="16" fill="#fbbebe"/><path d="M785.39927,392.37353s55.5,7.98152,58.5,11.98152-3,28-3,28l-40,7-30.77952-6.63779Z" transform="translate(-96.60073 -145.8549)" fill="#6c63ff"/><path d="M615.28009,431.53145c-8.35849-1.44072-16.51058,6.12423-20.83859,16.09811s-5.50335,21.92548-5.92886,33.53648c-.42291,11.54-.17279,23.3249,2.45488,34.29578,5.396,22.52918,19.88278,38.45728,28.26692,59.17266a116.03042,116.03042,0,0,1,7.61379,51.72057" transform="translate(-96.60073 -145.8549)" opacity="0.1"/><path d="M621.28009,431.53145c-8.35849-1.44072-16.51058,6.12423-20.83859,16.09811s-5.50335,21.92548-5.92886,33.53648c-.42291,11.54-.17279,23.3249,2.45488,34.29578,5.396,22.52918,19.88278,38.45728,28.26692,59.17266a116.03042,116.03042,0,0,1,7.61379,51.72057" transform="translate(-96.60073 -145.8549)" fill="#6c63ff"/><polygon points="846.099 509.119 942.837 547.814 1003.299 536.931 998.026 493.653 997.252 487.353 895.678 455.913 888.422 463.168 846.099 509.119" fill="#6c63ff"/><polygon points="901.724 463.616 901.724 505.491 1003.299 536.931 998.026 493.653 901.724 463.616" opacity="0.1"/><path d="M904.81944,664.01672l6.84676,2.53532,81.645,30.23726,6.34537,2.3491a1.33622,1.33622,0,0,0,1.21757-.14324l7.47692-5.01329,77.77755-52.18114,7.348-4.92735a1.35069,1.35069,0,0,0-.35809-2.41354l-11.71676-3.58809-82.36114-25.23114-7.19052-2.20586a1.34443,1.34443,0,0,0-1.153.17188l-5.665,3.81727-73.38017,49.41669-7.11166,4.79127A1.34955,1.34955,0,0,0,904.81944,664.01672Z" transform="translate(-96.60073 -145.8549)" fill="#7a799c"/><path d="M1073.27782,641.37347l-72.8786,49.56506a2.6822,2.6822,0,0,1-2.42909.30228L920.6,662.99471a2.70644,2.70644,0,0,1-.547-4.80464l70.5397-46.03254a2.68217,2.68217,0,0,1,2.26081-.31621l79.709,24.71359A2.70612,2.70612,0,0,1,1073.27782,641.37347Z" transform="translate(-96.60073 -145.8549)" fill="#f2f2f2"/><path d="M1081.40178,630.87175v10.929h4.7268l7.348-4.92735a1.35069,1.35069,0,0,0-.35809-2.41354Z" transform="translate(-96.60073 -145.8549)" fill="#6c63ff"/><path d="M993.31117,693.366v3.42334l6.34537,2.3491a1.33622,1.33622,0,0,0,1.21757-.14324l7.47692-5.01329V693.366Z" transform="translate(-96.60073 -145.8549)" fill="#6c63ff"/><path d="M904.81944,664.01672l6.84676,2.53532v-9.71145h-.01433l-7.11166,4.79127A1.34955,1.34955,0,0,0,904.81944,664.01672Z" transform="translate(-96.60073 -145.8549)" fill="#6c63ff"/><path d="M985.032,607.4239h14.0086v-1.78329l-7.19052-2.20586a1.34443,1.34443,0,0,0-1.153.17188Z" transform="translate(-96.60073 -145.8549)" fill="#6c63ff"/><circle cx="857.79855" cy="485.00015" r="1" fill="#f2f2f2"/><rect x="34.66902" y="26" width="398" height="202" fill="#f2f2f2"/><polyline points="104.527 209.5 194.669 59 288.169 209.5" fill="#6c63ff"/><polygon points="241.169 132.5 259.169 85.5 361.169 209.5 240.669 209.5 241.169 132.5" fill="#6c63ff"/><path d="M318.8187,259.68077a25.00091,25.00091,0,1,0-26.13562-42.62756" transform="translate(-96.60073 -145.8549)" fill="#6c63ff"/><rect x="58.16902" y="0.5" width="398" height="202" fill="none" stroke="#3f3d56" stroke-miterlimit="10"/><polyline points="109.527 202.5 199.669 52 293.169 202.5" fill="none" stroke="#3f3d56" stroke-miterlimit="10"/><polyline points="244.169 123.5 262.169 76.5 364.169 202.5" fill="none" stroke="#3f3d56" stroke-miterlimit="10"/><path d="M325.8187,245.68077a25.00091,25.00091,0,1,0-26.13562-42.62756" transform="translate(-96.60073 -145.8549)" fill="none" stroke="#3f3d56" stroke-miterlimit="10"/></svg>