<?xml version="1.0" encoding="UTF-8" standalone="no"?>
<svg
   xmlns:dc="http://purl.org/dc/elements/1.1/"
   xmlns:cc="http://creativecommons.org/ns#"
   xmlns:rdf="http://www.w3.org/1999/02/22-rdf-syntax-ns#"
   xmlns:svg="http://www.w3.org/2000/svg"
   xmlns="http://www.w3.org/2000/svg"
   xmlns:sodipodi="http://sodipodi.sourceforge.net/DTD/sodipodi-0.dtd"
   xmlns:inkscape="http://www.inkscape.org/namespaces/inkscape"
   version="1.1"
   x="0px"
   y="0px"
   viewBox="0 0 100 125"
   enable-background="new 0 0 100 100"
   xml:space="preserve"
   id="svg12"
   sodipodi:docname="contact.svg"
   inkscape:version="0.92.1 r15371"><metadata
     id="metadata18"><rdf:RDF><cc:Work
         rdf:about=""><dc:format>image/svg+xml</dc:format><dc:type
           rdf:resource="http://purl.org/dc/dcmitype/StillImage" /><dc:title></dc:title></cc:Work></rdf:RDF></metadata><defs
     id="defs16" /><sodipodi:namedview
     pagecolor="#ffffff"
     bordercolor="#666666"
     borderopacity="1"
     objecttolerance="10"
     gridtolerance="10"
     guidetolerance="10"
     inkscape:pageopacity="0"
     inkscape:pageshadow="2"
     inkscape:window-width="1920"
     inkscape:window-height="1046"
     id="namedview14"
     showgrid="false"
     inkscape:zoom="1.888"
     inkscape:cx="-1.9067797"
     inkscape:cy="62.5"
     inkscape:window-x="122"
     inkscape:window-y="0"
     inkscape:window-maximized="1"
     inkscape:current-layer="svg12" /><path
     d="M93.1,35.5l-9.3-7v-9.6c0-2.5-2-4.5-4.5-4.5H65l-6.2-4.6c-5.2-3.9-12.4-3.9-17.6,0L35,14.4H20.7c-2.5,0-4.5,2-4.5,4.5v9.6  l-9.3,7c-1.2,0.9-2,2.4-2,3.9v48.9c0,2.7,2.2,4.9,4.9,4.9h80.3c2.7,0,4.9-2.2,4.9-4.9V39.4C95,37.8,94.3,36.4,93.1,35.5z M79.3,36.9  v6.2L50,65.1L20.7,43.1v-6.2v-18h58.5V36.9z"
     id="path2"
     style="fill:#333350;fill-opacity:1" /><rect
     x="27.5"
     y="24.6"
     width="45"
     height="6.8"
     id="rect4"
     style="fill:#2975D1;fill-opacity:1" /><rect
     x="27.5"
     y="35.8"
     width="36"
     height="6.8"
     id="rect6"
     style="fill:#2975D1;fill-opacity:1" /></svg>