<svg role="img" width="16" height="13" viewBox="0 0 16 13" fill="none" xmlns="http://www.w3.org/2000/svg">
<path fill-rule="evenodd" clip-rule="evenodd" d="M1 0C1.55228 0 2 0.447715 2 1V6.65C2 7.20228 2.44772 7.65 3 7.65H15C15.5523 7.65 16 8.09771 16 8.65C16 9.20228 15.5523 9.65 15 9.65H3C1.34314 9.65 0 8.30685 0 6.65V1C0 0.447715 0.447715 0 1 0Z" fill="#2E5FB6"/>
<path fill-rule="evenodd" clip-rule="evenodd" d="M11.5407 4.69739C11.9564 4.33371 12.5881 4.37582 12.9518 4.79146L15.7518 7.99146C16.0817 8.36849 16.0817 8.93144 15.7518 9.30847L12.9518 12.5085C12.5881 12.9241 11.9564 12.9662 11.5407 12.6025C11.1251 12.2389 11.083 11.6071 11.4467 11.1915L13.6705 8.64997L11.4467 6.10847C11.083 5.69283 11.1251 5.06107 11.5407 4.69739Z" fill="#2E5FB6"/>
</svg>
