<svg width="20" height="19" viewBox="0 0 20 19" fill="none" xmlns="http://www.w3.org/2000/svg">
<path fill-rule="evenodd" clip-rule="evenodd" d="M10 0C10.3704 0 10.7105 0.204749 10.8838 0.532112L19.8838 17.5321C20.0479 17.8421 20.0376 18.2153 19.8567 18.5158C19.6758 18.8163 19.3507 19 19 19H1C0.649283 19 0.324198 18.8163 0.143295 18.5158C-0.0376073 18.2153 -0.0478841 17.8421 0.116212 17.5321L9.11621 0.532112C9.28952 0.204749 9.62959 0 10 0ZM2.66091 17H17.3391L10 3.13727L2.66091 17Z" fill="#96050F"/>
<path d="M11 14.5C11 15.0579 10.5579 15.5 10 15.5C9.44214 15.5 9 15.0579 9 14.5C9 13.9421 9.44214 13.5 10 13.5C10.5579 13.5 11 13.9421 11 14.5Z" fill="#96050F"/>
<path d="M8.99999 7.5C8.99999 6.94214 9.44212 6.5 9.99998 6.5C10.5578 6.5 11 6.94214 11 7.5V11C11 11.5579 10.5576 12 9.99969 12C9.44183 12 8.99999 11.5579 8.99999 11V7.5Z" fill="#96050F"/>
</svg>
