<svg role="img" width="20" height="20" viewBox="0 0 20 20" fill="none" xmlns="http://www.w3.org/2000/svg">
<path fill-rule="evenodd" clip-rule="evenodd" d="M10 18C14.4183 18 18 14.4183 18 10C18 5.58172 14.4183 2 10 2C5.58172 2 2 5.58172 2 10C2 14.4183 5.58172 18 10 18ZM20 10C20 15.5229 15.5228 20 10 20C4.47715 20 -4.82823e-07 15.5228 0 10C4.82823e-07 4.47715 4.47715 -4.82823e-07 10 0C15.5229 4.82823e-07 20 4.47715 20 10Z" fill="#D3AA00"/>
<path d="M9 6.00003C9 5.44774 9.44772 5.00003 10 5.00003C10.5523 5.00003 11 5.44774 11 6.00003C11 6.55231 10.5523 7.00003 10 7.00003C9.44772 7.00003 9 6.55231 9 6.00003Z" fill="#D3AA00"/>
<path d="M11 14.6C11 15.1523 10.5523 15.6 10 15.6C9.44772 15.6 9 15.1523 9 14.6L9 9.4C9 8.84772 9.44772 8.4 10 8.4C10.5523 8.4 11 8.84772 11 9.4L11 14.6Z" fill="#D3AA00"/>
</svg>
