<svg role="img" width="20" height="20" viewBox="0 0 20 20" fill="none" xmlns="http://www.w3.org/2000/svg">
<path fill-rule="evenodd" clip-rule="evenodd" d="M10 18C14.4183 18 18 14.4183 18 10C18 5.58172 14.4183 2 10 2C5.58172 2 2 5.58172 2 10C2 14.4183 5.58172 18 10 18ZM10 20C15.5228 20 20 15.5228 20 10C20 4.47715 15.5228 0 10 0C4.47715 0 0 4.47715 0 10C0 15.5228 4.47715 20 10 20Z" fill="#3CB053"/>
<path fill-rule="evenodd" clip-rule="evenodd" d="M15.261 6.14683C15.6494 6.53952 15.6459 7.17268 15.2532 7.56103L9.13554 13.611C8.74443 13.9978 8.11438 13.9961 7.72538 13.6072L4.643 10.5258C4.25242 10.1354 4.25232 9.50219 4.64278 9.11161C5.03324 8.72102 5.66641 8.72092 6.05699 9.11138L8.43618 11.4898L13.8468 6.13897C14.2395 5.75063 14.8727 5.75415 15.261 6.14683Z" fill="#3CB053"/>
</svg>
