<?xml version="1.0" encoding="UTF-8" standalone="no"?>
<svg
   xmlns:dc="http://purl.org/dc/elements/1.1/"
   xmlns:cc="http://creativecommons.org/ns#"
   xmlns:rdf="http://www.w3.org/1999/02/22-rdf-syntax-ns#"
   xmlns:svg="http://www.w3.org/2000/svg"
   xmlns="http://www.w3.org/2000/svg"
   xmlns:sodipodi="http://sodipodi.sourceforge.net/DTD/sodipodi-0.dtd"
   xmlns:inkscape="http://www.inkscape.org/namespaces/inkscape"
   viewBox="0 0 433.46228 162.40294"
   version="1.1"
   id="svg61"
   sodipodi:docname="logo.svg"
   width="433.46228"
   height="162.40294"
   inkscape:version="0.92.4 5da689c313, 2019-01-14">
  <metadata
     id="metadata65">
    <rdf:RDF>
      <cc:Work
         rdf:about="">
        <dc:format>image/svg+xml</dc:format>
        <dc:type
           rdf:resource="http://purl.org/dc/dcmitype/StillImage" />
      </cc:Work>
    </rdf:RDF>
  </metadata>
  <sodipodi:namedview
     pagecolor="#ffffff"
     bordercolor="#666666"
     borderopacity="1"
     objecttolerance="10"
     gridtolerance="10"
     guidetolerance="10"
     inkscape:pageopacity="0"
     inkscape:pageshadow="2"
     inkscape:window-width="2512"
     inkscape:window-height="1386"
     id="namedview63"
     showgrid="false"
     inkscape:zoom="0.95898438"
     inkscape:cx="216.77"
     inkscape:cy="81.2"
     inkscape:window-x="48"
     inkscape:window-y="28"
     inkscape:window-maximized="1"
     inkscape:current-layer="svg61" />
  <defs
     id="defs4">
    <style
       id="style2">.cls-1{fill:#1e286e;}.cls-2{fill:#4b508c;}.cls-3{fill:#fad750;}.cls-4{fill:#f5c328;}.cls-5{fill:#cd0a5a;}.cls-6{fill:#ff2d96;}.cls-7{fill:#1ea0f5;}.cls-8{fill:#197dbe;}.cls-9{fill:#46dcc3;}.cls-10{fill:#91ebc3;}</style>
  </defs>
  <title
     id="title6">mon-entreprise_logo</title>
  <g
     id="mon-entrerpise_logo"
     transform="translate(-39.23,-24.797057)">
    <path
       class="cls-1"
       d="m 151.27,91.07 h 10.88 v 3.78 a 14.07,14.07 0 0 1 10,-4.26 11.59,11.59 0 0 1 10.46,5.77 11.66,11.66 0 0 1 10.39,-5.83 13.07,13.07 0 0 1 4.09,0.63 8.49,8.49 0 0 1 3.31,2 9.44,9.44 0 0 1 2.19,3.52 14.93,14.93 0 0 1 0.81,5.23 v 20 H 192.56 V 106.7 a 18.42,18.42 0 0 0 -0.33,-3.85 6.19,6.19 0 0 0 -1,-2.35 3.18,3.18 0 0 0 -1.47,-1.14 5.37,5.37 0 0 0 -1.81,-0.3 q -5.22,0 -5.23,7.64 v 15.2 h -10.84 v -15.2 a 20.7,20.7 0 0 0 -0.3,-3.88 7.19,7.19 0 0 0 -0.87,-2.44 2.91,2.91 0 0 0 -1.47,-1.23 6.11,6.11 0 0 0 -2.11,-0.33 6,6 0 0 0 -1.92,0.3 3.41,3.41 0 0 0 -1.59,1.17 6.43,6.43 0 0 0 -1.08,2.41 16.18,16.18 0 0 0 -0.39,4 v 15.2 h -10.88 z"
       id="path8"
       inkscape:connector-curvature="0"
       style="fill:#1e286e" />
    <path
       class="cls-1"
       d="m 209.69,106.21 a 14.91,14.91 0 0 1 1.39,-6.4 15.84,15.84 0 0 1 3.84,-5.17 18.42,18.42 0 0 1 5.86,-3.45 21,21 0 0 1 7.43,-1.27 21.45,21.45 0 0 1 7.36,1.24 18.24,18.24 0 0 1 5.89,3.42 15.5,15.5 0 0 1 3.88,5.23 16,16 0 0 1 1.38,6.7 15.75,15.75 0 0 1 -1.41,6.71 16.05,16.05 0 0 1 -3.88,5.23 17.29,17.29 0 0 1 -5.92,3.39 22.65,22.65 0 0 1 -7.48,1.21 21.73,21.73 0 0 1 -7.34,-1.21 17,17 0 0 1 -5.8,-3.42 16,16 0 0 1 -3.81,-5.32 16.6,16.6 0 0 1 -1.39,-6.89 z m 11.48,0.12 a 6.83,6.83 0 0 0 0.58,2.86 7.64,7.64 0 0 0 1.5,2.25 6.48,6.48 0 0 0 2.22,1.51 7.2,7.2 0 0 0 5.47,0 6.62,6.62 0 0 0 2.23,-1.51 7.64,7.64 0 0 0 1.5,-2.25 6.84,6.84 0 0 0 0.57,-2.8 6.68,6.68 0 0 0 -0.57,-2.73 7.64,7.64 0 0 0 -1.5,-2.25 6.62,6.62 0 0 0 -2.23,-1.51 7.2,7.2 0 0 0 -5.47,0 6.48,6.48 0 0 0 -2.22,1.51 7.76,7.76 0 0 0 -1.5,2.22 6.33,6.33 0 0 0 -0.58,2.7 z"
       id="path10"
       inkscape:connector-curvature="0"
       style="fill:#1e286e" />
    <path
       class="cls-1"
       d="m 253,91.07 h 10.88 V 95 a 12,12 0 0 1 4.51,-3.63 14.13,14.13 0 0 1 5.35,-0.94 13.35,13.35 0 0 1 5.56,1.06 11.1,11.1 0 0 1 3.94,3 8.63,8.63 0 0 1 1.8,3.49 18.15,18.15 0 0 1 0.48,4.39 v 19.53 h -10.91 v -15.57 a 16.73,16.73 0 0 0 -0.33,-3.69 4.65,4.65 0 0 0 -1.17,-2.26 4.12,4.12 0 0 0 -1.62,-1 6.1,6.1 0 0 0 -1.93,-0.3 5.37,5.37 0 0 0 -4.23,1.65 6.85,6.85 0 0 0 -1.48,4.72 V 121.9 H 253 Z"
       id="path12"
       inkscape:connector-curvature="0"
       style="fill:#1e286e" />
    <path
       class="cls-1"
       d="m 162.27,158.23 q 0,7 6.61,7 a 5.91,5.91 0 0 0 5.35,-2.88 h 10.52 Q 181.56,173 168.82,173 a 21,21 0 0 1 -7.16,-1.17 16.25,16.25 0 0 1 -5.56,-3.34 14.88,14.88 0 0 1 -3.57,-5.17 17.25,17.25 0 0 1 -1.26,-6.73 18.91,18.91 0 0 1 1.2,-7 14.7,14.7 0 0 1 3.42,-5.26 15.28,15.28 0 0 1 5.38,-3.33 20.43,20.43 0 0 1 7.13,-1.17 19.93,19.93 0 0 1 7,1.17 14.15,14.15 0 0 1 5.29,3.4 14.89,14.89 0 0 1 3.31,5.43 21.63,21.63 0 0 1 1.14,7.25 v 1.14 z M 175,151.92 a 6.56,6.56 0 0 0 -2.22,-3.67 6.92,6.92 0 0 0 -8.21,-0.06 6,6 0 0 0 -2,3.73 z"
       id="path14"
       inkscape:connector-curvature="0"
       style="fill:#1e286e" />
    <path
       class="cls-1"
       d="m 191.36,141 h 10.88 v 3.91 a 11.78,11.78 0 0 1 4.51,-3.64 14.1,14.1 0 0 1 5.35,-0.93 13.42,13.42 0 0 1 5.56,1.05 11.19,11.19 0 0 1 3.94,3 8.63,8.63 0 0 1 1.8,3.49 18.21,18.21 0 0 1 0.48,4.39 v 19.6 H 213 v -15.62 a 16.77,16.77 0 0 0 -0.33,-3.7 4.57,4.57 0 0 0 -1.17,-2.25 4.06,4.06 0 0 0 -1.63,-1 6,6 0 0 0 -1.87,-0.3 5.36,5.36 0 0 0 -4.24,1.66 6.86,6.86 0 0 0 -1.47,4.72 v 16.47 h -10.93 z"
       id="path16"
       inkscape:connector-curvature="0"
       style="fill:#1e286e" />
    <path
       class="cls-1"
       d="m 243.42,150.06 v 21.76 h -10.88 v -21.76 h -3.61 V 141 h 3.61 v -9.26 h 10.88 V 141 h 6.19 v 9.08 z"
       id="path18"
       inkscape:connector-curvature="0"
       style="fill:#1e286e" />
    <path
       class="cls-1"
       d="m 253.69,141 h 10.88 v 5 a 12.62,12.62 0 0 1 4.27,-4.24 11.5,11.5 0 0 1 5.89,-1.47 h 0.93 a 6.82,6.82 0 0 1 1.18,0.12 v 10.4 a 10.4,10.4 0 0 0 -4.69,-1.09 7,7 0 0 0 -5.68,2.26 c -1.27,1.5 -1.9,3.7 -1.9,6.58 v 13.23 h -10.88 z"
       id="path20"
       inkscape:connector-curvature="0"
       style="fill:#1e286e" />
    <path
       class="cls-1"
       d="m 291.86,158.23 q 0,7 6.62,7 a 5.92,5.92 0 0 0 5.35,-2.88 h 10.52 Q 311.16,173 298.42,173 a 21,21 0 0 1 -7.16,-1.17 16.16,16.16 0 0 1 -5.56,-3.34 14.88,14.88 0 0 1 -3.57,-5.17 17.07,17.07 0 0 1 -1.27,-6.73 18.91,18.91 0 0 1 1.21,-7 14.7,14.7 0 0 1 3.42,-5.26 15.2,15.2 0 0 1 5.38,-3.33 20.43,20.43 0 0 1 7.13,-1.17 20,20 0 0 1 7,1.17 14.15,14.15 0 0 1 5.29,3.4 14.73,14.73 0 0 1 3.3,5.43 21.62,21.62 0 0 1 1.15,7.25 v 1.14 z m 12.75,-6.31 a 6.57,6.57 0 0 0 -2.23,-3.67 6.9,6.9 0 0 0 -8.2,-0.06 6,6 0 0 0 -2,3.73 z"
       id="path22"
       inkscape:connector-curvature="0"
       style="fill:#1e286e" />
    <path
       class="cls-1"
       d="M 331.84,187.2 H 321 V 141 h 10.88 v 3.43 a 11.46,11.46 0 0 1 9.49,-4.39 14.83,14.83 0 0 1 6.17,1.29 15.61,15.61 0 0 1 5,3.52 15.87,15.87 0 0 1 3.27,5.23 17.53,17.53 0 0 1 1.17,6.43 17.1,17.1 0 0 1 -1.17,6.37 16.25,16.25 0 0 1 -3.25,5.17 15,15 0 0 1 -4.89,3.48 14.77,14.77 0 0 1 -6.14,1.27 12.82,12.82 0 0 1 -9.61,-4 z m 13.7,-30.71 a 7.41,7.41 0 0 0 -0.51,-2.74 6.55,6.55 0 0 0 -1.47,-2.25 7.28,7.28 0 0 0 -2.26,-1.5 6.87,6.87 0 0 0 -7.69,1.47 7.64,7.64 0 0 0 -1.5,2.25 6.85,6.85 0 0 0 1.47,7.64 7.64,7.64 0 0 0 2.25,1.5 6.94,6.94 0 0 0 5.44,0 6.62,6.62 0 0 0 2.2,-1.5 7.81,7.81 0 0 0 1.5,-2.23 6.33,6.33 0 0 0 0.57,-2.64 z"
       id="path24"
       inkscape:connector-curvature="0"
       style="fill:#1e286e" />
    <path
       class="cls-1"
       d="M 363.09,141 H 374 v 5 a 12.62,12.62 0 0 1 4.27,-4.24 11.52,11.52 0 0 1 5.89,-1.47 h 0.94 a 6.63,6.63 0 0 1 1.17,0.12 v 10.4 a 10.4,10.4 0 0 0 -4.69,-1.09 7,7 0 0 0 -5.68,2.26 c -1.26,1.5 -1.9,3.7 -1.9,6.58 v 13.23 h -10.91 z"
       id="path26"
       inkscape:connector-curvature="0"
       style="fill:#1e286e" />
    <path
       class="cls-1"
       d="m 390.38,129.14 a 5.92,5.92 0 0 1 0.48,-2.38 6.29,6.29 0 0 1 3.28,-3.27 6,6 0 0 1 4.75,0 6.22,6.22 0 0 1 1.95,1.32 6.43,6.43 0 0 1 1.33,2 6.12,6.12 0 0 1 0,4.75 6.43,6.43 0 0 1 -1.33,2 6.09,6.09 0 0 1 -1.95,1.33 6.12,6.12 0 0 1 -4.75,0 6.09,6.09 0 0 1 -1.95,-1.33 6.25,6.25 0 0 1 -1.33,-2 5.91,5.91 0 0 1 -0.48,-2.42 z M 402,141 v 30.84 H 391.1 V 141 Z"
       id="path28"
       inkscape:connector-curvature="0"
       style="fill:#1e286e" />
    <path
       class="cls-1"
       d="m 429.88,148.91 a 12.76,12.76 0 0 0 -5.89,-1.56 4.43,4.43 0 0 0 -2.44,0.6 1.84,1.84 0 0 0 -0.93,1.62 2.14,2.14 0 0 0 0.15,0.88 1.55,1.55 0 0 0 0.66,0.63 5.72,5.72 0 0 0 1.5,0.54 l 2.62,0.6 a 12.44,12.44 0 0 1 6.73,3.22 8.19,8.19 0 0 1 2.22,5.92 10.79,10.79 0 0 1 -1.08,4.87 10.34,10.34 0 0 1 -3,3.63 14.43,14.43 0 0 1 -4.63,2.29 20.68,20.68 0 0 1 -6,0.81 24.16,24.16 0 0 1 -12.33,-3.55 l 4,-7.69 a 15.53,15.53 0 0 0 8.66,3.12 4.25,4.25 0 0 0 2.46,-0.66 2,2 0 0 0 1,-1.68 2.79,2.79 0 0 0 -0.15,-1 1.61,1.61 0 0 0 -0.63,-0.72 5,5 0 0 0 -1.41,-0.61 q -0.93,-0.27 -2.43,-0.57 c -3.37,-0.68 -5.72,-1.69 -7.07,-3 a 7.52,7.52 0 0 1 -2,-5.56 10.94,10.94 0 0 1 1,-4.66 9.58,9.58 0 0 1 2.77,-3.52 12.94,12.94 0 0 1 4.35,-2.22 19.45,19.45 0 0 1 5.68,-0.78 25.79,25.79 0 0 1 9.92,2 z"
       id="path30"
       inkscape:connector-curvature="0"
       style="fill:#1e286e" />
    <path
       class="cls-1"
       d="m 449.83,158.23 q 0,7 6.61,7 a 5.9,5.9 0 0 0 5.35,-2.88 h 10.52 Q 469.13,173 456.38,173 a 21,21 0 0 1 -7.15,-1.17 16.16,16.16 0 0 1 -5.56,-3.34 15,15 0 0 1 -3.58,-5.17 17.25,17.25 0 0 1 -1.26,-6.73 19.12,19.12 0 0 1 1.2,-7 14.86,14.86 0 0 1 3.43,-5.26 15.2,15.2 0 0 1 5.38,-3.33 20.37,20.37 0 0 1 7.12,-1.17 20,20 0 0 1 7,1.17 14.23,14.23 0 0 1 5.29,3.4 14.73,14.73 0 0 1 3.3,5.43 21.63,21.63 0 0 1 1.14,7.25 v 1.14 z m 12.75,-6.31 a 6.57,6.57 0 0 0 -2.23,-3.67 6.9,6.9 0 0 0 -8.2,-0.06 6,6 0 0 0 -2,3.73 z"
       id="path32"
       inkscape:connector-curvature="0"
       style="fill:#1e286e" />
    <polygon
       class="cls-1"
       points="87.14,28.17 102.89,28.17 100.64,32.67 105.14,37.17 89.39,37.17 "
       id="polygon34"
       style="fill:#1e286e" />
    <polygon
       class="cls-2"
       points="80.39,25.92 91.64,25.92 95.05,34.89 83.8,34.89 "
       id="polygon36"
       style="fill:#4b508c" />
    <path
       class="cls-3"
       d="m 40.47,127.05 h 39.6 a 1.2,1.2 0 0 0 1.2,-1.2 v -39.6 a 1.2,1.2 0 0 0 -1.2,-1.2 h -18.6 a 1.19,1.19 0 0 0 -1.2,1.2 v 18.6 a 1.2,1.2 0 0 1 -1.2,1.2 h -18.6 a 1.19,1.19 0 0 0 -1.2,1.2 v 18.6 a 1.2,1.2 0 0 0 1.2,1.2 z"
       id="path38"
       inkscape:connector-curvature="0"
       style="fill:#fad750" />
    <path
       class="cls-4"
       d="m 80.86,85.35 a 1.17,1.17 0 0 0 -0.79,-0.3 h -18.6 a 1.19,1.19 0 0 0 -1.2,1.2 v 14.14 c 0,0 20.84,-14.82 20.59,-15.04 z"
       id="path40"
       inkscape:connector-curvature="0"
       style="fill:#f5c328" />
    <path
       class="cls-4"
       d="M 52.22,106.05 H 40.47 a 1.19,1.19 0 0 0 -1.2,1.2 v 8.57 z"
       id="path42"
       inkscape:connector-curvature="0"
       style="fill:#f5c328" />
    <path
       class="cls-5"
       d="m 106.11,77.33 -20.65,-35.76 -4,-15.92 a 1.1229426,1.1229426 0 0 0 -2.18,0.54 L 83.1,41.48 62.42,77.33 a 1.15,1.15 0 0 0 1,1.72 h 41.71 a 1.15,1.15 0 0 0 0.98,-1.72 z"
       id="path44"
       inkscape:connector-curvature="0"
       style="fill:#cd0a5a" />
    <path
       class="cls-6"
       d="m 63.09,76.17 -0.67,1.16 a 1.15,1.15 0 0 0 1,1.72 h 41.71 a 1.15,1.15 0 0 0 1,-1.72 L 90,49.47 Z"
       id="path46"
       inkscape:connector-curvature="0"
       style="fill:#ff2d96" />
    <path
       class="cls-7"
       d="m 39.27,134.22 v 41.83 a 1,1 0 0 0 1,1 h 20 a 1,1 0 0 0 1,-1 22,22 0 0 1 43.95,0 1,1 0 0 0 1,1 h 20 a 1,1 0 0 0 1,-1 v -42 a 1,1 0 0 0 -1,-1 H 40.44 a 1.17,1.17 0 0 0 -1.17,1.17 z"
       id="path48"
       inkscape:connector-curvature="0"
       style="fill:#1ea0f5" />
    <path
       class="cls-8"
       d="m 79.23,133.05 h -39 a 1,1 0 0 0 -1,1 v 25 z"
       id="path50"
       inkscape:connector-curvature="0"
       style="fill:#197dbe" />
    <rect
       class="cls-5"
       x="293.26999"
       y="102.63"
       width="15.43"
       height="7.7199998"
       rx="0.76999998"
       ry="0.76999998"
       id="rect52"
       style="fill:#cd0a5a" />
    <path
       class="cls-6"
       d="m 307.93,110.34 h -13.09 l 10.3,-7.71 h 2.79 a 0.77,0.77 0 0 1 0.77,0.77 v 6.17 a 0.77,0.77 0 0 1 -0.77,0.77 z"
       id="path54"
       inkscape:connector-curvature="0"
       style="fill:#ff2d96" />
    <circle
       class="cls-9"
       cx="106.27"
       cy="106.05"
       r="21"
       id="circle56"
       style="fill:#46dcc3" />
    <path
       class="cls-10"
       d="m 98.09,125.39 a 21,21 0 0 0 29.18,-19.34 c 0,-0.45 0,-0.89 0,-1.32 z"
       id="path58"
       inkscape:connector-curvature="0"
       style="fill:#91ebc3" />
  </g>
</svg>
