<?xml version="1.0" encoding="UTF-8" standalone="no"?>
<svg
   xmlns:dc="http://purl.org/dc/elements/1.1/"
   xmlns:cc="http://creativecommons.org/ns#"
   xmlns:rdf="http://www.w3.org/1999/02/22-rdf-syntax-ns#"
   xmlns:svg="http://www.w3.org/2000/svg"
   xmlns="http://www.w3.org/2000/svg"
   xmlns:sodipodi="http://sodipodi.sourceforge.net/DTD/sodipodi-0.dtd"
   xmlns:inkscape="http://www.inkscape.org/namespaces/inkscape"
   viewBox="0 0 433.46228 162.40294"
   version="1.1"
   id="svg61"
   sodipodi:docname="logo.svg"
   width="433.46228"
   height="162.40294"
   inkscape:version="0.92.4 5da689c313, 2019-01-14">
  <metadata
     id="metadata65">
    <rdf:RDF>
      <cc:Work
         rdf:about="">
        <dc:format>image/svg+xml</dc:format>
        <dc:type
           rdf:resource="http://purl.org/dc/dcmitype/StillImage" />
        <dc:title>mon-entreprise_logo</dc:title>
      </cc:Work>
    </rdf:RDF>
  </metadata>
  <sodipodi:namedview
     pagecolor="#ffffff"
     bordercolor="#666666"
     borderopacity="1"
     objecttolerance="10"
     gridtolerance="10"
     guidetolerance="10"
     inkscape:pageopacity="0"
     inkscape:pageshadow="2"
     inkscape:window-width="1256"
     inkscape:window-height="1386"
     id="namedview63"
     showgrid="false"
     inkscape:zoom="0.95898438"
     inkscape:cx="213.12031"
     inkscape:cy="61.387373"
     inkscape:window-x="48"
     inkscape:window-y="28"
     inkscape:window-maximized="0"
     inkscape:current-layer="svg61"
     showguides="false" />
  <defs
     id="defs4">
    <style
       id="style2">.cls-1{fill:#1e286e;}.cls-2{fill:#4b508c;}.cls-3{fill:#fad750;}.cls-4{fill:#f5c328;}.cls-5{fill:#cd0a5a;}.cls-6{fill:#ff2d96;}.cls-7{fill:#1ea0f5;}.cls-8{fill:#197dbe;}.cls-9{fill:#46dcc3;}.cls-10{fill:#91ebc3;}</style>
  </defs>
  <title
     id="title6">mon-entreprise_logo</title>
  <g
     id="mon-entrerpise_logo"
     transform="translate(-39.23,-24.797057)">
    <polygon
       class="cls-1"
       points="87.14,28.17 102.89,28.17 100.64,32.67 105.14,37.17 89.39,37.17 "
       id="polygon34"
       style="fill:#1e286e" />
    <polygon
       class="cls-2"
       points="80.39,25.92 91.64,25.92 95.05,34.89 83.8,34.89 "
       id="polygon36"
       style="fill:#4b508c" />
    <path
       class="cls-3"
       d="m 40.47,127.05 h 39.6 a 1.2,1.2 0 0 0 1.2,-1.2 v -39.6 a 1.2,1.2 0 0 0 -1.2,-1.2 h -18.6 a 1.19,1.19 0 0 0 -1.2,1.2 v 18.6 a 1.2,1.2 0 0 1 -1.2,1.2 h -18.6 a 1.19,1.19 0 0 0 -1.2,1.2 v 18.6 a 1.2,1.2 0 0 0 1.2,1.2 z"
       id="path38"
       inkscape:connector-curvature="0"
       style="fill:#fad750" />
    <path
       class="cls-4"
       d="m 80.86,85.35 a 1.17,1.17 0 0 0 -0.79,-0.3 h -18.6 a 1.19,1.19 0 0 0 -1.2,1.2 v 14.14 c 0,0 20.84,-14.82 20.59,-15.04 z"
       id="path40"
       inkscape:connector-curvature="0"
       style="fill:#f5c328" />
    <path
       class="cls-4"
       d="M 52.22,106.05 H 40.47 a 1.19,1.19 0 0 0 -1.2,1.2 v 8.57 z"
       id="path42"
       inkscape:connector-curvature="0"
       style="fill:#f5c328" />
    <path
       class="cls-5"
       d="m 106.11,77.33 -20.65,-35.76 -4,-15.92 a 1.1229426,1.1229426 0 0 0 -2.18,0.54 L 83.1,41.48 62.42,77.33 a 1.15,1.15 0 0 0 1,1.72 h 41.71 a 1.15,1.15 0 0 0 0.98,-1.72 z"
       id="path44"
       inkscape:connector-curvature="0"
       style="fill:#cd0a5a" />
    <path
       class="cls-6"
       d="m 63.09,76.17 -0.67,1.16 a 1.15,1.15 0 0 0 1,1.72 h 41.71 a 1.15,1.15 0 0 0 1,-1.72 L 90,49.47 Z"
       id="path46"
       inkscape:connector-curvature="0"
       style="fill:#ff2d96" />
    <path
       class="cls-7"
       d="m 39.27,134.22 v 41.83 a 1,1 0 0 0 1,1 h 20 a 1,1 0 0 0 1,-1 22,22 0 0 1 43.95,0 1,1 0 0 0 1,1 h 20 a 1,1 0 0 0 1,-1 v -42 a 1,1 0 0 0 -1,-1 H 40.44 a 1.17,1.17 0 0 0 -1.17,1.17 z"
       id="path48"
       inkscape:connector-curvature="0"
       style="fill:#1ea0f5" />
    <path
       class="cls-8"
       d="m 79.23,133.05 h -39 a 1,1 0 0 0 -1,1 v 25 z"
       id="path50"
       inkscape:connector-curvature="0"
       style="fill:#197dbe" />
    <circle
       class="cls-9"
       cx="106.27"
       cy="106.05"
       r="21"
       id="circle56"
       style="fill:#46dcc3" />
    <path
       class="cls-10"
       d="m 98.09,125.39 a 21,21 0 0 0 29.18,-19.34 c 0,-0.45 0,-0.89 0,-1.32 z"
       id="path58"
       inkscape:connector-curvature="0"
       style="fill:#91ebc3" />
  </g>
  <flowRoot
     xml:space="preserve"
     id="flowRoot1042"
     style="font-style:normal;font-weight:normal;font-size:40px;line-height:1.25;font-family:sans-serif;letter-spacing:0px;word-spacing:0px;fill:#000000;fill-opacity:1;stroke:none"><flowRegion
       id="flowRegion1044"><rect
         id="rect1046"
         width="279.46231"
         height="103.23421"
         x="126.17516"
         y="25.800089" /></flowRegion><flowPara
       id="flowPara1048">mycompany</flowPara><flowPara
       id="flowPara1050">infrance</flowPara></flowRoot></svg>
