<svg role="img" id="e1c0b962-9030-4e23-944a-23cc505a5b47" data-name="Layer 1" xmlns="http://www.w3.org/2000/svg" width="1034.47847" height="814" viewBox="0 0 1034.47847 814"><title>plans</title><circle cx="515.23121" cy="565" r="240" fill="#f2f2f2"/><path d="M614.992,851c-2.77442,0-5.57715-.04395-8.32813-.12988l.0625-1.99805c3.9502.12305,7.98145.15723,11.9502.10254l.02734,2Q616.85086,850.99951,614.992,851Zm15.74511-.46387L630.6199,848.54c3.95606-.2334,7.9629-.56152,11.90918-.97461l.209,1.98828C638.76151,849.9707,634.7244,850.30176,630.73709,850.53613Zm-36.0957-.31152c-3.98926-.30566-8.02051-.70606-11.98242-1.19238l.24414-1.98438c3.93164.48145,7.93164.87988,11.89062,1.18262Zm60.03906-2.19922-.2998-1.97656c3.93066-.59668,7.8916-1.28906,11.76953-2.05957l.38965,1.96094C662.63162,846.72656,658.64139,847.4248,654.68045,848.02539Zm-83.93506-.73144c-3.94091-.668-7.91894-1.43555-11.82324-2.28321l.42432-1.95508c3.87451.8418,7.82177,1.60352,11.73291,2.26563ZM678.29373,843.332l-.48047-1.9414c3.8584-.95411,7.73829-2.00879,11.53223-3.13379l.56836,1.918C686.09061,841.30859,682.18143,842.37109,678.29373,843.332Zm-131.07617-1.14648c-3.86572-1.02832-7.75586-2.15918-11.5625-3.36328l.60254-1.90625c3.77783,1.19433,7.63818,2.3164,11.47363,3.33593Zm154.1582-5.70117-.65625-1.88868c3.74414-1.30175,7.50977-2.709,11.19434-4.18359l.74219,1.85742C708.94412,833.75488,705.1492,835.17285,701.37576,836.48438ZM524.23026,834.918c-3.7544-1.37988-7.53223-2.86914-11.22754-4.42578l.77636-1.84375c3.667,1.54492,7.41553,3.02246,11.14161,4.39258Zm199.47461-7.36817-.82813-1.82031c3.5957-1.63379,7.21-3.37793,10.74219-5.18359l.91015,1.78125C730.96951,824.14648,727.32791,825.90332,723.70487,827.5498Zm-221.71045-1.99414c-3.60889-1.71972-7.23145-3.54882-10.76563-5.4375l.94238-1.76367c3.50782,1.874,7.10206,3.68946,10.6836,5.39649Zm243.10888-8.94433-.99023-1.73633c3.44824-1.96777,6.89062-4.03613,10.22949-6.14844l1.06836,1.68946C752.04666,812.54492,748.57889,814.62988,745.1033,816.61133Zm-264.376-2.418c-3.43262-2.042-6.87012-4.19531-10.21631-6.39941l1.10058-1.66993c3.32032,2.1875,6.73145,4.32422,10.13819,6.35059Zm284.69922-10.43945-1.14454-1.63868c3.24707-2.26855,6.48731-4.64453,9.63086-7.06054l1.21875,1.58594C771.96463,799.0752,768.699,801.46875,765.42655,803.75391ZM460.60086,800.9375c-3.228-2.34473-6.45263-4.80078-9.585-7.30176l1.24805-1.5625c3.1084,2.48145,6.30859,4.91895,9.51172,7.24512Zm323.90283-11.8457-1.28906-1.5293c3.02637-2.55371,6.03809-5.21484,8.95313-7.91016l1.35742,1.46875C790.58865,783.83691,787.5535,786.51855,784.50369,789.0918Zm-342.728-3.18555c-3.00635-2.63281-5.99317-5.37109-8.877-8.13965l1.38477-1.44336c2.8623,2.748,5.82617,5.46582,8.80957,8.0791Zm360.40088-13.16113-1.42383-1.4043c2.79-2.82715,5.5498-5.75293,8.20117-8.69531l1.48633,1.33789C807.76834,766.94922,804.98807,769.89648,802.17655,772.74512Zm-377.773-3.51172c-2.7583-2.90039-5.48243-5.89844-8.09668-8.91016l1.51074-1.31054c2.59424,2.98925,5.29736,5.96386,8.03515,8.84179Zm393.89306-14.37988-1.54492-1.26954c2.52051-3.06738,5.00195-6.23242,7.37793-9.40918l1.60156,1.19727C823.33768,748.57324,820.8367,751.76367,818.29666,754.85352Zm-409.6709-3.79688c-2.47705-3.12988-4.916-6.36133-7.24951-9.60449l1.623-1.168c2.31592,3.21777,4.73633,6.4248,7.19482,9.53223Zm424.09961-15.49707-1.65429-1.12305c2.23047-3.28418,4.415-6.66406,6.49218-10.04785l1.70508,1.04688C837.17362,728.84473,834.97244,732.251,832.72537,735.55957Zm-438.15088-4.0293c-2.17919-3.34082-4.312-6.77832-6.33984-10.21972l1.72266-1.01563c2.01269,3.415,4.12939,6.82715,6.292,10.1416Zm450.76612-16.51074-1.75-.9668c1.91992-3.4746,3.78515-7.043,5.5459-10.60644l1.793.88672C849.156,707.92285,847.27518,711.51855,845.34061,715.01953ZM382.3699,710.81445c-1.86523-3.52539-3.67382-7.14257-5.37548-10.75l1.80859-.85351c1.689,3.58008,3.4834,7.16992,5.33447,10.668Zm473.65137-17.416-1.832-.80274c1.59375-3.63965,3.124-7.36718,4.54883-11.07812l1.86719.7168C859.16971,685.97461,857.62674,689.73047,856.02127,693.39844ZM372.11893,689.083c-1.5332-3.67969-3.00147-7.44434-4.36377-11.19043l1.87988-.6836c1.35156,3.71778,2.8086,7.45313,4.32959,11.1045Zm492.55078-18.21582-1.89844-.62891c1.24805-3.76074,2.42578-7.60449,3.5-11.42578l1.92578.541C867.11405,663.2041,865.92655,667.07813,864.66971,670.86719Zm-500.76709-4.38281c-1.18994-3.81153-2.30811-7.70508-3.32324-11.57422l1.93457-.50782c1.00732,3.83985,2.11719,7.70411,3.29785,11.48633Zm507.28564-18.79493-1.94824-.45312c.89551-3.85449,1.71387-7.791,2.4336-11.69824l1.96679.36132C872.9158,639.83789,872.09061,643.80371,871.18826,647.68945Zm-513.394-4.49414c-.834-3.90625-1.58887-7.88574-2.24316-11.83008l1.97265-.32812c.64991,3.915,1.39893,7.86426,2.22657,11.74023Zm517.75244-19.18359-1.98242-.27149c.53809-3.917.99219-7.91113,1.35059-11.87207l1.99218.17969C876.54569,616.04,876.08768,620.06445,875.54666,624.01172Zm-521.69385-4.56641c-.47167-3.959-.85888-7.99121-1.15136-11.98437l1.99511-.14649c.28956,3.96387.67432,7.96485,1.14258,11.89453Zm523.86866-19.40918-1.998-.08984c.17773-3.96289.26856-7.98242.26856-11.94629h2C877.992,591.99414,877.90115,596.044,877.72147,600.03613Zm-525.626-4.60156c-.06836-2.45215-.103-4.9541-.10351-7.43457q0-2.30859.03955-4.6084l2,.03516Q353.992,585.709,353.992,588c.00048,2.46191.03515,4.94531.10253,7.37988ZM875.97733,585.21c-.041-3.96533-.17383-7.98437-.39356-11.94629l1.9961-.11133c.22168,3.99219.35546,8.04151.39746,12.03614ZM354.50614,571.48682l-1.9961-.125c.24951-3.9961.59424-8.03223,1.02344-11.99659l1.98828.21534C355.09549,563.51514,354.75418,567.52051,354.50614,571.48682Zm520.14209-10.13477c-.39942-3.94287-.89649-7.93213-1.47657-11.85791l1.97852-.292c.584,3.95556,1.085,7.9751,1.48828,11.94775ZM357.07889,547.73389l-1.97656-.30567c.61279-3.95654,1.3247-7.94433,2.11621-11.854l1.96.39648C358.39334,539.85059,357.6868,543.80811,357.07889,547.73389Zm514.07422-10.01563c-.7627-3.90137-1.623-7.82861-2.5586-11.67236l1.94336-.47266c.94239,3.873,1.80957,7.83057,2.57813,11.76123ZM361.81619,524.31689l-1.93994-.48632c.97119-3.87354,2.04688-7.7793,3.19727-11.60938l1.915.5752C363.84744,516.59717,362.78006,520.47314,361.81619,524.31689Zm503.68457-9.81347c-1.11523-3.80811-2.334-7.63867-3.62207-11.38672l1.89063-.65039c1.29883,3.77685,2.52734,7.63769,3.65137,11.47461ZM368.701,501.40332l-1.88672-.66309c1.3291-3.78076,2.76416-7.57959,4.26514-11.291l1.85449.75C371.44412,493.88184,370.01981,497.65186,368.701,501.40332Zm489.0332-9.49463c-1.459-3.68066-3.02148-7.37451-4.64453-10.97949l1.82422-.82129c1.63574,3.63281,3.21,7.355,4.67969,11.06348ZM377.67752,479.20605l-1.81738-.835c1.67041-3.63769,3.44824-7.28564,5.28418-10.84228l1.77734.917C381.0994,471.97559,379.33524,475.5957,377.67752,479.20605Zm470.26856-9.03564c-1.79-3.53076-3.68653-7.06885-5.63672-10.51465l1.74023-.98535c1.96582,3.47266,3.876,7.0376,5.67969,10.5957ZM388.65457,457.94092l-1.7334-.998c1.99512-3.46435,4.09913-6.93213,6.25391-10.30615l1.68555,1.07617C392.72244,451.06152,390.63406,454.50293,388.65457,457.94092Zm447.54151-8.53516c-2.11328-3.36426-4.32618-6.71582-6.57715-9.96191l1.64258-1.13965c2.26855,3.271,4.499,6.648,6.62793,10.03809ZM401.52762,437.78223l-1.63477-1.15235c2.30567-3.27,4.71631-6.52929,7.16651-9.6875l1.58008,1.22559C406.20828,431.30273,403.81522,434.53711,401.52762,437.78223Zm421.064-7.99219c-2.41015-3.15674-4.91992-6.29492-7.46191-9.32715l1.5332-1.28467c2.56055,3.05567,5.08985,6.21729,7.51856,9.39795ZM416.18094,418.89111l-1.52246-1.29687c2.5874-3.03906,5.28418-6.064,8.01514-8.99072l1.46191,1.36425C421.42557,412.87256,418.7493,415.875,416.18094,418.89111Zm391.06982-7.4082c-2.68652-2.92432-5.47363-5.82275-8.28222-8.61377l1.41015-1.41894c2.83008,2.813,5.6377,5.73291,8.34473,8.67919ZM432.48563,401.419l-1.39844-1.42969c2.85986-2.79785,5.81934-5.564,8.79541-8.22119l1.332,1.49218C438.261,395.897,435.324,398.64209,432.48563,401.419Zm357.81787-6.77979c-2.94434-2.67041-5.98438-5.3042-9.03516-7.82812l1.27539-1.541c3.07325,2.543,6.13672,5.19678,9.10352,7.88769ZM450.304,385.50732l-1.2627-1.55078c3.09326-2.519,6.29-5.00341,9.502-7.38427l1.19141,1.60644C456.54666,380.542,453.37381,383.00732,450.304,385.50732Zm321.58154-6.10693c-3.17676-2.39209-6.44531-4.73926-9.71484-6.97607l1.1289-1.65039c3.29492,2.25341,6.58789,4.61816,9.78906,7.0288ZM469.48612,371.29l-1.11622-1.65918c3.31055-2.22754,6.71875-4.40869,10.13038-6.48438l1.03906,1.709C476.15408,366.915,472.77176,369.08008,469.48612,371.29Zm282.65918-5.39111c-3.37989-2.0918-6.85059-4.13086-10.31543-6.06153l.97265-1.74707c3.49219,1.94531,6.98926,4.00049,10.39551,6.10742Zm-262.27149-7.01026-.96-1.75488c3.50244-1.9165,7.09375-3.77588,10.67383-5.52734l.8789,1.79687C496.91385,355.14111,493.34989,356.98633,489.87381,358.88867Zm241.37012-4.63379c-3.5586-1.773-7.2041-3.48584-10.835-5.09082l.80859-1.8291c3.65918,1.61719,7.333,3.34326,10.91895,5.12988Zm-219.94824-5.84424-.79493-1.835c3.66016-1.58642,7.4043-3.10791,11.12793-4.52246l.71,1.87012C518.64334,345.32666,514.928,346.83643,511.29569,348.41064Zm198.05175-3.83447c-3.70312-1.436-7.49316-2.80615-11.26562-4.07178l.63672-1.89648c3.80078,1.27588,7.62011,2.65625,11.35156,4.104Zm-175.74316-4.63672-.62305-1.90039c3.80078-1.24609,7.67871-2.41943,11.52539-3.48633l.53467,1.92676C541.22391,337.53857,537.37576,338.70264,533.60428,339.93945Zm153.06348-2.97363c-3.81446-1.0874-7.70508-2.1001-11.56348-3.00977l.459-1.94628c3.88868.9165,7.8086,1.937,11.65332,3.03222Zm-130.04151-3.41553-.44531-1.9497c3.89648-.89014,7.86572-1.70118,11.79687-2.41016l.35547,1.96777C564.43143,331.8623,560.49295,332.667,556.62625,333.55029Zm106.7876-2.06689c-3.89453-.731-7.86133-1.38135-11.791-1.93311l.27735-1.98047c3.96.55616,7.958,1.21143,11.88281,1.94776Zm-83.27539-2.17627-.26465-1.98242c3.959-.52832,7.98535-.97266,11.9668-1.31934l.17383,1.99219C588.06326,328.34229,584.06815,328.78271,580.13846,329.30713Zm59.61621-1.14746c-3.93945-.3711-7.94922-.65723-11.91894-.84912l.09765-1.998c3.999.19385,8.03906.48193,12.00879.856Zm-35.81445-.9292-.084-1.99805c3.67578-.15332,7.42188-.23144,11.13575-.23242l.90527.00146-.00586,2L614.992,327C611.30643,327.001,607.58768,327.07861,603.94022,327.23047Z" transform="translate(-82.76077 -43)" fill="#3f3d56"/><ellipse cx="520.47847" cy="805" rx="164" ry="9" fill="#3f3d56"/><path d="M615.03047,180.828s-15.25536,16.78089-16.01813,28.98518-26.9341,42.44481-1,52.36079c0,0,4.57661-3.05107,9.15322,0s35.2316-3.51314,35.2316-3.51314Z" transform="translate(-82.76077 -43)" fill="#2f2e41"/><path d="M628.37693,248.53857s16.72563,23.41588,1.67256,28.43357S640.08487,382.3436,640.08487,382.3436l63.55739-98.68121S670.191,246.866,670.191,230.14038Z" transform="translate(-82.76077 -43)" fill="#ffb9b9"/><path d="M778.90759,367.29053s21.74331,21.74332,15.05306,26.761-73.59276,36.79638-73.59276,38.469-10.03538,10.03537-10.03538,10.03537l-11.70794-18.39819,45.1592-28.43357Z" transform="translate(-82.76077 -43)" fill="#ffb9b9"/><path d="M539.7311,355.58259s-16.72563,26.761-3.34513,38.469,53.522,43.48664,53.522,43.48664-8.74474,27.16519-.191,28.63566,21.93428-36.99848,20.26172-40.3436-46.23613-32.33459-46.23613-32.33459Z" transform="translate(-82.76077 -43)" fill="#ffb9b9"/><polygon points="441.59 721.343 429.239 767 453.239 768 463.333 731.378 441.59 721.343" fill="#ffb9b9"/><polygon points="587.43 724.033 587.43 760.829 604.156 760.829 612.519 724.033 587.43 724.033" fill="#ffb9b9"/><circle cx="557.3241" cy="178.77757" r="36.79638" fill="#ffb9b9"/><path d="M651.79281,352.23747l-21.74332-75.26533s-40.14151-5.01769-58.5397,18.39819-38.46894,66.90252-38.46894,66.90252,10.03537,15.05306,11.70794,25.08844,28.43356,5.01769,28.43356,5.01769,25.08845,5.01769,25.08845,26.761-78.61046,354.58333-78.61046,354.58333,95.33609,21.74332,102.02634,5.01769,40.14151-217.43317,40.14151-217.43317l3.34512,224.12342s80.283,11.70794,83.62815-8.36281-13.38051-269.28262-13.38051-269.28262-3.34512-56.86714-30.10613-90.3184c0,0-1.67256-10.03538-1.67256-11.70794s41.81407-8.36281,41.81407-8.36281,45.1592,10.03537,43.48663-25.08845-53.522-83.62814-71.9202-88.64583-23.30538-11.70683-23.30538-11.70683Z" transform="translate(-82.76077 -43)" fill="#2f2e41"/><path d="M515,801s5.3805-3.01769-8,2-43,19-43,19-49.71112,5.53738-6.22448,25.60814c0,0,33.45125,2.36281,33.45125-.98231s11.70794-8.36282,15.05307-3.34513S543,847,543.09391,842.2807c.10523-5.28806-3.34512-42.50432-3.34512-42.50432S518.34513,812.70794,515,801Z" transform="translate(-82.76077 -43)" fill="#2f2e41"/><path d="M691.93432,793.79407s-28.43357-11.70794-30.10613-5.01769-5.01769,31.77869-5.01769,35.12382-6.69025,28.43357,16.72563,31.77869,28.43356-18.39819,26.761-20.07075S691.93432,793.79407,691.93432,793.79407Z" transform="translate(-82.76077 -43)" fill="#2f2e41"/><path d="M643.67349,166.71678S670.201,139.97858,703,201c0,0,33.1216,52.19784-10.35616,67.4532,0,0-37.64384-7.4532-38.673-25.841,0,0,13.72982-1.52553,3.05107-12.967s-20.59473-16.78089-20.59473-16.78089-8.39044-5.33938-8.39044-10.67875c0,0,0,9.15321,1.52553,9.15321,0,0-14.49259-1.52553-15.25535-7.62767s-3.81384-16.01813-3.81384-16.01813S615.06969,162.52156,643.67349,166.71678Z" transform="translate(-82.76077 -43)" fill="#2f2e41"/><circle cx="738.23121" cy="159" r="26" fill="#f2f2f2"/><path d="M823.992,230a33,33,0,1,1,33-33A33.03734,33.03734,0,0,1,823.992,230Zm0-64a31,31,0,1,0,31,31A31.03536,31.03536,0,0,0,823.992,166Z" transform="translate(-82.76077 -43)" fill="#3f3d56"/><path d="M839.11308,252.80328H797.80942a144.46108,144.46108,0,0,1,0-49.24668h41.30366A88.61136,88.61136,0,0,0,839.11308,252.80328Z" transform="translate(-82.76077 -43)" fill="#ff6584"/><circle cx="363.73121" cy="211.5" r="26" fill="#f2f2f2"/><path d="M443.492,282.5a33,33,0,1,1,33-33A33.03734,33.03734,0,0,1,443.492,282.5Zm0-64a31,31,0,1,0,31,31A31.03536,31.03536,0,0,0,443.492,218.5Z" transform="translate(-82.76077 -43)" fill="#3f3d56"/><path d="M422.87087,299.781h41.30366a144.461,144.461,0,0,0,0-49.24667H422.87087A88.61132,88.61132,0,0,1,422.87087,299.781Z" transform="translate(-82.76077 -43)" fill="#2975d1"/><circle cx="518.23121" cy="38" r="26" fill="#fff"/><path d="M603.99216,109a33,33,0,1,1,33-33A33.03734,33.03734,0,0,1,603.99216,109Zm0-64a31,31,0,1,0,31,31A31.035,31.035,0,0,0,603.99216,45Z" transform="translate(-82.76077 -43)" fill="#3f3d56"/><path d="M580.87087,124.781h41.30366a144.461,144.461,0,0,0,0-49.24667H580.87087A88.61132,88.61132,0,0,1,580.87087,124.781Z" transform="translate(-82.76077 -43)" fill="#2975d1"/><path d="M186.94943,591.2491c34.35953,103.40709,22.29244,200.49982,22.29244,200.49982S141.467,721.18564,107.10744,617.77855,84.815,417.27873,84.815,417.27873,152.5899,487.842,186.94943,591.2491Z" transform="translate(-82.76077 -43)" fill="#2975d1"/><path d="M231.53431,591.2491c-34.35953,103.40709-22.29244,200.49982-22.29244,200.49982s67.7749-70.56328,102.13444-173.97037,22.29244-200.49982,22.29244-200.49982S265.89385,487.842,231.53431,591.2491Z" transform="translate(-82.76077 -43)" fill="#2975d1"/><path d="M245.37305,592.36731c2.30311,108.94172-37.88753,198.14557-37.88753,198.14557S163.5608,703.0873,161.25769,594.14557,199.14521,396,199.14521,396,243.06994,483.42558,245.37305,592.36731Z" transform="translate(-82.76077 -43)" fill="#3f3d56"/><ellipse cx="124.70206" cy="748.74194" rx="97.16902" ry="5.33245" fill="#3f3d56"/><circle cx="120.5546" cy="453.08742" r="10.66489" fill="#2975d1"/><circle cx="99.81731" cy="538.40656" r="5.92494" fill="#2975d1"/><circle cx="27.53304" cy="479.74965" r="5.92494" fill="#3f3d56"/><circle cx="236.68343" cy="422.27773" r="5.92494" fill="#3f3d56"/><circle cx="58.34273" cy="535.44409" r="5.92494" fill="#3f3d56"/><circle cx="182.76648" cy="501.07943" r="5.92494" fill="#3f3d56"/><circle cx="61.89769" cy="622.54071" r="5.92494" fill="#3f3d56"/><circle cx="188.69142" cy="588.76855" r="5.92494" fill="#3f3d56"/><circle cx="131.2195" cy="594.69349" r="5.92494" fill="#2975d1"/><path d="M994.91222,660.18913c28.25165,85.02507,18.32965,164.85824,18.32965,164.85824s-55.727-58.01969-83.97864-143.04476-18.32965-164.85824-18.32965-164.85824S966.66056,575.16407,994.91222,660.18913Z" transform="translate(-82.76077 -43)" fill="#2975d1"/><path d="M1031.57153,660.18913c-28.25166,85.02507-18.32966,164.85824-18.32966,164.85824s55.727-58.01969,83.97865-143.04476,18.32965-164.85824,18.32965-164.85824S1059.82318,575.16407,1031.57153,660.18913Z" transform="translate(-82.76077 -43)" fill="#2975d1"/><path d="M1042.95024,661.10856c1.8937,89.57585-31.1525,162.92249-31.1525,162.92249s-36.1165-71.88449-38.01021-161.46033S1004.94,499.64823,1004.94,499.64823,1041.05654,571.53272,1042.95024,661.10856Z" transform="translate(-82.76077 -43)" fill="#3f3d56"/><ellipse cx="929.01831" cy="782.04163" rx="79.8959" ry="4.38453" fill="#3f3d56"/><circle cx="925.60812" cy="538.94374" r="8.76906" fill="#2975d1"/><circle cx="908.55717" cy="609.09624" r="4.8717" fill="#2975d1"/><circle cx="849.12241" cy="560.86639" r="4.8717" fill="#3f3d56"/><circle cx="1021.09346" cy="513.61089" r="4.8717" fill="#3f3d56"/><circle cx="874.45526" cy="606.66039" r="4.8717" fill="#3f3d56"/><circle cx="976.76098" cy="578.40452" r="4.8717" fill="#3f3d56"/><circle cx="877.37828" cy="678.27439" r="4.8717" fill="#3f3d56"/><circle cx="981.63268" cy="650.5057" r="4.8717" fill="#3f3d56"/><circle cx="934.37718" cy="655.3774" r="4.8717" fill="#2975d1"/></svg>