<svg width="200" height="85" viewBox="0 0 200 85" fill="none" xmlns="http://www.w3.org/2000/svg">
<g clip-path="url(#clip0_107_509)">
<path d="M170 0H30C13.4315 0 0 13.4315 0 30C0 46.5685 13.4315 60 30 60H170C186.569 60 200 46.5685 200 30C200 13.4315 186.569 0 170 0Z" fill="#000091"/>
<path d="M58.2414 27.2069C61.1182 27.2069 62.5369 25.6897 62.5369 22.6355V9.98522H59.7389V22.7734C59.7389 24.1921 59.0887 24.7241 57.8473 24.7241C57.5714 24.7241 57.335 24.7044 57.1379 24.665V27.1281C57.4138 27.2069 57.7882 27.2069 58.2414 27.2069ZM70.734 24.1724C72.6059 24.1724 74.1429 23.4039 75.069 22.1626L73.2759 20.7438C72.7438 21.4532 71.8571 21.9261 70.7734 21.9261C69.0788 21.9261 67.936 20.9606 67.7783 19.3251H74.734C74.8128 18.9901 74.8916 18.4581 74.8916 17.9064C74.8916 15.3054 73.0788 13.4532 70.3202 13.4532C67.069 13.4532 65.2167 15.8768 65.2167 18.8128C65.2167 21.7094 67.2069 24.1724 70.734 24.1724ZM72.4089 17.4335H67.936C68.2709 16.133 69.0985 15.5419 70.3202 15.5419C71.6404 15.5419 72.3695 16.4483 72.4089 17.4335ZM86.9901 24.1724C88.2709 24.1724 89.2759 23.7783 90.064 23.0887V23.7783H92.5862V9H90.064V14.5369C89.2759 13.8473 88.2709 13.4532 86.9901 13.4532C83.8571 13.4532 81.9458 15.9163 81.9458 18.8128C81.9458 21.7094 83.8571 24.1724 86.9901 24.1724ZM87.3448 21.8079C85.6502 21.8079 84.5665 20.5468 84.5665 18.8128C84.5665 17.0788 85.6502 15.8177 87.3448 15.8177C88.4877 15.8177 89.3941 16.3103 90.064 17.2956V20.33C89.4138 21.2956 88.5074 21.8079 87.3448 21.8079ZM100.31 24.1724C103.542 24.1724 105.749 21.7882 105.749 18.8128C105.749 15.8374 103.542 13.4532 100.31 13.4532C97.0788 13.4532 94.8719 15.8374 94.8719 18.8128C94.8719 21.7882 97.0788 24.1724 100.31 24.1724ZM100.35 21.8079C98.6946 21.8079 97.4729 20.5468 97.4729 18.8128C97.4729 17.0788 98.6946 15.8177 100.35 15.8177C101.946 15.8177 103.148 17.0788 103.148 18.8128C103.148 20.5271 101.946 21.8079 100.35 21.8079ZM110.537 23.7783V17.2956C110.911 16.665 111.581 15.8177 112.842 15.8177C114.064 15.8177 114.793 16.6453 114.793 17.9655V23.7783H117.335V17.867C117.335 14.931 115.621 13.4532 113.473 13.4532C112.153 13.4532 111.227 13.9655 110.537 14.6355V13.8473H108.034V23.7783H110.537ZM122.675 23.7783V17.2956C123.049 16.665 123.719 15.8177 124.98 15.8177C126.202 15.8177 126.931 16.6453 126.931 17.9655V23.7783H129.473V17.867C129.473 14.931 127.759 13.4532 125.611 13.4532C124.291 13.4532 123.365 13.9655 122.675 14.6355V13.8473H120.172V23.7783H122.675ZM137.118 24.1724C138.99 24.1724 140.527 23.4039 141.453 22.1626L139.66 20.7438C139.128 21.4532 138.241 21.9261 137.158 21.9261C135.463 21.9261 134.32 20.9606 134.163 19.3251H141.118C141.197 18.9901 141.276 18.4581 141.276 17.9064C141.276 15.3054 139.463 13.4532 136.704 13.4532C133.453 13.4532 131.601 15.8768 131.601 18.8128C131.601 21.7094 133.591 24.1724 137.118 24.1724ZM138.793 17.4335H134.32C134.655 16.133 135.483 15.5419 136.704 15.5419C138.025 15.5419 138.754 16.4483 138.793 17.4335ZM42.7537 49.4089V39.6847C43.3153 38.7389 44.202 37.468 45.9163 37.468C47.601 37.468 48.5468 38.5911 48.5468 40.3941V49.4089H52.3596V40.2463C52.3596 40.0394 52.3596 39.803 52.33 39.5961C52.9212 38.6207 53.8374 37.468 55.4335 37.468C57.1182 37.468 58.0936 38.5911 58.0936 40.3941V49.4089H61.8768V40.2463C61.8768 36.0493 59.4532 33.9212 56.3793 33.9212C54.0443 33.9212 52.5961 35.1626 51.5025 36.5222C50.5271 34.8079 48.8128 33.9212 46.8621 33.9212C45.0296 33.9212 43.7586 34.6601 42.7537 35.6355V34.5123H39V49.4089H42.7537ZM73.2562 50C78.1034 50 81.4138 46.4236 81.4138 41.9606C81.4138 37.4975 78.1034 33.9212 73.2562 33.9212C68.4089 33.9212 65.0985 37.4975 65.0985 41.9606C65.0985 46.4236 68.4089 50 73.2562 50ZM73.3153 46.4532C70.8325 46.4532 69 44.5616 69 41.9606C69 39.3596 70.8325 37.468 73.3153 37.468C75.7094 37.468 77.5123 39.3596 77.5123 41.9606C77.5123 44.532 75.7094 46.4532 73.3153 46.4532ZM88.5961 49.4089V39.6847C89.1576 38.7389 90.1626 37.468 92.0542 37.468C93.8867 37.468 94.9803 38.7094 94.9803 40.6897V49.4089H98.7931V40.5419C98.7931 36.1379 96.2217 33.9212 93 33.9212C91.0197 33.9212 89.6305 34.6897 88.5961 35.6946V34.5123H84.8424V49.4089H88.5961ZM115.286 50C117.03 50 118.773 49.202 119.719 48.0197V49.4089H123.502V39.7734C123.502 36.4926 121.286 33.9212 116.97 33.9212C114.281 33.9212 112.064 35.0443 110.734 36.8768L113.512 38.9754C114.192 37.8227 115.404 37.202 116.852 37.202C118.537 37.202 119.719 38.2069 119.719 39.7734V40.1576L115.227 40.9261C112.005 41.4581 110.261 43.202 110.261 45.4778C110.261 48.2857 112.3 50 115.286 50ZM116.054 46.9852C114.783 46.9852 113.985 46.2759 113.985 45.33C113.985 44.3842 114.606 43.734 116.202 43.468L119.719 42.8473V44.8867C118.951 46.0985 117.739 46.9852 116.054 46.9852ZM135.857 49.4089L141.296 34.5123H137.246L133.404 45.1527L129.532 34.5123H125.512L130.921 49.4089H135.857ZM145.552 31.9113C146.882 31.9113 147.975 30.7882 147.975 29.4581C147.975 28.1281 146.882 27.0049 145.552 27.0049C144.222 27.0049 143.099 28.1281 143.099 29.4581C143.099 30.7882 144.222 31.9113 145.552 31.9113ZM147.414 49.4089V34.5123H143.66V49.4089H147.414ZM156.369 50C159.177 50 161.69 48.2857 161.749 45.1527C161.749 39.8621 154.803 40.8966 154.803 38.3547C154.803 37.5271 155.394 36.9951 156.517 36.9951C157.7 36.9951 158.675 37.734 159.443 38.7094L161.956 36.4631C160.862 35.0148 158.793 33.9212 156.488 33.9212C153.414 33.9212 151.197 35.8719 151.197 38.5025C151.197 43.8818 158.143 42.7882 158.143 45.3892C158.143 46.2759 157.493 46.9261 156.31 46.9261C154.892 46.9261 153.798 46.0985 152.882 44.9458L150.399 47.2512C151.818 48.936 153.709 50 156.369 50Z" fill="white"/>
<path d="M188.358 77.8874L191.759 77.3126L191.253 73.6284H189.817V72.122H192.313L188.6 71.1515L187.108 76.9893L181.305 75.4726V78.9705H187.266V84.1849L189.34 83.8344L188.358 77.8874Z" fill="#000091"/>
<path d="M192.548 69.3596H194.038V66.0924H187.266V72.1219H181.304V75.4726L187.108 76.9894L188.6 71.1515L192.313 72.1219H192.548V69.3596Z" fill="#E1000F"/>
<path d="M194.038 76.3908H192.548V73.6285H191.253L191.759 77.3125L192.092 79.7338L194.038 79.4604V78.9704H200V72.1219H196.756V73.6285H194.038V76.3908Z" fill="#66CCFF"/>
<path d="M196.756 72.1219H194.031V69.3666H192.541V72.1219H189.817V73.6285H192.541V76.3839H194.031V73.6285H196.756V72.1219Z" fill="white"/>
<path d="M128.069 71.5409C128.505 72.1076 129.086 72.4434 129.677 72.4434C130.258 72.4434 130.611 72.1286 130.611 71.5935C130.611 70.2817 127.291 70.5754 127.291 68.1303C127.291 66.9654 128.235 66.0001 129.615 66.0001C130.704 66.0001 131.545 66.4932 132.157 67.2384L131.078 68.2143C130.653 67.6581 130.175 67.3013 129.625 67.3013C129.117 67.3013 128.785 67.637 128.785 68.0674C128.785 69.3791 132.105 69.0748 132.105 71.5619C132.084 72.9262 131.026 73.7657 129.698 73.7657C128.473 73.7657 127.643 73.3145 127 72.5379L128.069 71.5409Z" fill="black"/>
<path d="M133.755 66.2099H137.988V67.4797H135.228V69.1797H137.573V70.4496H135.228V72.286H137.988V73.5558H133.755V66.2099Z" fill="black"/>
<path d="M141.277 67.4797V69.3162H142.107C142.729 69.3162 143.093 68.9803 143.093 68.3822C143.093 67.826 142.729 67.4797 142.107 67.4797H141.277ZM139.803 66.2099H142.024C143.622 66.2099 144.608 67.039 144.608 68.4032C144.608 69.2846 144.182 69.9458 143.445 70.3027L145.728 73.5558H143.964L142.034 70.586H141.277V73.5558H139.803V66.2099Z" fill="black"/>
<path d="M147.118 66.2099L149.266 71.9502L151.414 66.2099H152.981L150.231 73.5558H148.301L145.551 66.2099H147.118Z" fill="black"/>
<path d="M154.204 66.2099H155.678V73.5558H154.204V66.2099Z" fill="black"/>
<path d="M162.951 71.3626L164.113 72.265C163.449 73.178 162.37 73.7657 161.052 73.7657C158.759 73.7657 157.193 71.9817 157.193 69.8828C157.193 67.784 158.759 66 161.052 66C162.37 66 163.449 66.5982 164.113 67.4902L162.951 68.4031C162.536 67.8051 161.883 67.3957 161.052 67.3957C159.683 67.3957 158.707 68.4767 158.707 69.8828C158.707 71.289 159.683 72.37 161.052 72.37C161.883 72.37 162.536 71.9607 162.951 71.3626Z" fill="black"/>
<path d="M165.493 66.2099H169.727V67.4797H166.966V69.1797H169.311V70.4496H166.966V72.286H169.727V73.5558H165.493V66.2099Z" fill="black"/>
<path d="M171.957 71.5409C172.393 72.1076 172.974 72.4434 173.565 72.4434C174.146 72.4434 174.499 72.1286 174.499 71.5935C174.499 70.2817 171.179 70.5754 171.179 68.1303C171.179 66.9654 172.123 66.0001 173.503 66.0001C174.592 66.0001 175.433 66.4932 176.045 67.2384L174.966 68.2143C174.54 67.6581 174.063 67.3013 173.513 67.3013C173.005 67.3013 172.673 67.637 172.673 68.0674C172.673 69.3791 175.993 69.0748 175.993 71.5619C175.972 72.9262 174.914 73.7657 173.586 73.7657C172.361 73.7657 171.531 73.3145 170.888 72.5379L171.957 71.5409Z" fill="black"/>
<path d="M129.127 78.623V80.4595H130.113C130.736 80.4595 131.109 80.1236 131.109 79.5255C131.109 78.9693 130.736 78.623 130.113 78.623H129.127ZM127.654 77.3532H130.051C131.649 77.3532 132.624 78.1823 132.624 79.5465C132.624 80.9002 131.649 81.7293 130.051 81.7293H129.127V84.6992H127.654V77.3532Z" fill="black"/>
<path d="M138.227 77.3533H139.7V81.8237C139.7 83.7547 138.579 84.9091 136.753 84.9091C134.937 84.9091 133.817 83.7547 133.817 81.8237V77.3533H135.29V81.9498C135.29 82.9362 135.84 83.5134 136.763 83.5134C137.666 83.5134 138.227 82.9362 138.227 81.9498V77.3533Z" fill="black"/>
<path d="M143.103 81.5089V83.4294H143.933C144.618 83.4294 145.033 83.062 145.033 82.4535C145.033 81.8448 144.618 81.5089 143.933 81.5089H143.103ZM143.103 78.623V80.2285H143.725C144.286 80.2285 144.607 79.9453 144.607 79.4205C144.607 78.9274 144.286 78.623 143.725 78.623H143.103ZM141.629 77.3533H143.694C145.209 77.3533 146.122 78.1088 146.122 79.3471C146.122 79.9348 145.852 80.4491 145.354 80.7953C146.122 81.1416 146.548 81.7712 146.548 82.5373C146.548 83.8806 145.52 84.6992 143.85 84.6992H141.629V77.3533Z" fill="black"/>
<path d="M148.156 77.3533H149.629V83.3455H152.389V84.6992H148.156V77.3533Z" fill="black"/>
<path d="M153.789 77.3532H155.263V84.6992H153.789V77.3532Z" fill="black"/>
<path d="M162.536 82.506L163.698 83.4084C163.034 84.3214 161.955 84.9091 160.637 84.9091C158.344 84.9091 156.777 83.1251 156.777 81.0262C156.777 78.9273 158.344 77.1433 160.637 77.1433C161.955 77.1433 163.034 77.7415 163.698 78.6336L162.536 79.5465C162.121 78.9484 161.468 78.5391 160.637 78.5391C159.268 78.5391 158.292 79.6201 158.292 81.0262C158.292 82.4324 159.268 83.5134 160.637 83.5134C161.468 83.5134 162.121 83.104 162.536 82.506Z" fill="black"/>
<path d="M165.524 82.6843C165.96 83.251 166.541 83.5867 167.132 83.5867C167.713 83.5867 168.066 83.2719 168.066 82.7368C168.066 81.4251 164.746 81.7188 164.746 79.2737C164.746 78.1087 165.69 77.1435 167.07 77.1435C168.16 77.1435 169 77.6365 169.612 78.3818L168.533 79.3577C168.108 78.8015 167.63 78.4446 167.08 78.4446C166.572 78.4446 166.24 78.7804 166.24 79.2107C166.24 80.5225 169.56 80.2182 169.56 82.7053C169.54 84.0696 168.481 84.9091 167.153 84.9091C165.928 84.9091 165.098 84.4578 164.455 83.6813L165.524 82.6843Z" fill="black"/>
<path d="M174.247 80.6198V82.512H172.891V80.6198H171.021V79.2491H172.891V77.357H174.247V79.2491H176.108V80.6198H174.247Z" fill="black"/>
<path d="M170 1H30C13.9837 1 1 13.9837 1 30C1 46.0163 13.9837 59 30 59H170C186.016 59 199 46.0163 199 30C199 13.9837 186.016 1 170 1Z" fill="white" stroke="#000091" stroke-width="2"/>
<path d="M42.7537 49.4089V39.6847C43.3153 38.7389 44.202 37.468 45.9163 37.468C47.601 37.468 48.5468 38.5912 48.5468 40.3941V49.4089H52.3596V40.2463C52.3596 40.0394 52.3596 39.803 52.33 39.5961C52.9212 38.6207 53.8374 37.468 55.4335 37.468C57.1182 37.468 58.0936 38.5912 58.0936 40.3941V49.4089H61.8768V40.2463C61.8768 36.0493 59.4532 33.9212 56.3793 33.9212C54.0443 33.9212 52.5961 35.1626 51.5025 36.5222C50.5271 34.8079 48.8128 33.9212 46.8621 33.9212C45.0296 33.9212 43.7586 34.6601 42.7537 35.6355V34.5123H39V49.4089H42.7537ZM73.2562 50C78.1034 50 81.4138 46.4237 81.4138 41.9606C81.4138 37.4976 78.1034 33.9212 73.2562 33.9212C68.4089 33.9212 65.0985 37.4976 65.0985 41.9606C65.0985 46.4237 68.4089 50 73.2562 50ZM73.3153 46.4532C70.8325 46.4532 69 44.5616 69 41.9606C69 39.3596 70.8325 37.468 73.3153 37.468C75.7094 37.468 77.5123 39.3596 77.5123 41.9606C77.5123 44.532 75.7094 46.4532 73.3153 46.4532ZM88.5961 49.4089V39.6847C89.1576 38.7389 90.1626 37.468 92.0542 37.468C93.8867 37.468 94.9803 38.7094 94.9803 40.6897V49.4089H98.7931V40.5419C98.7931 36.1379 96.2217 33.9212 93 33.9212C91.0197 33.9212 89.6305 34.6897 88.5961 35.6946V34.5123H84.8424V49.4089H88.5961ZM115.286 50C117.03 50 118.773 49.202 119.719 48.0197V49.4089H123.502V39.7734C123.502 36.4926 121.286 33.9212 116.97 33.9212C114.281 33.9212 112.064 35.0444 110.734 36.8769L113.512 38.9754C114.192 37.8227 115.404 37.202 116.852 37.202C118.537 37.202 119.719 38.2069 119.719 39.7734V40.1577L115.227 40.9261C112.005 41.4581 110.261 43.202 110.261 45.4778C110.261 48.2857 112.3 50 115.286 50ZM116.054 46.9852C114.783 46.9852 113.985 46.2759 113.985 45.3301C113.985 44.3843 114.606 43.734 116.202 43.468L119.719 42.8473V44.8867C118.951 46.0985 117.739 46.9852 116.054 46.9852ZM135.857 49.4089L141.296 34.5123H137.246L133.404 45.1527L129.532 34.5123H125.512L130.921 49.4089H135.857ZM145.552 31.9113C146.882 31.9113 147.975 30.7882 147.975 29.4581C147.975 28.1281 146.882 27.0049 145.552 27.0049C144.222 27.0049 143.099 28.1281 143.099 29.4581C143.099 30.7882 144.222 31.9113 145.552 31.9113ZM147.414 49.4089V34.5123H143.66V49.4089H147.414ZM156.369 50C159.177 50 161.69 48.2857 161.749 45.1527C161.749 39.8621 154.803 40.8966 154.803 38.3547C154.803 37.5271 155.394 36.9951 156.517 36.9951C157.7 36.9951 158.675 37.734 159.443 38.7094L161.956 36.4631C160.862 35.0148 158.793 33.9212 156.488 33.9212C153.414 33.9212 151.197 35.8719 151.197 38.5025C151.197 43.8818 158.143 42.7882 158.143 45.3892C158.143 46.2759 157.493 46.9261 156.31 46.9261C154.892 46.9261 153.798 46.0985 152.882 44.9458L150.399 47.2512C151.818 48.936 153.709 50 156.369 50Z" fill="#000091"/>
<path d="M58.2414 28.2069C61.1182 28.2069 62.537 26.6897 62.537 23.6355V10.9852H59.7389V23.7734C59.7389 25.1921 59.0887 25.7241 57.8473 25.7241C57.5714 25.7241 57.335 25.7044 57.1379 25.665V28.1281C57.4138 28.2069 57.7882 28.2069 58.2414 28.2069ZM70.734 25.1724C72.6059 25.1724 74.1429 24.4039 75.069 23.1626L73.2759 21.7438C72.7439 22.4532 71.8572 22.9261 70.7734 22.9261C69.0788 22.9261 67.936 21.9606 67.7783 20.3251H74.734C74.8128 19.9901 74.8916 19.4581 74.8916 18.9064C74.8916 16.3054 73.0788 14.4532 70.3202 14.4532C67.069 14.4532 65.2168 16.8768 65.2168 19.8128C65.2168 22.7094 67.2069 25.1724 70.734 25.1724ZM72.4089 18.4335H67.936C68.2709 17.133 69.0985 16.5419 70.3202 16.5419C71.6404 16.5419 72.3695 17.4483 72.4089 18.4335ZM86.9902 25.1724C88.2709 25.1724 89.2759 24.7783 90.064 24.0887V24.7783H92.5862V10H90.064V15.5369C89.2759 14.8473 88.2709 14.4532 86.9902 14.4532C83.8571 14.4532 81.9458 16.9163 81.9458 19.8128C81.9458 22.7094 83.8571 25.1724 86.9902 25.1724ZM87.3448 22.8079C85.6503 22.8079 84.5665 21.5468 84.5665 19.8128C84.5665 18.0788 85.6503 16.8177 87.3448 16.8177C88.4877 16.8177 89.3941 17.3103 90.064 18.2956V21.33C89.4138 22.2956 88.5074 22.8079 87.3448 22.8079ZM100.31 25.1724C103.542 25.1724 105.749 22.7882 105.749 19.8128C105.749 16.8374 103.542 14.4532 100.31 14.4532C97.0788 14.4532 94.8719 16.8374 94.8719 19.8128C94.8719 22.7882 97.0788 25.1724 100.31 25.1724ZM100.35 22.8079C98.6946 22.8079 97.4729 21.5468 97.4729 19.8128C97.4729 18.0788 98.6946 16.8177 100.35 16.8177C101.946 16.8177 103.148 18.0788 103.148 19.8128C103.148 21.5271 101.946 22.8079 100.35 22.8079ZM110.537 24.7783V18.2956C110.911 17.665 111.581 16.8177 112.842 16.8177C114.064 16.8177 114.793 17.6453 114.793 18.9655V24.7783H117.335V18.867C117.335 15.931 115.621 14.4532 113.473 14.4532C112.153 14.4532 111.227 14.9655 110.537 15.6355V14.8473H108.034V24.7783H110.537ZM122.675 24.7783V18.2956C123.049 17.665 123.719 16.8177 124.98 16.8177C126.202 16.8177 126.931 17.6453 126.931 18.9655V24.7783H129.473V18.867C129.473 15.931 127.759 14.4532 125.611 14.4532C124.291 14.4532 123.365 14.9655 122.675 15.6355V14.8473H120.172V24.7783H122.675ZM137.118 25.1724C138.99 25.1724 140.527 24.4039 141.453 23.1626L139.66 21.7438C139.128 22.4532 138.241 22.9261 137.158 22.9261C135.463 22.9261 134.32 21.9606 134.163 20.3251H141.118C141.197 19.9901 141.276 19.4581 141.276 18.9064C141.276 16.3054 139.463 14.4532 136.704 14.4532C133.453 14.4532 131.601 16.8768 131.601 19.8128C131.601 22.7094 133.591 25.1724 137.118 25.1724ZM138.793 18.4335H134.32C134.655 17.133 135.483 16.5419 136.704 16.5419C138.025 16.5419 138.754 17.4483 138.793 18.4335Z" fill="#000091"/>
<path d="M188.358 77.8874L191.759 77.3126L191.253 73.6284H189.817V72.122H192.313L188.6 71.1515L187.108 76.9893L181.305 75.4726V78.9705H187.266V84.1849L189.34 83.8344L188.358 77.8874Z" fill="#000091"/>
<path d="M192.548 69.3596H194.038V66.0924H187.266V72.1219H181.304V75.4726L187.108 76.9894L188.6 71.1515L192.313 72.1219H192.548V69.3596Z" fill="#E1000F"/>
<path d="M194.038 76.3908H192.548V73.6285H191.253L191.759 77.3125L192.092 79.7338L194.038 79.4604V78.9704H200V72.1219H196.756V73.6285H194.038V76.3908Z" fill="#66CCFF"/>
<path d="M196.756 72.1219H194.031V69.3666H192.541V72.1219H189.817V73.6285H192.541V76.3839H194.031V73.6285H196.756V72.1219Z" fill="white"/>
<path d="M128.069 71.5409C128.505 72.1076 129.086 72.4434 129.677 72.4434C130.258 72.4434 130.611 72.1286 130.611 71.5935C130.611 70.2817 127.291 70.5754 127.291 68.1303C127.291 66.9654 128.235 66.0001 129.615 66.0001C130.704 66.0001 131.545 66.4932 132.157 67.2384L131.078 68.2143C130.653 67.6581 130.175 67.3013 129.625 67.3013C129.117 67.3013 128.785 67.637 128.785 68.0674C128.785 69.3791 132.105 69.0748 132.105 71.5619C132.084 72.9262 131.026 73.7657 129.698 73.7657C128.473 73.7657 127.643 73.3145 127 72.5379L128.069 71.5409Z" fill="white"/>
<path d="M133.755 66.2099H137.988V67.4797H135.228V69.1797H137.573V70.4496H135.228V72.286H137.988V73.5558H133.755V66.2099Z" fill="white"/>
<path d="M141.277 67.4797V69.3162H142.107C142.729 69.3162 143.093 68.9803 143.093 68.3822C143.093 67.826 142.729 67.4797 142.107 67.4797H141.277ZM139.803 66.2099H142.024C143.622 66.2099 144.608 67.039 144.608 68.4032C144.608 69.2846 144.182 69.9458 143.445 70.3027L145.728 73.5558H143.964L142.034 70.586H141.277V73.5558H139.803V66.2099Z" fill="white"/>
<path d="M147.118 66.2099L149.266 71.9502L151.414 66.2099H152.981L150.231 73.5558H148.301L145.551 66.2099H147.118Z" fill="white"/>
<path d="M154.204 66.2099H155.678V73.5558H154.204V66.2099Z" fill="white"/>
<path d="M162.951 71.3626L164.113 72.265C163.449 73.178 162.37 73.7657 161.052 73.7657C158.759 73.7657 157.193 71.9817 157.193 69.8828C157.193 67.784 158.759 66 161.052 66C162.37 66 163.449 66.5982 164.113 67.4902L162.951 68.4031C162.536 67.8051 161.883 67.3957 161.052 67.3957C159.683 67.3957 158.707 68.4767 158.707 69.8828C158.707 71.289 159.683 72.37 161.052 72.37C161.883 72.37 162.536 71.9607 162.951 71.3626Z" fill="white"/>
<path d="M165.493 66.2099H169.727V67.4797H166.966V69.1797H169.311V70.4496H166.966V72.286H169.727V73.5558H165.493V66.2099Z" fill="white"/>
<path d="M171.957 71.5409C172.393 72.1076 172.974 72.4434 173.565 72.4434C174.146 72.4434 174.499 72.1286 174.499 71.5935C174.499 70.2817 171.179 70.5754 171.179 68.1303C171.179 66.9654 172.123 66.0001 173.503 66.0001C174.592 66.0001 175.433 66.4932 176.045 67.2384L174.966 68.2143C174.54 67.6581 174.063 67.3013 173.513 67.3013C173.005 67.3013 172.673 67.637 172.673 68.0674C172.673 69.3791 175.993 69.0748 175.993 71.5619C175.972 72.9262 174.914 73.7657 173.586 73.7657C172.361 73.7657 171.531 73.3145 170.888 72.5379L171.957 71.5409Z" fill="white"/>
<path d="M129.127 78.623V80.4595H130.113C130.736 80.4595 131.109 80.1236 131.109 79.5255C131.109 78.9693 130.736 78.623 130.113 78.623H129.127ZM127.654 77.3532H130.051C131.649 77.3532 132.624 78.1823 132.624 79.5465C132.624 80.9002 131.649 81.7293 130.051 81.7293H129.127V84.6992H127.654V77.3532Z" fill="white"/>
<path d="M138.227 77.3533H139.7V81.8237C139.7 83.7547 138.579 84.9091 136.753 84.9091C134.937 84.9091 133.817 83.7547 133.817 81.8237V77.3533H135.29V81.9498C135.29 82.9362 135.84 83.5134 136.763 83.5134C137.666 83.5134 138.227 82.9362 138.227 81.9498V77.3533Z" fill="white"/>
<path d="M143.103 81.5089V83.4294H143.933C144.618 83.4294 145.033 83.062 145.033 82.4535C145.033 81.8448 144.618 81.5089 143.933 81.5089H143.103ZM143.103 78.623V80.2285H143.725C144.286 80.2285 144.607 79.9453 144.607 79.4205C144.607 78.9274 144.286 78.623 143.725 78.623H143.103ZM141.629 77.3533H143.694C145.209 77.3533 146.122 78.1088 146.122 79.3471C146.122 79.9348 145.852 80.4491 145.354 80.7953C146.122 81.1416 146.548 81.7712 146.548 82.5373C146.548 83.8806 145.52 84.6992 143.85 84.6992H141.629V77.3533Z" fill="white"/>
<path d="M148.156 77.3533H149.629V83.3455H152.389V84.6992H148.156V77.3533Z" fill="white"/>
<path d="M153.789 77.3532H155.263V84.6992H153.789V77.3532Z" fill="white"/>
<path d="M162.536 82.506L163.698 83.4084C163.034 84.3214 161.955 84.9091 160.637 84.9091C158.344 84.9091 156.777 83.1251 156.777 81.0262C156.777 78.9273 158.344 77.1433 160.637 77.1433C161.955 77.1433 163.034 77.7415 163.698 78.6336L162.536 79.5465C162.121 78.9484 161.468 78.5391 160.637 78.5391C159.268 78.5391 158.292 79.6201 158.292 81.0262C158.292 82.4324 159.268 83.5134 160.637 83.5134C161.468 83.5134 162.121 83.104 162.536 82.506Z" fill="white"/>
<path d="M165.524 82.6843C165.96 83.251 166.541 83.5867 167.132 83.5867C167.713 83.5867 168.066 83.2719 168.066 82.7368C168.066 81.4251 164.746 81.7188 164.746 79.2737C164.746 78.1087 165.69 77.1435 167.07 77.1435C168.16 77.1435 169 77.6365 169.612 78.3818L168.533 79.3577C168.108 78.8015 167.63 78.4446 167.08 78.4446C166.572 78.4446 166.24 78.7804 166.24 79.2107C166.24 80.5225 169.56 80.2182 169.56 82.7053C169.54 84.0696 168.481 84.9091 167.153 84.9091C165.928 84.9091 165.098 84.4578 164.455 83.6813L165.524 82.6843Z" fill="white"/>
<path d="M174.247 80.6198V82.512H172.891V80.6198H171.021V79.2491H172.891V77.357H174.247V79.2491H176.108V80.6198H174.247Z" fill="white"/>
</g>
<defs>
<clipPath id="clip0_107_509">
<rect width="200" height="85" fill="white"/>
</clipPath>
</defs>
</svg>
