<?xml version="1.0" standalone="no"?>
<!DOCTYPE svg PUBLIC "-//W3C//DTD SVG 20010904//EN"
 "http://www.w3.org/TR/2001/REC-SVG-20010904/DTD/svg10.dtd">
<svg version="1.0" xmlns="http://www.w3.org/2000/svg"
 width="1216.000000pt" height="1216.000000pt" viewBox="0 0 1216.000000 1216.000000"
 preserveAspectRatio="xMidYMid meet">
<metadata>
Created by potrace 1.11, written by Peter Selinger 2001-2013
</metadata>
<g transform="translate(0.000000,1216.000000) scale(0.100000,-0.100000)"
fill="#000000" stroke="none">
<path d="M5810 12147 c-30 -24 -48 -59 -44 -86 3 -14 18 -78 34 -141 43 -169
141 -563 145 -580 2 -8 22 -89 45 -180 43 -172 48 -189 56 -229 3 -14 7 -28 9
-32 3 -4 7 -22 10 -41 5 -31 -8 -59 -115 -244 -66 -115 -124 -216 -129 -224
-31 -49 -101 -175 -101 -182 0 -4 -4 -8 -10 -8 -5 0 -10 -6 -10 -14 0 -8 -7
-22 -16 -30 -8 -9 -13 -16 -10 -16 3 0 -9 -24 -27 -52 -18 -29 -38 -64 -45
-78 -7 -14 -25 -46 -41 -72 -16 -25 -42 -68 -57 -95 -59 -104 -125 -219 -134
-233 -31 -48 -110 -193 -110 -201 0 -5 -3 -9 -8 -9 -7 0 -10 -5 -46 -77 -11
-21 -31 -56 -45 -78 -14 -22 -36 -60 -50 -85 -13 -25 -29 -48 -35 -52 -6 -4
-7 -8 -3 -8 5 0 0 -12 -11 -27 -10 -16 -31 -48 -44 -73 -14 -25 -38 -67 -54
-95 -15 -27 -33 -53 -38 -57 -6 -4 -7 -8 -3 -8 4 0 -4 -17 -18 -37 -14 -21
-25 -43 -25 -50 0 -7 -4 -13 -9 -13 -5 0 -11 -8 -14 -17 -4 -10 -20 -40 -37
-68 -17 -27 -33 -58 -37 -67 -3 -10 -8 -18 -12 -18 -4 0 -13 -16 -21 -35 -8
-19 -17 -35 -21 -35 -4 0 -9 -6 -11 -13 -2 -10 -143 -259 -178 -317 -5 -8 -24
-40 -41 -70 -102 -177 -108 -199 -63 -244 15 -14 29 -26 33 -27 51 -4 3376 1
3399 6 18 3 30 11 26 16 -3 5 -1 9 4 9 12 0 30 49 27 71 -2 13 -90 171 -152
274 -7 11 -15 27 -19 35 -4 8 -25 43 -46 78 -21 34 -38 66 -38 71 0 5 -3 11
-7 13 -5 2 -17 21 -28 43 -11 22 -22 42 -25 45 -5 5 -115 195 -133 230 -4 8
-18 33 -32 55 -14 22 -28 47 -32 55 -4 8 -9 17 -13 20 -3 3 -14 21 -23 40 -10
19 -26 49 -37 65 -10 17 -25 41 -33 55 -57 102 -71 126 -77 135 -4 6 -19 30
-32 55 -45 80 -140 244 -156 270 -9 14 -17 27 -17 30 0 5 -26 48 -132 228 -24
41 -43 78 -43 83 0 5 -4 9 -10 9 -5 0 -10 5 -10 11 0 6 -20 43 -43 82 -24 40
-55 92 -69 117 -14 25 -58 101 -98 170 -40 69 -80 139 -90 155 -9 17 -32 56
-51 88 -19 33 -43 75 -55 95 -11 21 -47 82 -79 137 -32 55 -64 111 -71 125
-10 20 -55 182 -69 250 -2 8 -4 15 -5 15 -1 0 -3 9 -5 21 -3 11 -12 47 -20 80
-9 32 -19 73 -22 89 -3 17 -9 38 -14 48 -5 9 -7 17 -3 17 3 0 1 7 -6 15 -15
18 -27 16 207 19 89 0 172 -2 185 -6 13 -3 20 -6 16 -7 -4 -1 -2 -16 3 -33 6
-18 12 -42 14 -53 2 -11 8 -33 12 -50 l9 -30 629 -1 628 -2 -180 182 -180 181
47 90 c26 50 46 93 44 97 -2 3 0 8 4 10 7 3 82 143 82 154 0 2 -186 4 -414 4
l-413 0 -28 78 c-15 42 -32 83 -38 90 -7 9 -101 12 -407 12 l-398 0 -16 34
c-9 19 -24 37 -33 42 -32 13 -78 14 -93 1z"/>
<path d="M4305 7336 c-59 -27 -57 9 -56 -822 0 -560 -3 -771 -11 -790 -26 -55
-3 -54 -833 -54 -847 0 -802 4 -825 -64 -7 -23 -10 -271 -9 -787 2 -812 0
-782 53 -812 32 -18 3210 -19 3247 -1 58 29 54 -92 55 1658 1 1757 4 1649 -54
1675 -15 8 -271 11 -780 11 -611 -1 -763 -3 -787 -14z"/>
<path d="M7756 7342 c-2 -2 -18 -5 -35 -7 -68 -9 -117 -16 -131 -20 -8 -2 -31
-7 -50 -10 -62 -10 -242 -76 -345 -125 -207 -100 -390 -240 -550 -424 -27 -31
-54 -66 -59 -76 -5 -11 -13 -20 -18 -20 -4 0 -8 -6 -8 -14 0 -8 -4 -16 -9 -18
-25 -9 -167 -273 -192 -358 -7 -22 -17 -40 -22 -40 -6 0 -8 -3 -4 -6 3 -3 -3
-30 -13 -60 -11 -30 -17 -54 -15 -54 3 0 0 -11 -5 -26 -6 -14 -12 -39 -15 -57
-3 -18 -8 -39 -10 -47 -4 -15 -13 -73 -21 -135 -11 -97 -5 -332 12 -430 3 -16
7 -41 9 -55 13 -79 71 -278 86 -294 5 -6 9 -15 9 -22 0 -12 70 -162 93 -199
59 -95 121 -186 142 -209 14 -15 25 -30 25 -34 0 -13 213 -217 277 -265 237
-180 519 -295 820 -334 66 -8 338 -8 393 1 25 4 61 9 81 11 76 8 265 63 367
106 23 10 46 19 50 20 7 2 71 36 156 84 150 84 344 252 461 399 157 197 287
476 331 706 2 14 7 36 10 49 19 84 26 382 12 491 -14 102 -19 135 -25 150 -3
8 -7 28 -10 43 -5 35 -59 200 -77 242 -139 311 -292 508 -552 713 -23 17 -46
32 -52 32 -6 0 -12 4 -14 8 -3 7 -75 53 -144 92 -17 10 -64 32 -105 50 -41 17
-83 35 -94 40 -23 11 -139 48 -175 56 -96 22 -147 31 -220 40 -51 7 -359 12
-364 6z"/>
<path d="M2620 3508 c-10 -4 -26 -18 -35 -31 -14 -22 -16 -183 -14 -1713 1
-996 5 -1699 11 -1715 5 -14 20 -31 34 -38 18 -8 253 -11 843 -11 l818 0 27
25 c15 14 26 35 27 52 2 75 12 166 24 223 3 14 8 39 11 55 24 135 83 300 158
445 21 41 44 85 50 97 6 13 14 23 19 23 4 0 7 7 7 15 0 8 5 15 10 15 6 0 10 5
10 10 0 6 5 16 10 23 6 7 34 44 62 82 57 78 216 241 293 301 28 21 52 42 53
47 2 4 10 7 18 7 8 0 14 4 14 8 0 5 19 19 41 33 23 13 58 34 78 46 42 26 170
94 174 92 1 -1 22 8 47 19 97 43 250 88 365 107 17 3 40 8 51 10 31 7 199 18
264 18 59 0 206 -11 255 -19 17 -3 44 -7 60 -9 31 -5 159 -37 185 -47 8 -4 29
-9 45 -13 17 -4 44 -13 60 -20 17 -8 57 -25 91 -39 99 -41 311 -164 354 -206
9 -8 31 -26 50 -40 19 -14 56 -46 82 -71 27 -26 48 -44 48 -42 0 3 12 -10 28
-28 15 -18 40 -46 56 -63 125 -128 285 -409 346 -606 13 -41 25 -82 28 -90 8
-23 10 -33 16 -60 3 -14 9 -38 13 -55 3 -16 7 -37 8 -45 1 -8 5 -33 9 -55 3
-22 8 -69 10 -105 6 -79 18 -115 45 -130 14 -7 277 -10 845 -10 l826 0 20 22
c11 12 21 27 21 32 4 31 5 3394 1 3409 -3 10 -16 26 -30 35 -23 15 -279 16
-3474 17 -1897 0 -3457 -3 -3468 -7z"/>
</g>
</svg>
