<?xml version="1.0" encoding="UTF-8" standalone="no"?>
<!-- Created with Inkscape (http://www.inkscape.org/) -->

<svg
   xmlns:dc="http://purl.org/dc/elements/1.1/"
   xmlns:cc="http://creativecommons.org/ns#"
   xmlns:rdf="http://www.w3.org/1999/02/22-rdf-syntax-ns#"
   xmlns:svg="http://www.w3.org/2000/svg"
   xmlns="http://www.w3.org/2000/svg"
   xmlns:sodipodi="http://sodipodi.sourceforge.net/DTD/sodipodi-0.dtd"
   xmlns:inkscape="http://www.inkscape.org/namespaces/inkscape"
   width="148.59375"
   height="49.4925"
   id="svg2"
   version="1.1"
   inkscape:version="0.48.4 r9939"
   sodipodi:docname="URSSAF Logo.svg">
  <defs
     id="defs4">
    <clipPath
       id="clipPath3069"
       clipPathUnits="userSpaceOnUse">
      <path
         id="path3071"
         d="m 0,595.02 420,0 0,-594.96 -420,0 0,594.96 z"
         inkscape:connector-curvature="0" />
    </clipPath>
    <clipPath
       id="clipPath3063"
       clipPathUnits="userSpaceOnUse">
      <path
         id="path3065"
         d="m 3.1e-5,595.276 420.944999,0 0,-595.276 L 3.1e-5,0 l 0,595.276 z"
         inkscape:connector-curvature="0" />
    </clipPath>
    <clipPath
       id="clipPath3047"
       clipPathUnits="userSpaceOnUse">
      <path
         id="path3049"
         d="m 138.718,575.398 -118.875,0 0,-39.594 118.875,0 0,39.594 z"
         inkscape:connector-curvature="0" />
    </clipPath>
    <clipPath
       id="clipPath3011"
       clipPathUnits="userSpaceOnUse">
      <path
         id="path3013"
         d="m 0,595.02 420,0 0,-594.96 -420,0 0,594.96 z"
         inkscape:connector-curvature="0" />
    </clipPath>
    <clipPath
       id="clipPath3005"
       clipPathUnits="userSpaceOnUse">
      <path
         id="path3007"
         d="m 3.1e-5,595.276 420.944999,0 0,-595.276 L 3.1e-5,0 l 0,595.276 z"
         inkscape:connector-curvature="0" />
    </clipPath>
    <clipPath
       id="clipPath2999"
       clipPathUnits="userSpaceOnUse">
      <path
         id="path3001"
         clip-rule="evenodd"
         d="m 19.843,79.371 0,428.579 379.842,0 0,-324.71 c 0,-55.06 -50.358,-103.869 -104.139,-103.869 l -275.703,0"
         inkscape:connector-curvature="0" />
    </clipPath>
  </defs>
  <sodipodi:namedview
     id="base"
     pagecolor="#ffffff"
     bordercolor="#666666"
     borderopacity="1.0"
     inkscape:pageopacity="0.0"
     inkscape:pageshadow="2"
     inkscape:zoom="5.6568543"
     inkscape:cx="70.87545"
     inkscape:cy="22.649501"
     inkscape:document-units="px"
     inkscape:current-layer="layer1"
     showgrid="false"
     inkscape:window-width="1920"
     inkscape:window-height="1017"
     inkscape:window-x="-8"
     inkscape:window-y="-8"
     inkscape:window-maximized="1"
     fit-margin-top="0"
     fit-margin-left="0"
     fit-margin-right="0"
     fit-margin-bottom="0" />
  <metadata
     id="metadata7">
    <rdf:RDF>
      <cc:Work
         rdf:about="">
        <dc:format>image/svg+xml</dc:format>
        <dc:type
           rdf:resource="http://purl.org/dc/dcmitype/StillImage" />
        <dc:title />
      </cc:Work>
    </rdf:RDF>
  </metadata>
  <g
     inkscape:label="Calque 1"
     inkscape:groupmode="layer"
     id="layer1"
     transform="translate(-107.30373,-181.59718)">
    <g
       id="g3392">
      <g
         transform="matrix(1.25,0,0,-1.25,137.90873,214.94968)"
         id="g3019">
        <path
           id="path3021"
           style="fill:#0061aa;fill-opacity:1;fill-rule:nonzero;stroke:none"
           d="m 0,0 c -2.925,0 -4.447,1.895 -4.447,5.158 l 0,6.865 1.775,0 0,-6.815 c 0,-2.232 0.93,-3.432 2.706,-3.432 1.86,0 2.739,1.15 2.739,3.314 l 0,6.933 1.776,0 0,-6.899 C 4.549,1.81 2.942,0 0,0"
           inkscape:connector-curvature="0" />
      </g>
      <g
         transform="matrix(1.25,0,0,-1.25,157.45998,202.01343)"
         id="g3023">
        <path
           id="path3025"
           style="fill:#0061aa;fill-opacity:1;fill-rule:nonzero;stroke:none"
           d="m 0,0 -3.45,0 0,-3.804 3.45,0 c 1.184,0 2.012,0.608 2.012,1.893 C 2.012,-0.676 1.201,0 0,0 z m 1.201,-5.326 2.417,-4.837 -2.045,0 -2.351,4.685 -2.672,0 0,-4.685 -1.741,0 0,11.837 5.191,0 c 2.063,0 3.805,-1.099 3.805,-3.534 0,-1.894 -0.998,-3.061 -2.604,-3.466"
           inkscape:connector-curvature="0" />
      </g>
      <g
         transform="matrix(1.25,0,0,-1.25,173.71248,214.94968)"
         id="g3027">
        <path
           id="path3029"
           style="fill:#0061aa;fill-opacity:1;fill-rule:nonzero;stroke:none"
           d="m 0,0 c -1.725,0 -3.213,0.744 -4.21,1.91 l 1.268,1.235 c 0.794,-0.862 1.961,-1.403 3.077,-1.403 1.658,0 2.452,0.574 2.452,1.724 0,0.913 -0.693,1.37 -2.672,1.962 -2.502,0.744 -3.703,1.37 -3.703,3.484 0,2.046 1.725,3.297 3.906,3.297 1.607,0 2.825,-0.592 3.873,-1.607 L 2.74,9.334 c -0.744,0.761 -1.59,1.133 -2.757,1.133 -1.386,0 -1.978,-0.676 -1.978,-1.471 0,-0.828 0.541,-1.234 2.587,-1.843 C 2.926,6.442 4.38,5.699 4.38,3.585 4.38,1.455 3.027,0 0,0"
           inkscape:connector-curvature="0" />
      </g>
      <g
         transform="matrix(1.25,0,0,-1.25,190.57873,214.94968)"
         id="g3031">
        <path
           id="path3033"
           style="fill:#0061aa;fill-opacity:1;fill-rule:nonzero;stroke:none"
           d="m 0,0 c -1.724,0 -3.213,0.744 -4.21,1.91 l 1.269,1.235 c 0.794,-0.862 1.961,-1.403 3.077,-1.403 1.657,0 2.452,0.574 2.452,1.724 0,0.913 -0.693,1.37 -2.672,1.962 -2.503,0.744 -3.703,1.37 -3.703,3.484 0,2.046 1.724,3.297 3.906,3.297 1.606,0 2.824,-0.592 3.872,-1.607 L 2.74,9.334 c -0.744,0.761 -1.59,1.133 -2.757,1.133 -1.386,0 -1.978,-0.676 -1.978,-1.471 0,-0.828 0.541,-1.234 2.587,-1.843 C 2.926,6.442 4.38,5.699 4.38,3.585 4.38,1.455 3.028,0 0,0"
           inkscape:connector-curvature="0" />
      </g>
      <g
         transform="matrix(1.25,0,0,-1.25,209.66498,205.81843)"
         id="g3035">
        <path
           id="path3037"
           style="fill:#0061aa;fill-opacity:1;fill-rule:nonzero;stroke:none"
           d="m 0,0 c -0.287,0.846 -0.761,2.215 -0.896,2.723 -0.135,-0.508 -0.558,-1.86 -0.862,-2.74 l -0.948,-2.706 3.654,0 L 0,0 z m 2.487,-7.119 -0.999,2.807 -4.734,0 -0.981,-2.807 -1.843,0 4.26,11.837 1.878,0 4.312,-11.837 -1.893,0"
           inkscape:connector-curvature="0" />
      </g>
      <g
         transform="matrix(1.25,0,0,-1.25,223.90998,202.09843)"
         id="g3039">
        <path
           id="path3041"
           style="fill:#0061aa;fill-opacity:1;fill-rule:nonzero;stroke:none"
           d="m 0,0 0,-3.094 3.399,0 0,-1.742 -3.399,0 0,-5.259 -1.776,0 0,11.837 7.627,0 L 5.851,0 0,0"
           inkscape:connector-curvature="0" />
      </g>
      <g
         transform="matrix(1.25,0,0,-1.25,82.49998,900.84468)"
         id="g3043">
        <g
           clip-path="url(#clipPath3047)"
           id="g3045">
          <g
             transform="translate(19.843,553.957)"
             id="g3051">
            <path
               id="path3053"
               style="fill:#0061aa;fill-opacity:1;fill-rule:nonzero;stroke:none"
               d="m 0,0 6.072,0 c 0,0 1.287,-6.764 6.046,-11.635 4.761,-4.873 8.57,-6.519 8.57,-6.519 0,0 -7.022,-0.031 -14.396,6.64 C 0.767,-6.51 0,0 0,0"
               inkscape:connector-curvature="0" />
          </g>
          <g
             transform="translate(114.819,575.382)"
             id="g3055">
            <path
               id="path3057"
               style="fill:#00a886;fill-opacity:1;fill-rule:nonzero;stroke:none"
               d="m 0,0 c 0,0 12.581,0.682 19.324,-6.784 4.423,-4.904 4.575,-9.208 4.575,-9.208 l -6.622,-0.151 c 0,0 -0.483,4.682 -3.334,8.715 C 8.814,-0.172 0,0 0,0"
               inkscape:connector-curvature="0" />
          </g>
        </g>
      </g>
    </g>
  </g>
</svg>
