<?xml version="1.0" encoding="UTF-8" standalone="no"?>
<svg
   xmlns:dc="http://purl.org/dc/elements/1.1/"
   xmlns:cc="http://creativecommons.org/ns#"
   xmlns:rdf="http://www.w3.org/1999/02/22-rdf-syntax-ns#"
   xmlns:svg="http://www.w3.org/2000/svg"
   xmlns="http://www.w3.org/2000/svg"
   xmlns:sodipodi="http://sodipodi.sourceforge.net/DTD/sodipodi-0.dtd"
   xmlns:inkscape="http://www.inkscape.org/namespaces/inkscape"
   version="1.0"
   x="0px"
   y="0px"
   viewBox="0 0 100 100"
   enable-background="new 0 0 100 100"
   xml:space="preserve"
   id="svg2"
   inkscape:version="0.91 r13725"
   sodipodi:docname="roues.svg"><metadata
     id="metadata12"><rdf:RDF><cc:Work
         rdf:about=""><dc:format>image/svg+xml</dc:format><dc:type
           rdf:resource="http://purl.org/dc/dcmitype/StillImage" /></cc:Work></rdf:RDF></metadata><defs
     id="defs10" /><sodipodi:namedview
     pagecolor="#ffffff"
     bordercolor="#666666"
     borderopacity="1"
     objecttolerance="10"
     gridtolerance="10"
     guidetolerance="10"
     inkscape:pageopacity="0"
     inkscape:pageshadow="2"
     inkscape:window-width="1920"
     inkscape:window-height="1038"
     id="namedview8"
     showgrid="false"
     inkscape:zoom="2.36"
     inkscape:cx="-59.577878"
     inkscape:cy="78.40292"
     inkscape:window-x="0"
     inkscape:window-y="0"
     inkscape:window-maximized="1"
     inkscape:current-layer="svg2" /><path
     d="m 0.53418707,8.3108725 c 0.53300003,0.164 1.09000003,0.278 1.67600003,0.278 3.159,0 5.724,-2.563 5.724,-5.723 0,-0.841 -0.192,-1.632 -0.519,-2.352 l 26.1539999,0 c 0.066,0.748 0.12,1.561 0.12,2.352 0,0.143 0,0.143 0,0.143 -0.009,0.157 0.815,0.563 1.831,0.901 l 4.956,1.652 c 1.016,0.338 1.733,1.481 1.601,2.542 l -0.585,3.3830005 c -0.231,1.043 -1.294,1.929 -2.364,1.966 l -5.422,0.195 c -1.068,0.04 -2.289,0.873 -2.717,1.852 l -1.349,2.712 c -0.529,0.926 -0.417,2.366 0.255,3.2 l 3.3,4.099 c 0.67,0.832 0.661,2.188 -0.019,3.01 l -2.462,2.708 c -0.757,0.758 -2.125,0.93 -3.045,0.384 l -4.66,-2.764 c -0.922,-0.544 -2.393,-0.494 -3.271,0.115 l -2.163,1.33 c -0.935,0.516 -1.608,1.806 -1.497,2.87 l 0.566,5.271 c 0.114,1.061 -0.621,2.211 -1.636,2.553 l -3.646,1.03 c -1.042,0.242 -2.2859999,-0.34 -2.7629999,-1.297 l -2.402,-4.794 c -0.479,-0.956 -1.742,-1.673 -2.811,-1.592 0,0 -0.131,0.009 -1.182,0.009 -1.055,0 -1.185,-0.009 -1.185,-0.009 -0.15900003,-0.012 -0.32400003,-0.001 -0.49100003,0.022 l 0,-26.0460005 0.006,0 z"
     id="path4"
     style="fill:#3c4963;fill-opacity:1;stroke:#3c4963;stroke-opacity:1"
     inkscape:connector-curvature="0" /><path
     d="m 24.259187,64.862873 c -1.062,-0.039 -2.119,-0.915 -2.349,-1.955 l -0.581,-3.359 c -0.132,-1.053 0.581,-2.188 1.588,-2.522 l 4.926,-1.643 c 1.007,-0.335 1.827,-0.738 1.82,-0.893 0,0 0,0 0,-0.144 0,-2.414 0.468,-5.118 0.468,-5.118 0.182,-1.046 -0.382,-2.398 -1.252,-3.003 l -4.417,-3.07 c -0.871,-0.605 -1.281,-1.916 -0.911,-2.91 l 1.23,-2.907 c 0.456,-0.959 1.672,-1.527 2.699,-1.266 l 5.031,1.283 c 1.03,0.263 2.378,-0.229 2.999,-1.091 l 2.68,-3.27 c 0.728,-0.774 0.985,-2.212 0.58,-3.191 l -2.036,-4.92 c -0.406,-0.98 -0.036,-2.295 0.82,-2.924 l 2.464,-1.646 c 0.904,-0.552 2.239,-0.37 2.965,0.407 l 3.555,3.821 c 0.725,0.775 2.126,1.101 3.116,0.721 l 4.392,-1.332 c 1.034,-0.242 2.033,-1.293 2.221,-2.338 l 0.936,-5.172 c 0.189,-1.045 1.209,-1.958 2.269,-2.03 0,0 0.312,-0.021 1.45,-0.021 1.139,0 1.45,0.021 1.45,0.021 1.06,0.072 2.079,0.985 2.269,2.03 l 0.933,5.172 c 0.189,1.045 1.191,2.097 2.223,2.338 l 4.392,1.332 c 0.989,0.38 2.394,0.055 3.116,-0.721 l 3.558,-3.821 c 0.724,-0.777 2.057,-0.959 2.963,-0.407 l 2.465,1.646 c 0.854,0.629 1.225,1.944 0.818,2.923 l -2.036,4.921 c -0.406,0.979 -0.146,2.417 0.581,3.191 l 2.681,3.27 c 0.62,0.862 1.966,1.354 2.996,1.091 l 5.035,-1.283 c 1.026,-0.261 2.242,0.307 2.7,1.266 l 1.23,2.909 c 0.372,0.994 -0.038,2.303 -0.911,2.908 l -4.417,3.07 c -0.874,0.605 -1.438,1.957 -1.256,3.003 0,0 0.472,2.705 0.472,5.118 0,0.144 0,0.144 0,0.144 -0.008,0.154 0.81,0.558 1.817,0.893 l 4.925,1.643 c 1.008,0.336 1.722003,1.47 1.587003,2.522 l -0.580003,3.359 c -0.23,1.037 -1.287,1.916 -2.348,1.955 l -5.385,0.193 c -1.061,0.039 -2.272,0.865 -2.696,1.84 l -1.338,2.692 c -0.528,0.919 -0.414,2.35 0.25,3.176 l 3.278,4.071 c 0.664,0.826 0.655,2.172 -0.022,2.989 l -2.442,2.689 c -0.75,0.751 -2.11,0.923 -3.023,0.381 l -4.628,-2.744 c -0.914,-0.541 -2.376,-0.489 -3.248,0.113 l -2.147,1.319 c -0.93,0.514 -1.598,1.796 -1.484,2.85 l 0.562,5.232 c 0.113,1.058 -0.617,2.196 -1.624,2.536 l -3.623,1.023 c -1.033,0.242 -2.267,-0.339 -2.742,-1.287 l -2.386,-4.762 c -0.476,-0.949 -1.729,-1.66 -2.788,-1.581 0,0 -0.13,0.01 -1.175,0.01 -1.047,0 -1.175,-0.01 -1.175,-0.01 -1.058,-0.079 -2.316,0.632 -2.791,1.581 l -2.383,4.762 c -0.476,0.948 -1.711,1.528 -2.744,1.287 l -3.623,-1.023 c -1.007,-0.338 -1.738,-1.479 -1.624,-2.536 l 0.563,-5.232 c 0.114,-1.056 -0.557,-2.338 -1.485,-2.85 l -2.147,-1.32 c -0.874,-0.602 -2.335,-0.653 -3.248,-0.112 l -4.629,2.744 c -0.911,0.543 -2.271,0.37 -3.021,-0.382 l -2.444,-2.689 c -0.677,-0.817 -0.685,-2.162 -0.02,-2.989 l 3.277,-4.071 c 0.667,-0.826 0.779,-2.257 0.252,-3.176 l -1.339,-2.693 c -0.425,-0.973 -1.638,-1.799 -2.699,-1.84 l -5.385,-0.191 z m 36.664,-4.832 c 3.137,0 5.682,-2.544 5.682,-5.684 0,-3.14 -2.545,-5.683 -5.682,-5.683 -3.141,0 -5.684,2.544 -5.684,5.683 0,3.14 2.542,5.684 5.684,5.684 z"
     id="path6"
     style="fill:#3c4963;fill-opacity:1;stroke:#3c4963;stroke-opacity:1"
     inkscape:connector-curvature="0" /></svg>