<svg xmlns="http://www.w3.org/2000/svg" viewBox="0 0 380 123.54"><defs><style>.cls-1{fill:#0070af;}.cls-2{fill:#dbe120;}</style></defs><title>logo-cavp</title><g id="Layer_2" data-name="Layer 2"><g id="Layer_1-2" data-name="Layer 1"><path class="cls-1" d="M186,24.57c-2.56-11.7-12.24-18.4-23.3-18.4-20.1,0-28.61,16.81-28.61,33.4S142.57,73,162.67,73c14,0,23-10.85,24.36-24.36h7.23c-2,18.62-13.83,30.53-31.59,30.53-23.93,0-35.85-18.83-35.85-39.57S138.74,0,162.67,0C177,0,191.28,8.62,193.2,24.57Z"/><path class="cls-1" d="M225.43,1.6h8.08L263.3,77.54h-7.77l-9.25-23.61H211.71l-9.15,23.61h-7.77ZM213.94,47.76h29.89L229.15,8.83Z"/><path class="cls-1" d="M254.38,1.6h7.76l24.68,68H287l24.47-68h7.66L291,77.54h-8.4Z"/><path class="cls-1" d="M323.73,1.6h33.72c13.61,0,22.55,8,22.55,21.69S371.06,45,357.45,45H331V77.54h-7.23ZM331,38.82h24.89c10,0,16.92-5.1,16.92-15.53S365.85,7.77,355.85,7.77H331Z"/><path class="cls-1" d="M143.25,93.17a3.37,3.37,0,0,0-3.58-2.72c-3,0-4.33,2.51-4.33,5.17,0,2.92,1.29,5.35,4.35,5.35a3.61,3.61,0,0,0,3.68-3.68h1.7c-.32,3.18-2.31,5.11-5.53,5.11-4,0-5.9-2.93-5.9-6.65S135.75,89,139.69,89c2.66,0,4.86,1.43,5.26,4.15Z"/><path class="cls-1" d="M155.49,102.06a2,2,0,0,1-1.09.26c-.79,0-1.29-.44-1.29-1.44a4.1,4.1,0,0,1-3.26,1.44c-1.68,0-3.06-.76-3.06-2.6,0-2.09,1.56-2.54,3.13-2.85s3.12-.21,3.12-1.36c0-1.32-1.1-1.53-2.06-1.53-1.29,0-2.24.39-2.31,1.75h-1.52c.09-2.29,1.86-3.1,3.92-3.1,1.66,0,3.47.38,3.47,2.54v4.76c0,.72,0,1,.48,1a1.36,1.36,0,0,0,.47-.09ZM153,97.32a7.86,7.86,0,0,1-2.76.63c-1,.18-1.86.54-1.86,1.66s.86,1.36,1.79,1.36c2,0,2.83-1.25,2.83-2.09Z"/><path class="cls-1" d="M158.87,91.18h-1.52V89.32h1.52Zm-1.52,1.67h1.52v9.25h-1.52Z"/><path class="cls-1" d="M162.52,99.18c0,1.36,1.23,1.79,2.49,1.79,1,0,2.23-.21,2.23-1.38s-1.5-1.37-3-1.71-3-.84-3-2.62,1.84-2.63,3.45-2.63c2,0,3.67.65,3.79,2.9h-1.52c-.11-1.18-1.14-1.55-2.15-1.55s-2,.25-2,1.18c0,1.09,1.61,1.27,3,1.61s3,.84,3,2.63c0,2.2-2,2.92-3.93,2.92-2.08,0-3.83-.85-3.92-3.14Z"/><path class="cls-1" d="M171.82,99.18c.06,1.36,1.24,1.79,2.49,1.79.95,0,2.24-.21,2.24-1.38s-1.5-1.37-3-1.71-3-.84-3-2.62,1.84-2.63,3.45-2.63c2,0,3.67.65,3.8,2.9h-1.52c-.11-1.18-1.15-1.55-2.15-1.55s-2,.25-2,1.18c0,1.09,1.61,1.27,3,1.61s3,.84,3,2.63c0,2.2-2.06,2.92-3.94,2.92-2.07,0-3.83-.85-3.92-3.14Z"/><path class="cls-1" d="M188.09,99.17a3.73,3.73,0,0,1-4,3.15c-3,0-4.35-2-4.44-4.87s1.82-4.82,4.35-4.82c3.27,0,4.27,3.06,4.18,5.3h-6.92a2.73,2.73,0,0,0,2.88,3,2.23,2.23,0,0,0,2.4-1.8Zm-1.47-2.58A2.65,2.65,0,0,0,184,94a2.63,2.63,0,0,0-2.65,2.61Z"/><path class="cls-1" d="M203.77,102.1h-1.52v-1.25h0a3.11,3.11,0,0,1-3,1.47c-2.85,0-4.26-2.26-4.26-4.87s1.39-4.82,4.22-4.82a3.55,3.55,0,0,1,3,1.45h0V89.32h1.52Zm-4.3-1.13c2,0,2.83-1.75,2.83-3.49s-.82-3.5-2.92-3.5-2.77,1.77-2.77,3.57S197.5,101,199.47,101Z"/><path class="cls-1" d="M207.2,89.32h1.22v4.62H207.2Z"/><path class="cls-1" d="M220,102.06a2,2,0,0,1-1.09.26c-.79,0-1.29-.44-1.29-1.44a4.1,4.1,0,0,1-3.26,1.44c-1.68,0-3.06-.76-3.06-2.6,0-2.09,1.56-2.54,3.13-2.85s3.12-.21,3.12-1.36c0-1.32-1.1-1.53-2.06-1.53-1.29,0-2.24.39-2.31,1.75h-1.52c.09-2.29,1.86-3.1,3.92-3.1,1.66,0,3.47.38,3.47,2.54v4.76c0,.72,0,1,.48,1a1.36,1.36,0,0,0,.47-.09Zm-2.47-4.74a7.86,7.86,0,0,1-2.76.63c-1,.18-1.86.54-1.86,1.66s.86,1.36,1.79,1.36c2,0,2.83-1.25,2.83-2.09Z"/><path class="cls-1" d="M222.7,99.18c.05,1.36,1.23,1.79,2.49,1.79.95,0,2.23-.21,2.23-1.38s-1.5-1.37-3-1.71-3-.84-3-2.62,1.84-2.63,3.45-2.63c2,0,3.67.65,3.79,2.9H227.1C227,94.35,226,94,225,94s-2,.25-2,1.18c0,1.09,1.61,1.27,3,1.61s3,.84,3,2.63c0,2.2-2.05,2.92-3.93,2.92-2.08,0-3.83-.85-3.92-3.14Z"/><path class="cls-1" d="M232,99.18c.06,1.36,1.24,1.79,2.49,1.79.95,0,2.24-.21,2.24-1.38s-1.51-1.37-3-1.71-3-.84-3-2.62,1.84-2.63,3.45-2.63c2,0,3.67.65,3.8,2.9h-1.52c-.11-1.18-1.15-1.55-2.15-1.55s-2,.25-2,1.18c0,1.09,1.61,1.27,3,1.61s3,.84,3,2.63c0,2.2-2.06,2.92-3.94,2.92-2.07,0-3.83-.85-3.92-3.14Z"/><path class="cls-1" d="M248,102.1h-1.43v-1.47h0a3.21,3.21,0,0,1-3,1.69c-2.43,0-3.18-1.4-3.18-3.39V92.85h1.52v6.26a1.74,1.74,0,0,0,1.88,1.86,2.6,2.6,0,0,0,2.74-2.9V92.85H248Z"/><path class="cls-1" d="M250.63,92.85h1.43v2h0a3.36,3.36,0,0,1,3.4-2.17v1.61c-2.45,0-3.35,1.4-3.35,3.74v4.12h-1.52Z"/><path class="cls-1" d="M265.2,102.06a2,2,0,0,1-1.09.26c-.79,0-1.29-.44-1.29-1.44a4.1,4.1,0,0,1-3.26,1.44c-1.68,0-3.06-.76-3.06-2.6,0-2.09,1.56-2.54,3.13-2.85s3.12-.21,3.12-1.36c0-1.32-1.09-1.53-2.06-1.53-1.29,0-2.24.39-2.31,1.75h-1.52c.09-2.29,1.86-3.1,3.92-3.1,1.66,0,3.47.38,3.47,2.54v4.76c0,.72,0,1,.48,1a1.36,1.36,0,0,0,.47-.09Zm-2.47-4.74A7.86,7.86,0,0,1,260,98c-1,.18-1.86.54-1.86,1.66S259,101,259.9,101c2,0,2.83-1.25,2.83-2.09Z"/><path class="cls-1" d="M267,92.85h1.43v1.47h0a3.21,3.21,0,0,1,3-1.69c2.44,0,3.19,1.4,3.19,3.39v6.08h-1.52V95.84A1.74,1.74,0,0,0,271.23,94a2.6,2.6,0,0,0-2.74,2.89v5.23H267Z"/><path class="cls-1" d="M283.56,95.82A2.15,2.15,0,0,0,281.27,94c-2.2,0-2.88,1.73-2.88,3.61,0,1.7.77,3.38,2.7,3.38a2.39,2.39,0,0,0,2.54-2.25h1.56a3.85,3.85,0,0,1-4.08,3.6c-2.83,0-4.33-2-4.33-4.73s1.43-5,4.36-5c2.1,0,3.78,1,4,3.19Z"/><path class="cls-1" d="M295.14,99.17a3.74,3.74,0,0,1-4,3.15c-2.95,0-4.35-2-4.44-4.87s1.83-4.82,4.35-4.82c3.28,0,4.28,3.06,4.19,5.3h-6.93a2.73,2.73,0,0,0,2.88,3,2.22,2.22,0,0,0,2.4-1.8Zm-1.47-2.58a2.66,2.66,0,0,0-5.32,0Z"/><path class="cls-1" d="M306.71,102.1h-1.62l-3.44-9.25h1.7l2.59,7.71h0l2.52-7.71h1.6Z"/><path class="cls-1" d="M313.46,91.18h-1.52V89.32h1.52Zm-1.52,1.67h1.52v9.25h-1.52Z"/><path class="cls-1" d="M324.07,99.17a3.73,3.73,0,0,1-3.95,3.15c-3,0-4.35-2-4.44-4.87s1.82-4.82,4.35-4.82c3.27,0,4.27,3.06,4.18,5.3h-6.92a2.73,2.73,0,0,0,2.88,3,2.23,2.23,0,0,0,2.4-1.8Zm-1.47-2.58A2.65,2.65,0,0,0,319.94,94a2.63,2.63,0,0,0-2.65,2.61Z"/><path class="cls-1" d="M327.76,91.18h-1.52V89.32h1.52Zm-1.52,1.67h1.52v9.25h-1.52Z"/><path class="cls-1" d="M330.57,89.32h1.52V102.1h-1.52Z"/><path class="cls-1" d="M334.9,89.32h1.52V102.1H334.9Z"/><path class="cls-1" d="M347,99.17a3.73,3.73,0,0,1-4,3.15c-2.95,0-4.34-2-4.43-4.87s1.82-4.82,4.35-4.82c3.27,0,4.27,3.06,4.18,5.3h-6.92a2.72,2.72,0,0,0,2.88,3,2.23,2.23,0,0,0,2.4-1.8Zm-1.47-2.58A2.65,2.65,0,0,0,342.9,94a2.63,2.63,0,0,0-2.65,2.61Z"/><path class="cls-1" d="M350,99.18c0,1.36,1.23,1.79,2.48,1.79,1,0,2.24-.21,2.24-1.38s-1.5-1.37-3-1.71-3-.84-3-2.62,1.84-2.63,3.45-2.63c2,0,3.67.65,3.8,2.9h-1.52c-.11-1.18-1.15-1.55-2.15-1.55s-2,.25-2,1.18c0,1.09,1.61,1.27,3,1.61s3,.84,3,2.63c0,2.2-2.06,2.92-3.94,2.92-2.07,0-3.83-.85-3.92-3.14Z"/><path class="cls-1" d="M359.34,99.18c.05,1.36,1.24,1.79,2.49,1.79.95,0,2.23-.21,2.23-1.38s-1.5-1.37-3-1.71-3-.84-3-2.62,1.84-2.63,3.45-2.63c2,0,3.67.65,3.79,2.9h-1.52c-.1-1.18-1.14-1.55-2.14-1.55s-2,.25-2,1.18c0,1.09,1.61,1.27,3,1.61s3,.84,3,2.63c0,2.2-2.06,2.92-3.94,2.92-2.08,0-3.83-.85-3.92-3.14Z"/><path class="cls-1" d="M375.61,99.17a3.73,3.73,0,0,1-4,3.15c-2.95,0-4.35-2-4.44-4.87s1.83-4.82,4.35-4.82c3.28,0,4.28,3.06,4.19,5.3h-6.93a2.73,2.73,0,0,0,2.89,3,2.22,2.22,0,0,0,2.39-1.8Zm-1.47-2.58a2.66,2.66,0,0,0-5.32,0Z"/><path class="cls-1" d="M142.28,120h-1.52v-1.25h0a3.11,3.11,0,0,1-2.95,1.47c-2.84,0-4.26-2.26-4.26-4.87s1.4-4.81,4.23-4.81a3.54,3.54,0,0,1,3,1.45h0v-4.76h1.52ZM138,118.87c2,0,2.82-1.76,2.82-3.49s-.82-3.51-2.91-3.51-2.78,1.77-2.78,3.58S136,118.87,138,118.87Z"/><path class="cls-1" d="M152.87,117.06a3.72,3.72,0,0,1-4,3.15c-2.95,0-4.35-2-4.44-4.87s1.83-4.81,4.35-4.81c3.28,0,4.28,3.06,4.19,5.3h-6.93a2.73,2.73,0,0,0,2.88,3,2.23,2.23,0,0,0,2.4-1.81Zm-1.46-2.58a2.66,2.66,0,0,0-5.32,0Z"/><path class="cls-1" d="M155.88,117.08c.05,1.36,1.24,1.79,2.49,1.79.95,0,2.23-.22,2.23-1.38s-1.5-1.38-3-1.72-3-.84-3-2.61,1.84-2.63,3.45-2.63c2,0,3.67.64,3.79,2.9h-1.52c-.1-1.18-1.14-1.56-2.14-1.56s-2,.25-2,1.18c0,1.09,1.61,1.27,3,1.61s3,.84,3,2.63c0,2.2-2.05,2.92-3.93,2.92-2.08,0-3.83-.84-3.92-3.13Z"/><path class="cls-1" d="M169.64,110.74h1.52V112h0a3.11,3.11,0,0,1,3-1.47c2.85,0,4.26,2.25,4.26,4.87s-1.39,4.81-4.22,4.81a3.55,3.55,0,0,1-3-1.45h0v4.78h-1.52Zm4.3,1.13c-2,0-2.83,1.75-2.83,3.49s.82,3.51,2.92,3.51,2.77-1.77,2.77-3.58S175.91,111.87,173.94,111.87Z"/><path class="cls-1" d="M180.56,107.22h1.52v4.88h0a3.14,3.14,0,0,1,2.92-1.57c2.44,0,3.19,1.39,3.19,3.38V120H186.7v-6.26a1.74,1.74,0,0,0-1.88-1.86,2.6,2.6,0,0,0-2.74,2.9V120h-1.52Z"/><path class="cls-1" d="M199.06,120a2.07,2.07,0,0,1-1.09.25c-.79,0-1.29-.43-1.29-1.43a4.12,4.12,0,0,1-3.26,1.43c-1.68,0-3.06-.75-3.06-2.6,0-2.09,1.56-2.54,3.14-2.84s3.11-.22,3.11-1.36c0-1.32-1.09-1.54-2.06-1.54-1.29,0-2.24.39-2.31,1.75h-1.52c.09-2.29,1.86-3.09,3.92-3.09,1.67,0,3.47.37,3.47,2.54v4.76c0,.71,0,1,.49,1a1.35,1.35,0,0,0,.46-.09Zm-2.47-4.74a7.87,7.87,0,0,1-2.75.62c-1,.18-1.87.54-1.87,1.67s.86,1.36,1.79,1.36c2,0,2.83-1.26,2.83-2.1Z"/><path class="cls-1" d="M200.78,110.74h1.43v2h0a3.35,3.35,0,0,1,3.4-2.16v1.61c-2.46,0-3.35,1.39-3.35,3.74V120h-1.52Z"/><path class="cls-1" d="M207.15,110.74h1.43v1.36h0a3.41,3.41,0,0,1,3-1.57,2.47,2.47,0,0,1,2.55,1.57,3.41,3.41,0,0,1,2.89-1.57c1.85,0,3.08.77,3.08,2.68V120H218.6v-6.06c0-1.15-.3-2.06-1.79-2.06a2.23,2.23,0,0,0-2.41,2.36V120h-1.52v-6.06c0-1.2-.38-2.06-1.74-2.06a2.49,2.49,0,0,0-2.47,2.36V120h-1.52Z"/><path class="cls-1" d="M231,120a2.08,2.08,0,0,1-1.1.25c-.78,0-1.28-.43-1.28-1.43a4.13,4.13,0,0,1-3.26,1.43c-1.68,0-3.06-.75-3.06-2.6,0-2.09,1.56-2.54,3.13-2.84s3.11-.22,3.11-1.36c0-1.32-1.09-1.54-2-1.54-1.29,0-2.24.39-2.31,1.75h-1.52c.09-2.29,1.86-3.09,3.92-3.09,1.66,0,3.47.37,3.47,2.54v4.76c0,.71,0,1,.48,1a1.36,1.36,0,0,0,.47-.09Zm-2.47-4.74a7.88,7.88,0,0,1-2.76.62c-1,.18-1.86.54-1.86,1.67s.86,1.36,1.79,1.36c2,0,2.83-1.26,2.83-2.1Z"/><path class="cls-1" d="M239,113.71a2.15,2.15,0,0,0-2.29-1.84c-2.2,0-2.88,1.74-2.88,3.61,0,1.71.77,3.39,2.7,3.39a2.39,2.39,0,0,0,2.54-2.26h1.56a3.85,3.85,0,0,1-4.08,3.6c-2.83,0-4.33-2-4.33-4.73s1.43-5,4.36-5c2.1,0,3.78,1,4,3.18Z"/><path class="cls-1" d="M244.32,109.08h-1.53v-1.86h1.53Zm-1.53,1.66h1.53V120h-1.53Z"/><path class="cls-1" d="M254.93,117.06a3.73,3.73,0,0,1-4,3.15c-2.95,0-4.35-2-4.44-4.87s1.83-4.81,4.35-4.81c3.28,0,4.28,3.06,4.19,5.3h-6.93a2.73,2.73,0,0,0,2.89,3,2.23,2.23,0,0,0,2.39-1.81Zm-1.47-2.58a2.66,2.66,0,0,0-5.32,0Z"/><path class="cls-1" d="M257,110.74h1.43v1.47h0a3.22,3.22,0,0,1,3-1.68c2.43,0,3.18,1.39,3.18,3.38V120h-1.52v-6.26a1.74,1.74,0,0,0-1.88-1.86,2.61,2.61,0,0,0-2.74,2.9V120H257Z"/><path class="cls-1" d="M268.24,117.08c.05,1.36,1.24,1.79,2.49,1.79.95,0,2.23-.22,2.23-1.38s-1.5-1.38-3-1.72-3-.84-3-2.61,1.84-2.63,3.45-2.63c2,0,3.67.64,3.79,2.9h-1.52c-.1-1.18-1.14-1.56-2.14-1.56s-2,.25-2,1.18c0,1.09,1.61,1.27,3,1.61s3,.84,3,2.63c0,2.2-2.06,2.92-3.94,2.92-2.08,0-3.83-.84-3.92-3.13Z"/><path class="cls-1" d="M1.84,31.42a7.83,7.83,0,1,1,7.82,7.83A7.83,7.83,0,0,1,1.84,31.42Z"/><path class="cls-2" d="M17.5,51.3a8.75,8.75,0,1,1-8.75-8.75A8.75,8.75,0,0,1,17.5,51.3Z"/><path class="cls-2" d="M17.5,71.26a8.75,8.75,0,1,1-8.75-8.75A8.75,8.75,0,0,1,17.5,71.26Z"/><path class="cls-1" d="M1.84,91.15A7.83,7.83,0,1,1,9.66,99,7.83,7.83,0,0,1,1.84,91.15Z"/><path class="cls-1" d="M21,12.29a7.83,7.83,0,1,1,7.82,7.82A7.83,7.83,0,0,1,21,12.29Z"/><path class="cls-1" d="M21,31.42a7.83,7.83,0,1,1,7.82,7.83A7.83,7.83,0,0,1,21,31.42Z"/><path class="cls-2" d="M37.52,51.3a8.76,8.76,0,1,1-8.76-8.75A8.75,8.75,0,0,1,37.52,51.3Z"/><path class="cls-2" d="M37.52,71.26a8.76,8.76,0,1,1-8.76-8.75A8.76,8.76,0,0,1,37.52,71.26Z"/><path class="cls-1" d="M21,91.15A7.83,7.83,0,1,1,28.84,99,7.83,7.83,0,0,1,21,91.15Z"/><path class="cls-1" d="M21,110.28a7.83,7.83,0,1,1,7.82,7.82A7.83,7.83,0,0,1,21,110.28Z"/><path class="cls-2" d="M57.53,11.38a8.75,8.75,0,1,1-8.75-8.75A8.75,8.75,0,0,1,57.53,11.38Z"/><path class="cls-2" d="M57.53,31.34a8.75,8.75,0,1,1-8.75-8.75A8.75,8.75,0,0,1,57.53,31.34Z"/><path class="cls-2" d="M57.53,51.3a8.75,8.75,0,1,1-8.75-8.75A8.75,8.75,0,0,1,57.53,51.3Z"/><path class="cls-2" d="M57.53,71.26a8.75,8.75,0,1,1-8.75-8.75A8.75,8.75,0,0,1,57.53,71.26Z"/><path class="cls-2" d="M57.53,91.22a8.75,8.75,0,1,1-8.75-8.75A8.75,8.75,0,0,1,57.53,91.22Z"/><path class="cls-2" d="M57.53,111.18a8.75,8.75,0,1,1-8.75-8.75A8.75,8.75,0,0,1,57.53,111.18Z"/><path class="cls-2" d="M77.55,11.38A8.76,8.76,0,1,1,68.8,2.63,8.75,8.75,0,0,1,77.55,11.38Z"/><path class="cls-2" d="M77.55,31.34a8.76,8.76,0,1,1-8.75-8.75A8.75,8.75,0,0,1,77.55,31.34Z"/><path class="cls-2" d="M77.55,51.3a8.76,8.76,0,1,1-8.75-8.75A8.75,8.75,0,0,1,77.55,51.3Z"/><path class="cls-2" d="M77.55,71.26a8.76,8.76,0,1,1-8.75-8.75A8.75,8.75,0,0,1,77.55,71.26Z"/><path class="cls-2" d="M77.55,91.22a8.76,8.76,0,1,1-8.75-8.75A8.75,8.75,0,0,1,77.55,91.22Z"/><path class="cls-2" d="M77.55,111.18a8.76,8.76,0,1,1-8.75-8.75A8.75,8.75,0,0,1,77.55,111.18Z"/><path class="cls-1" d="M80.91,12.29a7.83,7.83,0,1,1,7.82,7.82A7.83,7.83,0,0,1,80.91,12.29Z"/><path class="cls-1" d="M80.91,31.42a7.83,7.83,0,1,1,7.82,7.83A7.83,7.83,0,0,1,80.91,31.42Z"/><path class="cls-2" d="M97.56,51.3a8.75,8.75,0,1,1-8.75-8.75A8.74,8.74,0,0,1,97.56,51.3Z"/><path class="cls-2" d="M97.56,71.26a8.75,8.75,0,1,1-8.75-8.75A8.75,8.75,0,0,1,97.56,71.26Z"/><path class="cls-1" d="M80.91,91.15A7.83,7.83,0,1,1,88.73,99,7.83,7.83,0,0,1,80.91,91.15Z"/><path class="cls-1" d="M80.91,110.28a7.83,7.83,0,1,1,7.82,7.82A7.83,7.83,0,0,1,80.91,110.28Z"/><path class="cls-1" d="M100.09,31.42a7.83,7.83,0,1,1,7.82,7.83A7.83,7.83,0,0,1,100.09,31.42Z"/><path class="cls-2" d="M117.58,51.3a8.75,8.75,0,1,1-8.75-8.75A8.75,8.75,0,0,1,117.58,51.3Z"/><path class="cls-2" d="M117.58,71.26a8.75,8.75,0,1,1-8.75-8.75A8.75,8.75,0,0,1,117.58,71.26Z"/><path class="cls-1" d="M100.09,91.15A7.83,7.83,0,1,1,107.91,99,7.83,7.83,0,0,1,100.09,91.15Z"/></g></g></svg>