<?xml version="1.0" encoding="utf-8"?>
<!-- Generator: Adobe Illustrator 20.0.0, SVG Export Plug-In . SVG Version: 6.00 Build 0)  -->
<svg version="1.1" id="Calque_2" xmlns="http://www.w3.org/2000/svg" xmlns:xlink="http://www.w3.org/1999/xlink" x="0px" y="0px"
	 viewBox="0 0 48 48" style="enable-background:new 0 0 48 48;" xml:space="preserve">
<style type="text/css">
	.st0{fill:#FFFFFF;}
	.st1{fill:rgb(41, 117, 209);}
	.st2{fill:#FFFFFF;stroke:rgb(41, 117, 209);stroke-linecap:round;stroke-linejoin:round;stroke-miterlimit:10;}
	.st3{
		fill:rgb(105,158,223);

	fill:rgb(41, 117, 209, 0.7);stroke:rgb(41, 117, 209);stroke-miterlimit:10;}
</style>

<path class="st2" d="M36.1,20h-1.2c-0.4,0-0.8-0.2-1-0.4L31.4,17c-0.1-0.1-0.2-0.2-0.4-0.3l-4.3-2.2c-0.7-0.4-1.5-0.1-1.9,0.6
	l-0.3,0.6c-0.3,0.6-0.2,1.4,0.4,1.8l0.3,0.2c0.9,0.7,0.7,2.1-0.3,2.5l-8.8,3.7c-0.8,0.4-1.2,1.4-0.6,2.2l0.7,1
	c0.4,0.6,1.1,0.8,1.7,0.5l5.4-2.3l-4.9,2.1c-0.9,0.4-1.1,1.4-0.6,2.2l0.4,0.5c0.4,0.5,1,0.7,1.6,0.5l6.1-2.1l-5.3,1.8
	c-0.9,0.3-1.3,1.5-0.7,2.2l0.4,0.5c0.5,0.7,1.4,1,2.2,0.7L36,29.6c0.6-0.2,1.1-0.8,1-1.5l-0.6-7.8C36.4,20.1,36.3,20,36.1,20z"/>
<path class="st2" d="M11.5,19.4l2.4,0.5c0.4,0.1,0.8,0,1.2-0.2l6-3.6c0.6-0.4,1.3-0.3,1.9,0.1l4.7,3.6c0.8,0.6,0.9,1.9,0.1,2.6l0,0
	c-0.6,0.5-1.5,0.6-2.1,0.1L24,21.3c-0.5-0.3-1.1-0.4-1.7-0.1l-6,2.9c-0.9,0.4-1.2,1.6-0.7,2.5l1.7,2.4c0.7,1.1,0.1,2.5-1.2,2.6
	l-0.6,0.1c-0.2,0-0.4,0-0.6-0.1l-3-0.9c-0.8-0.2-1.3-1-1.2-1.8L11.5,19.4z"/>
<path class="st3" d="M11.1,31.6H7.5c-0.6,0-1.1-0.5-1.1-1.1V19.4c0-0.6,0.5-1.1,1.1-1.1h3.7c0.6,0,1.1,0.5,1.1,1.1v11.1
	C12.2,31.1,11.7,31.6,11.1,31.6z"/>
<path class="st3" d="M40.5,31.6h-3.7c-0.6,0-1.1-0.5-1.1-1.1V19.3c0-0.6,0.5-1.1,1.1-1.1h3.7c0.6,0,1.1,0.5,1.1,1.1v11.1
	C41.6,31.1,41.1,31.6,40.5,31.6z"/>
</svg>
