<?xml version="1.0" encoding="UTF-8" standalone="no"?>
<svg
   xmlns:dc="http://purl.org/dc/elements/1.1/"
   xmlns:cc="http://creativecommons.org/ns#"
   xmlns:rdf="http://www.w3.org/1999/02/22-rdf-syntax-ns#"
   xmlns:svg="http://www.w3.org/2000/svg"
   xmlns="http://www.w3.org/2000/svg"
   xmlns:sodipodi="http://sodipodi.sourceforge.net/DTD/sodipodi-0.dtd"
   xmlns:inkscape="http://www.inkscape.org/namespaces/inkscape"
   version="1.1"
   width="13"
   height="14"
   viewBox="0 0 13 14"
   id="svg4"
   sodipodi:docname="livre.svg"
   inkscape:version="0.92.2 (5c3e80d, 2017-08-06)"
   inkscape:export-filename="/home/mama/dev/sgmap/actifs/syso/source/images/livre.png"
   inkscape:export-xdpi="177.11"
   inkscape:export-ydpi="177.11">
  <metadata
     id="metadata10">
    <rdf:RDF>
      <cc:Work
         rdf:about="">
        <dc:format>image/svg+xml</dc:format>
        <dc:type
           rdf:resource="http://purl.org/dc/dcmitype/StillImage" />
        <dc:title></dc:title>
      </cc:Work>
    </rdf:RDF>
  </metadata>
  <defs
     id="defs8" />
  <sodipodi:namedview
     pagecolor="#ffffff"
     bordercolor="#666666"
     borderopacity="1"
     objecttolerance="10"
     gridtolerance="10"
     guidetolerance="10"
     inkscape:pageopacity="0"
     inkscape:pageshadow="2"
     inkscape:window-width="1920"
     inkscape:window-height="1019"
     id="namedview6"
     showgrid="false"
     inkscape:zoom="33.714286"
     inkscape:cx="8.3739479"
     inkscape:cy="6.7147513"
     inkscape:window-x="0"
     inkscape:window-y="27"
     inkscape:window-maximized="1"
     inkscape:current-layer="svg4" />
  <path
     d="m 12.805,3.734 c 0.208,0.2966667 0.255,0.6326667 0.141,1.008 L 10.798,11.82 C 10.699333,12.153333 10.5,12.433333 10.2,12.66 9.9,12.886667 9.581,13 9.243,13 H 2.032 C 1.6306667,13 1.244,12.860667 0.872,12.582 0.5,12.303333 0.241,11.961 0.095,11.555 c -0.12466667,-0.348667 -0.13,-0.679333 -0.016,-0.992 0,-0.02067 0.0076667,-0.091 0.023,-0.211 0.0153333,-0.12 0.0256667,-0.216333 0.031,-0.289 0.005333,-0.04133 -0.002333,-0.097333 -0.023,-0.168 C 0.08933333,9.8243333 0.08166667,9.7736667 0.087,9.743 0.09766667,9.6856667 0.11833333,9.631 0.149,9.579 0.17966667,9.527 0.22266667,9.4656667 0.278,9.395 0.33333333,9.3243333 0.37633333,9.263 0.407,9.211 0.527,9.013 0.64433333,8.7746667 0.759,8.496 0.87366667,8.2173333 0.95166667,7.979 0.993,7.781 1.0083333,7.729 1.0096667,7.651 0.997,7.547 0.98433333,7.443 0.983,7.37 0.993,7.328 1.0083333,7.2706667 1.0526667,7.1976667 1.126,7.109 1.1993333,7.0203333 1.2436667,6.9603333 1.259,6.929 1.3683333,6.7416667 1.4776667,6.502 1.587,6.21 1.6963333,5.918 1.7613333,5.6836667 1.782,5.507 1.7873333,5.4603333 1.7806667,5.377 1.762,5.257 1.7433333,5.137 1.7446667,5.064 1.766,5.038 1.7866667,4.97 1.844,4.8906667 1.938,4.8 2.032,4.7093333 2.0893333,4.6506667 2.11,4.624 2.2086667,4.4886667 2.3193333,4.2686667 2.442,3.964 2.5646667,3.6593333 2.6363333,3.408 2.657,3.21 2.6623333,3.1686667 2.6546667,3.1023333 2.634,3.011 2.6133333,2.9196667 2.608,2.8506667 2.618,2.804 2.6286667,2.7626667 2.652,2.7156667 2.688,2.663 2.724,2.6103333 2.771,2.5503333 2.829,2.483 2.887,2.4156667 2.9313333,2.361 2.962,2.319 3.0033333,2.2563333 3.0463333,2.177 3.091,2.081 3.1356667,1.985 3.1746667,1.894 3.208,1.808 3.2413333,1.722 3.283,1.6283333 3.333,1.527 3.383,1.4256667 3.4336667,1.3423333 3.485,1.277 3.5363333,1.2116667 3.6053333,1.1503333 3.692,1.093 c 0.086667,-0.057333 0.1803333,-0.087333 0.281,-0.09 0.1006667,-0.00267 0.2243333,0.011667 0.371,0.043 L 4.336,1.069 c 0.198,-0.046667 0.3306667,-0.07 0.398,-0.07 h 5.945 c 0.385333,0 0.682333,0.146 0.891,0.438 0.208667,0.292 0.255667,0.6306667 0.141,1.016 L 9.57,9.531 C 9.3826667,10.151 9.1963333,10.550667 9.011,10.73 8.8256667,10.909333 8.491,10.999333 8.007,11 H 1.218 c -0.1406667,0 -0.23966667,0.039 -0.297,0.117 -0.0573333,0.08333 -0.06,0.195333 -0.008,0.336 C 1.0376667,11.817667 1.4126667,12 2.038,12 h 7.211 c 0.1513333,0 0.2973333,-0.04033 0.438,-0.121 0.1406667,-0.08067 0.2316667,-0.188667 0.273,-0.324 l 2.344,-7.711 c 0.03667,-0.1146667 0.04967,-0.263 0.039,-0.445 0.198,0.078 0.351667,0.19 0.461,0.336 z"
     id="path2"
     inkscape:connector-curvature="0"
     sodipodi:nodetypes="cccssssccscscsscscscscscscscscscsscssssssccsssccscsccsssccccc"
     inkscape:export-filename="/home/mama/dev/sgmap/actifs/syso/source/images/livre.png"
     inkscape:export-xdpi="383.96799"
     inkscape:export-ydpi="383.96799" />
  <text
     xml:space="preserve"
     style="font-style:normal;font-weight:normal;font-size:10.14016628px;line-height:125%;font-family:sans-serif;letter-spacing:0px;word-spacing:0px;fill:#ffffff;fill-opacity:1;stroke:none;stroke-width:0.8112132px;stroke-linecap:butt;stroke-linejoin:miter;stroke-opacity:1"
     x="6.7447171"
     y="9.6131449"
     id="text819"
     transform="matrix(1.0041902,0,-0.44305481,0.99582728,0,0)"
     inkscape:export-filename="/home/mama/dev/sgmap/actifs/syso/source/images/livre.png"
     inkscape:export-xdpi="383.96799"
     inkscape:export-ydpi="383.96799"><tspan
       sodipodi:role="line"
       id="tspan817"
       x="6.7447171"
       y="9.6131449"
       style="font-style:normal;font-variant:normal;font-weight:500;font-stretch:normal;font-family:ubuntu;-inkscape-font-specification:'ubuntu Medium';stroke-width:0.8112132px">?</tspan></text>
</svg>
