<?xml version="1.0" encoding="UTF-8" standalone="no"?>
<svg
   xmlns:dc="http://purl.org/dc/elements/1.1/"
   xmlns:cc="http://creativecommons.org/ns#"
   xmlns:rdf="http://www.w3.org/1999/02/22-rdf-syntax-ns#"
   xmlns:svg="http://www.w3.org/2000/svg"
   xmlns="http://www.w3.org/2000/svg"
   xmlns:sodipodi="http://sodipodi.sourceforge.net/DTD/sodipodi-0.dtd"
   xmlns:inkscape="http://www.inkscape.org/namespaces/inkscape"
   viewBox="0 0 445.11666 152.38437"
   version="1.1"
   id="svg61"
   sodipodi:docname="logo-mycompany.svg"
   width="445.11667"
   height="152.38437"
   inkscape:version="0.92.4 5da689c313, 2019-01-14">
  <metadata
     id="metadata65">
    <rdf:RDF>
      <cc:Work
         rdf:about="">
        <dc:format>image/svg+xml</dc:format>
        <dc:type
           rdf:resource="http://purl.org/dc/dcmitype/StillImage" />
        <dc:title>mon-entreprise_logo</dc:title>
      </cc:Work>
    </rdf:RDF>
  </metadata>
  <sodipodi:namedview
     pagecolor="#ffffff"
     bordercolor="#666666"
     borderopacity="1"
     objecttolerance="10"
     gridtolerance="10"
     guidetolerance="10"
     inkscape:pageopacity="0"
     inkscape:pageshadow="2"
     inkscape:window-width="1464"
     inkscape:window-height="1386"
     id="namedview63"
     showgrid="false"
     inkscape:zoom="1.9179688"
     inkscape:cx="295.01773"
     inkscape:cy="-113.32785"
     inkscape:window-x="1096"
     inkscape:window-y="28"
     inkscape:window-maximized="0"
     inkscape:current-layer="text49"
     showguides="false"
     inkscape:snap-text-baseline="true" />
  <defs
     id="defs4">
    <style
       id="style2">.cls-1{fill:#1e286e;}.cls-2{fill:#4b508c;}.cls-3{fill:#fad750;}.cls-4{fill:#f5c328;}.cls-5{fill:#cd0a5a;}.cls-6{fill:#ff2d96;}.cls-7{fill:#1ea0f5;}.cls-8{fill:#197dbe;}.cls-9{fill:#46dcc3;}.cls-10{fill:#91ebc3;}</style>
  </defs>
  <title
     id="title6">mon-entreprise_logo</title>
  <g
     id="mon-entrerpise_logo"
     transform="translate(-39.23,-24.797337)">
    <polygon
       class="cls-1"
       points="105.14,37.17 89.39,37.17 87.14,28.17 102.89,28.17 100.64,32.67 "
       id="polygon34"
       style="fill:#1e286e" />
    <polygon
       class="cls-2"
       points="80.39,25.92 91.64,25.92 95.05,34.89 83.8,34.89 "
       id="polygon36"
       style="fill:#4b508c" />
    <path
       class="cls-3"
       d="m 40.47,127.05 h 39.6 a 1.2,1.2 0 0 0 1.2,-1.2 v -39.6 a 1.2,1.2 0 0 0 -1.2,-1.2 h -18.6 a 1.19,1.19 0 0 0 -1.2,1.2 v 18.6 a 1.2,1.2 0 0 1 -1.2,1.2 h -18.6 a 1.19,1.19 0 0 0 -1.2,1.2 v 18.6 a 1.2,1.2 0 0 0 1.2,1.2 z"
       id="path38"
       inkscape:connector-curvature="0"
       style="fill:#fad750" />
    <path
       class="cls-4"
       d="m 80.86,85.35 a 1.17,1.17 0 0 0 -0.79,-0.3 h -18.6 a 1.19,1.19 0 0 0 -1.2,1.2 v 14.14 c 0,0 20.84,-14.82 20.59,-15.04 z"
       id="path40"
       inkscape:connector-curvature="0"
       style="fill:#f5c328" />
    <path
       class="cls-4"
       d="M 52.22,106.05 H 40.47 a 1.19,1.19 0 0 0 -1.2,1.2 v 8.57 z"
       id="path42"
       inkscape:connector-curvature="0"
       style="fill:#f5c328" />
    <path
       class="cls-5"
       d="m 106.11,77.33 -20.65,-35.76 -4,-15.92 a 1.1229426,1.1229426 0 0 0 -2.18,0.54 L 83.1,41.48 62.42,77.33 a 1.15,1.15 0 0 0 1,1.72 h 41.71 a 1.15,1.15 0 0 0 0.98,-1.72 z"
       id="path44"
       inkscape:connector-curvature="0"
       style="fill:#cd0a5a" />
    <path
       class="cls-6"
       d="m 63.09,76.17 -0.67,1.16 a 1.15,1.15 0 0 0 1,1.72 h 41.71 a 1.15,1.15 0 0 0 1,-1.72 L 90,49.47 Z"
       id="path46"
       inkscape:connector-curvature="0"
       style="fill:#ff2d96" />
    <path
       class="cls-7"
       d="m 39.27,134.22 v 41.83 a 1,1 0 0 0 1,1 h 20 a 1,1 0 0 0 1,-1 22,22 0 0 1 43.95,0 1,1 0 0 0 1,1 h 20 a 1,1 0 0 0 1,-1 v -42 a 1,1 0 0 0 -1,-1 H 40.44 a 1.17,1.17 0 0 0 -1.17,1.17 z"
       id="path48"
       inkscape:connector-curvature="0"
       style="fill:#1ea0f5" />
    <path
       class="cls-8"
       d="m 79.23,133.05 h -39 a 1,1 0 0 0 -1,1 v 25 z"
       id="path50"
       inkscape:connector-curvature="0"
       style="fill:#197dbe" />
    <circle
       class="cls-9"
       cx="106.27"
       cy="106.05"
       r="21"
       id="circle56"
       style="fill:#46dcc3" />
    <path
       class="cls-10"
       d="m 98.09,125.39 a 21,21 0 0 0 29.18,-19.34 c 0,-0.45 0,-0.89 0,-1.32 z"
       id="path58"
       inkscape:connector-curvature="0"
       style="fill:#91ebc3" />
    <text
       xml:space="preserve"
       style="font-style:normal;font-weight:normal;font-size:40px;line-height:1.25;font-family:sans-serif;letter-spacing:0px;word-spacing:0px;fill:#000000;fill-opacity:1;stroke:none"
       x="177.91838"
       y="67.281464"
       id="text45"><tspan
         sodipodi:role="line"
         id="tspan43"
         x="177.91838"
         y="102.67209" /></text>
    <g
       aria-label="mycompany
infrance"
       style="font-style:normal;font-variant:normal;font-weight:bold;font-stretch:normal;font-size:40px;line-height:1.25;font-family:Montserrat;-inkscape-font-specification:'Montserrat, Bold';font-variant-ligatures:normal;font-variant-caps:normal;font-variant-numeric:normal;font-feature-settings:normal;text-align:start;letter-spacing:0px;word-spacing:0px;writing-mode:lr-tb;text-anchor:start;fill:#000000;fill-opacity:1;stroke:none"
       id="text49">
      <path
         d="m 188.06335,90.448359 c -4.16,0 -7.73334,1.653333 -10.02667,4.533333 -2.02667,-3.093333 -5.38667,-4.533333 -9.33334,-4.533333 -3.41333,0 -6.45333,1.173333 -8.64,3.52 v -3.04 h -9.65333 v 28.906671 h 10.13333 v -14.34667 c 0,-4.48 2.13334,-6.453334 5.12,-6.453334 2.72,0 4.37334,1.760004 4.37334,5.920004 v 14.88 h 10.13333 v -14.34667 c 0,-4.48 2.13334,-6.453334 5.06667,-6.453334 2.66667,0 4.37333,1.760004 4.37333,5.920004 v 14.88 h 10.13334 v -16.53334 c 0,-8.959998 -4.96,-12.853331 -11.68,-12.853331 z"
         style="font-style:normal;font-variant:normal;font-weight:800;font-stretch:normal;font-size:53.33333588px;font-family:Montserrat;-inkscape-font-specification:'Montserrat Ultra-Bold';letter-spacing:-1.70000005px;fill:#1e286e;fill-opacity:1"
         id="path29"
         inkscape:connector-curvature="0" />
      <path
         d="m 224.71835,90.928359 -7.14667,17.653331 -7.09333,-17.653331 h -10.4 l 12.37333,29.280001 c -0.85333,1.70667 -1.97333,2.45333 -3.94667,2.45333 -1.6,0 -3.30666,-0.64 -4.48,-1.70666 l -3.52,7.09333 c 1.92,1.6 5.33334,2.61333 8.37334,2.61333 5.70666,0 9.97333,-2.18666 13.01333,-9.65333 l 12.48,-30.080001 z"
         style="font-style:normal;font-variant:normal;font-weight:800;font-stretch:normal;font-size:53.33333588px;font-family:Montserrat;-inkscape-font-specification:'Montserrat Ultra-Bold';letter-spacing:-1.70000005px;fill:#1e286e;fill-opacity:1"
         id="path31"
         inkscape:connector-curvature="0" />
      <path
         d="m 249.17918,120.31503 c 6.56,0 11.57333,-2.93334 13.54667,-7.94667 l -7.84,-4 c -1.38667,2.72 -3.41334,3.89333 -5.76,3.89333 -3.52,0 -6.29334,-2.45333 -6.29334,-6.93333 0,-4.37333 2.77334,-6.826668 6.29334,-6.826668 2.34666,0 4.37333,1.173334 5.76,3.893338 l 7.84,-4.000004 c -1.97334,-5.013334 -6.98667,-7.946667 -13.54667,-7.946667 -9.70667,0 -16.58667,6.186667 -16.58667,14.880001 0,8.8 6.88,14.98667 16.58667,14.98667 z"
         style="font-style:normal;font-variant:normal;font-weight:800;font-stretch:normal;font-size:53.33333588px;font-family:Montserrat;-inkscape-font-specification:'Montserrat Ultra-Bold';letter-spacing:-1.70000005px;fill:#1e286e;fill-opacity:1"
         id="path33"
         inkscape:connector-curvature="0" />
      <path
         d="m 279.08752,120.31503 c 9.54666,0 16.32,-6.24 16.32,-14.98667 0,-8.693334 -6.77334,-14.880001 -16.32,-14.880001 -9.44,0 -16.32001,6.186667 -16.32001,14.880001 0,8.74667 6.88001,14.98667 16.32001,14.98667 z m 0,-8.05334 c -3.41334,0 -6.08,-2.50666 -6.08,-6.93333 0,-4.37333 2.66666,-6.826668 6.08,-6.826668 3.46666,0 6.08,2.453338 6.08,6.826668 0,4.42667 -2.61334,6.93333 -6.08,6.93333 z"
         style="font-style:normal;font-variant:normal;font-weight:800;font-stretch:normal;font-size:53.33333588px;font-family:Montserrat;-inkscape-font-specification:'Montserrat Ultra-Bold';letter-spacing:-1.70000005px;fill:#1e286e;fill-opacity:1"
         id="path35"
         inkscape:connector-curvature="0" />
      <path
         d="m 336.05501,90.448359 c -4.16,0 -7.73333,1.653333 -10.02666,4.533333 -2.02667,-3.093333 -5.38667,-4.533333 -9.33334,-4.533333 -3.41333,0 -6.45333,1.173333 -8.64,3.52 v -3.04 h -9.65333 v 28.906671 h 10.13333 v -14.34667 c 0,-4.48 2.13334,-6.453334 5.12,-6.453334 2.72,0 4.37334,1.760004 4.37334,5.920004 v 14.88 h 10.13333 v -14.34667 c 0,-4.48 2.13333,-6.453334 5.06667,-6.453334 2.66666,0 4.37333,1.760004 4.37333,5.920004 v 14.88 h 10.13334 v -16.53334 c 0,-8.959998 -4.96001,-12.853331 -11.68001,-12.853331 z"
         style="font-style:normal;font-variant:normal;font-weight:800;font-stretch:normal;font-size:53.33333588px;font-family:Montserrat;-inkscape-font-specification:'Montserrat Ultra-Bold';letter-spacing:-1.70000005px;fill:#1e286e;fill-opacity:1"
         id="path37"
         inkscape:connector-curvature="0" />
      <path
         d="m 370.61752,90.448359 c -3.78667,0 -6.61333,1.066666 -8.53333,3.36 v -2.88 h -9.65334 v 39.253331 h 10.13334 v -12.90666 c 1.97333,2.02666 4.69333,3.04 8.05333,3.04 7.84,0 14.18667,-5.76 14.18667,-14.93334 0,-9.173331 -6.34667,-14.933331 -14.18667,-14.933331 z m -2.13333,21.813331 c -3.41334,0 -6.08,-2.50666 -6.08,-6.88 0,-4.37333 2.66666,-6.879998 6.08,-6.879998 3.41333,0 6.08,2.506668 6.08,6.879998 0,4.37334 -2.66667,6.88 -6.08,6.88 z"
         style="font-style:normal;font-variant:normal;font-weight:800;font-stretch:normal;font-size:53.33333588px;font-family:Montserrat;-inkscape-font-specification:'Montserrat Ultra-Bold';letter-spacing:-1.70000005px;fill:#1e286e;fill-opacity:1"
         id="path39"
         inkscape:connector-curvature="0" />
      <path
         d="m 399.50919,90.448359 c -4.53334,0 -9.44,1.173333 -12.74667,3.36 l 3.41333,6.880001 c 1.97334,-1.546668 5.06667,-2.506668 7.84,-2.506668 4,0 5.97334,1.653334 6.13334,4.586668 h -5.76 c -8.96,0 -12.85334,3.30667 -12.85334,8.64 0,5.01333 3.84,8.90667 10.77334,8.90667 4.21333,0 7.09333,-1.44 8.53333,-4.21334 v 3.73334 h 9.44 v -16.05334 c 0,-9.173331 -5.38667,-13.333331 -14.77333,-13.333331 z m -0.37334,23.466671 c -2.4,0 -3.78666,-1.22667 -3.78666,-2.93334 0,-1.76 1.17333,-2.93333 4.42666,-2.93333 h 4.37334 v 2.50667 c -0.8,2.29333 -2.77334,3.36 -5.01334,3.36 z"
         style="font-style:normal;font-variant:normal;font-weight:800;font-stretch:normal;font-size:53.33333588px;font-family:Montserrat;-inkscape-font-specification:'Montserrat Ultra-Bold';letter-spacing:-1.70000005px;fill:#1e286e;fill-opacity:1"
         id="path41"
         inkscape:connector-curvature="0" />
      <path
         d="m 437.85753,90.448359 c -3.62667,0 -6.88,1.226666 -9.17334,3.626667 v -3.146667 h -9.65333 v 28.906671 h 10.13333 v -13.97334 c 0,-4.8 2.50667,-6.826664 5.76,-6.826664 2.93334,0 4.74667,1.760004 4.74667,5.920004 v 14.88 h 10.13334 v -16.53334 c 0,-8.959998 -5.17334,-12.853331 -11.94667,-12.853331 z"
         style="font-style:normal;font-variant:normal;font-weight:800;font-stretch:normal;font-size:53.33333588px;font-family:Montserrat;-inkscape-font-specification:'Montserrat Ultra-Bold';letter-spacing:-1.70000005px;fill:#1e286e;fill-opacity:1"
         id="path43"
         inkscape:connector-curvature="0" />
      <path
         d="m 474.69335,90.928359 -7.14667,17.653331 -7.09333,-17.653331 h -10.4 l 12.37333,29.280001 c -0.85333,1.70667 -1.97333,2.45333 -3.94666,2.45333 -1.60001,0 -3.30667,-0.64 -4.48001,-1.70666 l -3.52,7.09333 c 1.92,1.6 5.33334,2.61333 8.37334,2.61333 5.70667,0 9.97333,-2.18666 13.01333,-9.65333 l 12.48,-30.080001 z"
         style="font-style:normal;font-variant:normal;font-weight:800;font-stretch:normal;font-size:53.33333588px;font-family:Montserrat;-inkscape-font-specification:'Montserrat Ultra-Bold';letter-spacing:-1.70000005px;fill:#1e286e;fill-opacity:1"
         id="path45"
         inkscape:connector-curvature="0" />
      <path
         d="m 155.47668,144.59503 c 3.73333,0 6.18666,-2.34667 6.18666,-5.54667 0,-3.04 -2.45333,-5.22667 -6.18666,-5.22667 -3.73334,0 -6.18667,2.34667 -6.18667,5.38667 0,3.04 2.45333,5.38667 6.18667,5.38667 z m -5.06667,32.10667 h 10.13333 v -28.90667 h -10.13333 z"
         style="font-style:normal;font-variant:normal;font-weight:800;font-stretch:normal;font-size:53.33333588px;font-family:Montserrat;-inkscape-font-specification:'Montserrat Ultra-Bold';letter-spacing:-1.70000005px;fill:#1e286e;fill-opacity:1"
         id="path47"
         inkscape:connector-curvature="0" />
      <path
         d="m 184.20335,147.31503 c -3.62667,0 -6.88,1.22667 -9.17334,3.62667 v -3.14667 h -9.65333 v 28.90667 h 10.13333 v -13.97334 c 0,-4.8 2.50667,-6.82666 5.76,-6.82666 2.93334,0 4.74667,1.76 4.74667,5.92 v 14.88 h 10.13333 v -16.53334 c 0,-8.96 -5.17333,-12.85333 -11.94666,-12.85333 z"
         style="font-style:normal;font-variant:normal;font-weight:800;font-stretch:normal;font-size:53.33333588px;font-family:Montserrat;-inkscape-font-specification:'Montserrat Ultra-Bold';letter-spacing:-1.70000005px;fill:#1e286e;fill-opacity:1"
         id="path49"
         inkscape:connector-curvature="0" />
      <path
         d="m 211.80001,148.2217 c 0,-2.56001 1.22667,-3.78667 3.36,-3.78667 1.06667,0 2.18667,0.37333 3.04,0.85333 l 2.50667,-7.14667 c -1.65333,-1.01333 -4.26667,-1.49333 -6.72,-1.49333 -7.73333,0 -12.05333,4.53333 -12.05333,11.46667 v 0.74667 h -4.21334 v 7.57333 h 4.21334 v 20.26667 h 10.13333 v -20.26667 h 6.61333 v -7.57333 h -6.88 z"
         style="font-style:normal;font-variant:normal;font-weight:800;font-stretch:normal;font-size:53.33333588px;font-family:Montserrat;-inkscape-font-specification:'Montserrat Ultra-Bold';letter-spacing:-1.70000005px;fill:#1e286e;fill-opacity:1"
         id="path51"
         inkscape:connector-curvature="0" />
      <path
         d="m 234.65085,151.2617 v -3.46667 h -9.65333 v 28.90667 h 10.13333 v -13.28 c 0,-5.06667 2.82667,-7.14667 6.93334,-7.14667 0.74666,0 1.38666,0.0533 2.29333,0.16 v -9.12 c -4.26667,0 -7.62667,1.33333 -9.70667,3.94667 z"
         style="font-style:normal;font-variant:normal;font-weight:800;font-stretch:normal;font-size:53.33333588px;font-family:Montserrat;-inkscape-font-specification:'Montserrat Ultra-Bold';letter-spacing:-1.70000005px;fill:#1e286e;fill-opacity:1"
         id="path53"
         inkscape:connector-curvature="0" />
      <path
         d="m 258.95085,147.31503 c -4.53333,0 -9.44,1.17333 -12.74667,3.36 l 3.41334,6.88 c 1.97333,-1.54667 5.06666,-2.50667 7.84,-2.50667 4,0 5.97333,1.65334 6.13333,4.58667 h -5.76 c -8.96,0 -12.85333,3.30667 -12.85333,8.64 0,5.01333 3.84,8.90667 10.77333,8.90667 4.21334,0 7.09334,-1.44 8.53334,-4.21334 v 3.73334 h 9.44 v -16.05334 c 0,-9.17333 -5.38667,-13.33333 -14.77334,-13.33333 z m -0.37333,23.46667 c -2.4,0 -3.78667,-1.22667 -3.78667,-2.93334 0,-1.76 1.17333,-2.93333 4.42667,-2.93333 h 4.37333 v 2.50667 c -0.8,2.29333 -2.77333,3.36 -5.01333,3.36 z"
         style="font-style:normal;font-variant:normal;font-weight:800;font-stretch:normal;font-size:53.33333588px;font-family:Montserrat;-inkscape-font-specification:'Montserrat Ultra-Bold';letter-spacing:-1.70000005px;fill:#1e286e;fill-opacity:1"
         id="path55"
         inkscape:connector-curvature="0" />
      <path
         d="m 297.29918,147.31503 c -3.62667,0 -6.88,1.22667 -9.17334,3.62667 v -3.14667 h -9.65333 v 28.90667 h 10.13333 v -13.97334 c 0,-4.8 2.50667,-6.82666 5.76,-6.82666 2.93334,0 4.74667,1.76 4.74667,5.92 v 14.88 h 10.13334 v -16.53334 c 0,-8.96 -5.17334,-12.85333 -11.94667,-12.85333 z"
         style="font-style:normal;font-variant:normal;font-weight:800;font-stretch:normal;font-size:53.33333588px;font-family:Montserrat;-inkscape-font-specification:'Montserrat Ultra-Bold';letter-spacing:-1.70000005px;fill:#1e286e;fill-opacity:1"
         id="path57"
         inkscape:connector-curvature="0" />
      <path
         d="m 329.04585,177.1817 c 6.56,0 11.57333,-2.93334 13.54667,-7.94667 l -7.84001,-4 c -1.38666,2.72 -3.41333,3.89333 -5.76,3.89333 -3.52,0 -6.29333,-2.45333 -6.29333,-6.93333 0,-4.37333 2.77333,-6.82667 6.29333,-6.82667 2.34667,0 4.37334,1.17334 5.76,3.89334 l 7.84001,-4 c -1.97334,-5.01334 -6.98667,-7.94667 -13.54667,-7.94667 -9.70667,0 -16.58667,6.18667 -16.58667,14.88 0,8.8 6.88,14.98667 16.58667,14.98667 z"
         style="font-style:normal;font-variant:normal;font-weight:800;font-stretch:normal;font-size:53.33333588px;font-family:Montserrat;-inkscape-font-specification:'Montserrat Ultra-Bold';letter-spacing:-1.70000005px;fill:#1e286e;fill-opacity:1"
         id="path59"
         inkscape:connector-curvature="0" />
      <path
         d="m 373.99418,162.3017 c 0,-9.54667 -6.93333,-14.98667 -15.46666,-14.98667 -9.12,0 -15.89334,6.18667 -15.89334,14.88 0,8.64 6.66667,14.98667 16.96,14.98667 5.49334,0 9.54667,-1.6 12.32,-4.69334 l -5.33333,-5.54666 c -1.97333,1.70666 -3.84,2.50666 -6.66667,2.50666 -3.73333,0 -6.24,-1.70666 -7.09333,-4.64 h 21.01333 c 0.0533,-0.8 0.16,-1.76 0.16,-2.50666 z m -15.41333,-7.78667 c 3.14667,0 5.38667,1.92 5.92,4.96 h -11.84 c 0.58667,-3.04 2.77333,-4.96 5.92,-4.96 z"
         style="font-style:normal;font-variant:normal;font-weight:800;font-stretch:normal;font-size:53.33333588px;font-family:Montserrat;-inkscape-font-specification:'Montserrat Ultra-Bold';letter-spacing:-1.70000005px;fill:#1e286e;fill-opacity:1"
         id="path61"
         inkscape:connector-curvature="0" />
    </g>
    <flowRoot
       xml:space="preserve"
       id="flowRoot53"
       style="font-style:normal;font-variant:normal;font-weight:bold;font-stretch:normal;font-size:40px;line-height:1.25;font-family:Montserrat;-inkscape-font-specification:'Montserrat, Bold';font-variant-ligatures:normal;font-variant-caps:normal;font-variant-numeric:normal;font-feature-settings:normal;text-align:start;letter-spacing:0px;word-spacing:0px;writing-mode:lr-tb;text-anchor:start;fill:#000000;fill-opacity:1;stroke:none"><flowRegion
         id="flowRegion55"><rect
           id="rect57"
           width="383.73932"
           height="181.44196"
           x="88.635437"
           y="32.056705" /></flowRegion><flowPara
         id="flowPara59" /></flowRoot>    <flowRoot
       xml:space="preserve"
       id="flowRoot64"
       style="font-style:normal;font-variant:normal;font-weight:bold;font-stretch:normal;font-size:40px;line-height:1.25;font-family:Montserrat;-inkscape-font-specification:'Montserrat, Bold';font-variant-ligatures:normal;font-variant-caps:normal;font-variant-numeric:normal;font-feature-settings:normal;text-align:start;letter-spacing:0px;word-spacing:0px;writing-mode:lr-tb;text-anchor:start;fill:#000000;fill-opacity:1;stroke:none"
       transform="translate(39.23,24.797337)"><flowRegion
         id="flowRegion66"><rect
           id="rect68"
           width="136.08147"
           height="61.002033"
           x="114.1833"
           y="74.697998" /></flowRegion><flowPara
         id="flowPara70"></flowPara></flowRoot>  </g>
</svg>
