<svg id="f06edc81-4a62-45f3-bfaf-6df515fbd4c8" data-name="Layer 1" xmlns="http://www.w3.org/2000/svg" xmlns:xlink="http://www.w3.org/1999/xlink" width="1118" height="802.82" viewBox="0 0 1118 802.82"><defs><linearGradient id="2d432668-a788-4fa4-adaa-7bb8c6eae655" x1="882.02" y1="830.64" x2="882.02" y2="326.6" gradientUnits="userSpaceOnUse"><stop offset="0" stop-color="gray" stop-opacity="0.25"/><stop offset="0.54" stop-color="gray" stop-opacity="0.12"/><stop offset="1" stop-color="gray" stop-opacity="0.1"/></linearGradient></defs><title>savings</title><ellipse cx="559" cy="734.87" rx="559" ry="67.95" fill="#6c63ff" opacity="0.1"/><path d="M997.49,816.77s29.15-37.1,26.79-73.91a71.52,71.52,0,0,1,11.25-43.8,121.69,121.69,0,0,1,13.7-17.2" transform="translate(-41 -48.59)" fill="none" stroke="#535461" stroke-miterlimit="10" stroke-width="2"/><path d="M1047.89,658.66c-2.06,5.15,1.31,23.81,1.31,23.81s15.29-11.21,17.34-16.37a10,10,0,1,0-18.65-7.44Z" transform="translate(-41 -48.59)" fill="#6c63ff"/><path d="M1021.08,681.05c1.07,5.44,14,19.27,14,19.27s6.74-17.72,5.67-23.17a10,10,0,0,0-19.71,3.9Z" transform="translate(-41 -48.59)" fill="#6c63ff"/><path d="M1002.29,730.08c3.68,4.16,21.86,9.55,21.86,9.55s-3.13-18.7-6.81-22.86a10,10,0,0,0-15.05,13.31Z" transform="translate(-41 -48.59)" fill="#6c63ff"/><path d="M996.44,770.38c2.92,4.72,19.92,13.11,19.92,13.11s.08-19-2.84-23.68a10,10,0,0,0-17.08,10.57Z" transform="translate(-41 -48.59)" fill="#6c63ff"/><path d="M1054.31,709.14c-5.13,2.11-23.83-1-23.83-1s11-15.42,16.17-17.53a10,10,0,1,1,7.66,18.57Z" transform="translate(-41 -48.59)" fill="#6c63ff"/><path d="M1046.86,756.18c-5.52.49-22.42-8.11-22.42-8.11s15.14-11.41,20.67-11.9a10,10,0,0,1,1.75,20Z" transform="translate(-41 -48.59)" fill="#6c63ff"/><path d="M1033.35,800.92c-5.37,1.41-23.48-4.21-23.48-4.21s13-13.81,18.37-15.22a10,10,0,1,1,5.11,19.43Z" transform="translate(-41 -48.59)" fill="#6c63ff"/><path d="M1047.89,658.66c-2.06,5.15,1.31,23.81,1.31,23.81s15.29-11.21,17.34-16.37a10,10,0,1,0-18.65-7.44Z" transform="translate(-41 -48.59)" opacity="0.25"/><path d="M1021.08,681.05c1.07,5.44,14,19.27,14,19.27s6.74-17.72,5.67-23.17a10,10,0,0,0-19.71,3.9Z" transform="translate(-41 -48.59)" opacity="0.25"/><path d="M1002.29,730.08c3.68,4.16,21.86,9.55,21.86,9.55s-3.13-18.7-6.81-22.86a10,10,0,0,0-15.05,13.31Z" transform="translate(-41 -48.59)" opacity="0.25"/><path d="M996.44,770.38c2.92,4.72,19.92,13.11,19.92,13.11s.08-19-2.84-23.68a10,10,0,0,0-17.08,10.57Z" transform="translate(-41 -48.59)" opacity="0.25"/><path d="M1054.31,709.14c-5.13,2.11-23.83-1-23.83-1s11-15.42,16.17-17.53a10,10,0,1,1,7.66,18.57Z" transform="translate(-41 -48.59)" opacity="0.25"/><path d="M1046.86,756.18c-5.52.49-22.42-8.11-22.42-8.11s15.14-11.41,20.67-11.9a10,10,0,0,1,1.75,20Z" transform="translate(-41 -48.59)" opacity="0.25"/><path d="M1033.35,800.92c-5.37,1.41-23.48-4.21-23.48-4.21s13-13.81,18.37-15.22a10,10,0,1,1,5.11,19.43Z" transform="translate(-41 -48.59)" opacity="0.25"/><path d="M997.73,815.22s41.69-22.1,54.45-56.7a71.54,71.54,0,0,1,28-35.49,120.33,120.33,0,0,1,19.5-10.17" transform="translate(-41 -48.59)" fill="none" stroke="#535461" stroke-miterlimit="10" stroke-width="2"/><path d="M1107.88,691.1c-4,3.88-8.45,22.3-8.45,22.3s18.52-4.06,22.49-7.93a10,10,0,0,0-14-14.37Z" transform="translate(-41 -48.59)" fill="#6c63ff"/><path d="M1074.3,700.7c-1.22,5.41,5,23.32,5,23.32s13.34-13.48,14.56-18.89a10,10,0,0,0-19.59-4.43Z" transform="translate(-41 -48.59)" fill="#6c63ff"/><path d="M1037.26,737.92c1.67,5.29,16.11,17.59,16.11,17.59s4.71-18.37,3-23.66a10,10,0,1,0-19.15,6.07Z" transform="translate(-41 -48.59)" fill="#6c63ff"/><path d="M1015.57,772.39c.76,5.5,12.91,20.06,12.91,20.06s7.75-17.31,7-22.8a10,10,0,1,0-19.9,2.74Z" transform="translate(-41 -48.59)" fill="#6c63ff"/><path d="M1093.3,739.85c-5.55-.14-21.37-10.6-21.37-10.6s16.35-9.62,21.89-9.48a10,10,0,1,1-.52,20.08Z" transform="translate(-41 -48.59)" fill="#6c63ff"/><path d="M1067.43,779.84c-5.25-1.79-17.22-16.5-17.22-16.5s18.47-4.3,23.72-2.5a10,10,0,1,1-6.5,19Z" transform="translate(-41 -48.59)" fill="#6c63ff"/><path d="M1036.94,815.26c-5.47-.88-19.75-13.36-19.75-13.36s17.48-7.35,23-6.47a10,10,0,1,1-3.2,19.83Z" transform="translate(-41 -48.59)" fill="#6c63ff"/><path d="M678.14,143.67c-55.24-1.92-107.85-19.75-158.08-39.26S420.06,63.28,366.14,53c-34.67-6.65-74.33-7.59-102.27,11C237,81.84,228.3,112.72,223.63,141.38c-3.52,21.56-5.59,44.25,4,64.43,6.69,14,18.56,25.8,26.77,39.22,28.56,46.7,8.37,104.29-22.58,149.9-14.52,21.39-31.36,41.79-42.57,64.57s-16.38,48.86-6.58,72.09c9.72,23,32.87,40.32,57.95,52.48,50.94,24.71,111,31.78,169.51,35.78,129.58,8.87,259.85,5,389.77,1.18,48.09-1.42,96.38-2.86,143.68-10.29,26.27-4.13,53.39-10.69,72.45-26.51,24.21-20.08,30.21-54.09,14-79.27-27.21-42.24-102.44-52.73-121.46-98.06-10.46-24.95.29-52.74,15.5-75.88,32.63-49.65,87.33-93.2,90.22-149.94,2-39-24.32-78-65-96.44-42.62-19.32-101.72-16.89-133.16,15.1C783.81,132.69,726.91,145.36,678.14,143.67Z" transform="translate(-41 -48.59)" fill="#6c63ff" opacity="0.1"/><path d="M634,365.12H609.13a53.14,53.14,0,0,1,.36-5.74c.78-6.78,3.18-17.78,10.62-22.94,6.95-4.82,16,2.45,12.45,10.14l-.09.21c-1.33,2.78-1.37,6.24-.93,9.41A39.4,39.4,0,0,0,634,365.12Z" transform="translate(-41 -48.59)" fill="#6c63ff"/><path d="M634,365.12H609.13a53.14,53.14,0,0,1,.36-5.74,52.06,52.06,0,0,1,22-3.18A39.4,39.4,0,0,0,634,365.12Z" transform="translate(-41 -48.59)" opacity="0.1"/><path d="M650.13,391.45c-6.45,5.25-15.47,5.33-24.7,3.08-18.9-4.62-38.63-19.08-38.63-19.08a44.12,44.12,0,0,1,4.32-4.18c7.78-6.68,25.61-18.49,49.48-12.62a24.44,24.44,0,0,1,14.45,9.66C659,374.09,661.06,382.56,650.13,391.45Z" transform="translate(-41 -48.59)" fill="#6c63ff"/><path d="M642.53,380.92s-14.38-12.25-34.19,4" transform="translate(-41 -48.59)" opacity="0.1"/><path d="M238.14,484.12s-46.34-35.66-48.67-3.33,9.33,62.67,19.33,65.33S238.14,484.12,238.14,484.12Z" transform="translate(-41 -48.59)" fill="#6c63ff"/><path d="M238.14,484.12s-46.34-35.66-48.67-3.33,9.33,62.67,19.33,65.33S238.14,484.12,238.14,484.12Z" transform="translate(-41 -48.59)" opacity="0.2"/><path d="M207.8,495.46s1.09,29.75,10.34,25S213.8,496.79,207.8,495.46Z" transform="translate(-41 -48.59)" opacity="0.1"/><path d="M352,737.65a54.35,54.35,0,0,1-5,13.15c-.57,1.08-1.19,2.19-1.87,3.32C334.22,772.26,309,779.79,309,775.79s-2.49-14.34-8.83-11.34-16,2.34-16,2.34c-17.45-1.33-14.5-18.53-8.72-33.1a134.21,134.21,0,0,1,6.58-14c2.18-4,3.81-6.62,3.81-6.62l66.67,10.67S354,729,352,737.65Z" transform="translate(-41 -48.59)" fill="#6c63ff"/><path d="M625.43,394.53c-18.9-4.62-38.63-19.08-38.63-19.08a44.12,44.12,0,0,1,4.32-4.18q4.32,2.28,8.68,4.85A165,165,0,0,1,625.43,394.53Z" transform="translate(-41 -48.59)" opacity="0.1"/><path d="M352,737.65c-18.09-1.62-44.29-6.07-70-17.91,2.18-4,3.81-6.62,3.81-6.62l66.67,10.67S354,729,352,737.65Z" transform="translate(-41 -48.59)" opacity="0.1"/><path d="M632.8,651.12s-1.2,21.37-13.26,45.52a115.43,115.43,0,0,1-41.41,46.48s-10.66,8.67-11.33-15.33c0,0-4.67-5-36.67,16.85,0,0-19.31,11.8-14-37.43,0,0,0-.06,0-.09s-.48.31-1.36.84l-.06,0c-2.28,1.4-7.12,4.27-12.88,7.16-10.55,5.3-24.22,10.69-31,7.29A102,102,0,0,1,459.49,758c-6.72,12.23-17.32,24.19-33.92,29.59a23.85,23.85,0,0,1-24.2-5.9l-1.9-1.9s-14.67,10-22,6.66-13.34-12.66-3.34-30c0,0,.53-1.44,1.18-3.55,1.63-5.35,4-15,.16-16.45,0,0-155.34,8-176-130s116-188.66,154.66-183.33c0,0,102.67-129.33,244.67-46S632.8,651.12,632.8,651.12Z" transform="translate(-41 -48.59)" fill="#6c63ff"/><path d="M354.13,423.12s169.22-.66,157.61,218.67" transform="translate(-41 -48.59)" fill="none" stroke="#000" stroke-miterlimit="10" opacity="0.1"/><path d="M347,750.8c-.57,1.08-1.19,2.19-1.87,3.32C334.22,772.26,309,779.79,309,775.79s-2.49-14.34-8.83-11.34-16,2.34-16,2.34c-17.45-1.33-14.5-18.53-8.72-33.1C291.81,741.9,321.4,754.13,347,750.8Z" transform="translate(-41 -48.59)" opacity="0.2"/><path d="M459.49,758c-6.72,12.23-17.32,24.19-33.92,29.59a23.85,23.85,0,0,1-24.2-5.9l-1.9-1.9s-14.67,10-22,6.66-13.34-12.66-3.34-30c0,0,.53-1.44,1.18-3.55C388.38,757.51,423,767.32,459.49,758Z" transform="translate(-41 -48.59)" opacity="0.2"/><path d="M516.13,707.12c60.33-31.33,70.67-56.33,70.67-56.33" transform="translate(-41 -48.59)" opacity="0.1"/><path d="M619.54,696.64a115.43,115.43,0,0,1-41.41,46.48s-10.66,8.67-11.33-15.33c0,0-4.67-5-36.67,16.85,0,0-19.31,11.8-14-37.43l16-8.87C566.61,717.51,601.25,705.82,619.54,696.64Z" transform="translate(-41 -48.59)" opacity="0.2"/><path d="M372.14,442.46s34-52,59.66-35.67-4.66,77.33-4.66,77.33S376.8,483.12,372.14,442.46Z" transform="translate(-41 -48.59)" fill="#6c63ff"/><path d="M372.14,442.46s34-52,59.66-35.67-4.66,77.33-4.66,77.33S376.8,483.12,372.14,442.46Z" transform="translate(-41 -48.59)" opacity="0.2"/><path d="M427.47,428.12s-44.67,21.67-31,34.34S427.47,428.12,427.47,428.12Z" transform="translate(-41 -48.59)" opacity="0.1"/><path d="M545.8,369.45a185.62,185.62,0,0,0-33.75,6l-.31.09c-15.64,4.35-33.4,11.67-45.61,23.88,0,0-28.33-12-36-10,0,0,23-27.95,84.85-28.66h.15S531.13,362.12,545.8,369.45Z" transform="translate(-41 -48.59)" fill="none"/><ellipse cx="308.19" cy="588.78" rx="62.39" ry="51.67" transform="translate(-165.56 35.84) rotate(-13)" opacity="0.1"/><ellipse cx="308.19" cy="586.78" rx="62.39" ry="51.67" transform="translate(-165.11 35.79) rotate(-13)" fill="#6c63ff"/><ellipse cx="308.19" cy="586.78" rx="62.39" ry="51.67" transform="translate(-165.11 35.79) rotate(-13)" opacity="0.2"/><path d="M281.8,586.78s.67,19.34,6.34,13.68S288.47,586.76,281.8,586.78Z" transform="translate(-41 -48.59)" opacity="0.1"/><path d="M314.14,572.06s.66,19.34,6.33,13.68S320.8,572,314.14,572.06Z" transform="translate(-41 -48.59)" opacity="0.1"/><path d="M368.86,682.79s13.94,13.67,30.94-5.33" transform="translate(-41 -48.59)" opacity="0.1"/><path d="M430.13,389.45c7.67-2,36,10,36,10,12.21-12.21,30-19.53,45.61-23.88L515,360.79C453.09,361.5,430.13,389.45,430.13,389.45Z" transform="translate(-41 -48.59)" opacity="0.15"/><path d="M515.13,360.79l-3.08,14.69a185.62,185.62,0,0,1,33.75-6C531.13,362.12,515.13,360.79,515.13,360.79Z" transform="translate(-41 -48.59)" opacity="0.3"/><path d="M515,360.79l-3.24,14.78.31-.09,3.08-14.69Z" transform="translate(-41 -48.59)" opacity="0.15"/><g opacity="0.1"><path d="M381.13,762.71s.53-1.44,1.18-3.55c1.63-5.35,4-15,.16-16.45,0,0-1.78.09-5,.08a49.55,49.55,0,0,1-2.17,10.37c-.65,2.11-1.18,3.55-1.18,3.55-10,17.34-4,26.67,3.34,30l.39.14C374.9,781.8,374.66,773.93,381.13,762.71Z" transform="translate(-41 -48.59)" fill="#fff"/><path d="M206.47,612.71C185.8,474.71,326.87,418.63,365.53,424l-11.4-.58c-38.66-5.33-175.33,45.33-154.66,183.33,6.5,43.39,26.32,72.34,50.43,91.65C229,679.2,212.33,651.82,206.47,612.71Z" transform="translate(-41 -48.59)" fill="#fff"/><path d="M523.12,713.47s0-.06,0-.09-.48.31-1.36.84l-.06,0c-1.35.82-3.6,2.17-6.4,3.73-1,22.75,4.89,27.68,9.52,28.11C522.47,740.75,521.24,731,523.12,713.47Z" transform="translate(-41 -48.59)" fill="#fff"/><path d="M573.8,734.05s-1.2-1.27-6.5.3c1.38,9.92,5.2,11,7.92,10.41A42,42,0,0,1,573.8,734.05Z" transform="translate(-41 -48.59)" fill="#fff"/></g><path d="M375.47,736.45s86.67-5.33,95.33-14" transform="translate(-41 -48.59)" opacity="0.1"/><ellipse cx="542.56" cy="664.53" rx="37.56" ry="39.87" fill="#fbd56f"/><ellipse cx="542.56" cy="664.53" rx="37.56" ry="39.87" opacity="0.1"/><ellipse cx="549.04" cy="665.42" rx="37.56" ry="38.98" fill="#fbd56f"/><path d="M605.26,749.33l-3.91-2.17s-1.83,7.62-1.23,13.06a2.71,2.71,0,0,0,2,2.34c9,2.23,51.82,11.74,81.28-1.66a2.68,2.68,0,0,0,1.56-2.17c.37-3.34-.91-10.23-1.42-11.57C682.47,744.27,605.26,749.33,605.26,749.33Z" transform="translate(-41 -48.59)" fill="#fbd56f"/><path d="M605.26,749.33l-3.91-2.17s-1.83,7.62-1.23,13.06a2.71,2.71,0,0,0,2,2.34c9,2.23,51.82,11.74,81.28-1.66a2.68,2.68,0,0,0,1.56-2.17c.37-3.34-.91-10.23-1.42-11.57C682.47,744.27,605.26,749.33,605.26,749.33Z" transform="translate(-41 -48.59)" opacity="0.1"/><ellipse cx="601.46" cy="698.57" rx="41.11" ry="9.27" fill="#fbd56f"/><path d="M621,735.66l-3.9-2.17s-1.83,7.62-1.23,13.06a2.69,2.69,0,0,0,2,2.33c9,2.24,51.82,11.75,81.28-1.65a2.7,2.7,0,0,0,1.56-2.17c.36-3.34-.92-10.23-1.43-11.57C698.17,730.6,621,735.66,621,735.66Z" transform="translate(-41 -48.59)" fill="#fbd56f"/><path d="M621,735.66l-3.9-2.17s-1.83,7.62-1.23,13.06a2.69,2.69,0,0,0,2,2.33c9,2.24,51.82,11.75,81.28-1.65a2.7,2.7,0,0,0,1.56-2.17c.36-3.34-.92-10.23-1.43-11.57C698.17,730.6,621,735.66,621,735.66Z" transform="translate(-41 -48.59)" opacity="0.1"/><ellipse cx="617.16" cy="684.9" rx="41.11" ry="9.27" fill="#fbd56f"/><path d="M634.85,717.69l-3.91-2.17s-1.83,7.62-1.23,13.06a2.71,2.71,0,0,0,2,2.34c9,2.23,51.83,11.74,81.28-1.66a2.71,2.71,0,0,0,1.57-2.17c.36-3.34-.92-10.23-1.43-11.57C712.06,712.63,634.85,717.69,634.85,717.69Z" transform="translate(-41 -48.59)" fill="#fbd56f"/><path d="M634.85,717.69l-3.91-2.17s-1.83,7.62-1.23,13.06a2.71,2.71,0,0,0,2,2.34c9,2.23,51.83,11.74,81.28-1.66a2.71,2.71,0,0,0,1.57-2.17c.36-3.34-.92-10.23-1.43-11.57C712.06,712.63,634.85,717.69,634.85,717.69Z" transform="translate(-41 -48.59)" opacity="0.1"/><ellipse cx="631.05" cy="666.93" rx="41.11" ry="9.27" fill="#fbd56f"/><path d="M619.47,699l-3.91-2.18s-1.82,7.63-1.23,13.06a2.72,2.72,0,0,0,2,2.34c9,2.23,51.82,11.74,81.27-1.65a2.7,2.7,0,0,0,1.57-2.17c.36-3.34-.92-10.23-1.43-11.58C696.68,693.92,619.47,699,619.47,699Z" transform="translate(-41 -48.59)" fill="#fbd56f"/><path d="M619.47,699l-3.91-2.18s-1.82,7.63-1.23,13.06a2.72,2.72,0,0,0,2,2.34c9,2.23,51.82,11.74,81.27-1.65a2.7,2.7,0,0,0,1.57-2.17c.36-3.34-.92-10.23-1.43-11.58C696.68,693.92,619.47,699,619.47,699Z" transform="translate(-41 -48.59)" opacity="0.1"/><ellipse cx="615.67" cy="648.22" rx="41.11" ry="9.27" fill="#fbd56f"/><path d="M654.06,684l-3.9-2.18s-1.83,7.63-1.23,13.06a2.7,2.7,0,0,0,2,2.34c9,2.23,51.82,11.74,81.27-1.65a2.72,2.72,0,0,0,1.57-2.17c.36-3.34-.92-10.24-1.43-11.58C731.27,678.91,654.06,684,654.06,684Z" transform="translate(-41 -48.59)" fill="#fbd56f"/><path d="M654.06,684l-3.9-2.18s-1.83,7.63-1.23,13.06a2.7,2.7,0,0,0,2,2.34c9,2.23,51.82,11.74,81.27-1.65a2.72,2.72,0,0,0,1.57-2.17c.36-3.34-.92-10.24-1.43-11.58C731.27,678.91,654.06,684,654.06,684Z" transform="translate(-41 -48.59)" opacity="0.1"/><ellipse cx="650.26" cy="633.21" rx="41.11" ry="9.27" fill="#fbd56f"/><path d="M630.69,673.89l-3.91-2.18s-1.82,7.63-1.23,13.06a2.72,2.72,0,0,0,2,2.34c9,2.23,51.82,11.74,81.27-1.65a2.7,2.7,0,0,0,1.57-2.17c.36-3.34-.92-10.24-1.43-11.58C707.9,668.82,630.69,673.89,630.69,673.89Z" transform="translate(-41 -48.59)" fill="#fbd56f"/><path d="M630.69,673.89l-3.91-2.18s-1.82,7.63-1.23,13.06a2.72,2.72,0,0,0,2,2.34c9,2.23,51.82,11.74,81.27-1.65a2.7,2.7,0,0,0,1.57-2.17c.36-3.34-.92-10.24-1.43-11.58C707.9,668.82,630.69,673.89,630.69,673.89Z" transform="translate(-41 -48.59)" opacity="0.1"/><ellipse cx="626.89" cy="623.12" rx="41.11" ry="9.27" fill="#fbd56f"/><path d="M646.29,654.41l-3.9-2.18s-1.83,7.63-1.23,13.06a2.7,2.7,0,0,0,2,2.34c9,2.23,51.82,11.74,81.28-1.65a2.69,2.69,0,0,0,1.56-2.17c.36-3.34-.92-10.23-1.43-11.58C723.51,649.34,646.29,654.41,646.29,654.41Z" transform="translate(-41 -48.59)" fill="#fbd56f"/><path d="M646.29,654.41l-3.9-2.18s-1.83,7.63-1.23,13.06a2.7,2.7,0,0,0,2,2.34c9,2.23,51.82,11.74,81.28-1.65a2.69,2.69,0,0,0,1.56-2.17c.36-3.34-.92-10.23-1.43-11.58C723.51,649.34,646.29,654.41,646.29,654.41Z" transform="translate(-41 -48.59)" opacity="0.1"/><ellipse cx="642.5" cy="603.64" rx="41.11" ry="9.27" fill="#fbd56f"/><path d="M654,631.29l-3.91-2.18s-1.82,7.63-1.23,13.06a2.72,2.72,0,0,0,2,2.34c9,2.23,51.82,11.74,81.27-1.65a2.7,2.7,0,0,0,1.57-2.17c.36-3.34-.92-10.23-1.43-11.58C731.2,626.22,654,631.29,654,631.29Z" transform="translate(-41 -48.59)" fill="#fbd56f"/><path d="M654,631.29l-3.91-2.18s-1.82,7.63-1.23,13.06a2.72,2.72,0,0,0,2,2.34c9,2.23,51.82,11.74,81.27-1.65a2.7,2.7,0,0,0,1.57-2.17c.36-3.34-.92-10.23-1.43-11.58C731.2,626.22,654,631.29,654,631.29Z" transform="translate(-41 -48.59)" opacity="0.1"/><ellipse cx="650.19" cy="580.52" rx="41.11" ry="9.27" fill="#fbd56f"/><path d="M723.39,754.7l-3.91-2.18s-1.83,7.63-1.23,13.06a2.71,2.71,0,0,0,2,2.34c9,2.23,51.82,11.74,81.28-1.65a2.71,2.71,0,0,0,1.56-2.18c.37-3.34-.91-10.23-1.42-11.57C800.6,749.63,723.39,754.7,723.39,754.7Z" transform="translate(-41 -48.59)" fill="#fbd56f"/><path d="M723.39,754.7l-3.91-2.18s-1.83,7.63-1.23,13.06a2.71,2.71,0,0,0,2,2.34c9,2.23,51.82,11.74,81.28-1.65a2.71,2.71,0,0,0,1.56-2.18c.37-3.34-.91-10.23-1.42-11.57C800.6,749.63,723.39,754.7,723.39,754.7Z" transform="translate(-41 -48.59)" opacity="0.1"/><ellipse cx="719.59" cy="703.93" rx="41.11" ry="9.27" fill="#fbd56f"/><path d="M737.27,736.73l-3.91-2.18s-1.82,7.63-1.23,13.06a2.72,2.72,0,0,0,2,2.34c9,2.23,51.82,11.74,81.27-1.65a2.7,2.7,0,0,0,1.57-2.17c.36-3.34-.92-10.24-1.43-11.58C814.48,731.66,737.27,736.73,737.27,736.73Z" transform="translate(-41 -48.59)" fill="#fbd56f"/><path d="M737.27,736.73l-3.91-2.18s-1.82,7.63-1.23,13.06a2.72,2.72,0,0,0,2,2.34c9,2.23,51.82,11.74,81.27-1.65a2.7,2.7,0,0,0,1.57-2.17c.36-3.34-.92-10.24-1.43-11.58C814.48,731.66,737.27,736.73,737.27,736.73Z" transform="translate(-41 -48.59)" opacity="0.1"/><ellipse cx="733.47" cy="685.96" rx="41.11" ry="9.27" fill="#fbd56f"/><path d="M721.89,718l-3.9-2.17s-1.83,7.62-1.23,13.06a2.69,2.69,0,0,0,2,2.33c9,2.24,51.82,11.75,81.28-1.65a2.68,2.68,0,0,0,1.56-2.17c.36-3.34-.92-10.23-1.43-11.57C799.11,713,721.89,718,721.89,718Z" transform="translate(-41 -48.59)" fill="#fbd56f"/><path d="M721.89,718l-3.9-2.17s-1.83,7.62-1.23,13.06a2.69,2.69,0,0,0,2,2.33c9,2.24,51.82,11.75,81.28-1.65a2.68,2.68,0,0,0,1.56-2.17c.36-3.34-.92-10.23-1.43-11.57C799.11,713,721.89,718,721.89,718Z" transform="translate(-41 -48.59)" opacity="0.1"/><ellipse cx="718.1" cy="667.26" rx="41.11" ry="9.27" fill="#fbd56f"/><path d="M756.49,703l-3.91-2.17s-1.83,7.62-1.23,13a2.7,2.7,0,0,0,2,2.34c9,2.24,51.82,11.74,81.28-1.65a2.68,2.68,0,0,0,1.56-2.17c.36-3.34-.91-10.23-1.42-11.57C833.7,698,756.49,703,756.49,703Z" transform="translate(-41 -48.59)" fill="#fbd56f"/><path d="M756.49,703l-3.91-2.17s-1.83,7.62-1.23,13a2.7,2.7,0,0,0,2,2.34c9,2.24,51.82,11.74,81.28-1.65a2.68,2.68,0,0,0,1.56-2.17c.36-3.34-.91-10.23-1.42-11.57C833.7,698,756.49,703,756.49,703Z" transform="translate(-41 -48.59)" opacity="0.1"/><ellipse cx="752.69" cy="652.25" rx="41.11" ry="9.27" fill="#fbd56f"/><path d="M733.11,692.92l-3.9-2.17s-1.83,7.62-1.23,13.06a2.7,2.7,0,0,0,2,2.33c9,2.24,51.82,11.74,81.28-1.65a2.68,2.68,0,0,0,1.56-2.17c.36-3.34-.92-10.23-1.43-11.57C810.33,687.86,733.11,692.92,733.11,692.92Z" transform="translate(-41 -48.59)" fill="#fbd56f"/><path d="M733.11,692.92l-3.9-2.17s-1.83,7.62-1.23,13.06a2.7,2.7,0,0,0,2,2.33c9,2.24,51.82,11.74,81.28-1.65a2.68,2.68,0,0,0,1.56-2.17c.36-3.34-.92-10.23-1.43-11.57C810.33,687.86,733.11,692.92,733.11,692.92Z" transform="translate(-41 -48.59)" opacity="0.1"/><ellipse cx="729.32" cy="642.16" rx="41.11" ry="9.27" fill="#fbd56f"/><path d="M748.72,673.44l-3.91-2.17s-1.83,7.62-1.23,13.06a2.71,2.71,0,0,0,2,2.34c9,2.23,51.82,11.74,81.27-1.66a2.71,2.71,0,0,0,1.57-2.17c.36-3.34-.92-10.23-1.43-11.57C825.93,668.38,748.72,673.44,748.72,673.44Z" transform="translate(-41 -48.59)" fill="#fbd56f"/><path d="M748.72,673.44l-3.91-2.17s-1.83,7.62-1.23,13.06a2.71,2.71,0,0,0,2,2.34c9,2.23,51.82,11.74,81.27-1.66a2.71,2.71,0,0,0,1.57-2.17c.36-3.34-.92-10.23-1.43-11.57C825.93,668.38,748.72,673.44,748.72,673.44Z" transform="translate(-41 -48.59)" opacity="0.1"/><ellipse cx="744.92" cy="622.68" rx="41.11" ry="9.27" fill="#fbd56f"/><path d="M756.41,650.32l-3.9-2.17s-1.83,7.62-1.23,13.06a2.71,2.71,0,0,0,2,2.34c9,2.23,51.82,11.74,81.28-1.66a2.68,2.68,0,0,0,1.56-2.17c.36-3.34-.92-10.23-1.43-11.57C833.63,645.26,756.41,650.32,756.41,650.32Z" transform="translate(-41 -48.59)" fill="#fbd56f"/><path d="M756.41,650.32l-3.9-2.17s-1.83,7.62-1.23,13.06a2.71,2.71,0,0,0,2,2.34c9,2.23,51.82,11.74,81.28-1.66a2.68,2.68,0,0,0,1.56-2.17c.36-3.34-.92-10.23-1.43-11.57C833.63,645.26,756.41,650.32,756.41,650.32Z" transform="translate(-41 -48.59)" opacity="0.1"/><ellipse cx="752.62" cy="599.56" rx="41.11" ry="9.27" fill="#fbd56f"/><path d="M449.6,363c0-21.52,16.81-39,37.56-39a36.83,36.83,0,0,1,6.07.51,35.52,35.52,0,0,0-12.56-2.29c-20.74,0-37.55,17.85-37.55,39.87,0,16.54,9.49,30.72,23,36.76.65-.57,1.46-1.25,2.42-2A39.24,39.24,0,0,1,449.6,363Z" transform="translate(-41 -48.59)" fill="#fbd56f"/><path d="M449.6,363c0-21.52,16.81-39,37.56-39a36.83,36.83,0,0,1,6.07.51,35.52,35.52,0,0,0-12.56-2.29c-20.74,0-37.55,17.85-37.55,39.87,0,16.54,9.49,30.72,23,36.76.65-.57,1.46-1.25,2.42-2A39.24,39.24,0,0,1,449.6,363Z" transform="translate(-41 -48.59)" opacity="0.1"/><path d="M518.23,362.15a42.19,42.19,0,0,1-2,12.81c2.28-.55,4.66-1,7.11-1.52A40.47,40.47,0,0,0,524.71,363c0-19.38-13.63-35.44-31.48-38.46C507.8,330.06,518.23,344.8,518.23,362.15Z" transform="translate(-41 -48.59)" fill="#fbd56f"/><path d="M449.6,363a39.24,39.24,0,0,0,18.95,33.86c7.07-5.62,22.66-15.95,47.69-21.93a42.19,42.19,0,0,0,2-12.81c0-17.35-10.43-32.09-25-37.58a36.83,36.83,0,0,0-6.07-.51C466.41,324.06,449.6,341.51,449.6,363Z" transform="translate(-41 -48.59)" fill="#fbd56f"/><path d="M1004.19,809.23c-5.72-.2-5.93-2.42-13.28-6.25-4.16-2.16-10.46-8.44-15.16-13.49l-1.1-1.19,2,0s-1.84-16.13-.2-20,.41-26.62.41-26.62,1-17.35-.82-21.38.61-29.84.61-29.84,1.64-15.33,2-46.59-18-32.26-18-32.26-2.45-.19-6.17-.55l-1.12-.11c2.41-5,3.82-8.82,3.82-8.82s-3.07-29.24-3.89-34.28S947.58,542,947.58,542s-3.47-8.87-5.52-15.12-8.17-13.51-8.17-13.51-11-21.78-14.1-25c-1.42-1.49-3.42-3.38-5.15-5l-.9-.82a36,36,0,0,0,.74-6.9s-11.45-11.3-12.27-14.12-11.64-13.31-11.64-13.31-6.14-11.29-13.08-11.49a56.65,56.65,0,0,0-9.85.29c1.43-5.28,3.12-10.81,4.63-15.56.17-.53.34-1,.5-1.55a35.06,35.06,0,0,0,12.56-15.19c.14-.33.27-.66.4-1l.22,0a6.11,6.11,0,0,0,.86-.08c2.29-.39,4.23-3,3.17-5a.76.76,0,0,0,.67.37c.76,0,1.69-1.13,1.87-2.1,0-.17.05-.34.07-.51s.07-.42.1-.63,0-.4,0-.6,0-.41,0-.61,0-.39,0-.58,0-.45,0-.67,0-.35,0-.53,0-.54-.06-.81c0-.11,0-.22,0-.33h0a18,18,0,0,0-.66-3.25c-1.12-3.75-3.49-7.47-2.58-11.27l0-.12h0c.76-3,3.32-5.1,4.88-7.74.15-.25.28-.51.41-.77,0-.05.05-.1.07-.14.1-.2.18-.4.26-.6l.16-.39c.07-.17.12-.35.18-.53s.11-.32.15-.49.08-.32.12-.48.09-.38.13-.58,0-.28.07-.42.06-.44.08-.66,0-.24,0-.36,0-.49,0-.74v-.3c0-.27,0-.55,0-.82,0-.08,0-.16,0-.24,0-.29,0-.58-.08-.87,0,0,0-.08,0-.12h0a14.49,14.49,0,0,0-2.93-6.95,17.91,17.91,0,0,0-14.71-6.37,24.62,24.62,0,0,1-4.62.09c-2.57-.38-4.74-2-6.78-3.58l-17.12-13.19a21.28,21.28,0,0,0-6.47-3.84c-2.42-.74-5.32-.49-7.11,1.28-3.21,3.16-1.17,8.6-2.45,12.89-1.12,3.72-4.71,6.24-8.42,7.49s-7.69,1.53-11.51,2.44a6.29,6.29,0,0,0-3.07,1.41,6,6,0,0,0-1.34,4.29,23.06,23.06,0,0,0,2.66,10.91c.72,1.36,1.59,2.75,2.36,4.15l.19.35.25.48c.13.27.26.53.38.79l.15.34.23.57c0,.12.09.24.13.35s.14.45.21.67a7.42,7.42,0,0,1,.11,4c-.59,2.17-2.28,3.84-3.78,5.53a10.87,10.87,0,0,0-2.52,4.68v0a3.52,3.52,0,0,0,0,1.24c0,.05,0,.1,0,.15a2.76,2.76,0,0,0,.08.27,1.54,1.54,0,0,0,.08.19,2,2,0,0,0,.1.21,1.87,1.87,0,0,0,.26.3l.15.11a1.64,1.64,0,0,0,.26.16l.17.08.42.11.12,0a4.66,4.66,0,0,0,.66,0h.2a5,5,0,0,0,.62-.08l.23,0a8.7,8.7,0,0,0,1-.25,21.13,21.13,0,0,0,3.34-1.32c0,.12,0,.25,0,.37s0,.43,0,.64a33.94,33.94,0,0,0,2.21,11.57,35,35,0,0,0,10.65,14.73c-.06.34-.12.69-.19,1.05-1,4.83-3.05,9.68-4.32,9.31a17.07,17.07,0,0,0-3.79-.42l-1.11,0h0a15.41,15.41,0,0,0-3.48,0,3.66,3.66,0,0,1-1.52-.21,20.68,20.68,0,0,0-10.21-.57c-7.06,1.45-17.81,4.1-20.76,7.27-4.5,4.84-11,9.48-18.39,29.64,0,0-3.68,12.3-6.54,13.92a19.25,19.25,0,0,1,1.94-.88,5.22,5.22,0,0,1-1.53,1.68,22.66,22.66,0,0,1,3.21-1.34c-2.23,13.14,1.08,50.72,1.08,50.72s-2.66,6.48.81,10.32c2.07,2.27,3.19,5.82,3.77,8.34l-.51.78h0c-1.84,2.85-4.3,6.57-5.91,8.62-2.86,3.63-2.05,15.13-2.05,15.13s-.61,5.44-2.65,7.46-1.64,9.48-1.64,9.48L751.19,608s-4.91,4.43-4.91,6.45-3.88,7.66-3.88,7.66-5.93,9.68,0,8.27a18.53,18.53,0,0,0,6-3v.15c0,.35,0,.71,0,1.08-.17,10.54,1,25.38,8.76,25.38,12,0,43.12,14.31,43.12,14.31,6.33,4.84,14.91,3.23,14.91,3.23S800,686.62,800.44,692.88s-8.58,16.53-8.58,16.53l-27.8,54.25a41.39,41.39,0,0,0,2,11.12l-.4.34c-10.68,9.76-11.61,29.07-11.61,29.07l-2.45,9.88,37.19,16.34s48.23,1,56.61-1.21,6.54-11.5-4.5-13.31-13.69-6.66-17.37-8.87c-2.48-1.5-11.29-11.17-16.76-17.3-.08-.1-.16-.18-.24-.27l1.27-7c2.45-1.21,6.13-13.31,6.13-13.31s0-4.84,2.45-6.25,7.56-15.93,7.56-15.93,11-18.35,10.43-20.77,8-14.72,8-14.72,14.51-14.12,13.89-16.64,11.65-15.43,11.65-15.43a40.83,40.83,0,0,0,10.85-12.49l3.54-.58c16.05-2.63,42.71-7.38,45.69-8.71,4.09-1.81,3.27,6.26,1.64,13.11s-2.86,39.73-1,44,1,11.1,1,11.1l-2.45,36.9,1.63,7.87s-5.52,4.43-3.27,7.05.21,13.92.21,13.92c.19-.07.42-.14.67-.21-.19.44-.38.9-.55,1.37-3.17,9-1.35,23.84-1.35,23.84v11.7s56.61,1,69.07,1,29.64-6.05,30.66-10.89S1009.91,809.44,1004.19,809.23Zm-161-209.93-3.7.31A29.15,29.15,0,0,1,843.18,599.3Zm22.61-154.79c.52-2.34,1.15-4.84,1.85-7.42Zm7,160.44a15,15,0,0,1-11,0h0s.2-14.11,1.84-20,3.88-16.54,3.88-16.54,1.84-14.72,3.68-21.38,9-43.76,12.67-46.18,5.72,1.82,5.72,1.82.55,0,1.47-.11c.18.38.37.8.59,1.23,4.36,8.81,17.15,26.91,17.15,26.91a29.43,29.43,0,0,1,9.4,9.28c3.48,5.84,4.5,19.56,4.5,19.56s7.77,30.45,11.44,34.68c1.84,2.12,1,3.38-.25,4.11a18.1,18.1,0,0,0-6.45,6c-.52.83-1.08,1.74-1.64,2.72-1.41-.33-2.66-.67-3.71-1C912,602.66,878.3,602.53,872.79,605Z" transform="translate(-41 -48.59)" fill="url(#2d432668-a788-4fa4-adaa-7bb8c6eae655)"/><path d="M923.15,816.61v11.6s55.39,1,67.59,1,29-6,30-10.8-14-8.8-19.6-9-5.8-2.4-13-6.2c-4.06-2.14-10.23-8.37-14.83-13.38-3.55-3.87-6.17-7-6.17-7s-29.79-.6-38.39,4.2c-2,1.1-3.35,3.27-4.28,6C921.37,801.93,923.15,816.61,923.15,816.61Z" transform="translate(-41 -48.59)" fill="#434175"/><path d="M924.47,793c6.25-2.17,42.82-3,48.84-3.14-3.55-3.87-6.17-7-6.17-7s-29.79-.6-38.39,4.2C926.77,788.12,925.4,790.29,924.47,793Z" transform="translate(-41 -48.59)" opacity="0.1"/><path d="M763.77,608l3.23,2,1.21.73,4.7,2.84c25.14,15.14,93.69,56.2,97.45,55.87,1-.08,3.94-.53,8-1.19l3.47-.57c15.7-2.61,41.79-7.32,44.71-8.64,4-1.8,3.2,6.2,1.6,13s-2.8,39.4-1,43.6,1,11,1,11l-2.4,36.6,1.6,7.8s-5.4,4.4-3.2,7,.2,13.8.2,13.8c6.4-2.4,49.79-3.2,49.79-3.2s-1.8-16-.2-19.8.4-26.4.4-26.4,1-17.2-.8-21.2.6-29.59.6-29.59,1.6-15.2,2-46.19-17.6-32-17.6-32-2.4-.19-6-.54c-7.13-.68-19-2-26.94-3.72a43.48,43.48,0,0,1-4.81-1.27c-9.8-3.34-42.8-3.47-48.19-1.07a14.52,14.52,0,0,1-10.78,0h0l-4.2-6.8-40.11,3.42-4.25.36-39.49,3.37-2.72.23Z" transform="translate(-41 -48.59)" fill="#565387"/><path d="M924.55,638.72c11.65,5.68,22.77-14.46,28-25.82-7.13-.68-19-2-26.94-3.72C920.34,617.94,913.38,633.27,924.55,638.72Z" transform="translate(-41 -48.59)" opacity="0.1"/><path d="M889.55,502.65a12.55,12.55,0,0,0,1.41,3.92c4.27,8.73,16.79,26.68,16.79,26.68a29,29,0,0,1,9.2,9.2c3.4,5.8,4.4,19.4,4.4,19.4s7.6,30.19,11.2,34.39c1.8,2.1,1,3.35-.25,4.08a17.86,17.86,0,0,0-6.31,5.9c-5.25,8.44-13.62,25.16-1.84,30.9,16,7.8,31-33.08,31-33.08s-3-29-3.8-34-5.59-25.6-5.59-25.6-3.4-8.8-5.4-15-8-13.4-8-13.4-10.8-21.59-13.8-24.79c-1.39-1.49-3.34-3.36-5-4.94-2-1.83-3.56-3.26-3.56-3.26S889.35,497.86,889.55,502.65Z" transform="translate(-41 -48.59)" fill="#ee8e9e"/><path d="M754,814.21l36.4,16.2s47.19,1,55.39-1.2,6.4-11.4-4.4-13.2-13.4-6.6-17-8.8c-2.43-1.48-11.05-11.07-16.4-17.15-2.58-2.93-4.4-5-4.4-5s-7-18.6-26.39-14.4a19.86,19.86,0,0,0-9.44,5c-10.45,9.67-11.36,28.82-11.36,28.82Z" transform="translate(-41 -48.59)" fill="#434175"/><path d="M768.21,610.72l4.7,2.84c25.14,15.14,93.69,56.2,97.45,55.87,1-.08,3.94-.53,8-1.19l3.47-.57.13-.23a45.32,45.32,0,0,0,4.58-11.21C890.75,640.24,870,628,870,628l-4.4-3.42c-5-8.42-41-16.38-41-16.38l-4.64-3.12-2.47-1.66-.66-.44-5.63-3.78-28.19,2-8.38,5.38-.88.57-3.11,2Z" transform="translate(-41 -48.59)" opacity="0.1"/><path d="M767.73,775.59c7.65,26.47,39.63,17.83,39.63,17.83l.6-3.36c-2.58-2.93-4.4-5-4.4-5s-7-18.6-26.39-14.4A19.86,19.86,0,0,0,767.73,775.59Z" transform="translate(-41 -48.59)" opacity="0.1"/><path d="M759.37,655.43c11.8,0,42.19,14.2,42.19,14.2,6.2,4.8,14.6,3.2,14.6,3.2s-14.8,15-14.4,21.2-8.39,16.4-8.39,16.4l-27.2,53.79c2,38.19,41.19,27.6,41.19,27.6l1.6-9c2.4-1.2,6-13.2,6-13.2s0-4.8,2.4-6.2,7.4-15.8,7.4-15.8,10.8-18.2,10.2-20.6,7.8-14.59,7.8-14.59,14.2-14,13.6-16.5,11.4-15.3,11.4-15.3a40.45,40.45,0,0,0,10.61-12.39A45.32,45.32,0,0,0,883,657c3.39-12.88-9.44-23.3-14.57-26.86-1.24-.87-2-1.33-2-1.33l-4.4-3.42c-2.27-3.83-11-7.57-19.76-10.5-6.34-2.11-12.74-3.81-16.83-4.83C822.66,609.42,821,609,821,609l-4.64-3.12-1.63-1.09-1.49-1L807.56,600l-12.54.89L779.37,602,771,607.42,767,610l-15.63,10s-.41,3.85-.54,9c0,.4,0,.8,0,1.22C750.64,640.72,751.76,655.43,759.37,655.43Z" transform="translate(-41 -48.59)" fill="#565387"/><path d="M819.56,431.46l4.2,15s7.4,25.8,8.2,27.6,20.2,20,21,20.4,11.36,6.39,11.36,6.39.84-33,0-42.59a27.32,27.32,0,0,1,.52-6.29c1.27-7.52,4.5-18.55,7.18-27.05,2.24-7.11,4.09-12.45,4.09-12.45s-46.79-2-45.19,2.6c.6,1.74.41,4.64-.18,7.56-1,4.79-3,9.61-4.22,9.23a17,17,0,0,0-3.71-.41C821.13,431.4,819.56,431.46,819.56,431.46Z" transform="translate(-41 -48.59)" fill="#ee8e9e"/><path d="M830.78,422.63a34.61,34.61,0,0,0,41.28,2.29c2.24-7.11,4.09-12.45,4.09-12.45s-46.79-2-45.19,2.6C831.56,416.81,831.37,419.71,830.78,422.63Z" transform="translate(-41 -48.59)" opacity="0.1"/><path d="M887.56,394.88a34.46,34.46,0,0,1-1.73,10.8,28.23,28.23,0,0,1-1,2.65A34.6,34.6,0,0,1,820.55,407a34.1,34.1,0,0,1-2.16-11.47c0-.21,0-.43,0-.64a34.6,34.6,0,1,1,69.19,0Z" transform="translate(-41 -48.59)" fill="#ee8e9e"/><path d="M819.56,431.46l4.2,15s7.4,25.8,8.2,27.6,20.2,20,21,20.4,11.36,6.39,11.36,6.39.84-33,0-42.59a27.32,27.32,0,0,1,.52-6.29l-2.72,11.09.2,22.2,1.6,1.2-3.6,5.4v-4s-12.8-12.4-14.8-17.6-9.2-14.62-9.2-14.62-8.2-13.78-8.4-16.18c-.15-1.87-3.6-6.2-5.11-8C821.13,431.4,819.56,431.46,819.56,431.46Z" transform="translate(-41 -48.59)" opacity="0.1"/><path d="M889.55,502.65a12.55,12.55,0,0,0,1.41,3.92c4.38-.45,19.27-3.23,22.55-20.25-2-1.83-3.56-3.26-3.56-3.26S889.35,497.86,889.55,502.65Z" transform="translate(-41 -48.59)" opacity="0.1"/><path d="M750.8,630.27c4-2.86,7.88-6.75,10.17-7.83,3.4-1.6,8.6-6.8,8.6-6.8s1.32-.9,3.34-2.08c3.71-2.18,9.8-5.33,14.46-5.72,4.17-.35,18-1.24,29-1.92l14.24-.88s13-4.6,18.6-1.6a58.77,58.77,0,0,0,12.6,4.6s0-.44,0-1.19h0l-4.2-6.8-44.36,3.78L807.56,600l-28.19,2L771,607.42l-7.22.62,3.23,2-15.63,10S750.89,624.51,750.8,630.27Z" transform="translate(-41 -48.59)" opacity="0.1"/><path d="M745,632a18.11,18.11,0,0,0,5.86-3h0c4-2.85,7.85-6.74,10.14-7.81,3.4-1.6,8.6-6.8,8.6-6.8s10.6-7.2,17.8-7.8c2-.16,6.06-.45,11-.77s11-.71,16.32-1l8.48-.53,7.39-.46s13-4.6,18.6-1.6a58.77,58.77,0,0,0,12.6,4.6s.2-14,1.8-19.8,3.8-16.39,3.8-16.39,1.8-14.6,3.6-21.2,8.79-43.4,12.39-45.8,5.6,1.8,5.6,1.8,24-.4,24.4-26.79c0,0-11.2-11.2-12-14s-11.4-13.2-11.4-13.2-6-11.2-12.8-11.4a54.4,54.4,0,0,0-9.63.3l-5.76,23.5.2,22.2,1.6,1.2-3.6,5.4v-4s-12.8-12.4-14.8-17.6-9.2-14.62-9.2-14.62-8.2-13.78-8.4-16.18-5.8-8.83-5.8-8.83a14.72,14.72,0,0,0-3.4,0,3.53,3.53,0,0,1-1.49-.21,19.92,19.92,0,0,0-10-.56c-6.91,1.43-17.43,4.06-20.31,7.2-4.4,4.8-10.8,9.4-18,29.4l38.79,14L804,487.57l-30.87,58.68s-1,1.67-2.41,3.85h0c-1.8,2.83-4.21,6.52-5.79,8.55-2.8,3.6-2,15-2,15s-.6,5.4-2.6,7.4-1.6,9.4-1.6,9.4l-5.2,19.4s-4.8,4.4-4.8,6.4-3.8,7.6-3.8,7.6S739.17,633.44,745,632Z" transform="translate(-41 -48.59)" fill="#434175"/><path d="M949.74,646.44s-12.59,4.19-16,10.19S949.74,646.44,949.74,646.44Z" transform="translate(-41 -48.59)" opacity="0.1"/><path d="M943.35,633.24c-.4.6-17.26,17.51-16.2,21.59S943.35,633.24,943.35,633.24Z" transform="translate(-41 -48.59)" opacity="0.1"/><path d="M850.76,645.24S832,654.1,830.36,658,850.76,645.24,850.76,645.24Z" transform="translate(-41 -48.59)" opacity="0.1"/><path d="M849.56,656.63s-17,7.2-19.28,9S849.56,656.63,849.56,656.63Z" transform="translate(-41 -48.59)" opacity="0.1"/><path d="M841.76,672s-7.51,5.6-11.66,1.2S841.76,672,841.76,672Z" transform="translate(-41 -48.59)" opacity="0.1"/><path d="M870,526.05c-.4.6-25.4,45.6-32,49S870,526.05,870,526.05Z" transform="translate(-41 -48.59)" opacity="0.1"/><path d="M868.76,543.05c0,1-24.4,53.19-28.4,53.79S868.76,543.05,868.76,543.05Z" transform="translate(-41 -48.59)" opacity="0.1"/><path d="M776,576.64s-11.78,25.17-16.4,26.6S776,576.64,776,576.64Z" transform="translate(-41 -48.59)" opacity="0.1"/><path d="M774,565.45s-4.06,8.79-6.53,8.79S774,565.45,774,565.45Z" transform="translate(-41 -48.59)" opacity="0.1"/><path d="M887.56,394.88a34.46,34.46,0,0,1-1.73,10.8,28.23,28.23,0,0,1-1,2.65A10.17,10.17,0,0,1,880,406.2a12,12,0,0,1-3.63-3.88,48.65,48.65,0,0,1-1.77-5.05,11.75,11.75,0,0,0-9.49-7.19c1.15,2-.68,4.65-2.93,5s-4.44-1-6-2.67-2.67-3.7-4.21-5.37-3.74-3-6-2.67c-2,.3-3.53,1.82-5.2,2.95s-4,1.89-5.6.68c-.9-.67-1.34-1.81-2.2-2.54-2.21-1.85-5.65.06-7.28,2.45-2.51,3.7-4,5.94-7.3,7.61,0-.21,0-.43,0-.64a34.6,34.6,0,1,1,69.19,0Z" transform="translate(-41 -48.59)" opacity="0.1"/><path d="M825.69,386.91c1.63-2.4,5.07-4.31,7.28-2.45.86.72,1.3,1.86,2.2,2.54,1.6,1.21,3.94.45,5.6-.68s3.21-2.65,5.2-2.95c2.25-.35,4.44,1,6,2.67s2.66,3.7,4.21,5.37,3.74,3,6,2.66,4.08-3,2.93-5a11.73,11.73,0,0,1,9.48,7.19,51.11,51.11,0,0,0,1.77,5.05,12,12,0,0,0,3.64,3.87c1.83,1.35,4.06,2.48,6.3,2.09s4.14-3,3.1-5c.71,1.09,2.25-.43,2.48-1.71a18.26,18.26,0,0,0-.46-8.44c-1.1-3.72-3.42-7.4-2.53-11.18.71-3,3.26-5.13,4.81-7.78,2.75-4.7,2-11-1.32-15.32a17.41,17.41,0,0,0-14.4-6.31,24.42,24.42,0,0,1-4.52.08c-2.51-.37-4.64-2-6.64-3.55L850.05,335a20.56,20.56,0,0,0-6.33-3.82c-2.36-.73-5.2-.48-7,1.27-3.14,3.14-1.15,8.54-2.41,12.79-1.09,3.68-4.6,6.18-8.23,7.42s-7.52,1.52-11.26,2.42a6.16,6.16,0,0,0-3,1.4,6,6,0,0,0-1.31,4.26,23.11,23.11,0,0,0,2.6,10.81c1.94,3.73,5,7.56,3.93,11.63-.58,2.15-2.24,3.8-3.7,5.48-3.16,3.64-4.23,9,1.73,7.14C820.84,394,822.45,391.67,825.69,386.91Z" transform="translate(-41 -48.59)" fill="#434175"/><g opacity="0.1"><path d="M891.87,396.65c-.24,1.28-1.77,2.8-2.49,1.71,1,2-.86,4.59-3.1,5s-4.46-.75-6.3-2.09a12,12,0,0,1-3.63-3.88c-.84-1.57-1.11-3.39-1.77-5.05a11.77,11.77,0,0,0-9.49-7.19c1.16,2-.68,4.66-2.93,5s-4.44-1-6-2.67-2.67-3.69-4.21-5.37-3.74-3-6-2.67c-2,.31-3.53,1.82-5.2,2.95s-4,1.9-5.6.69c-.9-.68-1.33-1.82-2.19-2.54-2.22-1.86-5.66.05-7.29,2.44-3.23,4.76-4.84,7.11-10.58,8.92-1.88.59-3.06.46-3.7-.11-1.25,2.89-.68,5.43,3.7,4.05,5.74-1.81,7.35-4.15,10.58-8.91,1.63-2.4,5.07-4.31,7.29-2.45.86.72,1.29,1.86,2.19,2.54,1.61,1.21,3.94.45,5.6-.68s3.21-2.65,5.2-2.95c2.25-.35,4.44,1,6,2.67s2.66,3.7,4.21,5.37,3.74,3,6,2.66,4.09-3,2.93-5a11.73,11.73,0,0,1,9.49,7.19,48.65,48.65,0,0,0,1.77,5.05,12,12,0,0,0,3.63,3.87c1.84,1.35,4.06,2.48,6.3,2.09s4.14-3,3.1-5c.72,1.09,2.25-.43,2.49-1.71a18.34,18.34,0,0,0,.18-5.23Q892,396,891.87,396.65Z" transform="translate(-41 -48.59)"/><path d="M817,379.41c0-.06,0-.1.05-.16,1.09-4.06-2-7.89-3.93-11.62a23.16,23.16,0,0,1-2.48-8.45,12,12,0,0,0-.12,1.58,23.23,23.23,0,0,0,2.6,10.81C814.48,374.12,816.33,376.72,817,379.41Z" transform="translate(-41 -48.59)"/><path d="M893.68,369.25c-1.55,2.65-4.1,4.79-4.81,7.78a8.68,8.68,0,0,0,0,3.83c.74-2.93,3.24-5.05,4.77-7.67a13,13,0,0,0,1.54-8.44A12.1,12.1,0,0,1,893.68,369.25Z" transform="translate(-41 -48.59)"/></g><path d="M770.76,550.1h0a31.79,31.79,0,0,1,.61,3.35s15.8,37,17.8,39.19c.61.68,2.93,4,5.85,8.29l3.35,4.94c6,9,12.79,19.17,12.79,19.17L826,638s32.19,2.57,42.42-7.87c-1.24-.87-2-1.33-2-1.33l-4.4-3.42c-2.27-3.83-11-7.57-19.76-10.5-8.1.06-14.73.72-14.73.72l-2.1-5.55-2.2-5.79L812,574.84s-7.22-37.19-9.62-39-1.79-7.4-1.79-7.4,4.39-15.8,2.79-18,2.6-18.39,2.6-18.39a16.36,16.36,0,0,0-1.92-4.49l-30.87,58.68S772.14,547.92,770.76,550.1Z" transform="translate(-41 -48.59)" opacity="0.1"/><path d="M806.36,490.86s-4.2,16.19-2.6,18.39-2.8,18-2.8,18-.59,5.6,1.8,7.4,9.62,39,9.62,39l15.49,40.8s48.48-4.8,43.49,10.4-45,12-45,12l-14.8-13s-20-30.2-22-32.4-17.8-39.19-17.8-39.19-.8-7.4-4.2-11.2-.8-10.23-.8-10.23-4.2-48.36.2-54.16S801.76,473.46,806.36,490.86Z" transform="translate(-41 -48.59)" fill="#ee8e9e"/><path d="M781.57,460.46l-12.6,7.6s-3.6,12.2-6.4,13.8c0,0,25.2-14,44.19,18.19,0,0-.6-4.19,2-6.19s2-10.6,2-10.6a34.63,34.63,0,0,0,1.8-4.2C814.36,474.66,805,449.46,781.57,460.46Z" transform="translate(-41 -48.59)" opacity="0.1"/><path d="M781.17,459.66l-12.6,7.6s-3.6,12.2-6.4,13.8c0,0,25.2-14,44.19,18.19,0,0-.6-4.19,2-6.19s2-10.6,2-10.6a34.63,34.63,0,0,0,1.8-4.2C814,473.86,804.56,448.66,781.17,459.66Z" transform="translate(-41 -48.59)" fill="#434175"/><ellipse cx="627.88" cy="721.41" rx="37.56" ry="39.87" fill="#fbd56f"/><ellipse cx="627.88" cy="721.41" rx="37.56" ry="39.87" opacity="0.1"/><ellipse cx="634.36" cy="722.3" rx="37.56" ry="38.98" fill="#fbd56f"/><ellipse cx="90.14" cy="735.48" rx="46.39" ry="7.84" fill="#6c63ff"/><path d="M150.32,771.24c2-1.85,3.85-4,4.43-6.68s-.56-5.82-3.09-6.79c-2.84-1.09-5.88.88-8.18,2.87s-4.93,4.25-7.94,3.83a12.09,12.09,0,0,0,3.74-11.32,4.7,4.7,0,0,0-1-2.3c-1.57-1.68-4.43-1-6.32.37-6,4.22-7.67,12.37-7.7,19.7-.61-2.65-.1-5.4-.11-8.12s-.76-5.72-3-7.18a9.25,9.25,0,0,0-4.65-1.09c-2.7-.1-5.7.17-7.54,2.14-2.29,2.46-1.7,6.57.29,9.27s5,4.38,7.81,6.25a17.41,17.41,0,0,1,5.58,5.32,5.13,5.13,0,0,1,.41,1h16.91A47,47,0,0,0,150.32,771.24Z" transform="translate(-41 -48.59)" fill="#6c63ff"/><path d="M465.33,348.17l37.92-19,14,12.83,3.33,9.17,3.5,15.41L521,373.33l-24.25,4.42s-12.92-.75-14.92.25-10.16,2.73-10.16,2.73l-6.34-15.61Z" transform="translate(-41 -48.59)" fill="#fbd56f"/></svg>