<svg width="1346" height="210" viewBox="0 0 1346 210" fill="none" xmlns="http://www.w3.org/2000/svg">
<line x1="674.5" y1="2.18557e-08" x2="674.5" y2="209" stroke="#9CB3E4"/>
<path d="M795.056 40.584C801.52 40.584 806.64 42.504 810.416 46.344C814.256 50.12 816.176 55.816 816.176 63.432V93H801.2V65.736C801.2 61.64 800.336 58.6 798.608 56.616C796.944 54.568 794.544 53.544 791.408 53.544C787.888 53.544 785.104 54.696 783.056 57C781.008 59.24 779.984 62.6 779.984 67.08V93H765.008V65.736C765.008 57.608 761.744 53.544 755.216 53.544C751.76 53.544 749.008 54.696 746.96 57C744.912 59.24 743.888 62.6 743.888 67.08V93H728.912V41.352H743.216V47.304C745.136 45.128 747.472 43.464 750.224 42.312C753.04 41.16 756.112 40.584 759.44 40.584C763.088 40.584 766.384 41.32 769.328 42.792C772.272 44.2 774.64 46.28 776.432 49.032C778.544 46.344 781.2 44.264 784.4 42.792C787.664 41.32 791.216 40.584 795.056 40.584ZM879.926 41.352L856.598 96.168C854.23 102.12 851.286 106.312 847.766 108.744C844.31 111.176 840.118 112.392 835.19 112.392C832.502 112.392 829.846 111.976 827.222 111.144C824.598 110.312 822.454 109.16 820.79 107.688L826.262 97.032C827.414 98.056 828.726 98.856 830.198 99.432C831.734 100.008 833.238 100.296 834.71 100.296C836.758 100.296 838.422 99.784 839.702 98.76C840.982 97.8 842.134 96.168 843.158 93.864L843.35 93.384L820.982 41.352H836.438L850.934 76.392L865.526 41.352H879.926ZM909.591 93.768C904.087 93.768 899.127 92.648 894.711 90.408C890.359 88.104 886.935 84.936 884.439 80.904C882.007 76.872 880.791 72.296 880.791 67.176C880.791 62.056 882.007 57.48 884.439 53.448C886.935 49.416 890.359 46.28 894.711 44.04C899.127 41.736 904.087 40.584 909.591 40.584C915.031 40.584 919.767 41.736 923.799 44.04C927.895 46.28 930.871 49.512 932.727 53.736L921.111 59.976C918.423 55.24 914.551 52.872 909.495 52.872C905.591 52.872 902.359 54.152 899.799 56.712C897.239 59.272 895.959 62.76 895.959 67.176C895.959 71.592 897.239 75.08 899.799 77.64C902.359 80.2 905.591 81.48 909.495 81.48C914.615 81.48 918.487 79.112 921.111 74.376L932.727 80.712C930.871 84.808 927.895 88.008 923.799 90.312C919.767 92.616 915.031 93.768 909.591 93.768ZM965.269 93.768C959.829 93.768 954.933 92.648 950.581 90.408C946.293 88.104 942.933 84.936 940.501 80.904C938.069 76.872 936.853 72.296 936.853 67.176C936.853 62.056 938.069 57.48 940.501 53.448C942.933 49.416 946.293 46.28 950.581 44.04C954.933 41.736 959.829 40.584 965.269 40.584C970.709 40.584 975.573 41.736 979.861 44.04C984.149 46.28 987.509 49.416 989.941 53.448C992.373 57.48 993.589 62.056 993.589 67.176C993.589 72.296 992.373 76.872 989.941 80.904C987.509 84.936 984.149 88.104 979.861 90.408C975.573 92.648 970.709 93.768 965.269 93.768ZM965.269 81.48C969.109 81.48 972.245 80.2 974.677 77.64C977.173 75.016 978.421 71.528 978.421 67.176C978.421 62.824 977.173 59.368 974.677 56.808C972.245 54.184 969.109 52.872 965.269 52.872C961.429 52.872 958.261 54.184 955.765 56.808C953.269 59.368 952.021 62.824 952.021 67.176C952.021 71.528 953.269 75.016 955.765 77.64C958.261 80.2 961.429 81.48 965.269 81.48ZM1069.74 40.584C1076.21 40.584 1081.33 42.504 1085.1 46.344C1088.94 50.12 1090.86 55.816 1090.86 63.432V93H1075.89V65.736C1075.89 61.64 1075.02 58.6 1073.3 56.616C1071.63 54.568 1069.23 53.544 1066.1 53.544C1062.58 53.544 1059.79 54.696 1057.74 57C1055.7 59.24 1054.67 62.6 1054.67 67.08V93H1039.7V65.736C1039.7 57.608 1036.43 53.544 1029.9 53.544C1026.45 53.544 1023.7 54.696 1021.65 57C1019.6 59.24 1018.58 62.6 1018.58 67.08V93H1003.6V41.352H1017.9V47.304C1019.82 45.128 1022.16 43.464 1024.91 42.312C1027.73 41.16 1030.8 40.584 1034.13 40.584C1037.78 40.584 1041.07 41.32 1044.02 42.792C1046.96 44.2 1049.33 46.28 1051.12 49.032C1053.23 46.344 1055.89 44.264 1059.09 42.792C1062.35 41.32 1065.9 40.584 1069.74 40.584ZM1134.82 40.584C1139.62 40.584 1143.97 41.704 1147.87 43.944C1151.84 46.12 1154.94 49.224 1157.18 53.256C1159.42 57.224 1160.54 61.864 1160.54 67.176C1160.54 72.488 1159.42 77.16 1157.18 81.192C1154.94 85.16 1151.84 88.264 1147.87 90.504C1143.97 92.68 1139.62 93.768 1134.82 93.768C1128.22 93.768 1123.04 91.688 1119.26 87.528V111.624H1104.29V41.352H1118.59V47.304C1122.3 42.824 1127.71 40.584 1134.82 40.584ZM1132.22 81.48C1136.06 81.48 1139.2 80.2 1141.63 77.64C1144.13 75.016 1145.38 71.528 1145.38 67.176C1145.38 62.824 1144.13 59.368 1141.63 56.808C1139.2 54.184 1136.06 52.872 1132.22 52.872C1128.38 52.872 1125.22 54.184 1122.72 56.808C1120.29 59.368 1119.07 62.824 1119.07 67.176C1119.07 71.528 1120.29 75.016 1122.72 77.64C1125.22 80.2 1128.38 81.48 1132.22 81.48ZM1190.56 40.584C1198.56 40.584 1204.7 42.504 1208.99 46.344C1213.28 50.12 1215.42 55.848 1215.42 63.528V93H1201.4V86.568C1198.59 91.368 1193.34 93.768 1185.66 93.768C1181.69 93.768 1178.24 93.096 1175.29 91.752C1172.41 90.408 1170.2 88.552 1168.67 86.184C1167.13 83.816 1166.36 81.128 1166.36 78.12C1166.36 73.32 1168.16 69.544 1171.74 66.792C1175.39 64.04 1180.99 62.664 1188.54 62.664H1200.44C1200.44 59.4 1199.45 56.904 1197.47 55.176C1195.48 53.384 1192.51 52.488 1188.54 52.488C1185.79 52.488 1183.07 52.936 1180.38 53.832C1177.76 54.664 1175.52 55.816 1173.66 57.288L1168.28 46.824C1171.1 44.84 1174.46 43.304 1178.36 42.216C1182.33 41.128 1186.4 40.584 1190.56 40.584ZM1189.4 83.688C1191.96 83.688 1194.24 83.112 1196.22 81.96C1198.2 80.744 1199.61 78.984 1200.44 76.68V71.4H1190.17C1184.03 71.4 1180.96 73.416 1180.96 77.448C1180.96 79.368 1181.69 80.904 1183.16 82.056C1184.7 83.144 1186.78 83.688 1189.4 83.688ZM1260.37 40.584C1266.77 40.584 1271.92 42.504 1275.82 46.344C1279.79 50.184 1281.77 55.88 1281.77 63.432V93H1266.8V65.736C1266.8 61.64 1265.9 58.6 1264.11 56.616C1262.32 54.568 1259.73 53.544 1256.33 53.544C1252.56 53.544 1249.55 54.728 1247.31 57.096C1245.07 59.4 1243.95 62.856 1243.95 67.464V93H1228.97V41.352H1243.28V47.4C1245.26 45.224 1247.73 43.56 1250.67 42.408C1253.61 41.192 1256.85 40.584 1260.37 40.584ZM1345.68 41.352L1322.35 96.168C1319.98 102.12 1317.04 106.312 1313.52 108.744C1310.06 111.176 1305.87 112.392 1300.94 112.392C1298.25 112.392 1295.6 111.976 1292.97 111.144C1290.35 110.312 1288.2 109.16 1286.54 107.688L1292.01 97.032C1293.16 98.056 1294.48 98.856 1295.95 99.432C1297.48 100.008 1298.99 100.296 1300.46 100.296C1302.51 100.296 1304.17 99.784 1305.45 98.76C1306.73 97.8 1307.88 96.168 1308.91 93.864L1309.1 93.384L1286.73 41.352H1302.19L1316.68 76.392L1331.28 41.352H1345.68Z" fill="#1A428A"/>
<path d="M728.912 134.352H743.888V186H728.912V134.352ZM736.4 127.152C733.648 127.152 731.408 126.352 729.68 124.752C727.952 123.152 727.088 121.168 727.088 118.8C727.088 116.432 727.952 114.448 729.68 112.848C731.408 111.248 733.648 110.448 736.4 110.448C739.152 110.448 741.392 111.216 743.12 112.752C744.848 114.288 745.712 116.208 745.712 118.512C745.712 121.008 744.848 123.088 743.12 124.752C741.392 126.352 739.152 127.152 736.4 127.152ZM789.179 133.584C795.579 133.584 800.731 135.504 804.635 139.344C808.603 143.184 810.587 148.88 810.587 156.432V186H795.611V158.736C795.611 154.64 794.715 151.6 792.923 149.616C791.131 147.568 788.539 146.544 785.147 146.544C781.371 146.544 778.363 147.728 776.123 150.096C773.883 152.4 772.763 155.856 772.763 160.464V186H757.787V134.352H772.091V140.4C774.075 138.224 776.539 136.56 779.483 135.408C782.427 134.192 785.659 133.584 789.179 133.584ZM840.578 135.504H853.826V147.024H840.962V186H825.986V147.024H818.018V135.504H825.986V133.2C825.986 127.312 827.714 122.64 831.17 119.184C834.69 115.728 839.618 114 845.954 114C848.194 114 850.306 114.256 852.29 114.768C854.338 115.216 856.034 115.888 857.378 116.784L853.442 127.632C851.714 126.416 849.698 125.808 847.394 125.808C842.85 125.808 840.578 128.304 840.578 133.296V135.504ZM883.279 141.168C885.071 138.672 887.471 136.784 890.479 135.504C893.551 134.224 897.071 133.584 901.039 133.584V147.408C899.375 147.28 898.255 147.216 897.679 147.216C893.391 147.216 890.031 148.432 887.599 150.864C885.167 153.232 883.951 156.816 883.951 161.616V186H868.975V134.352H883.279V141.168ZM930.494 133.584C938.494 133.584 944.638 135.504 948.926 139.344C953.214 143.12 955.358 148.848 955.358 156.528V186H941.342V179.568C938.526 184.368 933.278 186.768 925.598 186.768C921.63 186.768 918.174 186.096 915.23 184.752C912.35 183.408 910.142 181.552 908.606 179.184C907.07 176.816 906.302 174.128 906.302 171.12C906.302 166.32 908.094 162.544 911.678 159.792C915.326 157.04 920.926 155.664 928.478 155.664H940.382C940.382 152.4 939.39 149.904 937.406 148.176C935.422 146.384 932.446 145.488 928.478 145.488C925.726 145.488 923.006 145.936 920.318 146.832C917.694 147.664 915.454 148.816 913.598 150.288L908.222 139.824C911.038 137.84 914.398 136.304 918.302 135.216C922.27 134.128 926.334 133.584 930.494 133.584ZM929.342 176.688C931.902 176.688 934.174 176.112 936.158 174.96C938.142 173.744 939.55 171.984 940.382 169.68V164.4H930.11C923.966 164.4 920.894 166.416 920.894 170.448C920.894 172.368 921.63 173.904 923.102 175.056C924.638 176.144 926.718 176.688 929.342 176.688ZM1000.3 133.584C1006.7 133.584 1011.86 135.504 1015.76 139.344C1019.73 143.184 1021.71 148.88 1021.71 156.432V186H1006.74V158.736C1006.74 154.64 1005.84 151.6 1004.05 149.616C1002.26 147.568 999.664 146.544 996.272 146.544C992.496 146.544 989.488 147.728 987.248 150.096C985.008 152.4 983.888 155.856 983.888 160.464V186H968.912V134.352H983.216V140.4C985.2 138.224 987.664 136.56 990.608 135.408C993.552 134.192 996.784 133.584 1000.3 133.584ZM1060.81 186.768C1055.31 186.768 1050.35 185.648 1045.93 183.408C1041.58 181.104 1038.15 177.936 1035.66 173.904C1033.23 169.872 1032.01 165.296 1032.01 160.176C1032.01 155.056 1033.23 150.48 1035.66 146.448C1038.15 142.416 1041.58 139.28 1045.93 137.04C1050.35 134.736 1055.31 133.584 1060.81 133.584C1066.25 133.584 1070.99 134.736 1075.02 137.04C1079.11 139.28 1082.09 142.512 1083.95 146.736L1072.33 152.976C1069.64 148.24 1065.77 145.872 1060.71 145.872C1056.81 145.872 1053.58 147.152 1051.02 149.712C1048.46 152.272 1047.18 155.76 1047.18 160.176C1047.18 164.592 1048.46 168.08 1051.02 170.64C1053.58 173.2 1056.81 174.48 1060.71 174.48C1065.83 174.48 1069.71 172.112 1072.33 167.376L1083.95 173.712C1082.09 177.808 1079.11 181.008 1075.02 183.312C1070.99 185.616 1066.25 186.768 1060.81 186.768ZM1142.5 160.368C1142.5 160.56 1142.41 161.904 1142.22 164.4H1103.14C1103.85 167.6 1105.51 170.128 1108.14 171.984C1110.76 173.84 1114.02 174.768 1117.93 174.768C1120.62 174.768 1122.98 174.384 1125.03 173.616C1127.14 172.784 1129.1 171.504 1130.89 169.776L1138.86 178.416C1133.99 183.984 1126.89 186.768 1117.54 186.768C1111.72 186.768 1106.57 185.648 1102.09 183.408C1097.61 181.104 1094.15 177.936 1091.72 173.904C1089.29 169.872 1088.07 165.296 1088.07 160.176C1088.07 155.12 1089.26 150.576 1091.62 146.544C1094.06 142.448 1097.35 139.28 1101.51 137.04C1105.74 134.736 1110.44 133.584 1115.62 133.584C1120.68 133.584 1125.26 134.672 1129.35 136.848C1133.45 139.024 1136.65 142.16 1138.95 146.256C1141.32 150.288 1142.5 154.992 1142.5 160.368ZM1115.72 144.912C1112.33 144.912 1109.48 145.872 1107.18 147.792C1104.87 149.712 1103.46 152.336 1102.95 155.664H1128.39C1127.88 152.4 1126.47 149.808 1124.17 147.888C1121.86 145.904 1119.05 144.912 1115.72 144.912Z" fill="#1A428A"/>
<g clip-path="url(#clip0_3_82)">
<path d="M0.167786 61.1789C0.167786 76.3827 12.4986 88.7135 27.7023 88.7135C42.9061 88.7135 55.2368 76.3827 55.2368 61.1789C55.2368 45.9752 42.9061 33.6444 27.7023 33.6444C12.4881 33.6444 0.167786 45.9752 0.167786 61.1789Z" fill="#1ECAD3"/>
<path d="M55.0271 88.7135H109.687C109.687 119.131 85.2144 143.783 55.0271 143.783V88.7135Z" fill="#90B3E6"/>
<path d="M109.677 33.6444V88.7135H55.0271C55.0271 58.2955 79.4894 33.6444 109.677 33.6444Z" fill="#0071CE"/>
<path d="M55.0271 88.7135H0.367004C0.367004 119.131 24.8398 143.783 55.0271 143.783C55.0271 143.783 55.0271 88.7135 55.0271 88.7135Z" fill="#D0DDF4"/>
<path d="M230.457 101.569V33.6759H215.694V101.569C215.694 117.16 203.007 129.848 187.415 129.848C171.823 129.848 159.136 117.16 159.136 101.569V33.613H144.373V101.569C144.373 125.297 163.676 144.611 187.415 144.611C211.154 144.611 230.457 125.297 230.457 101.569ZM297.784 84.8759H298.402V71.6644C295.917 70.1125 292.185 68.8648 287.361 68.8648C276.32 68.8648 268.708 73.3735 264.357 82.0763H264.052L263.738 70.4166H252.55V143.153H265.762V110.051C265.762 91.0937 272.441 81.4472 286.439 81.4472C290.79 81.4472 294.68 82.695 297.784 84.8759ZM322.498 91.5551C322.498 85.0227 328.558 80.6713 337.88 80.6713C347.988 80.6713 355.757 83.3136 360.727 88.4409H361.346V74.464C355.904 70.8884 347.201 68.8648 337.565 68.8648C320.621 68.8648 309.433 78.1863 309.433 92.0269C309.433 105.238 316.427 111.299 335.542 112.547C348.596 113.323 352.643 116.122 352.643 122.025C352.643 128.705 346.425 132.909 336.475 132.909C324.815 132.909 315.798 129.491 309.894 122.801H309.276V137.103C315.336 142.073 324.815 144.716 336.936 144.716C354.656 144.716 365.687 136.013 365.687 122.025C365.687 107.723 358.379 101.044 338.488 99.9538C326.377 99.3247 322.498 96.8397 322.498 91.5551ZM391.963 91.5551C391.963 85.0227 398.024 80.6713 407.356 80.6713C417.464 80.6713 425.233 83.3136 430.203 88.4409H430.822V74.464C425.38 70.8884 416.677 68.8648 407.041 68.8648C390.097 68.8648 378.909 78.1863 378.909 92.0269C378.909 105.238 385.903 111.299 405.017 112.547C418.072 113.323 422.119 116.122 422.119 122.025C422.119 128.705 415.901 132.909 405.951 132.909C394.291 132.909 385.274 129.491 379.37 122.801H378.752V137.103C384.812 142.073 394.291 144.716 406.412 144.716C424.132 144.716 435.163 136.013 435.163 122.025C435.163 107.723 427.855 101.044 407.964 99.9538C395.853 99.3247 391.963 96.8397 391.963 91.5551ZM511.8 106.79C511.8 122.172 501.388 132.899 486.625 132.899C471.704 132.899 461.45 122.172 461.45 106.79C461.45 91.3978 471.704 80.6818 486.625 80.6818C501.388 80.6713 511.8 91.3978 511.8 106.79ZM513.352 143.164H524.54V70.4166H513.352L512.891 82.0763H512.576C507.134 73.8348 497.184 68.8648 484.444 68.8648C463.306 68.8648 448.07 84.7186 448.07 106.79C448.07 128.862 463.295 144.716 484.444 144.716C497.184 144.716 507.134 139.746 512.576 131.662H512.891L513.352 143.164ZM591.531 48.691V36.2553C588.427 34.7035 583.289 33.613 577.229 33.613C561.532 33.613 552.829 42.9345 552.829 59.4175V71.9684H539.461V83.4709H552.829V143.153H566.198V83.4709H589.518V71.9684H566.198V59.732C566.198 50.4106 570.864 45.43 579.095 45.43C583.289 45.43 587.798 46.6673 590.912 48.691H591.531Z" fill="#1A428A"/>
<path d="M588.532 187.884C587.892 189.813 586.498 191.344 583.719 191.344C580.825 191.344 578.613 189.205 578.54 186.133H591.458C591.489 185.913 591.531 185.493 591.531 185.063C591.531 179.716 588.574 176.067 583.289 176.067C578.969 176.067 575.079 179.737 575.079 185.126C575.079 190.946 579.116 194.301 583.719 194.301C587.714 194.301 590.461 191.91 591.426 188.88L588.532 187.884ZM578.644 183.428C578.791 181.215 580.5 179.034 583.321 179.034C586.351 179.034 587.955 180.964 588.029 183.428H578.644ZM571.116 167.941H567.761V193.777H571.116V167.941ZM554.591 191.491C552.882 191.491 551.812 190.275 551.812 188.995C551.812 187.465 552.882 186.636 554.308 186.426L559.551 185.64V186.426C559.551 190.17 557.338 191.491 554.591 191.491ZM548.384 189.174C548.384 191.889 550.628 194.311 554.13 194.311C557.202 194.311 558.911 192.665 559.655 191.459C559.655 192.707 559.76 193.347 559.834 193.777H563.116C563.042 193.347 562.906 192.456 562.906 190.956V182.358C562.906 179.003 560.903 176.077 555.765 176.077C552.054 176.077 549.097 178.363 548.73 181.645L551.938 182.39C552.148 180.387 553.469 178.929 555.828 178.929C558.429 178.929 559.54 180.324 559.54 182.002C559.54 182.61 559.257 183.145 558.219 183.291L553.584 183.973C550.638 184.392 548.384 186.101 548.384 189.174ZM540.037 170.122C540.037 171.443 541.107 172.512 542.428 172.512C543.781 172.512 544.861 171.443 544.861 170.122C544.861 168.769 543.791 167.7 542.428 167.7C541.107 167.689 540.037 168.759 540.037 170.122ZM544.106 176.612H540.782V193.777H544.106V176.612ZM529.437 179.181C532.362 179.181 533.61 181.142 534.04 182.82L537.07 181.53C536.357 178.929 533.998 176.067 529.437 176.067C524.55 176.067 520.797 179.81 520.797 185.168C520.797 190.379 524.477 194.301 529.468 194.301C533.924 194.301 536.388 191.407 537.217 188.953L534.249 187.664C533.861 189.016 532.677 191.197 529.468 191.197C526.689 191.197 524.225 189.09 524.225 185.168C524.225 181.184 526.731 179.181 529.437 179.181ZM509.525 176.077C504.387 176.077 500.749 179.968 500.749 185.179C500.749 190.421 504.387 194.311 509.525 194.311C514.663 194.311 518.301 190.421 518.301 185.179C518.312 179.968 514.673 176.077 509.525 176.077ZM509.525 191.313C506.673 191.313 504.177 189.174 504.177 185.179C504.177 181.215 506.673 179.076 509.525 179.076C512.377 179.076 514.873 181.215 514.873 185.179C514.883 189.174 512.387 191.313 509.525 191.313ZM484.979 189.31C485.262 191.271 487.265 194.311 491.973 194.311C496.219 194.311 498.253 191.418 498.253 188.995C498.253 186.458 496.618 184.571 493.503 183.889L490.725 183.281C489.404 182.998 488.764 182.243 488.764 181.215C488.764 180.041 489.907 178.929 491.616 178.929C494.332 178.929 495.045 180.89 495.181 181.781L498.138 180.681C497.781 179.15 496.324 176.077 491.606 176.077C488.25 176.077 485.503 178.573 485.503 181.498C485.503 183.92 487.107 185.745 489.781 186.311L492.706 186.951C494.132 187.276 494.919 188.094 494.919 189.163C494.919 190.379 493.881 191.449 491.993 191.449C489.571 191.449 488.208 190.023 487.999 188.24L484.979 189.31ZM461.743 183.858C461.743 181.257 463.096 179.15 465.738 179.15C468.737 179.15 469.733 181.079 469.733 183.47V193.777H473.088V182.893C473.088 179.076 471.054 176.109 466.954 176.109C464.952 176.109 462.918 176.927 461.67 179.066V176.602H458.388V193.766H461.743V183.858V183.858ZM445.68 176.077C440.542 176.077 436.903 179.968 436.903 185.179C436.903 190.421 440.542 194.311 445.68 194.311C450.818 194.311 454.456 190.421 454.456 185.179C454.456 179.968 450.818 176.077 445.68 176.077ZM445.68 191.313C442.828 191.313 440.332 189.174 440.332 185.179C440.332 181.215 442.828 179.076 445.68 179.076C448.532 179.076 451.027 181.215 451.027 185.179C451.038 189.174 448.532 191.313 445.68 191.313ZM428.914 170.122C428.914 171.443 429.983 172.512 431.304 172.512C432.657 172.512 433.737 171.443 433.737 170.122C433.737 168.769 432.667 167.7 431.304 167.7C429.983 167.689 428.914 168.759 428.914 170.122ZM432.982 176.612H429.658V193.777H432.982V176.612ZM421.847 171.191H418.774V173.97C418.774 175.469 417.988 176.612 416.132 176.612H415.199V179.642H418.491V189.058C418.491 192.162 420.347 193.944 423.273 193.944C424.415 193.944 425.275 193.735 425.558 193.619V190.767C425.275 190.841 424.667 190.914 424.237 190.914C422.486 190.914 421.847 190.128 421.847 188.555V179.632H425.558V176.602H421.847V171.191ZM406.003 179.181C408.929 179.181 410.176 181.142 410.606 182.82L413.636 181.53C412.923 178.929 410.564 176.067 406.003 176.067C401.117 176.067 397.363 179.81 397.363 185.168C397.363 190.379 401.044 194.301 406.035 194.301C410.491 194.301 412.955 191.407 413.773 188.953L410.816 187.664C410.428 189.016 409.243 191.197 406.035 191.197C403.256 191.197 400.792 189.09 400.792 185.168C400.792 181.184 403.287 179.181 406.003 179.181ZM391.869 187.884C391.229 189.813 389.835 191.344 387.056 191.344C384.162 191.344 381.95 189.205 381.887 186.133H394.805C394.836 185.913 394.878 185.493 394.878 185.063C394.878 179.716 391.911 176.067 386.637 176.067C382.317 176.067 378.427 179.737 378.427 185.126C378.427 190.946 382.464 194.301 387.056 194.301C391.051 194.301 393.798 191.91 394.763 188.88L391.869 187.884ZM381.992 183.428C382.138 181.215 383.848 179.034 386.668 179.034C389.698 179.034 391.303 180.964 391.376 183.428H381.992ZM372.177 171.191H369.105V173.97C369.105 175.469 368.319 176.612 366.463 176.612H365.54V179.642H368.822V189.058C368.822 192.162 370.678 193.944 373.603 193.944C374.746 193.944 375.606 193.735 375.889 193.619V190.767C375.606 190.841 374.998 190.914 374.568 190.914C372.817 190.914 372.177 190.128 372.177 188.555V179.632H375.889V176.602H372.177V171.191V171.191ZM355.16 176.077C350.022 176.077 346.383 179.968 346.383 185.179C346.383 190.421 350.022 194.311 355.16 194.311C360.298 194.311 363.936 190.421 363.936 185.179C363.936 179.968 360.298 176.077 355.16 176.077ZM355.16 191.313C352.308 191.313 349.812 189.174 349.812 185.179C349.812 181.215 352.308 179.076 355.16 179.076C358.012 179.076 360.507 181.215 360.507 185.179C360.507 189.174 358.012 191.313 355.16 191.313ZM344.769 176.434C344.59 176.392 344.129 176.329 343.657 176.329C341.906 176.329 339.767 176.969 338.519 179.611V176.612H335.238V193.777H338.593V185.179C338.593 181.394 340.48 179.894 343.301 179.894C343.762 179.894 344.265 179.926 344.758 179.999L344.769 176.434ZM327.898 185.179C327.898 188.712 325.937 191.25 322.833 191.25C319.761 191.25 317.727 188.723 317.727 185.179C317.727 181.75 319.761 179.181 322.833 179.181C325.969 179.181 327.898 181.75 327.898 185.179ZM317.758 200.561V191.459C318.681 192.99 320.684 194.238 323.326 194.238C328.359 194.238 331.316 190.275 331.316 185.168C331.316 180.177 328.569 176.214 323.431 176.214C320.652 176.214 318.618 177.566 317.685 179.286V176.612H314.435V200.55L317.758 200.561ZM299.021 187.884C298.382 189.813 296.987 191.344 294.208 191.344C291.314 191.344 289.102 189.205 289.029 186.133H301.947C301.978 185.913 302.02 185.493 302.02 185.063C302.02 179.716 299.063 176.067 293.778 176.067C289.459 176.067 285.568 179.737 285.568 185.126C285.568 190.946 289.605 194.301 294.208 194.301C298.203 194.301 300.95 191.91 301.915 188.88L299.021 187.884ZM289.133 183.428C289.28 181.215 290.989 179.034 293.81 179.034C296.84 179.034 298.444 180.964 298.518 183.428H289.133ZM283.922 176.434C283.744 176.392 283.283 176.329 282.811 176.329C281.06 176.329 278.921 176.969 277.673 179.611V176.612H274.391V193.777H277.746V185.179C277.746 181.394 279.634 179.894 282.454 179.894C282.916 179.894 283.419 179.926 283.912 179.999L283.922 176.434ZM266.936 171.191H263.864V173.97C263.864 175.469 263.077 176.612 261.221 176.612H260.299V179.642H263.581V189.058C263.581 192.162 265.437 193.944 268.362 193.944C269.505 193.944 270.365 193.735 270.648 193.619V190.767C270.365 190.841 269.757 190.914 269.327 190.914C267.576 190.914 266.936 190.128 266.936 188.555V179.632H270.648V176.602H266.936V171.191ZM249.918 176.077C244.78 176.077 241.142 179.968 241.142 185.179C241.142 190.421 244.78 194.311 249.918 194.311C255.056 194.311 258.695 190.421 258.695 185.179C258.695 179.968 255.056 176.077 249.918 176.077ZM249.918 191.313C247.066 191.313 244.571 189.174 244.571 185.179C244.571 181.215 247.066 179.076 249.918 179.076C252.77 179.076 255.266 181.215 255.266 185.179C255.266 189.174 252.77 191.313 249.918 191.313ZM226.221 183.858C226.221 181.257 227.574 179.15 230.216 179.15C233.215 179.15 234.211 181.079 234.211 183.47V193.777H237.567V182.893C237.567 179.076 235.532 176.109 231.433 176.109C229.43 176.109 227.396 176.927 226.148 179.066V176.602H222.866V193.766H226.221V183.858ZM207.442 187.884C206.803 189.813 205.408 191.344 202.629 191.344C199.735 191.344 197.523 189.205 197.46 186.133H210.378C210.409 185.913 210.451 185.493 210.451 185.063C210.451 179.716 207.484 176.067 202.21 176.067C197.89 176.067 194 179.737 194 185.126C194 190.946 198.037 194.301 202.64 194.301C206.635 194.301 209.382 191.91 210.347 188.88L207.442 187.884ZM197.565 183.428C197.712 181.215 199.421 179.034 202.241 179.034C205.272 179.034 206.876 180.964 206.949 183.428H197.565ZM186.786 191.459C186.786 192.498 186.891 193.389 186.964 193.777H190.215C190.183 193.494 190.036 192.246 190.036 190.6V167.941H186.713V179.034C186.146 177.64 184.5 176.14 181.47 176.14C176.615 176.14 173.333 180.282 173.333 185.137C173.333 190.243 176.437 194.238 181.47 194.238C184.144 194.238 185.968 192.812 186.786 191.166V191.459ZM176.752 185.137C176.752 181.603 178.754 179.108 181.816 179.108C184.888 179.108 186.744 181.53 186.744 185.063C186.744 188.597 184.857 191.271 181.784 191.271C178.576 191.281 176.752 188.67 176.752 185.137ZM159.335 187.884C158.696 189.813 157.301 191.344 154.512 191.344C151.618 191.344 149.406 189.205 149.343 186.133H162.261C162.292 185.913 162.334 185.493 162.334 185.063C162.334 179.716 159.377 176.067 154.093 176.067C149.773 176.067 145.883 179.737 145.883 185.126C145.883 190.946 149.92 194.301 154.512 194.301C158.507 194.301 161.254 191.91 162.219 188.88L159.335 187.884ZM149.448 183.428C149.594 181.215 151.304 179.034 154.124 179.034C157.154 179.034 158.759 180.964 158.832 183.428H149.448ZM136.1 179.181C139.025 179.181 140.273 181.142 140.703 182.82L143.733 181.53C143.02 178.929 140.661 176.067 136.1 176.067C131.214 176.067 127.47 179.81 127.47 185.168C127.47 190.379 131.14 194.301 136.142 194.301C140.598 194.301 143.062 191.407 143.89 188.953L140.923 187.664C140.535 189.016 139.35 191.197 136.142 191.197C133.363 191.197 130.899 189.09 130.899 185.168C130.899 181.184 133.395 179.181 136.1 179.181ZM119.47 170.122C119.47 171.443 120.54 172.512 121.861 172.512C123.213 172.512 124.283 171.443 124.283 170.122C124.283 168.769 123.213 167.7 121.861 167.7C120.55 167.689 119.47 168.759 119.47 170.122ZM123.538 176.612H120.215V193.777H123.538V176.612ZM117.373 176.612H113.766L108.838 189.845L103.952 176.612H100.167L107.129 193.777H110.516L117.373 176.612ZM98.9188 176.434C98.7405 176.392 98.2792 176.329 97.8073 176.329C96.0563 176.329 93.9173 176.969 92.6695 179.611V176.612H89.3876V193.777H92.7429V185.179C92.7429 181.394 94.6303 179.894 97.4508 179.894C97.9122 179.894 98.4155 179.926 98.9083 179.999V176.434H98.9188ZM82.4778 187.884C81.8382 189.813 80.4436 191.344 77.665 191.344C74.771 191.344 72.5586 189.205 72.4852 186.133H85.4032C85.4346 185.913 85.4766 185.493 85.4766 185.063C85.4766 179.716 82.5197 176.067 77.2351 176.067C72.9151 176.067 69.0251 179.737 69.0251 185.126C69.0251 190.946 73.0619 194.301 77.665 194.301C81.6599 194.301 84.4071 191.91 85.3717 188.88L82.4778 187.884ZM72.5901 183.428C72.7369 181.215 74.446 179.034 77.2665 179.034C80.2968 179.034 81.9011 180.964 81.9745 183.428H72.5901ZM53.2236 189.31C53.5067 191.271 55.5094 194.311 60.2174 194.311C64.4639 194.311 66.4981 191.418 66.4981 188.995C66.4981 186.458 64.8624 184.571 61.7482 183.889L58.9696 183.281C57.6485 182.998 57.0089 182.243 57.0089 181.215C57.0089 180.041 58.1518 178.929 59.8609 178.929C62.5766 178.929 63.2896 180.89 63.4259 181.781L66.3828 180.681C66.0263 179.15 64.5583 176.077 59.8504 176.077C56.4951 176.077 53.7479 178.573 53.7479 181.498C53.7479 183.92 55.3522 185.745 58.0259 186.311L60.9513 186.951C62.3774 187.276 63.1638 188.094 63.1638 189.163C63.1638 190.379 62.1257 191.449 60.2383 191.449C57.8162 191.449 56.4531 190.023 56.2434 188.24L53.2236 189.31ZM37.7997 191.711C37.7997 192.424 37.8731 193.389 37.9465 193.777H41.155C41.0816 193.169 40.9768 191.952 40.9768 190.6V176.612H37.6214V186.961C37.6214 189.562 36.2688 191.344 33.5531 191.344C30.7326 191.344 29.6631 189.279 29.6631 186.919V176.612H26.3078V187.423C26.3078 191.313 28.7299 194.311 32.7353 194.311C34.7275 194.311 36.8665 193.494 37.7997 191.711ZM12.3518 172.114L16.7346 183.459H8.03179L12.3518 172.114ZM20.74 193.777H24.5252L14.4593 168.476H10.4329L0.367004 193.777H4.11027L6.78404 186.71H17.9929L20.74 193.777Z" fill="#0071CE"/>
</g>
<defs>
<clipPath id="clip0_3_82">
<rect width="591.374" height="190.833" fill="white" transform="translate(0 10)"/>
</clipPath>
</defs>
</svg>
