<svg xmlns="http://www.w3.org/2000/svg" height="94.734" width="420.966" viewBox="0 0 589.352 132.627"><defs><linearGradient id="a" spreadMethod="pad" gradientTransform="matrix(-59.2577 0 0 -56.62467 107.642 62.868)" gradientUnits="userSpaceOnUse" y2="0" x2="1" y1="0" x1="0"><stop offset="0" stop-color="#876133"/><stop offset=".286" stop-color="#d59b21"/><stop offset="1" stop-color="#d59b21"/></linearGradient><linearGradient id="b" spreadMethod="pad" gradientTransform="matrix(105.07521 0 0 63.93521 .001 28.86)" gradientUnits="userSpaceOnUse" y2="0" x2="1" y1="0" x1="0"><stop offset="0" stop-color="#004d6d"/><stop offset=".276" stop-color="#004d6d"/><stop offset="1" stop-color="#6192a7"/></linearGradient></defs><path d="M59.35 67.22H48.758v26.05c0 25.683 5.131 32.51 17.272 39.357l.236-.257c-5.864-6.395-6.916-19.047-6.916-36.534V67.22" fill="#d59b21"/><path d="M73.964 12.482H48.758v44.145c4.548 0 8.69 0 10.592.004V20.7h12.997c12.955 0 22.027 1.716 26.918 6.73 3 3.076 4.711 8.52 4.275 13.865.795-1.91 1.353-4.055 1.536-6.196 0 .035-.004-.039 0 0-1.067-17.904-11.382-22.618-31.112-22.618" fill="#876133"/><path d="M48.76 12.485V56.63h10.592V20.7h12.993c12.956 0 22.032 1.716 26.922 6.734 3 3.072 4.711 8.52 4.275 13.86a22.823 21.835 0 001.533-6.195c0 .02 0 .012 0 0-.004-.007-.004-.015 0 0-1.068-17.904-11.379-22.614-31.112-22.614z" fill="url(#a)"/><path d="M59.352 72.358H48.76V67.22h10.593z" fill="#a77a2f"/><path d="M108.625 19.838L105.915 0h-88.77v3.096c4.21 1.021 8.883 2.312 10.432 2.951 4.54 1.86 5.56 5.085 5.56 17.449v75.96c0 12.447-1.036 15.632-5.65 17.492-2.474.994-7.474 2.187-10.343 2.909v3.095h26.588V8.22h29.995c12.813 0 25.84 1.74 31.165 11.62h3.733" fill="#004c6c"/><path d="M43.73 72.358H33.138V67.22H43.73z" fill="#001f33"/><path d="M98.675 55.54c-4.919 5.852-14.374 11.68-38.374 11.68H32.282c-19.477 0-28.6 6.313-31.927 19.336H0c-.08-15.304 11.69-29.925 32.787-29.925 5.885 0 24.355-.008 27.273 0 21.4.035 34.727-2.367 41.476-11.697 1.818-2.503 3.228-6.172 3.538-9.834.566 7.623-1.423 14.52-6.399 20.44" fill="#004d6d"/><path d="M101.541 44.937c-6.753 9.326-20.08 11.728-41.484 11.693H32.788C11.686 56.63-.08 71.255.001 86.559h.35c3.33-13.027 12.455-19.335 31.932-19.335h28.019c24 0 33.455-5.83 38.374-11.682 4.976-5.923 6.97-12.82 6.399-20.443-.31 3.662-1.724 7.33-3.534 9.838" fill="url(#b)"/><g fill="#004c6c"><path d="M143.112 86.328l-.61-2.774c-.4-1.872-1.611-2.377-7.267-2.377h-5.91v13.985h5.86c4.644 0 5.4-.15 5.854-1.918l.557-2.118h.755v10.143h-.755l-.606-2.116c-.505-1.768-1.161-1.921-5.805-1.921h-5.86v9.441c0 4.342.758 4.794 2.882 5.201l3.227.604v.71h-15.85v-.71l2.222-.604c2.069-.557 2.374-.86 2.374-5.2V85.622c0-4.342-.305-4.644-2.374-5.201l-2.221-.603v-.71h24.332v7.22h-.806m4.074 26.859v-.604l1.888-.513c1.762-.475 2.017-.73 2.017-4.422V89.747c0-3.69-.254-3.949-2.017-4.419l-1.888-.516v-.603h12.19v.603l-1.887.516c-1.762.47-2.014.728-2.014 4.42v17.901c0 3.692.252 3.947 2.014 4.422l1.888.513v.604h-12.191m45.588-27.859c-1.674.47-1.975 1.372-1.975 8.28v20.095h-2.015l-16.7-21.124c-1.287-1.628-2.146-2.7-2.536-3.563h-.08c0 .516.041 1.76.041 2.58v10.04c0 9.189.558 9.96 2.446 10.39l2.533.557v.604h-11.206v-.604l1.891-.513c1.674-.475 1.973-1.374 1.973-8.289V89.748c0-3.691-.686-4.034-2.442-4.419l-2.32-.515v-.604l8.929-.041 14.548 18.759c1.12 1.416 2.193 2.834 2.536 3.779h.088c0-1.074-.047-2.578-.047-3.094V95.76c0-9.186-.557-9.96-2.448-10.39l-2.53-.555v-.604h11.203v.604l-1.889.516m21.21 27.858v-.604l1.888-.513c1.762-.475 2.193-.99.906-4.422l-1.803-4.893h-10.693l-1.114 2.83c-2.06 5.239-1.718 5.925.217 6.485l1.803.513v.604h-9.96v-.604l1.2-.428c1.674-.601 2.017-1.076 3.864-5.45l9.746-23.266h2.105l9.355 24.21c1.373 3.562 1.8 3.905 3.48 4.506l1.2.428v.604zm-2.876-20.992s-1.07-3.006-1.2-3.695h-.085c-.129.601-1.333 3.695-1.333 3.695l-3.475 8.754h9.315l-3.222-8.754m46.965-6.867c-1.673.47-1.978 1.372-1.978 8.28v20.095h-2.011L237.382 92.58c-1.292-1.628-2.15-2.7-2.533-3.563h-.083c0 .516.042 1.76.042 2.58v10.04c0 9.189.557 9.96 2.445 10.39l2.53.557v.604h-11.202v-.604l1.887-.513c1.675-.475 1.977-1.374 1.977-8.289V89.748c0-3.691-.69-4.034-2.449-4.419l-2.316-.515v-.604l8.926-.041 14.554 18.759c1.114 1.416 2.19 2.834 2.536 3.779h.084c0-1.074-.044-2.578-.044-3.094V95.76c0-9.186-.56-9.96-2.447-10.39l-2.532-.555v-.604h11.203v.604l-1.887.516m29.1 26.998c-1.454.56-4.978 1.46-8.626 1.46-9.186 0-15.794-5.67-15.794-15.112 0-9.443 6.35-15.28 15.407-15.28 3.65 0 6.527.6 8.714 1.374v6.524h-.774l-.557-2.407c-.602-2.659-4.507-3.686-7.298-3.686-7.344 0-10.429 6.046-10.429 12.66 0 7.855 3.993 14.168 11.76 14.168 2.794 0 5.967-1.117 7.084-3.61l.985-2.184.774.214-1.246 5.879m25.673.86h-20.864v-.604l1.889-.513c1.76-.475 2.02-.73 2.02-4.422V89.747c0-3.69-.261-3.949-2.02-4.419l-1.889-.516v-.603h20.266v5.713h-.689l-.516-1.934c-.43-1.586-1.372-2.017-6.183-2.017h-4.592V97h4.55c3.95 0 4.55-.126 4.982-1.628l.471-1.589h.643v8.412h-.643l-.515-1.8c-.43-1.504-.988-1.633-4.937-1.633h-4.551v8.245c0 4.034.601 4.421 2.363 4.421h3.307c4.422 0 5.665-.69 6.518-2.451l.95-1.97.727.167-1.287 6.013m13.005.685c-2.19 0-4.979-.554-6.867-1.459l-.988-6.093.771-.217.985 2.314c.819 1.893 2.839 3.567 6.483 3.567 3.351 0 6.485-1.849 6.485-5.58 0-2.96-2.405-4.64-4.72-5.708l-2.835-1.333c-3.135-1.46-6.096-3.823-6.096-7.685 0-5.02 4.506-8.069 9.233-8.069 1.111 0 4.119.13 6.734 1.373v6.139h-.774l-.557-2.278c-.384-1.628-2.017-3.431-5.752-3.431-2.832 0-5.454 1.719-5.454 4.724 0 2.53 2.408 4.12 4.897 5.275l2.791 1.292c3.09 1.417 6.224 3.692 6.224 7.852 0 6.184-5.236 9.317-10.56 9.317m34.943-12.236l-.044-1.504c3.946 0 8.37-1.888 8.37-7.078 0-4.94-2.874-7.341-7.552-7.341h-2.361v21.936c0 3.692.645 4.076 2.443 4.422l2.75.513v.604h-13.48v-.604l1.89-.513c1.759-.475 2.015-.73 2.015-4.422V89.748c0-3.691-.256-3.95-2.015-4.419l-1.89-.516v-.603h11.636c5.577 0 11.288 1.03 11.288 7.983 0 7.128-7.64 9.359-13.05 9.444M405.61 85.33c-1.674.47-1.973 1.328-1.973 8.241v5.924c0 7.514-2.322 14.38-11.722 14.38-7.767 0-11.59-5.11-11.59-12.492V89.747c0-3.69-.255-3.949-2.017-4.419l-1.888-.515v-.604h12.19v.604l-1.887.516c-1.762.47-2.02.727-2.02 4.42v10.6c0 5.325 1.762 11.204 8.373 11.204 7.078 0 8.197-6.524 8.197-12.233v-3.562c0-9.186-.387-9.916-2.23-10.39l-2.103-.555v-.604h10.558v.604l-1.888.516m15.582 27.859H409.77v-.604l1.893-.513c1.757-.475 2.015-.73 2.015-4.422V89.747c0-3.69-.258-3.949-2.015-4.419l-1.893-.516v-.603h11.508c3.652 0 10.689 0 10.689 6.227 0 3.733-4.251 6.01-6.14 6.48v.172c3.777.088 7.512 2.663 7.512 7.17 0 6.567-6.312 8.93-12.147 8.93m-1.16-27.519h-1.974v11.247h2.575c1.844 0 6.698-.513 6.698-5.75 0-5.11-4.25-5.497-7.3-5.497m.947 12.792h-2.92v8.758c0 4.03.6 4.421 2.36 4.421h.648c3.647 0 7.295-1.59 7.295-6.652 0-5.367-3.607-6.527-7.383-6.527m36.784 14.727h-20.427v-.604l1.885-.513c1.762-.475 2.017-.73 2.017-4.422V89.747c0-3.69-.255-3.949-2.017-4.419l-1.885-.516v-.603h13.044v.603l-2.53.516c-1.804.385-2.234.728-2.234 4.42v17.259c0 4.034.604 4.421 2.36 4.421h2.706c4.421 0 5.84-.604 6.527-2.451l1.027-2.832.905.175-1.377 6.867m4.252 0v-.603l1.888-.513c1.762-.475 2.018-.73 2.018-4.422V89.747c0-3.69-.256-3.949-2.018-4.419l-1.888-.516v-.603h12.19v.603l-1.887.516c-1.763.47-2.02.728-2.02 4.42v17.901c0 3.692.257 3.947 2.02 4.422l1.888.513v.604h-12.19m33.783 4.59l-5.794-3.99c-7.644-.772-12.842-5.881-12.842-15.026 0-9.529 7.517-15.367 14.944-15.367 7.98 0 14.98 4.718 14.98 15.367 0 8.071-5.838 14.079-13.136 14.982l4.553 1.976c3.777 1.633 7.856 3.522 11.286 2.102l.3.775c-5.105 2.703-9.486 2.485-14.291-.819m-3.735-32.708c-4.64 0-9.917 3.603-9.917 13.692 0 9.746 4.89 13.396 9.96 13.396 5.064 0 9.957-3.65 9.957-13.396 0-9.875-5.064-13.692-10-13.692m46.448.26c-1.677.469-1.977 1.327-1.977 8.24v5.924c0 7.514-2.319 14.38-11.718 14.38-7.773 0-11.593-5.11-11.593-12.492V89.747c0-3.69-.258-3.949-2.015-4.419l-1.893-.515v-.604h12.196v.604l-1.89.516c-1.76.47-2.018.727-2.018 4.42v10.6c0 5.325 1.756 11.204 8.37 11.204 7.084 0 8.198-6.524 8.198-12.233v-3.562c0-9.186-.384-9.916-2.23-10.39l-2.103-.555v-.604h10.558v.604l-1.885.516m25.023 27.859h-20.864v-.604l1.893-.513c1.76-.475 2.015-.73 2.015-4.422V89.747c0-3.69-.255-3.949-2.015-4.419l-1.893-.516v-.603h20.265v5.713h-.688l-.516-1.934c-.429-1.586-1.373-2.017-6.181-2.017h-4.591V97h4.547c3.952 0 4.55-.126 4.981-1.628l.47-1.589h.645v8.412h-.645l-.514-1.8c-.427-1.504-.985-1.633-4.936-1.633h-4.548v8.245c0 4.034.598 4.421 2.36 4.421h3.304c4.419 0 5.667-.69 6.524-2.451l.947-1.97.73.167-1.29 6.013m13.72.808c-2.508 0-5.703-.642-7.865-1.674l-1.131-6.982.884-.247 1.13 2.657c.936 2.162 3.247 4.08 7.424 4.08 3.837 0 7.424-2.115 7.424-6.394 0-3.392-2.753-5.308-5.407-6.54l-3.247-1.52c-3.587-1.675-6.984-4.38-6.984-8.802 0-5.755 5.167-9.244 10.577-9.244 1.276 0 4.717.143 7.717 1.57v7.034h-.883l-.64-2.61c-.442-1.866-2.308-3.93-6.59-3.93-3.249 0-6.245 1.968-6.245 5.407 0 2.903 2.754 4.723 5.609 6.048l3.194 1.474c3.541 1.622 7.13 4.23 7.13 9 0 7.083-5.996 10.673-12.097 10.673M122.826 51.819h4.437c3.486 0 4.137 2.323 4.137 6.285 0 1.957.301 6.428-4.244 6.428h-4.33zm2.66 10.758h1.284c1.618 0 1.94-1.215 1.94-4.401 0-2.344 0-4.403-1.853-4.403h-1.372v8.804m11.517-10.758h2.656v12.713h-2.656zm10.966 12.713h-2.657V51.82h4.913c1.814 0 2.974 1.16 2.974 3.326 0 1.62-.633 2.834-2.36 3.118v.038c.582.066 2.306.209 2.306 2.498 0 .81.054 3.205.299 3.732h-2.604c-.352-.774-.283-1.636-.283-2.465 0-1.514.14-2.798-1.9-2.798h-.688zm0-7.221h1.18c1.057 0 1.354-1.054 1.354-1.864 0-1.215-.51-1.673-1.354-1.673h-1.18v3.537m10.652 7.221V51.82h6.935v1.954h-4.276v3.131h3.944v1.957h-3.944v3.716h4.416v1.954zm12.149-6.358c0-3.361 0-6.567 4.385-6.567 2.712 0 3.801 1.499 3.695 4.227h-2.605c0-1.694-.302-2.328-1.09-2.328-1.498 0-1.693 1.408-1.693 4.668 0 3.26.195 4.669 1.693 4.669 1.23 0 1.18-1.586 1.214-2.594h2.623c0 3.4-1.356 4.491-3.837 4.491-4.385 0-4.385-3.239-4.385-6.566m20.952-6.355v2.114h-2.956v10.6h-2.662v-10.6h-2.959v-2.114zm4.7 0h2.655v12.713h-2.656zm8.24 6.355c0-3.361 0-6.567 4.386-6.567 4.383 0 4.383 3.206 4.383 6.567 0 3.327 0 6.565-4.383 6.565-4.386 0-4.386-3.238-4.386-6.565m6.07 0c0-3.26-.191-4.668-1.684-4.668-1.499 0-1.696 1.408-1.696 4.668 0 3.26.197 4.669 1.696 4.669 1.493 0 1.684-1.408 1.684-4.669m8.295 6.358V51.82h3.593l3.38 8.804h.037V51.82h2.48v12.712h-3.504l-3.466-9.298h-.033v9.298zm28.384-8.802c.014-1.182-.175-2.223-1.583-2.223-1.658 0-1.658 2.24-1.658 4.704 0 3.98.39 4.685 1.9 4.685.441 0 .919-.107 1.325-.247v-2.82h-1.446v-1.952h4.103v6.444c-.725.138-2.536.42-3.593.42-4.47 0-4.984-1.844-4.984-6.669 0-3.205.163-6.463 4.51-6.463 2.607 0 4.223 1.46 4.067 4.122h-2.64m8.413 8.801V51.82h6.941v1.954h-4.279v3.131h3.941v1.957h-3.94v3.716h4.42v1.954zm5.741-16.53l-2.815 2.516h-1.147l1.586-2.516zm6.55 16.53V51.82h3.593l3.378 8.804h.035V51.82h2.485v12.712h-3.502l-3.47-9.298h-.037v9.298zm15.194 0V51.82h6.937v1.954h-4.28v3.131h3.946v1.957h-3.947v3.716h4.422v1.954zm5.738-16.53l-2.815 2.516h-1.142l1.584-2.516zm9.14 16.53h-2.66V51.82h4.914c1.815 0 2.972 1.16 2.972 3.326 0 1.62-.63 2.834-2.356 3.118v.038c.58.066 2.307.209 2.307 2.498 0 .81.05 3.205.3 3.732h-2.607c-.352-.774-.28-1.636-.28-2.465 0-1.514.14-2.798-1.903-2.798h-.686zm0-7.221h1.18c1.055 0 1.352-1.054 1.352-1.864 0-1.215-.508-1.673-1.354-1.673h-1.177v3.537m9.685 7.221l3.518-12.712h3.502l3.456 12.712h-2.803l-.708-2.818h-3.622l-.725 2.818zm5.121-10.265h-.032l-1.219 5.493h2.536zm10.09 10.265V51.82h2.657v10.6h3.98v2.112zm11.268 0V51.82h6.935v1.954h-4.279v3.131h3.941v1.957h-3.94v3.716h4.418v1.954zM354.05 51.82h4.442c3.482 0 4.132 2.323 4.132 6.285 0 1.957.297 6.428-4.242 6.428h-4.332zm2.657 10.758h1.288c1.616 0 1.935-1.215 1.935-4.401 0-2.344 0-4.403-1.85-4.403h-1.373v8.804m11.516 1.955V51.82h6.938v1.954h-4.281v3.131h3.944v1.957h-3.944v3.716h4.421v1.954zm15.72.208c-3.29 0-3.907-1.932-3.765-4.133h2.66c0 1.21.052 2.237 1.512 2.237.9 0 1.34-.585 1.34-1.447 0-2.289-5.353-2.428-5.353-6.216 0-1.985.953-3.574 4.189-3.574 2.587 0 3.875 1.162 3.7 3.821h-2.588c0-.95-.157-1.921-1.236-1.921-.861 0-1.373.478-1.373 1.358 0 2.413 5.355 2.204 5.355 6.195 0 3.296-2.415 3.68-4.44 3.68"/></g></svg>
