<?xml version="1.0" encoding="utf-8"?>
<!-- Generator: Adobe Illustrator 25.4.1, SVG Export Plug-In . SVG Version: 6.00 Build 0)  -->
<svg version="1.1" id="Calque_1" xmlns="http://www.w3.org/2000/svg" xmlns:xlink="http://www.w3.org/1999/xlink" x="0px" y="0px"
	 viewBox="0 0 1120 960" style="enable-background:new 0 0 1120 960;" xml:space="preserve">
<style type="text/css">
	.st0{fill:#F66775;}
	.st1{fill:#DBE7FF;}
	.st2{fill:#2E5FB6;}
	.st3{fill-rule:evenodd;clip-rule:evenodd;fill:#7AEEF4;}
	.st4{fill:#7AEEF4;}
	.st5{fill:#FFD60C;}
	.st6{fill-rule:evenodd;clip-rule:evenodd;fill:#FFD400;}
</style>
<path class="st0" d="M640,320c0-21-4.1-41.8-12.2-61.2c-8-19.4-19.8-37.1-34.7-51.9c-14.9-14.9-32.5-26.6-51.9-34.7
	c-19.4-8-40.2-12.2-61.2-12.2v160H640z"/>
<path class="st1" d="M320,480v320h320V480H320z M480.8,724.4c-47.1,0-85.2-38.2-85.2-85.2s38.2-85.2,85.2-85.2
	c47.1,0,85.2,38.2,85.2,85.2S527.9,724.4,480.8,724.4z"/>
<path class="st2" d="M480,480c-88.4,0-160,71.6-160,160s71.6,160,160,160s160-71.6,160-160S568.4,480,480,480z M480.8,724.2
	c-47.1,0-85.2-38.2-85.2-85.2s38.2-85.2,85.2-85.2c47.1,0,85.2,38.2,85.2,85.2S527.9,724.2,480.8,724.2z"/>
<path class="st3" d="M720,800c44.2,0,80-35.8,80-80s-35.8-80-80-80s-80,35.8-80,80S675.8,800,720,800z M720,763
	c23.7,0,43-19.3,43-43s-19.3-43-43-43s-43,19.3-43,43S696.3,763,720,763z"/>
<path class="st0" d="M160,800c-21,0-41.8,4.1-61.2,12.2c-19.4,8-37.1,19.8-51.9,34.7s-26.6,32.5-34.7,51.9C4.1,918.2,0,939,0,960
	h160V800z"/>
<circle class="st4" cx="880" cy="880" r="80"/>
<circle class="st4" cx="560" cy="400" r="80"/>
<circle class="st0" cx="840" cy="680" r="40"/>
<circle class="st0" cx="920" cy="760" r="40"/>
<circle class="st0" cx="840" cy="760" r="40"/>
<path class="st4" d="M240,640c-44.2,0-80-35.8-80-80h160C320,604.2,284.2,640,240,640z"/>
<path class="st5" d="M721,559c-44.2,0-80,35.8-80,80h160C801,594.8,765.2,559,721,559z"/>
<path class="st5" d="M721,480c-44.2,0-80,35.8-80,80h160C801,515.8,765.2,480,721,480z"/>
<path class="st5" d="M1040,880c-44.2,0-80,35.8-80,80h160C1120,915.8,1084.2,880,1040,880z"/>
<path class="st5" d="M160,800c21,0,41.8-4.1,61.2-12.2c19.4-8,37.1-19.8,51.9-34.7s26.6-32.5,34.7-51.9c8-19.4,12.2-40.2,12.2-61.2
	H160V800z"/>
<path class="st6" d="M375.5,375.5c-14.7,14.7-34.7,23-55.5,23V480c42.4,0,83.1-16.9,113.1-46.9c30-30,46.9-70.7,46.9-113.1h-81.6
	C398.4,340.8,390.2,360.8,375.5,375.5z"/>
<path class="st2" d="M320,800c-88.4,0-160,71.6-160,160h75c0-46.9,38.1-85,85-85c46.9,0,85,38.1,85,85h75
	C480,871.6,408.4,800,320,800z"/>
<path class="st2" d="M443,79.5c0-21.6,16.1-39.4,37-42.1V0c-44.2,0-80,35.8-80,80c0,44.2,35.8,80,80,80v-38.4
	C459.1,118.9,443,101.1,443,79.5z"/>
<path class="st5" d="M640,800c-88.4,0-160,71.6-160,160h75c0-46.9,38.1-85,85-85s85,38.1,85,85h75C800,871.6,728.4,800,640,800z"/>
</svg>
