<svg xmlns="http://www.w3.org/2000/svg" xml:space="preserve" id="Calque_1" width="163.918" height="36" x="0" y="0" version="1.1" viewBox="115.693 19.067 163.918 36"><script/><style>.st0{fill:#5c6788}.st1{fill:#858da7}.st2{fill:#aeb5bf}</style><path d="M127.829 33.226c0 2.332-.515 4.174-1.559 5.54s-2.435 2.048-4.187 2.048c-2.1 0-3.685-.773-4.767-2.319l-.077 2.048h-1.546V19.351h1.662v8.426c1.056-1.623 2.628-2.448 4.702-2.448 1.778 0 3.182.67 4.226 2.023s1.546 3.221 1.546 5.617zm-1.675-.296q0-2.957-1.16-4.561c-1.16-1.604-1.855-1.61-3.259-1.61-1.069 0-1.971.258-2.718.786-.734.515-1.301 1.275-1.675 2.28v6.725c.837 1.868 2.306 2.821 4.432 2.821 1.366 0 2.448-.541 3.221-1.61q1.16-1.604 1.16-4.831M130.573 32.853c0-1.43.283-2.731.837-3.878.567-1.147 1.353-2.048 2.383-2.68s2.19-.953 3.491-.953q3.015 0 4.87 2.087c1.237 1.391 1.868 3.247 1.868 5.54v.335c0 1.443-.283 2.744-.837 3.891-.567 1.147-1.353 2.048-2.371 2.667-1.018.631-2.177.94-3.491.94q-2.995 0-4.87-2.087c-1.25-1.391-1.868-3.247-1.868-5.54zm1.675.451c0 1.778.477 3.247 1.404 4.393s2.152 1.713 3.672 1.713c1.507 0 2.718-.567 3.659-1.713.928-1.147 1.404-2.654 1.404-4.535v-.309a7.8 7.8 0 0 0-.631-3.131c-.425-.953-1.031-1.675-1.804-2.203a4.65 4.65 0 0 0-2.641-.786c-1.494 0-2.693.58-3.633 1.739-.94 1.147-1.404 2.667-1.404 4.535v.296zM156.482 36.743c0-.812-.322-1.469-.992-1.971-.67-.49-1.662-.889-3.002-1.16-1.34-.283-2.371-.606-3.118-.966-.734-.361-1.288-.799-1.649-1.327-.348-.528-.541-1.16-.541-1.907 0-1.185.49-2.152 1.494-2.925.992-.773 2.267-1.147 3.813-1.147 1.675 0 3.028.412 4.045 1.237s1.52 1.907 1.52 3.221h-1.675c0-.876-.374-1.598-1.108-2.177s-1.675-.863-2.783-.863c-1.095 0-1.971.245-2.641.721s-.992 1.108-.992 1.881c0 .747.283 1.327.825 1.739q.831.618 3.015 1.121c1.456.335 2.551.709 3.285 1.095.721.387 1.275.85 1.623 1.391s.528 1.198.528 1.971c0 1.263-.515 2.267-1.533 3.015-1.031.747-2.371 1.134-4.02 1.134-1.752 0-3.182-.412-4.264-1.263-1.095-.837-1.636-1.907-1.636-3.182h1.675c.064.966.477 1.713 1.237 2.255s1.752.799 3.002.799c1.16 0 2.1-.245 2.809-.76.734-.528 1.082-1.16 1.082-1.933M170.924 36.743c0-.812-.322-1.469-.992-1.971-.67-.49-1.662-.889-3.002-1.16-1.34-.283-2.371-.606-3.118-.966-.734-.361-1.288-.799-1.649-1.327-.348-.528-.541-1.16-.541-1.907 0-1.185.49-2.152 1.494-2.925.992-.773 2.267-1.147 3.813-1.147 1.675 0 3.028.412 4.045 1.237s1.52 1.907 1.52 3.221h-1.675c0-.876-.374-1.598-1.108-2.177s-1.675-.863-2.783-.863c-1.095 0-1.971.245-2.641.721s-.992 1.108-.992 1.881c0 .747.283 1.327.825 1.739q.831.618 3.015 1.121c1.469.335 2.551.709 3.285 1.095.721.387 1.275.85 1.623 1.391s.528 1.198.528 1.971c0 1.263-.515 2.267-1.533 3.015-1.031.747-2.371 1.134-4.02 1.134-1.752 0-3.182-.412-4.264-1.263-1.095-.837-1.636-1.907-1.636-3.182h1.675c.064.966.477 1.713 1.237 2.255s1.752.799 3.002.799c1.16 0 2.1-.245 2.809-.76.721-.528 1.082-1.16 1.082-1.933" class="st0"/><path d="M176.18 39.539c0-.322.103-.593.309-.825s.502-.335.863-.335c.374 0 .67.116.876.335.219.232.322.502.322.825s-.103.593-.322.799-.502.309-.876.309-.657-.103-.863-.309-.309-.477-.309-.799M182.48 32.93c0-2.332.515-4.187 1.559-5.553q1.565-2.048 4.252-2.048 3.073 0 4.677 2.435l.077-2.152h1.559v14.623q0 2.879-1.623 4.561c-1.095 1.121-2.551 1.675-4.406 1.675-1.044 0-2.048-.232-3.002-.696s-1.701-1.082-2.242-1.855l.928-.992c1.185 1.43 2.577 2.152 4.2 2.152 1.391 0 2.474-.399 3.259-1.224.786-.812 1.185-1.945 1.211-3.388V38.6c-1.069 1.469-2.628 2.216-4.664 2.216-1.752 0-3.144-.696-4.2-2.061-1.056-1.379-1.585-3.247-1.585-5.591zm1.688.296c0 1.907.387 3.401 1.16 4.509s1.855 1.649 3.259 1.649c2.048 0 3.504-.915 4.367-2.731v-6.944c-.399-.953-.953-1.675-1.688-2.177s-1.61-.747-2.641-.747c-1.404 0-2.486.541-3.272 1.636s-1.185 2.68-1.185 4.806M198.044 32.853c0-1.43.283-2.731.837-3.878.567-1.147 1.353-2.048 2.383-2.68s2.19-.953 3.491-.953q3.015 0 4.87 2.087c1.237 1.391 1.868 3.247 1.868 5.54v.335c0 1.443-.283 2.744-.837 3.891-.567 1.147-1.353 2.048-2.371 2.667s-2.177.94-3.491.94q-2.995 0-4.87-2.087c-1.25-1.391-1.868-3.247-1.868-5.54v-.322zm1.662.451c0 1.778.477 3.247 1.404 4.393s2.152 1.713 3.672 1.713c1.507 0 2.718-.567 3.659-1.713.928-1.147 1.404-2.654 1.404-4.535v-.309a7.8 7.8 0 0 0-.631-3.131c-.425-.953-1.031-1.675-1.804-2.203a4.65 4.65 0 0 0-2.641-.786c-1.494 0-2.693.58-3.633 1.739-.94 1.147-1.404 2.667-1.404 4.535zM224.609 38.637c-1.005 1.443-2.602 2.164-4.806 2.164-1.61 0-2.834-.464-3.659-1.391q-1.256-1.391-1.275-4.097v-9.701h1.662v9.508c0 2.847 1.16 4.264 3.479 4.264 2.409 0 3.942-.992 4.586-2.963V25.625h1.675v14.919h-1.61zM235.277 38.251l4.586-12.639h1.713l-5.63 14.919h-1.339l-5.643-14.919h1.713z" class="st1"/><path d="M242.659 39.539c0-.322.103-.593.309-.825s.502-.335.863-.335c.374 0 .67.116.876.335.219.232.322.502.322.825s-.103.593-.322.799-.502.309-.876.309-.657-.103-.863-.309-.309-.477-.309-.799M250.814 40.531V26.965h-2.486v-1.353h2.486v-1.804c0-1.52.399-2.693 1.185-3.517.786-.812 1.881-1.224 3.272-1.224.631 0 1.224.077 1.765.232l-.129 1.366a7 7 0 0 0-1.52-.167c-.915 0-1.636.283-2.152.85s-.773 1.366-.773 2.409v1.855h3.594v1.353h-3.594v13.566zM266.016 27.016a6 6 0 0 0-1.121-.09c-1.031 0-1.92.283-2.641.863s-1.237 1.417-1.533 2.512v10.242h-1.662V25.612h1.623l.026 2.371c.876-1.765 2.306-2.641 4.252-2.641.464 0 .825.064 1.108.18z" class="st2"/><path d="M116.685 54.226h3.169v.721h-4.058v-6.634h.889zM122.779 55.038c-.67 0-1.224-.219-1.649-.657s-.631-1.031-.631-1.752v-.155c0-.49.09-.928.283-1.314s.451-.683.799-.902a2 2 0 0 1 1.108-.322c.644 0 1.147.206 1.507.631q.541.638.541 1.817v.348h-3.375c.013.49.155.876.425 1.185.271.296.618.451 1.044.451.296 0 .554-.064.76-.18s.399-.283.541-.477l.515.399c-.399.606-1.031.928-1.868.928m-.09-4.419c-.335 0-.631.129-.863.374s-.387.593-.425 1.031h2.486v-.064c-.026-.425-.142-.76-.348-.992q-.329-.348-.85-.348M132.248 52.526c0 .747-.18 1.353-.528 1.817-.348.451-.812.683-1.404.683-.631 0-1.108-.219-1.456-.657l-.039.567h-.786V47.94h.85v2.615c.335-.425.812-.631 1.417-.631s1.082.232 1.43.683c.335.451.515 1.069.515 1.855zm-.863-.09c0-.58-.116-1.018-.335-1.327s-.541-.477-.953-.477c-.567 0-.953.258-1.211.773v2.139c.258.515.67.773 1.211.773.399 0 .721-.155.953-.477.232-.296.335-.773.335-1.404M136.384 54.458c-.322.387-.812.58-1.456.58-.528 0-.928-.155-1.211-.451-.283-.309-.412-.747-.412-1.353v-3.195h.85v3.169c0 .747.309 1.121.915 1.121.644 0 1.082-.245 1.301-.721v-3.582h.85v4.921h-.812zM139.424 54.948h-.85v-6.996h.85zM141.704 54.948h-.85v-6.996h.85zM145.131 55.038c-.67 0-1.224-.219-1.649-.657s-.631-1.031-.631-1.752v-.155c0-.49.09-.928.283-1.314s.451-.683.799-.902a2 2 0 0 1 1.108-.322c.644 0 1.147.206 1.507.631q.541.638.541 1.817v.348h-3.363c.013.49.155.876.425 1.185.271.296.618.451 1.044.451.296 0 .554-.064.76-.18s.399-.283.541-.477l.515.399c-.425.606-1.056.928-1.881.928m-.116-4.419c-.335 0-.631.129-.863.374s-.387.593-.425 1.031h2.486v-.064c-.026-.425-.142-.76-.348-.992-.219-.232-.49-.348-.85-.348M149.203 48.828v1.198h.928v.644h-.928v3.054c0 .193.039.348.129.438.077.103.219.142.425.142a1.4 1.4 0 0 0 .399-.064v.683c-.219.064-.438.09-.644.09-.387 0-.67-.116-.863-.335-.193-.232-.296-.554-.296-.966v-3.053h-.902v-.644h.902v-1.187zM151.122 48.712c0-.142.039-.245.129-.348.077-.09.206-.142.374-.142s.296.039.387.142c.09.09.129.206.129.348s-.039.245-.129.335-.206.142-.387.142c-.167 0-.296-.039-.374-.142a.44.44 0 0 1-.129-.335m.928 6.236h-.85v-4.921h.85zM154.201 50.026l.026.618c.387-.477.876-.709 1.494-.709 1.044 0 1.585.593 1.585 1.752v3.259h-.85v-3.259c0-.348-.077-.618-.245-.786-.155-.167-.412-.245-.747-.245-.283 0-.515.077-.721.219s-.374.335-.49.58v3.504h-.85v-4.921zM160.695 52.435c0-.477.09-.915.283-1.301s.451-.683.799-.889a2.2 2.2 0 0 1 1.172-.322c.683 0 1.224.232 1.636.696s.631 1.082.631 1.855v.064c0 .477-.09.915-.283 1.288-.18.387-.451.683-.799.889-.348.219-.734.322-1.198.322-.67 0-1.224-.232-1.636-.696s-.631-1.082-.631-1.842v-.064zm.85.09c0 .541.129.992.387 1.314.245.322.593.49 1.031.49s.773-.167 1.031-.502c.245-.335.387-.799.387-1.417q0-.812-.387-1.314a1.24 1.24 0 0 0-1.031-.502c-.412 0-.76.167-1.018.49-.271.361-.399.837-.399 1.443M166.698 54.948v-4.277h-.786v-.644h.786v-.502c0-.528.142-.94.425-1.224.283-.296.696-.425 1.211-.425.193 0 .399.026.58.077l-.039.683q-.213-.039-.464-.039c-.283 0-.49.077-.631.245q-.232.232-.232.696v.515h1.056v.644h-1.056v4.277zM169.971 54.948v-4.277h-.786v-.644h.786v-.502c0-.528.142-.94.425-1.224.283-.296.696-.425 1.211-.425.193 0 .399.026.58.077l-.039.67q-.213-.039-.464-.039c-.283 0-.49.077-.631.245q-.232.232-.232.696v.515h1.056v.644h-1.056v4.277zM172.818 48.712c0-.142.039-.245.129-.348.077-.09.206-.142.374-.142s.296.039.387.142c.09.09.129.206.129.348s-.039.245-.129.335-.206.142-.387.142c-.167 0-.296-.039-.374-.142a.5.5 0 0 1-.129-.335m.915 6.236h-.85v-4.921h.85zM177.095 54.342c.309 0 .567-.09.799-.271s.348-.412.387-.683h.799c-.013.283-.116.554-.296.799s-.425.451-.721.606-.618.232-.953.232c-.683 0-1.211-.219-1.61-.67s-.606-1.056-.606-1.829v-.142q0-.715.271-1.275c.18-.374.425-.67.773-.863.322-.206.721-.309 1.185-.309.554 0 1.018.167 1.391.49s.567.76.593 1.288h-.799c-.026-.322-.142-.58-.374-.786q-.329-.309-.812-.309c-.425 0-.773.155-1.005.464-.245.309-.348.747-.348 1.34v.155q0 .85.348 1.314c.206.296.541.451.979.451M180.033 48.712c0-.142.039-.245.129-.348.077-.09.206-.142.374-.142s.296.039.387.142c.09.09.129.206.129.348s-.039.245-.129.335-.206.142-.387.142c-.167 0-.296-.039-.374-.142-.103-.09-.129-.193-.129-.335m.915 6.236h-.85v-4.921h.85zM184.361 55.038c-.67 0-1.224-.219-1.649-.657s-.631-1.031-.631-1.752v-.155c0-.49.09-.928.283-1.314s.451-.683.799-.902a2 2 0 0 1 1.108-.322c.644 0 1.147.206 1.507.631q.541.638.541 1.817v.348h-3.375c.013.49.155.876.425 1.185.271.296.618.451 1.044.451.296 0 .554-.064.76-.18s.399-.283.541-.477l.515.399c-.399.606-1.031.928-1.868.928m-.09-4.419c-.335 0-.631.129-.863.374s-.387.593-.425 1.031h2.486v-.064c-.026-.425-.142-.76-.348-.992q-.329-.348-.85-.348M188.214 54.948h-.85v-6.996h.85zM191.692 52.435c0-.747.18-1.353.541-1.829.361-.464.837-.696 1.417-.696s1.044.193 1.379.593v-2.564h.85v6.996h-.786l-.039-.528c-.335.412-.812.618-1.417.618-.58 0-1.044-.232-1.404-.709s-.541-1.082-.541-1.829zm.85.09q0 .831.348 1.314c.348.483.554.477.953.477.541 0 .928-.245 1.185-.721V51.34c-.245-.464-.644-.696-1.172-.696-.412 0-.734.155-.979.477-.219.309-.335.786-.335 1.404M199.267 55.038c-.67 0-1.224-.219-1.649-.657s-.631-1.031-.631-1.752v-.155c0-.49.09-.928.283-1.314s.451-.683.799-.902a2 2 0 0 1 1.108-.322c.644 0 1.147.206 1.507.631q.541.638.541 1.817v.348h-3.363c.013.49.155.876.425 1.185.271.296.618.451 1.044.451.296 0 .554-.064.76-.18s.399-.283.541-.477l.515.399c-.425.606-1.056.928-1.881.928m-.103-4.419c-.335 0-.631.129-.863.374s-.387.593-.425 1.031h2.486v-.064c-.026-.425-.142-.76-.348-.992q-.329-.348-.85-.348M205.439 54.948h-.85v-6.996h.85zM209.87 54.948c-.052-.09-.09-.271-.116-.515-.399.399-.863.606-1.417.606-.49 0-.889-.142-1.211-.412s-.477-.618-.477-1.044c0-.515.193-.915.593-1.198q.599-.425 1.662-.425h.825v-.387c0-.296-.09-.528-.271-.709s-.438-.258-.786-.258c-.309 0-.554.077-.76.232s-.309.335-.309.554h-.85c0-.245.09-.477.271-.721.18-.232.412-.412.721-.541s.631-.206.992-.206q.85 0 1.353.425c.322.283.49.683.502 1.172v2.267c0 .451.064.812.18 1.082v.077zm-1.417-.644c.271 0 .515-.077.76-.206.245-.142.412-.322.515-.528v-1.018h-.67c-1.044 0-1.559.309-1.559.902q0 .406.271.618c.18.155.412.232.683.232M216.351 51.984c-.76-.219-1.301-.477-1.649-.799-.335-.322-.515-.709-.515-1.16 0-.515.206-.953.631-1.301.425-.335.966-.515 1.636-.515.464 0 .863.09 1.224.271s.631.412.837.721c.193.309.296.644.296 1.018h-.889c0-.399-.129-.721-.387-.953s-.618-.335-1.095-.335c-.438 0-.773.09-1.018.283s-.374.451-.374.799c0 .271.116.502.348.683.232.193.631.361 1.185.515s.992.322 1.301.515c.322.18.541.399.696.644s.232.541.232.876c0 .541-.206.966-.631 1.288s-.992.49-1.701.49c-.464 0-.889-.09-1.288-.258-.399-.18-.709-.412-.928-.721s-.322-.644-.322-1.031h.889c0 .399.155.721.451.953q.444.348 1.198.348c.477 0 .825-.09 1.069-.283s.374-.438.374-.773c0-.322-.116-.58-.335-.747-.219-.18-.644-.348-1.237-.528M221.878 55.038c-.67 0-1.224-.219-1.649-.657s-.631-1.031-.631-1.752v-.155c0-.49.09-.928.283-1.314s.451-.683.799-.902a2 2 0 0 1 1.108-.322c.644 0 1.147.206 1.507.631q.541.638.541 1.817v.348h-3.363c.013.49.155.876.425 1.185.271.296.618.451 1.044.451.296 0 .554-.064.76-.18s.399-.283.541-.477l.515.399c-.412.606-1.031.928-1.881.928m-.09-4.419c-.335 0-.631.129-.863.374s-.387.593-.425 1.031h2.486v-.064c-.026-.425-.142-.76-.348-.992q-.329-.348-.85-.348m.399-2.654h1.031l-1.237 1.34h-.683zM226.799 54.342c.309 0 .567-.09.799-.271s.348-.412.387-.683h.799c-.013.283-.116.554-.296.799s-.425.451-.721.606-.618.232-.953.232c-.683 0-1.211-.219-1.61-.67s-.606-1.056-.606-1.829v-.142q0-.715.271-1.275c.18-.374.425-.67.773-.863.322-.206.721-.309 1.185-.309.554 0 1.018.167 1.391.49s.567.76.593 1.288h-.799c-.026-.322-.142-.58-.374-.786s-.49-.309-.812-.309c-.425 0-.773.155-1.005.464-.245.309-.348.747-.348 1.34v.155q0 .85.348 1.314c.206.296.541.451.979.451M232.803 54.458c-.322.387-.812.58-1.456.58-.528 0-.928-.155-1.211-.451-.283-.309-.412-.747-.412-1.353v-3.195h.85v3.169c0 .747.309 1.121.915 1.121.644 0 1.082-.245 1.301-.721v-3.582h.85v4.921h-.812zM237.325 50.773a4 4 0 0 0-.412-.026c-.554 0-.94.232-1.134.709v3.491h-.85v-4.921h.825l.013.567c.283-.438.67-.657 1.185-.657.167 0 .296.013.387.064zM238.098 48.712c0-.142.039-.245.129-.348.077-.09.206-.142.374-.142s.296.039.387.142c.09.09.129.206.129.348s-.039.245-.129.335-.206.142-.387.142c-.167 0-.296-.039-.374-.142a.5.5 0 0 1-.129-.335m.928 6.236h-.85v-4.921h.85zM241.538 48.828v1.198h.928v.644h-.928v3.054c0 .193.039.348.129.438.077.09.219.142.425.142a1.4 1.4 0 0 0 .399-.064v.683c-.219.064-.438.09-.644.09-.387 0-.67-.116-.863-.335-.193-.232-.296-.554-.296-.966v-3.053h-.902v-.644h.902v-1.187zM245.519 55.038c-.67 0-1.224-.219-1.649-.657s-.631-1.031-.631-1.752v-.155c0-.49.09-.928.283-1.314s.451-.683.799-.902a2 2 0 0 1 1.108-.322c.644 0 1.147.206 1.507.631q.541.638.541 1.817v.348h-3.363c.013.49.155.876.425 1.185.271.296.618.451 1.044.451.296 0 .554-.064.76-.18s.399-.283.541-.477l.515.399c-.425.606-1.056.928-1.881.928m-.103-4.419c-.335 0-.631.129-.863.374s-.387.593-.425 1.031h2.486v-.064c-.026-.425-.142-.76-.348-.992q-.329-.348-.85-.348m.412-2.654h1.031l-1.237 1.34h-.683zM253.661 53.634c0-.232-.09-.399-.258-.528s-.477-.232-.902-.322-.773-.206-1.031-.322a1.7 1.7 0 0 1-.567-.451 1.14 1.14 0 0 1-.18-.631c0-.399.167-.747.515-1.031s.786-.412 1.327-.412c.567 0 1.018.142 1.366.425.348.296.528.657.528 1.108h-.85c0-.232-.103-.425-.296-.593s-.451-.245-.747-.245c-.309 0-.554.077-.721.206s-.258.309-.258.528c0 .206.077.348.245.464.167.103.451.206.876.296s.773.206 1.031.335c.271.129.451.283.593.477.129.18.193.399.193.67 0 .438-.18.799-.528 1.056-.348.271-.812.399-1.379.399-.399 0-.747-.077-1.056-.206a1.8 1.8 0 0 1-.721-.58 1.4 1.4 0 0 1-.258-.812h.85a.88.88 0 0 0 .335.67c.219.167.49.245.837.245q.483 0 .773-.193c.193-.155.283-.335.283-.554M255.4 52.435c0-.477.09-.915.283-1.301s.451-.683.799-.889a2.2 2.2 0 0 1 1.172-.322c.683 0 1.224.232 1.636.696s.631 1.082.631 1.855v.064c0 .477-.09.915-.283 1.288-.18.387-.451.683-.799.889-.335.219-.734.322-1.198.322-.67 0-1.224-.232-1.636-.696s-.631-1.082-.631-1.842v-.064zm.85.09c0 .541.129.992.387 1.314.245.322.593.49 1.031.49.425 0 .773-.167 1.031-.502.245-.335.387-.799.387-1.417q0-.812-.387-1.314a1.24 1.24 0 0 0-1.031-.502c-.412 0-.76.167-1.018.49-.283.361-.399.837-.399 1.443M262.976 54.342c.309 0 .567-.09.799-.271s.348-.412.387-.683h.799c-.013.283-.116.554-.296.799s-.425.451-.721.606-.618.232-.953.232c-.683 0-1.211-.219-1.61-.67s-.606-1.056-.606-1.829v-.142q0-.715.271-1.275c.18-.374.425-.67.773-.863.322-.206.721-.309 1.185-.309.554 0 1.018.167 1.391.49s.567.76.593 1.288h-.812c-.026-.322-.142-.58-.374-.786s-.49-.309-.812-.309c-.425 0-.773.155-1.005.464-.245.309-.348.747-.348 1.34v.155q0 .85.348 1.314c.219.296.554.451.992.451M265.913 48.712c0-.142.039-.245.129-.348.077-.09.206-.142.374-.142s.296.039.387.142c.09.09.129.206.129.348s-.039.245-.129.335-.206.142-.387.142c-.167 0-.296-.039-.374-.142a.44.44 0 0 1-.129-.335m.915 6.236h-.85v-4.921h.85zM271.26 54.948c-.052-.09-.09-.271-.116-.515-.399.399-.863.606-1.417.606-.49 0-.889-.142-1.211-.412s-.477-.618-.477-1.044c0-.515.193-.915.593-1.198q.599-.425 1.662-.425h.825v-.387c0-.296-.09-.528-.271-.709s-.438-.258-.786-.258c-.309 0-.554.077-.76.232s-.309.335-.309.554h-.85c0-.245.09-.477.271-.721.18-.232.412-.412.721-.541s.631-.206.992-.206q.85 0 1.353.425c.322.283.49.683.502 1.172v2.267c0 .451.064.812.18 1.082v.077zm-1.417-.644c.271 0 .515-.077.76-.206.245-.142.412-.322.515-.528v-1.018h-.67c-1.044 0-1.559.309-1.559.902q0 .406.271.618c.18.155.412.232.683.232M274.223 54.948h-.85v-6.996h.85zM277.65 55.038c-.67 0-1.224-.219-1.649-.657s-.631-1.031-.631-1.752v-.155c0-.49.09-.928.283-1.314s.451-.683.799-.902a2 2 0 0 1 1.108-.322c.644 0 1.147.206 1.507.631q.541.638.541 1.817v.348h-3.363c.013.49.155.876.425 1.185.271.296.618.451 1.044.451.296 0 .554-.064.76-.18s.399-.283.541-.477l.515.399c-.425.606-1.056.928-1.881.928m-.103-4.419c-.335 0-.631.129-.863.374s-.387.593-.425 1.031h2.486v-.064c-.026-.425-.142-.76-.348-.992q-.329-.348-.85-.348" class="st0"/></svg>