<svg xmlns="http://www.w3.org/2000/svg" xml:space="preserve" id="Calque_1" width="80.458" height="36" x="0" y="0" version="1.1"><script/><style>.st0{fill:#283276}.st1{fill:#f29fc5}.st2{fill:#008ecf}.st4{fill:#ffe000}</style><path d="M32.058 25.522a3.025 3.025 0 0 1-3.022 3.022 3.025 3.025 0 0 1-3.022-3.022 3.025 3.025 0 0 1 3.022-3.022c1.675.016 3.022 1.363 3.022 3.022" class="st0"/><path d="M12.186 14.272c0 1.659-1.347 3.022-3.022 3.022s-3.022-1.347-3.022-3.022c0-1.659 1.347-3.022 3.022-3.022s3.022 1.347 3.022 3.022" class="st1"/><path d="M26.359 22.221a3.025 3.025 0 0 1-3.022 3.022 3.025 3.025 0 0 1-3.022-3.022 3.025 3.025 0 0 1 3.022-3.022c1.675.016 3.022 1.363 3.022 3.022" class="st2"/><path d="M19.068 25.867a3.025 3.025 0 0 1-3.022 3.022 3.025 3.025 0 0 1-3.022-3.022 3.025 3.025 0 0 1 3.022-3.022c1.675.016 3.022 1.363 3.022 3.022" class="st1"/><path d="M19.068 32.978A3.025 3.025 0 0 1 16.046 36a3.025 3.025 0 0 1-3.022-3.022 3.025 3.025 0 0 1 3.022-3.022c1.675.016 3.022 1.363 3.022 3.022m12.99-22.467a3.025 3.025 0 0 1-3.022 3.022 3.025 3.025 0 0 1-3.022-3.022 3.025 3.025 0 0 1 3.022-3.022c1.675.016 3.022 1.363 3.022 3.022m-5.699 3.761a3.025 3.025 0 0 1-3.022 3.022 3.025 3.025 0 0 1-3.022-3.022c0-1.659 1.347-3.022 3.022-3.022s3.022 1.347 3.022 3.022M11.742 22.5c0 1.659-1.347 3.022-3.022 3.022S5.698 24.175 5.698 22.5c0-1.659 1.347-3.022 3.022-3.022s3.022 1.347 3.022 3.022M5.994 9.854c.361 1.626-.657 3.235-2.283 3.597S.476 12.794.115 11.168s.657-3.235 2.283-3.597 3.235.657 3.597 2.283" class="st0"/><path d="M5.699 16.374c-.131.936-1.002 1.593-1.938 1.462s-1.593-1.002-1.462-1.938 1.002-1.593 1.938-1.462 1.593 1.002 1.462 1.938m17.294 12.433c-.148 1.084-1.15 1.823-2.234 1.675s-1.823-1.15-1.675-2.234 1.15-1.823 2.234-1.675c1.068.148 1.823 1.15 1.675 2.234m5.847-12.498c-.099.657-.69 1.1-1.347 1.002s-1.1-.69-1.018-1.347c.099-.657.69-1.1 1.347-1.002s1.1.69 1.018 1.347m-11.743-5.6c-.131.936-1.002 1.593-1.938 1.462s-1.593-1.002-1.462-1.938 1.002-1.593 1.938-1.462 1.593 1.002 1.462 1.938" style="fill:#e1000f"/><path d="M22.024 8.474c-.131.936-1.002 1.593-1.938 1.462s-1.593-1.002-1.462-1.938 1.002-1.593 1.938-1.462a1.71 1.71 0 0 1 1.462 1.938" class="st1"/><path d="M10.872 27.345c-.131.936-1.002 1.593-1.938 1.462s-1.593-1.002-1.462-1.938 1.002-1.593 1.938-1.462 1.593 1.002 1.462 1.938m16.867-7.703c-.131.936-1.002 1.593-1.938 1.462s-1.593-1.002-1.462-1.938 1.002-1.593 1.938-1.462a1.68 1.68 0 0 1 1.462 1.938" class="st4"/><path d="M25.785 27.608c.509.805.263 1.856-.542 2.365s-1.856.263-2.365-.542-.263-1.856.542-2.365a1.724 1.724 0 0 1 2.365.542" class="st0"/><path d="M12.679 7.456a1.72 1.72 0 0 1-1.938 1.462c-.953-.131-1.593-1.002-1.462-1.938s1.002-1.593 1.938-1.462 1.593 1.002 1.462 1.938" class="st4"/><path d="M19.215 3.17a3.17 3.17 0 0 1-3.17 3.17 3.17 3.17 0 0 1-3.17-3.17C12.876 1.429 14.288 0 16.046 0s3.169 1.412 3.169 3.17M6.043 25.506c0 1.659-1.347 3.022-3.022 3.022S0 27.181 0 25.505c0-1.659 1.347-3.022 3.022-3.022s3.022 1.363 3.022 3.022m14.863-8.113c0 2.907-2.349 5.255-5.255 5.255s-5.255-2.349-5.255-5.255 2.349-5.255 5.255-5.255c2.891-.016 5.255 2.349 5.255 5.255" class="st2"/><path d="M39.12 6.996h5.321v1.33H40.68v2.693h3.219v1.314H40.68v4.204h-1.56zm6.569 2.677h1.396v.772c.476-.526 1.084-.92 1.922-.92.214 0 .427.033.608.099v1.38a3 3 0 0 0-.723-.099c-.87 0-1.445.46-1.807 1.051v4.582h-1.396zm4.763 5.075c0-1.035.805-1.79 2.266-2.036l2.217-.361v-.362c0-.838-.624-1.363-1.511-1.363-.755 0-1.33.345-1.724.903l-1.051-.805c.608-.821 1.593-1.33 2.825-1.33 1.856 0 2.874 1.084 2.874 2.611v4.533h-1.396v-.772c-.493.608-1.347.985-2.201.985-1.38 0-2.299-.788-2.299-2.004m2.546.854c.854 0 1.527-.411 1.938-1.068v-1.182l-1.856.312c-.854.148-1.215.526-1.215 1.035 0 .526.427.903 1.133.903m5.321-5.929h1.396v.675c.526-.542 1.199-.936 2.184-.936 1.511 0 2.677 1.018 2.677 3.005v4.122h-1.412v-4.073c0-1.084-.608-1.741-1.577-1.741-.936 0-1.495.591-1.856 1.182v4.631h-1.396V9.673zm13.434 4.911 1.1.838c-.624.838-1.642 1.396-2.907 1.396-2.299 0-3.745-1.708-3.745-3.712s1.445-3.712 3.745-3.712c1.248 0 2.283.542 2.907 1.396l-1.1.838a2.19 2.19 0 0 0-1.807-.92c-1.33 0-2.283 1.035-2.283 2.381 0 1.363.953 2.381 2.283 2.381a2.17 2.17 0 0 0 1.807-.887m5.748 2.234c-2.365 0-3.777-1.708-3.777-3.712 0-2.053 1.314-3.712 3.482-3.712 1.889 0 3.12 1.297 3.12 3.038 0 .312-.033.624-.099.838h-5.075c.099 1.495 1.002 2.283 2.332 2.283.838 0 1.527-.361 1.954-.936l1.018.821c-.624.838-1.675 1.38-2.956 1.38m-2.266-4.599h3.695c-.033-.854-.641-1.642-1.741-1.642-1.018 0-1.724.575-1.954 1.642m-37.132 7.048h7.703v1.429h-3.071v8.113h-1.56v-8.114h-3.072zm8.359 2.661h1.396v.772c.476-.526 1.084-.92 1.922-.92.214 0 .427.033.608.099v1.38a3 3 0 0 0-.723-.099c-.87 0-1.445.46-1.807 1.051v4.582h-1.396zm4.763 5.091c0-1.035.805-1.79 2.266-2.036l2.217-.361v-.361c0-.838-.624-1.363-1.511-1.363-.755 0-1.33.345-1.724.903l-1.051-.805c.608-.821 1.593-1.33 2.825-1.33 1.856 0 2.874 1.084 2.874 2.611v4.533h-1.396v-.772c-.493.608-1.347.985-2.201.985-1.363-.016-2.299-.788-2.299-2.004m2.546.838c.854 0 1.527-.411 1.938-1.068v-1.182l-1.856.312c-.854.148-1.215.526-1.215 1.035 0 .542.427.903 1.133.903m5.978-5.929 2.02 5.354 2.004-5.354h1.527l-2.611 6.881h-1.872l-2.578-6.881zm6.274 5.091c0-1.035.805-1.79 2.266-2.036l2.217-.361v-.361c0-.838-.624-1.363-1.511-1.363-.755 0-1.33.345-1.724.903l-1.051-.805c.608-.821 1.593-1.33 2.825-1.33 1.856 0 2.874 1.084 2.874 2.611v4.533h-1.396v-.772c-.493.608-1.347.985-2.201.985-1.363-.016-2.299-.788-2.299-2.004m2.562.838c.854 0 1.527-.411 1.938-1.068v-1.182l-1.856.312c-.854.148-1.215.526-1.215 1.035 0 .542.411.903 1.133.903m5.535-5.929h1.396v6.865h-1.396zm3.679-3.35h1.396v10.215h-1.396zm-3.827 1.265c0-.46.378-.838.838-.838s.838.378.838.838-.378.838-.838.838a.864.864 0 0 1-.838-.838" class="st0"/></svg>