<svg xmlns="http://www.w3.org/2000/svg" xml:space="preserve" id="Calque_1" width="154.609" height="36" x="0" y="0" version="1.1" viewBox="175.573 155.456 154.609 36"><script/><style>.st0{fill:#1f55a0}</style><path d="M238.5 156.926v15.738h-2.909v-15.738zM240.859 157.319q.809.001 1.337.538c.528.537.532.804.532 1.349q-.002.535-.357 1.161l-2.226 3.75h-.079v-6.665a2.2 2.2 0 0 1 .792-.133M247.059 161.958c1.282 0 2.238.466 2.855 1.385l.139-1.179h2.619v10.5h-2.619l-.139-1.161q-.942 1.368-2.855 1.367c-1.3 0-2.353-.508-3.169-1.53-.81-1.022-1.222-2.329-1.222-3.913s.405-2.897 1.222-3.925 1.869-1.542 3.169-1.542m.708 2.673q-.963.001-1.554.756c-.591.755-.593 1.185-.593 2.038 0 .859.2 1.53.593 2.032s.913.744 1.554.744c.829 0 1.488-.435 1.99-1.306v-2.964c-.502-.871-1.161-1.3-1.99-1.3M258.291 161.958c1.44 0 2.631.369 3.563 1.095l-1.065 2.153c-.829-.593-1.663-.889-2.516-.889s-1.276.278-1.276.829q0 .392.363.611c.363.219.714.308 1.409.484q3.147.787 3.145 3.109-.002 1.597-1.173 2.558-1.17.962-3.175.962-2.42.002-3.835-1.204l1.101-2.196c.81.702 1.73 1.058 2.752 1.058q1.415 0 1.415-.889a.78.78 0 0 0-.345-.665c-.23-.163-.665-.333-1.306-.496-1.143-.29-1.966-.671-2.48-1.149s-.768-1.113-.768-1.917q-.002-1.595 1.113-2.528c1.115-.933 1.766-.925 3.079-.925M266.909 161.958c1.44 0 2.631.369 3.563 1.095l-1.065 2.153c-.829-.593-1.663-.889-2.516-.889s-1.276.278-1.276.829q0 .392.363.611c.363.219.714.308 1.409.484q3.147.787 3.145 3.109-.001 1.597-1.173 2.558-1.17.962-3.175.962-2.42.002-3.835-1.204l1.101-2.196c.81.702 1.73 1.058 2.752 1.058q1.415 0 1.415-.889a.78.78 0 0 0-.345-.665c-.23-.163-.665-.333-1.306-.496-1.143-.29-1.966-.671-2.48-1.149s-.768-1.113-.768-1.917q-.001-1.595 1.113-2.528 1.108-.925 3.079-.925M280.875 162.163v10.5h-2.595l-.139-1.137c-.617.895-1.579 1.349-2.891 1.349q-1.733 0-2.667-1.234c-.623-.823-.931-1.948-.931-3.387v-6.091h2.909v5.921c0 .581.133 1.04.393 1.385s.635.52 1.119.52q1.125.002 1.887-1.222v-6.605zM288.369 161.958V165h-.254c-.986 0-1.808.46-2.48 1.385v6.272h-2.909v-10.5h2.595l.175 1.385c.605-1.052 1.56-1.585 2.873-1.585M293.033 161.958c1.282 0 2.238.466 2.855 1.385l.139-1.179h2.619v10.5h-2.619l-.139-1.161q-.942 1.368-2.855 1.367c-1.3 0-2.353-.508-3.169-1.53-.81-1.022-1.222-2.329-1.222-3.913s.405-2.897 1.222-3.925 1.869-1.542 3.169-1.542m.708 2.673q-.963.001-1.554.756c-.591.755-.593 1.185-.593 2.038 0 .859.2 1.53.593 2.032s.913.744 1.554.744c.829 0 1.488-.435 1.99-1.306v-2.964c-.502-.871-1.167-1.3-1.99-1.3M306.03 161.958q1.813 0 2.782 1.252c.969 1.252.974 1.972.974 3.405v6.048h-2.909v-5.879q0-.888-.435-1.421-.435-.526-1.198-.526-1.143-.002-1.869 1.222v6.605h-2.909v-10.5h2.619l.139 1.161q.882-1.368 2.806-1.367M316.065 161.958c1.784 0 3.145.804 4.089 2.425l-2.026 1.573q-.71-1.343-2.044-1.343-1.061 0-1.651.798-.591.797-.593 2.02c-.002 1.223.206 1.482.611 2.008s.962.786 1.669.786q1.316.001 2.087-1.349l1.966 1.512c-.919 1.657-2.286 2.486-4.113 2.486q-2.259 0-3.72-1.542c-1.461-1.542-1.458-2.329-1.458-3.901s.484-2.879 1.458-3.913q1.469-1.56 3.726-1.56M325.531 161.958q2.242-.001 3.442 1.512 1.198 1.515 1.198 3.81v.974h-6.726q.036.998.671 1.542c.417.363.986.55 1.694.55.986 0 1.73-.351 2.244-1.058l1.929 1.554q-1.513 2.032-4.252 2.032c-1.56 0-2.825-.508-3.786-1.524s-1.446-2.317-1.446-3.901.472-2.897 1.409-3.931q1.398-1.56 3.623-1.56m1.246 2.879c-.321-.387-.768-.581-1.349-.581s-1.046.194-1.409.581q-.544.581-.581 1.488h3.859c-.024-.605-.2-1.101-.52-1.488M241.234 179.232v3.042h-.254c-.986 0-1.808.46-2.48 1.385v6.272h-2.909v-10.5h2.595l.175 1.385c.605-1.052 1.56-1.585 2.873-1.585M246.569 179.232q2.242-.001 3.442 1.512 1.198 1.515 1.198 3.81v.974h-6.726q.036.998.671 1.542c.635.544.986.55 1.694.55.986 0 1.73-.351 2.244-1.058l1.929 1.554q-1.513 2.032-4.252 2.032c-1.56 0-2.825-.508-3.786-1.524s-1.446-2.317-1.446-3.901.466-2.897 1.409-3.931q1.398-1.56 3.623-1.56m1.246 2.879q-.48-.58-1.349-.581c-.869-.001-1.046.194-1.409.581q-.544.581-.581 1.488h3.853c-.018-.605-.194-1.101-.514-1.488M256.143 175.96v3.478h2.855v2.589h-2.855v3.956q.001.664.375 1.046.372.381.962.381a2.7 2.7 0 0 0 1.3-.333l.75 2.425q-.963.642-2.28.641-1.869.001-2.94-1.077c-1.071-1.078-1.071-1.73-1.071-3.042v-3.998h-1.79v-2.589h1.79v-3.478zM265.863 179.232v3.042h-.254c-.986 0-1.808.46-2.48 1.385v6.272h-2.909v-10.5h2.595l.175 1.385c.605-1.052 1.56-1.585 2.873-1.585M270.526 179.232c1.282 0 2.238.466 2.855 1.385l.139-1.179h2.619v10.5h-2.619l-.139-1.161q-.942 1.368-2.855 1.367c-1.3 0-2.353-.508-3.169-1.53-.81-1.022-1.222-2.329-1.222-3.913s.405-2.897 1.222-3.925 1.869-1.542 3.169-1.542m.708 2.673q-.963.001-1.554.756c-.591.755-.593 1.185-.593 2.038 0 .859.2 1.53.593 2.032s.913.744 1.554.744c.829 0 1.488-.435 1.99-1.306v-2.964c-.502-.865-1.161-1.3-1.99-1.3M278.208 174.835q.483-.508 1.21-.508c.727 0 .889.175 1.222.52q.49.519.49 1.282c0 .763-.163.938-.49 1.282s-.732.52-1.222.52q-.727 0-1.21-.508c-.483-.508-.484-.768-.484-1.294s.163-.956.484-1.294m2.667 4.603v10.5h-2.909v-10.5zM286.379 175.96v3.478h2.855v2.589h-2.855v3.956q.001.664.375 1.046.372.381.962.381a2.7 2.7 0 0 0 1.3-.333l.75 2.425q-.963.642-2.28.641-1.869.001-2.94-1.077c-1.071-1.078-1.071-1.73-1.071-3.042v-3.998h-1.79v-2.589h1.79v-3.478zM294.877 179.232q2.242-.001 3.442 1.512 1.198 1.515 1.198 3.81v.974h-6.726q.036.998.671 1.542c.417.363.986.55 1.694.55.986 0 1.73-.351 2.244-1.058l1.929 1.554q-1.513 2.032-4.252 2.032c-1.56 0-2.825-.508-3.786-1.524s-1.446-2.317-1.446-3.901.466-2.897 1.409-3.931q1.398-1.56 3.623-1.56m1.252 2.879c-.321-.387-.768-.581-1.349-.581s-1.046.194-1.409.581q-.544.581-.581 1.488h3.853c-.018-.605-.194-1.101-.514-1.488M207.466 164.468c2.438 2.438 1.663 7.173-1.724 10.56-3.417 3.387-8.123 4.131-10.56 1.694s-1.663-7.173 1.754-10.56c3.357-3.387 8.093-4.137 10.53-1.694" class="st0"/><path d="M232.53 160.476a6.5 6.5 0 0 0-1.046-2.438 5.9 5.9 0 0 0-1.198-1.27c-.06-.048-.127-.091-.194-.139s-.133-.091-.206-.133c-.308-.188-.653-.363-1.034-.514s-.798-.278-1.252-.375l-.073-.018-.073-.018c-1.01-.163-2.093-.121-3.194.115s-2.214.665-3.302 1.27c-.369.206-.738.423-1.101.665a13 13 0 0 0-1.253.943l-.181.163q-.147.127-.284.254c-.097.085-.188.175-.284.26-.054.054-.109.103-.157.157l-.157.157c-.175.175-.345.351-.514.538a9 9 0 0 0-.49.569 15.7 15.7 0 0 0-1.954 3.042c-.774 1.47-1.415 3.073-1.972 4.76s-1.028 3.466-1.464 5.292c-1.446 6.054-3.647 9.054-5.498 10.542-1.845 1.488-3.333 1.464-3.333 1.464-3.206.181-5.601-1.077-7.403-2.958s-3.012-4.373-3.853-6.665c-.611-1.657-1.167-3.103-1.681-4.403s-.98-2.462-1.409-3.544c-.575-1.44-1.222-2.492-2.044-3.145s-1.827-.913-3.115-.774c-1.21.133-2.401.635-3.435 1.349s-1.911 1.633-2.504 2.595c-.611.998-1.065 2.056-1.222 3.151s-.024 2.232.55 3.393q.189.389.387.768a37.805 37.805 0 0 0 1.99 3.399 34 34 0 0 0 1.748 2.419c1.01 1.192 2.105 2.413 3.29 3.538s2.456 2.159 3.804 2.976c0 0 1.337.895 3.768 1.79s5.946 1.79 10.294 1.79c5.256-.091 9.563-1.143 13.192-2.964s6.569-4.403 9.097-7.542c0 0 .29-.345.768-.974s1.143-1.542 1.887-2.679c.06-.091.121-.188.181-.278s.121-.188.181-.278c0-.006.006-.006.006-.012s.006-.006.006-.012c.073-.109.145-.224.212-.333.073-.109.139-.224.206-.333.442-.714.901-1.488 1.355-2.31s.907-1.7 1.337-2.613c.46-.98.901-2.002 1.294-3.048a33 33 0 0 0 1.022-3.23l.163-.665q.082-.336.145-.671.037-.234.067-.46c.03-.226.03-.296.042-.442.018-.272.024-.599.006-.962s-.042-.75-.121-1.161" style="fill:#e6ad26"/></svg>