<svg xmlns="http://www.w3.org/2000/svg" width="133" height="36"><path d="M11.195 17.266v2.851H0V1.512h3.133v15.785ZM26.469 14.191H15.78a4.31 4.31 0 0 0 4.39 3.532 5.53 5.53 0 0 0 3.99-1.653l1.62 1.739a7.72 7.72 0 0 1-5.84 2.394c-4.359 0-7.234-2.906-7.234-7.152 0-4.274 2.961-7.18 7.148-7.211 4.958 0 6.98 3.25 6.614 8.351m-2.653-2.222c-.113-2.281-1.625-3.676-3.93-3.676-2.222 0-3.788 1.395-4.16 3.676Zm-5.925-8.035L20.71 0l3.137 1.34-3.25 2.594ZM42.32 18.79c0 4.073-2.906 6.612-7.351 6.612a10.3 10.3 0 0 1-5.871-1.855l1.312-2.2a7.04 7.04 0 0 0 4.445 1.54c2.676 0 4.442-1.567 4.442-4.016v-1.793a5.21 5.21 0 0 1-4.672 2.395c-3.816 0-6.379-2.766-6.379-6.84 0-3.988 2.535-6.695 6.266-6.723a5.28 5.28 0 0 1 4.785 2.395V6.027h3.023Zm-3.023-6.067c0-2.563-1.68-4.332-4.074-4.332-2.418 0-4.102 1.793-4.13 4.332.028 2.562 1.68 4.359 4.13 4.359 2.394-.004 4.074-1.797 4.074-4.36M49.816 1.91a1.795 1.795 0 0 1-3.59 0A1.794 1.794 0 0 1 48.935.316c.562.329.902.942.882 1.594m-3.304 18.207V5.953h3.02v14.164ZM57.676 4.816v1.68h3.707v2.281h-3.707v11.34h-3.02V8.777h-1.851v-2.28h1.851V5.101c0-3.305 2.422-4.875 4.871-4.875a5.3 5.3 0 0 1 3.192 1L61.55 3.562a3.4 3.4 0 0 0-1.938-.656 1.75 1.75 0 0 0-1.418.496 1.77 1.77 0 0 0-.52 1.414M66.195 8.813a5.16 5.16 0 0 1 4.899-2.934v2.934c-2.848-.172-4.645 1.511-4.899 3.933v7.41h-3.05V5.992h3.05ZM81.508 18.414c-.996 1.254-2.625 1.852-4.672 1.852-3.05 0-4.984-1.88-4.984-4.387 0-2.594 1.933-4.215 5.355-4.246h4.27v-.426c0-1.797-1.141-2.848-3.391-2.848a7.58 7.58 0 0 0-4.188 1.422l-1.253-2.133a10.3 10.3 0 0 1 6.097-1.796c3.649 0 5.7 1.851 5.727 4.984l.031 9.289h-2.992Zm-.028-3.246v-1.313h-3.82c-1.992 0-2.933.543-2.933 1.883 0 1.282 1.027 2.11 2.734 2.11 2.168-.004 3.844-1.141 4.02-2.68M102.07 11.348v8.808h-3.047v-7.953c0-2.133-1.28-3.418-3.39-3.418-2.336.031-3.79 1.652-4.02 3.848v7.523h-3.05V5.992h3.05V8.7c.996-1.965 2.82-2.82 5.215-2.82 3.277 0 5.242 2.078 5.242 5.469M117.715 8.188l-1.68 1.96a5.4 5.4 0 0 0-4.047-1.593c-2.449 0-4.187 1.824-4.187 4.53 0 2.677 1.77 4.528 4.187 4.528a5.31 5.31 0 0 0 4.188-1.707l1.71 1.707c-1.28 1.684-3.335 2.625-6.011 2.625-4.187 0-7.121-2.906-7.121-7.152 0-4.27 2.933-7.207 7.121-7.207 2.535 0 4.531.824 5.84 2.309M132.957 14.227h-10.684a4.3 4.3 0 0 0 4.387 3.53 5.5 5.5 0 0 0 3.988-1.652l1.625 1.739a7.7 7.7 0 0 1-5.84 2.394c-4.359 0-7.238-2.906-7.238-7.152 0-4.27 2.965-7.18 7.153-7.207 4.957 0 6.98 3.246 6.609 8.348m-2.68-2.223c-.113-2.277-1.62-3.676-3.93-3.676-2.222 0-3.788 1.399-4.16 3.676Zm0 0" style="stroke:none;fill-rule:nonzero;fill:#5e74b5;fill-opacity:1"/><path d="M0 34.633v-.43l.543-.082v-3.793L0 30.242v-.426h1.738v.426l-.543.086v3.79H2.88l.055-.54h.543v1.055ZM5.785 34.719a1.66 1.66 0 0 1-1.2-.485 1.95 1.95 0 0 1-.425-1.28v-.145c-.02-.47.145-.93.457-1.282a1.4 1.4 0 0 1 1.082-.511c.406-.036.809.125 1.082.425.266.332.399.747.371 1.168v.403H4.844v.027c-.012.305.078.606.258.856a.82.82 0 0 0 .71.34q.295.009.57-.087c.161-.05.306-.136.427-.253l.257.425a1.4 1.4 0 0 1-.515.313 6 6 0 0 1-.766.086M5.7 31.5a.7.7 0 0 0-.57.281c-.156.2-.258.438-.285.688v.027h1.652v-.086a1.07 1.07 0 0 0-.2-.656.73.73 0 0 0-.597-.254M12.45 32.184h-.485l-.113-.43a.6.6 0 0 0-.286-.168.86.86 0 0 0-.398-.059.84.84 0 0 0-.512.141.49.49 0 0 0-.031.715q.282.166.598.226c.363.047.703.188 1 .399a.81.81 0 0 1 .34.656.94.94 0 0 1-.399.77 1.6 1.6 0 0 1-.996.285c-.25.004-.5-.028-.742-.086a1.3 1.3 0 0 1-.57-.285v-.825h.484l.117.485c.09.066.2.117.313.14q.192.047.398.059a1 1 0 0 0 .539-.145.42.42 0 0 0 .203-.37.42.42 0 0 0-.172-.34 1.5 1.5 0 0 0-.629-.227 2.2 2.2 0 0 1-.968-.402.76.76 0 0 1-.34-.653.9.9 0 0 1 .37-.742c.278-.215.618-.324.97-.312.25-.008.504.027.738.113.2.055.387.152.543.285ZM14.93 34.719a1.66 1.66 0 0 1-1.2-.485 1.95 1.95 0 0 1-.425-1.28v-.145c-.02-.47.144-.93.457-1.282a1.4 1.4 0 0 1 1.082-.511c.406-.036.808.125 1.082.425.265.332.398.747.37 1.168v.403h-2.335v.027c-.012.305.078.606.258.856a.82.82 0 0 0 .71.34c.192.007.387-.024.571-.087.16-.05.305-.136.426-.253l.258.425a1.4 1.4 0 0 1-.516.313 5 5 0 0 1-.738.086m-.117-3.219a.69.69 0 0 0-.567.281c-.16.2-.258.438-.285.688v.027h1.652v-.086a1.07 1.07 0 0 0-.199-.656.67.67 0 0 0-.601-.254M17.066 31.469v-.426h1.11l.058.512c.098-.16.223-.305.371-.426a.8.8 0 0 1 .512-.145h.172c.055 0 .082.032.113.032l-.086.597-.37-.027a.66.66 0 0 0-.426.113c-.118.094-.215.211-.286.34v2.055l.54.082v.43h-1.739v-.43l.543-.082v-2.567ZM21.254 31.469l-.43.058.742 2.02.059.258h.027l.055-.258.715-2.02-.43-.058v-.426h1.399v.426l-.286.058-1.195 3.106h-.484l-1.227-3.106-.285-.058v-.426h1.398v.426ZM23.93 34.203l.543-.082V31.56l-.543-.086v-.43h1.199v3.078l.539.086v.426H23.93Zm1.199-4.074h-.656v-.652h.656ZM27.805 34.203a.8.8 0 0 0 .57-.2.6.6 0 0 0 .254-.483h.601v.03c0 .321-.148.626-.402.825a1.57 1.57 0 0 1-.996.371 1.47 1.47 0 0 1-1.195-.512 1.92 1.92 0 0 1-.399-1.28v-.145a1.95 1.95 0 0 1 .426-1.282 1.47 1.47 0 0 1 1.195-.511q.4 0 .77.14c.223.082.418.219.57.399l.031.8h-.515l-.14-.57a.6.6 0 0 0-.286-.172.9.9 0 0 0-.398-.054.78.78 0 0 0-.743.367 1.8 1.8 0 0 0-.226.914v.14c-.012.32.066.637.226.91a.66.66 0 0 0 .657.313M31.582 34.719a1.64 1.64 0 0 1-1.195-.485 1.94 1.94 0 0 1-.43-1.28v-.145c-.02-.47.145-.93.457-1.282a1.4 1.4 0 0 1 1.082-.511c.406-.036.809.125 1.082.425.266.332.399.747.371 1.168v.403h-2.308v.027a1.4 1.4 0 0 0 .257.856.82.82 0 0 0 .711.34 1.6 1.6 0 0 0 .57-.087c.16-.05.31-.136.426-.253l.258.425q-.223.211-.511.313-.382.075-.77.086m-.086-3.219a.7.7 0 0 0-.57.281c-.156.2-.254.438-.285.688v.027h1.652v-.086a1.07 1.07 0 0 0-.2-.656.73.73 0 0 0-.597-.254M35.438 35.602l.539-.086v-3.934l-.54-.082v-.43h1.11l.058.43c.106-.16.254-.29.426-.371q.284-.143.598-.145a1.12 1.12 0 0 1 1.027.543c.27.414.399.903.371 1.395v.058c.024.45-.105.891-.37 1.254a1.27 1.27 0 0 1-1.028.485 1.14 1.14 0 0 1-.566-.114 1.03 1.03 0 0 1-.43-.343v1.226l.543.086V36h-1.739Zm2.933-2.68a2.1 2.1 0 0 0-.226-.996.82.82 0 0 0-.715-.399.85.85 0 0 0-.485.114 1 1 0 0 0-.312.34v1.738q.124.201.312.343a.9.9 0 0 0 .485.114.83.83 0 0 0 .715-.34c.171-.262.25-.574.226-.887ZM42.29 34.121c-.106.184-.25.34-.427.457-.191.11-.41.16-.629.14a1.12 1.12 0 0 1-.91-.37 1.66 1.66 0 0 1-.312-1.168v-1.594l-.403-.086v-.426h1.055v2.106c-.023.277.035.558.172.8a.63.63 0 0 0 .512.227c.199.004.398-.043.57-.14a.97.97 0 0 0 .344-.399v-2.082l-.485-.086v-.426h1.137v3.078l.402.082v.43h-1ZM47.203 32.98c.027.45-.101.891-.367 1.254-.25.313-.629.493-1.027.485-.207 0-.414-.051-.598-.145a1.14 1.14 0 0 1-.43-.398l-.054.457h-.57v-4.645l-.54-.086v-.425h1.196v1.992c.105-.16.253-.285.425-.367a1.3 1.3 0 0 1 .57-.118c.415-.02.81.188 1.028.543.266.414.398.903.367 1.395Zm-.652-.058a2.06 2.06 0 0 0-.23-.996.74.74 0 0 0-.684-.399 1 1 0 0 0-.512.141.97.97 0 0 0-.344.398v1.57c.082.157.2.294.344.4a1 1 0 0 0 .512.14.8.8 0 0 0 .683-.313c.157-.258.235-.554.23-.855ZM47.848 29.902v-.425h1.195v4.644l.543.082v.43h-1.738v-.43l.543-.082v-4.133ZM50.176 34.203l.543-.082V31.56l-.543-.086v-.43h1.195v3.078l.543.086v.426h-1.738Zm1.195-4.074h-.652v-.652h.652ZM54.125 34.203a.8.8 0 0 0 .57-.2c.16-.108.254-.288.258-.483h.598v.03c0 .321-.149.626-.399.825a1.6 1.6 0 0 1-1 .371 1.47 1.47 0 0 1-1.195-.512 1.92 1.92 0 0 1-.398-1.28v-.145a1.95 1.95 0 0 1 .425-1.282 1.48 1.48 0 0 1 1.196-.511c.265 0 .527.047.77.14.222.082.417.219.57.399l.03.8h-.515l-.14-.57a.6.6 0 0 0-.286-.172.9.9 0 0 0-.398-.054.78.78 0 0 0-.742.367 1.8 1.8 0 0 0-.227.914v.14c-.012.32.07.637.227.91.14.227.394.348.656.313M60.488 34.207a1.1 1.1 0 0 1-.425.367 1.3 1.3 0 0 1-.598.117 1.28 1.28 0 0 1-1.028-.484 1.95 1.95 0 0 1-.37-1.254v-.058c-.024-.493.105-.98.37-1.395.235-.34.618-.543 1.028-.543.195-.004.39.035.57.113.164.082.309.2.426.344v-1.453l-.543-.086v-.43h1.2v4.645l.542.086v.426h-1.113Zm-1.77-1.227c-.011.301.067.602.231.856a.73.73 0 0 0 .684.312c.344.004.656-.199.797-.511v-1.63a2.2 2.2 0 0 0-.313-.37.9.9 0 0 0-.484-.14.73.73 0 0 0-.684.398c-.16.308-.238.652-.23.996ZM63.895 34.719a1.65 1.65 0 0 1-1.196-.485 1.93 1.93 0 0 1-.426-1.28v-.145c-.02-.47.141-.93.454-1.282a1.4 1.4 0 0 1 1.086-.511 1.32 1.32 0 0 1 1.082.425c.261.332.394.747.367 1.168v.403h-2.305v.027c-.012.305.078.606.254.856a.83.83 0 0 0 .715.34c.191.007.386-.024.566-.087q.247-.076.43-.253l.254.425c-.145.14-.32.246-.512.313a6 6 0 0 1-.77.086M63.78 31.5a.7.7 0 0 0-.57.281c-.156.2-.254.438-.285.688v.027h1.652v-.086a1.07 1.07 0 0 0-.2-.656.66.66 0 0 0-.597-.254M67.727 29.902v-.425h1.195v4.644l.539.082v.43h-1.734v-.43l.539-.082v-4.133ZM72.387 34.633c-.028-.086-.028-.172-.055-.258 0-.086-.031-.14-.031-.227a1.34 1.34 0 0 1-.485.399c-.18.11-.386.168-.597.172a1.16 1.16 0 0 1-.856-.285 1.073 1.073 0 0 1 .117-1.566c.344-.2.739-.298 1.137-.286h.684v-.43a.57.57 0 0 0-.2-.484.8.8 0 0 0-.538-.168c-.145 0-.29.02-.426.055a.66.66 0 0 0-.317.172l-.054.37h-.516v-.683q.272-.21.602-.316a2.1 2.1 0 0 1 .738-.114c.36-.007.71.102.996.313.258.219.394.547.371.883v1.996l.258.027v.43Zm-1.055-.485q.318-.002.602-.144a.88.88 0 0 0 .367-.367v-.602h-.684a.89.89 0 0 0-.625.2.6.6 0 0 0-.23.456c0 .137.05.27.144.371a.8.8 0 0 0 .426.086M78.094 34.207a1.1 1.1 0 0 1-.426.367 1.3 1.3 0 0 1-.598.117 1.27 1.27 0 0 1-1.027-.484 1.95 1.95 0 0 1-.371-1.254v-.058c-.024-.493.105-.98.371-1.395.23-.34.617-.543 1.027-.543.196-.004.39.035.567.113.168.082.312.2.43.344v-1.453l-.544-.086v-.43h1.2v4.645l.543.086v.426h-1.114Zm-1.77-1.227c-.015.301.067.602.23.856a.73.73 0 0 0 .684.312c.344.004.657-.199.797-.511v-1.63a2.2 2.2 0 0 0-.312-.37.9.9 0 0 0-.485-.14.74.74 0 0 0-.687.398 2.1 2.1 0 0 0-.227.996ZM79.852 34.203l.539-.082V31.56l-.54-.086v-.43h1.196v3.078l.543.086v.426h-1.738Zm1.195-4.074h-.656v-.652h.656ZM82.121 31.523v-.484h.57v-.453a1.12 1.12 0 0 1 .313-.883c.223-.21.52-.324.824-.312a.7.7 0 0 1 .23.027c.087.027.172.027.254.059l-.082.484c-.046-.016-.097-.023-.144-.031h-.172a.5.5 0 0 0-.426.172.8.8 0 0 0-.14.484v.457h.738v.484h-.738v2.59l.539.086v.43h-1.739v-.43l.543-.086v-2.594ZM84.648 31.523v-.484h.57v-.453a1.12 1.12 0 0 1 .313-.883c.223-.215.52-.328.828-.316a.7.7 0 0 1 .227.031q.135.007.258.055l-.086.484a2 2 0 0 0-.145-.027h-.172a.5.5 0 0 0-.425.172.8.8 0 0 0-.141.484v.453h.738v.484h-.738v2.594l.54.086v.426h-1.74v-.426l.544-.086v-2.594ZM89.793 34.121c-.102.184-.25.34-.426.457-.191.11-.41.16-.629.14a1.12 1.12 0 0 1-.91-.37 1.68 1.68 0 0 1-.312-1.168v-1.594l-.399-.086v-.426h1.051v2.106c-.023.277.035.558.172.8a.63.63 0 0 0 .515.227 1.1 1.1 0 0 0 .567-.14.94.94 0 0 0 .344-.399v-2.082l-.485-.086v-.426h1.14v3.078l.4.082v.43h-.997ZM94.195 32.184h-.484l-.113-.43a.57.57 0 0 0-.285-.168.86.86 0 0 0-.399-.059.85.85 0 0 0-.512.141.488.488 0 0 0-.031.715q.283.166.602.226a2.2 2.2 0 0 1 .996.399c.203.16.328.398.34.656a.94.94 0 0 1-.399.77c-.289.203-.64.304-.996.285-.25.004-.5-.028-.742-.086a1.36 1.36 0 0 1-.57-.285v-.825h.484l.117.485c.094.066.2.117.313.14.129.032.265.051.398.059a1 1 0 0 0 .543-.145.42.42 0 0 0 .2-.37.41.41 0 0 0-.173-.34 1.5 1.5 0 0 0-.625-.227 2.2 2.2 0 0 1-.968-.402.75.75 0 0 1-.344-.653.91.91 0 0 1 .371-.742c.277-.215.617-.324.969-.312.25-.008.504.027.742.113.2.055.383.152.539.285ZM95.016 34.203l.539-.082V31.56l-.54-.086v-.43h1.196v3.078l.543.086v.426h-1.738Zm1.195-4.074h-.656v-.652h.656ZM97.367 32.809c-.02-.473.133-.942.426-1.309.3-.328.727-.516 1.168-.516.445 0 .871.188 1.168.516.297.367.45.836.43 1.309v.086c.02.472-.133.94-.43 1.308a1.58 1.58 0 0 1-1.168.516c-.441 0-.867-.188-1.168-.516a1.98 1.98 0 0 1-.426-1.308Zm.656.086c-.007.328.07.652.227.94a.876.876 0 0 0 1.426 0 1.66 1.66 0 0 0 .226-.94v-.086a1.9 1.9 0 0 0-.226-.942.88.88 0 0 0-.711-.37.88.88 0 0 0-.715.37 1.66 1.66 0 0 0-.227.942ZM101.172 34.203l.539-.082V31.56l-.54-.086v-.43h1.11l.059.543a.92.92 0 0 1 .453-.426c.187-.12.406-.18.629-.172.328-.027.652.098.883.34.23.3.34.676.312 1.055v1.738l.543.086v.426h-1.738v-.426l.539-.086v-1.738a.92.92 0 0 0-.2-.684.7.7 0 0 0-.57-.199.9.9 0 0 0-.484.14c-.14.098-.258.223-.34.372v2.11l.54.085v.426h-1.735ZM109.852 34.207a1.1 1.1 0 0 1-.426.367 1.3 1.3 0 0 1-.598.117 1.28 1.28 0 0 1-1.027-.484 1.95 1.95 0 0 1-.371-1.254v-.058c-.024-.493.105-.98.37-1.395.235-.34.618-.543 1.028-.543.195-.004.39.035.57.113.165.082.309.2.426.344v-1.453l-.543-.086v-.43h1.2v4.645l.542.086v.426h-1.113Zm-1.739-1.227c-.011.301.067.602.23.856a.73.73 0 0 0 .684.312c.344.004.657-.199.797-.511v-1.63a2.2 2.2 0 0 0-.312-.37.9.9 0 0 0-.485-.14.73.73 0 0 0-.683.398c-.16.308-.239.652-.23.996ZM114.21 34.121c-.105.184-.25.34-.425.457-.191.11-.41.16-.629.14a1.12 1.12 0 0 1-.91-.37 1.68 1.68 0 0 1-.312-1.168v-1.594l-.399-.09v-.426h1.05v2.11c-.022.277.036.554.173.797a.63.63 0 0 0 .512.23c.199.004.398-.047.57-.145a.9.9 0 0 0 .344-.398v-2.078l-.485-.086v-.43h1.14v3.078l.4.086v.426h-.997ZM120.082 34.207c-.11.156-.258.285-.43.367a1.3 1.3 0 0 1-.597.117 1.28 1.28 0 0 1-1.028-.484 1.93 1.93 0 0 1-.367-1.254v-.058c-.027-.493.102-.98.367-1.395.235-.34.618-.543 1.028-.543.195-.004.39.035.57.113.164.082.313.2.426.344v-1.453l-.54-.086v-.43h1.2v4.645l.539.086v.426h-1.11Zm-1.738-1.227c-.016.301.062.602.226.856a.73.73 0 0 0 .684.312c.344.004.656-.199.797-.511v-1.63a2.2 2.2 0 0 0-.313-.37.9.9 0 0 0-.484-.14.74.74 0 0 0-.684.398c-.16.308-.238.652-.23.996ZM121.875 31.469v-.426h1.11l.058.512c.102-.16.227-.305.371-.426a.8.8 0 0 1 .512-.145h.172c.058 0 .086.032.113.032l-.086.597-.367-.027a.67.67 0 0 0-.43.113c-.117.094-.21.211-.285.34v2.055l.543.082v.43h-1.738v-.43l.539-.082v-2.567ZM124.723 32.809c-.02-.473.132-.942.43-1.309a1.583 1.583 0 0 1 2.335 0c.297.367.446.836.426 1.309v.086c.02.472-.129.94-.426 1.308a1.583 1.583 0 0 1-2.336 0 1.96 1.96 0 0 1-.43-1.308Zm.656.086a1.93 1.93 0 0 0 .23.94c.16.231.426.368.711.368.282 0 .551-.137.711-.367.168-.285.25-.613.23-.941v-.086a1.93 1.93 0 0 0-.23-.942.867.867 0 0 0-1.422 0c-.171.285-.25.613-.23.942ZM128.656 34.203l.54-.082V31.56l-.54-.086v-.43h1.196v3.078l.543.086v.426h-1.739Zm1.168-4.074h-.625v-.652h.653v.652ZM132.133 30.188v.855h.683v.484h-.683v2.164c0 .172.027.286.113.344.078.07.18.11.285.113a.6.6 0 0 0 .2-.03 1 1 0 0 0 .171-.028l.082.457a.56.56 0 0 1-.285.086 1.7 1.7 0 0 1-.367.027.9.9 0 0 1-.629-.226 1.1 1.1 0 0 1-.226-.743v-2.164h-.57v-.484h.57v-.855Zm0 0" style="stroke:none;fill-rule:nonzero;fill:#494b54;fill-opacity:1"/></svg>