<svg xmlns="http://www.w3.org/2000/svg" width="189.957" height="36" fill="none" viewBox="163.675 42.624 189.957 36"><script/><path fill="#000" d="M163.675 58.61c1.482 1.846 3.329 2.794 5.831 2.794 3.013 0 5.273-1.871 5.273-4.811 0-5.66-8.042-4.786-8.042-8.601 0-1.458 1.069-2.502 2.746-2.502 1.458 0 2.648.801 3.644 2.235l1.725-1.506c-1.263-1.677-3.013-2.77-5.394-2.77-2.964 0-5.053 2.065-5.053 4.591 0 5.613 8.066 4.787 8.066 8.625 0 1.555-1.093 2.696-2.988 2.696-1.58 0-2.94-.801-4.106-2.308zM189.563 58.926l-1.531-1.191c-.801 1.093-2.138 1.823-3.717 1.823-2.624 0-4.495-1.774-4.568-4.714h9.402c.073-.339.146-.801.146-1.287 0-3.013-2.162-5.345-5.491-5.345-3.79 0-6.171 2.892-6.171 6.608 0 3.572 2.551 6.608 6.682 6.608 2.284 0 4.106-.972 5.248-2.502m-5.807-8.965c2.163 0 3.401 1.506 3.475 3.304h-7.337c.437-2.114 1.846-3.304 3.863-3.304M192.881 60.943h2.065v-8.406c.754-1.239 1.798-2.065 3.401-2.065.486 0 .851.048 1.215.145v-2.016a3.4 3.4 0 0 0-1.044-.146c-1.555 0-2.673.704-3.572 1.773v-1.53h-2.065zM201.204 48.698l4.786 12.245h2.721l4.787-12.245h-2.235l-3.912 10.083-3.911-10.083zM217.158 45.515c.802 0 1.434-.656 1.434-1.458 0-.778-.632-1.434-1.434-1.434s-1.458.656-1.458 1.433c0 .802.656 1.458 1.458 1.458m-1.044 15.427h2.065V48.698h-2.065zM228.265 59.485c-2.648 0-4.519-2.041-4.519-4.665 0-2.6 1.871-4.665 4.495-4.665 1.53 0 2.77.729 3.522 1.798l1.628-1.239c-1.142-1.506-2.94-2.502-5.151-2.502-4.058 0-6.657 3.037-6.657 6.608 0 3.572 2.599 6.608 6.657 6.608 2.235 0 4.008-.972 5.151-2.502l-1.628-1.239a4.22 4.22 0 0 1-3.499 1.798M246.718 58.926l-1.53-1.191c-.802 1.093-2.138 1.823-3.718 1.823-2.624 0-4.494-1.774-4.568-4.714h9.403c.072-.339.146-.801.146-1.287 0-3.013-2.163-5.345-5.491-5.345-3.79 0-6.171 2.892-6.171 6.608 0 3.572 2.551 6.608 6.681 6.608 2.284 0 4.106-.972 5.248-2.502m-5.806-8.965c2.162 0 3.401 1.506 3.474 3.304h-7.337c.437-2.114 1.846-3.304 3.863-3.304M248.668 53.727v1.992h6.56v-1.992zM258.485 60.943h2.284v-7.459h2.697c3.401 0 5.515-1.846 5.515-4.761s-2.113-4.787-5.515-4.787h-4.981zm5.03-15.063c1.944 0 3.11 1.069 3.11 2.794 0 1.823-1.166 2.868-3.11 2.868h-2.746v-5.661zM280.396 55.695c0 2.406-1.312 3.79-3.353 3.79-2.089 0-3.377-1.384-3.377-3.79v-6.997H271.6v6.925c0 3.668 2.114 5.806 5.418 5.806 3.328 0 5.442-2.138 5.442-5.806v-6.925h-2.066zM299.324 54.82c0-3.572-2.454-6.608-6.293-6.608-1.822 0-3.256.705-4.348 1.944v-7.434h-2.066v18.222h2.066v-1.458c1.093 1.239 2.527 1.944 4.348 1.944 3.839 0 6.293-3.037 6.293-6.608m-6.536-4.665c2.6 0 4.373 2.065 4.373 4.665s-1.773 4.665-4.373 4.665c-1.676 0-3.158-.801-4.106-2.259v-4.811c.899-1.433 2.405-2.259 4.106-2.259M302.764 60.943h2.066V42.721h-2.066zM310.324 45.515c.802 0 1.434-.656 1.434-1.458 0-.778-.632-1.434-1.434-1.434s-1.458.656-1.458 1.433c0 .802.656 1.458 1.458 1.458m-1.044 15.427h2.065V48.698h-2.065zM321.431 59.485c-2.648 0-4.519-2.041-4.519-4.665 0-2.6 1.871-4.665 4.495-4.665 1.53 0 2.77.729 3.522 1.798l1.628-1.239c-1.142-1.506-2.94-2.502-5.151-2.502-4.058 0-6.657 3.037-6.657 6.608 0 3.572 2.599 6.608 6.657 6.608 2.235 0 4.008-.972 5.151-2.502l-1.628-1.239a4.22 4.22 0 0 1-3.499 1.798M330.592 61.21c.68 0 1.215-.511 1.215-1.191s-.535-1.191-1.215-1.191c-.704 0-1.215.511-1.215 1.191s.511 1.19 1.215 1.19M334.651 48.698v1.287h2.308v10.958h1.458V49.985h4.592v-1.287h-4.592v-1.652c0-1.919 1.094-3.013 2.673-3.013.777 0 1.385.219 1.92.607l.632-1.215c-.583-.364-1.482-.704-2.6-.704-2.43 0-4.082 1.725-4.082 4.349v1.627zM345.12 60.943h1.433v-8.772c.923-1.53 2.017-2.356 3.693-2.356.437 0 .754.073 1.118.17V48.6a3.6 3.6 0 0 0-1.02-.146c-1.652 0-2.794.729-3.79 1.992v-1.749h-1.433zM164.163 77.14h3.247v-.538h-2.663v-5.847h-.584zM172.604 76.382l-.41-.327a1.83 1.83 0 0 1-1.523.776c-1.131 0-1.925-.849-1.925-2.017v-.109h3.713c.027-.109.037-.246.037-.384 0-1.085-.784-1.961-2.016-1.961-1.377 0-2.289 1.058-2.289 2.481 0 1.341.975 2.482 2.481 2.482.839 0 1.514-.365 1.933-.939m-2.134-3.547c.893 0 1.45.639 1.477 1.441h-3.147c.174-.904.812-1.441 1.67-1.441M176.018 76.538c.401.511.967.784 1.65.784.84 0 1.469-.547 1.469-1.341 0-1.551-2.362-1.185-2.362-2.381 0-.419.319-.776.893-.776.42 0 .794.211 1.049.593l.402-.319a1.79 1.79 0 0 0-1.459-.739c-.848 0-1.414.575-1.414 1.24 0 1.624 2.362 1.232 2.362 2.399 0 .475-.346.858-.948.858-.493 0-.894-.21-1.241-.648zM180.888 71.092a.407.407 0 1 0 0-.812.415.415 0 0 0-.42.401c0 .238.192.411.42.411m-.274 6.047h.538v-4.597h-.538zM183.28 75.69c0 1.122.602 1.541 1.541 1.541.292 0 .52-.037.73-.109v-.493a2 2 0 0 1-.675.1c-.62 0-1.049-.2-1.049-1.04v-2.663h1.724v-.483h-1.724v-1.149h-.547v1.149h-.867v.483h.867zM190.81 76.382l-.41-.327a1.83 1.83 0 0 1-1.523.776c-1.131 0-1.925-.849-1.925-2.017v-.109h3.713c.027-.109.037-.246.037-.384 0-1.085-.785-1.961-2.016-1.961-1.378 0-2.29 1.058-2.29 2.481 0 1.341.976 2.482 2.482 2.482.839 0 1.514-.365 1.933-.939m-2.135-3.547c.894 0 1.451.639 1.478 1.441h-3.147c.173-.904.812-1.441 1.669-1.441M196.805 72.36c-1.468 0-2.463 1.168-2.463 2.481s.995 2.482 2.463 2.482c1.478 0 2.472-1.168 2.472-2.481s-.994-2.481-2.472-2.481m.009 4.452c-1.122 0-1.916-.921-1.916-1.97s.794-1.971 1.916-1.971c1.085 0 1.888.912 1.888 1.971 0 1.04-.803 1.969-1.888 1.969M200.017 72.542v.483h.866v4.114h.547v-4.114h1.725v-.483h-1.725v-.62c0-.721.411-1.131 1.003-1.131.292 0 .52.082.721.228l.237-.456a1.9 1.9 0 0 0-.976-.264c-.912 0-1.533.648-1.533 1.632v.611zM203.71 72.542v.483h.866v4.114h.547v-4.114h1.725v-.483h-1.725v-.62c0-.721.411-1.131 1.003-1.131.292 0 .52.082.721.228l.237-.456a1.9 1.9 0 0 0-.976-.264c-.912 0-1.533.648-1.533 1.632v.611zM208.199 71.092a.407.407 0 1 0 0-.812.414.414 0 0 0-.419.401.41.41 0 0 0 .419.411m-.274 6.047h.538v-4.597h-.538zM212.405 76.811c-1.13 0-1.924-.885-1.924-1.97 0-1.086.794-1.971 1.916-1.971a1.8 1.8 0 0 1 1.496.767l.428-.338c-.419-.565-1.095-.939-1.924-.939-1.487 0-2.472 1.141-2.472 2.481s.985 2.482 2.472 2.482c.829 0 1.505-.374 1.924-.939l-.428-.338a1.79 1.79 0 0 1-1.488.766M215.888 71.092a.407.407 0 1 0 0-.812.414.414 0 0 0-.419.401.41.41 0 0 0 .419.411m-.274 6.047h.538v-4.597h-.538zM222.028 76.382l-.411-.327a1.83 1.83 0 0 1-1.523.776c-1.131 0-1.925-.849-1.925-2.017v-.109h3.713c.027-.109.037-.246.037-.384 0-1.085-.785-1.961-2.016-1.961-1.378 0-2.29 1.058-2.29 2.481 0 1.341.976 2.482 2.482 2.482.839 0 1.514-.365 1.933-.939m-2.135-3.547c.894 0 1.45.639 1.478 1.441h-3.147c.173-.904.812-1.441 1.669-1.441M223.445 77.14h.539v-6.841h-.539zM227.988 74.841c0 1.34.94 2.481 2.372 2.481a2.19 2.19 0 0 0 1.761-.839v.656h.538v-6.841h-.538v2.901a2.19 2.19 0 0 0-1.761-.84c-1.431 0-2.372 1.141-2.372 2.481m.566 0c0-1.086.766-1.971 1.852-1.971.702 0 1.332.329 1.715.958v2.025a1.95 1.95 0 0 1-1.715.958c-1.085 0-1.852-.885-1.852-1.97M238.518 76.382l-.41-.327a1.83 1.83 0 0 1-1.523.776c-1.131 0-1.925-.849-1.925-2.017v-.109h3.713c.027-.109.037-.246.037-.384 0-1.085-.784-1.961-2.016-1.961-1.377 0-2.289 1.058-2.289 2.481 0 1.341.975 2.482 2.481 2.482.839 0 1.514-.365 1.933-.939m-2.134-3.547c.893 0 1.45.639 1.477 1.441h-3.147c.174-.904.812-1.441 1.67-1.441M242.48 77.14h.538v-6.841h-.538zM245.071 73.089l.866-2.334h-.62l-.739 2.336zM248.317 77.267c.639 0 1.259-.274 1.651-.794v.666h.529v-3.147c0-1.012-.694-1.632-1.752-1.632-.794 0-1.423.338-1.815.875l.41.32a1.65 1.65 0 0 1 1.387-.702c.72 0 1.24.401 1.24 1.141v.428l-1.642.274c-.967.165-1.496.639-1.496 1.332 0 .757.593 1.24 1.487 1.24m-.939-1.25c0-.456.338-.794 1.067-.921l1.523-.256v1.049a1.79 1.79 0 0 1-1.587.912c-.62 0-1.003-.338-1.003-.784M251.873 74.841c0 1.34.939 2.481 2.372 2.481.721 0 1.332-.301 1.76-.839v.656h.539v-6.841h-.539v2.901a2.19 2.19 0 0 0-1.76-.84c-1.432 0-2.372 1.141-2.372 2.481m.566 0c0-1.086.766-1.971 1.852-1.971.702 0 1.332.329 1.714.958v2.025a1.95 1.95 0 0 1-1.714.958c-1.086 0-1.852-.885-1.852-1.97M258.418 77.14h.539v-3.302c.309-.584.784-.968 1.477-.968.748 0 1.25.484 1.25 1.378v2.892h.538v-2.909c0-.128-.009-.256-.027-.374.383-.666.858-.985 1.496-.985.748 0 1.258.484 1.258 1.378v2.892h.529v-2.909c0-1.213-.712-1.87-1.715-1.87-.793 0-1.313.384-1.705.985-.265-.648-.84-.985-1.551-.985-.675 0-1.177.31-1.551.794v-.611h-.539zM267.542 71.092a.403.403 0 0 0 .411-.411.407.407 0 0 0-.411-.401.415.415 0 0 0-.419.401.41.41 0 0 0 .419.411m-.274 6.047h.539v-4.597h-.539zM269.696 77.14h.539v-3.302c.355-.593.839-.968 1.569-.968.803 0 1.341.52 1.341 1.469v2.8h.538v-2.818c0-1.268-.757-1.961-1.806-1.961-.721 0-1.24.309-1.642.812v-.63h-.539zM275.747 71.092a.403.403 0 0 0 .411-.411.407.407 0 0 0-.411-.401.415.415 0 0 0-.419.401.41.41 0 0 0 .419.411m-.274 6.047h.539v-4.597h-.539zM277.337 76.538c.402.511.967.784 1.65.784.84 0 1.469-.547 1.469-1.341 0-1.551-2.362-1.185-2.362-2.381 0-.419.319-.776.893-.776.42 0 .794.211 1.049.593l.402-.319a1.79 1.79 0 0 0-1.459-.739c-.848 0-1.414.575-1.414 1.24 0 1.624 2.363 1.232 2.363 2.399 0 .475-.347.858-.949.858-.493 0-.894-.21-1.24-.648zM282.188 75.69c0 1.122.602 1.541 1.541 1.541.292 0 .52-.037.73-.109v-.493a2 2 0 0 1-.675.1c-.62 0-1.049-.2-1.049-1.04v-2.663h1.724v-.483h-1.724v-1.149h-.547v1.149h-.867v.483h.867zM285.821 77.14h.539v-3.293c.346-.575.757-.885 1.386-.885.165 0 .283.028.419.064v-.52a1.4 1.4 0 0 0-.383-.055c-.621 0-1.049.274-1.423.748v-.656h-.539zM290.487 77.267c.639 0 1.259-.274 1.651-.794v.666h.529v-3.147c0-1.012-.694-1.632-1.752-1.632-.794 0-1.423.338-1.815.875l.41.32a1.65 1.65 0 0 1 1.387-.702c.72 0 1.24.401 1.24 1.141v.428l-1.642.274c-.967.165-1.496.639-1.496 1.332 0 .757.593 1.24 1.487 1.24m-.939-1.25c0-.456.338-.794 1.067-.921l1.523-.256v1.049a1.79 1.79 0 0 1-1.587.912c-.62 0-1.003-.338-1.003-.784M294.709 75.69c0 1.122.602 1.541 1.542 1.541.292 0 .519-.037.73-.109v-.493a2 2 0 0 1-.675.1c-.621 0-1.049-.2-1.049-1.04v-2.663h1.725v-.483h-1.725v-1.149h-.547v1.149h-.866v.483h.866zM298.617 71.092a.407.407 0 1 0 0-.812.414.414 0 0 0-.419.401.41.41 0 0 0 .419.411m-.274 6.047h.538v-4.597h-.538zM302.805 72.36c-1.468 0-2.463 1.168-2.463 2.481s.995 2.482 2.463 2.482c1.478 0 2.472-1.168 2.472-2.481s-.994-2.481-2.472-2.481m.009 4.452c-1.122 0-1.916-.921-1.916-1.97s.794-1.971 1.916-1.971c1.085 0 1.888.912 1.888 1.971 0 1.04-.803 1.969-1.888 1.969M306.726 77.14h.538v-3.302c.356-.593.84-.968 1.569-.968.802 0 1.341.52 1.341 1.469v2.8h.538v-2.818c0-1.268-.757-1.961-1.806-1.961-.72 0-1.24.309-1.642.812v-.63h-.538zM314.418 72.542v.483h.866v4.114h.547v-4.114h1.725v-.483h-1.725v-.62c0-.721.411-1.131 1.003-1.131.292 0 .52.082.721.228l.237-.456a1.9 1.9 0 0 0-.976-.264c-.912 0-1.533.648-1.533 1.632v.611zM318.402 77.14h.538v-3.293c.347-.575.757-.885 1.387-.885.164 0 .282.028.419.064v-.52a1.4 1.4 0 0 0-.383-.055c-.621 0-1.049.274-1.424.748v-.656h-.538zM323.068 77.267c.639 0 1.259-.274 1.651-.794v.666h.529v-3.147c0-1.012-.693-1.632-1.751-1.632-.794 0-1.423.338-1.815.875l.41.32c.31-.438.794-.702 1.386-.702.721 0 1.241.401 1.241 1.141v.428l-1.642.274c-.968.165-1.496.639-1.496 1.332 0 .757.592 1.24 1.487 1.24m-.939-1.25c0-.456.338-.794 1.067-.921l1.523-.256v1.049a1.79 1.79 0 0 1-1.587.912c-.621 0-1.003-.338-1.003-.784M327.053 77.14h.538v-3.302c.355-.593.839-.968 1.569-.968.803 0 1.341.52 1.341 1.469v2.8h.539v-2.818c0-1.268-.757-1.961-1.806-1.961-.72 0-1.24.309-1.642.812v-.63h-.538zM334.882 76.811c-1.131 0-1.924-.885-1.924-1.97 0-1.086.793-1.971 1.916-1.971.639 0 1.167.302 1.495.767l.429-.338c-.419-.565-1.095-.939-1.924-.939-1.488 0-2.472 1.141-2.472 2.481 0 1.232.83 2.299 2.116 2.464l-.848 1.295h.575l.83-1.286c.739-.055 1.341-.41 1.724-.93l-.429-.338a1.78 1.78 0 0 1-1.487.766M339.25 77.267c.639 0 1.259-.274 1.651-.794v.666h.529v-3.147c0-1.012-.693-1.632-1.751-1.632-.794 0-1.423.338-1.815.875l.41.32a1.65 1.65 0 0 1 1.387-.702c.72 0 1.24.401 1.24 1.141v.428l-1.642.274c-.967.165-1.496.639-1.496 1.332 0 .757.593 1.24 1.487 1.24m-.939-1.25c0-.456.338-.794 1.067-.921l1.523-.256v1.049a1.79 1.79 0 0 1-1.587.912c-.621 0-1.003-.338-1.003-.784M343.509 71.092a.407.407 0 1 0 0-.812.414.414 0 0 0-.419.401.41.41 0 0 0 .419.411m-.274 6.047h.538v-4.597h-.538zM345.098 76.538c.402.511.967.784 1.651.784.839 0 1.469-.547 1.469-1.341 0-1.551-2.363-1.185-2.363-2.381 0-.419.32-.776.894-.776.419 0 .794.211 1.049.593l.402-.319a1.79 1.79 0 0 0-1.459-.739c-.848 0-1.413.575-1.413 1.24 0 1.624 2.362 1.232 2.362 2.399 0 .475-.347.858-.949.858-.493 0-.893-.21-1.24-.648zM353.609 76.382l-.41-.327a1.83 1.83 0 0 1-1.523.776c-1.131 0-1.925-.849-1.925-2.017v-.109h3.713c.027-.109.037-.246.037-.384 0-1.085-.784-1.961-2.016-1.961-1.377 0-2.289 1.058-2.289 2.481 0 1.341.975 2.482 2.481 2.482.839 0 1.514-.365 1.933-.939m-2.135-3.549c.893 0 1.45.639 1.477 1.441h-3.147c.174-.904.812-1.441 1.67-1.441"/></svg>