<svg xmlns="http://www.w3.org/2000/svg" width="112" height="36" viewBox="0 0 111 36"><path d="M.031 9.656c0 2.867 2.317 5.192 5.168 5.192 2.856 0 5.168-2.325 5.168-5.192 0-2.87-2.312-5.195-5.168-5.195C2.344 4.46.031 6.785.031 9.656m0 0" style="stroke:none;fill-rule:nonzero;fill:#1ecad3;fill-opacity:1"/><path d="M10.328 14.848H20.59c0 5.738-4.594 10.39-10.262 10.39Zm0 0" style="stroke:none;fill-rule:nonzero;fill:#90b3e6;fill-opacity:1"/><path d="M20.586 4.46v10.388H10.328c0-5.739 4.594-10.387 10.258-10.387m0 0" style="stroke:none;fill-rule:nonzero;fill:#0071ce;fill-opacity:1"/><path d="M10.328 14.848H.07c0 5.738 4.594 10.39 10.258 10.39Zm0 0" style="stroke:none;fill-rule:nonzero;fill:#d0ddf4;fill-opacity:1"/><path d="M43.258 17.273V4.465h-2.774v12.808c0 2.942-2.379 5.336-5.308 5.336-2.926 0-5.305-2.394-5.305-5.336V4.453h-2.773v12.82c0 4.477 3.625 8.122 8.078 8.122 4.457 0 8.082-3.645 8.082-8.122m12.637-3.148h.117v-2.492c-.469-.293-1.168-.528-2.075-.528-2.074 0-3.5.852-4.316 2.493h-.059l-.058-2.2h-2.102v13.72h2.48v-6.243c0-3.578 1.255-5.398 3.884-5.398.816 0 1.547.238 2.129.648m4.636 1.262c0-1.235 1.137-2.055 2.887-2.055 1.898 0 3.355.5 4.289 1.465h.117V12.16c-1.023-.672-2.656-1.055-4.465-1.055-3.18 0-5.277 1.758-5.277 4.368 0 2.492 1.313 3.636 4.898 3.87 2.45.15 3.211.677 3.211 1.79 0 1.262-1.168 2.055-3.035 2.055-2.187 0-3.883-.645-4.988-1.907h-.117v2.696c1.136.937 2.918 1.437 5.191 1.437 3.324 0 5.399-1.64 5.399-4.281 0-2.7-1.375-3.957-5.106-4.164-2.273-.117-3.004-.586-3.004-1.582m13.04 0c0-1.235 1.136-2.055 2.89-2.055 1.894 0 3.355.5 4.289 1.465h.113V12.16c-1.02-.672-2.652-1.055-4.46-1.055-3.184 0-5.282 1.758-5.282 4.368 0 2.492 1.313 3.636 4.899 3.87 2.453.15 3.21.677 3.21 1.79 0 1.262-1.168 2.055-3.035 2.055-2.187 0-3.879-.645-4.988-1.907h-.117v2.696c1.14.937 2.918 1.437 5.191 1.437 3.328 0 5.399-1.64 5.399-4.281 0-2.7-1.371-3.957-5.106-4.164-2.273-.117-3.004-.586-3.004-1.582m22.492 2.87c0 2.903-1.954 4.927-4.723 4.927-2.8 0-4.727-2.024-4.727-4.926s1.926-4.926 4.727-4.926c2.77 0 4.722 2.023 4.722 4.926m.292 6.864h2.102V11.398h-2.102l-.085 2.2h-.06c-1.022-1.555-2.89-2.493-5.28-2.493-3.97 0-6.828 2.989-6.828 7.153s2.859 7.156 6.828 7.156c2.39 0 4.257-.937 5.28-2.465h.06Zm14.676-17.82V4.953c-.586-.293-1.547-.5-2.687-.5-2.946 0-4.578 1.762-4.578 4.871v2.367h-2.508v2.168h2.508v11.258h2.507V13.86h4.38v-2.168h-4.38V9.383c0-1.758.875-2.7 2.422-2.7.79 0 1.633.235 2.22.618Zm0 0" style="stroke:none;fill-rule:nonzero;fill:#1a428a;fill-opacity:1"/><path d="M110.465 33.559c-.117.363-.38.652-.903.652-.542 0-.957-.406-.972-.984h2.426c.004-.043.015-.122.015-.204 0-1.007-.558-1.695-1.55-1.695-.81 0-1.54.692-1.54 1.707 0 1.098.758 1.735 1.621 1.735.75 0 1.266-.454 1.446-1.024Zm-1.856-.844c.028-.414.352-.828.88-.828.57 0 .87.363.882.828Zm-1.41-2.918h-.633v4.871h.633Zm-3.105 4.441c-.32 0-.52-.23-.52-.472 0-.29.2-.446.469-.485l.984-.148v.148c0 .707-.414.957-.933.957m-1.164-.437c0 .511.422.969 1.078.969.578 0 .898-.31 1.039-.54 0 .239.02.356.031.438h.617c-.011-.082-.039-.25-.039-.531v-1.621c0-.633-.375-1.188-1.34-1.188-.695 0-1.254.434-1.32 1.05l.602.142c.039-.375.289-.653.73-.653.488 0 .695.266.695.582 0 .114-.05.215-.246.242l-.87.13c-.552.077-.977.402-.977.98m-1.567-3.594c0 .25.203.45.45.45a.453.453 0 1 0 0-.906.45.45 0 0 0-.45.456m.766 1.223h-.625v3.238h.625Zm-2.754.484c.547 0 .781.371.863.688l.57-.243c-.136-.492-.578-1.03-1.433-1.03-.918 0-1.621.706-1.621 1.714 0 .984.691 1.727 1.625 1.727.84 0 1.3-.547 1.457-1.012l-.559-.242c-.074.254-.293.668-.898.668-.52 0-.984-.399-.984-1.141 0-.75.472-1.129.98-1.129m-3.738-.586c-.965 0-1.649.735-1.649 1.719 0 .988.684 1.723 1.649 1.723s1.648-.735 1.648-1.723c0-.984-.683-1.719-1.648-1.719m0 2.875c-.535 0-1.004-.402-1.004-1.156 0-.746.469-1.152 1.004-1.152s1.004.406 1.004 1.152c0 .754-.465 1.156-1.004 1.156m-4.606-.379c.051.371.426.946 1.313.946.797 0 1.176-.547 1.176-1.004 0-.477-.305-.832-.891-.961l-.52-.117c-.25-.051-.37-.196-.37-.387 0-.223.214-.434.538-.434.508 0 .641.371.668.54l.555-.208c-.066-.289-.34-.87-1.227-.87-.628 0-1.144.472-1.144 1.023 0 .457.3.8.8.91l.551.12c.266.06.415.216.415.415 0 .23-.196.433-.547.433-.457 0-.711-.27-.75-.605Zm-4.363-1.027c0-.488.254-.887.75-.887.562 0 .75.363.75.813v1.945h.629v-2.05c0-.723-.379-1.282-1.149-1.282-.378 0-.757.152-.992.559v-.465h-.617v3.238h.629Zm-3.016-1.469c-.965 0-1.644.735-1.644 1.719 0 .988.68 1.723 1.644 1.723.965 0 1.649-.735 1.649-1.723 0-.984-.684-1.719-1.649-1.719m0 2.875c-.535 0-1.004-.402-1.004-1.156 0-.746.47-1.152 1.004-1.152.535 0 1.004.406 1.004 1.152.004.754-.469 1.156-1.004 1.156m-3.144-3.996c0 .25.199.45.445.45.258 0 .457-.2.457-.45 0-.254-.2-.457-.457-.457a.445.445 0 0 0-.445.457m.762 1.223h-.625v3.238h.625Zm-2.09-1.024h-.578v.528c0 .28-.145.496-.497.496h-.171v.574h.617v1.773c0 .586.347.922.898.922.211 0 .375-.039.426-.058v-.54c-.05.012-.164.028-.246.028-.328 0-.45-.149-.45-.445V32h.696v-.57h-.695Zm-2.973 1.508c.547 0 .781.371.863.688l.567-.243c-.133-.492-.575-1.03-1.43-1.03-.918 0-1.621.706-1.621 1.714 0 .984.687 1.727 1.625 1.727.836 0 1.3-.547 1.453-1.012l-.555-.242c-.074.254-.296.668-.898.668-.52 0-.984-.399-.984-1.141 0-.75.468-1.129.98-1.129m-2.652 1.645c-.121.363-.383.652-.907.652-.543 0-.957-.406-.968-.984h2.425c.004-.043.012-.122.012-.204 0-1.007-.555-1.695-1.547-1.695-.808 0-1.539.692-1.539 1.707 0 1.098.758 1.735 1.617 1.735.75 0 1.266-.454 1.45-1.024Zm-1.856-.844c.028-.414.348-.828.88-.828.566 0 .866.363.882.828Zm-1.844-2.309h-.574v.528c0 .28-.148.496-.496.496h-.172v.574h.614v1.773c0 .586.347.922.898.922.215 0 .375-.039.43-.058v-.54a1.4 1.4 0 0 1-.25.028c-.328 0-.45-.149-.45-.445V32h.7v-.57h-.7Zm-3.19.922c-.966 0-1.65.735-1.65 1.719 0 .988.684 1.723 1.65 1.723.96 0 1.644-.735 1.644-1.723 0-.984-.684-1.719-1.645-1.719m0 2.875c-.536 0-1.005-.402-1.005-1.156 0-.746.469-1.152 1.004-1.152s1.004.406 1.004 1.152c0 .754-.469 1.156-1.004 1.156m-1.954-2.805a1 1 0 0 0-.207-.02c-.328 0-.73.118-.965.618v-.566h-.617v3.238h.633v-1.621c0-.715.351-.996.883-.996.085 0 .18.004.273.02Zm-3.164 1.649c0 .668-.371 1.144-.953 1.144-.574 0-.957-.476-.957-1.144 0-.649.383-1.133.957-1.133.59 0 .953.484.953 1.133m-1.902 2.902V34.23c.171.29.546.528 1.042.528.946 0 1.5-.75 1.5-1.715 0-.941-.515-1.688-1.48-1.688-.52 0-.902.254-1.078.579v-.504h-.61v4.515Zm-3.52-2.39c-.121.363-.383.652-.902.652-.543 0-.957-.406-.973-.984h2.426c.004-.043.011-.122.011-.204 0-1.007-.554-1.695-1.546-1.695-.809 0-1.54.692-1.54 1.707 0 1.098.758 1.735 1.622 1.735.75 0 1.265-.454 1.445-1.024Zm-1.855-.844c.027-.414.347-.828.878-.828.567 0 .872.363.883.828Zm-.977-1.317a1 1 0 0 0-.211-.02c-.328 0-.73.118-.965.618v-.566h-.613v3.238h.629v-1.621c0-.715.355-.996.883-.996.086 0 .18.004.273.02Zm-3.191-.992h-.575v.528c0 .28-.148.496-.496.496h-.172v.574h.614v1.773c0 .586.347.922.898.922.215 0 .375-.039.43-.058v-.54a1.4 1.4 0 0 1-.25.028c-.328 0-.45-.149-.45-.445V32h.7v-.57h-.7Zm-3.192.922c-.965 0-1.648.735-1.648 1.719 0 .988.683 1.723 1.648 1.723s1.645-.735 1.645-1.723c0-.984-.68-1.719-1.645-1.719m0 2.875c-.535 0-1.004-.402-1.004-1.156 0-.746.469-1.152 1.004-1.152s1.004.406 1.004 1.152c0 .754-.469 1.156-1.004 1.156m-4.45-1.406c0-.488.255-.887.75-.887.563 0 .75.363.75.813v1.945h.63v-2.05c0-.723-.383-1.282-1.153-1.282-.374 0-.757.152-.988.559v-.465h-.617v3.238h.629Zm-3.523.762c-.12.363-.382.652-.906.652-.543 0-.957-.406-.968-.984h2.425c.004-.043.012-.122.012-.204 0-1.007-.555-1.695-1.547-1.695-.808 0-1.539.692-1.539 1.707 0 1.098.758 1.735 1.621 1.735.75 0 1.266-.454 1.445-1.024Zm-1.855-.844c.027-.414.348-.828.879-.828.566 0 .871.363.883.828Zm-2.023 1.515c0 .196.02.364.035.438h.61a5 5 0 0 1-.036-.598v-4.273h-.621v2.09c-.11-.262-.418-.547-.984-.547-.915 0-1.528.785-1.528 1.7 0 .964.582 1.718 1.528 1.718.5 0 .843-.27.996-.582Zm-1.883-1.19c0-.669.375-1.138.949-1.138.578 0 .926.457.926 1.121 0 .668-.356 1.172-.93 1.172-.601.004-.945-.488-.945-1.156m-3.27.519c-.12.363-.383.652-.906.652-.543 0-.957-.406-.969-.984h2.426c.004-.043.012-.122.012-.204 0-1.007-.555-1.695-1.547-1.695-.809 0-1.54.692-1.54 1.707 0 1.098.759 1.735 1.618 1.735.75 0 1.266-.454 1.45-1.024Zm-1.855-.844c.027-.414.347-.828.879-.828.566 0 .867.363.883.828Zm-2.504-.8c.547 0 .781.37.863.687l.567-.243c-.133-.492-.575-1.03-1.43-1.03-.918 0-1.621.706-1.621 1.714 0 .984.687 1.727 1.629 1.727.836 0 1.297-.547 1.453-1.012l-.559-.242c-.07.254-.293.668-.894.668-.524 0-.985-.399-.985-1.141 0-.75.47-1.129.977-1.129m-3.121-1.708a.451.451 0 0 0 .902 0 .455.455 0 0 0-.457-.457.445.445 0 0 0-.445.457m.762 1.223h-.625v3.238h.625Zm-1.157 0h-.68l-.921 2.496-.918-2.496H18.8l1.308 3.238h.633Zm-3.465-.032a1 1 0 0 0-.207-.02c-.328 0-.73.118-.964.618v-.566h-.618v3.238h.63v-1.621c0-.715.355-.996.886-.996.086 0 .18.004.273.02Zm-3.086 2.16c-.12.364-.382.653-.902.653-.543 0-.96-.406-.973-.984h2.426c.004-.043.012-.122.012-.204 0-1.007-.555-1.695-1.547-1.695-.809 0-1.539.692-1.539 1.707 0 1.098.758 1.735 1.621 1.735.75 0 1.266-.454 1.445-1.024Zm-1.855-.843c.027-.414.348-.828.879-.828.566 0 .867.363.883.828Zm-3.637 1.11c.055.37.43.945 1.313.945.797 0 1.18-.547 1.18-1.004 0-.477-.305-.832-.891-.961l-.524-.117c-.246-.051-.367-.196-.367-.387 0-.223.215-.434.535-.434.512 0 .645.371.672.54l.555-.208c-.066-.289-.344-.87-1.227-.87-.629 0-1.144.472-1.144 1.023 0 .457.3.8.8.91l.551.12c.266.06.414.216.414.415 0 .23-.195.433-.55.433-.453 0-.707-.27-.75-.605Zm-2.894.452c0 .137.015.317.027.391h.602a6 6 0 0 1-.032-.598v-2.64h-.628v1.953c0 .492-.254.828-.766.828-.527 0-.73-.39-.73-.836V31.43h-.63v2.039c0 .734.454 1.3 1.208 1.3.375 0 .773-.152.949-.492m-4.778-3.695.825 2.14H1.508Zm1.579 4.086h.707l-1.887-4.773h-.758L.07 34.668h.7l.503-1.332H3.38Zm0 0" style="stroke:none;fill-rule:nonzero;fill:#0071ce;fill-opacity:1"/></svg>