<?xml version="1.0" encoding="utf-8"?>
<svg
	width="199"
	height="64"
	viewBox="0 0 199 64"
	fill="none"
	xmlns="http://www.w3.org/2000/svg">
	<g clip-path="url(#clip0)">
		<path 
			d="M0.0566406 17.1639C0.0566406 22.2628 4.206 26.3982 9.32214 26.3982C14.4383 26.3982 18.5876 22.2628 18.5876 17.1639C18.5876 12.065 14.4383 7.92964 9.32214 7.92964C4.20247 7.92964 0.0566406 12.065 0.0566406 17.1639Z"
			fill="#1ECAD3"/>
		<path
			d="M18.5176 26.3983H36.911C36.911 36.5996 28.6758 44.8668 18.5176 44.8668V26.3983Z"
			fill="#90B3E6"/>
		<path
			d="M36.9074 7.92964V26.3982H18.5176C18.5176 16.1969 26.7493 7.92964 36.9074 7.92964Z"
			fill="#0071CE"/>
		<path
			d="M18.5164 26.3983H0.123047C0.123047 36.5996 8.35826 44.8668 18.5164 44.8668V26.3983Z"
			fill="#D0DDF4"/>
		<path
			d="M77.5499 30.7095V7.94023H72.582V30.7095C72.582 35.9385 68.3127 40.1934 63.066 40.1934C57.8193 40.1934 53.55 35.9385 53.55 30.7095V7.91913H48.582V30.7095C48.582 38.6673 55.0778 45.1446 63.066 45.1446C71.0542 45.1446 77.5499 38.6673 77.5499 30.7095ZM100.206 25.1112H100.414V20.6804C99.5775 20.16 98.3214 19.7415 96.6984 19.7415C92.983 19.7415 90.4214 21.2536 88.9572 24.1723H88.8548L88.749 20.262H84.9842V44.6558H89.43V33.5543C89.43 27.1965 91.6775 23.9613 96.3879 23.9613C97.8522 23.9613 99.1612 24.3798 100.206 25.1112ZM108.522 27.3512C108.522 25.1604 110.561 23.7011 113.698 23.7011C117.099 23.7011 119.714 24.5873 121.386 26.3068H121.595V21.6193C119.763 20.4202 116.835 19.7415 113.592 19.7415C107.89 19.7415 104.126 22.8677 104.126 27.5095C104.126 31.9402 106.479 33.9728 112.911 34.3912C117.304 34.6514 118.666 35.5903 118.666 37.5701C118.666 39.8101 116.574 41.2202 113.225 41.2202C109.302 41.2202 106.267 40.0738 104.281 37.8303H104.073V42.6268C106.112 44.2936 109.302 45.1798 113.381 45.1798C119.343 45.1798 123.055 42.2611 123.055 37.5701C123.055 32.7736 120.596 30.5336 113.903 30.1679C109.827 29.9569 108.522 29.1235 108.522 27.3512ZM131.897 27.3512C131.897 25.1604 133.937 23.7011 137.077 23.7011C140.478 23.7011 143.093 24.5873 144.765 26.3068H144.974V21.6193C143.142 20.4202 140.214 19.7415 136.971 19.7415C131.269 19.7415 127.505 22.8677 127.505 27.5095C127.505 31.9402 129.858 33.9728 136.29 34.3912C140.683 34.6514 142.045 35.5903 142.045 37.5701C142.045 39.8101 139.953 41.2202 136.604 41.2202C132.681 41.2202 129.646 40.0738 127.66 37.8303H127.452V42.6268C129.491 44.2936 132.681 45.1798 136.759 45.1798C142.722 45.1798 146.434 42.2611 146.434 37.5701C146.434 32.7736 143.975 30.5336 137.282 30.1679C133.206 29.9569 131.897 29.1235 131.897 27.3512ZM172.223 32.4607C172.223 37.6193 168.719 41.2167 163.752 41.2167C158.731 41.2167 155.28 37.6193 155.28 32.4607C155.28 27.2985 158.731 23.7046 163.752 23.7046C168.719 23.7011 172.223 27.2985 172.223 32.4607ZM172.745 44.6593H176.51V20.262H172.745L172.59 24.1723H172.484C170.653 21.4084 167.305 19.7415 163.018 19.7415C155.904 19.7415 150.778 25.0585 150.778 32.4607C150.778 39.8629 155.901 45.1798 163.018 45.1798C167.305 45.1798 170.653 43.513 172.484 40.8018H172.59L172.745 44.6593ZM199.053 12.9758V8.80528C198.008 8.28484 196.28 7.91913 194.24 7.91913C188.958 7.91913 186.03 11.0453 186.03 16.5732V20.7824H181.531V24.64H186.03V44.6558H190.528V24.64H198.375V20.7824H190.528V16.6787C190.528 13.5525 192.098 11.8822 194.868 11.8822C196.28 11.8822 197.797 12.2972 198.845 12.9758H199.053Z"
			fill="#1A428A"/>
		<path
			d="M198.043 59.6572C197.828 60.3042 197.359 60.8176 196.424 60.8176C195.45 60.8176 194.706 60.1002 194.681 59.0699H199.028C199.038 58.9961 199.053 58.8554 199.053 58.7112C199.053 56.9178 198.058 55.6941 196.279 55.6941C194.826 55.6941 193.517 56.9249 193.517 58.7323C193.517 60.684 194.875 61.8092 196.424 61.8092C197.768 61.8092 198.693 61.0075 199.017 59.9912L198.043 59.6572ZM194.716 58.1627C194.766 57.4207 195.341 56.6893 196.29 56.6893C197.31 56.6893 197.849 57.3363 197.874 58.1627H194.716ZM192.183 52.9688H191.054V61.6334H192.183V52.9688ZM186.622 60.8668C186.047 60.8668 185.687 60.4589 185.687 60.0299C185.687 59.5165 186.047 59.2387 186.527 59.1684L188.291 58.9046V59.1684C188.291 60.4238 187.547 60.8668 186.622 60.8668ZM184.533 60.0897C184.533 61.0005 185.288 61.8128 186.467 61.8128C187.501 61.8128 188.076 61.2607 188.326 60.8563C188.326 61.2747 188.362 61.4892 188.386 61.6334H189.491C189.466 61.4892 189.42 61.1903 189.42 60.6875V57.804C189.42 56.6787 188.746 55.6976 187.017 55.6976C185.768 55.6976 184.773 56.4642 184.65 57.5649L185.729 57.8145C185.8 57.1429 186.245 56.6541 187.038 56.6541C187.913 56.6541 188.287 57.1218 188.287 57.6844C188.287 57.8884 188.192 58.0677 187.843 58.1169L186.283 58.3455C185.292 58.4862 184.533 59.0594 184.533 60.0897ZM181.725 53.7002C181.725 54.1433 182.085 54.502 182.529 54.502C182.984 54.502 183.348 54.1433 183.348 53.7002C183.348 53.2466 182.988 52.8879 182.529 52.8879C182.085 52.8844 181.725 53.2431 181.725 53.7002ZM183.094 55.8769H181.975V61.6334H183.094V55.8769ZM178.158 56.7385C179.142 56.7385 179.562 57.3961 179.706 57.9587L180.726 57.5262C180.486 56.6541 179.692 55.6941 178.158 55.6941C176.513 55.6941 175.25 56.9495 175.25 58.7464C175.25 60.4941 176.489 61.8092 178.168 61.8092C179.668 61.8092 180.497 60.8387 180.776 60.0158L179.777 59.5833C179.646 60.0369 179.248 60.7684 178.168 60.7684C177.233 60.7684 176.404 60.0616 176.404 58.7464C176.404 57.4101 177.247 56.7385 178.158 56.7385ZM171.457 55.6976C169.728 55.6976 168.504 57.0022 168.504 58.7499C168.504 60.5082 169.728 61.8128 171.457 61.8128C173.186 61.8128 174.41 60.5082 174.41 58.7499C174.414 57.0022 173.19 55.6976 171.457 55.6976ZM171.457 60.8071C170.497 60.8071 169.658 60.0897 169.658 58.7499C169.658 57.4207 170.497 56.7033 171.457 56.7033C172.417 56.7033 173.257 57.4207 173.257 58.7499C173.26 60.0897 172.42 60.8071 171.457 60.8071ZM163.197 60.1354C163.292 60.793 163.966 61.8128 165.551 61.8128C166.98 61.8128 167.664 60.8422 167.664 60.0299C167.664 59.1789 167.114 58.546 166.066 58.3174L165.131 58.1134C164.686 58.0185 164.471 57.7653 164.471 57.4207C164.471 57.0268 164.856 56.6541 165.431 56.6541C166.345 56.6541 166.584 57.3117 166.63 57.6106L167.625 57.2413C167.505 56.7279 167.015 55.6976 165.427 55.6976C164.298 55.6976 163.374 56.5345 163.374 57.5156C163.374 58.3279 163.913 58.9398 164.813 59.1297L165.798 59.3442C166.277 59.4532 166.542 59.7275 166.542 60.0862C166.542 60.4941 166.193 60.8528 165.558 60.8528C164.743 60.8528 164.284 60.3745 164.213 59.7767L163.197 60.1354ZM155.378 58.3068C155.378 57.4347 155.834 56.7279 156.723 56.7279C157.732 56.7279 158.067 57.375 158.067 58.1767V61.6334H159.196V57.9833C159.196 56.7033 158.512 55.7082 157.132 55.7082C156.458 55.7082 155.774 55.9824 155.354 56.6998V55.8734H154.249V61.6299H155.378V58.3068ZM149.973 55.6976C148.244 55.6976 147.02 57.0022 147.02 58.7499C147.02 60.5082 148.244 61.8128 149.973 61.8128C151.702 61.8128 152.926 60.5082 152.926 58.7499C152.926 57.0022 151.702 55.6976 149.973 55.6976ZM149.973 60.8071C149.013 60.8071 148.173 60.0897 148.173 58.7499C148.173 57.4207 149.013 56.7033 149.973 56.7033C150.933 56.7033 151.772 57.4207 151.772 58.7499C151.776 60.0897 150.933 60.8071 149.973 60.8071ZM144.331 53.7002C144.331 54.1433 144.691 54.502 145.135 54.502C145.591 54.502 145.954 54.1433 145.954 53.7002C145.954 53.2466 145.594 52.8879 145.135 52.8879C144.691 52.8844 144.331 53.2431 144.331 53.7002ZM145.7 55.8769H144.582V61.6334H145.7V55.8769ZM141.953 54.0589H140.919V54.9908C140.919 55.4937 140.654 55.8769 140.03 55.8769H139.716V56.8932H140.824V60.051C140.824 61.0919 141.448 61.6897 142.433 61.6897C142.817 61.6897 143.107 61.6194 143.202 61.5807V60.6242C143.107 60.6488 142.902 60.6734 142.757 60.6734C142.168 60.6734 141.953 60.4097 141.953 59.8822V56.8897H143.202V55.8734H141.953V54.0589ZM136.622 56.7385C137.606 56.7385 138.026 57.3961 138.171 57.9587L139.19 57.5262C138.95 56.6541 138.156 55.6941 136.622 55.6941C134.977 55.6941 133.714 56.9495 133.714 58.7464C133.714 60.4941 134.953 61.8092 136.632 61.8092C138.132 61.8092 138.961 60.8387 139.236 60.0158L138.241 59.5833C138.111 60.0369 137.712 60.7684 136.632 60.7684C135.697 60.7684 134.868 60.0616 134.868 58.7464C134.868 57.4101 135.708 56.7385 136.622 56.7385ZM131.865 59.6572C131.65 60.3042 131.181 60.8176 130.246 60.8176C129.272 60.8176 128.527 60.1002 128.506 59.0699H132.853C132.864 58.9961 132.878 58.8554 132.878 58.7112C132.878 56.9178 131.879 55.6941 130.105 55.6941C128.651 55.6941 127.342 56.9249 127.342 58.7323C127.342 60.684 128.7 61.8092 130.246 61.8092C131.59 61.8092 132.515 61.0075 132.839 59.9912L131.865 59.6572ZM128.542 58.1627C128.591 57.4207 129.166 56.6893 130.115 56.6893C131.135 56.6893 131.675 57.3363 131.699 58.1627H128.542ZM125.239 54.0589H124.205V54.9908C124.205 55.4937 123.941 55.8769 123.316 55.8769H123.006V56.8932H124.11V60.051C124.11 61.0919 124.734 61.6897 125.719 61.6897C126.103 61.6897 126.393 61.6194 126.488 61.5807V60.6242C126.393 60.6488 126.188 60.6734 126.043 60.6734C125.454 60.6734 125.239 60.4097 125.239 59.8822V56.8897H126.488V55.8734H125.239V54.0589ZM119.512 55.6976C117.784 55.6976 116.559 57.0022 116.559 58.7499C116.559 60.5082 117.784 61.8128 119.512 61.8128C121.241 61.8128 122.466 60.5082 122.466 58.7499C122.466 57.0022 121.241 55.6976 119.512 55.6976ZM119.512 60.8071C118.553 60.8071 117.713 60.0897 117.713 58.7499C117.713 57.4207 118.553 56.7033 119.512 56.7033C120.472 56.7033 121.312 57.4207 121.312 58.7499C121.312 60.0897 120.472 60.8071 119.512 60.8071ZM116.016 55.8172C115.956 55.8031 115.801 55.782 115.642 55.782C115.053 55.782 114.333 55.9965 113.913 56.8827V55.8769H112.809V61.6334H113.938V58.7499C113.938 57.4805 114.573 56.9776 115.522 56.9776C115.677 56.9776 115.846 56.9882 116.012 57.0128L116.016 55.8172ZM110.339 58.7499C110.339 59.935 109.679 60.786 108.635 60.786C107.601 60.786 106.916 59.9385 106.916 58.7499C106.916 57.6 107.601 56.7385 108.635 56.7385C109.69 56.7385 110.339 57.6 110.339 58.7499ZM106.927 63.9086V60.8563C107.237 61.3697 107.911 61.7882 108.8 61.7882C110.494 61.7882 111.489 60.4589 111.489 58.7464C111.489 57.0725 110.565 55.7433 108.836 55.7433C107.901 55.7433 107.216 56.1969 106.902 56.7736V55.8769H105.808V63.9051L106.927 63.9086ZM100.622 59.6572C100.406 60.3042 99.9371 60.8176 99.0021 60.8176C98.0282 60.8176 97.2838 60.1002 97.259 59.0699H101.606C101.617 58.9961 101.631 58.8554 101.631 58.7112C101.631 56.9178 100.636 55.6941 98.8574 55.6941C97.4037 55.6941 96.0947 56.9249 96.0947 58.7323C96.0947 60.684 97.4531 61.8092 99.0021 61.8092C100.346 61.8092 101.271 61.0075 101.595 59.9912L100.622 59.6572ZM97.2943 58.1627C97.3437 57.4207 97.9189 56.6893 98.868 56.6893C99.8877 56.6893 100.428 57.3363 100.452 58.1627H97.2943ZM95.5407 55.8172C95.4808 55.8031 95.3255 55.782 95.1667 55.782C94.5775 55.782 93.8577 55.9965 93.4378 56.8827V55.8769H92.3335V61.6334H93.4625V58.7499C93.4625 57.4805 94.0976 56.9776 95.0468 56.9776C95.202 56.9776 95.3714 56.9882 95.5372 57.0128L95.5407 55.8172ZM89.8248 54.0589H88.791V54.9908C88.791 55.4937 88.5263 55.8769 87.9018 55.8769H87.5913V56.8932H88.6957V60.051C88.6957 61.0919 89.3202 61.6897 90.3046 61.6897C90.6892 61.6897 90.9786 61.6194 91.0738 61.5807V60.6242C90.9786 60.6488 90.7739 60.6734 90.6292 60.6734C90.04 60.6734 89.8248 60.4097 89.8248 59.8822V56.8897H91.0738V55.8734H89.8248V54.0589ZM84.0982 55.6976C82.3693 55.6976 81.145 57.0022 81.145 58.7499C81.145 60.5082 82.3693 61.8128 84.0982 61.8128C85.8271 61.8128 87.0515 60.5082 87.0515 58.7499C87.0515 57.0022 85.8271 55.6976 84.0982 55.6976ZM84.0982 60.8071C83.1385 60.8071 82.2988 60.0897 82.2988 58.7499C82.2988 57.4207 83.1385 56.7033 84.0982 56.7033C85.058 56.7033 85.8977 57.4207 85.8977 58.7499C85.8977 60.0897 85.058 60.8071 84.0982 60.8071ZM76.1241 58.3068C76.1241 57.4347 76.5793 56.7279 77.4684 56.7279C78.4775 56.7279 78.8127 57.375 78.8127 58.1767V61.6334H79.9418V57.9833C79.9418 56.7033 79.2573 55.7082 77.8777 55.7082C77.2038 55.7082 76.5193 55.9824 76.0994 56.6998V55.8734H74.995V61.6299H76.1241V58.3068ZM69.8048 59.6572C69.5896 60.3042 69.1203 60.8176 68.1853 60.8176C67.2115 60.8176 66.467 60.1002 66.4458 59.0699H70.7928C70.8033 58.9961 70.8175 58.8554 70.8175 58.7112C70.8175 56.9178 69.8189 55.6941 68.0442 55.6941C66.5905 55.6941 65.2814 56.9249 65.2814 58.7323C65.2814 60.684 66.6399 61.8092 68.1888 61.8092C69.5331 61.8092 70.4576 61.0075 70.7822 59.9912L69.8048 59.6572ZM66.4811 58.1627C66.5305 57.4207 67.1056 56.6893 68.0547 56.6893C69.0744 56.6893 69.6143 57.3363 69.639 58.1627H66.4811ZM62.8539 60.8563C62.8539 61.2044 62.8892 61.5033 62.9139 61.6334H64.0077C63.9971 61.5385 63.9477 61.12 63.9477 60.5679V52.9688H62.8292V56.6893C62.6387 56.2216 62.0847 55.7187 61.065 55.7187C59.4314 55.7187 58.327 57.1077 58.327 58.7358C58.327 60.4484 59.3714 61.7882 61.065 61.7882C61.9648 61.7882 62.5787 61.3099 62.8539 60.7578V60.8563ZM59.4773 58.7358C59.4773 57.5508 60.1512 56.7139 61.1815 56.7139C62.2153 56.7139 62.8398 57.5262 62.8398 58.7112C62.8398 59.8963 62.2047 60.793 61.1709 60.793C60.0912 60.7965 59.4773 59.9209 59.4773 58.7358ZM53.6167 59.6572C53.4014 60.3042 52.9321 60.8176 51.9936 60.8176C51.0198 60.8176 50.2753 60.1002 50.2541 59.0699H54.6011C54.6117 58.9961 54.6258 58.8554 54.6258 58.7112C54.6258 56.9178 53.6308 55.6941 51.8525 55.6941C50.3988 55.6941 49.0898 56.9249 49.0898 58.7323C49.0898 60.684 50.4482 61.8092 51.9936 61.8092C53.3379 61.8092 54.2623 61.0075 54.587 59.9912L53.6167 59.6572ZM50.2894 58.1627C50.3388 57.4207 50.9139 56.6893 51.8631 56.6893C52.8828 56.6893 53.4226 57.3363 53.4473 58.1627H50.2894ZM45.7978 56.7385C46.7822 56.7385 47.2021 57.3961 47.3467 57.9587L48.3664 57.5262C48.1265 56.6541 47.3326 55.6941 45.7978 55.6941C44.1536 55.6941 42.8939 56.9495 42.8939 58.7464C42.8939 60.4941 44.1289 61.8092 45.8119 61.8092C47.3115 61.8092 48.1406 60.8387 48.4194 60.0158L47.4208 59.5833C47.2903 60.0369 46.8916 60.7684 45.8119 60.7684C44.8769 60.7684 44.0477 60.0616 44.0477 58.7464C44.0477 57.4101 44.8875 56.7385 45.7978 56.7385ZM40.2018 53.7002C40.2018 54.1433 40.5617 54.502 41.0063 54.502C41.4614 54.502 41.8213 54.1433 41.8213 53.7002C41.8213 53.2466 41.4614 52.8879 41.0063 52.8879C40.5652 52.8844 40.2018 53.2431 40.2018 53.7002ZM41.5708 55.8769H40.4523V61.6334H41.5708V55.8769ZM39.4961 55.8769H38.2824L36.624 60.3147L34.9798 55.8769H33.7061L36.0489 61.6334H37.1886L39.4961 55.8769ZM33.2862 55.8172C33.2262 55.8031 33.071 55.782 32.9122 55.782C32.3229 55.782 31.6032 55.9965 31.1833 56.8827V55.8769H30.0789V61.6334H31.208V58.7499C31.208 57.4805 31.8431 56.9776 32.7922 56.9776C32.9475 56.9776 33.1168 56.9882 33.2827 57.0128V55.8172H33.2862ZM27.7537 59.6572C27.5385 60.3042 27.0692 60.8176 26.1342 60.8176C25.1604 60.8176 24.4159 60.1002 24.3912 59.0699H28.7381C28.7487 58.9961 28.7628 58.8554 28.7628 58.7112C28.7628 56.9178 27.7678 55.6941 25.9895 55.6941C24.5358 55.6941 23.2268 56.9249 23.2268 58.7323C23.2268 60.684 24.5852 61.8092 26.1342 61.8092C27.4785 61.8092 28.4029 61.0075 28.7275 59.9912L27.7537 59.6572ZM24.4265 58.1627C24.4759 57.4207 25.051 56.6893 26.0001 56.6893C27.0198 56.6893 27.5596 57.3363 27.5843 58.1627H24.4265ZM17.9096 60.1354C18.0048 60.793 18.6787 61.8128 20.263 61.8128C21.692 61.8128 22.3765 60.8422 22.3765 60.0299C22.3765 59.1789 21.826 58.546 20.7781 58.3174L19.8431 58.1134C19.3985 58.0185 19.1833 57.7653 19.1833 57.4207C19.1833 57.0268 19.5679 56.6541 20.143 56.6541C21.0569 56.6541 21.2968 57.3117 21.3427 57.6106L22.3377 57.2413C22.2177 56.7279 21.7237 55.6976 20.1395 55.6976C19.0104 55.6976 18.086 56.5345 18.086 57.5156C18.086 58.3279 18.6258 58.9398 19.5256 59.1297L20.51 59.3442C20.9898 59.4532 21.2545 59.7275 21.2545 60.0862C21.2545 60.4941 20.9051 60.8528 20.27 60.8528C19.455 60.8528 18.9963 60.3745 18.9257 59.7767L17.9096 60.1354ZM12.7193 60.9407C12.7193 61.1798 12.744 61.5033 12.7687 61.6334H13.8484C13.8237 61.4295 13.7884 61.0216 13.7884 60.5679V55.8769H12.6593V59.3477C12.6593 60.2198 12.2042 60.8176 11.2903 60.8176C10.3412 60.8176 9.98131 60.1249 9.98131 59.3336V55.8769H8.85223V59.5024C8.85223 60.8071 9.66729 61.8128 11.0151 61.8128C11.6855 61.8128 12.4053 61.5385 12.7193 60.9407ZM4.15597 54.3684L5.63083 58.1732H2.70228L4.15597 54.3684ZM6.97867 61.6334H8.25241L4.86518 53.1482H3.51028L0.123047 61.6334H1.38267L2.28241 59.2633H6.05424L6.97867 61.6334Z"
			fill="#0071CE"/>
	</g>
	<defs>
		<clipPath id="clip0">
			<rect
				width="199"
				height="64"
				fill="white" />
		</clipPath>
	</defs>
</svg>
