<svg xmlns:dc="http://purl.org/dc/elements/1.1/" xmlns:cc="http://creativecommons.org/ns#" xmlns:rdf="http://www.w3.org/1999/02/22-rdf-syntax-ns#" xmlns:svg="http://www.w3.org/2000/svg" xmlns="http://www.w3.org/2000/svg" xmlns:sodipodi="http://sodipodi.sourceforge.net/DTD/sodipodi-0.dtd" xmlns:inkscape="http://www.inkscape.org/namespaces/inkscape" version="1.1" x="0px" y="0px" viewBox="0 0 125 125">
    <g transform="translate(12,0)">
        <path style="color:rgb(41, 117, 209);fill:rgb(41, 117, 209);fill-opacity:0;stroke:none;stroke-width:1;" d="m 37,16 c -3.289405,0 -6,2.71059 -6,6 l 0,4 -19,0 c -3.2894039,0 -6,2.7106 -6,6 l 0,46 c 0,3.2894 2.7105961,6 6,6 l 76,0 c 3.289404,0 6,-2.7106 6,-6 l 0,-46 c 0,-3.2894 -2.710596,-6 -6,-6 l -19,0 0,-4 c 0,-3.28941 -2.710595,-6 -6,-6 z m 0,4 26,0 c 1.142593,0 2,0.85741 2,2 l 0,4 -30,0 0,-4 c 0,-1.14259 0.857407,-2 2,-2 z m -25,10 76,0 c 1.142593,0 2,0.85741 2,2 l 0,6.53125 C 80.849831,45.399711 66.35616,50 50,50 33.64384,50 19.150169,45.399711 10,38.53125 L 10,32 c 0,-1.14259 0.857407,-2 2,-2 z m -2,13.46875 c 8.073731,5.286629 18.861391,8.889277 31,10.09375 L 41,57 c 0,2.1814 1.818595,4 4,4 l 10,0 c 2.181405,0 4,-1.8186 4,-4 l 0,-3.4375 C 71.138609,52.358027 81.926269,48.755379 90,43.46875 L 90,78 c 0,1.1426 -0.857407,2 -2,2 l -76,0 c -1.142593,0 -2,-0.8574 -2,-2 z M 45,53.875 c 1.644506,0.08907 3.316962,0.125 5,0.125 1.683038,0 3.355494,-0.03593 5,-0.125 L 55,57 45,57 z" />
    </g>
</svg>