<svg xmlns:dc="http://purl.org/dc/elements/1.1/" xmlns:cc="http://creativecommons.org/ns#" xmlns:rdf="http://www.w3.org/1999/02/22-rdf-syntax-ns#" xmlns:svg="http://www.w3.org/2000/svg" xmlns="http://www.w3.org/2000/svg" xmlns:sodipodi="http://sodipodi.sourceforge.net/DTD/sodipodi-0.dtd" xmlns:inkscape="http://www.inkscape.org/namespaces/inkscape" version="1.1" x="0px" y="0px" viewBox="0 0 100 125">
<g transform="translate(0,-952.36218)"><path d="m 38.819374,963.25063 c -3.68848,0 -6.83562,2.71705 -6.83562,6.18499 l 0,6.05687 -15.87625,0 c -5.00259,0 -9.10782,4.11915 -9.10782,9.13781 l 0,47.7056 c 0,5.0187 4.10523,9.1378 9.10782,9.1378 l 67.785,0 c 5.01136,0 9.107812,-4.1206 9.107812,-9.1378 l 0,-47.7056 c 0,-5.01717 -4.096452,-9.13781 -9.107812,-9.13781 l -15.87625,0 0,-6.05687 c 0,-3.4656 -3.13864,-6.18499 -6.83563,-6.18499 l -22.36125,0 z m 0,2 22.36125,0 c 2.72918,0 4.83563,1.94511 4.83563,4.18499 l 0,6.05687 -32.0325,0 0,-6.05687 c 0,-2.23754 2.11798,-4.18499 4.83562,-4.18499 z m -22.71187,12.24186 67.785,0 c 3.91718,0 7.10781,3.2064 7.10781,7.13781 l 0,7.04563 -41.00031,15.60717 -41.00032,-15.60717 0,-7.04563 c 0,-3.92993 3.20186,-7.13781 7.10782,-7.13781 z m -7.10782,16.32375 31.53063,12.00216 c -0.30553,0.9566 -0.46875,1.9794 -0.46875,3.035 0,5.4756 4.46281,9.9387 9.93844,9.9387 5.48454,0 9.94844,-4.4631 9.94844,-9.9387 0,-1.0569 -0.16375,-2.0809 -0.47,-3.0384 l 31.52187,-11.99876 0,38.51966 c 0,3.9314 -3.19063,7.1378 -7.10781,7.1378 l -67.785,0 c -3.90596,0 -7.10782,-3.2079 -7.10782,-7.1378 l 0,-38.51966 z m 48.60563,12.71156 c 0.22242,0.7307 0.34313,1.5135 0.34313,2.3256 0,4.3938 -3.54353,7.9387 -7.94844,7.9387 -4.39381,0 -7.93844,-3.5449 -7.93844,-7.9387 0,-0.8108 0.12014,-1.5925 0.34188,-2.3222 l 7.24093,2.7563 a 1.0001,1.0001 0 0 0 0.71125,0 l 7.24969,-2.7597 z" fill="rgb(41, 117, 209)" fill-opacity="2" fill-rule="evenodd"  marker="none" visibility="visible" display="inline" overflow="visible"/>
</g></svg>