<?xml version="1.0" encoding="UTF-8" standalone="no"?>
<svg
   role="img"
   data-name="Layer 1"
   width="917.13751"
   height="600"
   viewBox="0 0 917.13751 599.99997"
   version="1.1"
   id="svg58"
   sodipodi:docname="growth.svg"
   inkscape:version="1.1.1 (3bf5ae0d25, 2021-09-20, custom)"
   xmlns:inkscape="http://www.inkscape.org/namespaces/inkscape"
   xmlns:sodipodi="http://sodipodi.sourceforge.net/DTD/sodipodi-0.dtd"
   xmlns="http://www.w3.org/2000/svg"
   xmlns:svg="http://www.w3.org/2000/svg">
  <defs
     id="defs62" />
  <sodipodi:namedview
     id="namedview60"
     pagecolor="#ffffff"
     bordercolor="#666666"
     borderopacity="1.0"
     inkscape:pageshadow="2"
     inkscape:pageopacity="0.0"
     inkscape:pagecheckerboard="0"
     showgrid="false"
     height="599.20215px"
     inkscape:zoom="0.60462192"
     inkscape:cx="-288.61011"
     inkscape:cy="349.80538"
     inkscape:window-width="2490"
     inkscape:window-height="1342"
     inkscape:window-x="23"
     inkscape:window-y="15"
     inkscape:window-maximized="0"
     inkscape:current-layer="svg58" />
  <path
     d="m 469.8283,670.33553 c 3.31771,-26.67813 19.85136,-52.96384 45.29423,-61.64563 a 123.86326,123.86326 0 0 0 0.006,85.04047 c 3.90959,10.5753 9.35913,21.9305 5.68164,32.5888 -2.28808,6.63189 -7.88558,11.70586 -14.14245,14.87849 -6.25727,3.17263 -13.20152,4.68476 -20.05887,6.16664 l -1.34956,1.11617 C 474.3735,723.89947 466.5106,697.01366 469.8283,670.33553 Z"
     transform="translate(-141.43125,-149.39894)"
     fill="#f0f0f0"
     id="path2" />
  <path
     d="m 515.375,609.19434 a 105.86968,105.86968 0 0 0 -26.319,59.58345 45.59121,45.59121 0 0 0 0.51859,14.27515 26.14853,26.14853 0 0 0 6.50348,12.12824 c 2.93126,3.22058 6.30256,6.17543 8.3999,10.05247 a 16.01079,16.01079 0 0 1 0.78221,13.07062 c -1.85173,5.31109 -5.5014,9.64009 -9.21758,13.74946 -4.12611,4.56266 -8.48414,9.23647 -10.238,15.28536 -0.21252,0.7329 -1.33731,0.3603 -1.12512,-0.3715 3.0515,-10.524 13.26754,-16.50187 18.13955,-25.98072 2.27337,-4.423 3.22759,-9.55792 1.09634,-14.22685 -1.86368,-4.08279 -5.3376,-7.13283 -8.33375,-10.36808 a 27.90251,27.90251 0 0 1 -6.80084,-11.62187 42.14763,42.14763 0 0 1 -1.06551,-14.20255 102.71212,102.71212 0 0 1 7.50143,-31.21352 107.74683,107.74683 0 0 1 19.3743,-31.0483 c 0.50661,-0.56729 1.28731,0.32505 0.784,0.88864 z"
     transform="translate(-141.43125,-149.39894)"
     fill="#ffffff"
     id="path4" />
  <path
     d="m 489.37489,661.60742 a 15.88383,15.88383 0 0 1 -12.09073,-16.6389 c 0.0604,-0.76 1.24413,-0.70184 1.18368,0.0591 a 14.70809,14.70809 0 0 0 11.27854,15.45466 c 0.74175,0.17636 0.366,1.30047 -0.37149,1.12512 z"
     transform="translate(-141.43125,-149.39894)"
     fill="#ffffff"
     id="path6" />
  <path
     d="m 494.3767,693.744 a 30.61482,30.61482 0 0 0 13.6713,-17.63191 c 0.2151,-0.73213 1.34,-0.35975 1.12512,0.37149 a 31.844,31.844 0 0 1 -14.26357,18.31865 c -0.657,0.38974 -1.18635,-0.67064 -0.53289,-1.05826 z"
     transform="translate(-141.43125,-149.39894)"
     fill="#ffffff"
     id="path8" />
  <path
     d="m 500.9563,629.09794 a 8.991,8.991 0 0 0 8.52045,-0.43252 c 0.65176,-0.39787 1.18041,0.663 0.53289,1.05826 a 10.07516,10.07516 0 0 1 -9.42483,0.49938 0.61234,0.61234 0 0 1 -0.37681,-0.7483 0.59542,0.59542 0 0 1 0.7483,-0.37682 z"
     transform="translate(-141.43125,-149.39894)"
     fill="#ffffff"
     id="path10" />
  <path
     d="m 592.676,656.34029 c -0.3999,0.26 -0.7998,0.52 -1.20019,0.79 a 118.40679,118.40679 0 0 0 -15.13965,11.81994 c -0.37012,0.33 -0.74023,0.67 -1.1001,1.01 a 124.82713,124.82713 0 0 0 -27.10986,37.11005 121.22249,121.22249 0 0 0 -6.64014,17.18 c -2.45019,8.13 -4.46,17.14 -9.31006,23.79 a 20.79775,20.79775 0 0 1 -1.62011,2 h -43.8301 c -0.0996,-0.05 -0.19971,-0.09 -0.29981,-0.14 l -1.75,0.08 c 0.0703,-0.31 0.14991,-0.63 0.22022,-0.94 0.04,-0.18 0.0898,-0.36 0.12988,-0.54 0.0298,-0.12 0.0601,-0.24 0.0801,-0.35 0.01,-0.04 0.02,-0.0799 0.0298,-0.11 0.02,-0.11 0.0503,-0.21 0.0703,-0.31 q 0.65991,-2.685 1.35986,-5.37 c 0,-0.01 0,-0.01 0.01,-0.02 3.59033,-13.63 8.35009,-27.08 15,-39.38 0.20019,-0.37 0.3999,-0.75 0.62011,-1.12 a 115.67433,115.67433 0 0 1 10.39014,-15.76 102.26018,102.26018 0 0 1 6.81006,-7.79 85.03667,85.03667 0 0 1 21.27978,-15.94 c 15.72022,-8.3 33.91993,-11.48 50.72022,-6.41 0.42969,0.13005 0.8501,0.25999 1.2798,0.40001 z"
     transform="translate(-141.43125,-149.39894)"
     fill="#f0f0f0"
     id="path12" />
  <path
     d="m 592.57745,656.89658 a 105.86972,105.86972 0 0 0 -56.88764,31.72816 45.591,45.591 0 0 0 -8.18056,11.71015 26.14849,26.14849 0 0 0 -2.10938,13.59926 c 0.40143,4.33626 1.31421,8.72531 0.65458,13.08365 a 16.01083,16.01083 0 0 1 -7.24487,10.9071 c -4.67615,3.12574 -10.19656,4.38485 -15.63785,5.42855 -6.04151,1.15883 -12.33511,2.26677 -17.37735,6.04049 -0.61094,0.45724 -1.2847,-0.51747 -0.67468,-0.974 8.77264,-6.56563 20.52866,-5.18785 30.12561,-9.82289 4.47811,-2.1628 8.33157,-5.68824 9.44091,-10.69928 0.97007,-4.38194 0.0327,-8.90876 -0.41174,-13.29581 a 27.90262,27.90262 0 0 1 1.56708,-13.374 42.14808,42.14808 0 0 1 7.70017,-11.98145 102.7127,102.7127 0 0 1 24.78221,-20.40579 107.74726,107.74726 0 0 1 34.16254,-13.12572 c 0.746,-0.14794 0.83214,1.03459 0.091,1.18156 z"
     transform="translate(-141.43125,-149.39894)"
     fill="#ffffff"
     id="path14" />
  <path
     d="m 540.26151,683.09162 a 15.88382,15.88382 0 0 1 0.364,-20.56468 c 0.50574,-0.57044 1.41593,0.18867 0.90951,0.75986 a 14.70807,14.70807 0 0 0 -0.29949,19.13014 c 0.48606,0.58739 -0.49073,1.25871 -0.974,0.67468 z"
     transform="translate(-141.43125,-149.39894)"
     fill="#ffffff"
     id="path16" />
  <path
     d="m 524.90675,711.76229 a 30.61478,30.61478 0 0 0 21.53141,-5.847 c 0.61254,-0.45506 1.28648,0.5195 0.67468,0.974 a 31.844,31.844 0 0 1 -22.41775,6.03876 c -0.75924,-0.0844 -0.54346,-1.24973 0.21166,-1.1658 z"
     transform="translate(-141.43125,-149.39894)"
     fill="#ffffff"
     id="path18" />
  <path
     d="m 569.08157,664.10744 a 8.991,8.991 0 0 0 7.06351,4.78455 c 0.75994,0.0747 0.54333,1.24 -0.21166,1.1658 a 10.07514,10.07514 0 0 1 -7.82586,-5.27567 0.61233,0.61233 0 0 1 0.14967,-0.82435 0.59541,0.59541 0 0 1 0.82434,0.14967 z"
     transform="translate(-141.43125,-149.39894)"
     fill="#ffffff"
     id="path20" />
  <path
     d="m 617.56875,156.02837 a 7.00787,7.00787 0 0 0 -7,7 v 296 a 7.0078,7.0078 0 0 0 7,6.99951 h 434.00005 a 7.00807,7.00807 0 0 0 7,-6.99951 v -296 a 7.00817,7.00817 0 0 0 -7,-7 z"
     transform="translate(-141.43125,-149.39894)"
     fill="#e6e6e6"
     id="path22" />
  <path
     d="m 627.56875,166.02837 a 7.00787,7.00787 0 0 0 -7,7 v 275.99951 a 7.00787,7.00787 0 0 0 7,7 h 414.00005 a 7.00816,7.00816 0 0 0 7,-7 V 173.02837 a 7.00817,7.00817 0 0 0 -7,-7 z"
     transform="translate(-141.43125,-149.39894)"
     fill="#ffffff"
     id="path24" />
  <path
     d="m 1009.555,226.38246 c -9.52,-3.717 -19.78565,5.605 -22.01612,15.57892 -2.23047,9.97382 0.624,20.28888 1.25244,30.48975 0.62844,10.20087 -2.04541,22.04626 -11.14648,26.69665 -10.46533,5.34747 -22.74121,-1.60461 -34.4458,-2.66351 A 34.66192,34.66192 0 0 0 912.6707,310.314 c -9.65283,13.243 -9.16211,32.47247 -20.585,44.223 -9.92481,10.20948 -26.09815,11.53876 -39.98242,8.38159 -13.88427,-3.15717 -26.64649,-10.01593 -40.29883,-14.05944 -13.65234,-4.04351 -29.45459,-4.88776 -41.1543,3.22772 -12.21338,8.47229 -17.64844,25.07916 -31.05664,31.49609 -9.48047,4.53729 -20.70264,2.80646 -30.84766,0.059 -10.1455,-2.74749 -20.37548,-6.454 -30.84912,-5.57226 -10.47314,0.88171 -21.39209,8.10833 -22.22217,18.58606 l 359.46144,-1.00367 q 2.4492,-71.169 4.8989,-142.33782 c 0.3545,-10.30693 -0.873,-23.18102 -10.4799,-26.93181 z"
     transform="translate(-141.43125,-149.39894)"
     fill="#2e5fb6"
     opacity="0.1"
     id="path26" />
  <path
     d="m 471.58267,480.96576 a 12.06693,12.06693 0 0 1 9.04777,-16.14017 l 6.31456,-42.41427 16.59354,14.87325 -8.54039,37.99708 a 12.13231,12.13231 0 0 1 -23.41548,5.68411 z"
     transform="translate(-141.43125,-149.39894)"
     fill="#ffb6b6"
     id="path28" />
  <path
     d="m 355.78984,487.40428 a 12.06692,12.06692 0 0 0 -3.97512,-18.07112 l 6.26439,-42.42171 -20.19536,9.41842 -2.8526,38.84043 a 12.1323,12.1323 0 0 0 20.75869,12.234 z"
     transform="translate(-141.43125,-149.39894)"
     fill="#ffb6b6"
     id="path30" />
  <polygon
     points="330.778,509.641 303.124,509.643 303.127,581.915 321.864,581.914 "
     fill="#ffb6b6"
     id="polygon32" />
  <path
     d="m 439.77878,725.19639 36.90069,-10e-4 h 0.001 a 23.51727,23.51727 0 0 1 23.516,23.51563 v 0.76418 l -60.41707,0.002 z"
     transform="translate(-141.43125,-149.39894)"
     fill="#2f2e41"
     id="path34" />
  <polygon
     points="230.778,509.641 203.124,509.643 203.127,581.915 221.864,581.914 "
     fill="#ffb6b6"
     id="polygon36" />
  <path
     d="m 339.77878,725.19639 36.90069,-10e-4 h 0.001 a 23.51727,23.51727 0 0 1 23.516,23.51563 v 0.76418 l -60.41707,0.002 z"
     transform="translate(-141.43125,-149.39894)"
     fill="#2f2e41"
     id="path38" />
  <circle
     cx="291.30606"
     cy="54.736408"
     r="33.847832"
     fill="#ffb6b6"
     id="circle40" />
  <path
     d="m 352.61374,448.15868 c 0,0 0.49814,151.46389 -1.9196,153.88162 -2.41774,2.41773 -11,93 -11,93 h 30 c 2,0 53.033,-197.31878 53.033,-197.31878 0,0 21.75928,106.37893 18.13269,112.42312 -3.62659,6.04419 -0.79956,85.27936 1.20886,91.87275 0,0 25.20778,8.06716 27.62545,2.02291 2.41767,-6.04425 6,-88 6,-88 l 7,-136 0.153,-35.50827 z"
     transform="translate(-141.43125,-149.39894)"
     fill="#2f2e41"
     id="path42" />
  <path
     d="m 491.63162,274.08413 h 13.4682 a 4.35759,4.35759 0 0 1 4.25323,3.39969 c 2.07831,9.20279 7.4339,35.28949 6.45563,55.834 -1.20886,25.38586 -3.62655,65.278 -3.62655,68.90457 0,3.62657 -12.08851,59.23374 -12.08851,59.23374 0,0 -8.31069,-13.65912 -17.45272,-11.06052 l 1.73764,-49.382 2.41775,-20.55047 -3.62655,-36.26554 z"
     transform="translate(-141.43125,-149.39894)"
     fill="#e4e4e4"
     id="path44" />
  <path
     d="m 405.80322,251.95135 c 0,0 -42.91425,14.27526 -47.7496,26.36376 -4.83535,12.0885 18.64052,99.72519 18.64052,99.72519 0,0 -9,40 -21.05831,77.976 -5.48759,17.28241 46.88124,2.486 71.05831,-5.976 14.98123,-5.19571 42.69068,2.78318 58.28883,-0.0683 0,0 2.41769,-32.639 0,-38.68323 -2.41769,-6.04423 -8.462,-2.41773 -4.83542,-10.87967 3.62658,-8.46194 2.41772,-9.67081 1.20886,-13.29736 -1.20886,-3.62655 2.41776,-8.462 2.41776,-13.29737 0,-4.83537 -1.20883,-15.71505 -1.20883,-15.71505 0,0 32.639,-76.1576 25.38586,-83.41074 -7.25314,-7.25314 -44.17328,-21.22859 -44.17328,-21.22859 0,0 0.91622,0.5803 -57.9747,-1.50865 z"
     transform="translate(-141.43125,-149.39894)"
     fill="#e4e4e4"
     id="path46" />
  <path
     d="m 365.9111,274.08413 -4.29324,2.1466 a 12.10779,12.10779 0 0 0 -6.4856,8.59812 l -17.02478,90.79876 -3.62654,85.8285 c 0,0 20.55046,-6.04425 26.59474,0 0,0 -6.04428,-18.13279 -2.41772,-24.17707 3.62656,-6.04428 3.62655,-14.50619 3.62655,-14.50619 0,0 -2.41775,0 3.62653,-6.04425 6.04428,-6.04425 7.25308,-8.462 6.04428,-9.67078 -1.2088,-1.20878 -2.41769,-12.0885 -2.41769,-13.29736 0,-1.20886 12.0885,-82.20188 12.0885,-82.20188 z"
     transform="translate(-141.43125,-149.39894)"
     fill="#e4e4e4"
     id="path48" />
  <path
     d="m 653.95547,395.48812 a 2,2 0 1 1 0,-4 c 92.415,0 180.54981,-18.50391 248.16992,-52.10352 63.40723,-31.50683 103.81351,-74.23144 110.85641,-117.21972 a 1.9999373,1.9999373 0 1 1 3.9482,0.64087 l -9e-4,0.006 c -3.6582,22.33057 -15.5342,44.23535 -35.29589,65.10645 -19.49024,20.58447 -45.64161,39.106 -77.72754,55.04882 -68.16211,33.86918 -156.92967,52.52149 -249.9502,52.52149 z"
     transform="translate(-141.43125,-149.39894)"
     fill="#2e5fb6"
     id="path50" />
  <polygon
     points="512.138,244.493 892.138,244.493 892.138,246.493 510.138,246.493 510.138,57.765 512.138,57.765 "
     fill="#e6e6e6"
     id="polygon52" />
  <path
     d="m 400.83466,215.5379 a 18.59676,18.59676 0 0 1 -0.70771,-11.95256 c 2.76466,7.33328 8.25784,5.09485 11.05685,1.65577 3.51036,-4.31268 2.49956,-14.27243 8.04187,-14.71808 5.5423,-0.44571 11.08442,0.60318 16.54576,1.64729 q -1.35747,-2.32407 -2.71447,-4.64824 5.92558,0.36783 11.85164,0.73554 -1.764,-2.90306 -3.529,-5.80594 a 40.51966,40.51966 0 0 1 23.99664,22.70868 25.98693,25.98693 0 0 0 -13.65229,-38.23063 q 2.3377,-3.067 4.67491,-6.13388 l -31.72106,-3.13017 a 9.41965,9.41965 0 0 1 3.69143,-7.97332 c -4.15394,-0.938 -8.55971,0.46909 -12.0894,2.85106 -3.52968,2.382 -6.33677,5.66675 -9.097,8.9092 -4.17936,4.90952 -8.40911,9.89594 -11.14482,15.734 a 37.06206,37.06206 0 0 0 4.79665,38.35128 z m 0.38337,-14.895 5.8e-4,-0.002 0.0318,-0.006 z"
     transform="translate(-141.43125,-149.39894)"
     fill="#2f2e41"
     id="path54" />
</svg>
