<?xml version="1.0" encoding="UTF-8" standalone="no"?>
<svg
   xmlns:dc="http://purl.org/dc/elements/1.1/"
   xmlns:cc="http://creativecommons.org/ns#"
   xmlns:rdf="http://www.w3.org/1999/02/22-rdf-syntax-ns#"
   xmlns:svg="http://www.w3.org/2000/svg"
   xmlns="http://www.w3.org/2000/svg"
   xmlns:sodipodi="http://sodipodi.sourceforge.net/DTD/sodipodi-0.dtd"
   xmlns:inkscape="http://www.inkscape.org/namespaces/inkscape"
   version="1.1"
   id="layer"
   x="0px"
   y="0px"
   viewBox="-153 -46 600 258.29999"
   xml:space="preserve"
   sodipodi:docname="assurance-maladie.svg"
   width="600"
   height="258.29999"
   inkscape:version="1.0.1 (3bc2e813f5, 2020-09-07)"><metadata
   id="metadata238"><rdf:RDF><cc:Work
       rdf:about=""><dc:format>image/svg+xml</dc:format><dc:type
         rdf:resource="http://purl.org/dc/dcmitype/StillImage" /><dc:title></dc:title></cc:Work></rdf:RDF></metadata><defs
   id="defs236" /><sodipodi:namedview
   pagecolor="#ffffff"
   bordercolor="#666666"
   borderopacity="1"
   objecttolerance="10"
   gridtolerance="10"
   guidetolerance="10"
   inkscape:pageopacity="0"
   inkscape:pageshadow="2"
   inkscape:window-width="1272"
   inkscape:window-height="1381"
   id="namedview234"
   showgrid="false"
   fit-margin-top="2.7755576e-17"
   fit-margin-bottom="2.7755576e-17"
   fit-margin-right="2.7755576e-17"
   fit-margin-left="0"
   inkscape:zoom="1.202454"
   inkscape:cx="301.69617"
   inkscape:cy="301.85402"
   inkscape:window-x="0"
   inkscape:window-y="28"
   inkscape:window-maximized="0"
   inkscape:current-layer="layer" />
<style
   type="text/css"
   id="style143">
	.st0{fill:#90C11E;}
	.st1{fill:#0064AA;}
	.st2{fill-rule:evenodd;clip-rule:evenodd;fill:#0064AA;}
</style>
<g
   id="g231"
   transform="translate(-21.8,-192)">
	<rect
   x="-78.599998"
   y="318.70001"
   class="st0"
   width="107.9"
   height="1.4"
   id="rect145" />
	<rect
   x="-76.400002"
   y="288.29999"
   class="st0"
   width="119"
   height="1.3"
   id="rect147" />
	<rect
   x="-78.599998"
   y="257.79999"
   class="st0"
   width="122.8"
   height="1.4"
   id="rect149" />
	<rect
   x="-78.599998"
   y="227.3"
   class="st0"
   width="122.8"
   height="1.4"
   id="rect151" />
	<rect
   x="-78.599998"
   y="196.89999"
   class="st0"
   width="122.8"
   height="1.3"
   id="rect153" />
	<path
   class="st1"
   d="m -117.7,260.4 c 0.5,-0.8 0.9,-2 1,-3.2 0,-1.8 -0.9,-2.9 -2.3,-3 -1.3,0 -2,0.7 -2.8,2.6 -0.9,2.3 -2.1,3.7 -4,3.6 -2.2,0 -3.7,-1.9 -3.7,-4.6 0,-1.4 0.4,-2.5 0.7,-3.1 l 1.5,0.5 c -0.3,0.4 -0.7,1.4 -0.7,2.6 0,1.9 1.1,2.6 2,2.6 1.3,0 1.9,-0.8 2.7,-2.7 1,-2.3 2.1,-3.5 4.1,-3.4 2.1,0 4,1.6 3.9,4.9 0,1.3 -0.5,2.8 -1,3.5 l -1.4,-0.3"
   id="path155" />
	<path
   class="st1"
   d="m -130.9,238.9 2,3 -0.2,1.5 -2.1,-2.3 z m 10.5,1.1 -0.7,5.3 5,0.7 0.8,-6 1.5,0.2 -1.1,7.8 -13.7,-2 1,-7.4 1.5,0.2 -0.8,5.7 4.3,0.6 0.7,-5.3 z"
   id="path157" />
	<path
   class="st1"
   d="m -110.8,226.7 c 0.2,0.7 0.1,2.1 -0.4,3.7 -1,3.8 -4.2,5.9 -8.6,4.7 -4.2,-1.2 -6.2,-4.8 -5.1,-9 0.5,-1.7 1.1,-2.6 1.5,-3 l 1.3,0.8 c -0.5,0.6 -1,1.4 -1.3,2.5 -0.9,3.2 0.5,5.8 4.1,6.8 3.3,0.9 5.9,-0.4 6.8,-3.6 0.3,-1.1 0.4,-2.2 0.2,-3 l 1.5,0.1"
   id="path159" />
	<path
   class="st1"
   d="m -121.1,216 7.5,3.3 c 2.8,1.3 4.6,0.5 5.3,-1.2 0.8,-1.9 0.1,-3.6 -2.7,-4.9 l -7.5,-3.3 0.7,-1.7 7.4,3.3 c 3.9,1.7 4.6,4.5 3.3,7.2 -1.1,2.6 -3.5,3.9 -7.4,2.2 l -7.5,-3.3 0.9,-1.6"
   id="path161" />
	<path
   class="st1"
   d="m -114.1,202.2 c 0.3,-0.9 0.9,-2.1 1.6,-3.1 1,-1.6 2,-2.5 3.1,-2.8 0.9,-0.3 1.9,-0.1 2.8,0.5 1.5,1 1.9,2.6 1.6,4.1 h 0.1 c 0.9,-0.7 2.1,-0.7 3.5,-0.2 1.9,0.6 3.2,1.1 3.8,1.1 l -1,1.6 c -0.4,0 -1.6,-0.4 -3.3,-1 -1.9,-0.7 -2.9,-0.4 -3.8,0.9 l -0.9,1.4 5.1,3.2 -1,1.5 -11.6,-7.2 m 6.3,1.8 1,-1.6 c 1,-1.6 0.8,-3.2 -0.6,-4.1 -1.5,-1 -2.9,-0.3 -3.9,1.3 -0.5,0.7 -0.7,1.3 -0.8,1.6 z"
   id="path163" />
	<polygon
   class="st1"
   points="-105.7,189.4 -104.6,188 -93.7,196.6 -94.9,198.1 "
   id="polygon165" />
	<polygon
   class="st1"
   points="-94.7,177 -93.6,178 -96.5,181.1 -87.6,189.7 -88.8,191 -97.7,182.4 -100.7,185.5 -101.8,184.4 "
   id="polygon167" />
	<path
   class="st1"
   d="m -81,175 -4.1,3.4 3.2,3.9 4.6,-3.8 1,1.2 -6,5 -8.8,-10.7 5.8,-4.8 1,1.2 -4.4,3.6 2.8,3.4 4.2,-3.4 z m -7,-7.9 -0.5,3.6 -1.1,0.9 -0.1,-3.1 z"
   id="path169" />
	<path
   class="st1"
   d="m -68.1,171.5 c 0.9,0.1 2.1,-0.1 3.2,-0.7 1.6,-0.9 2.1,-2.2 1.4,-3.5 -0.6,-1.1 -1.6,-1.4 -3.6,-1.2 -2.4,0.3 -4.2,0 -5.1,-1.7 -1,-1.9 -0.2,-4.2 2.2,-5.5 1.2,-0.7 2.3,-0.9 3,-0.9 l 0.2,1.5 c -0.5,0 -1.5,0.1 -2.6,0.7 -1.7,0.9 -1.8,2.3 -1.3,3.1 0.6,1.1 1.7,1.3 3.7,1 2.5,-0.3 4.1,0.1 5,1.9 1,1.9 0.5,4.3 -2.3,5.9 -1.2,0.6 -2.7,1 -3.6,0.9 l -0.2,-1.5"
   id="path171" />
	<path
   class="st1"
   d="m -51.9,166.4 c -3.4,1.3 -6.8,-0.4 -8.3,-4.4 -1.6,-4.1 0,-7.8 3.4,-9.1 3.6,-1.3 6.9,0.5 8.3,4.4 1.7,4.5 -0.1,7.9 -3.4,9.1 v 0 m -0.5,-1.4 c 2.7,-1 3.2,-4 2.1,-7 -1,-2.6 -3.3,-4.8 -6.1,-3.7 -2.8,1 -3.2,4.2 -2.1,7 1,2.8 3.5,4.8 6.1,3.7 z"
   id="path173" />
	<path
   class="st1"
   d="m -33.3,160.6 c -0.5,0.5 -1.8,1.1 -3.4,1.4 -3.8,0.9 -7.2,-0.9 -8.2,-5.4 -0.9,-4.3 1.3,-7.8 5.5,-8.7 1.7,-0.4 2.8,-0.2 3.4,-0.1 l -0.1,1.5 c -0.7,-0.2 -1.7,-0.2 -2.8,0 -3.2,0.7 -4.8,3.2 -4,6.8 0.7,3.3 3.1,5 6.4,4.3 1.1,-0.2 2.1,-0.7 2.7,-1.2 l 0.5,1.4"
   id="path175" />
	<polygon
   class="st1"
   points="-30.7,146.7 -28.9,146.5 -27.3,160.4 -29.1,160.6 "
   id="polygon177" />
	<path
   class="st1"
   d="m -20.1,155.5 -1.4,4.4 h -1.9 l 4.7,-13.9 h 2.1 l 4.8,13.9 h -1.9 l -1.5,-4.4 h -4.9 m 4.5,-1.4 -1.4,-4 c -0.3,-0.9 -0.5,-1.7 -0.7,-2.5 h -0.1 c -0.2,0.8 -0.4,1.7 -0.7,2.5 l -1.3,4 z"
   id="path179" />
	<polygon
   class="st1"
   points="-0.3,159.7 -0.5,161.2 -8.2,160.2 -6.5,146.4 -4.7,146.6 -6.2,158.9 "
   id="polygon181" />
	<polygon
   class="st1"
   points="10.8,162.2 10.4,163.7 2.8,161.8 6.1,148.3 13.4,150.1 13.1,151.6 7.5,150.2 6.5,154.5 11.7,155.8 11.3,157.2 6.1,155.9 4.9,160.8 "
   id="polygon183" />
	<path
   class="st1"
   d="m 178.9,387.4 v -56.8 h -11.3 v 19.2 c -0.7,-0.6 -3,-1.7 -6.2,-1.7 -12.8,0 -17.4,8.3 -17.4,20.2 v 15.9 c 0,11.9 4.6,20.1 17.4,20.1 9.7,0 17.5,-4.6 17.5,-16.9 m -11.3,-1.2 c 0,5.4 -1.6,8.3 -6.2,8.3 -4,0 -6.2,-2.6 -6.2,-8.9 v -19 c 0,-6.2 2.2,-8.9 6.2,-8.9 4,0 6.2,2.6 6.2,8.9 z"
   id="path185" />
	<polygon
   class="st1"
   points="12,346.5 11.8,346.5 0.6,403.3 -5.5,403.3 -16.7,346.5 -16.9,346.5 -16.9,403.3 -28.1,403.3 -28.1,330.6 -11.4,330.6 -2.5,373.1 -2.4,373.1 6.5,330.6 23.2,330.6 23.2,403.3 12,403.3 "
   id="polygon187" />
	<rect
   x="189.3"
   y="349.10001"
   class="st1"
   width="11.2"
   height="54.099998"
   id="rect189" />
	<path
   class="st1"
   d="m 201.5,336.3 c 0,3.6 -2.9,6.6 -6.6,6.6 -3.6,0 -6.5,-2.9 -6.5,-6.6 0,-3.6 2.9,-6.6 6.5,-6.6 3.7,0 6.6,3 6.6,6.6"
   id="path191" />
	<path
   class="st1"
   d="m 134.5,397.5 v -34.7 c 0,-9.8 -5.9,-14.7 -16.3,-14.7 -10.5,0 -17.4,5.9 -18,16.9 h 11.2 c 0.2,-4.6 1.3,-7.6 6.4,-7.6 3.7,0 5.5,2.4 5.5,6.9 v 4.2 c -16.7,2.3 -24.5,10.8 -24.5,21.3 0,7.4 4.2,14.4 12.7,14.4 5.9,0 7.8,-1.5 12.3,-5 0.1,1 0.3,2.2 0.6,4 h 10.7 c -0.2,-1.8 -0.6,-3.9 -0.6,-5.7 m -11.2,-7.9 c -2.3,2.3 -4.4,5.1 -7.9,5.1 -3.2,0 -5.4,-2.3 -5.4,-6.4 0,-7.6 5.9,-9.4 13.4,-11.1 v 12.4 z"
   id="path193" />
	<path
   class="st1"
   d="m 66.7,397.5 v -34.7 c 0,-9.8 -5.9,-14.7 -16.3,-14.7 -10.5,0 -17.4,5.9 -18,16.9 h 11.2 c 0.2,-4.6 1.3,-7.6 6.4,-7.6 3.7,0 5.5,2.4 5.5,6.9 v 4.2 C 38.8,370.8 31,379.3 31,389.9 c 0,7.4 4.2,14.4 12.7,14.4 5.9,0 7.8,-1.5 12.3,-5 0.1,1 0.3,2.2 0.6,4 h 10.7 c -0.2,-1.9 -0.6,-4 -0.6,-5.8 m -11.3,-7.9 c -2.4,2.3 -4.4,5.1 -7.9,5.1 -3.2,0 -5.4,-2.3 -5.4,-6.4 0,-7.6 5.9,-9.4 13.4,-11.1 v 12.4 z"
   id="path195" />
	<path
   class="st1"
   d="m 93.1,394.7 c -5.7,0 -6.1,-3.2 -6.1,-7.1 V 330.7 H 75.7 v 56.5 c 0,9.1 4,16.8 17.4,16.8 h 1.1 v -9.3 h -1.1"
   id="path197" />
	<path
   class="st1"
   d="m 244.8,378.3 v -10 c 0,-11.9 -4.6,-20.2 -17.4,-20.2 -12.8,0 -17.4,8.3 -17.4,20.2 v 15.9 c 0,11.9 4.6,20.1 17.4,20.1 11.6,0 16.5,-6.7 17.3,-16.9 0,0 0.1,-1 0,-1.4 h -11.1 v 1.4 c -0.3,5.4 -2.4,7.7 -6.2,7.7 -4,0 -6.2,-2.6 -6.2,-8.9 v -7.9 h 23.6 m -23.6,-12.1 c 0,-6.2 2.2,-8.8 6.2,-8.8 4,0 6.2,2.6 6.2,8.8 v 2.8 h -12.4 z"
   id="path199" />
	<path
   class="st1"
   d="m 121.7,320.1 h -12 L 123,247.5 h 15.4 l 13.3,72.6 h -12 l -2.3,-16.6 H 124 Z m 3.9,-26.2 H 136 l -5.1,-32 h -0.2 z"
   id="path201" />
	<path
   class="st1"
   d="M 277.6,320.1 V 266 h 10.7 v 4.6 h 0.2 c 2.7,-4.6 9.1,-5.6 12.7,-5.6 h 2.3 v 11.8 c -2,-0.5 -3.9,-1.1 -7.2,-1.1 -3.8,0 -7.5,2.4 -7.5,7.3 v 37.2 h -11.2"
   id="path203" />
	<path
   class="st2"
   d="m 267.7,266 v 35 c 0,11.9 -4.6,20.1 -17.5,20.1 -12.8,0 -17.4,-8.3 -17.4,-20.1 V 266 H 244 v 37 c 0,6.2 2.2,8.9 6.2,8.9 4,0 6.2,-2.6 6.2,-8.9 v -37 h 11.3"
   id="path205" />
	<path
   class="st1"
   d="m 349.8,320.1 v -35 c 0,-11.5 4.6,-20.1 17.4,-20.1 12.9,0 17.5,8.6 17.5,20.1 v 35 h -11.2 v -37 c 0,-5.8 -2.3,-8.5 -6.2,-8.5 -3.9,0 -6.2,2.7 -6.2,8.5 v 37 h -11.3"
   id="path207" />
	<path
   class="st1"
   d="m 340.9,314.4 v -34.7 c 0,-9.9 -5.9,-14.7 -16.3,-14.7 -10.5,0 -17.4,5.9 -18,16.9 h 11.3 c 0.2,-4.6 1.3,-7.7 6.4,-7.7 3.7,0 5.5,2.4 5.5,6.9 v 4.2 c -16.7,2.3 -24.5,10.8 -24.5,21.3 0,7.4 4.2,14.4 12.7,14.4 5.9,0 7.8,-1.5 12.3,-5 0.1,1 0.3,2.2 0.7,4 h 10.7 c -0.4,-1.7 -0.8,-3.9 -0.8,-5.6 m -11.2,-7.9 c -2.4,2.3 -4.4,5.1 -7.9,5.1 -3.2,0 -5.4,-2.3 -5.4,-6.4 0,-7.6 5.9,-9.4 13.4,-11.1 v 12.4 z"
   id="path209" />
	<path
   class="st1"
   d="m 93.1,311.6 c -5.7,0 -6.1,-3.2 -6.1,-7.1 v -57 H 75.7 V 304 c 0,9.1 4,16.8 17.4,16.8 h 1.1 v -9.3 h -1.1"
   id="path211" />
	<path
   class="st1"
   d="m 166.6,278.6 c 0,-2.8 2.1,-4.3 5.1,-4.3 3.8,0 5.4,2.1 6,6.8 l 10,-0.9 c -1,-7 -4.5,-15.1 -16.6,-15.1 -8.8,0 -15.7,6 -15.7,14.5 0,14.8 22,18.3 22,27.7 0,3 -2.2,4.7 -5.3,4.7 -5.3,0 -7,-4 -7.7,-8.5 l -10.4,1.7 c 1.2,10.3 7.8,16.1 18,16.1 9.6,0 16.5,-4.9 16.5,-14.6 0.1,-16.3 -21.9,-19.7 -21.9,-28.1"
   id="path213" />
	<path
   class="st1"
   d="m 204.7,278.6 c 0,-2.8 2.1,-4.3 5.1,-4.3 3.8,0 5.3,2.1 6,6.8 l 10,-0.9 c -1,-7 -4.5,-15.1 -16.5,-15.1 -8.8,0 -15.7,6 -15.7,14.5 0,14.8 22,18.3 22,27.7 0,3 -2.2,4.7 -5.2,4.7 -5.3,0 -7,-4 -7.7,-8.5 l -10.4,1.7 c 1.2,10.3 7.8,16.1 18,16.1 9.5,0 16.4,-4.9 16.4,-14.6 0,-16.3 -22,-19.7 -22,-28.1"
   id="path215" />
	<path
   class="st1"
   d="M 468.8,295.1 V 285 c 0,-11.9 -4.6,-20.1 -17.5,-20.1 -12.8,0 -17.4,8.3 -17.4,20.1 v 16 c 0,11.9 4.6,20.1 17.4,20.1 11.6,0 16.5,-6.7 17.3,-16.9 0,0 0.1,-1 0,-1.4 h -11.1 v 1.4 c -0.3,5.4 -2.5,7.6 -6.2,7.6 -4,0 -6.2,-2.6 -6.2,-8.8 v -7.9 h 23.7 m -23.6,-12 c 0,-6.2 2.2,-8.9 6.2,-8.9 4,0 6.2,2.6 6.2,8.9 v 2.8 h -12.4 z"
   id="path217" />
	<path
   class="st1"
   d="m 98.4,247.5 v 10.3 h 3.3 c -1,2.6 -3.2,8.2 -3.2,8.2 h 5.5 l 4.8,-8.2 V 247.5 H 98.4"
   id="path219" />
	<path
   class="st1"
   d="m 416.3,302.2 v 2 c -0.3,5.4 -2.4,7.6 -6.2,7.6 -4,0 -6.2,-2.6 -6.2,-8.9 V 283 c 0,-6.2 2.2,-8.8 6.2,-8.8 4,0 6.2,2.6 6.2,8.8 v 2 h 11.2 c 0,-11.9 -4.6,-20.1 -17.4,-20.1 -12.8,0 -17.4,8.3 -17.4,20.1 v 16 c 0,11.9 4.6,20.1 17.4,20.1 13.7,0 17.4,-9.7 17.4,-18.9 h -11.2"
   id="path221" />
	<path
   class="st2"
   d="m -71.8,233.2 c 1.7,3.7 0.4,9 -2,11.7 4.2,5.3 14.6,3.1 20.2,1.6 1.5,-0.3 2.7,-3.1 4.2,-2 0.4,0.3 2.9,-2.3 2.6,0.2 0,1.5 -0.7,3.1 -2.2,3.7 -1.2,0.4 -4.5,1.4 -4.5,1.4 -6,1.9 -9.2,2.7 -15.2,5.6 -2.8,1.5 -2,6.8 -1.7,8.7 0.4,1.9 2.2,8.9 0.6,12.3 -1.3,2.8 -6,5.5 -6,9 0,1.5 2.5,3.3 1.1,4.6 -0.9,0.8 -1.6,0.9 -2.2,0.4 0,0 -4.5,-4.6 -3.9,-6.2 0,-0.6 5.1,-7.9 2.9,-11.2 -1.2,1.1 -1.3,4.2 -3.8,5.4 -1.2,0.5 -2.8,-0.8 -3.8,-0.2 -0.4,0.2 -0.3,1.8 -0.7,2.2 -0.4,0.4 -2,0.3 -2.3,-0.4 -1,-1.9 -0.6,-5.2 -0.2,-6.7 0.5,-2.4 5.5,0.2 3.9,-3.2 -0.6,-1.2 -1.3,-2.8 -1.3,-5.5 0,-2 1.7,-4.3 0.1,-5.3 -1.8,-0.9 -6.1,-2.8 -6.2,-5.1 -0.5,-5.4 9.5,-5.4 11.8,-10.3 0,-2.4 -2.9,-4.3 -2.4,-8 0.3,-1.9 1.8,-4 4.1,-4.4 2.6,-0.5 4.5,-0.1 6.9,1.7"
   id="path223" />
	<path
   class="st2"
   d="m 68.6,222.2 c -6.1,-3.9 -11.4,-10.9 -18.3,-9.8 -3.6,-0.3 -0.7,-4.2 -1.7,-5.7 -1.7,-3 -1.9,-4.1 -8.3,-3.4 -1.8,0.2 -3.2,0.8 -3.9,2.4 -0.6,1.7 -0.1,1.3 -0.5,3 -0.5,1.6 -2.4,2.4 -0.6,3.6 0.2,0.5 0.2,1.4 0,3.1 -0.1,1.2 1.4,1.1 2,1.5 -7.3,5.4 -20.6,4.4 -27,0.2 -1.2,-0.8 -5.4,-0.6 -5.4,-0.1 0,1.1 2.7,1.3 3.7,2.5 -0.5,0.2 -1.3,0 -0.9,0.6 0.3,0.7 5.3,1.6 5.3,1.6 3.8,2.6 9.7,3.8 14.3,4.7 9.4,1.4 12,0.9 13.3,6.9 1.2,6.1 -0.2,11.7 -1.6,20.1 -1.1,7.4 0.4,12.1 1.6,19.4 0.2,1.4 0.9,3.6 0.3,4.2 -1.3,1.2 -4.7,2.2 -6.2,3.4 -0.6,2.1 5.3,0.8 9.3,1 1.9,0.2 2.3,-1.9 2.3,-3.1 0.4,-11.4 0.7,-14.9 2.5,-22.1 1,6.2 1.2,16.5 2.5,22.7 -1.5,1.9 -5.7,3.5 -4.7,4.5 1.2,1.2 3.3,0.9 4.3,0.7 2.5,-0.6 4,-1.4 5.8,-3.1 0,0 3.8,-25 3.1,-37.3 -0.4,-6.9 6.4,-10.9 9.8,-17 0.9,-1.9 0.8,-3.3 -1,-4.5 m -8.9,12.3 c 0.4,-2.6 -1.2,-8.6 -0.4,-11 l 4.5,2.4 c -0.9,1.6 -2.8,5.1 -4.1,8.6"
   id="path225" />
	<path
   class="st2"
   d="m -13.8,200.2 c 2.7,0.5 8.9,2.3 9.6,2.4 0.7,0.2 2.6,1.9 3.1,2 0.3,0.1 0.4,0.1 0.6,-0.4 0.3,-0.5 1.3,0.3 2.4,-0.1 0.7,-0.2 1.4,-2.1 1.2,-2.3 C 2.4,201 -1.2,200 -3,200 c -2,-0.7 -6.8,-2.6 -10.3,-3.8 -8.1,-2.6 -16.5,-6.5 -24.2,-1.8 -3.2,-1.3 -3.3,-5.6 -8.9,-5.1 -2.7,0.2 -4.6,2.3 -5.2,4.1 -0.7,1.9 -0.9,4.2 0.3,6.4 0.7,1.3 1.9,1.9 3.2,2.3 0.6,0.2 1.3,0.3 2,0.6 0.9,0.3 1.1,1.1 2.1,0.9 0.8,-0.1 1.4,-0.2 2.2,-0.2 0.7,0 2.6,0.3 2.9,-0.7 0,0 0,0 0.1,0 0.1,1.9 -0.3,4.6 -1.2,5 -1.3,0.3 -1.9,-0.5 -5,-1.4 -3.1,-0.9 -10.4,-1.8 -10.5,3.8 -0.2,9 0.8,11.9 -5.3,19.5 -1.1,1.3 -2.9,1.4 -1.8,2.8 0.9,0.9 2.2,0.2 2.8,-0.3 1.6,4 6.9,-1.9 8.1,-2.9 2.4,-1.9 -0.3,-3.5 0.8,-5.4 2,-3.8 5,-5.4 5.6,-8.2 3.1,2.4 6.9,4.3 10.8,4 1.6,-0.3 3.1,-0.9 4.8,-2.7 1.8,-1.8 2.3,-7.7 2.5,-11.7 0.4,-8.1 6,-6.3 13.4,-5"
   id="path227" />
	<path
   class="st1"
   d="m 39.9,317.3 c -3.2,-0.8 -6.8,-3.1 -8.6,-5.9 -1.3,-2 -2.2,-4.2 -3.2,-6.5 -3.5,-7.7 -5.5,-16.1 -7.8,-18.9 -4,-5 -11.8,-11.9 -17,-15.3 -1.6,-1 -3,-1.7 -4.3,-2.3 1.3,-6.2 1,-12.8 1,-12.8 0,-1.3 0,-1.3 0.5,-1.8 1.4,-1.1 2.2,-2.4 1.8,-4.4 0,-0.3 -1.2,-2.7 -1.5,-3.3 1.9,0.8 10.2,2.7 12.6,2.6 4.1,-0.3 13.9,-7.1 15.4,-8.2 1.1,-0.6 1.7,-0.8 2.3,-0.9 0.6,-0.2 2,-1.1 2.3,-2 0.1,-0.4 -0.3,-3.2 -1.3,-3.4 -0.4,-0.1 -1.5,0.6 -1.9,0.5 -0.2,-0.1 -0.5,-0.5 -0.7,-0.5 -0.6,0 -1.1,0.9 -1.4,1.3 -0.3,0.6 -0.5,1.6 -0.8,2 -0.7,0.9 -10.2,3.6 -13.4,5.1 -0.5,0.3 -1.1,0.5 -1.7,0.3 -2.5,-0.8 -12.6,-6.6 -16.6,-5.7 -1.2,0.3 -3.2,1 -4.1,0.1 -0.5,-0.5 -0.7,-1.3 -0.3,-2.1 0.4,-0.9 2.5,-1 2.9,-2 0.5,-1.1 -0.3,-3.4 -0.3,-3.5 0,-0.4 0.5,-0.7 0.5,-1 -0.1,-0.4 -0.6,-0.9 -1.1,-1.7 -0.6,-0.8 -0.8,-3 -1.3,-3.9 0.1,-0.3 0.5,-2.2 -1.8,-3.5 -2.2,-1.3 -5.9,-1.6 -8,0.2 -1.2,1 -2.7,0.6 -4,1.3 -2.4,1.2 -0.8,3.7 -4.7,7.3 -1.7,1.5 -0.7,4.5 -0.3,5.2 -1.7,3.1 1.3,6.8 3.9,6.1 0.9,0.8 1.4,1.2 2.4,1.2 0,0.1 0.1,0.2 0.1,0.3 -0.6,0.2 -1.9,0.9 -2.4,1.1 -1.5,0.8 -2.4,1.7 -3.8,3.1 -4.4,4.3 -11,11 -26.6,18.9 -1.8,1.1 -6.9,0.6 -6.9,1.8 0.3,0.5 1.4,1.1 1.4,1.1 0,0.6 -1.9,0.9 -2.9,1.1 -0.9,0.5 0.8,1.2 1.5,1.8 3.5,0.6 5.3,-0.1 8.2,-2.6 11.9,-4.6 20.7,-9.2 30.4,-15.5 2,-1.3 3.2,0.1 4.8,6.3 0.7,2.4 -2.5,4.3 -3.7,7.7 -1.4,3.8 -1.2,6.6 -0.2,8.8 -1.1,2.4 -4.5,5.7 -4.5,5.7 0,0 -8.1,6.7 -12.2,10.8 -3.6,3.5 -7.8,2.7 -11.1,4.3 -3.3,1.6 -6.4,4.2 -9.2,6.6 -2.1,1.7 -4.2,3.3 -6.9,4.4 -1.1,0.4 -1.6,0.6 -2.7,0.7 -1.4,0.2 -2.3,1.5 -2.2,2.7 0.1,1.1 1.1,3.6 2.2,5.8 0.6,1.2 1.9,3.9 3.6,4.3 1.2,0.2 3.6,0.7 4.1,-0.3 0.7,-1.4 -2.4,-1.8 -2.6,-3.6 -0.1,-1.2 -0.3,-3.1 0.1,-4.2 0.7,-1.9 3.4,-3.3 5.1,-4.2 5.1,-2.8 20.3,-6.4 24.8,-7.8 6.5,-2.9 11.7,-5.2 16,-8 3.8,-2.3 6.8,-5.9 9.2,-8.9 5.6,2.8 13.9,6.3 19.4,8.4 3.2,1.3 1.5,3.3 3.3,8 1.3,3.3 3.6,5.8 11.2,14.8 1.1,1.5 -0.1,2.6 0.2,4.2 0.3,1.8 1.1,1.9 2.8,1.8 1.5,0 3.1,0 4.7,0 2,0 4.5,0 6.4,0 0.7,0 2.2,-0.2 2.2,-1.3 -0.2,-1.4 -2.3,-1.5 -3.3,-1.7"
   id="path229" />
</g>
</svg>
