<svg width="566" height="221" viewBox="0 0 566 221" fill="none" xmlns="http://www.w3.org/2000/svg">
<g clip-path="url(#clip0_108_101)">
<path d="M2.16003 91.4177C2.16003 105.519 13.92 116.956 28.42 116.956C42.92 116.956 54.68 105.519 54.68 91.4177C54.68 77.316 42.92 65.8791 28.42 65.8791C13.91 65.8791 2.16003 77.316 2.16003 91.4177Z" fill="#1ECAD3"/>
<path d="M54.48 116.956H106.61C106.61 145.169 83.27 168.033 54.48 168.033V116.956Z" fill="#90B3E6"/>
<path d="M106.6 65.8791V116.956H54.48C54.48 88.7432 77.81 65.8791 106.6 65.8791Z" fill="#0071CE"/>
<path d="M54.48 116.956H2.34998C2.34998 145.169 25.69 168.033 54.48 168.033C54.48 168.033 54.48 116.956 54.48 116.956Z" fill="#D0DDF4"/>
<path d="M221.79 128.879V65.9083H207.71V128.879C207.71 143.341 195.61 155.108 180.74 155.108C165.87 155.108 153.77 143.341 153.77 128.879V65.8499H139.69V128.879C139.69 150.888 158.1 168.802 180.74 168.802C203.38 168.802 221.79 150.888 221.79 128.879ZM286 113.397H286.59V101.143C284.22 99.7036 280.66 98.5463 276.06 98.5463C265.53 98.5463 258.27 102.728 254.12 110.8H253.83L253.53 99.9856H242.86V167.45H255.46V136.747C255.46 119.164 261.83 110.217 275.18 110.217C279.33 110.217 283.04 111.374 286 113.397ZM309.57 119.592C309.57 113.533 315.35 109.497 324.24 109.497C333.88 109.497 341.29 111.948 346.03 116.703H346.62V103.74C341.43 100.423 333.13 98.5463 323.94 98.5463C307.78 98.5463 297.11 107.192 297.11 120.029C297.11 132.283 303.78 137.904 322.01 139.062C334.46 139.781 338.32 142.378 338.32 147.853C338.32 154.048 332.39 157.948 322.9 157.948C311.78 157.948 303.18 154.778 297.55 148.573H296.96V161.838C302.74 166.448 311.78 168.899 323.34 168.899C340.24 168.899 350.76 160.827 350.76 147.853C350.76 134.588 343.79 128.393 324.82 127.382C313.27 126.798 309.57 124.493 309.57 119.592ZM375.82 119.592C375.82 113.533 381.6 109.497 390.5 109.497C400.14 109.497 407.55 111.948 412.29 116.703H412.88V103.74C407.69 100.423 399.39 98.5463 390.2 98.5463C374.04 98.5463 363.37 107.192 363.37 120.029C363.37 132.283 370.04 137.904 388.27 139.062C400.72 139.781 404.58 142.378 404.58 147.853C404.58 154.048 398.65 157.948 389.16 157.948C378.04 157.948 369.44 154.778 363.81 148.573H363.22V161.838C369 166.448 378.04 168.899 389.6 168.899C406.5 168.899 417.02 160.827 417.02 147.853C417.02 134.588 410.05 128.393 391.08 127.382C379.53 126.798 375.82 124.493 375.82 119.592ZM490.11 133.723C490.11 147.99 480.18 157.939 466.1 157.939C451.87 157.939 442.09 147.99 442.09 133.723C442.09 119.446 451.87 109.507 466.1 109.507C480.18 109.497 490.11 119.446 490.11 133.723ZM491.59 167.46H502.26V99.9856H491.59L491.15 110.8H490.85C485.66 103.156 476.17 98.5463 464.02 98.5463C443.86 98.5463 429.33 113.251 429.33 133.723C429.33 154.194 443.85 168.899 464.02 168.899C476.17 168.899 485.66 164.289 490.85 156.791H491.15L491.59 167.46ZM566.15 79.8349V68.3007C563.19 66.8613 558.29 65.8499 552.51 65.8499C537.54 65.8499 529.24 74.4957 529.24 89.7838V101.425H516.49V112.094H529.24V167.45H541.99V112.094H564.23V101.425H541.99V90.0756C541.99 81.4298 546.44 76.8103 554.29 76.8103C558.29 76.8103 562.59 77.9579 565.56 79.8349H566.15Z" fill="#1A428A"/>
<path d="M563.29 208.938C562.68 210.727 561.35 212.147 558.7 212.147C555.94 212.147 553.83 210.163 553.76 207.314H566.08C566.11 207.11 566.15 206.721 566.15 206.322C566.15 201.362 563.33 197.978 558.29 197.978C554.17 197.978 550.46 201.381 550.46 206.38C550.46 211.778 554.31 214.89 558.7 214.89C562.51 214.89 565.13 212.672 566.05 209.862L563.29 208.938ZM553.86 204.805C554 202.753 555.63 200.73 558.32 200.73C561.21 200.73 562.74 202.519 562.81 204.805H553.86ZM546.68 190.44H543.48V214.404H546.68V190.44ZM530.92 212.283C529.29 212.283 528.27 211.155 528.27 209.969C528.27 208.549 529.29 207.781 530.65 207.586L535.65 206.857V207.586C535.65 211.058 533.54 212.283 530.92 212.283ZM525 210.134C525 212.653 527.14 214.899 530.48 214.899C533.41 214.899 535.04 213.373 535.75 212.254C535.75 213.412 535.85 214.005 535.92 214.404H539.05C538.98 214.005 538.85 213.178 538.85 211.787V203.813C538.85 200.701 536.94 197.987 532.04 197.987C528.5 197.987 525.68 200.107 525.33 203.151L528.39 203.842C528.59 201.984 529.85 200.633 532.1 200.633C534.58 200.633 535.64 201.926 535.64 203.482C535.64 204.046 535.37 204.542 534.38 204.678L529.96 205.31C527.15 205.699 525 207.285 525 210.134ZM517.04 192.463C517.04 193.689 518.06 194.681 519.32 194.681C520.61 194.681 521.64 193.689 521.64 192.463C521.64 191.209 520.62 190.217 519.32 190.217C518.06 190.207 517.04 191.199 517.04 192.463ZM520.92 198.483H517.75V214.404H520.92V198.483ZM506.93 200.866C509.72 200.866 510.91 202.685 511.32 204.241L514.21 203.044C513.53 200.633 511.28 197.978 506.93 197.978C502.27 197.978 498.69 201.449 498.69 206.419C498.69 211.253 502.2 214.89 506.96 214.89C511.21 214.89 513.56 212.206 514.35 209.93L511.52 208.734C511.15 209.988 510.02 212.011 506.96 212.011C504.31 212.011 501.96 210.056 501.96 206.419C501.96 202.723 504.35 200.866 506.93 200.866ZM487.94 197.987C483.04 197.987 479.57 201.595 479.57 206.429C479.57 211.291 483.04 214.899 487.94 214.899C492.84 214.899 496.31 211.291 496.31 206.429C496.32 201.595 492.85 197.987 487.94 197.987ZM487.94 212.118C485.22 212.118 482.84 210.134 482.84 206.429C482.84 202.753 485.22 200.769 487.94 200.769C490.66 200.769 493.04 202.753 493.04 206.429C493.05 210.134 490.67 212.118 487.94 212.118ZM464.53 210.261C464.8 212.079 466.71 214.899 471.2 214.899C475.25 214.899 477.19 212.215 477.19 209.969C477.19 207.615 475.63 205.865 472.66 205.233L470.01 204.669C468.75 204.406 468.14 203.706 468.14 202.753C468.14 201.663 469.23 200.633 470.86 200.633C473.45 200.633 474.13 202.451 474.26 203.278L477.08 202.257C476.74 200.837 475.35 197.987 470.85 197.987C467.65 197.987 465.03 200.302 465.03 203.015C465.03 205.262 466.56 206.954 469.11 207.479L471.9 208.072C473.26 208.374 474.01 209.132 474.01 210.124C474.01 211.253 473.02 212.245 471.22 212.245C468.91 212.245 467.61 210.922 467.41 209.269L464.53 210.261ZM442.37 205.203C442.37 202.792 443.66 200.837 446.18 200.837C449.04 200.837 449.99 202.626 449.99 204.844V214.404H453.19V204.309C453.19 200.769 451.25 198.016 447.34 198.016C445.43 198.016 443.49 198.775 442.3 200.759V198.474H439.17V214.394H442.37V205.203V205.203ZM427.05 197.987C422.15 197.987 418.68 201.595 418.68 206.429C418.68 211.291 422.15 214.899 427.05 214.899C431.95 214.899 435.42 211.291 435.42 206.429C435.42 201.595 431.95 197.987 427.05 197.987ZM427.05 212.118C424.33 212.118 421.95 210.134 421.95 206.429C421.95 202.753 424.33 200.769 427.05 200.769C429.77 200.769 432.15 202.753 432.15 206.429C432.16 210.134 429.77 212.118 427.05 212.118ZM411.06 192.463C411.06 193.689 412.08 194.681 413.34 194.681C414.63 194.681 415.66 193.689 415.66 192.463C415.66 191.209 414.64 190.217 413.34 190.217C412.08 190.207 411.06 191.199 411.06 192.463ZM414.94 198.483H411.77V214.404H414.94V198.483ZM404.32 193.455H401.39V196.032C401.39 197.423 400.64 198.483 398.87 198.483H397.98V201.294H401.12V210.027C401.12 212.906 402.89 214.559 405.68 214.559C406.77 214.559 407.59 214.365 407.86 214.258V211.612C407.59 211.68 407.01 211.749 406.6 211.749C404.93 211.749 404.32 211.019 404.32 209.56V201.284H407.86V198.474H404.32V193.455ZM389.21 200.866C392 200.866 393.19 202.685 393.6 204.241L396.49 203.044C395.81 200.633 393.56 197.978 389.21 197.978C384.55 197.978 380.97 201.449 380.97 206.419C380.97 211.253 384.48 214.89 389.24 214.89C393.49 214.89 395.84 212.206 396.62 209.93L393.8 208.734C393.43 209.988 392.3 212.011 389.24 212.011C386.59 212.011 384.24 210.056 384.24 206.419C384.24 202.723 386.62 200.866 389.21 200.866ZM375.73 208.938C375.12 210.727 373.79 212.147 371.14 212.147C368.38 212.147 366.27 210.163 366.21 207.314H378.53C378.56 207.11 378.6 206.721 378.6 206.322C378.6 201.362 375.77 197.978 370.74 197.978C366.62 197.978 362.91 201.381 362.91 206.38C362.91 211.778 366.76 214.89 371.14 214.89C374.95 214.89 377.57 212.672 378.49 209.862L375.73 208.938ZM366.31 204.805C366.45 202.753 368.08 200.73 370.77 200.73C373.66 200.73 375.19 202.519 375.26 204.805H366.31ZM356.95 193.455H354.02V196.032C354.02 197.423 353.27 198.483 351.5 198.483H350.62V201.294H353.75V210.027C353.75 212.906 355.52 214.559 358.31 214.559C359.4 214.559 360.22 214.365 360.49 214.258V211.612C360.22 211.68 359.64 211.749 359.23 211.749C357.56 211.749 356.95 211.019 356.95 209.56V201.284H360.49V198.474H356.95V193.455V193.455ZM340.72 197.987C335.82 197.987 332.35 201.595 332.35 206.429C332.35 211.291 335.82 214.899 340.72 214.899C345.62 214.899 349.09 211.291 349.09 206.429C349.09 201.595 345.62 197.987 340.72 197.987ZM340.72 212.118C338 212.118 335.62 210.134 335.62 206.429C335.62 202.753 338 200.769 340.72 200.769C343.44 200.769 345.82 202.753 345.82 206.429C345.82 210.134 343.44 212.118 340.72 212.118ZM330.81 198.318C330.64 198.279 330.2 198.221 329.75 198.221C328.08 198.221 326.04 198.814 324.85 201.265V198.483H321.72V214.404H324.92V206.429C324.92 202.918 326.72 201.527 329.41 201.527C329.85 201.527 330.33 201.556 330.8 201.625L330.81 198.318ZM314.72 206.429C314.72 209.706 312.85 212.06 309.89 212.06C306.96 212.06 305.02 209.716 305.02 206.429C305.02 203.249 306.96 200.866 309.89 200.866C312.88 200.866 314.72 203.249 314.72 206.429ZM305.05 220.696V212.254C305.93 213.674 307.84 214.831 310.36 214.831C315.16 214.831 317.98 211.155 317.98 206.419C317.98 201.79 315.36 198.114 310.46 198.114C307.81 198.114 305.87 199.368 304.98 200.963V198.483H301.88V220.686L305.05 220.696ZM287.18 208.938C286.57 210.727 285.24 212.147 282.59 212.147C279.83 212.147 277.72 210.163 277.65 207.314H289.97C290 207.11 290.04 206.721 290.04 206.322C290.04 201.362 287.22 197.978 282.18 197.978C278.06 197.978 274.35 201.381 274.35 206.38C274.35 211.778 278.2 214.89 282.59 214.89C286.4 214.89 289.02 212.672 289.94 209.862L287.18 208.938ZM277.75 204.805C277.89 202.753 279.52 200.73 282.21 200.73C285.1 200.73 286.63 202.519 286.7 204.805H277.75ZM272.78 198.318C272.61 198.279 272.17 198.221 271.72 198.221C270.05 198.221 268.01 198.814 266.82 201.265V198.483H263.69V214.404H266.89V206.429C266.89 202.918 268.69 201.527 271.38 201.527C271.82 201.527 272.3 201.556 272.77 201.625L272.78 198.318ZM256.58 193.455H253.65V196.032C253.65 197.423 252.9 198.483 251.13 198.483H250.25V201.294H253.38V210.027C253.38 212.906 255.15 214.559 257.94 214.559C259.03 214.559 259.85 214.365 260.12 214.258V211.612C259.85 211.68 259.27 211.749 258.86 211.749C257.19 211.749 256.58 211.019 256.58 209.56V201.284H260.12V198.474H256.58V193.455ZM240.35 197.987C235.45 197.987 231.98 201.595 231.98 206.429C231.98 211.291 235.45 214.899 240.35 214.899C245.25 214.899 248.72 211.291 248.72 206.429C248.72 201.595 245.25 197.987 240.35 197.987ZM240.35 212.118C237.63 212.118 235.25 210.134 235.25 206.429C235.25 202.753 237.63 200.769 240.35 200.769C243.07 200.769 245.45 202.753 245.45 206.429C245.45 210.134 243.07 212.118 240.35 212.118ZM217.75 205.203C217.75 202.792 219.04 200.837 221.56 200.837C224.42 200.837 225.37 202.626 225.37 204.844V214.404H228.57V204.309C228.57 200.769 226.63 198.016 222.72 198.016C220.81 198.016 218.87 198.775 217.68 200.759V198.474H214.55V214.394H217.75V205.203ZM199.84 208.938C199.23 210.727 197.9 212.147 195.25 212.147C192.49 212.147 190.38 210.163 190.32 207.314H202.64C202.67 207.11 202.71 206.721 202.71 206.322C202.71 201.362 199.88 197.978 194.85 197.978C190.73 197.978 187.02 201.381 187.02 206.38C187.02 211.778 190.87 214.89 195.26 214.89C199.07 214.89 201.69 212.672 202.61 209.862L199.84 208.938ZM190.42 204.805C190.56 202.753 192.19 200.73 194.88 200.73C197.77 200.73 199.3 202.519 199.37 204.805H190.42ZM180.14 212.254C180.14 213.217 180.24 214.044 180.31 214.404H183.41C183.38 214.141 183.24 212.984 183.24 211.457V190.44H180.07V200.73C179.53 199.436 177.96 198.046 175.07 198.046C170.44 198.046 167.31 201.887 167.31 206.39C167.31 211.126 170.27 214.831 175.07 214.831C177.62 214.831 179.36 213.509 180.14 211.982V212.254ZM170.57 206.39C170.57 203.112 172.48 200.798 175.4 200.798C178.33 200.798 180.1 203.044 180.1 206.322C180.1 209.599 178.3 212.079 175.37 212.079C172.31 212.089 170.57 209.667 170.57 206.39ZM153.96 208.938C153.35 210.727 152.02 212.147 149.36 212.147C146.6 212.147 144.49 210.163 144.43 207.314H156.75C156.78 207.11 156.82 206.721 156.82 206.322C156.82 201.362 154 197.978 148.96 197.978C144.84 197.978 141.13 201.381 141.13 206.38C141.13 211.778 144.98 214.89 149.36 214.89C153.17 214.89 155.79 212.672 156.71 209.862L153.96 208.938ZM144.53 204.805C144.67 202.753 146.3 200.73 148.99 200.73C151.88 200.73 153.41 202.519 153.48 204.805H144.53ZM131.8 200.866C134.59 200.866 135.78 202.685 136.19 204.241L139.08 203.044C138.4 200.633 136.15 197.978 131.8 197.978C127.14 197.978 123.57 201.449 123.57 206.419C123.57 211.253 127.07 214.89 131.84 214.89C136.09 214.89 138.44 212.206 139.23 209.93L136.4 208.734C136.03 209.988 134.9 212.011 131.84 212.011C129.19 212.011 126.84 210.056 126.84 206.419C126.84 202.723 129.22 200.866 131.8 200.866ZM115.94 192.463C115.94 193.689 116.96 194.681 118.22 194.681C119.51 194.681 120.53 193.689 120.53 192.463C120.53 191.209 119.51 190.217 118.22 190.217C116.97 190.207 115.94 191.199 115.94 192.463ZM119.82 198.483H116.65V214.404H119.82V198.483ZM113.94 198.483H110.5L105.8 210.757L101.14 198.483H97.53L104.17 214.404H107.4L113.94 198.483ZM96.34 198.318C96.17 198.279 95.73 198.221 95.28 198.221C93.61 198.221 91.57 198.814 90.38 201.265V198.483H87.25V214.404H90.45V206.429C90.45 202.918 92.25 201.527 94.94 201.527C95.38 201.527 95.86 201.556 96.33 201.625V198.318H96.34ZM80.66 208.938C80.05 210.727 78.72 212.147 76.07 212.147C73.31 212.147 71.2 210.163 71.13 207.314H83.45C83.48 207.11 83.52 206.721 83.52 206.322C83.52 201.362 80.7 197.978 75.66 197.978C71.54 197.978 67.83 201.381 67.83 206.38C67.83 211.778 71.68 214.89 76.07 214.89C79.88 214.89 82.5 212.672 83.42 209.862L80.66 208.938ZM71.23 204.805C71.37 202.753 73 200.73 75.69 200.73C78.58 200.73 80.11 202.519 80.18 204.805H71.23ZM52.76 210.261C53.03 212.079 54.94 214.899 59.43 214.899C63.48 214.899 65.42 212.215 65.42 209.969C65.42 207.615 63.86 205.865 60.89 205.233L58.24 204.669C56.98 204.406 56.37 203.706 56.37 202.753C56.37 201.663 57.46 200.633 59.09 200.633C61.68 200.633 62.36 202.451 62.49 203.278L65.31 202.257C64.97 200.837 63.57 197.987 59.08 197.987C55.88 197.987 53.26 200.302 53.26 203.015C53.26 205.262 54.79 206.954 57.34 207.479L60.13 208.072C61.49 208.374 62.24 209.132 62.24 210.124C62.24 211.253 61.25 212.245 59.45 212.245C57.14 212.245 55.84 210.922 55.64 209.269L52.76 210.261ZM38.05 212.488C38.05 213.149 38.12 214.044 38.19 214.404H41.25C41.18 213.839 41.08 212.711 41.08 211.457V198.483H37.88V208.082C37.88 210.494 36.59 212.147 34 212.147C31.31 212.147 30.29 210.231 30.29 208.043V198.483H27.09V208.51C27.09 212.118 29.4 214.899 33.22 214.899C35.12 214.899 37.16 214.141 38.05 212.488ZM13.78 194.311L17.96 204.834H9.65998L13.78 194.311ZM21.78 214.404H25.39L15.79 190.936H11.95L2.34998 214.404H5.91998L8.46998 207.849H19.16L21.78 214.404Z" fill="#0071CE"/>
</g>
<path d="M11.7519 45.3716C9.67708 45.3716 7.64877 45.1239 5.6669 44.6284C3.68503 44.102 2.10573 43.4517 0.929 42.6775L3.3444 37.4751C4.4592 38.1873 5.80625 38.7757 7.38555 39.2402C8.96485 39.6737 10.5132 39.8905 12.0306 39.8905C15.0963 39.8905 16.6291 39.1318 16.6291 37.6144C16.6291 36.9022 16.2111 36.3913 15.375 36.0816C14.5389 35.7719 13.2537 35.5087 11.5196 35.2919C9.4758 34.9823 7.78812 34.6262 6.45655 34.2236C5.12498 33.821 3.96373 33.1088 2.9728 32.0869C2.01283 31.065 1.53285 29.6096 1.53285 27.7206C1.53285 26.1413 1.98187 24.7478 2.8799 23.5401C3.8089 22.3014 5.14047 21.3415 6.8746 20.6602C8.6397 19.9789 10.7145 19.6383 13.0989 19.6383C14.864 19.6383 16.6136 19.8396 18.3478 20.2421C20.1129 20.6137 21.5683 21.1402 22.7141 21.8214L20.2987 26.9774C18.1 25.7387 15.7001 25.1194 13.0989 25.1194C11.5506 25.1194 10.3893 25.3362 9.61515 25.7697C8.84098 26.2032 8.4539 26.7606 8.4539 27.4419C8.4539 28.2161 8.87195 28.758 9.70805 29.0676C10.5442 29.3773 11.8757 29.6715 13.7028 29.9502C15.7466 30.2908 17.4188 30.6624 18.7194 31.065C20.02 31.4366 21.1502 32.1333 22.1102 33.1552C23.0702 34.1771 23.5502 35.6016 23.5502 37.4286C23.5502 38.977 23.0857 40.355 22.1567 41.5627C21.2277 42.7704 19.8651 43.7149 18.0691 44.3961C16.304 45.0465 14.1982 45.3716 11.7519 45.3716ZM52.5001 32.5978C52.5001 32.6907 52.4537 33.341 52.3608 34.5487H33.4556C33.7962 36.0971 34.6014 37.3203 35.871 38.2183C37.1406 39.1163 38.7199 39.5653 40.6089 39.5653C41.9095 39.5653 43.0553 39.3795 44.0462 39.0079C45.0681 38.6054 46.0126 37.986 46.8797 37.1499L50.735 41.3304C48.3815 44.0245 44.9442 45.3716 40.4231 45.3716C37.6051 45.3716 35.1123 44.8297 32.9447 43.7458C30.777 42.631 29.1048 41.0982 27.9281 39.1473C26.7513 37.1964 26.163 34.9823 26.163 32.5049C26.163 30.0586 26.7358 27.8599 27.8816 25.909C29.0583 23.9272 30.6531 22.3943 32.666 21.3105C34.7098 20.1957 36.9858 19.6383 39.4941 19.6383C41.9405 19.6383 44.1546 20.1647 46.1365 21.2176C48.1183 22.2705 49.6667 23.7878 50.7815 25.7697C51.9272 27.7206 52.5001 29.9966 52.5001 32.5978ZM39.5406 25.1194C37.8993 25.1194 36.5213 25.5839 35.4065 26.5129C34.2917 27.4419 33.6104 28.7115 33.3627 30.3218H45.672C45.4242 28.7425 44.743 27.4883 43.6282 26.5593C42.5134 25.5994 41.1508 25.1194 39.5406 25.1194ZM64.2454 23.3078C65.1125 22.1001 66.2737 21.1866 67.7292 20.5673C69.2156 19.948 70.9187 19.6383 72.8387 19.6383V26.3271C72.0335 26.2652 71.4916 26.2342 71.2129 26.2342C69.1382 26.2342 67.5124 26.8226 66.3357 27.9993C65.1589 29.1451 64.5706 30.8792 64.5706 33.2017V45H57.3244V20.0099H64.2454V23.3078ZM102.813 20.0099L92.2693 45H84.7908L74.2931 20.0099H81.7716L88.6927 37.0106L95.846 20.0099H102.813ZM105.77 20.0099H113.016V45H105.77V20.0099ZM109.393 16.5261C108.062 16.5261 106.978 16.1391 106.142 15.3649C105.306 14.5907 104.888 13.6308 104.888 12.485C104.888 11.3392 105.306 10.3793 106.142 9.6051C106.978 8.83093 108.062 8.44385 109.393 8.44385C110.725 8.44385 111.809 8.81545 112.645 9.55865C113.481 10.3018 113.899 11.2308 113.899 12.3456C113.899 13.5533 113.481 14.5598 112.645 15.3649C111.809 16.1391 110.725 16.5261 109.393 16.5261ZM131.819 45.3716C129.155 45.3716 126.756 44.8297 124.619 43.7458C122.513 42.631 120.856 41.0982 119.649 39.1473C118.472 37.1964 117.884 34.9823 117.884 32.5049C117.884 30.0276 118.472 27.8135 119.649 25.8626C120.856 23.9117 122.513 22.3943 124.619 21.3105C126.756 20.1957 129.155 19.6383 131.819 19.6383C134.451 19.6383 136.742 20.1957 138.693 21.3105C140.675 22.3943 142.115 23.9581 143.013 26.0019L137.393 29.0212C136.092 26.7297 134.218 25.5839 131.772 25.5839C129.883 25.5839 128.319 26.2032 127.081 27.4419C125.842 28.6806 125.223 30.3682 125.223 32.5049C125.223 34.6416 125.842 36.3293 127.081 37.568C128.319 38.8067 129.883 39.426 131.772 39.426C134.249 39.426 136.123 38.2802 137.393 35.9887L143.013 39.0544C142.115 41.0363 140.675 42.5846 138.693 43.6994C136.742 44.8142 134.451 45.3716 131.819 45.3716ZM171.347 32.5978C171.347 32.6907 171.3 33.341 171.207 34.5487H152.302C152.643 36.0971 153.448 37.3203 154.718 38.2183C155.987 39.1163 157.567 39.5653 159.456 39.5653C160.756 39.5653 161.902 39.3795 162.893 39.0079C163.915 38.6054 164.859 37.986 165.726 37.1499L169.582 41.3304C167.228 44.0245 163.791 45.3716 159.27 45.3716C156.452 45.3716 153.959 44.8297 151.791 43.7458C149.624 42.631 147.951 41.0982 146.775 39.1473C145.598 37.1964 145.01 34.9823 145.01 32.5049C145.01 30.0586 145.583 27.8599 146.728 25.909C147.905 23.9272 149.5 22.3943 151.513 21.3105C153.556 20.1957 155.832 19.6383 158.341 19.6383C160.787 19.6383 163.001 20.1647 164.983 21.2176C166.965 22.2705 168.513 23.7878 169.628 25.7697C170.774 27.7206 171.347 29.9966 171.347 32.5978ZM158.387 25.1194C156.746 25.1194 155.368 25.5839 154.253 26.5129C153.138 27.4419 152.457 28.7115 152.209 30.3218H164.519C164.271 28.7425 163.59 27.4883 162.475 26.5593C161.36 25.5994 159.998 25.1194 158.387 25.1194Z" fill="#9EBBF1"/>
<path d="M220.332 19.6383C223.46 19.6383 225.937 20.5673 227.764 22.4253C229.622 24.2523 230.551 27.0084 230.551 30.6934V45H223.305V31.8082C223.305 29.8263 222.887 28.3554 222.051 27.3954C221.245 26.4045 220.084 25.909 218.567 25.909C216.864 25.909 215.517 26.4664 214.526 27.5812C213.535 28.6651 213.039 30.2908 213.039 32.4585V45H205.793V31.8082C205.793 27.8754 204.214 25.909 201.055 25.909C199.383 25.909 198.051 26.4664 197.061 27.5812C196.07 28.6651 195.574 30.2908 195.574 32.4585V45H188.328V20.0099H195.249V22.8898C196.178 21.8369 197.308 21.0318 198.64 20.4744C200.002 19.917 201.489 19.6383 203.099 19.6383C204.864 19.6383 206.459 19.9944 207.883 20.7066C209.308 21.3879 210.454 22.3943 211.321 23.7259C212.343 22.4253 213.628 21.4189 215.176 20.7066C216.755 19.9944 218.474 19.6383 220.332 19.6383ZM249.209 45.3716C246.577 45.3716 244.208 44.8297 242.102 43.7458C240.028 42.631 238.402 41.0982 237.225 39.1473C236.049 37.1964 235.46 34.9823 235.46 32.5049C235.46 30.0276 236.049 27.8135 237.225 25.8626C238.402 23.9117 240.028 22.3943 242.102 21.3105C244.208 20.1957 246.577 19.6383 249.209 19.6383C251.842 19.6383 254.195 20.1957 256.27 21.3105C258.345 22.3943 259.97 23.9117 261.147 25.8626C262.324 27.8135 262.912 30.0276 262.912 32.5049C262.912 34.9823 262.324 37.1964 261.147 39.1473C259.97 41.0982 258.345 42.631 256.27 43.7458C254.195 44.8297 251.842 45.3716 249.209 45.3716ZM249.209 39.426C251.067 39.426 252.585 38.8067 253.761 37.568C254.969 36.2984 255.573 34.6107 255.573 32.5049C255.573 30.3992 254.969 28.727 253.761 27.4883C252.585 26.2187 251.067 25.5839 249.209 25.5839C247.351 25.5839 245.818 26.2187 244.611 27.4883C243.403 28.727 242.799 30.3992 242.799 32.5049C242.799 34.6107 243.403 36.2984 244.611 37.568C245.818 38.8067 247.351 39.426 249.209 39.426ZM282.945 19.6383C286.041 19.6383 288.534 20.5673 290.423 22.4253C292.343 24.2833 293.303 27.0393 293.303 30.6934V45H286.057V31.8082C286.057 29.8263 285.623 28.3554 284.756 27.3954C283.889 26.4045 282.635 25.909 280.994 25.909C279.167 25.909 277.711 26.4819 276.628 27.6277C275.544 28.7425 275.002 30.4147 275.002 32.6443V45H267.756V20.0099H274.677V22.9362C275.637 21.8834 276.829 21.0782 278.253 20.5208C279.678 19.9325 281.242 19.6383 282.945 19.6383ZM342.268 32.5978C342.268 32.6907 342.222 33.341 342.129 34.5487H323.224C323.564 36.0971 324.37 37.3203 325.639 38.2183C326.909 39.1163 328.488 39.5653 330.377 39.5653C331.678 39.5653 332.823 39.3795 333.814 39.0079C334.836 38.6054 335.781 37.986 336.648 37.1499L340.503 41.3304C338.15 44.0245 334.712 45.3716 330.191 45.3716C327.373 45.3716 324.88 44.8297 322.713 43.7458C320.545 42.631 318.873 41.0982 317.696 39.1473C316.519 37.1964 315.931 34.9823 315.931 32.5049C315.931 30.0586 316.504 27.8599 317.65 25.909C318.827 23.9272 320.421 22.3943 322.434 21.3105C324.478 20.1957 326.754 19.6383 329.262 19.6383C331.709 19.6383 333.923 20.1647 335.905 21.2176C337.887 22.2705 339.435 23.7878 340.55 25.7697C341.695 27.7206 342.268 29.9966 342.268 32.5978ZM329.309 25.1194C327.668 25.1194 326.289 25.5839 325.175 26.5129C324.06 27.4419 323.379 28.7115 323.131 30.3218H335.44C335.192 28.7425 334.511 27.4883 333.396 26.5593C332.282 25.5994 330.919 25.1194 329.309 25.1194ZM362.282 19.6383C365.378 19.6383 367.871 20.5673 369.76 22.4253C371.68 24.2833 372.64 27.0393 372.64 30.6934V45H365.394V31.8082C365.394 29.8263 364.96 28.3554 364.093 27.3954C363.226 26.4045 361.972 25.909 360.331 25.909C358.504 25.909 357.048 26.4819 355.965 27.6277C354.881 28.7425 354.339 30.4147 354.339 32.6443V45H347.093V20.0099H354.014V22.9362C354.974 21.8834 356.166 21.0782 357.59 20.5208C359.015 19.9325 360.579 19.6383 362.282 19.6383ZM395.327 43.7923C394.614 44.3187 393.732 44.7213 392.679 45C391.657 45.2477 390.573 45.3716 389.427 45.3716C386.455 45.3716 384.148 44.6129 382.506 43.0955C380.896 41.5782 380.091 39.3486 380.091 36.4067V26.1413H376.236V20.5673H380.091V14.4823H387.337V20.5673H393.561V26.1413H387.337V36.3138C387.337 37.3667 387.6 38.1873 388.127 38.7757C388.684 39.3331 389.458 39.6118 390.449 39.6118C391.595 39.6118 392.571 39.3021 393.376 38.6828L395.327 43.7923ZM406.315 23.3078C407.182 22.1001 408.344 21.1866 409.799 20.5673C411.285 19.948 412.989 19.6383 414.908 19.6383V26.3271C414.103 26.2652 413.561 26.2342 413.283 26.2342C411.208 26.2342 409.582 26.8226 408.405 27.9993C407.229 29.1451 406.64 30.8792 406.64 33.2017V45H399.394V20.0099H406.315V23.3078ZM443.469 32.5978C443.469 32.6907 443.423 33.341 443.33 34.5487H424.425C424.766 36.0971 425.571 37.3203 426.84 38.2183C428.11 39.1163 429.689 39.5653 431.578 39.5653C432.879 39.5653 434.025 39.3795 435.016 39.0079C436.037 38.6054 436.982 37.986 437.849 37.1499L441.704 41.3304C439.351 44.0245 435.914 45.3716 431.392 45.3716C428.574 45.3716 426.082 44.8297 423.914 43.7458C421.746 42.631 420.074 41.0982 418.897 39.1473C417.721 37.1964 417.132 34.9823 417.132 32.5049C417.132 30.0586 417.705 27.8599 418.851 25.909C420.028 23.9272 421.622 22.3943 423.635 21.3105C425.679 20.1957 427.955 19.6383 430.463 19.6383C432.91 19.6383 435.124 20.1647 437.106 21.2176C439.088 22.2705 440.636 23.7878 441.751 25.7697C442.897 27.7206 443.469 29.9966 443.469 32.5978ZM430.51 25.1194C428.869 25.1194 427.491 25.5839 426.376 26.5129C425.261 27.4419 424.58 28.7115 424.332 30.3218H436.641C436.394 28.7425 435.712 27.4883 434.597 26.5593C433.483 25.5994 432.12 25.1194 430.51 25.1194ZM463.065 19.6383C465.387 19.6383 467.493 20.1802 469.382 21.264C471.302 22.3169 472.804 23.8188 473.888 25.7697C474.971 27.6896 475.513 29.9347 475.513 32.5049C475.513 35.0752 474.971 37.3357 473.888 39.2866C472.804 41.2066 471.302 42.7085 469.382 43.7923C467.493 44.8452 465.387 45.3716 463.065 45.3716C459.875 45.3716 457.367 44.3652 455.54 42.3523V54.0113H448.294V20.0099H455.215V22.8898C457.011 20.7221 459.627 19.6383 463.065 19.6383ZM461.811 39.426C463.669 39.426 465.186 38.8067 466.363 37.568C467.57 36.2984 468.174 34.6107 468.174 32.5049C468.174 30.3992 467.57 28.727 466.363 27.4883C465.186 26.2187 463.669 25.5839 461.811 25.5839C459.953 25.5839 458.42 26.2187 457.212 27.4883C456.035 28.727 455.447 30.3992 455.447 32.5049C455.447 34.6107 456.035 36.2984 457.212 37.568C458.42 38.8067 459.953 39.426 461.811 39.426ZM487.285 23.3078C488.152 22.1001 489.314 21.1866 490.769 20.5673C492.255 19.948 493.959 19.6383 495.878 19.6383V26.3271C495.073 26.2652 494.531 26.2342 494.253 26.2342C492.178 26.2342 490.552 26.8226 489.375 27.9993C488.199 29.1451 487.61 30.8792 487.61 33.2017V45H480.364V20.0099H487.285V23.3078ZM500.187 20.0099H507.433V45H500.187V20.0099ZM503.81 16.5261C502.479 16.5261 501.395 16.1391 500.559 15.3649C499.723 14.5907 499.305 13.6308 499.305 12.485C499.305 11.3392 499.723 10.3793 500.559 9.6051C501.395 8.83093 502.479 8.44385 503.81 8.44385C505.142 8.44385 506.226 8.81545 507.062 9.55865C507.898 10.3018 508.316 11.2308 508.316 12.3456C508.316 13.5533 507.898 14.5598 507.062 15.3649C506.226 16.1391 505.142 16.5261 503.81 16.5261ZM522.566 45.3716C520.491 45.3716 518.463 45.1239 516.481 44.6284C514.499 44.102 512.92 43.4517 511.743 42.6775L514.158 37.4751C515.273 38.1873 516.62 38.7757 518.199 39.2402C519.779 39.6737 521.327 39.8905 522.844 39.8905C525.91 39.8905 527.443 39.1318 527.443 37.6144C527.443 36.9022 527.025 36.3913 526.189 36.0816C525.353 35.7719 524.068 35.5087 522.334 35.2919C520.29 34.9823 518.602 34.6262 517.27 34.2236C515.939 33.821 514.778 33.1088 513.787 32.0869C512.827 31.065 512.347 29.6096 512.347 27.7206C512.347 26.1413 512.796 24.7478 513.694 23.5401C514.623 22.3014 515.954 21.3415 517.689 20.6602C519.454 19.9789 521.528 19.6383 523.913 19.6383C525.678 19.6383 527.428 19.8396 529.162 20.2421C530.927 20.6137 532.382 21.1402 533.528 21.8214L531.113 26.9774C528.914 25.7387 526.514 25.1194 523.913 25.1194C522.365 25.1194 521.203 25.3362 520.429 25.7697C519.655 26.2032 519.268 26.7606 519.268 27.4419C519.268 28.2161 519.686 28.758 520.522 29.0676C521.358 29.3773 522.69 29.6715 524.517 29.9502C526.56 30.2908 528.233 30.6624 529.533 31.065C530.834 31.4366 531.964 32.1333 532.924 33.1552C533.884 34.1771 534.364 35.6016 534.364 37.4286C534.364 38.977 533.9 40.355 532.971 41.5627C532.042 42.7704 530.679 43.7149 528.883 44.3961C527.118 45.0465 525.012 45.3716 522.566 45.3716ZM563.314 32.5978C563.314 32.6907 563.268 33.341 563.175 34.5487H544.27C544.61 36.0971 545.415 37.3203 546.685 38.2183C547.955 39.1163 549.534 39.5653 551.423 39.5653C552.723 39.5653 553.869 39.3795 554.86 39.0079C555.882 38.6054 556.827 37.986 557.694 37.1499L561.549 41.3304C559.195 44.0245 555.758 45.3716 551.237 45.3716C548.419 45.3716 545.926 44.8297 543.759 43.7458C541.591 42.631 539.919 41.0982 538.742 39.1473C537.565 37.1964 536.977 34.9823 536.977 32.5049C536.977 30.0586 537.55 27.8599 538.696 25.909C539.872 23.9272 541.467 22.3943 543.48 21.3105C545.524 20.1957 547.8 19.6383 550.308 19.6383C552.754 19.6383 554.969 20.1647 556.95 21.2176C558.932 22.2705 560.481 23.7878 561.595 25.7697C562.741 27.7206 563.314 29.9966 563.314 32.5978ZM550.354 25.1194C548.713 25.1194 547.335 25.5839 546.22 26.5129C545.106 27.4419 544.424 28.7115 544.177 30.3218H556.486C556.238 28.7425 555.557 27.4883 554.442 26.5593C553.327 25.5994 551.965 25.1194 550.354 25.1194Z" fill="#1D458C"/>
<path d="M298.942 29.0212H312.088V34.8274H298.942V29.0212Z" fill="#CC2434"/>
<defs>
<clipPath id="clip0_108_101">
<rect width="564" height="177" fill="white" transform="translate(2 43.9486)"/>
</clipPath>
</defs>
</svg>
