<?xml version="1.0" encoding="utf-8"?>
<!-- Generator: Adobe Illustrator 25.0.1, SVG Export Plug-In . SVG Version: 6.00 Build 0)  -->
<svg version="1.1" id="Calque_1" xmlns="http://www.w3.org/2000/svg" xmlns:xlink="http://www.w3.org/1999/xlink" x="0px" y="0px"
	 viewBox="0 0 564 182" style="enable-background:new 0 0 564 182;" xml:space="preserve">
<style type="text/css">
	.st0{fill:#1ECAD3;}
	.st1{fill:#90B3E6;}
	.st2{fill:#0071CE;}
	.st3{fill:#D0DDF4;}
	.st4{fill:#1A428A;}
</style>
<path class="st0" d="M0.16,48.81c0,14.5,11.76,26.26,26.26,26.26s26.26-11.76,26.26-26.26S40.92,22.55,26.42,22.55
	C11.91,22.55,0.16,34.31,0.16,48.81"/>
<path class="st1" d="M52.48,75.07h52.13c0,29.01-23.34,52.52-52.13,52.52C52.48,127.59,52.48,75.07,52.48,75.07z"/>
<path class="st2" d="M104.6,22.55v52.52H52.48C52.48,46.06,75.81,22.55,104.6,22.55"/>
<path class="st3" d="M52.48,75.07H0.35c0,29.01,23.34,52.52,52.13,52.52C52.48,127.59,52.48,75.07,52.48,75.07z"/>
<path class="st4" d="M219.79,87.33V22.58h-14.08v64.75c0,14.87-12.1,26.97-26.97,26.97s-26.97-12.1-26.97-26.97V22.52h-14.08v64.81
	c0,22.63,18.41,41.05,41.05,41.05C201.38,128.38,219.79,109.96,219.79,87.33 M284,71.41h0.59v-12.6c-2.37-1.48-5.93-2.67-10.53-2.67
	c-10.53,0-17.79,4.3-21.94,12.6h-0.29l-0.3-11.12h-10.67v69.37h12.6V95.42c0-18.08,6.37-27.28,19.72-27.28
	C277.33,68.14,281.04,69.33,284,71.41 M307.57,77.78c0-6.23,5.78-10.38,14.67-10.38c9.64,0,17.05,2.52,21.79,7.41h0.59V61.48
	c-5.19-3.41-13.49-5.34-22.68-5.34c-16.16,0-26.83,8.89-26.83,22.09c0,12.6,6.67,18.38,24.9,19.57c12.45,0.74,16.31,3.41,16.31,9.04
	c0,6.37-5.93,10.38-15.42,10.38c-11.12,0-19.72-3.26-25.35-9.64h-0.59v13.64c5.78,4.74,14.82,7.26,26.38,7.26
	c16.9,0,27.42-8.3,27.42-21.64c0-13.64-6.97-20.01-25.94-21.05C311.27,85.19,307.57,82.82,307.57,77.78 M373.82,77.78
	c0-6.23,5.78-10.38,14.68-10.38c9.64,0,17.05,2.52,21.79,7.41h0.59V61.48c-5.19-3.41-13.49-5.34-22.68-5.34
	c-16.16,0-26.83,8.89-26.83,22.09c0,12.6,6.67,18.38,24.9,19.57c12.45,0.74,16.31,3.41,16.31,9.04c0,6.37-5.93,10.38-15.42,10.38
	c-11.12,0-19.72-3.26-25.35-9.64h-0.59v13.64c5.78,4.74,14.82,7.26,26.38,7.26c16.9,0,27.42-8.3,27.42-21.64
	c0-13.64-6.97-20.01-25.94-21.05C377.53,85.19,373.82,82.82,373.82,77.78 M488.11,92.31c0,14.67-9.93,24.9-24.01,24.9
	c-14.23,0-24.01-10.23-24.01-24.9c0-14.68,9.78-24.9,24.01-24.9C478.18,67.4,488.11,77.63,488.11,92.31 M489.59,127h10.67V57.62
	h-10.67l-0.44,11.12h-0.3c-5.19-7.86-14.68-12.6-26.83-12.6c-20.16,0-34.69,15.12-34.69,36.17s14.52,36.17,34.69,36.17
	c12.15,0,21.64-4.74,26.83-12.45h0.3L489.59,127z M564.15,36.9V25.04c-2.96-1.48-7.86-2.52-13.64-2.52
	c-14.97,0-23.27,8.89-23.27,24.61V59.1h-12.75v10.97h12.75v56.92h12.75V70.07h22.24V59.1h-22.24V47.43c0-8.89,4.45-13.64,12.3-13.64
	c4,0,8.3,1.18,11.27,3.11C563.56,36.9,564.15,36.9,564.15,36.9z"/>
<g>
	<path class="st2" d="M561.29,169.65c-0.61,1.84-1.94,3.3-4.59,3.3c-2.76,0-4.87-2.04-4.94-4.97h12.32
		c0.03-0.21,0.07-0.61,0.07-1.02c0-5.1-2.82-8.58-7.86-8.58c-4.12,0-7.83,3.5-7.83,8.64c0,5.55,3.85,8.75,8.24,8.75
		c3.81,0,6.43-2.28,7.35-5.17L561.29,169.65z M551.86,165.4c0.14-2.11,1.77-4.19,4.46-4.19c2.89,0,4.42,1.84,4.49,4.19H551.86z
		 M544.68,150.63h-3.2v24.64h3.2V150.63z M528.92,173.09c-1.63,0-2.65-1.16-2.65-2.38c0-1.46,1.02-2.25,2.38-2.45l5-0.75v0.75
		C533.65,171.83,531.54,173.09,528.92,173.09 M523,170.88c0,2.59,2.14,4.9,5.48,4.9c2.93,0,4.56-1.57,5.27-2.72
		c0,1.19,0.1,1.8,0.17,2.21h3.13c-0.07-0.41-0.2-1.26-0.2-2.69v-8.2c0-3.2-1.91-5.99-6.81-5.99c-3.54,0-6.36,2.18-6.71,5.31
		l3.06,0.71c0.2-1.91,1.46-3.3,3.71-3.3c2.48,0,3.54,1.33,3.54,2.93c0,0.58-0.27,1.09-1.26,1.23l-4.42,0.65
		C525.15,166.32,523,167.95,523,170.88 M515.04,152.71c0,1.26,1.02,2.28,2.28,2.28c1.29,0,2.32-1.02,2.32-2.28
		c0-1.29-1.02-2.31-2.32-2.31C516.06,150.39,515.04,151.41,515.04,152.71 M518.92,158.9h-3.17v16.37h3.17V158.9z M504.93,161.35
		c2.79,0,3.98,1.87,4.39,3.47l2.89-1.23c-0.68-2.48-2.93-5.21-7.28-5.21c-4.66,0-8.24,3.57-8.24,8.68c0,4.97,3.51,8.71,8.27,8.71
		c4.25,0,6.6-2.76,7.39-5.1l-2.83-1.23c-0.37,1.29-1.5,3.37-4.56,3.37c-2.65,0-5-2.01-5-5.75
		C499.96,163.26,502.35,161.35,504.93,161.35 M485.94,158.39c-4.9,0-8.37,3.71-8.37,8.68c0,5,3.47,8.71,8.37,8.71
		s8.37-3.71,8.37-8.71C494.32,162.1,490.85,158.39,485.94,158.39 M485.94,172.92c-2.72,0-5.1-2.04-5.1-5.85
		c0-3.78,2.38-5.82,5.1-5.82c2.72,0,5.1,2.04,5.1,5.82C491.05,170.88,488.67,172.92,485.94,172.92 M462.53,171.01
		c0.27,1.87,2.18,4.77,6.67,4.77c4.05,0,5.99-2.76,5.99-5.07c0-2.42-1.56-4.22-4.53-4.87l-2.65-0.58c-1.26-0.27-1.87-0.99-1.87-1.97
		c0-1.12,1.09-2.18,2.72-2.18c2.59,0,3.27,1.87,3.4,2.72l2.82-1.05c-0.34-1.46-1.73-4.39-6.23-4.39c-3.2,0-5.82,2.38-5.82,5.17
		c0,2.31,1.53,4.05,4.08,4.59l2.79,0.61c1.36,0.31,2.11,1.09,2.11,2.11c0,1.16-0.99,2.18-2.79,2.18c-2.31,0-3.61-1.36-3.81-3.06
		L462.53,171.01z M440.37,165.81c0-2.48,1.29-4.49,3.81-4.49c2.86,0,3.81,1.84,3.81,4.12v9.83h3.2v-10.38
		c0-3.64-1.94-6.47-5.85-6.47c-1.91,0-3.85,0.78-5.04,2.82v-2.35h-3.13v16.37h3.2V165.81z M425.05,158.39
		c-4.9,0-8.37,3.71-8.37,8.68c0,5,3.47,8.71,8.37,8.71s8.37-3.71,8.37-8.71C433.42,162.1,429.95,158.39,425.05,158.39
		 M425.05,172.92c-2.72,0-5.1-2.04-5.1-5.85c0-3.78,2.38-5.82,5.1-5.82c2.72,0,5.1,2.04,5.1,5.82
		C430.16,170.88,427.77,172.92,425.05,172.92 M409.06,152.71c0,1.26,1.02,2.28,2.28,2.28c1.29,0,2.32-1.02,2.32-2.28
		c0-1.29-1.02-2.31-2.32-2.31C410.08,150.39,409.06,151.41,409.06,152.71 M412.94,158.9h-3.17v16.37h3.17V158.9z M402.32,153.73
		h-2.93v2.65c0,1.43-0.75,2.52-2.52,2.52h-0.89v2.89h3.14v8.98c0,2.96,1.77,4.66,4.56,4.66c1.09,0,1.91-0.2,2.18-0.31v-2.72
		c-0.27,0.07-0.85,0.14-1.26,0.14c-1.67,0-2.28-0.75-2.28-2.25v-8.51h3.54v-2.89h-3.54L402.32,153.73L402.32,153.73z M387.21,161.35
		c2.79,0,3.98,1.87,4.39,3.47l2.89-1.23c-0.68-2.48-2.93-5.21-7.28-5.21c-4.66,0-8.24,3.57-8.24,8.68c0,4.97,3.51,8.71,8.27,8.71
		c4.25,0,6.6-2.76,7.38-5.1l-2.82-1.23c-0.37,1.29-1.5,3.37-4.56,3.37c-2.65,0-5-2.01-5-5.75
		C382.24,163.26,384.62,161.35,387.21,161.35 M373.73,169.65c-0.61,1.84-1.94,3.3-4.59,3.3c-2.76,0-4.87-2.04-4.93-4.97h12.32
		c0.03-0.21,0.07-0.61,0.07-1.02c0-5.1-2.83-8.58-7.86-8.58c-4.12,0-7.83,3.5-7.83,8.64c0,5.55,3.85,8.75,8.23,8.75
		c3.81,0,6.43-2.28,7.35-5.17L373.73,169.65z M364.31,165.4c0.14-2.11,1.77-4.19,4.46-4.19c2.89,0,4.42,1.84,4.49,4.19H364.31z
		 M354.95,153.73h-2.93v2.65c0,1.43-0.75,2.52-2.52,2.52h-0.88v2.89h3.13v8.98c0,2.96,1.77,4.66,4.56,4.66
		c1.09,0,1.91-0.2,2.18-0.31v-2.72c-0.27,0.07-0.85,0.14-1.26,0.14c-1.67,0-2.28-0.75-2.28-2.25v-8.51h3.54v-2.89h-3.54V153.73z
		 M338.72,158.39c-4.9,0-8.37,3.71-8.37,8.68c0,5,3.47,8.71,8.37,8.71c4.9,0,8.37-3.71,8.37-8.71
		C347.09,162.1,343.62,158.39,338.72,158.39 M338.72,172.92c-2.72,0-5.1-2.04-5.1-5.85c0-3.78,2.38-5.82,5.1-5.82
		c2.72,0,5.1,2.04,5.1,5.82C343.82,170.88,341.44,172.92,338.72,172.92 M328.81,158.73c-0.17-0.04-0.61-0.1-1.06-0.1
		c-1.67,0-3.71,0.61-4.9,3.13v-2.86h-3.13v16.37h3.2v-8.2c0-3.61,1.8-5.04,4.49-5.04c0.44,0,0.92,0.03,1.39,0.1L328.81,158.73
		L328.81,158.73z M312.72,167.07c0,3.37-1.87,5.79-4.83,5.79c-2.93,0-4.87-2.41-4.87-5.79c0-3.27,1.94-5.72,4.87-5.72
		C310.88,161.35,312.72,163.8,312.72,167.07 M303.05,181.74v-8.68c0.88,1.46,2.79,2.65,5.31,2.65c4.8,0,7.62-3.78,7.62-8.65
		c0-4.76-2.62-8.54-7.52-8.54c-2.65,0-4.59,1.29-5.48,2.93v-2.55h-3.1v22.83L303.05,181.74L303.05,181.74z M285.18,169.65
		c-0.61,1.84-1.94,3.3-4.59,3.3c-2.76,0-4.87-2.04-4.94-4.97h12.32c0.03-0.21,0.07-0.61,0.07-1.02c0-5.1-2.82-8.58-7.86-8.58
		c-4.12,0-7.83,3.5-7.83,8.64c0,5.55,3.85,8.75,8.24,8.75c3.81,0,6.43-2.28,7.35-5.17L285.18,169.65z M275.75,165.4
		c0.14-2.11,1.77-4.19,4.46-4.19c2.89,0,4.42,1.84,4.49,4.19H275.75z M270.78,158.73c-0.17-0.04-0.61-0.1-1.06-0.1
		c-1.67,0-3.71,0.61-4.9,3.13v-2.86h-3.13v16.37h3.2v-8.2c0-3.61,1.8-5.04,4.49-5.04c0.44,0,0.92,0.03,1.39,0.1L270.78,158.73
		L270.78,158.73z M254.58,153.73h-2.93v2.65c0,1.43-0.75,2.52-2.52,2.52h-0.88v2.89h3.13v8.98c0,2.96,1.77,4.66,4.56,4.66
		c1.09,0,1.91-0.2,2.18-0.31v-2.72c-0.27,0.07-0.85,0.14-1.26,0.14c-1.67,0-2.28-0.75-2.28-2.25v-8.51h3.54v-2.89h-3.54V153.73z
		 M238.35,158.39c-4.9,0-8.37,3.71-8.37,8.68c0,5,3.47,8.71,8.37,8.71s8.37-3.71,8.37-8.71
		C246.72,162.1,243.25,158.39,238.35,158.39 M238.35,172.92c-2.72,0-5.1-2.04-5.1-5.85c0-3.78,2.38-5.82,5.1-5.82
		c2.72,0,5.1,2.04,5.1,5.82C243.45,170.88,241.07,172.92,238.35,172.92 M215.75,165.81c0-2.48,1.29-4.49,3.81-4.49
		c2.86,0,3.81,1.84,3.81,4.12v9.83h3.2v-10.38c0-3.64-1.94-6.47-5.85-6.47c-1.91,0-3.85,0.78-5.04,2.82v-2.35h-3.13v16.37h3.2
		L215.75,165.81L215.75,165.81z M197.84,169.65c-0.61,1.84-1.94,3.3-4.59,3.3c-2.76,0-4.87-2.04-4.93-4.97h12.32
		c0.03-0.21,0.07-0.61,0.07-1.02c0-5.1-2.83-8.58-7.86-8.58c-4.12,0-7.83,3.5-7.83,8.64c0,5.55,3.85,8.75,8.24,8.75
		c3.81,0,6.43-2.28,7.35-5.17L197.84,169.65z M188.42,165.4c0.14-2.11,1.77-4.19,4.46-4.19c2.89,0,4.42,1.84,4.49,4.19H188.42z
		 M178.14,173.06c0,0.99,0.1,1.84,0.17,2.21h3.1c-0.03-0.27-0.17-1.46-0.17-3.03v-21.61h-3.17v10.58c-0.54-1.33-2.11-2.76-5-2.76
		c-4.63,0-7.76,3.95-7.76,8.58c0,4.87,2.96,8.68,7.76,8.68c2.55,0,4.29-1.36,5.07-2.93L178.14,173.06L178.14,173.06z M168.57,167.03
		c0-3.37,1.91-5.75,4.83-5.75c2.93,0,4.7,2.31,4.7,5.68c0,3.37-1.8,5.92-4.73,5.92C170.31,172.89,168.57,170.4,168.57,167.03
		 M151.96,169.65c-0.61,1.84-1.94,3.3-4.6,3.3c-2.76,0-4.87-2.04-4.93-4.97h12.32c0.03-0.21,0.07-0.61,0.07-1.02
		c0-5.1-2.82-8.58-7.86-8.58c-4.12,0-7.83,3.5-7.83,8.64c0,5.55,3.85,8.75,8.23,8.75c3.81,0,6.43-2.28,7.35-5.17L151.96,169.65z
		 M142.53,165.4c0.14-2.11,1.77-4.19,4.46-4.19c2.89,0,4.42,1.84,4.49,4.19H142.53z M129.8,161.35c2.79,0,3.98,1.87,4.39,3.47
		l2.89-1.23c-0.68-2.48-2.93-5.21-7.28-5.21c-4.66,0-8.23,3.57-8.23,8.68c0,4.97,3.5,8.71,8.27,8.71c4.25,0,6.6-2.76,7.39-5.1
		l-2.83-1.23c-0.37,1.29-1.5,3.37-4.56,3.37c-2.65,0-5-2.01-5-5.75C124.84,163.26,127.22,161.35,129.8,161.35 M113.94,152.71
		c0,1.26,1.02,2.28,2.28,2.28c1.29,0,2.31-1.02,2.31-2.28c0-1.29-1.02-2.31-2.31-2.31C114.97,150.39,113.94,151.41,113.94,152.71
		 M117.82,158.9h-3.17v16.37h3.17V158.9z M111.94,158.9h-3.44l-4.7,12.62l-4.66-12.62h-3.61l6.64,16.37h3.23L111.94,158.9z
		 M94.34,158.73c-0.17-0.04-0.61-0.1-1.06-0.1c-1.67,0-3.71,0.61-4.9,3.13v-2.86h-3.13v16.37h3.2v-8.2c0-3.61,1.8-5.04,4.49-5.04
		c0.44,0,0.92,0.03,1.39,0.1v-3.4L94.34,158.73L94.34,158.73z M78.66,169.65c-0.61,1.84-1.94,3.3-4.59,3.3
		c-2.76,0-4.87-2.04-4.94-4.97h12.32c0.03-0.21,0.07-0.61,0.07-1.02c0-5.1-2.82-8.58-7.86-8.58c-4.12,0-7.83,3.5-7.83,8.64
		c0,5.55,3.85,8.75,8.24,8.75c3.81,0,6.43-2.28,7.35-5.17L78.66,169.65z M69.23,165.4c0.14-2.11,1.77-4.19,4.46-4.19
		c2.89,0,4.42,1.84,4.49,4.19H69.23z M50.76,171.01c0.27,1.87,2.18,4.77,6.67,4.77c4.05,0,5.99-2.76,5.99-5.07
		c0-2.42-1.56-4.22-4.53-4.87l-2.65-0.58c-1.26-0.27-1.87-0.99-1.87-1.97c0-1.12,1.09-2.18,2.72-2.18c2.59,0,3.27,1.87,3.4,2.72
		l2.82-1.05c-0.34-1.46-1.74-4.39-6.23-4.39c-3.2,0-5.82,2.38-5.82,5.17c0,2.31,1.53,4.05,4.08,4.59l2.79,0.61
		c1.36,0.31,2.11,1.09,2.11,2.11c0,1.16-0.99,2.18-2.79,2.18c-2.31,0-3.61-1.36-3.81-3.06L50.76,171.01z M36.05,173.3
		c0,0.68,0.07,1.6,0.14,1.97h3.06c-0.07-0.58-0.17-1.74-0.17-3.03V158.9h-3.2v9.87c0,2.48-1.29,4.18-3.88,4.18
		c-2.69,0-3.71-1.97-3.71-4.22v-9.83h-3.2v10.31c0,3.71,2.31,6.57,6.13,6.57C33.12,175.78,35.16,175,36.05,173.3 M11.78,154.61
		l4.18,10.82h-8.3L11.78,154.61z M19.78,175.27h3.61l-9.6-24.13H9.95l-9.6,24.13h3.57l2.55-6.74h10.69L19.78,175.27z"/>
</g>
</svg>