<svg width="565" height="193" viewBox="0 0 565 193" fill="none" xmlns="http://www.w3.org/2000/svg">
<path d="M0.159973 48.81C0.159973 63.31 11.92 75.07 26.42 75.07C40.92 75.07 52.68 63.31 52.68 48.81C52.68 34.31 40.92 22.55 26.42 22.55C11.91 22.55 0.159973 34.31 0.159973 48.81Z" fill="#1ECAD3"/>
<path d="M52.48 75.07H104.61C104.61 104.08 81.27 127.59 52.48 127.59V75.07Z" fill="#90B3E6"/>
<path d="M104.6 22.55V75.07H52.48C52.48 46.06 75.81 22.55 104.6 22.55Z" fill="#0071CE"/>
<path d="M52.48 75.07H0.349976C0.349976 104.08 23.69 127.59 52.48 127.59C52.48 127.59 52.48 75.07 52.48 75.07Z" fill="#D0DDF4"/>
<path d="M219.79 87.33V22.58H205.71V87.33C205.71 102.2 193.61 114.3 178.74 114.3C163.87 114.3 151.77 102.2 151.77 87.33V22.52H137.69V87.33C137.69 109.96 156.1 128.38 178.74 128.38C201.38 128.38 219.79 109.96 219.79 87.33ZM284 71.41H284.59V58.81C282.22 57.33 278.66 56.14 274.06 56.14C263.53 56.14 256.27 60.44 252.12 68.74H251.83L251.53 57.62H240.86V126.99H253.46V95.42C253.46 77.34 259.83 68.14 273.18 68.14C277.33 68.14 281.04 69.33 284 71.41ZM307.57 77.78C307.57 71.55 313.35 67.4 322.24 67.4C331.88 67.4 339.29 69.92 344.03 74.81H344.62V61.48C339.43 58.07 331.13 56.14 321.94 56.14C305.78 56.14 295.11 65.03 295.11 78.23C295.11 90.83 301.78 96.61 320.01 97.8C332.46 98.54 336.32 101.21 336.32 106.84C336.32 113.21 330.39 117.22 320.9 117.22C309.78 117.22 301.18 113.96 295.55 107.58H294.96V121.22C300.74 125.96 309.78 128.48 321.34 128.48C338.24 128.48 348.76 120.18 348.76 106.84C348.76 93.2 341.79 86.83 322.82 85.79C311.27 85.19 307.57 82.82 307.57 77.78ZM373.82 77.78C373.82 71.55 379.6 67.4 388.5 67.4C398.14 67.4 405.55 69.92 410.29 74.81H410.88V61.48C405.69 58.07 397.39 56.14 388.2 56.14C372.04 56.14 361.37 65.03 361.37 78.23C361.37 90.83 368.04 96.61 386.27 97.8C398.72 98.54 402.58 101.21 402.58 106.84C402.58 113.21 396.65 117.22 387.16 117.22C376.04 117.22 367.44 113.96 361.81 107.58H361.22V121.22C367 125.96 376.04 128.48 387.6 128.48C404.5 128.48 415.02 120.18 415.02 106.84C415.02 93.2 408.05 86.83 389.08 85.79C377.53 85.19 373.82 82.82 373.82 77.78ZM488.11 92.31C488.11 106.98 478.18 117.21 464.1 117.21C449.87 117.21 440.09 106.98 440.09 92.31C440.09 77.63 449.87 67.41 464.1 67.41C478.18 67.4 488.11 77.63 488.11 92.31ZM489.59 127H500.26V57.62H489.59L489.15 68.74H488.85C483.66 60.88 474.17 56.14 462.02 56.14C441.86 56.14 427.33 71.26 427.33 92.31C427.33 113.36 441.85 128.48 462.02 128.48C474.17 128.48 483.66 123.74 488.85 116.03H489.15L489.59 127ZM564.15 36.9V25.04C561.19 23.56 556.29 22.52 550.51 22.52C535.54 22.52 527.24 31.41 527.24 47.13V59.1H514.49V70.07H527.24V126.99H539.99V70.07H562.23V59.1H539.99V47.43C539.99 38.54 544.44 33.79 552.29 33.79C556.29 33.79 560.59 34.97 563.56 36.9H564.15Z" fill="#1A428A"/>
<path d="M174.481 153.608C177.982 153.608 180.755 154.648 182.801 156.728C184.881 158.773 185.921 161.859 185.921 165.984V182H177.809V167.232C177.809 165.013 177.341 163.367 176.405 162.292C175.503 161.183 174.203 160.628 172.505 160.628C170.598 160.628 169.09 161.252 167.981 162.5C166.871 163.713 166.317 165.533 166.317 167.96V182H158.205V167.232C158.205 162.829 156.437 160.628 152.901 160.628C151.029 160.628 149.538 161.252 148.429 162.5C147.319 163.713 146.765 165.533 146.765 167.96V182H138.653V154.024H146.401V157.248C147.441 156.069 148.706 155.168 150.197 154.544C151.722 153.92 153.386 153.608 155.189 153.608C157.165 153.608 158.95 154.007 160.545 154.804C162.139 155.567 163.422 156.693 164.393 158.184C165.537 156.728 166.975 155.601 168.709 154.804C170.477 154.007 172.401 153.608 174.481 153.608ZM207.108 182.416C204.162 182.416 201.51 181.809 199.152 180.596C196.83 179.348 195.01 177.632 193.692 175.448C192.375 173.264 191.716 170.785 191.716 168.012C191.716 165.239 192.375 162.76 193.692 160.576C195.01 158.392 196.83 156.693 199.152 155.48C201.51 154.232 204.162 153.608 207.108 153.608C210.055 153.608 212.69 154.232 215.012 155.48C217.335 156.693 219.155 158.392 220.472 160.576C221.79 162.76 222.448 165.239 222.448 168.012C222.448 170.785 221.79 173.264 220.472 175.448C219.155 177.632 217.335 179.348 215.012 180.596C212.69 181.809 210.055 182.416 207.108 182.416ZM207.108 175.76C209.188 175.76 210.887 175.067 212.204 173.68C213.556 172.259 214.232 170.369 214.232 168.012C214.232 165.655 213.556 163.783 212.204 162.396C210.887 160.975 209.188 160.264 207.108 160.264C205.028 160.264 203.312 160.975 201.96 162.396C200.608 163.783 199.932 165.655 199.932 168.012C199.932 170.369 200.608 172.259 201.96 173.68C203.312 175.067 205.028 175.76 207.108 175.76ZM245.175 153.608C248.641 153.608 251.432 154.648 253.547 156.728C255.696 158.808 256.771 161.893 256.771 165.984V182H248.659V167.232C248.659 165.013 248.173 163.367 247.203 162.292C246.232 161.183 244.828 160.628 242.991 160.628C240.945 160.628 239.316 161.269 238.103 162.552C236.889 163.8 236.283 165.672 236.283 168.168V182H228.171V154.024H235.919V157.3C236.993 156.121 238.328 155.22 239.923 154.596C241.517 153.937 243.268 153.608 245.175 153.608ZM312.186 168.116C312.186 168.22 312.134 168.948 312.03 170.3H290.866C291.248 172.033 292.149 173.403 293.57 174.408C294.992 175.413 296.76 175.916 298.874 175.916C300.33 175.916 301.613 175.708 302.722 175.292C303.866 174.841 304.924 174.148 305.894 173.212L310.21 177.892C307.576 180.908 303.728 182.416 298.666 182.416C295.512 182.416 292.721 181.809 290.294 180.596C287.868 179.348 285.996 177.632 284.678 175.448C283.361 173.264 282.702 170.785 282.702 168.012C282.702 165.273 283.344 162.812 284.626 160.628C285.944 158.409 287.729 156.693 289.982 155.48C292.27 154.232 294.818 153.608 297.626 153.608C300.365 153.608 302.844 154.197 305.062 155.376C307.281 156.555 309.014 158.253 310.262 160.472C311.545 162.656 312.186 165.204 312.186 168.116ZM297.678 159.744C295.841 159.744 294.298 160.264 293.05 161.304C291.802 162.344 291.04 163.765 290.762 165.568H304.542C304.265 163.8 303.502 162.396 302.254 161.356C301.006 160.281 299.481 159.744 297.678 159.744ZM334.891 153.608C338.358 153.608 341.148 154.648 343.263 156.728C345.412 158.808 346.487 161.893 346.487 165.984V182H338.375V167.232C338.375 165.013 337.89 163.367 336.919 162.292C335.948 161.183 334.544 160.628 332.707 160.628C330.662 160.628 329.032 161.269 327.819 162.552C326.606 163.8 325.999 165.672 325.999 168.168V182H317.887V154.024H325.635V157.3C326.71 156.121 328.044 155.22 329.639 154.596C331.234 153.937 332.984 153.608 334.891 153.608ZM372.184 180.648C371.387 181.237 370.399 181.688 369.22 182C368.076 182.277 366.863 182.416 365.58 182.416C362.252 182.416 359.669 181.567 357.832 179.868C356.029 178.169 355.128 175.673 355.128 172.38V160.888H350.812V154.648H355.128V147.836H363.24V154.648H370.208V160.888H363.24V172.276C363.24 173.455 363.535 174.373 364.124 175.032C364.748 175.656 365.615 175.968 366.724 175.968C368.007 175.968 369.099 175.621 370 174.928L372.184 180.648ZM384.786 157.716C385.756 156.364 387.056 155.341 388.686 154.648C390.35 153.955 392.256 153.608 394.406 153.608V161.096C393.504 161.027 392.898 160.992 392.586 160.992C390.263 160.992 388.443 161.651 387.126 162.968C385.808 164.251 385.15 166.192 385.15 168.792V182H377.038V154.024H384.786V157.716ZM426.679 168.116C426.679 168.22 426.627 168.948 426.523 170.3H405.359C405.741 172.033 406.642 173.403 408.063 174.408C409.485 175.413 411.253 175.916 413.367 175.916C414.823 175.916 416.106 175.708 417.215 175.292C418.359 174.841 419.417 174.148 420.387 173.212L424.703 177.892C422.069 180.908 418.221 182.416 413.159 182.416C410.005 182.416 407.214 181.809 404.787 180.596C402.361 179.348 400.489 177.632 399.171 175.448C397.854 173.264 397.195 170.785 397.195 168.012C397.195 165.273 397.837 162.812 399.119 160.628C400.437 158.409 402.222 156.693 404.475 155.48C406.763 154.232 409.311 153.608 412.119 153.608C414.858 153.608 417.337 154.197 419.555 155.376C421.774 156.555 423.507 158.253 424.755 160.472C426.038 162.656 426.679 165.204 426.679 168.116ZM412.171 159.744C410.334 159.744 408.791 160.264 407.543 161.304C406.295 162.344 405.533 163.765 405.255 165.568H419.035C418.758 163.8 417.995 162.396 416.747 161.356C415.499 160.281 413.974 159.744 412.171 159.744ZM448.916 153.608C451.516 153.608 453.873 154.215 455.988 155.428C458.137 156.607 459.819 158.288 461.032 160.472C462.245 162.621 462.852 165.135 462.852 168.012C462.852 170.889 462.245 173.42 461.032 175.604C459.819 177.753 458.137 179.435 455.988 180.648C453.873 181.827 451.516 182.416 448.916 182.416C445.345 182.416 442.537 181.289 440.492 179.036V192.088H432.38V154.024H440.128V157.248C442.139 154.821 445.068 153.608 448.916 153.608ZM447.512 175.76C449.592 175.76 451.291 175.067 452.608 173.68C453.96 172.259 454.636 170.369 454.636 168.012C454.636 165.655 453.96 163.783 452.608 162.396C451.291 160.975 449.592 160.264 447.512 160.264C445.432 160.264 443.716 160.975 442.364 162.396C441.047 163.783 440.388 165.655 440.388 168.012C440.388 170.369 441.047 172.259 442.364 173.68C443.716 175.067 445.432 175.76 447.512 175.76ZM476.33 157.716C477.301 156.364 478.601 155.341 480.23 154.648C481.894 153.955 483.801 153.608 485.95 153.608V161.096C485.049 161.027 484.442 160.992 484.13 160.992C481.808 160.992 479.988 161.651 478.67 162.968C477.353 164.251 476.694 166.192 476.694 168.792V182H468.582V154.024H476.33V157.716ZM491.074 154.024H499.186V182H491.074V154.024ZM495.13 150.124C493.639 150.124 492.426 149.691 491.49 148.824C490.554 147.957 490.086 146.883 490.086 145.6C490.086 144.317 490.554 143.243 491.49 142.376C492.426 141.509 493.639 141.076 495.13 141.076C496.62 141.076 497.834 141.492 498.77 142.324C499.706 143.156 500.174 144.196 500.174 145.444C500.174 146.796 499.706 147.923 498.77 148.824C497.834 149.691 496.62 150.124 495.13 150.124ZM516.426 182.416C514.104 182.416 511.833 182.139 509.614 181.584C507.396 180.995 505.628 180.267 504.31 179.4L507.014 173.576C508.262 174.373 509.77 175.032 511.538 175.552C513.306 176.037 515.04 176.28 516.738 176.28C520.17 176.28 521.886 175.431 521.886 173.732C521.886 172.935 521.418 172.363 520.482 172.016C519.546 171.669 518.108 171.375 516.166 171.132C513.878 170.785 511.989 170.387 510.498 169.936C509.008 169.485 507.708 168.688 506.598 167.544C505.524 166.4 504.986 164.771 504.986 162.656C504.986 160.888 505.489 159.328 506.494 157.976C507.534 156.589 509.025 155.515 510.966 154.752C512.942 153.989 515.265 153.608 517.934 153.608C519.91 153.608 521.869 153.833 523.81 154.284C525.786 154.7 527.416 155.289 528.698 156.052L525.994 161.824C523.533 160.437 520.846 159.744 517.934 159.744C516.201 159.744 514.901 159.987 514.034 160.472C513.168 160.957 512.734 161.581 512.734 162.344C512.734 163.211 513.202 163.817 514.138 164.164C515.074 164.511 516.565 164.84 518.61 165.152C520.898 165.533 522.77 165.949 524.226 166.4C525.682 166.816 526.948 167.596 528.022 168.74C529.097 169.884 529.634 171.479 529.634 173.524C529.634 175.257 529.114 176.8 528.074 178.152C527.034 179.504 525.509 180.561 523.498 181.324C521.522 182.052 519.165 182.416 516.426 182.416ZM562.343 168.116C562.343 168.22 562.291 168.948 562.187 170.3H541.023C541.405 172.033 542.306 173.403 543.727 174.408C545.149 175.413 546.917 175.916 549.031 175.916C550.487 175.916 551.77 175.708 552.879 175.292C554.023 174.841 555.081 174.148 556.051 173.212L560.367 177.892C557.733 180.908 553.885 182.416 548.823 182.416C545.669 182.416 542.878 181.809 540.451 180.596C538.025 179.348 536.153 177.632 534.835 175.448C533.518 173.264 532.859 170.785 532.859 168.012C532.859 165.273 533.501 162.812 534.783 160.628C536.101 158.409 537.886 156.693 540.139 155.48C542.427 154.232 544.975 153.608 547.783 153.608C550.522 153.608 553.001 154.197 555.219 155.376C557.438 156.555 559.171 158.253 560.419 160.472C561.702 162.656 562.343 165.204 562.343 168.116ZM547.835 159.744C545.998 159.744 544.455 160.264 543.207 161.304C541.959 162.344 541.197 163.765 540.919 165.568H554.699C554.422 163.8 553.659 162.396 552.411 161.356C551.163 160.281 549.638 159.744 547.835 159.744Z" fill="#1D458C"/>
<path d="M263.384 164.112H278.1V170.612H263.384V164.112Z" fill="#CC2434"/>
</svg>
