<svg xmlns="http://www.w3.org/2000/svg" xmlns:xlink="http://www.w3.org/1999/xlink" version="1.1" id="Calque_1" x="0px" y="0px" width="100px" height="100px" viewBox="0 0 100 100" enable-background="new 0 0 100 100" xml:space="preserve">
<path fill="#000000" d="M94.455,22.233c-0.004-0.027-0.008-0.054-0.012-0.081c-0.019-0.112-0.041-0.223-0.072-0.333  c-0.006-0.022-0.01-0.044-0.018-0.065c-0.035-0.123-0.08-0.246-0.133-0.365c-0.015-0.027-0.027-0.052-0.039-0.079  c-0.027-0.059-0.056-0.118-0.086-0.176c-0.019-0.032-0.041-0.062-0.062-0.093c-0.019-0.033-0.039-0.065-0.06-0.098  c-0.063-0.098-0.133-0.193-0.205-0.282c-0.008-0.009-0.016-0.019-0.021-0.028c-0.086-0.103-0.181-0.195-0.276-0.285  c-0.021-0.018-0.039-0.034-0.062-0.051c-0.086-0.075-0.175-0.145-0.267-0.208c-0.02-0.014-0.039-0.028-0.059-0.041  c-0.109-0.073-0.225-0.138-0.344-0.195c-0.008-0.004-0.014-0.01-0.023-0.014L51.348-0.033c-0.852-0.409-1.843-0.409-2.694,0  L7.279,19.838c-1.078,0.518-1.764,1.608-1.764,2.804v51.116c0,1.131,0.613,2.172,1.602,2.721l41.375,22.942  c0.001,0.001,0.003,0.002,0.004,0.002c0.109,0.062,0.223,0.114,0.34,0.162c0.02,0.008,0.039,0.015,0.059,0.021  c0.093,0.035,0.189,0.066,0.287,0.094c0.031,0.008,0.062,0.017,0.093,0.023c0.089,0.022,0.18,0.038,0.272,0.053  c0.03,0.005,0.061,0.011,0.092,0.015c0.119,0.015,0.239,0.022,0.362,0.022c0.122,0,0.243-0.01,0.361-0.022  c0.031-0.004,0.062-0.01,0.092-0.015c0.092-0.015,0.183-0.029,0.271-0.053c0.031-0.008,0.064-0.017,0.096-0.023  c0.097-0.026,0.191-0.059,0.285-0.094c0.021-0.006,0.039-0.014,0.06-0.021c0.114-0.048,0.229-0.101,0.34-0.162  c0.002,0,0.004-0.001,0.004-0.002l41.375-22.942c0.988-0.549,1.603-1.59,1.603-2.721V22.642c0-0.002,0-0.004,0-0.007  C94.484,22.501,94.473,22.367,94.455,22.233z M88.268,71.924L53.111,91.422V80.459c0-1.718-1.394-3.109-3.111-3.109  s-3.11,1.393-3.11,3.109v10.963L11.735,71.926V27.689c3.692,0.649,7.001,2.428,9.548,4.976l6.278,6.935  c-1.046,1.328-2.385,3.19-2.758,4.592c-0.852,3.195-0.326,6.432,1.208,9.086l20.724-12.01c-1.538-2.65-4.085-4.716-7.282-5.567  c-1.854-0.493-4.69-0.179-6.47,0.188l-0.475,0.304l-7.006-7.749c-2.653-2.652-5.927-4.682-9.58-5.857L50,6.22l34.604,16.62  L62.057,35.344c-1.502,0.833-2.045,2.726-1.211,4.229c0.568,1.024,1.629,1.603,2.723,1.603c0.509,0,1.027-0.126,1.504-0.392  l23.193-12.86v18.553h-0.188c0,10.202-8.298,18.5-18.5,18.5c-3.63,0-7.005-1.064-9.861-2.877c0.39-1.024,0.611-2.131,0.611-3.291  c0-2.555-1.035-4.867-2.707-6.541l-2.369,2.367l-4.594-4.592l-0.003,0.003c-0.6-0.601-1.574-0.601-2.175,0.001  c-0.601,0.602-0.601,1.576,0,2.176l4.591,4.592l-3.987,3.986l-4.728-4.728l-0.003,0.003c-0.602-0.602-1.576-0.602-2.176,0  c-0.601,0.602-0.601,1.576,0,2.177l4.729,4.729l-2.369,2.367c1.676,1.674,3.987,2.709,6.542,2.709c1.674,0,3.238-0.451,4.594-1.228  c3.963,2.715,8.75,4.312,13.906,4.312c7.467,0,14.162-3.338,18.689-8.596V71.924z"/>
</svg>