<?xml version="1.0" encoding="UTF-8" standalone="no"?>
<!-- Created with Inkscape (http://www.inkscape.org/) -->

<svg
   xmlns:dc="http://purl.org/dc/elements/1.1/"
   xmlns:cc="http://creativecommons.org/ns#"
   xmlns:rdf="http://www.w3.org/1999/02/22-rdf-syntax-ns#"
   xmlns:svg="http://www.w3.org/2000/svg"
   xmlns="http://www.w3.org/2000/svg"
   version="1.2"
   width="100"
   height="100"
   viewBox="0 0 500 500"
   id="svg3907">
  <defs
     id="defs3909" />
  <metadata
     id="metadata3912">
    <rdf:RDF>
      <cc:Work
         rdf:about="">
        <dc:format>image/svg+xml</dc:format>
        <dc:type
           rdf:resource="http://purl.org/dc/dcmitype/StillImage" />
        <dc:title></dc:title>
      </cc:Work>
    </rdf:RDF>
  </metadata>
  <g
     transform="translate(-130,-184)"
     id="layer1">
    <g
       transform="matrix(3.7620511,0,0,3.5498239,-341.52659,-662.17695)"
       id="flowRoot3915">
      <path
         d="m 170.05469,367.26562 -5.55469,0 c -6.75005,-2e-5 -11.62505,-1.82814 -14.625,-5.48437 -2.95317,-3.60939 -4.42973,-10.33595 -4.42969,-20.17969 l 0,-6.75 c -4e-5,-8.76561 -1.14847,-14.85935 -3.44531,-18.28125 -2.29691,-3.46872 -6.00003,-5.20309 -11.10938,-5.20312 l 0,-11.46094 c 5.10935,4e-5 8.81247,-1.71089 11.10938,-5.13281 2.29684,-3.4687 3.44527,-9.58588 3.44531,-18.35157 l 0,-6.82031 c -4e-5,-9.79679 1.47652,-16.49991 4.42969,-20.10937 2.99995,-3.65616 7.87495,-5.48428 14.625,-5.48438 l 5.55469,0 0,9.21094 -2.10938,0 c -4.35943,9e-5 -7.4063,0.93759 -9.14062,2.8125 -1.68755,1.87509 -2.5313,6.35164 -2.53125,13.42969 l 0,4.5 c -5e-5,9.70318 -1.12505,16.85161 -3.375,21.44531 -2.25005,4.59379 -6.07036,7.99223 -11.46094,10.19531 5.39058,2.25004 9.21089,5.67191 11.46094,10.26563 2.24995,4.59377 3.37495,11.7422 3.375,21.44531 l 0,4.5 c -5e-5,7.07812 0.8437,11.55468 2.53125,13.42969 1.73432,1.87498 4.78119,2.81248 9.14062,2.8125 l 2.10938,0 0,9.21093"
         id="path3951"/>
      <path
         d="m 252.95312,311.36719 c -5.06255,3e-5 -8.76567,1.7344 -11.10937,5.20312 -2.29692,3.4219 -3.44536,9.51564 -3.44531,18.28125 l 0,6.75 c -5e-5,9.84374 -1.47661,16.5703 -4.42969,20.17969 -2.95316,3.65623 -7.80472,5.48435 -14.55469,5.48437 l -5.625,0 0,-9.21093 2.17969,0 c 4.35935,-2e-5 7.38278,-0.93752 9.07031,-2.8125 1.73434,-1.87501 2.60153,-6.35157 2.60156,-13.42969 l 0,-4.5 c -3e-5,-9.70311 1.12497,-16.85154 3.375,-21.44531 2.24996,-4.59372 6.07027,-8.01559 11.46094,-10.26563 -5.39067,-2.20308 -9.21098,-5.60152 -11.46094,-10.19531 -2.25003,-4.5937 -3.37503,-11.74213 -3.375,-21.44531 l 0,-4.5 c -3e-5,-7.07805 -0.86722,-11.5546 -2.60156,-13.42969 -1.68753,-1.87491 -4.71096,-2.81241 -9.07031,-2.8125 l -2.17969,0 0,-9.21094 5.625,0 c 6.74997,1e-4 11.60153,1.82822 14.55469,5.48438 2.95308,3.60946 4.42964,10.31258 4.42969,20.10937 l 0,6.82031 c -5e-5,7.92194 1.0312,13.82818 3.09375,17.71875 2.06245,3.8438 5.88275,5.76567 11.46093,5.76563 l 0,11.46094"
         id="path3953" />
    </g>
  </g>
</svg>
