<?xml version="1.0" encoding="UTF-8" standalone="no"?>
<svg
   xmlns:dc="http://purl.org/dc/elements/1.1/"
   xmlns:cc="http://creativecommons.org/ns#"
   xmlns:rdf="http://www.w3.org/1999/02/22-rdf-syntax-ns#"
   xmlns:svg="http://www.w3.org/2000/svg"
   xmlns="http://www.w3.org/2000/svg"
   xmlns:sodipodi="http://sodipodi.sourceforge.net/DTD/sodipodi-0.dtd"
   xmlns:inkscape="http://www.inkscape.org/namespaces/inkscape"
   width="45mm"
   height="60mm"
   viewBox="0 0 159.44882 212.59842"
   id="svg2"
   version="1.1"
   inkscape:version="0.91 r13725"
   sodipodi:docname="logo-SGMAP-fond-blanc.svg">
  <sodipodi:namedview
     pagecolor="#ffffff"
     bordercolor="#666666"
     borderopacity="1"
     objecttolerance="10"
     gridtolerance="10"
     guidetolerance="10"
     inkscape:pageopacity="0"
     inkscape:pageshadow="2"
     inkscape:window-width="1920"
     inkscape:window-height="1008"
     id="namedview296"
     showgrid="false"
     inkscape:zoom="12.559054"
     inkscape:cx="135.05568"
     inkscape:cy="115.64032"
     inkscape:window-x="0"
     inkscape:window-y="30"
     inkscape:window-maximized="1"
     inkscape:current-layer="g3363" />
  <defs
     id="defs4">
    <clipPath
       id="clipPath3371"
       clipPathUnits="userSpaceOnUse">
      <path
         id="path3373"
         d="m 234.779,638.214 119.584,0 0,161.156 -119.584,0 0,-161.156 z" />
    </clipPath>
    <clipPath
       id="clipPath3569"
       clipPathUnits="userSpaceOnUse">
      <path
         id="path3571"
         d="m 250.39,757.544 89.247,0 0,29.949 -89.247,0 0,-29.949 z" />
    </clipPath>
    <clipPath
       id="clipPath3625"
       clipPathUnits="userSpaceOnUse">
      <path
         id="path3627"
         d="m 110.777,504.802 5.388,0 0,5.386 -5.388,0 0,-5.386 z" />
    </clipPath>
    <clipPath
       id="clipPath3635"
       clipPathUnits="userSpaceOnUse">
      <path
         id="path3637"
         d="m 110.77658,504.80197 5.38799,0 0,5.38681 -5.38799,0 0,-5.38681 z" />
    </clipPath>
    <linearGradient
       id="linearGradient3639"
       spreadMethod="pad"
       gradientTransform="matrix(105.59995,0,0,105.59995,109.05099,507.5015)"
       gradientUnits="userSpaceOnUse"
       y2="0"
       x2="1"
       y1="0"
       x1="0">
      <stop
         id="stop3641"
         offset="0"
         style="stop-opacity:1;stop-color:#e43526" />
      <stop
         id="stop3643"
         offset="1"
         style="stop-opacity:1;stop-color:#1d4893" />
    </linearGradient>
    <clipPath
       id="clipPath3651"
       clipPathUnits="userSpaceOnUse">
      <path
         id="path3653"
         d="m 129.925,504.803 5.388,0 0,5.387 -5.388,0 0,-5.387 z" />
    </clipPath>
    <clipPath
       id="clipPath3661"
       clipPathUnits="userSpaceOnUse">
      <path
         id="path3663"
         d="m 129.92498,504.80318 5.38804,0 0,5.38681 -5.38804,0 0,-5.38681 z" />
    </clipPath>
    <linearGradient
       id="linearGradient3665"
       spreadMethod="pad"
       gradientTransform="matrix(105.60021,0,0,105.60021,109.05099,507.5015)"
       gradientUnits="userSpaceOnUse"
       y2="0"
       x2="1"
       y1="0"
       x1="0">
      <stop
         id="stop3667"
         offset="0"
         style="stop-opacity:1;stop-color:#e43526" />
      <stop
         id="stop3669"
         offset="1"
         style="stop-opacity:1;stop-color:#1d4893" />
    </linearGradient>
    <clipPath
       id="clipPath3677"
       clipPathUnits="userSpaceOnUse">
      <path
         id="path3679"
         d="m 149.074,504.803 5.388,0 0,5.387 -5.388,0 0,-5.387 z" />
    </clipPath>
    <clipPath
       id="clipPath3687"
       clipPathUnits="userSpaceOnUse">
      <path
         id="path3689"
         d="m 149.07453,504.80319 5.38803,0 0,5.38679 -5.38803,0 0,-5.38679 z" />
    </clipPath>
    <clipPath
       id="clipPath3703"
       clipPathUnits="userSpaceOnUse">
      <path
         id="path3705"
         d="m 168.224,504.803 5.386,0 0,5.387 -5.386,0 0,-5.387 z" />
    </clipPath>
    <clipPath
       id="clipPath3713"
       clipPathUnits="userSpaceOnUse">
      <path
         id="path3715"
         d="m 168.22413,504.80319 5.3856,0 0,5.38679 -5.3856,0 0,-5.38679 z" />
    </clipPath>
    <clipPath
       id="clipPath3729"
       clipPathUnits="userSpaceOnUse">
      <path
         id="path3731"
         d="m 187.37,504.803 5.389,0 0,5.387 -5.389,0 0,-5.387 z" />
    </clipPath>
    <clipPath
       id="clipPath3739"
       clipPathUnits="userSpaceOnUse">
      <path
         id="path3741"
         d="m 187.37012,504.80318 5.38931,0 0,5.38681 -5.38931,0 0,-5.38681 z" />
    </clipPath>
    <clipPath
       id="clipPath3755"
       clipPathUnits="userSpaceOnUse">
      <path
         id="path3757"
         d="m 206.521,504.803 5.387,0 0,5.387 -5.387,0 0,-5.387 z" />
    </clipPath>
    <clipPath
       id="clipPath3765"
       clipPathUnits="userSpaceOnUse">
      <path
         id="path3767"
         d="m 206.52101,504.80319 5.38676,0 0,5.38679 -5.38676,0 0,-5.38679 z" />
    </clipPath>
    <clipPath
       id="clipPath3781"
       clipPathUnits="userSpaceOnUse">
      <path
         id="path3783"
         d="m 110.777,488.243 5.388,0 0,5.386 -5.388,0 0,-5.386 z" />
    </clipPath>
    <clipPath
       id="clipPath3791"
       clipPathUnits="userSpaceOnUse">
      <path
         id="path3793"
         d="m 110.77658,488.24318 5.38799,0 0,5.3856 -5.38799,0 0,-5.3856 z" />
    </clipPath>
    <linearGradient
       id="linearGradient3795"
       spreadMethod="pad"
       gradientTransform="matrix(105.59995,0,0,105.59995,109.05099,490.9265)"
       gradientUnits="userSpaceOnUse"
       y2="0"
       x2="1"
       y1="0"
       x1="0">
      <stop
         id="stop3797"
         offset="0"
         style="stop-opacity:1;stop-color:#e43526" />
      <stop
         id="stop3799"
         offset="1"
         style="stop-opacity:1;stop-color:#1d4893" />
    </linearGradient>
    <clipPath
       id="clipPath3807"
       clipPathUnits="userSpaceOnUse">
      <path
         id="path3809"
         d="m 129.925,488.245 5.388,0 0,5.386 -5.388,0 0,-5.386 z" />
    </clipPath>
    <clipPath
       id="clipPath3817"
       clipPathUnits="userSpaceOnUse">
      <path
         id="path3819"
         d="m 129.92498,488.24438 5.38804,0 0,5.3856 -5.38804,0 0,-5.3856 z" />
    </clipPath>
    <linearGradient
       id="linearGradient3821"
       spreadMethod="pad"
       gradientTransform="matrix(105.60021,0,0,105.60021,109.05099,490.9265)"
       gradientUnits="userSpaceOnUse"
       y2="0"
       x2="1"
       y1="0"
       x1="0">
      <stop
         id="stop3823"
         offset="0"
         style="stop-opacity:1;stop-color:#e43526" />
      <stop
         id="stop3825"
         offset="1"
         style="stop-opacity:1;stop-color:#1d4893" />
    </linearGradient>
    <clipPath
       id="clipPath3833"
       clipPathUnits="userSpaceOnUse">
      <path
         id="path3835"
         d="m 149.074,488.245 5.388,0 0,5.386 -5.388,0 0,-5.386 z" />
    </clipPath>
    <clipPath
       id="clipPath3843"
       clipPathUnits="userSpaceOnUse">
      <path
         id="path3845"
         d="m 149.07453,488.24438 5.38803,0 0,5.38559 -5.38803,0 0,-5.38559 z" />
    </clipPath>
    <clipPath
       id="clipPath3859"
       clipPathUnits="userSpaceOnUse">
      <path
         id="path3861"
         d="m 168.224,488.245 5.386,0 0,5.386 -5.386,0 0,-5.386 z" />
    </clipPath>
    <clipPath
       id="clipPath3869"
       clipPathUnits="userSpaceOnUse">
      <path
         id="path3871"
         d="m 168.22413,488.24438 5.3856,0 0,5.38559 -5.3856,0 0,-5.38559 z" />
    </clipPath>
    <clipPath
       id="clipPath3885"
       clipPathUnits="userSpaceOnUse">
      <path
         id="path3887"
         d="m 187.37,488.245 5.389,0 0,5.386 -5.389,0 0,-5.386 z" />
    </clipPath>
    <clipPath
       id="clipPath3895"
       clipPathUnits="userSpaceOnUse">
      <path
         id="path3897"
         d="m 187.37012,488.24438 5.38931,0 0,5.3856 -5.38931,0 0,-5.3856 z" />
    </clipPath>
    <clipPath
       id="clipPath3911"
       clipPathUnits="userSpaceOnUse">
      <path
         id="path3913"
         d="m 206.521,488.245 5.387,0 0,5.386 -5.387,0 0,-5.386 z" />
    </clipPath>
    <clipPath
       id="clipPath3921"
       clipPathUnits="userSpaceOnUse">
      <path
         id="path3923"
         d="m 206.52101,488.24438 5.38676,0 0,5.38559 -5.38676,0 0,-5.38559 z" />
    </clipPath>
    <clipPath
       id="clipPath3937"
       clipPathUnits="userSpaceOnUse">
      <path
         id="path3939"
         d="m 110.777,471.685 5.388,0 0,5.387 -5.388,0 0,-5.387 z" />
    </clipPath>
    <clipPath
       id="clipPath3947"
       clipPathUnits="userSpaceOnUse">
      <path
         id="path3949"
         d="m 110.77658,471.68438 5.38799,0 0,5.3868 -5.38799,0 0,-5.3868 z" />
    </clipPath>
    <linearGradient
       id="linearGradient3951"
       spreadMethod="pad"
       gradientTransform="matrix(105.59995,0,0,105.59995,109.05099,474.5015)"
       gradientUnits="userSpaceOnUse"
       y2="0"
       x2="1"
       y1="0"
       x1="0">
      <stop
         id="stop3953"
         offset="0"
         style="stop-opacity:1;stop-color:#e43526" />
      <stop
         id="stop3955"
         offset="1"
         style="stop-opacity:1;stop-color:#1d4893" />
    </linearGradient>
    <clipPath
       id="clipPath3963"
       clipPathUnits="userSpaceOnUse">
      <path
         id="path3965"
         d="m 129.925,471.685 5.388,0 0,5.387 -5.388,0 0,-5.387 z" />
    </clipPath>
    <clipPath
       id="clipPath3973"
       clipPathUnits="userSpaceOnUse">
      <path
         id="path3975"
         d="m 129.92498,471.68437 5.38804,0 0,5.38681 -5.38804,0 0,-5.38681 z" />
    </clipPath>
    <linearGradient
       id="linearGradient3977"
       spreadMethod="pad"
       gradientTransform="matrix(105.60021,0,0,105.60021,109.05099,474.5015)"
       gradientUnits="userSpaceOnUse"
       y2="0"
       x2="1"
       y1="0"
       x1="0">
      <stop
         id="stop3979"
         offset="0"
         style="stop-opacity:1;stop-color:#e43526" />
      <stop
         id="stop3981"
         offset="1"
         style="stop-opacity:1;stop-color:#1d4893" />
    </linearGradient>
    <clipPath
       id="clipPath3989"
       clipPathUnits="userSpaceOnUse">
      <path
         id="path3991"
         d="m 149.074,471.685 5.388,0 0,5.387 -5.388,0 0,-5.387 z" />
    </clipPath>
    <clipPath
       id="clipPath3999"
       clipPathUnits="userSpaceOnUse">
      <path
         id="path4001"
         d="m 149.07453,471.68438 5.38803,0 0,5.3868 -5.38803,0 0,-5.3868 z" />
    </clipPath>
    <clipPath
       id="clipPath4015"
       clipPathUnits="userSpaceOnUse">
      <path
         id="path4017"
         d="m 168.224,471.685 5.386,0 0,5.387 -5.386,0 0,-5.387 z" />
    </clipPath>
    <clipPath
       id="clipPath4025"
       clipPathUnits="userSpaceOnUse">
      <path
         id="path4027"
         d="m 168.22413,471.68438 5.3856,0 0,5.3868 -5.3856,0 0,-5.3868 z" />
    </clipPath>
    <clipPath
       id="clipPath4041"
       clipPathUnits="userSpaceOnUse">
      <path
         id="path4043"
         d="m 187.37,471.685 5.389,0 0,5.387 -5.389,0 0,-5.387 z" />
    </clipPath>
    <clipPath
       id="clipPath4051"
       clipPathUnits="userSpaceOnUse">
      <path
         id="path4053"
         d="m 187.37012,471.68437 5.38931,0 0,5.38681 -5.38931,0 0,-5.38681 z" />
    </clipPath>
    <clipPath
       id="clipPath4067"
       clipPathUnits="userSpaceOnUse">
      <path
         id="path4069"
         d="m 206.521,471.685 5.387,0 0,5.387 -5.387,0 0,-5.387 z" />
    </clipPath>
    <clipPath
       id="clipPath4077"
       clipPathUnits="userSpaceOnUse">
      <path
         id="path4079"
         d="m 206.52101,471.68438 5.38676,0 0,5.3868 -5.38676,0 0,-5.3868 z" />
    </clipPath>
    <clipPath
       id="clipPath4093"
       clipPathUnits="userSpaceOnUse">
      <path
         id="path4095"
         d="m 110.777,455.125 5.388,0 0,5.387 -5.388,0 0,-5.387 z" />
    </clipPath>
    <clipPath
       id="clipPath4103"
       clipPathUnits="userSpaceOnUse">
      <path
         id="path4105"
         d="m 110.77658,455.12559 5.38799,0 0,5.38679 -5.38799,0 0,-5.38679 z" />
    </clipPath>
    <linearGradient
       id="linearGradient4107"
       spreadMethod="pad"
       gradientTransform="matrix(105.59995,0,0,105.59995,109.05099,457.8515)"
       gradientUnits="userSpaceOnUse"
       y2="0"
       x2="1"
       y1="0"
       x1="0">
      <stop
         id="stop4109"
         offset="0"
         style="stop-opacity:1;stop-color:#e43526" />
      <stop
         id="stop4111"
         offset="1"
         style="stop-opacity:1;stop-color:#1d4893" />
    </linearGradient>
    <clipPath
       id="clipPath4119"
       clipPathUnits="userSpaceOnUse">
      <path
         id="path4121"
         d="m 129.925,455.125 5.388,0 0,5.387 -5.388,0 0,-5.387 z" />
    </clipPath>
    <clipPath
       id="clipPath4129"
       clipPathUnits="userSpaceOnUse">
      <path
         id="path4131"
         d="m 129.92498,455.12558 5.38804,0 0,5.3868 -5.38804,0 0,-5.3868 z" />
    </clipPath>
    <linearGradient
       id="linearGradient4133"
       spreadMethod="pad"
       gradientTransform="matrix(105.60021,0,0,105.60021,109.05099,457.8515)"
       gradientUnits="userSpaceOnUse"
       y2="0"
       x2="1"
       y1="0"
       x1="0">
      <stop
         id="stop4135"
         offset="0"
         style="stop-opacity:1;stop-color:#e43526" />
      <stop
         id="stop4137"
         offset="1"
         style="stop-opacity:1;stop-color:#1d4893" />
    </linearGradient>
    <clipPath
       id="clipPath4145"
       clipPathUnits="userSpaceOnUse">
      <path
         id="path4147"
         d="m 149.074,455.125 5.388,0 0,5.387 -5.388,0 0,-5.387 z" />
    </clipPath>
    <clipPath
       id="clipPath4155"
       clipPathUnits="userSpaceOnUse">
      <path
         id="path4157"
         d="m 149.07453,455.12559 5.38803,0 0,5.38679 -5.38803,0 0,-5.38679 z" />
    </clipPath>
    <clipPath
       id="clipPath4171"
       clipPathUnits="userSpaceOnUse">
      <path
         id="path4173"
         d="m 168.224,455.125 5.386,0 0,5.387 -5.386,0 0,-5.387 z" />
    </clipPath>
    <clipPath
       id="clipPath4181"
       clipPathUnits="userSpaceOnUse">
      <path
         id="path4183"
         d="m 168.22413,455.12559 5.3856,0 0,5.38679 -5.3856,0 0,-5.38679 z" />
    </clipPath>
    <clipPath
       id="clipPath4197"
       clipPathUnits="userSpaceOnUse">
      <path
         id="path4199"
         d="m 187.37,455.125 5.389,0 0,5.387 -5.389,0 0,-5.387 z" />
    </clipPath>
    <clipPath
       id="clipPath4207"
       clipPathUnits="userSpaceOnUse">
      <path
         id="path4209"
         d="m 187.37012,455.12558 5.38931,0 0,5.3868 -5.38931,0 0,-5.3868 z" />
    </clipPath>
    <clipPath
       id="clipPath4223"
       clipPathUnits="userSpaceOnUse">
      <path
         id="path4225"
         d="m 206.521,455.125 5.387,0 0,5.387 -5.387,0 0,-5.387 z" />
    </clipPath>
    <clipPath
       id="clipPath4233"
       clipPathUnits="userSpaceOnUse">
      <path
         id="path4235"
         d="m 206.52101,455.12559 5.38676,0 0,5.38679 -5.38676,0 0,-5.38679 z" />
    </clipPath>
    <clipPath
       id="clipPath4249"
       clipPathUnits="userSpaceOnUse">
      <path
         id="path4251"
         d="m 110.777,438.566 5.388,0 0,5.388 -5.388,0 0,-5.388 z" />
    </clipPath>
    <clipPath
       id="clipPath4259"
       clipPathUnits="userSpaceOnUse">
      <path
         id="path4261"
         d="m 110.77658,438.56677 5.38799,0 0,5.38801 -5.38799,0 0,-5.38801 z" />
    </clipPath>
    <linearGradient
       id="linearGradient4263"
       spreadMethod="pad"
       gradientTransform="matrix(105.59995,0,0,105.59995,109.05099,441.2765)"
       gradientUnits="userSpaceOnUse"
       y2="0"
       x2="1"
       y1="0"
       x1="0">
      <stop
         id="stop4265"
         offset="0"
         style="stop-opacity:1;stop-color:#e43526" />
      <stop
         id="stop4267"
         offset="1"
         style="stop-opacity:1;stop-color:#1d4893" />
    </linearGradient>
    <clipPath
       id="clipPath4275"
       clipPathUnits="userSpaceOnUse">
      <path
         id="path4277"
         d="m 129.925,438.568 5.388,0 0,5.387 -5.388,0 0,-5.387 z" />
    </clipPath>
    <clipPath
       id="clipPath4285"
       clipPathUnits="userSpaceOnUse">
      <path
         id="path4287"
         d="m 129.92498,438.56798 5.38804,0 0,5.388 -5.38804,0 0,-5.388 z" />
    </clipPath>
    <linearGradient
       id="linearGradient4289"
       spreadMethod="pad"
       gradientTransform="matrix(105.60021,0,0,105.60021,109.05099,441.2765)"
       gradientUnits="userSpaceOnUse"
       y2="0"
       x2="1"
       y1="0"
       x1="0">
      <stop
         id="stop4291"
         offset="0"
         style="stop-opacity:1;stop-color:#e43526" />
      <stop
         id="stop4293"
         offset="1"
         style="stop-opacity:1;stop-color:#1d4893" />
    </linearGradient>
    <clipPath
       id="clipPath4301"
       clipPathUnits="userSpaceOnUse">
      <path
         id="path4303"
         d="m 149.074,438.568 5.388,0 0,5.387 -5.388,0 0,-5.387 z" />
    </clipPath>
    <clipPath
       id="clipPath4311"
       clipPathUnits="userSpaceOnUse">
      <path
         id="path4313"
         d="m 149.07453,438.56798 5.38803,0 0,5.388 -5.38803,0 0,-5.388 z" />
    </clipPath>
    <clipPath
       id="clipPath4327"
       clipPathUnits="userSpaceOnUse">
      <path
         id="path4329"
         d="m 168.224,438.568 5.386,0 0,5.387 -5.386,0 0,-5.387 z" />
    </clipPath>
    <clipPath
       id="clipPath4337"
       clipPathUnits="userSpaceOnUse">
      <path
         id="path4339"
         d="m 168.22413,438.56798 5.3856,0 0,5.388 -5.3856,0 0,-5.388 z" />
    </clipPath>
    <clipPath
       id="clipPath4353"
       clipPathUnits="userSpaceOnUse">
      <path
         id="path4355"
         d="m 187.37,438.568 5.389,0 0,5.387 -5.389,0 0,-5.387 z" />
    </clipPath>
    <clipPath
       id="clipPath4363"
       clipPathUnits="userSpaceOnUse">
      <path
         id="path4365"
         d="m 187.37012,438.56798 5.38931,0 0,5.388 -5.38931,0 0,-5.388 z" />
    </clipPath>
    <clipPath
       id="clipPath4379"
       clipPathUnits="userSpaceOnUse">
      <path
         id="path4381"
         d="m 206.521,438.568 5.387,0 0,5.387 -5.387,0 0,-5.387 z" />
    </clipPath>
    <clipPath
       id="clipPath4389"
       clipPathUnits="userSpaceOnUse">
      <path
         id="path4391"
         d="m 206.52101,438.56798 5.38676,0 0,5.388 -5.38676,0 0,-5.388 z" />
    </clipPath>
    <clipPath
       id="clipPath4405"
       clipPathUnits="userSpaceOnUse">
      <path
         id="path4407"
         d="m 110.777,422.008 5.388,0 0,5.386 -5.388,0 0,-5.386 z" />
    </clipPath>
    <clipPath
       id="clipPath4415"
       clipPathUnits="userSpaceOnUse">
      <path
         id="path4417"
         d="m 110.77658,422.00797 5.38799,0 0,5.3868 -5.38799,0 0,-5.3868 z" />
    </clipPath>
    <linearGradient
       id="linearGradient4419"
       spreadMethod="pad"
       gradientTransform="matrix(105.59995,0,0,105.59995,109.05099,424.7015)"
       gradientUnits="userSpaceOnUse"
       y2="0"
       x2="1"
       y1="0"
       x1="0">
      <stop
         id="stop4421"
         offset="0"
         style="stop-opacity:1;stop-color:#e43526" />
      <stop
         id="stop4423"
         offset="1"
         style="stop-opacity:1;stop-color:#1d4893" />
    </linearGradient>
    <clipPath
       id="clipPath4431"
       clipPathUnits="userSpaceOnUse">
      <path
         id="path4433"
         d="m 129.925,422.009 5.388,0 0,5.387 -5.388,0 0,-5.387 z" />
    </clipPath>
    <clipPath
       id="clipPath4441"
       clipPathUnits="userSpaceOnUse">
      <path
         id="path4443"
         d="m 129.92498,422.00918 5.38804,0 0,5.3868 -5.38804,0 0,-5.3868 z" />
    </clipPath>
    <linearGradient
       id="linearGradient4445"
       spreadMethod="pad"
       gradientTransform="matrix(105.60021,0,0,105.60021,109.05099,424.7015)"
       gradientUnits="userSpaceOnUse"
       y2="0"
       x2="1"
       y1="0"
       x1="0">
      <stop
         id="stop4447"
         offset="0"
         style="stop-opacity:1;stop-color:#e43526" />
      <stop
         id="stop4449"
         offset="1"
         style="stop-opacity:1;stop-color:#1d4893" />
    </linearGradient>
    <clipPath
       id="clipPath4457"
       clipPathUnits="userSpaceOnUse">
      <path
         id="path4459"
         d="m 149.074,422.009 5.388,0 0,5.387 -5.388,0 0,-5.387 z" />
    </clipPath>
    <clipPath
       id="clipPath4467"
       clipPathUnits="userSpaceOnUse">
      <path
         id="path4469"
         d="m 149.07453,422.00918 5.38803,0 0,5.3868 -5.38803,0 0,-5.3868 z" />
    </clipPath>
    <clipPath
       id="clipPath4483"
       clipPathUnits="userSpaceOnUse">
      <path
         id="path4485"
         d="m 168.224,422.009 5.386,0 0,5.387 -5.386,0 0,-5.387 z" />
    </clipPath>
    <clipPath
       id="clipPath4493"
       clipPathUnits="userSpaceOnUse">
      <path
         id="path4495"
         d="m 168.22413,422.00918 5.3856,0 0,5.3868 -5.3856,0 0,-5.3868 z" />
    </clipPath>
    <clipPath
       id="clipPath4509"
       clipPathUnits="userSpaceOnUse">
      <path
         id="path4511"
         d="m 187.37,422.009 5.389,0 0,5.387 -5.389,0 0,-5.387 z" />
    </clipPath>
    <clipPath
       id="clipPath4519"
       clipPathUnits="userSpaceOnUse">
      <path
         id="path4521"
         d="m 187.37012,422.00918 5.38931,0 0,5.3868 -5.38931,0 0,-5.3868 z" />
    </clipPath>
    <clipPath
       id="clipPath4535"
       clipPathUnits="userSpaceOnUse">
      <path
         id="path4537"
         d="m 206.521,422.009 5.387,0 0,5.387 -5.387,0 0,-5.387 z" />
    </clipPath>
    <clipPath
       id="clipPath4545"
       clipPathUnits="userSpaceOnUse">
      <path
         id="path4547"
         d="m 206.52101,422.00918 5.38676,0 0,5.3868 -5.38676,0 0,-5.3868 z" />
    </clipPath>
    <clipPath
       id="clipPath4561"
       clipPathUnits="userSpaceOnUse">
      <path
         id="path4563"
         d="m 110.777,405.449 5.388,0 0,5.387 -5.388,0 0,-5.387 z" />
    </clipPath>
    <clipPath
       id="clipPath4571"
       clipPathUnits="userSpaceOnUse">
      <path
         id="path4573"
         d="m 110.77658,405.44918 5.38799,0 0,5.38679 -5.38799,0 0,-5.38679 z" />
    </clipPath>
    <linearGradient
       id="linearGradient4575"
       spreadMethod="pad"
       gradientTransform="matrix(105.59995,0,0,105.59995,109.05099,408.1265)"
       gradientUnits="userSpaceOnUse"
       y2="0"
       x2="1"
       y1="0"
       x1="0">
      <stop
         id="stop4577"
         offset="0"
         style="stop-opacity:1;stop-color:#e43526" />
      <stop
         id="stop4579"
         offset="1"
         style="stop-opacity:1;stop-color:#1d4893" />
    </linearGradient>
    <clipPath
       id="clipPath4587"
       clipPathUnits="userSpaceOnUse">
      <path
         id="path4589"
         d="m 129.925,405.45 5.388,0 0,5.387 -5.388,0 0,-5.387 z" />
    </clipPath>
    <clipPath
       id="clipPath4597"
       clipPathUnits="userSpaceOnUse">
      <path
         id="path4599"
         d="m 129.92498,405.45038 5.38804,0 0,5.3868 -5.38804,0 0,-5.3868 z" />
    </clipPath>
    <linearGradient
       id="linearGradient4601"
       spreadMethod="pad"
       gradientTransform="matrix(105.60021,0,0,105.60021,109.05099,408.1265)"
       gradientUnits="userSpaceOnUse"
       y2="0"
       x2="1"
       y1="0"
       x1="0">
      <stop
         id="stop4603"
         offset="0"
         style="stop-opacity:1;stop-color:#e43526" />
      <stop
         id="stop4605"
         offset="1"
         style="stop-opacity:1;stop-color:#1d4893" />
    </linearGradient>
    <clipPath
       id="clipPath4613"
       clipPathUnits="userSpaceOnUse">
      <path
         id="path4615"
         d="m 149.074,405.45 5.388,0 0,5.387 -5.388,0 0,-5.387 z" />
    </clipPath>
    <clipPath
       id="clipPath4623"
       clipPathUnits="userSpaceOnUse">
      <path
         id="path4625"
         d="m 149.07453,405.45038 5.38803,0 0,5.3868 -5.38803,0 0,-5.3868 z" />
    </clipPath>
    <clipPath
       id="clipPath4639"
       clipPathUnits="userSpaceOnUse">
      <path
         id="path4641"
         d="m 168.224,405.45 5.386,0 0,5.387 -5.386,0 0,-5.387 z" />
    </clipPath>
    <clipPath
       id="clipPath4649"
       clipPathUnits="userSpaceOnUse">
      <path
         id="path4651"
         d="m 168.22413,405.45038 5.3856,0 0,5.3868 -5.3856,0 0,-5.3868 z" />
    </clipPath>
    <clipPath
       id="clipPath4665"
       clipPathUnits="userSpaceOnUse">
      <path
         id="path4667"
         d="m 187.37,405.45 5.389,0 0,5.387 -5.389,0 0,-5.387 z" />
    </clipPath>
    <clipPath
       id="clipPath4675"
       clipPathUnits="userSpaceOnUse">
      <path
         id="path4677"
         d="m 187.37012,405.45038 5.38931,0 0,5.3868 -5.38931,0 0,-5.3868 z" />
    </clipPath>
    <clipPath
       id="clipPath4691"
       clipPathUnits="userSpaceOnUse">
      <path
         id="path4693"
         d="m 206.521,405.45 5.387,0 0,5.387 -5.387,0 0,-5.387 z" />
    </clipPath>
    <clipPath
       id="clipPath4701"
       clipPathUnits="userSpaceOnUse">
      <path
         id="path4703"
         d="m 206.52101,405.45038 5.38676,0 0,5.3868 -5.38676,0 0,-5.3868 z" />
    </clipPath>
    <clipPath
       id="clipPath4725"
       clipPathUnits="userSpaceOnUse">
      <path
         id="path4727"
         d="m 0,0 595.276,0 0,841.89 L 0,841.89 0,0 Z" />
    </clipPath>
    <clipPath
       id="clipPath4749"
       clipPathUnits="userSpaceOnUse">
      <path
         id="path4751"
         d="m 0,0 595.276,0 0,841.89 L 0,841.89 0,0 Z" />
    </clipPath>
  </defs>
  <metadata
     id="metadata7">
    <rdf:RDF>
      <cc:Work
         rdf:about="">
        <dc:format>image/svg+xml</dc:format>
        <dc:type
           rdf:resource="http://purl.org/dc/dcmitype/StillImage" />
        <dc:title />
      </cc:Work>
    </rdf:RDF>
  </metadata>
  <g
     id="layer1"
     transform="translate(0,-839.76378)"
     inkscape:export-xdpi="90"
     inkscape:export-ydpi="90">
    <g
       transform="matrix(1.25,0,0,-1.25,-0.61892714,1049.9719)"
       id="g3363">
      <path
         d="m 124.16774,2.5232656 -118.8210055,0 0,160.3939944 118.8210055,0 0,-160.3939944 z"
         style="fill:#ffffff;stroke:#000000;stroke-width:0.76300001;stroke-linecap:butt;stroke-linejoin:miter;stroke-miterlimit:4;stroke-dasharray:none;stroke-opacity:1;fill-opacity:1"
         id="path3377" />
      <path
         id="path3365"
         style="fill:#164194;fill-opacity:1;fill-rule:nonzero;stroke:none"
         d="m 5.1112345,73.144162 119.1601655,0 0,18.841 -119.1601655,0 0,-18.841 z"
         inkscape:connector-curvature="0" />
      <path
         d="m 22.863634,105.58756 c -0.177,0 -0.337,-0.027 -0.533,-0.072 0,-0.523 -0.009,-1.475 -0.009,-2.212 0.098,-0.018 0.275,-0.027 0.391,-0.027 0.729,0 1.217,0.453 1.217,1.146 0,0.676 -0.452,1.165 -1.066,1.165 m 2.285,-5.563 c -0.33,0 -0.516,0.044 -0.703,0.168 -0.293,0.196 -0.604,0.729 -0.782,1.031 -0.302,0.524 -0.64,1.084 -0.959,1.555 -0.054,-0.009 -0.098,-0.009 -0.134,-0.009 -0.089,0 -0.16,0.009 -0.249,0.009 l 0,-0.471 c 0,-0.24 0.009,-0.48 0.009,-0.72 0.009,-0.479 0.017,-0.684 0.089,-0.871 0.089,-0.231 0.249,-0.346 0.542,-0.373 l 0,-0.249 -0.205,0.009 c -0.23,0.009 -0.55,0 -0.968,0 -0.409,0 -0.729,0.009 -0.96,0 l -0.213,-0.009 0,0.249 c 0.222,0.018 0.329,0.062 0.435,0.178 0.098,0.115 0.16,0.276 0.178,0.48 0.026,0.266 0.035,0.426 0.035,1.306 l 0,1.493 c 0,1.084 -0.035,1.351 -0.097,1.6 -0.063,0.24 -0.249,0.338 -0.551,0.374 l 0,0.249 c 0.177,-0.019 0.355,-0.009 0.533,-0.009 0.462,0 0.604,0 1.155,0.026 0.48,0.018 0.756,0.026 0.969,0.026 0.604,0 0.969,-0.088 1.271,-0.301 0.338,-0.24 0.56,-0.703 0.56,-1.164 0,-0.729 -0.48,-1.325 -1.298,-1.627 0.338,-0.427 0.604,-0.853 0.915,-1.343 0.285,-0.453 0.569,-0.844 0.791,-1.066 0.125,-0.133 0.206,-0.177 0.374,-0.222 l 0,-0.249 c -0.231,-0.053 -0.462,-0.07 -0.737,-0.07"
         style="fill:#000000;fill-opacity:1;fill-rule:nonzero;stroke:none"
         id="path3381" />
      <path
         d="m 29.707934,100.20526 c -0.066,-0.11 -0.14,-0.133 -0.544,-0.133 -0.249,0 -0.491,0.015 -0.741,0.023 -0.352,0.006 -0.705,0.022 -1.057,0.022 -0.352,0 -0.705,-0.008 -1.057,-0.022 l 0,0.204 c 0.33,0.031 0.477,0.221 0.506,0.545 0.022,0.22 0.022,0.455 0.022,0.837 l 0,2.077 c 0,0.389 -0.022,0.566 -0.08,0.719 -0.067,0.192 -0.199,0.28 -0.448,0.309 l 0,0.206 3.436,0 c 0,-0.213 -0.008,-0.433 -0.008,-0.646 0,-0.177 -0.007,-0.345 0.008,-0.521 l -0.264,0 c -0.052,0.565 -0.294,0.719 -1.168,0.719 -0.161,0 -0.375,-0.008 -0.55,-0.015 -0.015,-0.286 -0.023,-0.382 -0.023,-0.807 l 0,-0.852 c 0.111,-0.007 0.198,-0.007 0.331,-0.007 0.763,0 0.999,0.11 1.042,0.506 l 0.264,0 c -0.014,-0.117 -0.014,-0.36 -0.014,-0.727 0,-0.375 0.008,-0.595 0.014,-0.712 l -0.264,0 c -0.021,0.418 -0.22,0.522 -0.976,0.522 -0.132,0 -0.264,-0.007 -0.397,-0.007 0,-0.464 0.008,-0.927 0.008,-1.388 0,-0.309 0.051,-0.412 0.228,-0.456 0.11,-0.029 0.278,-0.037 0.506,-0.037 0.792,0 1.072,0.177 1.241,0.779 l 0.286,-0.059 c -0.103,-0.515 -0.22,-0.94 -0.301,-1.079 m -1.637,5.264 -0.345,0.205 0.727,1.073 0.844,-0.155 -1.226,-1.123 z"
         style="fill:#000000;fill-opacity:1;fill-rule:nonzero;stroke:none"
         id="path3385" />
      <path
         d="m 32.769934,102.27606 c -0.073,0 -0.11,0 -0.206,0.006 l -0.162,0.375 c 0.691,0.044 1.073,0.382 1.073,0.94 0,0.588 -0.404,1.006 -0.962,1.006 -0.088,0 -0.161,-0.008 -0.279,-0.029 0,-0.456 -0.014,-0.91 -0.014,-1.367 l 0,-1.284 c 0,-0.962 0.007,-1.124 0.08,-1.315 0.066,-0.19 0.198,-0.286 0.449,-0.309 l 0,-0.204 -0.178,0.007 c -0.19,0.007 -0.454,0.007 -0.807,0.007 -0.345,0 -0.617,0 -0.801,-0.007 l -0.176,-0.007 0,0.204 c 0.331,0.031 0.478,0.221 0.507,0.545 0.022,0.22 0.022,0.352 0.022,1.079 l 0,1.835 c 0,0.39 -0.022,0.566 -0.081,0.72 -0.066,0.191 -0.197,0.279 -0.448,0.308 l 0,0.206 c 0.088,-0.008 0.023,-0.008 0.338,-0.008 0.125,0 0.301,0 0.537,0.008 0.374,0.014 0.748,0.036 1.123,0.036 1.042,0 1.666,-0.514 1.666,-1.364 0,-0.801 -0.713,-1.388 -1.681,-1.388"
         style="fill:#000000;fill-opacity:1;fill-rule:nonzero;stroke:none"
         id="path3389" />
      <path
         d="m 39.442234,104.62466 c -0.081,-0.11 -0.117,-0.257 -0.131,-0.55 -0.015,-0.317 -0.023,-0.559 -0.023,-1.014 0,-0.168 0.008,-0.675 0.008,-1.182 0,-0.513 -0.081,-0.822 -0.294,-1.13 -0.338,-0.492 -0.896,-0.742 -1.63,-0.742 -0.463,0 -0.815,0.088 -1.146,0.308 -0.513,0.331 -0.712,0.764 -0.712,1.542 0,0.793 0.014,1.138 0.014,1.395 0,0.374 0.023,0.764 -0.044,1.131 -0.043,0.264 -0.183,0.374 -0.491,0.404 l 0,0.206 0.169,-0.008 c 0.191,-0.007 0.462,-0.007 0.815,-0.007 0.352,0 0.624,0 0.815,0.007 l 0.169,0.008 0,-0.206 c -0.228,-0.03 -0.338,-0.088 -0.412,-0.213 -0.065,-0.11 -0.095,-0.258 -0.103,-0.58 -0.014,-0.463 -0.021,-0.917 -0.021,-1.38 0,-1.264 0.029,-1.506 0.257,-1.77 0.176,-0.205 0.477,-0.345 0.829,-0.345 0.493,0 0.97,0.25 1.116,0.741 0.096,0.317 0.111,0.544 0.111,1.374 l 0,0.726 c 0,0.837 -0.023,1.095 -0.104,1.22 -0.081,0.131 -0.191,0.204 -0.381,0.227 l 0,0.206 c 0.293,-0.015 0.396,-0.015 0.764,-0.015 0.374,0 0.477,0 0.771,0.015 l 0,-0.206 c -0.162,-0.023 -0.265,-0.066 -0.346,-0.162"
         style="fill:#000000;fill-opacity:1;fill-rule:nonzero;stroke:none"
         id="path3393" />
      <path
         d="m 42.378834,102.56166 c -0.125,0 -0.257,-0.007 -0.448,-0.022 -0.008,-0.198 -0.008,-0.234 -0.008,-0.573 l 0,-0.432 c 0,-0.412 0.016,-0.632 0.066,-0.779 0.06,-0.184 0.236,-0.272 0.544,-0.272 0.624,0 0.976,0.346 0.976,0.962 0,0.682 -0.44,1.116 -1.13,1.116 m -0.022,2.048 c -0.132,0 -0.264,-0.015 -0.397,-0.015 -0.007,-0.477 -0.021,-1.299 -0.029,-1.608 0.081,-0.007 0.184,-0.014 0.323,-0.014 0.719,0 1.131,0.301 1.131,0.83 0,0.507 -0.381,0.807 -1.028,0.807 m 1.6,-4.17 c -0.345,-0.264 -0.734,-0.352 -1.483,-0.352 -0.396,0 -0.8,0.029 -1.197,0.029 -0.161,0 -0.462,0 -0.667,-0.015 l -0.088,-0.007 0,0.205 c 0.344,0.03 0.477,0.206 0.506,0.544 0.022,0.22 0.029,0.353 0.029,1.079 l 0,1.388 c 0,0.683 -0.007,0.976 -0.081,1.167 -0.073,0.191 -0.204,0.279 -0.454,0.309 l 0,0.206 c 0.337,-0.015 0.535,-0.015 1.005,-0.015 0.426,0 1.065,0.022 1.491,0.022 0.675,0 1.292,-0.324 1.292,-1.087 0,-0.566 -0.353,-0.948 -1.05,-1.123 0.778,-0.154 1.189,-0.602 1.189,-1.33 0,-0.44 -0.161,-0.771 -0.492,-1.02"
         style="fill:#000000;fill-opacity:1;fill-rule:nonzero;stroke:none"
         id="path3397" />
      <path
         d="m 48.596034,100.19846 c -0.066,-0.104 -0.154,-0.126 -0.521,-0.126 -0.184,0 -0.374,0.008 -0.559,0.015 -0.455,0.014 -0.865,0.029 -1.365,0.029 -0.374,0 -0.624,-0.007 -0.859,-0.022 l 0,0.205 c 0.183,0.015 0.28,0.052 0.36,0.148 0.132,0.154 0.169,0.345 0.169,0.881 0,0.368 0.007,0.66 0.007,1.042 l 0,0.786 c 0,0.991 -0.007,1.124 -0.081,1.321 -0.066,0.192 -0.205,0.28 -0.455,0.309 l 0,0.206 0.183,-0.008 c 0.199,-0.007 0.47,-0.007 0.837,-0.007 0.361,0 0.64,0 0.83,0.007 l 0.183,0.008 0,-0.206 c -0.373,0 -0.535,-0.198 -0.579,-0.551 -0.015,-0.124 -0.023,-0.242 -0.023,-1.079 l 0,-1.227 c 0,-1.02 0.008,-1.144 0.104,-1.248 0.081,-0.08 0.234,-0.117 0.55,-0.117 0.404,0 0.624,0.044 0.808,0.147 0.205,0.11 0.36,0.331 0.433,0.638 l 0.279,-0.072 c -0.081,-0.427 -0.22,-0.955 -0.301,-1.079"
         style="fill:#000000;fill-opacity:1;fill-rule:nonzero;stroke:none"
         id="path3401" />
      <path
         d="m 51.149833,100.10176 c -0.183,0.007 -0.455,0.007 -0.799999,0.007 -0.352,0 -0.617,0 -0.808,-0.007 l -0.176,-0.007 0,0.205 c 0.345,0.03 0.477,0.206 0.506,0.544 0.023,0.21996 0.029,0.35296 0.029,1.07896 l 0,1.233 c 0,0.191 -0.006,0.39 -0.006,0.602 0,0.39 -0.015,0.566 -0.074,0.72 -0.066,0.191 -0.205,0.279 -0.455,0.309 l 0,0.206 0.176,-0.008 c 0.191,-0.008 0.456,-0.008 0.808,-0.008 0.344999,0 0.616999,0 0.799999,0.008 l 0.177,0.008 0,-0.206 c -0.317,-0.023 -0.478,-0.221 -0.507,-0.552 -0.022,-0.212 -0.022,-0.418 -0.022,-1.079 l 0,-1.233 c 0,-0.962 0.007,-1.124 0.081,-1.315 0.066,-0.19 0.198,-0.285 0.448,-0.308 l 0,-0.205 -0.177,0.007 z"
         style="fill:#000000;fill-opacity:1;fill-rule:nonzero;stroke:none"
         id="path3405" />
      <path
         d="m 54.547733,104.58126 c -0.895,0 -1.534,-0.749 -1.534,-1.799 0,-1.278 0.756,-2.284 1.718,-2.284 0.903,0 1.541,0.764 1.541,1.829 0,1.262 -0.756,2.254 -1.725,2.254 m 3.465,-5.807998 c -0.572,0 -1.182,0.177 -1.761,0.499 -0.331,0.184 -0.793,0.499 -1.131,0.777998 -0.25,-0.036 -0.345,-0.043 -0.58,-0.043 -1.484,0 -2.467,0.969 -2.467,2.429 0,1.565 1.064,2.644 2.621,2.644 1.513,0 2.518,-0.969 2.518,-2.423 0,-1.035 -0.528,-1.953 -1.365,-2.379 0.264,-0.132 0.528,-0.278998 0.785,-0.432998 0.749,-0.456 1.264,-0.645 1.748,-0.645 0.3,0 0.55,0.065 0.845,0.211 l 0.094,-0.256 c -0.359,-0.25 -0.807,-0.382 -1.307,-0.382"
         style="fill:#000000;fill-opacity:1;fill-rule:nonzero;stroke:none"
         id="path3409" />
      <path
         d="m 62.301133,104.62466 c -0.081,-0.11 -0.119,-0.257 -0.133,-0.55 -0.014,-0.317 -0.022,-0.559 -0.022,-1.014 0,-0.168 0.008,-0.675 0.008,-1.182 0,-0.513 -0.081,-0.822 -0.294,-1.13 -0.338,-0.492 -0.895,-0.742 -1.63,-0.742 -0.463,0 -0.814,0.088 -1.145,0.308 -0.514,0.331 -0.713,0.764 -0.713,1.542 0,0.793 0.015,1.138 0.015,1.395 0,0.374 0.022,0.764 -0.044,1.131 -0.044,0.264 -0.184,0.374 -0.492,0.404 l 0,0.206 0.168,-0.008 c 0.192,-0.007 0.464,-0.007 0.816,-0.007 0.352,0 0.624,0 0.815,0.007 l 0.169,0.008 0,-0.206 c -0.228,-0.03 -0.338,-0.088 -0.412,-0.213 -0.065,-0.11 -0.095,-0.258 -0.102,-0.58 -0.015,-0.463 -0.022,-0.917 -0.022,-1.38 0,-1.264 0.029,-1.506 0.257,-1.77 0.177,-0.205 0.476,-0.345 0.829,-0.345 0.493,0 0.97,0.25 1.116,0.741 0.096,0.317 0.11,0.544 0.11,1.374 l 0,0.726 c 0,0.837 -0.021,1.095 -0.102,1.22 -0.081,0.131 -0.191,0.204 -0.382,0.227 l 0,0.206 c 0.293,-0.015 0.396,-0.015 0.763,-0.015 0.376,0 0.478,0 0.772,0.015 l 0,-0.206 c -0.163,-0.023 -0.264,-0.066 -0.345,-0.162"
         style="fill:#000000;fill-opacity:1;fill-rule:nonzero;stroke:none"
         id="path3413" />
      <path
         d="m 66.778733,100.20526 c -0.065,-0.11 -0.14,-0.133 -0.543,-0.133 -0.25,0 -0.492,0.015 -0.742,0.023 -0.353,0.006 -0.705,0.022 -1.058,0.022 -0.352,0 -0.704,-0.008 -1.056,-0.022 l 0,0.204 c 0.33,0.031 0.477,0.221 0.506,0.545 0.022,0.22 0.022,0.455 0.022,0.837 l 0,2.077 c 0,0.389 -0.022,0.566 -0.081,0.719 -0.065,0.192 -0.198,0.28 -0.447,0.309 l 0,0.206 3.437,0 c 0,-0.213 -0.008,-0.433 -0.008,-0.646 0,-0.177 -0.008,-0.345 0.008,-0.521 l -0.266,0 c -0.051,0.565 -0.293,0.719 -1.168,0.719 -0.16,0 -0.373,-0.008 -0.55,-0.015 -0.014,-0.286 -0.021,-0.382 -0.021,-0.807 l 0,-0.852 c 0.11,-0.007 0.198,-0.007 0.329,-0.007 0.764,0 0.999,0.11 1.043,0.506 l 0.264,0 c -0.014,-0.117 -0.014,-0.36 -0.014,-0.727 0,-0.375 0.007,-0.595 0.014,-0.712 l -0.264,0 c -0.022,0.418 -0.219,0.522 -0.976,0.522 -0.133,0 -0.264,-0.007 -0.396,-0.007 0,-0.464 0.007,-0.927 0.007,-1.388 0,-0.309 0.051,-0.412 0.227,-0.456 0.11,-0.029 0.279,-0.037 0.507,-0.037 0.793,0 1.072,0.177 1.241,0.779 l 0.286,-0.059 c -0.103,-0.515 -0.22,-0.94 -0.301,-1.079"
         style="fill:#000000;fill-opacity:1;fill-rule:nonzero;stroke:none"
         id="path3417" />
      <path
         d="m 73.571633,104.59146 c -0.009,0.64 -0.381,0.889 -1.386,0.889 -0.205,0 -0.401,-0.009 -0.622,-0.026 -0.018,-0.614 -0.018,-1.04 -0.018,-2.009 0.213,-0.009 0.319,-0.018 0.47,-0.018 0.827,0 1.077,0.143 1.121,0.622 l 0.319,0 c 0,-0.249 -0.017,-0.507 -0.017,-0.755 0,-0.329 0.017,-0.667 0.017,-0.996 l -0.319,0 c -0.063,0.534 -0.267,0.64 -1.2,0.64 -0.159,0 -0.222,0 -0.391,-0.008 l 0,-0.996 c 0,-0.196 0,-0.409 0.008,-0.64 0.018,-0.489 0.055,-0.915 0.632,-0.951 l 0,-0.249 -0.214,0.009 c -0.221,0.009 -0.55,0.009 -0.967,0.009 -0.428,0 -0.748,0 -0.979,-0.009 l -0.213,-0.009 0,0.249 c 0.399,0.036 0.577,0.268 0.613,0.658 0.027,0.266 0.027,0.426 0.027,1.306 l 0,2.223 c 0,0.47 -0.027,0.684 -0.098,0.87 -0.08,0.232 -0.241,0.338 -0.542,0.374 l 0,0.249 4.088,0 c -0.017,-0.169 -0.017,-0.454 -0.017,-0.828 0,-0.355 0,-0.408 0.017,-0.604 l -0.329,0 z"
         style="fill:#000000;fill-opacity:1;fill-rule:nonzero;stroke:none"
         id="path3421" />
      <path
         d="m 76.599533,104.63246 c -0.147,0 -0.278,-0.022 -0.441,-0.059 0,-0.433 -0.006,-1.218 -0.006,-1.828 0.08,-0.015 0.227,-0.022 0.322,-0.022 0.603,0 1.007,0.374 1.007,0.947 0,0.558 -0.376,0.962 -0.882,0.962 m 1.887,-4.597 c -0.272,0 -0.427,0.037 -0.58,0.14 -0.243,0.162 -0.499,0.602 -0.645,0.852 -0.25,0.433 -0.529,0.896 -0.794,1.285 -0.044,-0.007 -0.081,-0.007 -0.111,-0.007 -0.072,0 -0.132,0.007 -0.204,0.007 l 0,-0.389 c 0,-0.199 0.006,-0.397 0.006,-0.595 0.008,-0.397 0.015,-0.566 0.074,-0.72 0.073,-0.19 0.205,-0.286 0.448,-0.309 l 0,-0.205 -0.169,0.007 c -0.19,0.008 -0.455,0 -0.8,0 -0.338,0 -0.603,0.008 -0.793,0 l -0.176,-0.007 0,0.205 c 0.183,0.015 0.272,0.052 0.359,0.148 0.082,0.095 0.132,0.227 0.147,0.396 0.023,0.221 0.03,0.353 0.03,1.08 l 0,1.232 c 0,0.897 -0.03,1.117 -0.082,1.322 -0.051,0.198 -0.204,0.28 -0.454,0.309 l 0,0.206 c 0.146,-0.015 0.293,-0.008 0.441,-0.008 0.381,0 0.499,0 0.954,0.022 0.395,0.015 0.625,0.022 0.8,0.022 0.499,0 0.8,-0.074 1.05,-0.25 0.279,-0.197 0.462,-0.58 0.462,-0.961 0,-0.602 -0.396,-1.094 -1.072,-1.344 0.28,-0.352 0.5,-0.705 0.756,-1.108 0.236,-0.375 0.471,-0.698 0.654,-0.881 0.103,-0.111 0.17,-0.147 0.309,-0.185 l 0,-0.205 c -0.191,-0.044 -0.382,-0.059 -0.61,-0.059"
         style="fill:#000000;fill-opacity:1;fill-rule:nonzero;stroke:none"
         id="path3425" />
      <path
         d="m 81.406633,103.69986 c -0.191,-0.5 -0.455,-1.145 -0.565,-1.505 l 1.086,0 -0.521,1.505 z m 2.379,-3.598 c -0.185,0.007 -0.448,0.007 -0.786,0.007 -0.346,0 -0.61,0 -0.793,-0.007 l -0.17,-0.007 0,0.205 c 0.236,0.015 0.375,0.14 0.375,0.346 0,0.073 -0.022,0.176 -0.095,0.396 -0.087,0.272 -0.147,0.455 -0.235,0.706 l -1.41,0 -0.147,-0.427 c -0.109,-0.33 -0.168,-0.573 -0.168,-0.697 0,-0.214 0.096,-0.309 0.33,-0.324 l 0,-0.205 c -0.279,0.007 -0.382,0.014 -0.733,0.014 -0.346,0 -0.449,-0.007 -0.728,-0.014 l 0,0.205 c 0.11,0.015 0.147,0.03 0.228,0.103 0.139,0.125 0.28,0.382 0.5,0.94 l 0.697,1.777 c 0.191,0.477 0.477,1.248 0.674,1.872 l 0.5,0 c 0.067,-0.228 0.22,-0.587 0.324,-0.851 l 1.034,-2.651 c 0.177,-0.448 0.302,-0.712 0.397,-0.882 0.103,-0.176 0.206,-0.263 0.382,-0.308 l 0,-0.205 -0.176,0.007 z"
         style="fill:#000000;fill-opacity:1;fill-rule:nonzero;stroke:none"
         id="path3429" />
      <path
         d="m 89.010633,104.56556 c -0.081,-0.131 -0.095,-0.256 -0.109,-0.638 -0.022,-0.662 -0.031,-1.689 -0.031,-2.18 l 0,-1.124 c 0,-0.169 0.024,-0.425 0.024,-0.529 l -0.5,0 c -0.477,0.624 -1.468,1.835 -1.468,1.835 -0.118,0.148 -1.035,1.278 -1.498,1.844 0,-0.155 -0.007,-0.059 -0.007,-0.537 l 0,-0.477 c 0,-0.55 0.007,-1.093 0.029,-1.644 0.015,-0.308 0.044,-0.463 0.117,-0.602 0.074,-0.147 0.184,-0.205 0.397,-0.214 l 0,-0.205 c -0.258,0.014 -0.521,0.014 -0.779,0.014 -0.263,0 -0.521,0 -0.785,-0.014 l 0,0.205 c 0.485,0.015 0.499,0.419 0.514,0.801 0.008,0.308 0.014,0.566 0.014,1.035 l 0,1.55 c 0,0.609 -0.029,0.756 -0.139,0.918 -0.073,0.117 -0.168,0.16 -0.389,0.183 l 0,0.206 c 0.242,-0.015 0.331,-0.015 0.638,-0.015 0.302,0 0.39,0 0.633,0.015 0.088,-0.162 0.226,-0.309 0.733,-0.926 0.719,-0.873 1.367,-1.615 1.976,-2.378 l 0,1.6 c 0,0.735 -0.015,0.918 -0.052,1.108 -0.051,0.236 -0.191,0.353 -0.463,0.39 l 0,0.206 c 0.302,-0.015 0.405,-0.015 0.778,-0.015 0.375,0 0.476999,0 0.778999,0.015 l 0,-0.206 c -0.199,-0.008 -0.308,-0.044 -0.411999,-0.221"
         style="fill:#000000;fill-opacity:1;fill-rule:nonzero;stroke:none"
         id="path3433" />
      <path
         d="m 94.135142,100.27066 c -0.478,-0.19 -0.896,-0.264 -1.476,-0.264 l -0.066,-0.293998 c 0.037,0.008 0.11,0 0.14,0 0.279,0 0.463,-0.198 0.463,-0.441 0,-0.396 -0.316,-0.674 -0.816,-0.674 -0.147,0 -0.279,0.029 -0.441,0.095 l 0.104,0.286 c 0.095,-0.037 0.183,-0.058 0.263,-0.058 0.206,0 0.346,0.102 0.346,0.286 0,0.147 -0.074,0.234 -0.184,0.234 -0.059,0 -0.11,-0.022 -0.162,-0.059 l -0.161,0.045 0.146,0.593998 c -0.645,0.06 -1.115,0.272 -1.511,0.684 -0.456,0.462 -0.699,1.093 -0.699,1.835 0,1.585 1.022,2.541 2.703,2.541 0.507,0 0.998,-0.074 1.424,-0.214 -0.014,-0.168 -0.014,-0.337 -0.014,-0.499 0,-0.124 0.006,-0.389 0.014,-0.558 l -0.286,0 c -0.118,0.522 -0.536,0.8 -1.204,0.8 -1.036,0 -1.667,-0.69 -1.667,-1.835 0,-1.321 0.741,-2.284 1.763,-2.284 0.616,0 1.034,0.308 1.203,0.896 l 0.279,-0.058 c -0.066,-0.25 -0.131,-0.669 -0.161,-1.058"
         style="fill:#000000;fill-opacity:1;fill-rule:nonzero;stroke:none"
         id="path3437" />
      <path
         d="m 96.850432,103.69986 c -0.191,-0.5 -0.456,-1.145 -0.566,-1.505 l 1.087,0 -0.521,1.505 z m 2.378,-3.598 c -0.183,0.007 -0.448,0.007 -0.785,0.007 -0.345,0 -0.61,0 -0.793,-0.007 l -0.169,-0.007 0,0.205 c 0.236,0.015 0.375,0.14 0.375,0.346 0,0.073 -0.023,0.176 -0.096,0.396 -0.088,0.272 -0.146,0.455 -0.235,0.706 l -1.408,0 -0.148,-0.427 c -0.11,-0.33 -0.169,-0.573 -0.169,-0.697 0,-0.214 0.095,-0.309 0.33,-0.324 l 0,-0.205 c -0.279,0.007 -0.382,0.014 -0.734,0.014 -0.345,0 -0.448,-0.007 -0.727,-0.014 l 0,0.205 c 0.111,0.015 0.148,0.03 0.227,0.103 0.14,0.125 0.28,0.382 0.5,0.94 l 0.698,1.777 c 0.19,0.477 0.477,1.248 0.675,1.872 l 0.499,0 c 0.067,-0.228 0.221,-0.587 0.324,-0.851 l 1.035,-2.651 c 0.176,-0.448 0.301,-0.712 0.396,-0.882 0.102,-0.176 0.205,-0.263 0.383,-0.308 l 0,-0.205 -0.178,0.007 z"
         style="fill:#000000;fill-opacity:1;fill-rule:nonzero;stroke:none"
         id="path3441" />
      <path
         d="m 101.62834,100.10176 c -0.183,0.007 -0.455,0.007 -0.8,0.007 -0.352,0 -0.617,0 -0.808,-0.007 l -0.175998,-0.007 0,0.205 c 0.344998,0.03 0.477998,0.206 0.506998,0.544 0.022,0.22 0.029,0.353 0.029,1.079 l 0,1.233 c 0,0.191 -0.007,0.39 -0.007,0.602 0,0.39 -0.016,0.566 -0.074,0.72 -0.066,0.191 -0.205,0.279 -0.454998,0.309 l 0,0.206 0.175998,-0.008 c 0.191,-0.008 0.456,-0.008 0.808,-0.008 0.345,0 0.617,0 0.8,0.008 l 0.177,0.008 0,-0.206 c -0.316,-0.023 -0.478,-0.221 -0.507,-0.552 -0.022,-0.212 -0.022,-0.418 -0.022,-1.079 l 0,-1.233 c 0,-0.962 0.007,-1.124 0.08,-1.315 0.066,-0.19 0.199,-0.285 0.449,-0.308 l 0,-0.205 -0.177,0.007 z"
         style="fill:#000000;fill-opacity:1;fill-rule:nonzero;stroke:none"
         id="path3445" />
      <path
         d="m 103.91054,100.00696 c -0.426,0 -0.734,0.059 -1.233,0.25 -0.022,0.278 -0.073,0.704 -0.133,1.057 l 0.28,0.044 c 0.175,-0.595 0.565,-0.904 1.13,-0.904 0.521,0 0.874,0.272 0.874,0.683 0,0.33 -0.228,0.559 -0.558,0.764 l -0.772,0.492 c -0.527,0.338 -0.837,0.69 -0.837,1.336 0,0.823 0.625,1.351 1.594,1.351 0.47,0 0.859,-0.088 1.205,-0.265 -0.008,-0.175 -0.008,-0.234 -0.008,-0.462 0,-0.264 0,-0.338 0.008,-0.543 l -0.28,0 c -0.102,0.528 -0.433,0.822 -0.94,0.822 -0.455,0 -0.785,-0.286 -0.785,-0.689 0,-0.353 0.242,-0.588 0.632,-0.837 l 0.624,-0.405 c 0.594,-0.388 0.932,-0.764 0.932,-1.351 0,-0.8 -0.705,-1.343 -1.733,-1.343"
         style="fill:#000000;fill-opacity:1;fill-rule:nonzero;stroke:none"
         id="path3449" />
      <path
         d="m 109.81383,100.20526 c -0.066,-0.11 -0.139,-0.133 -0.544,-0.133 -0.248,0 -0.491,0.015 -0.742,0.023 -0.351,0.006 -0.704,0.022 -1.056,0.022 -0.352,0 -0.704,-0.008 -1.057,-0.022 l 0,0.204 c 0.329,0.031 0.477,0.221 0.506,0.545 0.021,0.22 0.021,0.455 0.021,0.837 l 0,2.077 c 0,0.389 -0.021,0.566 -0.08,0.719 -0.066,0.192 -0.198,0.28 -0.447,0.309 l 0,0.206 3.435,0 c 0,-0.213 -0.006,-0.433 -0.006,-0.646 0,-0.177 -0.009,-0.345 0.006,-0.521 l -0.264,0 c -0.051,0.565 -0.293,0.719 -1.168,0.719 -0.161,0 -0.374,-0.008 -0.549,-0.015 -0.015,-0.286 -0.023,-0.382 -0.023,-0.807 l 0,-0.852 c 0.111,-0.007 0.198,-0.007 0.331,-0.007 0.763,0 0.999,0.11 1.043,0.506 l 0.263,0 c -0.015,-0.117 -0.015,-0.36 -0.015,-0.727 0,-0.375 0.009,-0.595 0.015,-0.712 l -0.263,0 c -0.023,0.418 -0.221,0.522 -0.977,0.522 -0.132,0 -0.265,-0.007 -0.397,-0.007 0,-0.464 0.008,-0.927 0.008,-1.388 0,-0.309 0.051,-0.412 0.227,-0.456 0.111,-0.029 0.279,-0.037 0.507,-0.037 0.793,0 1.072,0.177 1.241,0.779 l 0.286,-0.059 c -0.103,-0.515 -0.22,-0.94 -0.301,-1.079"
         style="fill:#000000;fill-opacity:1;fill-rule:nonzero;stroke:none"
         id="path3453" />
      <path
         d="m 23.131734,112.66176 c -0.065,-0.086 -0.172,-0.115 -0.429,-0.115 -0.351,0 -0.694,0.022 -1.045,0.029 -0.299,0.007 -0.528,0.015 -0.685,0.015 -0.215,0 -0.737,-0.008 -0.886,-0.015 l -0.101,-0.007 0.029,0.15 c 0.214,0.021 0.343,0.086 0.443,0.221 0.114,0.143 0.186,0.344 0.286,0.744 0.093,0.393 0.136,0.629 0.286,1.366 l 0.114,0.564 c 0.115,0.572 0.158,0.908 0.158,1.087 0,0.314 -0.114,0.443 -0.422,0.478 l 0.028,0.158 c 0.043,-0.007 0.079,-0.007 0.1,-0.007 0.265,0 0.522,-0.007 0.786,-0.007 0.415,0 0.687,0.007 0.808,0.007 0.022,0 0.065,0 0.114,0.007 l -0.027,-0.158 c -0.222,-0.014 -0.344,-0.071 -0.451,-0.214 -0.179,-0.229 -0.279,-0.535 -0.544,-1.915 l -0.093,-0.48 c -0.114,-0.585 -0.157,-0.785 -0.192,-1.05 -0.015,-0.086 -0.021,-0.179 -0.021,-0.222 0,-0.279 0.142,-0.365 0.599,-0.365 0.809,0 1.109,0.165 1.373,0.751 l 0.194,-0.071 c -0.172,-0.472 -0.337,-0.837 -0.422,-0.951"
         style="fill:#000000;fill-opacity:1;fill-rule:nonzero;stroke:none"
         id="path3457" />
      <path
         d="m 24.474534,112.49036 c -0.143,0 -0.236,0.079 -0.236,0.208 0,0.063 0.021,0.177 0.057,0.335 0.094,0.379 0.222,0.894 0.293,1.165 0.1,0.372 0.144,0.629 0.144,0.73 0,0.092 -0.044,0.135 -0.122,0.135 -0.065,0 -0.129,-0.021 -0.279,-0.064 l -0.05,-0.014 -0.022,0.2 c 0.393,0.15 0.779,0.243 0.972,0.243 0.108,0 0.151,-0.036 0.151,-0.122 0,-0.085 -0.037,-0.315 -0.165,-0.815 l -0.107,-0.421 c -0.178,-0.694 -0.221,-0.937 -0.221,-1.052 0,-0.106 0.057,-0.171 0.165,-0.171 0.063,0 0.192,0.028 0.392,0.1 l 0.015,-0.201 c -0.38,-0.149 -0.787,-0.256 -0.987,-0.256 m 0.779,3.653 c -0.221,0 -0.364,0.136 -0.364,0.343 0,0.257 0.185,0.436 0.442,0.436 0.215,0 0.351,-0.129 0.351,-0.336 0,-0.257 -0.179,-0.443 -0.429,-0.443"
         style="fill:#000000;fill-opacity:1;fill-rule:nonzero;stroke:none"
         id="path3461" />
      <path
         d="m 28.405134,115.12126 c -0.129,0 -0.287,-0.05 -0.486,-0.158 -0.208,-0.107 -0.358,-0.221 -0.436,-0.328 -0.094,-0.129 -0.172,-0.351 -0.279,-0.823 -0.107,-0.443 -0.157,-0.722 -0.157,-0.822 0,-0.136 0.157,-0.215 0.443,-0.215 0.292,0 0.542,0.137 0.728,0.401 0.287,0.407 0.501,1.058 0.501,1.523 0,0.272 -0.107,0.422 -0.314,0.422 m 0.007,-2.295 c -0.279,-0.243 -0.609,-0.343 -1.115,-0.343 -0.558,0 -0.893,0.093 -0.893,0.236 0,0.056 0.006,0.128 0.077,0.428 l 0.372,1.623 c 0.122,0.523 0.215,0.936 0.344,1.523 0.071,0.344 0.1,0.528 0.1,0.622 0,0.086 -0.043,0.136 -0.122,0.136 -0.05,0 -0.208,-0.036 -0.315,-0.072 l -0.007,0.208 0.086,0.028 c 0.386,0.129 0.707,0.2 0.858,0.2 0.092,0 0.15,-0.043 0.15,-0.122 0,-0.078 -0.036,-0.257 -0.157,-0.785 l -0.215,-0.944 c -0.071,-0.307 -0.092,-0.422 -0.114,-0.522 0.45,0.264 0.843,0.386 1.201,0.386 0.436,0 0.651,-0.222 0.651,-0.672 0,-0.665 -0.38,-1.48 -0.901,-1.93"
         style="fill:#000000;fill-opacity:1;fill-rule:nonzero;stroke:none"
         id="path3465" />
      <path
         d="m 31.606834,115.14276 c -0.343,0 -0.707,-0.472 -0.886,-1.165 l 0.072,0 c 0.664,0 1.165,0.349 1.165,0.807 0,0.201 -0.158,0.358 -0.351,0.358 m -0.735,-1.43 c -0.051,0 -0.115,0 -0.208,0.007 -0.021,-0.128 -0.029,-0.236 -0.029,-0.343 0,-0.365 0.129,-0.558 0.379,-0.558 0.228,0 0.515,0.121 0.936,0.386 l 0.079,-0.243 c -0.529,-0.328 -0.929,-0.478 -1.294,-0.478 -0.443,0 -0.687,0.263 -0.687,0.742 0,1.18 0.802,2.202 1.724,2.202 0.451,0 0.715,-0.206 0.715,-0.564 0,-0.658 -0.701,-1.151 -1.615,-1.151"
         style="fill:#000000;fill-opacity:1;fill-rule:nonzero;stroke:none"
         id="path3469" />
      <path
         d="m 35.352934,114.50606 -0.235,0.021 c 0.014,0.086 0.021,0.186 0.021,0.28 0,0.128 -0.114,0.221 -0.293,0.221 -0.108,0 -0.215,-0.064 -0.308,-0.171 -0.271,-0.309 -0.379,-0.793 -0.535,-1.587 l -0.136,-0.694 c -0.272,-0.014 -0.344,-0.021 -0.623,-0.057 0.072,0.272 0.122,0.486 0.179,0.729 l 0.158,0.665 c 0.107,0.45 0.157,0.729 0.157,0.88 0,0.178 -0.043,0.256 -0.129,0.256 -0.043,0 -0.107,-0.014 -0.178,-0.035 l -0.179,-0.057 -0.022,0.214 c 0.351,0.143 0.751,0.257 0.929,0.257 0.071,0 0.115,-0.028 0.129,-0.101 0.021,-0.085 0.036,-0.184 0.043,-0.306 0.321,0.265 0.608,0.414 0.808,0.414 0.135,0 0.307,-0.072 0.471,-0.193 -0.114,-0.257 -0.2,-0.493 -0.257,-0.736"
         style="fill:#000000;fill-opacity:1;fill-rule:nonzero;stroke:none"
         id="path3473" />
      <path
         d="m 37.776234,114.99186 -0.593,0.015 -0.3,-1.466 c -0.079,-0.379 -0.086,-0.487 -0.086,-0.543 0,-0.1 0.05,-0.158 0.143,-0.158 0.049,0 0.156,0.029 0.328,0.08 l 0.071,0.02 0.022,-0.207 c -0.372,-0.15 -0.757,-0.249 -0.965,-0.249 -0.149,0 -0.243,0.071 -0.243,0.206 0,0.122 0.029,0.301 0.086,0.522 0.064,0.251 0.115,0.458 0.172,0.737 l 0.221,1.058 -0.379,-0.007 0.05,0.229 c 0.486,0.085 0.651,0.471 0.786,0.886 l 0.344,0.071 -0.179,-0.843 0.594,0.006 -0.072,-0.357 z"
         style="fill:#000000;fill-opacity:1;fill-rule:nonzero;stroke:none"
         id="path3477" />
      <path
         d="m 39.913434,115.14276 c -0.343,0 -0.707,-0.472 -0.886,-1.165 l 0.072,0 c 0.664,0 1.165,0.349 1.165,0.807 0,0.201 -0.158,0.358 -0.351,0.358 m -0.736,-1.43 c -0.05,0 -0.115,0 -0.207,0.007 -0.022,-0.128 -0.029,-0.236 -0.029,-0.343 0,-0.365 0.129,-0.558 0.379,-0.558 0.228,0 0.514,0.121 0.936,0.386 l 0.079,-0.243 c -0.529,-0.328 -0.93,-0.478 -1.294,-0.478 -0.443,0 -0.686,0.263 -0.686,0.742 0,1.18 0.801,2.202 1.722,2.202 0.451,0 0.715,-0.206 0.715,-0.564 0,-0.658 -0.7,-1.151 -1.615,-1.151 m 0.793,2.159 -0.228,0.186 0.872,0.986 0.644,-0.157 -1.288,-1.015 z"
         style="fill:#000000;fill-opacity:1;fill-rule:nonzero;stroke:none"
         id="path3481" />
      <path
         d="m 53.611233,116.29316 -0.206,0 c 0.007,0.079 0.014,0.107 0.014,0.158 0,0.392 -0.258,0.529 -0.973,0.529 -0.235,0 -0.464,0 -0.7,-0.022 -0.15,-0.593 -0.25,-1.108 -0.372,-1.744 l 0.265,0 c 0.457,0 0.651,0.007 0.815,0.036 0.264,0.049 0.422,0.207 0.5,0.493 l 0.194,0 c -0.101,-0.423 -0.222,-1.023 -0.272,-1.387 l -0.194,0 c 0.007,0.049 0.015,0.093 0.015,0.122 0,0.307 -0.194,0.407 -0.779,0.407 -0.35,0 -0.48,-0.007 -0.608,-0.014 -0.036,-0.18 0,-0.022 -0.165,-0.844 -0.077,-0.4 -0.107,-0.651 -0.107,-0.779 0,-0.25 0.129,-0.315 0.608,-0.315 0.901,0 1.179,0.143 1.458,0.758 l 0.179,-0.071 c -0.157,-0.473 -0.329,-0.851 -0.429,-0.973 -0.072,-0.078 -0.165,-0.1 -0.464,-0.1 -0.251,0 -0.508,0.008 -0.758,0.015 -0.33,0.007 -0.665,0.014 -0.994,0.014 -0.335999,0 -0.664999,-0.007 -0.999999,-0.007 l 0.028,0.15 c 0.214,0.021 0.342,0.085 0.443,0.221 0.114,0.143 0.186,0.344 0.286,0.744 0.093,0.4 0.121,0.565 0.285999,1.365 l 0.114,0.565 c 0.115,0.557 0.158,0.908 0.158,1.087 0,0.314 -0.114,0.443 -0.422,0.478 l 0.029,0.158 3.252,0 c -0.078,-0.322 -0.15,-0.708 -0.201,-1.044 m -1.357,1.52196 -0.229,0.186 0.871,0.988 0.652,-0.158 -1.294,-1.016 z"
         style="fill:#000000;fill-opacity:1;fill-rule:nonzero;stroke:none"
         id="path3485" />
      <path
         d="m 55.885633,112.26136 c -0.243,0.093 -0.537,0.193 -0.837,0.279 -0.493,-0.121 -0.836,-0.487 -0.836,-0.901 0,-0.386 0.329,-0.643 0.843,-0.643 0.622,0 1.193,0.422 1.193,0.879 0,0.172 -0.106,0.286 -0.363,0.386 m -0.107,2.896 c -0.386,0 -0.701,-0.408 -0.701,-0.895 0,-0.335 0.193,-0.564 0.472,-0.564 0.379,0 0.686,0.393 0.686,0.879 0,0.358 -0.18,0.58 -0.457,0.58 m 1.365,-0.158 -0.487,0.008 c 0.086,-0.151 0.115,-0.266 0.115,-0.43 0,-0.657 -0.551,-1.165 -1.265,-1.165 -0.136,0 -0.236,0.015 -0.386,0.057 -0.179,-0.107 -0.236,-0.157 -0.236,-0.221 0,-0.079 0.078,-0.115 0.393,-0.215 l 0.572,-0.179 c 0.572,-0.178 0.85,-0.349 0.85,-0.764 0,-0.758 -0.75,-1.352 -1.709,-1.352 -0.785,0 -1.265,0.372 -1.265,0.98 0,0.557 0.358,0.822 0.944,0.972 -0.357,0.129 -0.435,0.185 -0.435,0.307 0,0.158 0.207,0.351 0.635,0.586 -0.221,0.158 -0.328,0.366 -0.328,0.651 0,0.679 0.543,1.194 1.258,1.194 0.186,0 0.321,-0.021 0.478,-0.079 l 0.944,0 -0.078,-0.35 z"
         style="fill:#000000;fill-opacity:1;fill-rule:nonzero;stroke:none"
         id="path3489" />
      <path
         d="m 59.500333,115.12806 c -0.286,0 -0.571,-0.214 -0.815,-0.615 -0.271,-0.436 -0.464,-1.015 -0.464,-1.394 0,-0.221 0.107,-0.344 0.286,-0.344 0.264,0 0.728,0.237 0.908,0.415 0.1,0.101 0.156,0.244 0.229,0.516 0.114,0.436 0.221,0.842 0.285,1.315 -0.157,0.071 -0.307,0.107 -0.429,0.107 m 0.33,-2.645 c -0.13,0 -0.173,0.079 -0.237,0.429 -0.528,-0.3 -0.914,-0.436 -1.294,-0.436 -0.429,0 -0.678,0.222 -0.678,0.614 0,0.38 0.186,0.916 0.471,1.359 0.387,0.6 0.866,0.979 1.594,0.979 0.322,0 0.615,-0.057 0.922,-0.135 l -0.036,-0.115 c -0.257,-0.822 -0.443,-1.73 -0.443,-2.037 0,-0.194 0.043,-0.301 0.129,-0.301 0.057,0 0.207,0.043 0.386,0.107 l 0.022,-0.221 c -0.365,-0.135 -0.715,-0.243 -0.836,-0.243"
         style="fill:#000000;fill-opacity:1;fill-rule:nonzero;stroke:none"
         id="path3493" />
      <path
         d="m 62.996033,116.68576 c -0.235,-0.95 -0.471,-2.008 -0.7,-3.016 -0.071,-0.329 -0.107,-0.544 -0.107,-0.651 0,-0.106 0.05,-0.157 0.157,-0.157 0.072,0 0.2,0.029 0.394,0.086 l 0.013,-0.201 c -0.364,-0.142 -0.808,-0.263 -1.001,-0.263 -0.135,0 -0.214,0.078 -0.214,0.214 0,0.099 0.022,0.229 0.129,0.679 0.221,0.943 0.465,1.951 0.657,2.852 0.087,0.415 0.129,0.622 0.129,0.686 0,0.086 -0.042,0.129 -0.122,0.129 -0.071,0 -0.199,-0.029 -0.314,-0.071 l -0.015,0.214 c 0.366,0.129 0.766,0.229 0.966,0.229 0.099,0 0.149,-0.043 0.149,-0.122 0,-0.071 -0.028,-0.235 -0.121,-0.608"
         style="fill:#000000;fill-opacity:1;fill-rule:nonzero;stroke:none"
         id="path3497" />
      <path
         d="m 63.989133,112.49036 c -0.143,0 -0.235,0.079 -0.235,0.208 0,0.063 0.021,0.177 0.056,0.335 0.094,0.379 0.221,0.894 0.293,1.165 0.101,0.372 0.143,0.629 0.143,0.73 0,0.092 -0.042,0.135 -0.121,0.135 -0.064,0 -0.128,-0.021 -0.279,-0.064 l -0.05,-0.014 -0.021,0.2 c 0.393,0.15 0.778,0.243 0.972,0.243 0.107,0 0.15,-0.036 0.15,-0.122 0,-0.085 -0.036,-0.315 -0.165,-0.815 l -0.107,-0.421 c -0.178,-0.694 -0.221,-0.937 -0.221,-1.052 0,-0.106 0.057,-0.171 0.165,-0.171 0.064,0 0.192,0.028 0.393,0.1 l 0.013,-0.201 c -0.378,-0.149 -0.786,-0.256 -0.986,-0.256 m 0.779,3.653 c -0.221,0 -0.364,0.136 -0.364,0.343 0,0.257 0.186,0.436 0.443,0.436 0.214,0 0.35,-0.129 0.35,-0.336 0,-0.257 -0.179,-0.443 -0.429,-0.443"
         style="fill:#000000;fill-opacity:1;fill-rule:nonzero;stroke:none"
         id="path3501" />
      <path
         d="m 67.582933,114.99186 -0.593,0.015 -0.301,-1.466 c -0.078,-0.379 -0.085,-0.487 -0.085,-0.543 0,-0.1 0.05,-0.158 0.143,-0.158 0.05,0 0.157,0.029 0.328,0.08 l 0.072,0.02 0.021,-0.207 c -0.371,-0.15 -0.757,-0.249 -0.964,-0.249 -0.151,0 -0.244,0.071 -0.244,0.206 0,0.122 0.03,0.301 0.086,0.522 0.064,0.251 0.115,0.458 0.171,0.737 l 0.222,1.058 -0.378,-0.007 0.049,0.229 c 0.487,0.085 0.651,0.471 0.787,0.886 l 0.343,0.071 -0.179,-0.843 0.594,0.006 -0.072,-0.357 z"
         style="fill:#000000;fill-opacity:1;fill-rule:nonzero;stroke:none"
         id="path3505" />
      <path
         d="m 69.720133,115.14276 c -0.343,0 -0.707,-0.472 -0.886,-1.165 l 0.072,0 c 0.664,0 1.165,0.349 1.165,0.807 0,0.201 -0.158,0.358 -0.351,0.358 m -0.735,-1.43 c -0.051,0 -0.115,0 -0.209,0.007 -0.021,-0.128 -0.028,-0.236 -0.028,-0.343 0,-0.365 0.129,-0.558 0.379,-0.558 0.228,0 0.514,0.121 0.936,0.386 l 0.079,-0.243 c -0.529,-0.328 -0.929,-0.478 -1.294,-0.478 -0.443,0 -0.686,0.263 -0.686,0.742 0,1.18 0.8,2.202 1.722,2.202 0.451,0 0.716,-0.206 0.716,-0.564 0,-0.658 -0.701,-1.151 -1.615,-1.151 m 0.793,2.159 -0.229,0.186 0.873,0.986 0.642,-0.157 -1.286,-1.015 z"
         style="fill:#000000;fill-opacity:1;fill-rule:nonzero;stroke:none"
         id="path3509" />
      <path
         d="m 83.321133,116.30096 -0.207,0 c 0.007,0.071 0.015,0.128 0.015,0.164 0,0.143 -0.051,0.257 -0.137,0.343 -0.136,0.129 -0.386,0.179 -0.93,0.179 -0.15,0 -0.349,-0.007 -0.528,-0.015 -0.129,-0.585 -0.243,-1.15 -0.372,-1.757 0.137,0 0.272,-0.008 0.408,-0.008 0.793,0 0.95,0.072 1.102,0.536 l 0.191,0 c -0.113,-0.464 -0.207,-0.922 -0.271,-1.394 l -0.2,0 c 0.007,0.05 0.014,0.093 0.014,0.121 0,0.122 -0.05,0.236 -0.136,0.301 -0.121,0.093 -0.264,0.114 -0.693,0.114 -0.229,0 -0.293,-0.007 -0.48,-0.014 l -0.092,-0.479 c -0.136,-0.686 -0.186,-1.008 -0.186,-1.209 0,-0.292 0.129,-0.428 0.421,-0.464 l -0.028,-0.15 -0.115,0.007 c -0.056,0 -0.371,0.007 -0.643,0.007 -0.284,0 -0.815,0 -0.908,-0.007 l -0.121,-0.007 0.029,0.15 c 0.214,0.021 0.343,0.085 0.443,0.221 0.114,0.143 0.194,0.344 0.286,0.744 0.101,0.407 0.136,0.622 0.286,1.366 l 0.113,0.564 c 0.116,0.565 0.158,0.908 0.158,1.087 0,0.314 -0.114,0.443 -0.421,0.478 l 0.028,0.158 3.173,0 c -0.07,-0.322 -0.142,-0.693 -0.199,-1.036"
         style="fill:#000000;fill-opacity:1;fill-rule:nonzero;stroke:none"
         id="path3513" />
      <path
         d="m 85.756233,114.50606 -0.235,0.021 c 0.014,0.086 0.021,0.186 0.021,0.28 0,0.128 -0.115,0.221 -0.292,0.221 -0.108,0 -0.215,-0.064 -0.308,-0.171 -0.272,-0.309 -0.379,-0.793 -0.537,-1.587 l -0.135,-0.694 c -0.272,-0.014 -0.343,-0.021 -0.622,-0.057 0.071,0.272 0.121,0.486 0.178,0.729 l 0.158,0.665 c 0.107,0.45 0.157,0.729 0.157,0.88 0,0.178 -0.044,0.256 -0.129,0.256 -0.042,0 -0.107,-0.014 -0.179,-0.035 l -0.179,-0.057 -0.021,0.214 c 0.351,0.143 0.751,0.257 0.93,0.257 0.071,0 0.114,-0.028 0.128,-0.101 0.022,-0.085 0.036,-0.184 0.043,-0.306 0.322,0.265 0.607,0.414 0.808,0.414 0.136,0 0.308,-0.072 0.472,-0.193 -0.115,-0.257 -0.2,-0.493 -0.258,-0.736"
         style="fill:#000000;fill-opacity:1;fill-rule:nonzero;stroke:none"
         id="path3517" />
      <path
         d="m 88.247943,115.12806 c -0.285,0 -0.572,-0.214 -0.815,-0.615 -0.271,-0.436 -0.464,-1.015 -0.464,-1.394 0,-0.221 0.107,-0.344 0.285,-0.344 0.265,0 0.729,0.237 0.908,0.415 0.101,0.101 0.157,0.244 0.229,0.516 0.115,0.436 0.222,0.842 0.286,1.315 -0.158,0.071 -0.307,0.107 -0.429,0.107 m 0.329,-2.645 c -0.129,0 -0.171,0.079 -0.236,0.429 -0.53,-0.3 -0.915,-0.436 -1.294,-0.436 -0.428,0 -0.679,0.222 -0.679,0.614 0,0.38 0.187,0.916 0.472,1.359 0.386,0.6 0.864,0.979 1.594,0.979 0.322,0 0.615,-0.057 0.922999,-0.135 l -0.036,-0.115 c -0.257999,-0.822 -0.442999,-1.73 -0.442999,-2.037 0,-0.194 0.042,-0.301 0.128,-0.301 0.057,0 0.206999,0.043 0.385999,0.107 l 0.021,-0.221 c -0.363999,-0.135 -0.714999,-0.243 -0.835999,-0.243"
         style="fill:#000000;fill-opacity:1;fill-rule:nonzero;stroke:none"
         id="path3521" />
      <path
         d="m 91.987632,114.99186 -0.594,0.015 -0.3,-1.466 c -0.079,-0.379 -0.086,-0.487 -0.086,-0.543 0,-0.1 0.049,-0.158 0.143,-0.158 0.05,0 0.157,0.029 0.329,0.08 l 0.071,0.02 0.021,-0.207 c -0.371,-0.15 -0.757,-0.249 -0.965,-0.249 -0.149,0 -0.243,0.071 -0.243,0.206 0,0.122 0.029,0.301 0.087,0.522 0.064,0.251 0.115,0.458 0.171,0.737 l 0.221,1.058 -0.378,-0.007 0.05,0.229 c 0.486,0.085 0.65,0.471 0.785,0.886 l 0.344,0.071 -0.179,-0.843 0.594,0.006 -0.071,-0.357 z"
         style="fill:#000000;fill-opacity:1;fill-rule:nonzero;stroke:none"
         id="path3525" />
      <path
         d="m 94.124942,115.14276 c -0.344,0 -0.709,-0.472 -0.887,-1.165 l 0.072,0 c 0.665,0 1.165,0.349 1.165,0.807 0,0.201 -0.157,0.358 -0.35,0.358 m -0.737,-1.43 c -0.05,0 -0.115,0 -0.206,0.007 -0.024,-0.128 -0.03,-0.236 -0.03,-0.343 0,-0.365 0.128,-0.558 0.379,-0.558 0.229,0 0.515,0.121 0.936,0.386 l 0.079,-0.243 c -0.528,-0.328 -0.929,-0.478 -1.294,-0.478 -0.442,0 -0.686,0.263 -0.686,0.742 0,1.18 0.801,2.202 1.724,2.202 0.449,0 0.714,-0.206 0.714,-0.564 0,-0.658 -0.702,-1.151 -1.616,-1.151"
         style="fill:#000000;fill-opacity:1;fill-rule:nonzero;stroke:none"
         id="path3529" />
      <path
         d="m 97.870542,114.50606 -0.235,0.021 c 0.013,0.086 0.021,0.186 0.021,0.28 0,0.128 -0.115,0.221 -0.294,0.221 -0.107,0 -0.214,-0.064 -0.307,-0.171 -0.271,-0.309 -0.379,-0.793 -0.537,-1.587 l -0.136,-0.694 c -0.271,-0.014 -0.343,-0.021 -0.621,-0.057 0.071,0.272 0.122,0.486 0.179,0.729 l 0.156,0.665 c 0.107,0.45 0.158,0.729 0.158,0.88 0,0.178 -0.043,0.256 -0.129,0.256 -0.042,0 -0.107,-0.014 -0.178,-0.035 l -0.179,-0.057 -0.022,0.214 c 0.35,0.143 0.751,0.257 0.93,0.257 0.072,0 0.114,-0.028 0.129,-0.101 0.021,-0.085 0.036,-0.184 0.042,-0.306 0.321,0.265 0.608,0.414 0.809,0.414 0.135,0 0.307,-0.072 0.472,-0.193 -0.115,-0.257 -0.201,-0.493 -0.258,-0.736"
         style="fill:#000000;fill-opacity:1;fill-rule:nonzero;stroke:none"
         id="path3533" />
      <path
         d="m 100.72103,112.48356 c -0.143,0 -0.229,0.085 -0.229,0.214 0,0.086 0.028,0.243 0.114,0.6 l 0.072,0.301 c 0.214,0.893 0.264,1.194 0.264,1.315 0,0.107 -0.05,0.165 -0.149,0.165 -0.122,0 -0.322,-0.072 -0.536,-0.2 -0.229,-0.129 -0.400998,-0.28 -0.486998,-0.408 -0.065,-0.108 -0.114,-0.293 -0.2,-0.672 -0.115,-0.522 -0.186,-0.879 -0.243,-1.215 -0.278,-0.021 -0.35,-0.029 -0.629,-0.065 0.143,0.536 0.25,0.98 0.356,1.473 0.108,0.486 0.151,0.715 0.151,0.844 0,0.164 -0.049,0.243 -0.156,0.243 -0.058,0 -0.18,-0.029 -0.351,-0.087 l -0.014,0.201 c 0.344,0.135 0.715,0.235 0.886,0.235 0.157,0 0.208,-0.092 0.208,-0.428 l 0,-0.057 c 0.542998,0.307 1.099998,0.485 1.486998,0.485 0.235,0 0.328,-0.056 0.328,-0.199 0,-0.15 -0.043,-0.386 -0.193,-0.966 -0.086,-0.328 -0.163,-0.679 -0.193,-0.836 -0.043,-0.208 -0.065,-0.336 -0.065,-0.415 0,-0.106 0.058,-0.164 0.159,-0.164 0.064,0 0.199,0.028 0.37,0.093 l 0.022,-0.208 c -0.379,-0.135 -0.808,-0.249 -0.972,-0.249"
         style="fill:#000000;fill-opacity:1;fill-rule:nonzero;stroke:none"
         id="path3537" />
      <path
         d="m 102.95054,112.49036 c -0.143,0 -0.235,0.079 -0.235,0.208 0,0.063 0.021,0.177 0.056,0.335 0.094,0.379 0.222,0.894 0.294,1.165 0.1,0.372 0.143,0.629 0.143,0.73 0,0.092 -0.043,0.135 -0.122,0.135 -0.064,0 -0.128,-0.021 -0.279,-0.064 l -0.05,-0.014 -0.021,0.2 c 0.393,0.15 0.778,0.243 0.972,0.243 0.108,0 0.15,-0.036 0.15,-0.122 0,-0.085 -0.035,-0.315 -0.165,-0.815 l -0.107,-0.421 c -0.178,-0.694 -0.222,-0.937 -0.222,-1.052 0,-0.106 0.058,-0.171 0.165,-0.171 0.065,0 0.192,0.028 0.394,0.1 l 0.014,-0.201 c -0.379,-0.149 -0.786,-0.256 -0.987,-0.256 m 0.779,3.653 c -0.221,0 -0.365,0.136 -0.365,0.343 0,0.257 0.187,0.436 0.444,0.436 0.215,0 0.35,-0.129 0.35,-0.336 0,-0.257 -0.179,-0.443 -0.429,-0.443"
         style="fill:#000000;fill-opacity:1;fill-rule:nonzero;stroke:none"
         id="path3541" />
      <path
         d="m 106.54483,114.99186 -0.593,0.015 -0.301,-1.466 c -0.079,-0.379 -0.085,-0.487 -0.085,-0.543 0,-0.1 0.049,-0.158 0.143,-0.158 0.049,0 0.157,0.029 0.329,0.08 l 0.071,0.02 0.022,-0.207 c -0.373,-0.15 -0.758,-0.249 -0.966,-0.249 -0.151,0 -0.242,0.071 -0.242,0.206 0,0.122 0.028,0.301 0.085,0.522 0.064,0.251 0.115,0.458 0.171,0.737 l 0.222,1.058 -0.379,-0.007 0.05,0.229 c 0.487,0.085 0.651,0.471 0.787,0.886 l 0.343,0.071 -0.178,-0.843 0.592,0.006 -0.071,-0.357 z"
         style="fill:#000000;fill-opacity:1;fill-rule:nonzero;stroke:none"
         id="path3545" />
      <path
         d="m 108.68154,115.14276 c -0.342,0 -0.707,-0.472 -0.886,-1.165 l 0.072,0 c 0.666,0 1.165,0.349 1.165,0.807 0,0.201 -0.158,0.358 -0.351,0.358 m -0.735,-1.43 c -0.051,0 -0.115,0 -0.208,0.007 -0.022,-0.128 -0.029,-0.236 -0.029,-0.343 0,-0.365 0.129,-0.558 0.379,-0.558 0.229,0 0.514,0.121 0.937,0.386 l 0.078,-0.243 c -0.529,-0.328 -0.929,-0.478 -1.294,-0.478 -0.443,0 -0.686,0.263 -0.686,0.742 0,1.18 0.8,2.202 1.722,2.202 0.451,0 0.716,-0.206 0.716,-0.564 0,-0.658 -0.701,-1.151 -1.615,-1.151 m 0.793,2.159 -0.229,0.186 0.872,0.986 0.643,-0.157 -1.286,-1.015 z"
         style="fill:#000000;fill-opacity:1;fill-rule:nonzero;stroke:none"
         id="path3549" />
      <path
         d="m 75.220633,113.81416 c 0.479,0 0.868,0.389 0.868,0.868 0,0.479 -0.389,0.868 -0.868,0.868 -0.479,0 -0.868,-0.389 -0.868,-0.868 0,-0.479 0.389,-0.868 0.868,-0.868"
         style="fill:#000000;fill-opacity:1;fill-rule:nonzero;stroke:none"
         id="path3553" />
      <path
         d="m 45.433034,113.81416 c 0.48,0 0.868,0.389 0.868,0.868 0,0.479 -0.388,0.868 -0.868,0.868 -0.479,0 -0.868,-0.389 -0.868,-0.868 0,-0.479 0.389,-0.868 0.868,-0.868"
         style="fill:#000000;fill-opacity:1;fill-rule:nonzero;stroke:none"
         id="path3557" />
      <path
         d="m 20.451034,109.33126 89.158996,0"
         style="fill:none;stroke:#000000;stroke-width:1.52499998;stroke-linecap:butt;stroke-linejoin:miter;stroke-miterlimit:4;stroke-dasharray:none;stroke-opacity:1"
         id="path3561" />
      <path
         id="path3563"
         style="fill:#ffffff;fill-opacity:1;fill-rule:nonzero;stroke:none"
         d="m 20.576234,121.47216 89.246996,0 0,29.949 -89.246996,0 0,-29.949 z" />
      <path
         d="m 47.205434,132.81316 c -0.809,-0.237 -1.636,-0.272 -2.386,-0.681 1.773,0.068 3.545,-0.204 5.248,-0.75 0.614999,-0.205 1.158999,-0.477 1.704999,-0.818 0.272,-0.204 0.409,-0.409 0.682,-0.545 0.34,-0.205 0.817,-0.205 1.158,-0.068 l 0.342,0 c 1.022,0.272 2.112,0.545 2.793,1.295 0,-0.069 0.069,-0.069 0.137,-0.069 -0.204,-0.545 -0.204,-1.158 -0.614,-1.635 0,-0.068 -0.067,-0.205 0.069,-0.273 l 0.136,0 c -0.068,0 -0.136,0 -0.136,-0.068 0,-0.137 0.204,0 0.273,-0.137 -0.342,-0.067 -0.682,-0.137 -0.886,-0.409 0,-0.068 0.136,-0.068 0.204,-0.068 -0.137,-0.136 -0.341,-0.068 -0.409,-0.204 0,0 0.068,-0.068 0.137,-0.068 -0.069,0 -0.137,0 -0.137,-0.069 l 0,-0.204 c -0.205,0 -0.273,-0.136 -0.409,-0.204 0.272,-0.205 0.477,0 0.75,0 -0.75,-0.274 -1.364,-0.682 -2.114,-0.887 -0.136,0 0,-0.204 -0.136,-0.204 0.205,-0.137 0.342,0.068 0.546,0.068 -0.954,-0.545 -1.909,-1.023 -2.932,-1.636 0,0 -0.135,-0.137 -0.135,-0.273 l -0.273,0 c -0.136,-0.068 -0.069,-0.272 -0.204,-0.408 0.34,-0.205 0.749,0.272 0.954,0 0.067,0 -0.136,-0.068 -0.273,-0.068 -0.069,0 -0.069,-0.137 -0.136,-0.137 l -0.205,0 c -0.136,-0.137 -0.272,-0.205 -0.272,-0.409 -0.137,0 -0.272999,0 -0.341999,-0.136 1.499999,0.205 3.067999,0.068 4.499999,0.817 1.09,0.546 2.112,1.296 2.998,2.25 0,0 0.068,-0.068 0.068,-0.136 -0.203,-0.681 -0.613,-1.159 -1.159,-1.568 -0.408,-0.205 -0.681,-0.546 -1.021,-0.681 -0.205,-0.137 -0.41,-0.274 -0.614,-0.409 -2.522,-0.887 -5.520999,-0.478 -7.702999,-2.183 0,0.07 -0.068,0.07 -0.136,0.07 -0.136,-0.137 -0.341,-0.205 -0.409,-0.342 0,-0.135 0.205,-0.067 0.273,-0.067 0.409,0.272 0.818,0.477 1.295,0.613 -0.545,-0.274 -1.091,-0.681 -1.636,-0.818 -1.158,-0.205 -2.25,-0.137 -3.408,0 0.682,0.409 1.363,0.886 2.113,1.295 -0.205,0.136 -0.409,0.136 -0.614,0.136 -0.341,-0.068 -0.75,0.136 -1.09,0 -1.023,-0.477 -2.386,-0.34 -2.931,-1.431 -6.816,-0.137 -13.702,0 -20.518,0 0.137,7.43 0,14.791 0.205,22.221 0.068,2.659 -0.068,5.317 -0.068,7.975 1.84,0.342 3.681,0.137 5.521,0.069 11.792,0 23.517,0.068 35.308999,0 -0.818,-0.409 -1.772,-0.75 -2.386,-1.499 -0.544,-0.683 -1.091,-1.365 -1.295,-2.182 -0.887,-0.545 -1.431,-1.363 -1.908,-2.181 -0.614,-1.158 -1.5,-2.182 -1.364,-3.476 0.136,-1.092 0.409,-2.114 0.614,-3.273 0.068,-0.408 0.136,-0.749 0.272,-1.159 0.136,-0.409 0,-0.886 0.206,-1.226 0.135,-0.205 0.067,-0.478 0.339,-0.614 l 0,-0.272 c 0.069,-0.069 0.069,-0.137 0.205,-0.137 l 0,-0.272 c 0.545,-0.683 1.228,-1.296 1.568,-2.046 0.137,-0.409 -0.682,-0.204 -1.023,-0.068 -0.681,0.341 -1.089,0.887 -1.636,1.364 0,0 -0.067,-0.068 -0.067,-0.137 0.272,-0.477 1.294,-1.09 0.749,-1.432 -0.273,-0.136 -0.613,0.205 -0.886,-0.067 -0.068,-0.137 0,-0.274 0,-0.409 -0.408,0.272 -0.818,0.135 -1.227,0.272 -0.272,0.068 -0.34,0.614 -0.682,0.614 -0.886,0.204 -1.703,0.409 -2.589999,0.477 -1.227,0.136 -2.386,0.341 -3.612,0.136 -1.091,-0.068 -1.908,-0.886 -2.59,-1.703 l 0,-0.206 c 0.477,-0.067 0.682,0.342 1.09,0.478 0.681,0.136 1.295,0.408 1.977,0.545 1.022,0.205 1.977,0.477 2.931,0.409 0.204,0 0.476,0.068 0.681999,0 -1.227999,0.068 -2.317999,-0.341 -3.476999,-0.682"
         style="fill:#164194;fill-opacity:1;fill-rule:nonzero;stroke:none"
         id="path3575" />
      <path
         d="m 43.388034,129.54166 c -0.208,-0.052 -0.409,-0.204 -0.341,-0.34 0.204,-0.274 0.613,0.068 0.955,0.068 -0.409,-0.137 -0.886,-0.068 -1.227,-0.41 0.272,-0.204 0.545,-0.068 0.818,-0.068 0,-0.136 0.136,-0.136 0.204,-0.204 -0.341,-0.137 -0.613,-0.41 -0.681,-0.614 -0.137,-0.34 -0.478,-0.476 -0.682,-0.749 l 0,-0.205 c -0.682,-0.614 -1.432,-1.022 -1.977,-1.772 0.068,0 0.068,-0.068 0.068,-0.137 -0.136,-0.204 -0.408,-0.272 -0.477,-0.477 0,-0.068 0,-0.136 0.069,-0.136 0.817,0.273 1.431,0.886 2.181,1.159 0.546,0.136 0.953,0.477 1.431,0.614 0.341,0.067 0.75,0.204 1.091,0.271 0,-0.067 0,-0.136 0.068,-0.136 l 0.545,0 c -0.068,-0.135 -0.341,-0.068 -0.273,-0.135 0.205,-0.205 0.614,-0.137 0.887,0 0.204,0.135 0.408,0.135 0.681,0.135 0.068,0 0.068,0.136 0.068,0.205 0.205,-0.069 0.341,-0.069 0.545,-0.069 1.636,0.341 3.203999,0.683 4.703999,1.432 -1.771999,1.364 -4.021999,1.84 -6.134999,2.454 0.205,0 0.41,-0.204 0.614,0 -0.342,0.273 -0.75,0.136 -1.091,0.341 0.069,0 0.205,-0.068 0.272,0.068 -0.545,0.273 -1.09,0.273 -1.635,0.41 0.34,0.067 0.545,0.34 0.545,0.682 0,0.067 -0.136,0.067 -0.205,0.067 -0.817,-0.409 -1.363,-1.159 -1.703,-2.044 0.477,-0.274 1.022,-0.069 1.499,-0.138 -0.204,-0.204 -0.546,-0.204 -0.818,-0.272"
         style="fill:#ffffff;fill-opacity:1;fill-rule:nonzero;stroke:none"
         id="path3579" />
      <path
         d="m 40.594134,132.19986 c -0.696,-0.736 -1.432,-1.431 -2.318,-1.909 -0.613,-1.226 -1.295,-2.317 -2.182,-3.476 0,-0.068 0.068,-0.136 0.068,-0.136 1.637,1.84 3.136,3.409 5.249,4.703 0.137,0.068 -0.204,-0.204 0.069,-0.136 0.885,0.204 1.158,1.09 1.567,1.772 0.546,0.887 1.5,1.227 2.181,1.977 0,-0.068 0,-0.136 -0.068,-0.204 0.068,-0.069 0.136,-0.069 0.205,-0.069 0.273,0.205 0.613,0.137 0.817,0.41 -0.544,0.204 -1.226,0.272 -1.772,0.068 -1.431,-0.682 -2.658,-1.772 -3.816,-3"
         style="fill:#ffffff;fill-opacity:1;fill-rule:nonzero;stroke:none"
         id="path3583" />
      <path
         d="m 41.615634,130.90546 c 0.061,0.122 0.137,0.137 0.205,0.272 0,0.069 0,0.136 -0.068,0.136 -0.272,-0.067 -0.477,-0.34 -0.546,-0.613 0,-0.068 0.069,-0.068 0.137,-0.068 0.137,0.068 0.205,0.136 0.272,0.273"
         style="fill:#ffffff;fill-opacity:1;fill-rule:nonzero;stroke:none"
         id="path3587" />
      <path
         d="m 47.069234,125.72426 c -0.273,-0.135 -0.75,-0.135 -0.818,-0.477 -0.069,-0.136 0.204,-0.068 0.341,-0.068 0.477,0.204 1.022,0 1.431,0.41 -0.136,0.135 -0.341,0.067 -0.477,0.272 -0.137,0.068 -0.341,-0.069 -0.477,-0.137"
         style="fill:#ffffff;fill-opacity:1;fill-rule:nonzero;stroke:none"
         id="path3591" />
      <path
         d="m 54.498933,122.04366 c 0.421,0.094 0.818,0.341 1.227,0.477 l 0,-0.136 c 1.022,0.409 1.773,1.295 2.794,1.636 0.069,0 0.205,-0.137 0.342,-0.068 0.613,0.545 1.294,1.158 2.18,1.022 0,-0.068 0,-0.136 0.069,-0.136 0.068,0 0.137,0 0.137,0.068 -0.273,-0.204 -0.546,-0.409 -0.818,-0.613 -0.069,-0.069 0,-0.138 0.068,-0.138 0.34,0.138 0.544,0.41 0.886,0.547 -0.069,-0.069 -0.069,-0.205 -0.136,-0.273 -1.295,-0.955 -2.25,-2.045 -3.272,-3.203 l -2.113,0 c 0,0.067 0,0.135 -0.069,0.135 -2.385,-0.204 -4.703,-0.135 -7.088999,-0.135 1.363,0.204 2.726999,0.612 4.089999,0.749 0.546,0 1.091,-0.068 1.704,0.068"
         style="fill:#164194;fill-opacity:1;fill-rule:nonzero;stroke:none"
         id="path3595" />
      <path
         d="m 81.355333,125.51966 c 0.165,0.493 0.342,1.022 0.068,1.5 -0.408,0.614 0.409,0.818 0.682,1.227 0.205,0.341 -0.137,0.545 -0.204,0.886 -0.069,0.137 -0.341,0.069 -0.478,0.273 0.478,0.204 1.227,0.614 0.887,1.227 -0.205,0.341 -0.546,0.887 -0.136,1.226 0.476,0.273 1.226,0.205 1.431,0.682 0.341,0.818 -0.409,1.5 -0.819,2.182 -0.203,0.409 -0.476,0.681 -0.749,1.09 -0.273,0.478 -0.614,0.886 -0.749,1.432 -0.206,0.545 0.067,1.022 0.067,1.568 0.068,1.021 -0.204,2.045 -0.477,3.067 -0.205,0.477 -0.273,1.023 -0.477,1.5 -0.068,0.273 -0.136,0.544 -0.34,0.817 -0.069,0.136 -0.069,0.342 0,0.477 0.272,0.205 0.544,0.409 0.817,0.682 0.204,0.341 0.069,0.818 -0.273,1.023 -0.477,0.204 -0.409,-0.477 -0.749,-0.614 l -0.204,0 c -0.069,0.205 0.067,0.273 0.204,0.409 0,0.068 0,0.205 -0.068,0.205 -0.273,0 -0.545,0.068 -0.614,0.204 -0.681,0.955 -1.636,1.432 -2.658,1.841 0.273,-0.068 0.545,-0.137 0.818,-0.137 0.477,-0.068 1.022,-0.068 1.432,0.137 0.34,0.136 0.408,0.681 0.545,1.022 0.136,0.272 -0.068,0.681 -0.205,0.886 -0.34,0.546 -0.886,0.887 -1.432,1.158 l 32.310007,0 c 0.069,-10.088 -0.068,-20.176 -0.136,-30.263 -12.746998,-0.206 -25.493007,0 -38.240007,0 0.409,1.363 1.159,2.657 2.387,3.543 0.271,0.137 0.612,0.205 0.953,0.273 1.158,0 2.317,-0.34 3.476,-0.477 0.137,0 0.273,-0.068 0.41,-0.136 0.409,-0.069 0.885,-0.069 1.294,0.068 0.477,0.136 1.023,0.409 1.227,1.022"
         style="fill:#e30613;fill-opacity:1;fill-rule:nonzero;stroke:none"
         id="path3599" />
      <path
         d="m 78.766033,138.94846 c -0.403,0.101 -0.75,0 -1.16,0 -0.545,-0.136 -1.023,-0.205 -1.499,-0.409 0.409,0.273 0.817,0.546 1.295,0.682 0.342,0.068 0.682,0.272 1.022,0.272 0.41,0.068 0.819,0.205 1.159,0.068 0.342,-0.136 0.886,-0.136 0.954,-0.34 0.137,-0.409 -0.204,-0.818 -0.612,-1.09 -0.069,-0.138 0.204,-0.205 0.204,-0.342 -0.068,-0.136 -0.273,-0.204 -0.409,-0.204 -0.137,-0.069 -0.273,-0.273 -0.409,-0.408 0.136,0 0,-0.206 0.136,-0.206 -0.272,-0.341 0.136,-1.023 -0.272,-1.158 -0.478,-0.136 -1.023,-0.136 -1.569,0 0.273,0.068 0.614,-0.069 0.818,0.204 l 0,0.273 c 0,0.068 -0.068,0.068 -0.136,0.068 -0.068,-0.068 -0.136,-0.068 -0.136,-0.068 0,0.136 -0.136,0.272 -0.204,0.272 -0.41,-0.068 -0.75,0.136 -1.024,0.409 0.206,0.068 0.41,0.136 0.614,0.068 0.206,0 0.137,0.341 0.341,0.477 l 0.205,0 c 0.41,0.546 1.227,0.682 1.363,1.227 0,0.137 -0.41,0.137 -0.681,0.205"
         style="fill:#9d9d9c;fill-opacity:1;fill-rule:nonzero;stroke:none"
         id="path3603" />
      <text
         y="-78.050537"
         x="19.204082"
         id="text3605"
         style="font-variant:normal;font-weight:normal;font-stretch:normal;font-size:14.09920025px;font-family:'Times New Roman';writing-mode:lr-tb;fill:#ffffff;fill-opacity:1;fill-rule:nonzero;stroke:none"
         transform="scale(1,-1)">
        <tspan
           id="tspan3607"
           y="-78.050537"
           x="19.204082 26.859934 31.371683 37.448433 48.234322 51.970619 58.047375 62.559124 65.90062 76.686516 80.422798 87.289116 91.025398 96.326698 100.06297 104.57475"
           style="font-style:normal;font-variant:normal;font-weight:normal;font-stretch:normal;font-family:'Times New Roman';">Premier ministre</tspan>
      </text>
      <text
         y="-58.779484"
         x="27.13563"
         id="text3609"
         style="font-variant:normal;font-weight:normal;font-stretch:normal;font-size:11px;font-family:'Times New Roman';writing-mode:lr-tb;fill:#000000;fill-opacity:1;fill-rule:nonzero;stroke:none"
         transform="scale(1,-1)">
        <tspan
           x="27.13563 33.251625 39.972633 47.309624 54.646618 61.367626 67.208626 75.15065 82.487648 86.150642 92.871666"
           y="-58.779484"
           id="tspan3611"
           style="font-style:normal;font-variant:normal;font-weight:normal;font-stretch:normal;font-family:'Times New Roman';fill:#ffffff;fill-opacity:1" />
      </text>
      <text
         transform="scale(1,-1)"
         id="text4430"
         y="-59.164768"
         x="18.331789"
         style="font-style:normal;font-weight:normal;font-size:32px;line-height:125%;font-family:sans-serif;letter-spacing:0px;word-spacing:0px;fill:#000000;fill-opacity:1;stroke:none;stroke-width:1px;stroke-linecap:butt;stroke-linejoin:miter;stroke-opacity:1"
         xml:space="preserve"><tspan
           style="font-style:normal;font-variant:normal;font-weight:normal;font-stretch:normal;font-family:'Times New Roman';-inkscape-font-specification:'Times New Roman, '"
           y="-59.164768"
           x="18.331789"
           id="tspan4432" /></text>
      <text
         transform="scale(1,-1)"
         id="text4434"
         y="-58.32201"
         x="63.559479"
         style="font-style:normal;font-weight:normal;font-size:10.5px;line-height:110.00000238%;font-family:sans-serif;letter-spacing:0px;word-spacing:0px;fill:#000000;fill-opacity:1;stroke:none;stroke-width:1px;stroke-linecap:butt;stroke-linejoin:miter;stroke-opacity:1"
         xml:space="preserve"><tspan
           style="font-style:normal;font-variant:normal;font-weight:normal;font-stretch:normal;font-size:11px;line-height:110.00000238%;font-family:'Times New Roman';-inkscape-font-specification:'Times New Roman, ';text-align:center;letter-spacing:0px;text-anchor:middle"
           id="tspan4438"
           y="-58.32201"
           x="64.89151">SECRTARIAT </tspan><tspan
           id="tspan4460"
           style="font-style:normal;font-variant:normal;font-weight:normal;font-stretch:normal;font-size:11px;line-height:110.00000238%;font-family:'Times New Roman';-inkscape-font-specification:'Times New Roman, ';text-align:center;letter-spacing:0px;text-anchor:middle"
           y="-46.222012"
           x="64.934479">GNRAL POUR </tspan><tspan
           id="tspan4462"
           style="font-style:normal;font-variant:normal;font-weight:normal;font-stretch:normal;font-size:11px;line-height:110.00000238%;font-family:'Times New Roman';-inkscape-font-specification:'Times New Roman, ';text-align:center;letter-spacing:0px;text-anchor:middle"
           y="-34.122009"
           x="64.934479"> LA MODERNISATION </tspan><tspan
           id="tspan4464"
           style="font-style:normal;font-variant:normal;font-weight:normal;font-stretch:normal;font-size:11px;line-height:110.00000238%;font-family:'Times New Roman';-inkscape-font-specification:'Times New Roman, ';text-align:center;letter-spacing:0px;text-anchor:middle"
           y="-22.022009"
           x="64.934479"> DE L'ACTION </tspan><tspan
           id="tspan4466"
           style="font-style:normal;font-variant:normal;font-weight:normal;font-stretch:normal;font-size:11px;line-height:110.00000238%;font-family:'Times New Roman';-inkscape-font-specification:'Times New Roman, ';text-align:center;letter-spacing:0px;text-anchor:middle"
           y="-9.9220085"
           x="63.559479"> PUBLIQUE</tspan></text>
    </g>
  </g>
  <text
     id="text4531"
     y="108.9282"
     x="-42.041382"
     style="font-style:normal;font-weight:normal;font-size:40px;line-height:125%;font-family:sans-serif;letter-spacing:0px;word-spacing:0px;fill:#000000;fill-opacity:1;stroke:none;stroke-width:1px;stroke-linecap:butt;stroke-linejoin:miter;stroke-opacity:1"
     xml:space="preserve"><tspan
       y="108.9282"
       x="-42.041382"
       id="tspan4533" /></text>
</svg>
