<svg width="379" height="64" viewBox="0 0 379 64" fill="none" xmlns="http://www.w3.org/2000/svg">
<path fill-rule="evenodd" clip-rule="evenodd" d="M206.341 64L206.341 0H206.647L206.647 64H206.341ZM243.411 12.4276C244.665 12.4276 245.772 12.6824 246.733 13.192C247.713 13.6819 248.477 14.4462 249.026 15.4849C249.594 16.504 249.878 17.8171 249.878 19.4241V28.4785H245.292V20.1297C245.292 18.8558 245.028 17.9151 244.498 17.3076C243.969 16.7 243.225 16.3962 242.264 16.3962C241.598 16.3962 241 16.553 240.471 16.8666C239.942 17.1606 239.53 17.6113 239.236 18.2189C238.942 18.8264 238.795 19.6005 238.795 20.5412V28.4785H234.209V20.1297C234.209 18.8558 233.945 17.9151 233.416 17.3076C232.906 16.7 232.171 16.3962 231.211 16.3962C230.545 16.3962 229.947 16.553 229.418 16.8666C228.889 17.1606 228.477 17.6113 228.183 18.2189C227.889 18.8264 227.742 19.6005 227.742 20.5412V28.4785H223.156V12.6628H227.536V14.4876C227.962 13.9978 228.461 13.5953 229.036 13.2801C230.055 12.7118 231.211 12.4276 232.504 12.4276C233.955 12.4276 235.219 12.8 236.297 13.5447C236.87 13.9237 237.342 14.4098 237.712 15.0029C238.168 14.4243 238.725 13.9285 239.383 13.5153C240.559 12.7902 241.902 12.4276 243.411 12.4276ZM261.629 28.7136C259.944 28.7136 258.444 28.3609 257.131 27.6553C255.838 26.9498 254.809 25.9895 254.045 24.7744C253.3 23.5397 252.928 22.1385 252.928 20.5706C252.928 18.9832 253.3 17.5819 254.045 16.3668C254.809 15.1322 255.838 14.1719 257.131 13.4859C258.444 12.7804 259.944 12.4276 261.629 12.4276C263.295 12.4276 264.784 12.7804 266.098 13.4859C267.411 14.1719 268.44 15.1224 269.184 16.3374C269.929 17.5525 270.301 18.9636 270.301 20.5706C270.301 22.1385 269.929 23.5397 269.184 24.7744C268.44 25.9895 267.411 26.9498 266.098 27.6553C264.784 28.3609 263.295 28.7136 261.629 28.7136ZM261.629 24.9508C262.394 24.9508 263.079 24.7744 263.687 24.4217C264.295 24.0689 264.775 23.5691 265.127 22.9224C265.48 22.2561 265.657 21.4721 265.657 20.5706C265.657 19.6495 265.48 18.8656 265.127 18.2189C264.775 17.5721 264.295 17.0724 263.687 16.7196C263.079 16.3668 262.394 16.1905 261.629 16.1905C260.865 16.1905 260.179 16.3668 259.571 16.7196C258.964 17.0724 258.474 17.5721 258.102 18.2189C257.749 18.8656 257.572 19.6495 257.572 20.5706C257.572 21.4721 257.749 22.2561 258.102 22.9224C258.474 23.5691 258.964 24.0689 259.571 24.4217C260.179 24.7744 260.865 24.9508 261.629 24.9508ZM286.331 13.192C285.351 12.6824 284.234 12.4276 282.98 12.4276C281.627 12.4276 280.422 12.7118 279.364 13.2801C278.74 13.6153 278.201 14.0358 277.747 14.5414V12.6628H273.367V28.4785H277.953V20.6588C277.953 19.6789 278.109 18.8754 278.423 18.2483C278.756 17.6211 279.207 17.1606 279.775 16.8666C280.363 16.553 281.02 16.3962 281.745 16.3962C282.764 16.3962 283.548 16.7 284.097 17.3076C284.665 17.9151 284.949 18.8558 284.949 20.1297V28.4785H289.535V19.4241C289.535 17.8171 289.251 16.504 288.683 15.4849C288.114 14.4462 287.33 13.6819 286.331 13.192ZM293.104 22.0405V18.3659H301.423V22.0405H293.104ZM338.649 41.1413V56.9569H343.235V41.1413H338.649ZM338.884 38.2016C339.413 38.6915 340.099 38.9365 340.942 38.9365C341.804 38.9365 342.49 38.6915 343 38.2016C343.529 37.692 343.793 37.0551 343.793 36.2908C343.793 35.5656 343.529 34.9777 343 34.5269C342.471 34.0566 341.785 33.8214 340.942 33.8214C340.099 33.8214 339.413 34.0664 338.884 34.5563C338.355 35.0463 338.09 35.6538 338.09 36.3789C338.09 37.1041 338.355 37.7116 338.884 38.2016ZM268.494 57.1921C266.633 57.1921 265.182 56.7218 264.144 55.7811C263.105 54.8207 262.586 53.3999 262.586 51.5185V45.0217H260.146V41.494H262.586V37.643H267.171V41.494H271.111V45.0217H267.171V51.4597C267.171 52.126 267.348 52.6454 267.701 53.0177C268.053 53.3705 268.534 53.5469 269.141 53.5469C269.866 53.5469 270.484 53.3509 270.993 52.9589L272.228 56.1926C271.757 56.5258 271.189 56.7806 270.523 56.9569C269.876 57.1137 269.2 57.1921 268.494 57.1921ZM226.243 56.1338C227.615 56.8393 229.202 57.1921 231.005 57.1921C232.436 57.1921 233.7 56.9765 234.797 56.5454C235.895 56.0946 236.806 55.4577 237.531 54.6346L235.091 51.9888C234.562 52.4984 233.974 52.8805 233.328 53.1353C232.7 53.3901 231.965 53.5175 231.123 53.5175C230.182 53.5175 229.359 53.3509 228.653 53.0177C227.967 52.665 227.429 52.1652 227.037 51.5185C226.834 51.1556 226.686 50.7636 226.594 50.3426H238.56C238.58 50.1466 238.599 49.9408 238.619 49.7252C238.639 49.4901 238.648 49.2843 238.648 49.1079C238.648 47.4029 238.286 45.9428 237.561 44.7277C236.836 43.4931 235.846 42.5523 234.592 41.9056C233.357 41.2393 231.965 40.9061 230.417 40.9061C228.81 40.9061 227.37 41.2589 226.096 41.9644C224.822 42.6503 223.813 43.6106 223.068 44.8453C222.343 46.0604 221.98 47.4617 221.98 49.0491C221.98 50.617 222.353 52.0182 223.097 53.2529C223.842 54.468 224.891 55.4283 226.243 56.1338ZM226.541 47.6674C226.617 47.1775 226.763 46.7366 226.978 46.3446C227.311 45.7174 227.772 45.2373 228.359 44.9041C228.967 44.5513 229.663 44.375 230.447 44.375C231.231 44.375 231.916 44.5513 232.504 44.9041C233.092 45.2373 233.553 45.7076 233.886 46.3152C234.107 46.7184 234.255 47.1692 234.329 47.6674H226.541ZM254.666 41.6704C253.686 41.1609 252.569 40.9061 251.314 40.9061C249.962 40.9061 248.757 41.1903 247.699 41.7586C247.074 42.0938 246.536 42.5142 246.082 43.0198V41.1413H241.702V56.9569H246.288V49.1373C246.288 48.1574 246.444 47.3539 246.758 46.7267C247.091 46.0996 247.542 45.639 248.11 45.3451C248.698 45.0315 249.355 44.8747 250.08 44.8747C251.099 44.8747 251.883 45.1785 252.432 45.786C253 46.3936 253.284 47.3343 253.284 48.6082V56.9569H257.87V47.9026C257.87 46.2956 257.586 44.9825 257.018 43.9634C256.449 42.9247 255.665 42.1604 254.666 41.6704ZM274.802 41.1413V56.9569H279.388V49.4901C279.388 47.981 279.77 46.8737 280.535 46.1682C281.318 45.4431 282.338 45.0805 283.592 45.0805C283.768 45.0805 283.935 45.0903 284.092 45.1099C284.248 45.1099 284.425 45.1197 284.621 45.1393V40.9061C283.131 40.9061 281.867 41.2001 280.828 41.788C280.163 42.1521 279.614 42.6287 279.182 43.2179V41.1413H274.802ZM295.082 57.1921C293.279 57.1921 291.691 56.8393 290.319 56.1338C288.967 55.4283 287.919 54.468 287.174 53.2529C286.429 52.0182 286.057 50.617 286.057 49.0491C286.057 47.4617 286.419 46.0604 287.145 44.8453C287.889 43.6106 288.899 42.6503 290.172 41.9644C291.446 41.2589 292.887 40.9061 294.494 40.9061C296.042 40.9061 297.434 41.2393 298.668 41.9056C299.922 42.5523 300.912 43.4931 301.637 44.7277C302.362 45.9428 302.725 47.4029 302.725 49.1079C302.725 49.2843 302.715 49.4901 302.696 49.7252C302.676 49.9408 302.656 50.1466 302.637 50.3426H290.67C290.763 50.7636 290.91 51.1556 291.113 51.5185C291.505 52.1652 292.044 52.665 292.73 53.0177C293.436 53.3509 294.259 53.5175 295.199 53.5175C296.042 53.5175 296.777 53.3901 297.404 53.1353C298.051 52.8805 298.639 52.4984 299.168 51.9888L301.608 54.6346C300.883 55.4577 299.971 56.0946 298.874 56.5454C297.776 56.9765 296.512 57.1921 295.082 57.1921ZM291.054 46.3446C290.839 46.7366 290.694 47.1775 290.617 47.6674H298.406C298.332 47.1692 298.184 46.7184 297.963 46.3152C297.629 45.7076 297.169 45.2373 296.581 44.9041C295.993 44.5513 295.307 44.375 294.523 44.375C293.739 44.375 293.044 44.5513 292.436 44.9041C291.848 45.2373 291.387 45.7174 291.054 46.3446ZM311.628 56.3102C312.628 56.8981 313.794 57.1921 315.126 57.1921C316.616 57.1921 317.949 56.8589 319.124 56.1926C320.32 55.5263 321.261 54.5856 321.947 53.3705C322.652 52.1554 323.005 50.7149 323.005 49.0491C323.005 47.4029 322.652 45.9722 321.947 44.7571C321.261 43.542 320.32 42.6013 319.124 41.935C317.949 41.2491 316.616 40.9061 315.126 40.9061C313.735 40.9061 312.54 41.2001 311.54 41.788C311.014 42.0972 310.554 42.4903 310.158 42.9675V41.1413H305.778V62.66H310.364V55.2825C310.738 55.6919 311.159 56.0344 311.628 56.3102ZM316.361 52.9001C315.773 53.2529 315.097 53.4293 314.333 53.4293C313.568 53.4293 312.882 53.2529 312.275 52.9001C311.667 52.5474 311.187 52.0476 310.834 51.4009C310.482 50.7345 310.305 49.9506 310.305 49.0491C310.305 48.128 310.482 47.3441 310.834 46.6973C311.187 46.0506 311.667 45.5508 312.275 45.1981C312.882 44.8453 313.568 44.6689 314.333 44.6689C315.097 44.6689 315.773 44.8453 316.361 45.1981C316.969 45.5508 317.449 46.0506 317.802 46.6973C318.174 47.3441 318.36 48.128 318.36 49.0491C318.36 49.9506 318.174 50.7345 317.802 51.4009C317.449 52.0476 316.969 52.5474 316.361 52.9001ZM326.075 56.9569V41.1413H330.455V43.2179C330.887 42.6287 331.436 42.1521 332.101 41.788C333.14 41.2001 334.404 40.9061 335.893 40.9061V45.1393C335.697 45.1197 335.521 45.1099 335.364 45.1099C335.208 45.0903 335.041 45.0805 334.865 45.0805C333.61 45.0805 332.591 45.4431 331.807 46.1682C331.043 46.8737 330.661 47.981 330.661 49.4901V56.9569H326.075ZM352.812 57.1921C351.46 57.1921 350.156 57.0353 348.902 56.7218C347.667 56.3886 346.688 55.977 345.962 55.4871L347.491 52.1946C348.216 52.6454 349.069 53.0177 350.049 53.3117C351.048 53.5861 352.028 53.7233 352.988 53.7233C354.047 53.7233 354.791 53.5959 355.223 53.3411C355.673 53.0863 355.899 52.7336 355.899 52.2828C355.899 51.9104 355.722 51.6361 355.37 51.4597C355.036 51.2637 354.586 51.1167 354.017 51.0187C353.449 50.9207 352.822 50.8227 352.136 50.7247C351.469 50.6268 350.793 50.4994 350.107 50.3426C349.421 50.1662 348.794 49.9114 348.226 49.5783C347.658 49.2451 347.197 48.7943 346.844 48.226C346.511 47.6576 346.345 46.9227 346.345 46.0212C346.345 45.0217 346.629 44.1398 347.197 43.3755C347.785 42.6111 348.628 42.0134 349.725 41.5822C350.823 41.1315 352.136 40.9061 353.664 40.9061C354.742 40.9061 355.84 41.0237 356.957 41.2589C358.074 41.494 359.005 41.837 359.75 42.2878L358.221 45.5508C357.457 45.1001 356.683 44.7963 355.899 44.6395C355.134 44.4632 354.39 44.375 353.664 44.375C352.645 44.375 351.901 44.5122 351.43 44.7865C350.96 45.0609 350.725 45.4137 350.725 45.8448C350.725 46.2368 350.891 46.5308 351.225 46.7267C351.577 46.9227 352.038 47.0795 352.606 47.1971C353.175 47.3147 353.792 47.4225 354.458 47.5205C355.144 47.5989 355.83 47.7262 356.516 47.9026C357.202 48.079 357.819 48.3338 358.368 48.6669C358.936 48.9805 359.397 49.4215 359.75 49.9898C360.102 50.5386 360.279 51.2637 360.279 52.1652C360.279 53.1451 359.985 54.0172 359.397 54.7815C358.809 55.5263 357.956 56.1142 356.839 56.5454C355.742 56.9765 354.399 57.1921 352.812 57.1921ZM366.195 56.1338C367.567 56.8393 369.154 57.1921 370.957 57.1921C372.388 57.1921 373.652 56.9765 374.75 56.5454C375.847 56.0946 376.758 55.4577 377.484 54.6346L375.044 51.9888C374.514 52.4984 373.926 52.8805 373.28 53.1353C372.653 53.3901 371.918 53.5175 371.075 53.5175C370.134 53.5175 369.311 53.3509 368.606 53.0177C367.92 52.665 367.381 52.1652 366.989 51.5185C366.786 51.1556 366.638 50.7636 366.546 50.3426H378.512C378.521 50.2562 378.53 50.168 378.538 50.0778C378.549 49.9633 378.56 49.8458 378.571 49.7252C378.591 49.4901 378.601 49.2843 378.601 49.1079C378.601 47.4029 378.238 45.9428 377.513 44.7277C376.788 43.4931 375.798 42.5523 374.544 41.9056C373.309 41.2393 371.918 40.9061 370.369 40.9061C368.762 40.9061 367.322 41.2589 366.048 41.9644C364.774 42.6503 363.765 43.6106 363.02 44.8453C362.295 46.0604 361.932 47.4617 361.932 49.0491C361.932 50.617 362.305 52.0182 363.05 53.2529C363.794 54.468 364.843 55.4283 366.195 56.1338ZM366.493 47.6674C366.569 47.1775 366.715 46.7366 366.93 46.3446C367.263 45.7174 367.724 45.2373 368.312 44.9041C368.919 44.5513 369.615 44.375 370.399 44.375C371.183 44.375 371.869 44.5513 372.457 44.9041C373.045 45.2373 373.505 45.7076 373.838 46.3152C374.059 46.7184 374.207 47.1692 374.282 47.6674H366.493Z" fill="white"/>
<path d="M0 18.7342C0 23.3899 3.77593 27.1659 8.43162 27.1659C13.0873 27.1659 16.8632 23.3899 16.8632 18.7342C16.8632 14.0785 13.0873 10.3026 8.43162 10.3026C3.77272 10.3026 0 14.0785 0 18.7342Z" fill="#1ECAD3"/>
<path d="M16.799 27.1659H33.5371C33.5371 36.4805 26.043 44.0291 16.799 44.0291V27.1659Z" fill="#90B3E6"/>
<path d="M33.5338 10.3026V27.1659H16.799C16.799 17.8513 24.2899 10.3026 33.5338 10.3026Z" fill="white"/>
<path d="M16.799 27.1659H0.0610078C0.0610078 36.4805 7.55507 44.0291 16.799 44.0291V27.1659Z" fill="#D0DDF4"/>
<path d="M70.5193 31.1023V10.3122H65.9985V31.1023C65.9985 35.8768 62.1134 39.7619 57.3389 39.7619C52.5644 39.7619 48.6793 35.8768 48.6793 31.1023V10.293H44.1585V31.1023C44.1585 38.3684 50.0696 44.2828 57.3389 44.2828C64.6082 44.2828 70.5193 38.3684 70.5193 31.1023ZM91.136 25.9907H91.3255V21.9451C90.5645 21.4699 89.4214 21.0878 87.9445 21.0878C84.5635 21.0878 82.2324 22.4684 80.8999 25.1334H80.8068L80.7105 21.563H77.2845V43.8365H81.3302V33.6999C81.3302 27.8947 83.3755 24.9408 87.6619 24.9408C88.9944 24.9408 90.1856 25.3228 91.136 25.9907ZM98.7039 28.036C98.7039 26.0356 100.56 24.7032 103.414 24.7032C106.509 24.7032 108.889 25.5123 110.411 27.0824H110.6V22.8023C108.934 21.7075 106.269 21.0878 103.318 21.0878C98.1292 21.0878 94.7033 23.9422 94.7033 28.1805C94.7033 32.2261 96.8449 34.082 102.698 34.4641C106.696 34.7017 107.935 35.5589 107.935 37.3666C107.935 39.4119 106.031 40.6995 102.984 40.6995C99.4135 40.6995 96.6522 39.6528 94.8445 37.6042H94.6551V41.9838C96.511 43.5057 99.4135 44.3149 103.125 44.3149C108.552 44.3149 111.929 41.6499 111.929 37.3666C111.929 32.9871 109.691 30.9418 103.6 30.6079C99.892 30.4152 98.7039 29.6542 98.7039 28.036ZM119.976 28.036C119.976 26.0356 121.832 24.7032 124.689 24.7032C127.784 24.7032 130.164 25.5123 131.686 27.0824H131.875V22.8023C130.209 21.7075 127.544 21.0878 124.593 21.0878C119.404 21.0878 115.978 23.9422 115.978 28.1805C115.978 32.2261 118.12 34.082 123.973 34.4641C127.971 34.7017 129.21 35.5589 129.21 37.3666C129.21 39.4119 127.306 40.6995 124.259 40.6995C120.688 40.6995 117.927 39.6528 116.119 37.6042H115.93V41.9838C117.786 43.5057 120.688 44.3149 124.4 44.3149C129.826 44.3149 133.204 41.6499 133.204 37.3666C133.204 32.9871 130.966 30.9418 124.875 30.6079C121.167 30.4152 119.976 29.6542 119.976 28.036ZM156.672 32.7013C156.672 37.4116 153.484 40.6963 148.963 40.6963C144.394 40.6963 141.254 37.4116 141.254 32.7013C141.254 27.9878 144.394 24.7064 148.963 24.7064C153.484 24.7032 156.672 27.9878 156.672 32.7013ZM157.147 43.8397H160.573V21.563H157.147L157.006 25.1334H156.91C155.243 22.6097 152.196 21.0878 148.295 21.0878C141.822 21.0878 137.157 25.9425 137.157 32.7013C137.157 39.4601 141.819 44.3149 148.295 44.3149C152.196 44.3149 155.243 42.7929 156.91 40.3174H157.006L157.147 43.8397ZM181.087 14.9101V11.1021C180.137 10.6269 178.564 10.293 176.708 10.293C171.901 10.293 169.236 13.1474 169.236 18.1948V22.0382H165.142V25.5604H169.236V43.8365H173.33V25.5604H180.471V22.0382H173.33V18.2911C173.33 15.4367 174.759 13.9116 177.279 13.9116C178.564 13.9116 179.944 14.2905 180.898 14.9101H181.087Z" fill="white"/>
<path d="M180.169 57.5338C179.973 58.1246 179.546 58.5934 178.695 58.5934C177.809 58.5934 177.132 57.9384 177.109 56.9976H181.065C181.074 56.9302 181.087 56.8018 181.087 56.6701C181.087 55.0326 180.182 53.9152 178.564 53.9152C177.241 53.9152 176.049 55.039 176.049 56.6894C176.049 58.4714 177.286 59.4989 178.695 59.4989C179.919 59.4989 180.76 58.7668 181.055 57.8389L180.169 57.5338ZM177.141 56.1692C177.186 55.4917 177.709 54.8239 178.573 54.8239C179.501 54.8239 179.992 55.4147 180.015 56.1692H177.141ZM174.836 51.4268H173.808V59.3383H174.836V51.4268ZM169.776 58.6384C169.252 58.6384 168.925 58.2659 168.925 57.8742C168.925 57.4054 169.252 57.1517 169.689 57.0875L171.294 56.8467V57.0875C171.294 58.2338 170.617 58.6384 169.776 58.6384ZM167.875 57.9288C167.875 58.7604 168.562 59.5021 169.634 59.5021C170.575 59.5021 171.098 58.998 171.326 58.6287C171.326 59.0108 171.358 59.2067 171.381 59.3383H172.386C172.363 59.2067 172.322 58.9337 172.322 58.4746V55.8417C172.322 54.8143 171.708 53.9184 170.135 53.9184C168.999 53.9184 168.093 54.6184 167.981 55.6234L168.963 55.8514C169.027 55.2381 169.432 54.7918 170.154 54.7918C170.951 54.7918 171.291 55.2188 171.291 55.7326C171.291 55.9188 171.204 56.0825 170.886 56.1275L169.467 56.3362C168.565 56.4646 167.875 56.988 167.875 57.9288ZM165.319 52.0947C165.319 52.4993 165.646 52.8268 166.051 52.8268C166.465 52.8268 166.796 52.4993 166.796 52.0947C166.796 51.6805 166.468 51.353 166.051 51.353C165.646 51.3498 165.319 51.6773 165.319 52.0947ZM166.565 54.0822H165.547V59.3383H166.565V54.0822ZM162.073 54.8688C162.969 54.8688 163.351 55.4693 163.482 55.983L164.41 55.5881C164.192 54.7918 163.469 53.9152 162.073 53.9152C160.577 53.9152 159.427 55.0615 159.427 56.7022C159.427 58.298 160.554 59.4989 162.082 59.4989C163.447 59.4989 164.202 58.6127 164.455 57.8613L163.547 57.4664C163.428 57.8806 163.065 58.5484 162.082 58.5484C161.232 58.5484 160.477 57.9031 160.477 56.7022C160.477 55.4821 161.244 54.8688 162.073 54.8688ZM155.975 53.9184C154.402 53.9184 153.288 55.1097 153.288 56.7054C153.288 58.3108 154.402 59.5021 155.975 59.5021C157.549 59.5021 158.663 58.3108 158.663 56.7054C158.666 55.1097 157.552 53.9184 155.975 53.9184ZM155.975 58.5838C155.102 58.5838 154.338 57.9288 154.338 56.7054C154.338 55.4917 155.102 54.8367 155.975 54.8367C156.849 54.8367 157.613 55.4917 157.613 56.7054C157.616 57.9288 156.852 58.5838 155.975 58.5838ZM148.459 57.9705C148.546 58.5709 149.159 59.5021 150.6 59.5021C151.901 59.5021 152.524 58.6159 152.524 57.8742C152.524 57.0972 152.023 56.5192 151.069 56.3105L150.218 56.1243C149.814 56.0376 149.618 55.8064 149.618 55.4917C149.618 55.1321 149.968 54.7918 150.491 54.7918C151.323 54.7918 151.541 55.3922 151.583 55.6651L152.488 55.328C152.379 54.8592 151.933 53.9184 150.488 53.9184C149.461 53.9184 148.619 54.6826 148.619 55.5784C148.619 56.3201 149.111 56.8788 149.929 57.0522L150.825 57.2481C151.262 57.3476 151.503 57.598 151.503 57.9255C151.503 58.298 151.185 58.6255 150.607 58.6255C149.865 58.6255 149.448 58.1888 149.384 57.643L148.459 57.9705ZM141.344 56.3009C141.344 55.5046 141.758 54.8592 142.567 54.8592C143.485 54.8592 143.79 55.45 143.79 56.1821V59.3383H144.818V56.0055C144.818 54.8367 144.195 53.9281 142.939 53.9281C142.326 53.9281 141.703 54.1785 141.321 54.8335V54.079H140.316V59.3351H141.344V56.3009ZM136.425 53.9184C134.851 53.9184 133.737 55.1097 133.737 56.7054C133.737 58.3108 134.851 59.5021 136.425 59.5021C137.998 59.5021 139.112 58.3108 139.112 56.7054C139.112 55.1097 137.998 53.9184 136.425 53.9184ZM136.425 58.5838C135.551 58.5838 134.787 57.9288 134.787 56.7054C134.787 55.4917 135.551 54.8367 136.425 54.8367C137.298 54.8367 138.062 55.4917 138.062 56.7054C138.065 57.9288 137.298 58.5838 136.425 58.5838ZM131.291 52.0947C131.291 52.4993 131.618 52.8268 132.023 52.8268C132.437 52.8268 132.768 52.4993 132.768 52.0947C132.768 51.6805 132.44 51.353 132.023 51.353C131.618 51.3498 131.291 51.6773 131.291 52.0947ZM132.536 54.0822H131.519V59.3383H132.536V54.0822ZM129.126 52.4222H128.186V53.2731C128.186 53.7322 127.945 54.0822 127.377 54.0822H127.091V55.0101H128.099V57.8934C128.099 58.8438 128.667 59.3897 129.563 59.3897C129.913 59.3897 130.176 59.3255 130.263 59.2901V58.4168C130.176 58.4393 129.99 58.4618 129.859 58.4618C129.322 58.4618 129.126 58.2209 129.126 57.7393V55.0069H130.263V54.079H129.126V52.4222ZM124.275 54.8688C125.171 54.8688 125.553 55.4693 125.684 55.983L126.612 55.5881C126.394 54.7918 125.672 53.9152 124.275 53.9152C122.779 53.9152 121.629 55.0615 121.629 56.7022C121.629 58.298 122.756 59.4989 124.285 59.4989C125.649 59.4989 126.404 58.6127 126.654 57.8613L125.749 57.4664C125.63 57.8806 125.267 58.5484 124.285 58.5484C123.434 58.5484 122.679 57.9031 122.679 56.7022C122.679 55.4821 123.443 54.8688 124.275 54.8688ZM119.947 57.5338C119.751 58.1246 119.324 58.5934 118.473 58.5934C117.587 58.5934 116.909 57.9384 116.89 56.9976H120.846C120.855 56.9302 120.868 56.8018 120.868 56.6701C120.868 55.0326 119.96 53.9152 118.345 53.9152C117.022 53.9152 115.83 55.039 115.83 56.6894C115.83 58.4714 117.067 59.4989 118.473 59.4989C119.696 59.4989 120.538 58.7668 120.833 57.8389L119.947 57.5338ZM116.922 56.1692C116.967 55.4917 117.49 54.8239 118.354 54.8239C119.282 54.8239 119.773 55.4147 119.796 56.1692H116.922ZM113.917 52.4222H112.976V53.2731C112.976 53.7322 112.735 54.0822 112.167 54.0822H111.884V55.0101H112.889V57.8934C112.889 58.8438 113.458 59.3897 114.353 59.3897C114.703 59.3897 114.967 59.3255 115.053 59.2901V58.4168C114.967 58.4393 114.781 58.4618 114.649 58.4618C114.113 58.4618 113.917 58.2209 113.917 57.7393V55.0069H115.053V54.079H113.917V52.4222ZM108.706 53.9184C107.132 53.9184 106.018 55.1097 106.018 56.7054C106.018 58.3108 107.132 59.5021 108.706 59.5021C110.279 59.5021 111.393 58.3108 111.393 56.7054C111.393 55.1097 110.279 53.9184 108.706 53.9184ZM108.706 58.5838C107.832 58.5838 107.068 57.9288 107.068 56.7054C107.068 55.4917 107.832 54.8367 108.706 54.8367C109.579 54.8367 110.343 55.4917 110.343 56.7054C110.343 57.9288 109.579 58.5838 108.706 58.5838ZM105.524 54.0276C105.469 54.0148 105.328 53.9955 105.183 53.9955C104.647 53.9955 103.992 54.1914 103.61 55.0005V54.0822H102.605V59.3383H103.633V56.7054C103.633 55.5463 104.21 55.0872 105.074 55.0872C105.215 55.0872 105.37 55.0968 105.521 55.1193L105.524 54.0276ZM100.358 56.7054C100.358 57.7875 99.7571 58.5645 98.8067 58.5645C97.8659 58.5645 97.243 57.7907 97.243 56.7054C97.243 55.6555 97.8659 54.8688 98.8067 54.8688C99.7667 54.8688 100.358 55.6555 100.358 56.7054ZM97.2526 61.4157V58.6287C97.5352 59.0975 98.1485 59.4796 98.9576 59.4796C100.499 59.4796 101.404 58.2659 101.404 56.7022C101.404 55.1739 100.563 53.9602 98.9897 53.9602C98.1388 53.9602 97.5159 54.3744 97.2302 54.9009V54.0822H96.2348V61.4125L97.2526 61.4157ZM91.5149 57.5338C91.319 58.1246 90.892 58.5934 90.0411 58.5934C89.1549 58.5934 88.4775 57.9384 88.455 56.9976H92.4107C92.4204 56.9302 92.4332 56.8018 92.4332 56.6701C92.4332 55.0326 91.5277 53.9152 89.9095 53.9152C88.5866 53.9152 87.3954 55.039 87.3954 56.6894C87.3954 58.4714 88.6316 59.4989 90.0411 59.4989C91.2645 59.4989 92.1057 58.7668 92.4011 57.8389L91.5149 57.5338ZM88.4871 56.1692C88.5321 55.4917 89.0554 54.8239 89.9191 54.8239C90.847 54.8239 91.3383 55.4147 91.3608 56.1692H88.4871ZM86.8913 54.0276C86.8367 54.0148 86.6955 53.9955 86.551 53.9955C86.0148 53.9955 85.3598 54.1914 84.9777 55.0005V54.0822H83.9727V59.3383H85.0001V56.7054C85.0001 55.5463 85.5781 55.0872 86.4418 55.0872C86.5831 55.0872 86.7372 55.0968 86.8881 55.1193L86.8913 54.0276ZM81.6898 52.4222H80.749V53.2731C80.749 53.7322 80.5082 54.0822 79.9399 54.0822H79.6573V55.0101H80.6623V57.8934C80.6623 58.8438 81.2306 59.3897 82.1265 59.3897C82.4764 59.3897 82.7397 59.3255 82.8264 59.2901V58.4168C82.7397 58.4393 82.5535 58.4618 82.4218 58.4618C81.8856 58.4618 81.6898 58.2209 81.6898 57.7393V55.0069H82.8264V54.079H81.6898V52.4222ZM76.4786 53.9184C74.9053 53.9184 73.7912 55.1097 73.7912 56.7054C73.7912 58.3108 74.9053 59.5021 76.4786 59.5021C78.0519 59.5021 79.1661 58.3108 79.1661 56.7054C79.1661 55.1097 78.0519 53.9184 76.4786 53.9184ZM76.4786 58.5838C75.6053 58.5838 74.8411 57.9288 74.8411 56.7054C74.8411 55.4917 75.6053 54.8367 76.4786 54.8367C77.352 54.8367 78.1161 55.4917 78.1161 56.7054C78.1161 57.9288 77.352 58.5838 76.4786 58.5838ZM69.2222 56.3009C69.2222 55.5046 69.6364 54.8592 70.4455 54.8592C71.3638 54.8592 71.6688 55.45 71.6688 56.1821V59.3383H72.6963V56.0055C72.6963 54.8367 72.0734 53.9281 70.8179 53.9281C70.2047 53.9281 69.5818 54.1785 69.1997 54.8335V54.079H68.1947V59.3351H69.2222V56.3009ZM63.4716 57.5338C63.2757 58.1246 62.8487 58.5934 61.9978 58.5934C61.1116 58.5934 60.4341 57.9384 60.4149 56.9976H64.3706C64.3802 56.9302 64.3931 56.8018 64.3931 56.6701C64.3931 55.0326 63.4844 53.9152 61.8694 53.9152C60.5465 53.9152 59.3553 55.039 59.3553 56.6894C59.3553 58.4714 60.5915 59.4989 62.001 59.4989C63.2243 59.4989 64.0656 58.7668 64.361 57.8389L63.4716 57.5338ZM60.447 56.1692C60.4919 55.4917 61.0153 54.8239 61.879 54.8239C62.8069 54.8239 63.2982 55.4147 63.3207 56.1692H60.447ZM57.1462 58.6287C57.1462 58.9466 57.1784 59.2195 57.2008 59.3383H58.1962C58.1865 59.2516 58.1416 58.8695 58.1416 58.3654V51.4268H57.1238V54.8239C56.9504 54.3969 56.4463 53.9377 55.5184 53.9377C54.0317 53.9377 53.0268 55.206 53.0268 56.6926C53.0268 58.2563 53.9772 59.4796 55.5184 59.4796C56.3371 59.4796 56.8958 59.0429 57.1462 58.5388V58.6287ZM54.0735 56.6926C54.0735 55.6105 54.6867 54.8464 55.6243 54.8464C56.5651 54.8464 57.1334 55.5881 57.1334 56.6701C57.1334 57.7522 56.5555 58.5709 55.6147 58.5709C54.6322 58.5741 54.0735 57.7746 54.0735 56.6926ZM48.7403 57.5338C48.5445 58.1246 48.1174 58.5934 47.2633 58.5934C46.3771 58.5934 45.6997 57.9384 45.6804 56.9976H49.6361C49.6458 56.9302 49.6586 56.8018 49.6586 56.6701C49.6586 55.0326 48.7532 53.9152 47.1349 53.9152C45.812 53.9152 44.6208 55.039 44.6208 56.6894C44.6208 58.4714 45.857 59.4989 47.2633 59.4989C48.4867 59.4989 49.3279 58.7668 49.6233 57.8389L48.7403 57.5338ZM45.7125 56.1692C45.7575 55.4917 46.2808 54.8239 47.1445 54.8239C48.0725 54.8239 48.5637 55.4147 48.5862 56.1692H45.7125ZM41.6251 54.8688C42.5209 54.8688 42.903 55.4693 43.0347 55.983L43.9626 55.5881C43.7443 54.7918 43.0218 53.9152 41.6251 53.9152C40.1289 53.9152 38.9826 55.0615 38.9826 56.7022C38.9826 58.298 40.1064 59.4989 41.638 59.4989C43.0026 59.4989 43.7571 58.6127 44.0108 57.8613L43.1021 57.4664C42.9833 57.8806 42.6205 58.5484 41.638 58.5484C40.7871 58.5484 40.0326 57.9031 40.0326 56.7022C40.0326 55.4821 40.7967 54.8688 41.6251 54.8688ZM36.5328 52.0947C36.5328 52.4993 36.8603 52.8268 37.2648 52.8268C37.679 52.8268 38.0065 52.4993 38.0065 52.0947C38.0065 51.6805 37.679 51.353 37.2648 51.353C36.8635 51.3498 36.5328 51.6773 36.5328 52.0947ZM37.7786 54.0822H36.7607V59.3383H37.7786V54.0822ZM35.8906 54.0822H34.7861L33.277 58.1343L31.7807 54.0822H30.6216L32.7536 59.3383H33.7907L35.8906 54.0822ZM30.2395 54.0276C30.185 54.0148 30.0437 53.9955 29.8992 53.9955C29.363 53.9955 28.708 54.1914 28.3259 55.0005V54.0822H27.3209V59.3383H28.3484V56.7054C28.3484 55.5463 28.9263 55.0872 29.79 55.0872C29.9313 55.0872 30.0854 55.0968 30.2363 55.1193V54.0276H30.2395ZM25.205 57.5338C25.0091 58.1246 24.5821 58.5934 23.7312 58.5934C22.845 58.5934 22.1675 57.9384 22.1451 56.9976H26.1008C26.1104 56.9302 26.1233 56.8018 26.1233 56.6701C26.1233 55.0326 25.2178 53.9152 23.5996 53.9152C22.2767 53.9152 21.0855 55.039 21.0855 56.6894C21.0855 58.4714 22.3217 59.4989 23.7312 59.4989C24.9545 59.4989 25.7958 58.7668 26.0912 57.8389L25.205 57.5338ZM22.1772 56.1692C22.2221 55.4917 22.7455 54.8239 23.6092 54.8239C24.5371 54.8239 25.0284 55.4147 25.0508 56.1692H22.1772ZM16.2468 57.9705C16.3335 58.5709 16.9467 59.5021 18.3884 59.5021C19.6888 59.5021 20.3117 58.6159 20.3117 57.8742C20.3117 57.0972 19.8108 56.5192 18.8572 56.3105L18.0063 56.1243C17.6017 56.0376 17.4059 55.8064 17.4059 55.4917C17.4059 55.1321 17.7559 54.7918 18.2792 54.7918C19.1108 54.7918 19.3292 55.3922 19.3709 55.6651L20.2764 55.328C20.1672 54.8592 19.7177 53.9184 18.276 53.9184C17.2486 53.9184 16.4073 54.6826 16.4073 55.5784C16.4073 56.3201 16.8986 56.8788 17.7173 57.0522L18.6131 57.2481C19.0498 57.3476 19.2906 57.598 19.2906 57.9255C19.2906 58.298 18.9728 58.6255 18.3948 58.6255C17.6531 58.6255 17.2357 58.1888 17.1715 57.643L16.2468 57.9705ZM11.5236 58.7058C11.5236 58.9241 11.5461 59.2195 11.5686 59.3383H12.5511C12.5286 59.1521 12.4965 58.7796 12.4965 58.3654V54.0822H11.4691V57.2513C11.4691 58.0476 11.0549 58.5934 10.2233 58.5934C9.35955 58.5934 9.03205 57.9609 9.03205 57.2384V54.0822H8.00459V57.3926C8.00459 58.5838 8.74629 59.5021 9.97282 59.5021C10.5829 59.5021 11.2379 59.2516 11.5236 58.7058ZM3.73098 52.7047L5.0731 56.1789H2.40812L3.73098 52.7047ZM6.29964 59.3383H7.45875L4.37636 51.5906H3.1434L0.0610078 59.3383H1.20727L2.02603 57.1742H5.4584L6.29964 59.3383Z" fill="white"/>
</svg>
