<svg width="1240" height="209" viewBox="0 0 1240 209" fill="none" xmlns="http://www.w3.org/2000/svg">
<line x1="674.5" y1="2.18557e-08" x2="674.5" y2="209" stroke="#9CB3E4"/>
<path d="M795.056 40.584C801.52 40.584 806.64 42.504 810.416 46.344C814.256 50.12 816.176 55.816 816.176 63.432V93H801.2V65.736C801.2 61.64 800.336 58.6 798.608 56.616C796.944 54.568 794.544 53.544 791.408 53.544C787.888 53.544 785.104 54.696 783.056 57C781.008 59.24 779.984 62.6 779.984 67.08V93H765.008V65.736C765.008 57.608 761.744 53.544 755.216 53.544C751.76 53.544 749.008 54.696 746.96 57C744.912 59.24 743.888 62.6 743.888 67.08V93H728.912V41.352H743.216V47.304C745.136 45.128 747.472 43.464 750.224 42.312C753.04 41.16 756.112 40.584 759.44 40.584C763.088 40.584 766.384 41.32 769.328 42.792C772.272 44.2 774.64 46.28 776.432 49.032C778.544 46.344 781.2 44.264 784.4 42.792C787.664 41.32 791.216 40.584 795.056 40.584ZM854.738 93.768C849.298 93.768 844.402 92.648 840.05 90.408C835.762 88.104 832.402 84.936 829.97 80.904C827.538 76.872 826.322 72.296 826.322 67.176C826.322 62.056 827.538 57.48 829.97 53.448C832.402 49.416 835.762 46.28 840.05 44.04C844.402 41.736 849.298 40.584 854.738 40.584C860.178 40.584 865.042 41.736 869.33 44.04C873.618 46.28 876.978 49.416 879.41 53.448C881.842 57.48 883.058 62.056 883.058 67.176C883.058 72.296 881.842 76.872 879.41 80.904C876.978 84.936 873.618 88.104 869.33 90.408C865.042 92.648 860.178 93.768 854.738 93.768ZM854.738 81.48C858.578 81.48 861.714 80.2 864.146 77.64C866.642 75.016 867.89 71.528 867.89 67.176C867.89 62.824 866.642 59.368 864.146 56.808C861.714 54.184 858.578 52.872 854.738 52.872C850.898 52.872 847.73 54.184 845.234 56.808C842.738 59.368 841.49 62.824 841.49 67.176C841.49 71.528 842.738 75.016 845.234 77.64C847.73 80.2 850.898 81.48 854.738 81.48ZM924.46 40.584C930.86 40.584 936.012 42.504 939.916 46.344C943.884 50.184 945.868 55.88 945.868 63.432V93H930.892V65.736C930.892 61.64 929.996 58.6 928.204 56.616C926.412 54.568 923.82 53.544 920.428 53.544C916.652 53.544 913.644 54.728 911.404 57.096C909.164 59.4 908.044 62.856 908.044 67.464V93H893.068V41.352H907.372V47.4C909.356 45.224 911.82 43.56 914.764 42.408C917.708 41.192 920.94 40.584 924.46 40.584Z" fill="#1A428A"/>
<path d="M957.523 59.976H984.691V71.976H957.523V59.976Z" fill="#1ECAD3"/>
<path d="M779.504 160.368C779.504 160.56 779.408 161.904 779.216 164.4H740.144C740.848 167.6 742.512 170.128 745.136 171.984C747.76 173.84 751.024 174.768 754.928 174.768C757.616 174.768 759.984 174.384 762.032 173.616C764.144 172.784 766.096 171.504 767.888 169.776L775.856 178.416C770.992 183.984 763.888 186.768 754.544 186.768C748.72 186.768 743.568 185.648 739.088 183.408C734.608 181.104 731.152 177.936 728.72 173.904C726.288 169.872 725.072 165.296 725.072 160.176C725.072 155.12 726.256 150.576 728.624 146.544C731.056 142.448 734.352 139.28 738.512 137.04C742.736 134.736 747.44 133.584 752.624 133.584C757.68 133.584 762.256 134.672 766.352 136.848C770.448 139.024 773.648 142.16 775.952 146.256C778.32 150.288 779.504 154.992 779.504 160.368ZM752.72 144.912C749.328 144.912 746.48 145.872 744.176 147.792C741.872 149.712 740.464 152.336 739.952 155.664H765.392C764.88 152.4 763.472 149.808 761.168 147.888C758.864 145.904 756.048 144.912 752.72 144.912ZM820.867 133.584C827.267 133.584 832.419 135.504 836.323 139.344C840.291 143.184 842.275 148.88 842.275 156.432V186H827.299V158.736C827.299 154.64 826.403 151.6 824.611 149.616C822.819 147.568 820.227 146.544 816.835 146.544C813.059 146.544 810.051 147.728 807.811 150.096C805.571 152.4 804.451 155.856 804.451 160.464V186H789.475V134.352H803.779V140.4C805.763 138.224 808.227 136.56 811.171 135.408C814.115 134.192 817.347 133.584 820.867 133.584ZM889.162 183.504C887.69 184.592 885.866 185.424 883.69 186C881.578 186.512 879.338 186.768 876.97 186.768C870.826 186.768 866.058 185.2 862.666 182.064C859.338 178.928 857.674 174.32 857.674 168.24V147.024H849.706V135.504H857.674V122.928H872.65V135.504H885.514V147.024H872.65V168.048C872.65 170.224 873.194 171.92 874.281 173.136C875.434 174.288 877.034 174.864 879.082 174.864C881.45 174.864 883.466 174.224 885.13 172.944L889.162 183.504ZM911.872 141.168C913.664 138.672 916.064 136.784 919.072 135.504C922.144 134.224 925.664 133.584 929.632 133.584V147.408C927.968 147.28 926.848 147.216 926.272 147.216C921.984 147.216 918.624 148.432 916.192 150.864C913.76 153.232 912.544 156.816 912.544 161.616V186H897.568V134.352H911.872V141.168ZM988.66 160.368C988.66 160.56 988.564 161.904 988.372 164.4H949.3C950.004 167.6 951.668 170.128 954.292 171.984C956.916 173.84 960.18 174.768 964.084 174.768C966.772 174.768 969.14 174.384 971.188 173.616C973.3 172.784 975.252 171.504 977.044 169.776L985.012 178.416C980.148 183.984 973.044 186.768 963.7 186.768C957.876 186.768 952.724 185.648 948.244 183.408C943.764 181.104 940.308 177.936 937.876 173.904C935.444 169.872 934.228 165.296 934.228 160.176C934.228 155.12 935.412 150.576 937.78 146.544C940.212 142.448 943.508 139.28 947.668 137.04C951.892 134.736 956.596 133.584 961.78 133.584C966.836 133.584 971.412 134.672 975.508 136.848C979.604 139.024 982.804 142.16 985.108 146.256C987.476 150.288 988.66 154.992 988.66 160.368ZM961.876 144.912C958.484 144.912 955.636 145.872 953.332 147.792C951.028 149.712 949.62 152.336 949.108 155.664H974.548C974.036 152.4 972.628 149.808 970.324 147.888C968.02 145.904 965.204 144.912 961.876 144.912ZM1029.16 133.584C1033.96 133.584 1038.31 134.704 1042.21 136.944C1046.18 139.12 1049.29 142.224 1051.53 146.256C1053.77 150.224 1054.89 154.864 1054.89 160.176C1054.89 165.488 1053.77 170.16 1051.53 174.192C1049.29 178.16 1046.18 181.264 1042.21 183.504C1038.31 185.68 1033.96 186.768 1029.16 186.768C1022.57 186.768 1017.38 184.688 1013.61 180.528V204.624H998.631V134.352H1012.93V140.304C1016.65 135.824 1022.05 133.584 1029.16 133.584ZM1026.57 174.48C1030.41 174.48 1033.54 173.2 1035.97 170.64C1038.47 168.016 1039.72 164.528 1039.72 160.176C1039.72 155.824 1038.47 152.368 1035.97 149.808C1033.54 147.184 1030.41 145.872 1026.57 145.872C1022.73 145.872 1019.56 147.184 1017.06 149.808C1014.63 152.368 1013.41 155.824 1013.41 160.176C1013.41 164.528 1014.63 168.016 1017.06 170.64C1019.56 173.2 1022.73 174.48 1026.57 174.48ZM1079.22 141.168C1081.01 138.672 1083.41 136.784 1086.42 135.504C1089.49 134.224 1093.01 133.584 1096.98 133.584V147.408C1095.31 147.28 1094.19 147.216 1093.62 147.216C1089.33 147.216 1085.97 148.432 1083.54 150.864C1081.1 153.232 1079.89 156.816 1079.89 161.616V186H1064.91V134.352H1079.22V141.168ZM1105.88 134.352H1120.86V186H1105.88V134.352ZM1113.37 127.152C1110.62 127.152 1108.38 126.352 1106.65 124.752C1104.92 123.152 1104.06 121.168 1104.06 118.8C1104.06 116.432 1104.92 114.448 1106.65 112.848C1108.38 111.248 1110.62 110.448 1113.37 110.448C1116.12 110.448 1118.36 111.216 1120.09 112.752C1121.82 114.288 1122.68 116.208 1122.68 118.512C1122.68 121.008 1121.82 123.088 1120.09 124.752C1118.36 126.352 1116.12 127.152 1113.37 127.152ZM1152.13 186.768C1147.84 186.768 1143.65 186.256 1139.56 185.232C1135.46 184.144 1132.2 182.8 1129.76 181.2L1134.76 170.448C1137.06 171.92 1139.84 173.136 1143.11 174.096C1146.37 174.992 1149.57 175.44 1152.71 175.44C1159.04 175.44 1162.21 173.872 1162.21 170.736C1162.21 169.264 1161.35 168.208 1159.62 167.568C1157.89 166.928 1155.24 166.384 1151.65 165.936C1147.43 165.296 1143.94 164.56 1141.19 163.728C1138.44 162.896 1136.04 161.424 1133.99 159.312C1132 157.2 1131.01 154.192 1131.01 150.288C1131.01 147.024 1131.94 144.144 1133.8 141.648C1135.72 139.088 1138.47 137.104 1142.05 135.696C1145.7 134.288 1149.99 133.584 1154.92 133.584C1158.56 133.584 1162.18 134 1165.76 134.832C1169.41 135.6 1172.42 136.688 1174.79 138.096L1169.8 148.752C1165.25 146.192 1160.29 144.912 1154.92 144.912C1151.72 144.912 1149.32 145.36 1147.72 146.256C1146.12 147.152 1145.32 148.304 1145.32 149.712C1145.32 151.312 1146.18 152.432 1147.91 153.072C1149.64 153.712 1152.39 154.32 1156.16 154.896C1160.39 155.6 1163.84 156.368 1166.53 157.2C1169.22 157.968 1171.56 159.408 1173.54 161.52C1175.52 163.632 1176.52 166.576 1176.52 170.352C1176.52 173.552 1175.56 176.4 1173.64 178.896C1171.72 181.392 1168.9 183.344 1165.19 184.752C1161.54 186.096 1157.19 186.768 1152.13 186.768ZM1236.35 160.368C1236.35 160.56 1236.25 161.904 1236.06 164.4H1196.99C1197.69 167.6 1199.36 170.128 1201.98 171.984C1204.6 173.84 1207.87 174.768 1211.77 174.768C1214.46 174.768 1216.83 174.384 1218.88 173.616C1220.99 172.784 1222.94 171.504 1224.73 169.776L1232.7 178.416C1227.84 183.984 1220.73 186.768 1211.39 186.768C1205.56 186.768 1200.41 185.648 1195.93 183.408C1191.45 181.104 1188 177.936 1185.56 173.904C1183.13 169.872 1181.92 165.296 1181.92 160.176C1181.92 155.12 1183.1 150.576 1185.47 146.544C1187.9 142.448 1191.2 139.28 1195.36 137.04C1199.58 134.736 1204.28 133.584 1209.47 133.584C1214.52 133.584 1219.1 134.672 1223.2 136.848C1227.29 139.024 1230.49 142.16 1232.8 146.256C1235.16 150.288 1236.35 154.992 1236.35 160.368ZM1209.56 144.912C1206.17 144.912 1203.32 145.872 1201.02 147.792C1198.72 149.712 1197.31 152.336 1196.8 155.664H1222.24C1221.72 152.4 1220.32 149.808 1218.01 147.888C1215.71 145.904 1212.89 144.912 1209.56 144.912Z" fill="#1A428A"/>
<g clip-path="url(#clip0_3_81)">
<path d="M0.167786 61.179C0.167786 76.3828 12.4986 88.7135 27.7023 88.7135C42.9061 88.7135 55.2368 76.3828 55.2368 61.179C55.2368 45.9752 42.9061 33.6445 27.7023 33.6445C12.4881 33.6445 0.167786 45.9752 0.167786 61.179Z" fill="#1ECAD3"/>
<path d="M55.0271 88.7135H109.687C109.687 119.131 85.2144 143.783 55.0271 143.783V88.7135Z" fill="#90B3E6"/>
<path d="M109.677 33.6445V88.7135H55.0271C55.0271 58.2955 79.4894 33.6445 109.677 33.6445Z" fill="#0071CE"/>
<path d="M55.0271 88.7135H0.367004C0.367004 119.131 24.8398 143.783 55.0271 143.783V88.7135Z" fill="#D0DDF4"/>
<path d="M230.457 101.569V33.6759H215.694V101.569C215.694 117.16 203.007 129.847 187.415 129.847C171.823 129.847 159.136 117.16 159.136 101.569V33.613H144.373V101.569C144.373 125.297 163.676 144.611 187.415 144.611C211.154 144.611 230.457 125.297 230.457 101.569ZM297.784 84.8758H298.402V71.6643C295.917 70.1125 292.185 68.8647 287.361 68.8647C276.32 68.8647 268.708 73.3734 264.357 82.0762H264.052L263.738 70.4165H252.55V143.153H265.762V110.051C265.762 91.0936 272.441 81.4471 286.439 81.4471C290.79 81.4471 294.68 82.6949 297.784 84.8758ZM322.498 91.555C322.498 85.0226 328.558 80.6712 337.88 80.6712C347.988 80.6712 355.757 83.3135 360.727 88.4409H361.346V74.4639C355.904 70.8884 347.201 68.8647 337.565 68.8647C320.621 68.8647 309.433 78.1862 309.433 92.0269C309.433 105.238 316.427 111.299 335.542 112.547C348.596 113.323 352.643 116.122 352.643 122.025C352.643 128.705 346.425 132.909 336.475 132.909C324.815 132.909 315.798 129.491 309.894 122.801H309.276V137.103C315.336 142.073 324.815 144.716 336.936 144.716C354.656 144.716 365.687 136.013 365.687 122.025C365.687 107.723 358.379 101.044 338.488 99.9538C326.377 99.3246 322.498 96.8396 322.498 91.555ZM391.963 91.555C391.963 85.0226 398.024 80.6712 407.356 80.6712C417.464 80.6712 425.233 83.3135 430.203 88.4409H430.822V74.4639C425.38 70.8884 416.677 68.8647 407.041 68.8647C390.097 68.8647 378.909 78.1862 378.909 92.0269C378.909 105.238 385.903 111.299 405.017 112.547C418.072 113.323 422.119 116.122 422.119 122.025C422.119 128.705 415.901 132.909 405.951 132.909C394.291 132.909 385.274 129.491 379.37 122.801H378.752V137.103C384.812 142.073 394.291 144.716 406.412 144.716C424.132 144.716 435.163 136.013 435.163 122.025C435.163 107.723 427.855 101.044 407.964 99.9538C395.853 99.3246 391.963 96.8396 391.963 91.555ZM511.8 106.79C511.8 122.172 501.388 132.899 486.625 132.899C471.704 132.899 461.45 122.172 461.45 106.79C461.45 91.3977 471.704 80.6817 486.625 80.6817C501.388 80.6712 511.8 91.3977 511.8 106.79ZM513.352 143.164H524.54V70.4165H513.352L512.891 82.0762H512.576C507.134 73.8348 497.184 68.8647 484.444 68.8647C463.306 68.8647 448.07 84.7186 448.07 106.79C448.07 128.862 463.295 144.716 484.444 144.716C497.184 144.716 507.134 139.746 512.576 131.661H512.891L513.352 143.164ZM591.531 48.6909V36.2553C588.427 34.7035 583.289 33.613 577.229 33.613C561.532 33.613 552.829 42.9345 552.829 59.4174V71.9684H539.461V83.4708H552.829V143.153H566.198V83.4708H589.518V71.9684H566.198V59.732C566.198 50.4105 570.864 45.43 579.095 45.43C583.289 45.43 587.798 46.6672 590.912 48.6909H591.531Z" fill="#1A428A"/>
<path d="M588.532 187.884C587.892 189.813 586.498 191.344 583.719 191.344C580.825 191.344 578.613 189.205 578.54 186.133H591.458C591.489 185.913 591.531 185.493 591.531 185.063C591.531 179.716 588.574 176.067 583.289 176.067C578.969 176.067 575.079 179.737 575.079 185.126C575.079 190.946 579.116 194.301 583.719 194.301C587.714 194.301 590.461 191.91 591.426 188.88L588.532 187.884ZM578.644 183.428C578.791 181.215 580.5 179.034 583.321 179.034C586.351 179.034 587.955 180.964 588.029 183.428H578.644ZM571.116 167.941H567.761V193.777H571.116V167.941ZM554.591 191.491C552.882 191.491 551.812 190.275 551.812 188.995C551.812 187.464 552.882 186.636 554.308 186.426L559.551 185.64V186.426C559.551 190.17 557.338 191.491 554.591 191.491ZM548.384 189.174C548.384 191.889 550.628 194.311 554.13 194.311C557.202 194.311 558.911 192.665 559.655 191.459C559.655 192.707 559.76 193.347 559.834 193.777H563.116C563.042 193.347 562.906 192.456 562.906 190.956V182.358C562.906 179.003 560.903 176.077 555.765 176.077C552.054 176.077 549.097 178.363 548.73 181.645L551.938 182.39C552.148 180.387 553.469 178.929 555.828 178.929C558.429 178.929 559.54 180.324 559.54 182.002C559.54 182.61 559.257 183.145 558.219 183.291L553.584 183.973C550.638 184.392 548.384 186.101 548.384 189.174ZM540.037 170.122C540.037 171.443 541.107 172.512 542.428 172.512C543.781 172.512 544.861 171.443 544.861 170.122C544.861 168.769 543.791 167.7 542.428 167.7C541.107 167.689 540.037 168.759 540.037 170.122ZM544.106 176.612H540.782V193.777H544.106V176.612ZM529.437 179.181C532.362 179.181 533.61 181.142 534.04 182.819L537.07 181.53C536.357 178.929 533.998 176.067 529.437 176.067C524.55 176.067 520.797 179.81 520.797 185.168C520.797 190.379 524.477 194.301 529.468 194.301C533.924 194.301 536.388 191.407 537.217 188.953L534.249 187.664C533.861 189.016 532.677 191.197 529.468 191.197C526.69 191.197 524.225 189.09 524.225 185.168C524.225 181.184 526.731 179.181 529.437 179.181ZM509.525 176.077C504.387 176.077 500.749 179.967 500.749 185.179C500.749 190.421 504.387 194.311 509.525 194.311C514.663 194.311 518.301 190.421 518.301 185.179C518.312 179.967 514.673 176.077 509.525 176.077ZM509.525 191.313C506.673 191.313 504.177 189.174 504.177 185.179C504.177 181.215 506.673 179.076 509.525 179.076C512.377 179.076 514.872 181.215 514.872 185.179C514.883 189.174 512.388 191.313 509.525 191.313ZM484.979 189.31C485.262 191.271 487.265 194.311 491.973 194.311C496.219 194.311 498.253 191.417 498.253 188.995C498.253 186.458 496.618 184.571 493.503 183.889L490.725 183.281C489.404 182.998 488.764 182.243 488.764 181.215C488.764 180.041 489.907 178.929 491.616 178.929C494.332 178.929 495.045 180.89 495.181 181.781L498.138 180.68C497.781 179.15 496.324 176.077 491.606 176.077C488.25 176.077 485.503 178.573 485.503 181.498C485.503 183.92 487.107 185.745 489.781 186.311L492.706 186.951C494.132 187.276 494.919 188.094 494.919 189.163C494.919 190.379 493.881 191.449 491.993 191.449C489.571 191.449 488.208 190.023 487.999 188.24L484.979 189.31ZM461.743 183.858C461.743 181.257 463.096 179.15 465.738 179.15C468.737 179.15 469.733 181.079 469.733 183.47V193.777H473.088V182.893C473.088 179.076 471.054 176.109 466.954 176.109C464.952 176.109 462.918 176.927 461.67 179.066V176.602H458.388V193.766H461.743V183.858ZM445.68 176.077C440.542 176.077 436.903 179.967 436.903 185.179C436.903 190.421 440.542 194.311 445.68 194.311C450.818 194.311 454.456 190.421 454.456 185.179C454.456 179.967 450.818 176.077 445.68 176.077ZM445.68 191.313C442.828 191.313 440.332 189.174 440.332 185.179C440.332 181.215 442.828 179.076 445.68 179.076C448.532 179.076 451.027 181.215 451.027 185.179C451.038 189.174 448.532 191.313 445.68 191.313ZM428.914 170.122C428.914 171.443 429.983 172.512 431.304 172.512C432.657 172.512 433.737 171.443 433.737 170.122C433.737 168.769 432.667 167.7 431.304 167.7C429.983 167.689 428.914 168.759 428.914 170.122ZM432.982 176.612H429.658V193.777H432.982V176.612ZM421.847 171.191H418.774V173.97C418.774 175.469 417.988 176.612 416.132 176.612H415.199V179.642H418.491V189.058C418.491 192.162 420.347 193.944 423.273 193.944C424.415 193.944 425.275 193.735 425.558 193.619V190.767C425.275 190.841 424.667 190.914 424.237 190.914C422.486 190.914 421.847 190.128 421.847 188.555V179.632H425.558V176.602H421.847V171.191ZM406.003 179.181C408.929 179.181 410.176 181.142 410.606 182.819L413.636 181.53C412.923 178.929 410.564 176.067 406.003 176.067C401.117 176.067 397.363 179.81 397.363 185.168C397.363 190.379 401.044 194.301 406.035 194.301C410.491 194.301 412.955 191.407 413.773 188.953L410.816 187.664C410.428 189.016 409.243 191.197 406.035 191.197C403.256 191.197 400.792 189.09 400.792 185.168C400.792 181.184 403.287 179.181 406.003 179.181ZM391.869 187.884C391.229 189.813 389.835 191.344 387.056 191.344C384.162 191.344 381.95 189.205 381.887 186.133H394.805C394.836 185.913 394.878 185.493 394.878 185.063C394.878 179.716 391.911 176.067 386.637 176.067C382.317 176.067 378.427 179.737 378.427 185.126C378.427 190.946 382.464 194.301 387.056 194.301C391.051 194.301 393.798 191.91 394.763 188.88L391.869 187.884ZM381.992 183.428C382.138 181.215 383.848 179.034 386.668 179.034C389.698 179.034 391.303 180.964 391.376 183.428H381.992ZM372.177 171.191H369.105V173.97C369.105 175.469 368.319 176.612 366.463 176.612H365.54V179.642H368.822V189.058C368.822 192.162 370.678 193.944 373.603 193.944C374.746 193.944 375.606 193.735 375.889 193.619V190.767C375.606 190.841 374.998 190.914 374.568 190.914C372.817 190.914 372.177 190.128 372.177 188.555V179.632H375.889V176.602H372.177V171.191ZM355.16 176.077C350.022 176.077 346.383 179.967 346.383 185.179C346.383 190.421 350.022 194.311 355.16 194.311C360.298 194.311 363.936 190.421 363.936 185.179C363.936 179.967 360.298 176.077 355.16 176.077ZM355.16 191.313C352.308 191.313 349.812 189.174 349.812 185.179C349.812 181.215 352.308 179.076 355.16 179.076C358.012 179.076 360.507 181.215 360.507 185.179C360.507 189.174 358.012 191.313 355.16 191.313ZM344.769 176.434C344.59 176.392 344.129 176.329 343.657 176.329C341.906 176.329 339.767 176.969 338.519 179.611V176.612H335.238V193.777H338.593V185.179C338.593 181.393 340.48 179.894 343.301 179.894C343.762 179.894 344.265 179.926 344.758 179.999L344.769 176.434ZM327.898 185.179C327.898 188.712 325.937 191.25 322.833 191.25C319.761 191.25 317.727 188.723 317.727 185.179C317.727 181.75 319.761 179.181 322.833 179.181C325.969 179.181 327.898 181.75 327.898 185.179ZM317.758 200.561V191.459C318.681 192.99 320.684 194.238 323.326 194.238C328.359 194.238 331.316 190.275 331.316 185.168C331.316 180.177 328.569 176.214 323.431 176.214C320.652 176.214 318.618 177.566 317.685 179.286V176.612H314.435V200.55L317.758 200.561ZM299.021 187.884C298.382 189.813 296.987 191.344 294.208 191.344C291.314 191.344 289.102 189.205 289.029 186.133H301.947C301.978 185.913 302.02 185.493 302.02 185.063C302.02 179.716 299.063 176.067 293.778 176.067C289.458 176.067 285.568 179.737 285.568 185.126C285.568 190.946 289.605 194.301 294.208 194.301C298.203 194.301 300.95 191.91 301.915 188.88L299.021 187.884ZM289.133 183.428C289.28 181.215 290.989 179.034 293.81 179.034C296.84 179.034 298.444 180.964 298.518 183.428H289.133ZM283.922 176.434C283.744 176.392 283.283 176.329 282.811 176.329C281.06 176.329 278.921 176.969 277.673 179.611V176.612H274.391V193.777H277.746V185.179C277.746 181.393 279.634 179.894 282.454 179.894C282.916 179.894 283.419 179.926 283.912 179.999L283.922 176.434ZM266.936 171.191H263.864V173.97C263.864 175.469 263.077 176.612 261.221 176.612H260.299V179.642H263.581V189.058C263.581 192.162 265.437 193.944 268.362 193.944C269.505 193.944 270.365 193.735 270.648 193.619V190.767C270.365 190.841 269.757 190.914 269.327 190.914C267.576 190.914 266.936 190.128 266.936 188.555V179.632H270.648V176.602H266.936V171.191ZM249.918 176.077C244.78 176.077 241.142 179.967 241.142 185.179C241.142 190.421 244.78 194.311 249.918 194.311C255.056 194.311 258.695 190.421 258.695 185.179C258.695 179.967 255.056 176.077 249.918 176.077ZM249.918 191.313C247.066 191.313 244.571 189.174 244.571 185.179C244.571 181.215 247.066 179.076 249.918 179.076C252.77 179.076 255.266 181.215 255.266 185.179C255.266 189.174 252.77 191.313 249.918 191.313ZM226.221 183.858C226.221 181.257 227.574 179.15 230.216 179.15C233.215 179.15 234.211 181.079 234.211 183.47V193.777H237.567V182.893C237.567 179.076 235.532 176.109 231.433 176.109C229.43 176.109 227.396 176.927 226.148 179.066V176.602H222.866V193.766H226.221V183.858ZM207.442 187.884C206.803 189.813 205.408 191.344 202.629 191.344C199.735 191.344 197.523 189.205 197.46 186.133H210.378C210.409 185.913 210.451 185.493 210.451 185.063C210.451 179.716 207.484 176.067 202.21 176.067C197.89 176.067 194 179.737 194 185.126C194 190.946 198.037 194.301 202.64 194.301C206.635 194.301 209.382 191.91 210.347 188.88L207.442 187.884ZM197.565 183.428C197.712 181.215 199.421 179.034 202.241 179.034C205.272 179.034 206.876 180.964 206.949 183.428H197.565ZM186.786 191.459C186.786 192.497 186.891 193.389 186.964 193.777H190.215C190.183 193.494 190.036 192.246 190.036 190.6V167.941H186.713V179.034C186.146 177.64 184.5 176.14 181.47 176.14C176.615 176.14 173.333 180.282 173.333 185.137C173.333 190.243 176.437 194.238 181.47 194.238C184.144 194.238 185.968 192.812 186.786 191.166V191.459ZM176.752 185.137C176.752 181.603 178.754 179.108 181.816 179.108C184.888 179.108 186.744 181.53 186.744 185.063C186.744 188.597 184.857 191.271 181.784 191.271C178.576 191.281 176.752 188.67 176.752 185.137ZM159.335 187.884C158.696 189.813 157.301 191.344 154.512 191.344C151.618 191.344 149.406 189.205 149.343 186.133H162.261C162.292 185.913 162.334 185.493 162.334 185.063C162.334 179.716 159.377 176.067 154.093 176.067C149.773 176.067 145.883 179.737 145.883 185.126C145.883 190.946 149.92 194.301 154.512 194.301C158.507 194.301 161.254 191.91 162.219 188.88L159.335 187.884ZM149.448 183.428C149.594 181.215 151.304 179.034 154.124 179.034C157.154 179.034 158.759 180.964 158.832 183.428H149.448ZM136.1 179.181C139.025 179.181 140.273 181.142 140.703 182.819L143.733 181.53C143.02 178.929 140.661 176.067 136.1 176.067C131.214 176.067 127.47 179.81 127.47 185.168C127.47 190.379 131.14 194.301 136.142 194.301C140.598 194.301 143.062 191.407 143.89 188.953L140.923 187.664C140.535 189.016 139.35 191.197 136.142 191.197C133.363 191.197 130.899 189.09 130.899 185.168C130.899 181.184 133.395 179.181 136.1 179.181ZM119.47 170.122C119.47 171.443 120.54 172.512 121.861 172.512C123.213 172.512 124.283 171.443 124.283 170.122C124.283 168.769 123.213 167.7 121.861 167.7C120.55 167.689 119.47 168.759 119.47 170.122ZM123.538 176.612H120.215V193.777H123.538V176.612ZM117.373 176.612H113.766L108.838 189.845L103.952 176.612H100.167L107.129 193.777H110.516L117.373 176.612ZM98.9188 176.434C98.7405 176.392 98.2792 176.329 97.8073 176.329C96.0563 176.329 93.9173 176.969 92.6695 179.611V176.612H89.3876V193.777H92.7429V185.179C92.7429 181.393 94.6303 179.894 97.4508 179.894C97.9122 179.894 98.4155 179.926 98.9083 179.999V176.434H98.9188ZM82.4778 187.884C81.8382 189.813 80.4436 191.344 77.665 191.344C74.771 191.344 72.5586 189.205 72.4852 186.133H85.4032C85.4346 185.913 85.4766 185.493 85.4766 185.063C85.4766 179.716 82.5197 176.067 77.2351 176.067C72.9151 176.067 69.0251 179.737 69.0251 185.126C69.0251 190.946 73.0619 194.301 77.665 194.301C81.6599 194.301 84.4071 191.91 85.3717 188.88L82.4778 187.884ZM72.5901 183.428C72.7369 181.215 74.446 179.034 77.2665 179.034C80.2968 179.034 81.9011 180.964 81.9745 183.428H72.5901ZM53.2236 189.31C53.5067 191.271 55.5094 194.311 60.2174 194.311C64.4639 194.311 66.4981 191.417 66.4981 188.995C66.4981 186.458 64.8624 184.571 61.7482 183.889L58.9696 183.281C57.6485 182.998 57.0089 182.243 57.0089 181.215C57.0089 180.041 58.1518 178.929 59.8609 178.929C62.5766 178.929 63.2896 180.89 63.4259 181.781L66.3828 180.68C66.0263 179.15 64.5583 176.077 59.8504 176.077C56.4951 176.077 53.7479 178.573 53.7479 181.498C53.7479 183.92 55.3522 185.745 58.0259 186.311L60.9513 186.951C62.3774 187.276 63.1638 188.094 63.1638 189.163C63.1638 190.379 62.1257 191.449 60.2383 191.449C57.8162 191.449 56.4531 190.023 56.2434 188.24L53.2236 189.31ZM37.7997 191.711C37.7997 192.424 37.8731 193.389 37.9465 193.777H41.155C41.0816 193.169 40.9768 191.952 40.9768 190.6V176.612H37.6214V186.961C37.6214 189.562 36.2688 191.344 33.5531 191.344C30.7326 191.344 29.6631 189.278 29.6631 186.919V176.612H26.3078V187.423C26.3078 191.313 28.7299 194.311 32.7353 194.311C34.7275 194.311 36.8665 193.494 37.7997 191.711ZM12.3518 172.114L16.7346 183.459H8.03179L12.3518 172.114ZM20.74 193.777H24.5252L14.4593 168.476H10.4329L0.367004 193.777H4.11027L6.78404 186.71H17.9929L20.74 193.777Z" fill="#0071CE"/>
</g>
<defs>
<clipPath id="clip0_3_81">
<rect width="591.374" height="190.833" fill="white" transform="translate(0 10)"/>
</clipPath>
</defs>
</svg>
