<?xml version="1.0" encoding="UTF-8" standalone="no"?>
<svg
   xmlns:dc="http://purl.org/dc/elements/1.1/"
   xmlns:cc="http://creativecommons.org/ns#"
   xmlns:rdf="http://www.w3.org/1999/02/22-rdf-syntax-ns#"
   xmlns:svg="http://www.w3.org/2000/svg"
   xmlns="http://www.w3.org/2000/svg"
   xmlns:sodipodi="http://sodipodi.sourceforge.net/DTD/sodipodi-0.dtd"
   xmlns:inkscape="http://www.inkscape.org/namespaces/inkscape"
   id="Calque_1"
   data-name="Calque 1"
   viewBox="0 0 640 212"
   version="1.1"
   sodipodi:docname="logo.svg"
   inkscape:version="0.92.4 5da689c313, 2019-01-14">
  <metadata
     id="metadata1736">
    <rdf:RDF>
      <cc:Work
         rdf:about="">
        <dc:format>image/svg+xml</dc:format>
        <dc:type
           rdf:resource="http://purl.org/dc/dcmitype/StillImage" />
      </cc:Work>
    </rdf:RDF>
  </metadata>
  <sodipodi:namedview
     pagecolor="#ffffff"
     bordercolor="#666666"
     borderopacity="1"
     objecttolerance="10"
     gridtolerance="10"
     guidetolerance="10"
     inkscape:pageopacity="0"
     inkscape:pageshadow="2"
     inkscape:window-width="2506"
     inkscape:window-height="1384"
     id="namedview1734"
     showgrid="false"
     inkscape:zoom="0.7671875"
     inkscape:cx="72.99389"
     inkscape:cy="106"
     inkscape:window-x="54"
     inkscape:window-y="30"
     inkscape:window-maximized="1"
     inkscape:current-layer="Calque_1" />
  <defs
     id="defs1673">
    <style
       id="style1671">.cls-1{fill:#1091fc;}.cls-2{fill:#62cdf8;}.cls-3{fill:#91ecc2;}.cls-4{fill:#43ddc0;}.cls-5{font-size:67.71px;font-family:'Futura Bold', Futura;font-weight:bold;}.cls-5,.cls-8{fill:#1e266d;}.cls-6{letter-spacing:0.01em;}.cls-7{letter-spacing:0em;}.cls-9{fill:#4b518a;}.cls-10{fill:#cc0a5a;}.cls-11{fill:#fad650;}.cls-12{fill:#f4c327;}.cls-13{fill:#ff2e97;}.cls-14{fill:#1c9ff7;}.cls-15{fill:#ffc41d;}.cls-16{fill:#fad668;}</style>
  </defs>
  <title
     id="title1675">mon-entreprise_color_light_01</title>
  <g
     aria-label="mon entreprise"
     transform="translate(155.97 118.01)"
     style="font-weight:bold;font-size:67.70999908px;font-family:'Futura Bold', Futura;fill:#1e266d"
     id="text1695">
    <path
       d="M 16.38582,-34.73523 H 4.0625999 V 0 H 16.38582 v -16.58895 c 0,-3.85947 0,-9.75024 5.48451,-9.75024 5.48451,0 5.48451,5.89077 5.48451,9.75024 V 0 h 12.323219 v -16.58895 c 0,-4.13031 0.20313,-9.4794 5.89077,-9.4794 5.21367,0 5.07825,5.89077 5.07825,9.4794 V 0 h 12.32322 v -22.14117 c 0,-7.98978 -3.04695,-13.74513 -11.84925,-13.74513 -4.7397,0 -9.41169,2.30214 -11.78154,6.63558 C 36.83424,-33.855 32.5008,-35.8863 27.49026,-35.8863 c -4.46886,0 -8.05749,1.62504 -10.96902,5.48451 h -0.13542 z"
       style="font-weight:bold;font-size:67.70999908px;font-family:'Futura Bold', Futura;fill:#1e266d"
       id="path2281" />
    <path
       d="m 89.328529,-35.8863 c -11.17215,0 -20.92239,6.70329 -20.92239,18.55254 0,11.8492501 9.81795,18.48483 20.92239,18.48483 11.172151,0 20.922391,-6.7032899 20.922391,-18.48483 0,-11.84925 -9.75024,-18.55254 -20.922391,-18.55254 z m 0,10.69818 c 5.01054,0 7.92207,3.58863 7.92207,7.85436 0,4.40115 -2.91153,7.7866501 -7.92207,7.7866501 -5.01054,0 -7.92207,-3.3855001 -7.92207,-7.7866501 0,-4.26573 2.91153,-7.85436 7.92207,-7.85436 z"
       style="font-weight:bold;font-size:67.70999908px;font-family:'Futura Bold', Futura;fill:#1e266d"
       id="path2283" />
    <path
       d="M 128.13376,-34.73523 H 115.81054 V 0 h 12.32322 v -18.01086 c 0,-4.33344 1.42191,-8.05749 6.43245,-8.05749 6.0939,0 5.55222,5.82306 5.55222,9.14085 V 0 h 12.32322 v -21.46407 c 0,-8.53146 -3.72405,-14.42223 -13.06803,-14.42223 -4.80741,0 -8.26062,1.42191 -11.10444,5.61993 h -0.13542 z"
       style="font-weight:bold;font-size:67.70999908px;font-family:'Futura Bold', Futura;fill:#1e266d"
       id="path2285" />
    <path
       d="m 14.01597,34.007988 c 0.74481,-3.588629 3.72405,-5.484509 7.31268,-5.484509 3.31779,0 6.36474,2.16672 6.97413,5.484509 z m 25.729799,5.82306 c 0,-11.849249 -6.974129,-19.297349 -19.026509,-19.297349 -11.3075701,0 -19.22964,6.97413 -19.22964,18.552539 0,11.98467 8.59917,18.48483 20.10987,18.48483 7.92207,0 15.708719,-3.72405 17.672309,-11.91696 H 27.42255 c -1.3542,2.30214 -3.25008,3.18237 -5.89077,3.18237 -5.07825,0 -7.71894,-2.7084 -7.71894,-7.71894 h 25.932929 z"
       style=""
       id="path2287" />
    <path
       d="M 57.6466,21.684769 H 45.32338 V 56.419998 H 57.6466 v -18.01086 c 0,-4.33344 1.42191,-8.057489 6.43245,-8.057489 6.0939,0 5.55222,5.823059 5.55222,9.140849 v 16.9275 h 12.32322 v -21.46407 c 0,-8.531459 -3.72405,-14.422229 -13.06803,-14.422229 -4.80741,0 -8.26062,1.42191 -11.10444,5.61993 H 57.6466 Z"
       style=""
       id="path2289" />
    <path
       d="m 103.49685,31.841269 h 6.97413 v -10.1565 h -6.97413 V 11.257429 H 91.173631 v 10.42734 h -3.99489 v 10.1565 h 3.99489 v 24.578729 h 12.323219 z"
       style=""
       id="path2291" />
    <path
       d="M 130.40582,21.684769 H 118.0826 v 34.735229 h 12.32322 v -14.01597 c 0,-5.95848 1.69275,-10.495049 8.53146,-10.495049 1.89588,0 3.52092,0.203129 5.21367,1.151069 V 21.210799 h -2.36985 c -4.80741,0 -8.87001,1.89588 -11.23986,6.16161 h -0.13542 z"
       style="letter-spacing:0.01em"
       id="path2293" />
    <path
       d="m 159.98597,34.007988 c 0.74481,-3.588629 3.72405,-5.484509 7.31268,-5.484509 3.31779,0 6.36474,2.16672 6.97413,5.484509 z m 25.7298,5.82306 c 0,-11.849249 -6.97413,-19.297349 -19.02651,-19.297349 -11.30757,0 -19.22964,6.97413 -19.22964,18.552539 0,11.98467 8.59917,18.48483 20.10987,18.48483 7.92207,0 15.70872,-3.72405 17.67231,-11.91696 h -11.84925 c -1.3542,2.30214 -3.25008,3.18237 -5.89077,3.18237 -5.07825,0 -7.71894,-2.7084 -7.71894,-7.71894 h 25.93293 z"
       style=""
       id="path2295" />
    <path
       d="m 203.21034,21.684769 h -12.32322 v 52.068989 h 12.32322 v -20.65155 c 2.64069,3.04695 6.771,4.46886 10.76589,4.46886 10.29192,0 17.40147,-8.39604 17.40147,-18.41712 0,-9.953369 -7.17726,-18.620249 -17.53689,-18.620249 -4.0626,0 -8.26062,1.62504 -10.49505,5.07825 h -0.13542 z m 7.51581,9.54711 c 5.01054,0 7.92207,3.588629 7.92207,7.854359 0,4.40115 -2.91153,7.78665 -7.92207,7.78665 -5.01054,0 -7.92207,-3.3855 -7.92207,-7.78665 0,-4.26573 2.91153,-7.854359 7.92207,-7.854359 z"
       style=""
       id="path2297" />
    <path
       d="m 253.62583,21.684769 h -12.32322 v 34.735229 h 12.32322 v -14.01597 c 0,-5.95848 1.69275,-10.495049 8.53146,-10.495049 1.89588,0 3.52092,0.203129 5.21367,1.151069 V 21.210799 h -2.36985 c -4.80741,0 -8.87001,1.89588 -11.23986,6.16161 h -0.13542 z"
       style="letter-spacing:0em"
       id="path2299" />
    <path
       d="m 285.17583,21.684769 h -12.32322 v 34.735229 h 12.32322 z M 279.01422,1.4394789 c -3.79176,0 -6.90642,3.11466 -6.90642,6.9064199 0,3.7917602 3.11466,6.9064202 6.90642,6.9064202 3.79176,0 6.90642,-3.11466 6.90642,-6.9064202 0,-3.7917599 -3.11466,-6.9064199 -6.90642,-6.9064199 z"
       style=""
       id="path2301" />
    <path
       d="m 320.43475,22.768129 c -3.58863,-1.62504 -7.51581,-2.23443 -11.44299,-2.23443 -7.58352,0 -15.30246,3.79176 -15.30246,12.323219 0,6.22932 3.85947,8.1252 7.71894,9.14085 3.85947,1.01565 7.71894,1.15107 7.71894,3.85947 0,1.89588 -2.30214,2.64069 -3.85947,2.64069 -3.04695,0 -7.24497,-1.76046 -9.75024,-3.52092 l -4.46886,8.59917 c 4.19802,2.57298 9.07314,3.99489 14.01597,3.99489 8.05749,0 16.38582,-3.79176 16.38582,-12.93261 0,-6.43245 -4.33344,-9.14085 -10.08879,-10.29192 -1.69275,-0.33855 -5.55222,-0.6771 -5.55222,-3.046949 0,-1.76046 2.43756,-2.36985 3.85947,-2.36985 2.09901,0 4.7397,0.6771 6.63558,1.69275 z"
       style=""
       id="path2303" />
    <path
       d="m 338.08485,34.007988 c 0.74481,-3.588629 3.72405,-5.484509 7.31268,-5.484509 3.31779,0 6.36474,2.16672 6.97413,5.484509 z m 25.7298,5.82306 c 0,-11.849249 -6.97413,-19.297349 -19.02651,-19.297349 -11.30757,0 -19.22964,6.97413 -19.22964,18.552539 0,11.98467 8.59917,18.48483 20.10987,18.48483 7.92207,0 15.70872,-3.72405 17.67231,-11.91696 h -11.84925 c -1.3542,2.30214 -3.25008,3.18237 -5.89077,3.18237 -5.07825,0 -7.71894,-2.7084 -7.71894,-7.71894 h 25.93293 z"
       style=""
       id="path2305" />
  </g>
  <polygon
     class="cls-8"
     points="108.78 39.15 93.04 39.15 90.79 30.15 106.53 30.15 104.29 34.65 108.78 39.15"
     id="polygon1697" />
  <polygon
     class="cls-9"
     points="98.69 36.86 87.44 36.86 84.04 27.9 95.29 27.9 98.69 36.86"
     id="polygon1699" />
  <path
     class="cls-10"
     d="M88.54,47a1.11,1.11,0,0,1-1.09-.85l-4.5-18a1.12,1.12,0,1,1,2.18-.55l4.5,18A1.14,1.14,0,0,1,88.81,47Z"
     id="path1701" />
  <path
     class="cls-11"
     d="M47.89,125.93H85.13a1.13,1.13,0,0,0,1.13-1.12V87.57a1.13,1.13,0,0,0-1.13-1.13H67.64a1.13,1.13,0,0,0-1.13,1.13v17.49a1.13,1.13,0,0,1-1.13,1.13H47.89a1.13,1.13,0,0,0-1.13,1.12v17.5A1.13,1.13,0,0,0,47.89,125.93Z"
     id="path1703" />
  <path
     class="cls-12"
     d="M85.88,86.72a1.16,1.16,0,0,0-.75-.28H67.64a1.13,1.13,0,0,0-1.13,1.13v13.3S86.11,86.93,85.88,86.72Z"
     id="path1705" />
  <path
     class="cls-12"
     d="M58.94,106.19h-11a1.13,1.13,0,0,0-1.13,1.12v8.07Z"
     id="path1707" />
  <path
     class="cls-10"
     d="M87.28,43.4,66.66,79.1a1.13,1.13,0,0,0,1,1.7h41.23a1.13,1.13,0,0,0,1-1.7L89.23,43.4A1.13,1.13,0,0,0,87.28,43.4Z"
     id="path1709" />
  <path
     class="cls-13"
     d="M67.33,78l-.67,1.15a1.13,1.13,0,0,0,1,1.7h41.23a1.13,1.13,0,0,0,1-1.7L94,51.56Z"
     id="path1711" />
  <path
     class="cls-2"
     d="M45.94,132.71v40.06a1.12,1.12,0,0,0,1.13,1.12H66a1.12,1.12,0,0,0,1.11-1.08,21.16,21.16,0,0,1,42.26,0,1.11,1.11,0,0,0,1.1,1.08h19a1.12,1.12,0,0,0,1.13-1.12V132.71a1.12,1.12,0,0,0-1.13-1.13H47.07A1.12,1.12,0,0,0,45.94,132.71Z"
     id="path1713" />
  <path
     class="cls-14"
     d="M75.9,131.58H47.07a1.12,1.12,0,0,0-1.13,1.13v20.83"
     id="path1715" />
  <circle
     class="cls-4"
     cx="111.13"
     cy="106.2"
     r="19.76"
     id="circle1721" />
  <path
     class="cls-3"
     d="M103.44,124.41a19.76,19.76,0,0,0,27.45-18.21c0-.41,0-.83,0-1.24"
     id="path1723" />
</svg>
